M48
; DRILL file {KiCad 5.1.7} date Thu Oct 15 01:08:02 2020
; FORMAT={-:-/ absolute / metric / decimal}
; #@! TF.CreationDate,2020-10-15T01:08:02+02:00
; #@! TF.GenerationSoftware,Kicad,Pcbnew,5.1.7
; #@! TF.FileFunction,Plated,1,2,PTH
FMAT,2
METRIC
T1C0.300
T2C0.700
T3C0.750
T4C0.800
T5C0.850
T6C0.900
T7C1.000
T8C1.001
T9C1.500
T10C1.700
T11C3.000
%
G90
G05
T1
X119.0Y-109.2
X130.5Y-106.5
X130.5Y-108.0
X132.5Y-106.5
X132.5Y-108.0
T2
X114.97Y-98.208
X114.97Y-100.748
X116.24Y-96.938
X116.24Y-102.018
X117.51Y-98.208
X117.51Y-100.748
T3
X122.0Y-109.5
X122.0Y-110.77
X122.0Y-112.04
T4
X95.0Y-101.0
X95.0Y-103.0
X137.08Y-109.72
X137.08Y-112.26
X137.08Y-114.8
X144.7Y-109.72
X144.7Y-112.26
X144.7Y-114.8
T5
X120.685Y-97.595
X120.685Y-99.5
X120.685Y-101.405
X122.59Y-97.595
X122.59Y-99.5
X122.59Y-101.405
X124.495Y-97.595
X124.495Y-99.5
X124.495Y-101.405
X126.4Y-97.595
X126.4Y-99.5
X126.4Y-101.405
X128.305Y-97.595
X128.305Y-99.5
X128.305Y-101.405
X130.21Y-97.595
X130.21Y-99.5
X130.21Y-101.405
X132.115Y-97.595
X132.115Y-99.5
X132.115Y-101.405
X134.02Y-97.595
X134.02Y-99.5
X134.02Y-101.405
T6
X99.822Y-100.0
X102.362Y-100.0
T7
X92.6Y-107.78
X92.6Y-115.4
X100.22Y-107.78
X100.22Y-115.4
X105.3Y-107.78
X105.3Y-115.4
X110.38Y-107.78
X110.38Y-115.4
T8
X119.5Y-115.5
X124.2Y-115.4
X150.2Y-93.0
X153.6Y-93.1
T9
X151.5Y-112.5
X151.5Y-99.5
T10
X148.96Y-109.96
X148.96Y-115.04
X154.04Y-109.96
X154.04Y-115.04
X148.96Y-96.96
X148.96Y-102.04
X154.04Y-96.96
X154.04Y-102.04
T11
X108.24Y-99.5
X140.75Y-99.5
T0
M30
