G04 #@! TF.GenerationSoftware,KiCad,Pcbnew,(5.1.9)-1*
G04 #@! TF.CreationDate,2021-03-04T22:15:46+01:00*
G04 #@! TF.ProjectId,DgDrive_DVI,44674472-6976-4655-9f44-56492e6b6963,1.3.1*
G04 #@! TF.SameCoordinates,Original*
G04 #@! TF.FileFunction,Paste,Top*
G04 #@! TF.FilePolarity,Positive*
%FSLAX46Y46*%
G04 Gerber Fmt 4.6, Leading zero omitted, Abs format (unit mm)*
G04 Created by KiCad (PCBNEW (5.1.9)-1) date 2021-03-04 22:15:46*
%MOMM*%
%LPD*%
G01*
G04 APERTURE LIST*
%ADD10R,0.900000X0.800000*%
%ADD11R,0.800000X0.900000*%
%ADD12R,0.900000X1.200000*%
%ADD13R,2.000000X3.800000*%
G04 APERTURE END LIST*
G36*
G01*
X131924999Y-113150000D02*
X134075001Y-113150000D01*
G75*
G02*
X134325000Y-113399999I0J-249999D01*
G01*
X134325000Y-114025001D01*
G75*
G02*
X134075001Y-114275000I-249999J0D01*
G01*
X131924999Y-114275000D01*
G75*
G02*
X131675000Y-114025001I0J249999D01*
G01*
X131675000Y-113399999D01*
G75*
G02*
X131924999Y-113150000I249999J0D01*
G01*
G37*
G36*
G01*
X131924999Y-110225000D02*
X134075001Y-110225000D01*
G75*
G02*
X134325000Y-110474999I0J-249999D01*
G01*
X134325000Y-111100001D01*
G75*
G02*
X134075001Y-111350000I-249999J0D01*
G01*
X131924999Y-111350000D01*
G75*
G02*
X131675000Y-111100001I0J249999D01*
G01*
X131675000Y-110474999D01*
G75*
G02*
X131924999Y-110225000I249999J0D01*
G01*
G37*
D10*
X118300000Y-92600000D03*
X116300000Y-93550000D03*
X116300000Y-91650000D03*
D11*
X109500000Y-93500000D03*
X108550000Y-91500000D03*
X110450000Y-91500000D03*
G36*
G01*
X133900000Y-108650001D02*
X133900000Y-107349999D01*
G75*
G02*
X134149999Y-107100000I249999J0D01*
G01*
X134800001Y-107100000D01*
G75*
G02*
X135050000Y-107349999I0J-249999D01*
G01*
X135050000Y-108650001D01*
G75*
G02*
X134800001Y-108900000I-249999J0D01*
G01*
X134149999Y-108900000D01*
G75*
G02*
X133900000Y-108650001I0J249999D01*
G01*
G37*
G36*
G01*
X130950000Y-108650001D02*
X130950000Y-107349999D01*
G75*
G02*
X131199999Y-107100000I249999J0D01*
G01*
X131850001Y-107100000D01*
G75*
G02*
X132100000Y-107349999I0J-249999D01*
G01*
X132100000Y-108650001D01*
G75*
G02*
X131850001Y-108900000I-249999J0D01*
G01*
X131199999Y-108900000D01*
G75*
G02*
X130950000Y-108650001I0J249999D01*
G01*
G37*
D12*
X98650000Y-95500000D03*
X95350000Y-95500000D03*
G36*
G01*
X147900000Y-104924999D02*
X147900000Y-107075001D01*
G75*
G02*
X147650001Y-107325000I-249999J0D01*
G01*
X147024999Y-107325000D01*
G75*
G02*
X146775000Y-107075001I0J249999D01*
G01*
X146775000Y-104924999D01*
G75*
G02*
X147024999Y-104675000I249999J0D01*
G01*
X147650001Y-104675000D01*
G75*
G02*
X147900000Y-104924999I0J-249999D01*
G01*
G37*
G36*
G01*
X150825000Y-104924999D02*
X150825000Y-107075001D01*
G75*
G02*
X150575001Y-107325000I-249999J0D01*
G01*
X149949999Y-107325000D01*
G75*
G02*
X149700000Y-107075001I0J249999D01*
G01*
X149700000Y-104924999D01*
G75*
G02*
X149949999Y-104675000I249999J0D01*
G01*
X150575001Y-104675000D01*
G75*
G02*
X150825000Y-104924999I0J-249999D01*
G01*
G37*
G36*
G01*
X125275000Y-110225000D02*
X125825000Y-110225000D01*
G75*
G02*
X126025000Y-110425000I0J-200000D01*
G01*
X126025000Y-110825000D01*
G75*
G02*
X125825000Y-111025000I-200000J0D01*
G01*
X125275000Y-111025000D01*
G75*
G02*
X125075000Y-110825000I0J200000D01*
G01*
X125075000Y-110425000D01*
G75*
G02*
X125275000Y-110225000I200000J0D01*
G01*
G37*
G36*
G01*
X125275000Y-108575000D02*
X125825000Y-108575000D01*
G75*
G02*
X126025000Y-108775000I0J-200000D01*
G01*
X126025000Y-109175000D01*
G75*
G02*
X125825000Y-109375000I-200000J0D01*
G01*
X125275000Y-109375000D01*
G75*
G02*
X125075000Y-109175000I0J200000D01*
G01*
X125075000Y-108775000D01*
G75*
G02*
X125275000Y-108575000I200000J0D01*
G01*
G37*
G36*
G01*
X113275000Y-92075000D02*
X112725000Y-92075000D01*
G75*
G02*
X112525000Y-91875000I0J200000D01*
G01*
X112525000Y-91475000D01*
G75*
G02*
X112725000Y-91275000I200000J0D01*
G01*
X113275000Y-91275000D01*
G75*
G02*
X113475000Y-91475000I0J-200000D01*
G01*
X113475000Y-91875000D01*
G75*
G02*
X113275000Y-92075000I-200000J0D01*
G01*
G37*
G36*
G01*
X113275000Y-93725000D02*
X112725000Y-93725000D01*
G75*
G02*
X112525000Y-93525000I0J200000D01*
G01*
X112525000Y-93125000D01*
G75*
G02*
X112725000Y-92925000I200000J0D01*
G01*
X113275000Y-92925000D01*
G75*
G02*
X113475000Y-93125000I0J-200000D01*
G01*
X113475000Y-93525000D01*
G75*
G02*
X113275000Y-93725000I-200000J0D01*
G01*
G37*
D13*
X125000000Y-115000000D03*
G36*
G01*
X102775000Y-105225000D02*
X102225000Y-105225000D01*
G75*
G02*
X102025000Y-105025000I0J200000D01*
G01*
X102025000Y-104625000D01*
G75*
G02*
X102225000Y-104425000I200000J0D01*
G01*
X102775000Y-104425000D01*
G75*
G02*
X102975000Y-104625000I0J-200000D01*
G01*
X102975000Y-105025000D01*
G75*
G02*
X102775000Y-105225000I-200000J0D01*
G01*
G37*
G36*
G01*
X102775000Y-103575000D02*
X102225000Y-103575000D01*
G75*
G02*
X102025000Y-103375000I0J200000D01*
G01*
X102025000Y-102975000D01*
G75*
G02*
X102225000Y-102775000I200000J0D01*
G01*
X102775000Y-102775000D01*
G75*
G02*
X102975000Y-102975000I0J-200000D01*
G01*
X102975000Y-103375000D01*
G75*
G02*
X102775000Y-103575000I-200000J0D01*
G01*
G37*
M02*
