G04 #@! TF.GenerationSoftware,KiCad,Pcbnew,(5.1.9)-1*
G04 #@! TF.CreationDate,2021-08-10T13:31:54+02:00*
G04 #@! TF.ProjectId,DgDrive_DVI,44674472-6976-4655-9f44-56492e6b6963,1.5*
G04 #@! TF.SameCoordinates,Original*
G04 #@! TF.FileFunction,Soldermask,Bot*
G04 #@! TF.FilePolarity,Negative*
%FSLAX46Y46*%
G04 Gerber Fmt 4.6, Leading zero omitted, Abs format (unit mm)*
G04 Created by KiCad (PCBNEW (5.1.9)-1) date 2021-08-10 13:31:54*
%MOMM*%
%LPD*%
G01*
G04 APERTURE LIST*
%ADD10R,1.500000X1.050000*%
%ADD11O,1.500000X1.050000*%
%ADD12C,1.800000*%
%ADD13R,1.800000X1.800000*%
%ADD14C,2.250000*%
%ADD15C,2.050000*%
%ADD16C,2.000000*%
%ADD17C,1.300000*%
%ADD18C,4.200000*%
%ADD19C,2.499360*%
%ADD20R,1.600000X1.600000*%
%ADD21C,1.600000*%
%ADD22C,0.100000*%
G04 APERTURE END LIST*
D10*
X122000000Y-109500000D03*
D11*
X122000000Y-112040000D03*
X122000000Y-110770000D03*
D12*
X102362000Y-100000000D03*
D13*
X99822000Y-100000000D03*
D14*
X148960000Y-109960000D03*
X148960000Y-115040000D03*
X154040000Y-115040000D03*
X154040000Y-109960000D03*
D15*
X151500000Y-112500000D03*
D14*
X148960000Y-96960000D03*
X148960000Y-102040000D03*
X154040000Y-102040000D03*
X154040000Y-96960000D03*
D15*
X151500000Y-99500000D03*
G36*
G01*
X117775000Y-111775000D02*
X117225000Y-111775000D01*
G75*
G02*
X117025000Y-111575000I0J200000D01*
G01*
X117025000Y-111175000D01*
G75*
G02*
X117225000Y-110975000I200000J0D01*
G01*
X117775000Y-110975000D01*
G75*
G02*
X117975000Y-111175000I0J-200000D01*
G01*
X117975000Y-111575000D01*
G75*
G02*
X117775000Y-111775000I-200000J0D01*
G01*
G37*
G36*
G01*
X117775000Y-113425000D02*
X117225000Y-113425000D01*
G75*
G02*
X117025000Y-113225000I0J200000D01*
G01*
X117025000Y-112825000D01*
G75*
G02*
X117225000Y-112625000I200000J0D01*
G01*
X117775000Y-112625000D01*
G75*
G02*
X117975000Y-112825000I0J-200000D01*
G01*
X117975000Y-113225000D01*
G75*
G02*
X117775000Y-113425000I-200000J0D01*
G01*
G37*
D16*
X110380000Y-107780000D03*
X105300000Y-107780000D03*
X100220000Y-107780000D03*
X92600000Y-107780000D03*
X110380000Y-115400000D03*
X105300000Y-115400000D03*
X92600000Y-115400000D03*
X100220000Y-115400000D03*
D17*
X116240000Y-102018000D03*
X116240000Y-96938000D03*
X114970000Y-100748000D03*
X117510000Y-100748000D03*
X117510000Y-98208000D03*
X114970000Y-98208000D03*
X120685000Y-97595000D03*
X120685000Y-101405000D03*
X122590000Y-101405000D03*
X124495000Y-101405000D03*
X126400000Y-101405000D03*
X128305000Y-101405000D03*
X130210000Y-101405000D03*
X132115000Y-101405000D03*
X134020000Y-101405000D03*
X120685000Y-99500000D03*
X122590000Y-99500000D03*
X124495000Y-99500000D03*
X126400000Y-99500000D03*
X128305000Y-99500000D03*
X130210000Y-99500000D03*
X132115000Y-99500000D03*
D18*
X140750000Y-99500000D03*
D17*
X124495000Y-97595000D03*
X122590000Y-97595000D03*
X134020000Y-99500000D03*
X126400000Y-97595000D03*
X128305000Y-97595000D03*
X134020000Y-97595000D03*
X132115000Y-97595000D03*
X130210000Y-97595000D03*
D18*
X108240000Y-99500000D03*
D19*
X119500000Y-115500000D03*
X149950000Y-93100000D03*
X153600000Y-93100000D03*
D20*
X95000000Y-101000000D03*
D21*
X95000000Y-103000000D03*
D22*
G36*
X125500000Y-111350602D02*
G01*
X125524534Y-111350602D01*
X125573365Y-111355412D01*
X125621490Y-111364984D01*
X125668445Y-111379228D01*
X125713778Y-111398005D01*
X125757051Y-111421136D01*
X125797850Y-111448396D01*
X125835779Y-111479524D01*
X125870476Y-111514221D01*
X125901604Y-111552150D01*
X125928864Y-111592949D01*
X125951995Y-111636222D01*
X125970772Y-111681555D01*
X125985016Y-111728510D01*
X125994588Y-111776635D01*
X125999398Y-111825466D01*
X125999398Y-111850000D01*
X126000000Y-111850000D01*
X126000000Y-112350000D01*
X125999398Y-112350000D01*
X125999398Y-112374534D01*
X125994588Y-112423365D01*
X125985016Y-112471490D01*
X125970772Y-112518445D01*
X125951995Y-112563778D01*
X125928864Y-112607051D01*
X125901604Y-112647850D01*
X125870476Y-112685779D01*
X125835779Y-112720476D01*
X125797850Y-112751604D01*
X125757051Y-112778864D01*
X125713778Y-112801995D01*
X125668445Y-112820772D01*
X125621490Y-112835016D01*
X125573365Y-112844588D01*
X125524534Y-112849398D01*
X125500000Y-112849398D01*
X125500000Y-112850000D01*
X125000000Y-112850000D01*
X125000000Y-111350000D01*
X125500000Y-111350000D01*
X125500000Y-111350602D01*
G37*
G36*
X124700000Y-112850000D02*
G01*
X124200000Y-112850000D01*
X124200000Y-112849398D01*
X124175466Y-112849398D01*
X124126635Y-112844588D01*
X124078510Y-112835016D01*
X124031555Y-112820772D01*
X123986222Y-112801995D01*
X123942949Y-112778864D01*
X123902150Y-112751604D01*
X123864221Y-112720476D01*
X123829524Y-112685779D01*
X123798396Y-112647850D01*
X123771136Y-112607051D01*
X123748005Y-112563778D01*
X123729228Y-112518445D01*
X123714984Y-112471490D01*
X123705412Y-112423365D01*
X123700602Y-112374534D01*
X123700602Y-112350000D01*
X123700000Y-112350000D01*
X123700000Y-111850000D01*
X123700602Y-111850000D01*
X123700602Y-111825466D01*
X123705412Y-111776635D01*
X123714984Y-111728510D01*
X123729228Y-111681555D01*
X123748005Y-111636222D01*
X123771136Y-111592949D01*
X123798396Y-111552150D01*
X123829524Y-111514221D01*
X123864221Y-111479524D01*
X123902150Y-111448396D01*
X123942949Y-111421136D01*
X123986222Y-111398005D01*
X124031555Y-111379228D01*
X124078510Y-111364984D01*
X124126635Y-111355412D01*
X124175466Y-111350602D01*
X124200000Y-111350602D01*
X124200000Y-111350000D01*
X124700000Y-111350000D01*
X124700000Y-112850000D01*
G37*
M02*
