M48
; DRILL file {KiCad (5.1.9)-1} date 12/16/21 14:49:38
; FORMAT={-:-/ absolute / metric / decimal}
; #@! TF.CreationDate,2021-12-16T14:49:38+01:00
; #@! TF.GenerationSoftware,Kicad,Pcbnew,(5.1.9)-1
; #@! TF.FileFunction,Plated,1,2,PTH
FMAT,2
METRIC
T1C0.300
T2C0.700
T3C0.750
T4C0.800
T5C0.850
T6C0.900
T7C1.000
T8C1.001
T9C1.500
T10C1.700
T11C3.000
%
G90
G05
T1
X113.2Y-104.35
X117.4Y-95.3
X120.3Y-96.3
X121.0Y-106.0
X121.0Y-107.0
X121.0Y-108.0
X122.5Y-106.0
X122.5Y-107.0
X122.5Y-108.0
X124.0Y-106.0
X124.0Y-107.0
X124.0Y-108.0
X125.85Y-94.0
X129.45Y-95.35
X130.45Y-95.35
X131.4Y-114.1
X131.45Y-95.35
X132.45Y-95.35
X133.45Y-95.35
X133.45Y-93.35
X133.45Y-94.4
X133.6Y-105.8
X133.6Y-108.9
X133.95Y-111.35
X134.45Y-95.35
X134.6Y-105.8
X134.6Y-108.9
X135.45Y-95.35
X135.6Y-105.8
X135.6Y-108.9
X136.45Y-95.35
X136.6Y-105.8
X136.6Y-108.9
X136.75Y-98.75
X136.75Y-99.75
X136.75Y-100.75
X136.75Y-101.75
X137.45Y-95.35
X137.6Y-105.8
X137.6Y-108.9
X137.75Y-98.75
X137.75Y-99.75
X137.75Y-100.75
X137.75Y-101.75
X138.4Y-111.35
X138.45Y-95.35
X138.6Y-105.8
X138.6Y-108.9
X138.7Y-107.3
X139.45Y-95.35
X140.45Y-95.35
X140.75Y-111.0
X140.9Y-114.0
X141.45Y-95.35
X142.45Y-95.35
X145.35Y-103.9
X145.8Y-105.7
X145.8Y-106.7
X145.8Y-107.7
X145.8Y-108.7
X145.8Y-109.7
X145.8Y-110.7
X145.8Y-111.7
T2
X114.97Y-98.208
X114.97Y-100.748
X116.24Y-96.938
X116.24Y-102.018
X117.51Y-98.208
X117.51Y-100.748
T3
X122.0Y-109.5
X122.0Y-110.77
X122.0Y-112.04
T4
X95.0Y-101.0
X95.0Y-103.0
T5
X120.685Y-97.595
X120.685Y-99.5
X120.685Y-101.405
X122.59Y-97.595
X122.59Y-99.5
X122.59Y-101.405
X124.495Y-97.595
X124.495Y-99.5
X124.495Y-101.405
X126.4Y-97.595
X126.4Y-99.5
X126.4Y-101.405
X128.305Y-97.595
X128.305Y-99.5
X128.305Y-101.405
X130.21Y-97.595
X130.21Y-99.5
X130.21Y-101.405
X132.115Y-97.595
X132.115Y-99.5
X132.115Y-101.405
X134.02Y-97.595
X134.02Y-99.5
X134.02Y-101.405
T6
X99.822Y-100.0
X102.362Y-100.0
T7
X92.6Y-107.78
X92.6Y-115.4
X100.22Y-107.78
X100.22Y-115.4
X105.3Y-107.78
X105.3Y-115.4
X110.38Y-107.78
X110.38Y-115.4
T8
X119.5Y-115.5
T9
X151.5Y-99.5
X151.5Y-112.5
T10
X148.96Y-96.96
X148.96Y-102.04
X148.96Y-109.96
X148.96Y-115.04
X154.04Y-96.96
X154.04Y-102.04
X154.04Y-109.96
X154.04Y-115.04
T11
X108.24Y-99.5
X140.75Y-99.5
T0
M30
