G04 #@! TF.GenerationSoftware,KiCad,Pcbnew,5.1.10*
G04 #@! TF.CreationDate,2021-05-12T16:07:03+02:00*
G04 #@! TF.ProjectId,DgDrive_DVI,44674472-6976-4655-9f44-56492e6b6963,1.4*
G04 #@! TF.SameCoordinates,Original*
G04 #@! TF.FileFunction,Legend,Bot*
G04 #@! TF.FilePolarity,Positive*
%FSLAX46Y46*%
G04 Gerber Fmt 4.6, Leading zero omitted, Abs format (unit mm)*
G04 Created by KiCad (PCBNEW 5.1.10) date 2021-05-12 16:07:03*
%MOMM*%
%LPD*%
G01*
G04 APERTURE LIST*
%ADD10C,0.150000*%
%ADD11C,0.120000*%
%ADD12C,0.250000*%
%ADD13C,0.300000*%
G04 APERTURE END LIST*
D10*
X135988214Y-112952380D02*
X136464404Y-112952380D01*
X136464404Y-111952380D01*
X135226309Y-112952380D02*
X135226309Y-112428571D01*
X135273928Y-112333333D01*
X135369166Y-112285714D01*
X135559642Y-112285714D01*
X135654880Y-112333333D01*
X135226309Y-112904761D02*
X135321547Y-112952380D01*
X135559642Y-112952380D01*
X135654880Y-112904761D01*
X135702500Y-112809523D01*
X135702500Y-112714285D01*
X135654880Y-112619047D01*
X135559642Y-112571428D01*
X135321547Y-112571428D01*
X135226309Y-112523809D01*
X134797738Y-112904761D02*
X134702500Y-112952380D01*
X134512023Y-112952380D01*
X134416785Y-112904761D01*
X134369166Y-112809523D01*
X134369166Y-112761904D01*
X134416785Y-112666666D01*
X134512023Y-112619047D01*
X134654880Y-112619047D01*
X134750119Y-112571428D01*
X134797738Y-112476190D01*
X134797738Y-112428571D01*
X134750119Y-112333333D01*
X134654880Y-112285714D01*
X134512023Y-112285714D01*
X134416785Y-112333333D01*
X133559642Y-112904761D02*
X133654880Y-112952380D01*
X133845357Y-112952380D01*
X133940595Y-112904761D01*
X133988214Y-112809523D01*
X133988214Y-112428571D01*
X133940595Y-112333333D01*
X133845357Y-112285714D01*
X133654880Y-112285714D01*
X133559642Y-112333333D01*
X133512023Y-112428571D01*
X133512023Y-112523809D01*
X133988214Y-112619047D01*
X133083452Y-112952380D02*
X133083452Y-112285714D01*
X133083452Y-112476190D02*
X133035833Y-112380952D01*
X132988214Y-112333333D01*
X132892976Y-112285714D01*
X132797738Y-112285714D01*
X132131071Y-112428571D02*
X131988214Y-112476190D01*
X131940595Y-112523809D01*
X131892976Y-112619047D01*
X131892976Y-112761904D01*
X131940595Y-112857142D01*
X131988214Y-112904761D01*
X132083452Y-112952380D01*
X132464404Y-112952380D01*
X132464404Y-111952380D01*
X132131071Y-111952380D01*
X132035833Y-112000000D01*
X131988214Y-112047619D01*
X131940595Y-112142857D01*
X131940595Y-112238095D01*
X131988214Y-112333333D01*
X132035833Y-112380952D01*
X132131071Y-112428571D01*
X132464404Y-112428571D01*
X131035833Y-112952380D02*
X131035833Y-112428571D01*
X131083452Y-112333333D01*
X131178690Y-112285714D01*
X131369166Y-112285714D01*
X131464404Y-112333333D01*
X131035833Y-112904761D02*
X131131071Y-112952380D01*
X131369166Y-112952380D01*
X131464404Y-112904761D01*
X131512023Y-112809523D01*
X131512023Y-112714285D01*
X131464404Y-112619047D01*
X131369166Y-112571428D01*
X131131071Y-112571428D01*
X131035833Y-112523809D01*
X130131071Y-112904761D02*
X130226309Y-112952380D01*
X130416785Y-112952380D01*
X130512023Y-112904761D01*
X130559642Y-112857142D01*
X130607261Y-112761904D01*
X130607261Y-112476190D01*
X130559642Y-112380952D01*
X130512023Y-112333333D01*
X130416785Y-112285714D01*
X130226309Y-112285714D01*
X130131071Y-112333333D01*
X129702500Y-112952380D02*
X129702500Y-111952380D01*
X129607261Y-112571428D02*
X129321547Y-112952380D01*
X129321547Y-112285714D02*
X129702500Y-112666666D01*
X128892976Y-112285714D02*
X128892976Y-113285714D01*
X128892976Y-112333333D02*
X128797738Y-112285714D01*
X128607261Y-112285714D01*
X128512023Y-112333333D01*
X128464404Y-112380952D01*
X128416785Y-112476190D01*
X128416785Y-112761904D01*
X128464404Y-112857142D01*
X128512023Y-112904761D01*
X128607261Y-112952380D01*
X128797738Y-112952380D01*
X128892976Y-112904761D01*
X127845357Y-112952380D02*
X127940595Y-112904761D01*
X127988214Y-112809523D01*
X127988214Y-111952380D01*
X127035833Y-112952380D02*
X127035833Y-112428571D01*
X127083452Y-112333333D01*
X127178690Y-112285714D01*
X127369166Y-112285714D01*
X127464404Y-112333333D01*
X127035833Y-112904761D02*
X127131071Y-112952380D01*
X127369166Y-112952380D01*
X127464404Y-112904761D01*
X127512023Y-112809523D01*
X127512023Y-112714285D01*
X127464404Y-112619047D01*
X127369166Y-112571428D01*
X127131071Y-112571428D01*
X127035833Y-112523809D01*
X126559642Y-112285714D02*
X126559642Y-112952380D01*
X126559642Y-112380952D02*
X126512023Y-112333333D01*
X126416785Y-112285714D01*
X126273928Y-112285714D01*
X126178690Y-112333333D01*
X126131071Y-112428571D01*
X126131071Y-112952380D01*
X125273928Y-112904761D02*
X125369166Y-112952380D01*
X125559642Y-112952380D01*
X125654880Y-112904761D01*
X125702500Y-112809523D01*
X125702500Y-112428571D01*
X125654880Y-112333333D01*
X125559642Y-112285714D01*
X125369166Y-112285714D01*
X125273928Y-112333333D01*
X125226309Y-112428571D01*
X125226309Y-112523809D01*
X125702500Y-112619047D01*
X136464404Y-114602380D02*
X136464404Y-113602380D01*
X136226309Y-113602380D01*
X136083452Y-113650000D01*
X135988214Y-113745238D01*
X135940595Y-113840476D01*
X135892976Y-114030952D01*
X135892976Y-114173809D01*
X135940595Y-114364285D01*
X135988214Y-114459523D01*
X136083452Y-114554761D01*
X136226309Y-114602380D01*
X136464404Y-114602380D01*
X135464404Y-114602380D02*
X135464404Y-113935714D01*
X135464404Y-113602380D02*
X135512023Y-113650000D01*
X135464404Y-113697619D01*
X135416785Y-113650000D01*
X135464404Y-113602380D01*
X135464404Y-113697619D01*
X134845357Y-114602380D02*
X134940595Y-114554761D01*
X134988214Y-114507142D01*
X135035833Y-114411904D01*
X135035833Y-114126190D01*
X134988214Y-114030952D01*
X134940595Y-113983333D01*
X134845357Y-113935714D01*
X134702500Y-113935714D01*
X134607261Y-113983333D01*
X134559642Y-114030952D01*
X134512023Y-114126190D01*
X134512023Y-114411904D01*
X134559642Y-114507142D01*
X134607261Y-114554761D01*
X134702500Y-114602380D01*
X134845357Y-114602380D01*
X133654880Y-114602380D02*
X133654880Y-113602380D01*
X133654880Y-114554761D02*
X133750119Y-114602380D01*
X133940595Y-114602380D01*
X134035833Y-114554761D01*
X134083452Y-114507142D01*
X134131071Y-114411904D01*
X134131071Y-114126190D01*
X134083452Y-114030952D01*
X134035833Y-113983333D01*
X133940595Y-113935714D01*
X133750119Y-113935714D01*
X133654880Y-113983333D01*
X132797738Y-114554761D02*
X132892976Y-114602380D01*
X133083452Y-114602380D01*
X133178690Y-114554761D01*
X133226309Y-114459523D01*
X133226309Y-114078571D01*
X133178690Y-113983333D01*
X133083452Y-113935714D01*
X132892976Y-113935714D01*
X132797738Y-113983333D01*
X132750119Y-114078571D01*
X132750119Y-114173809D01*
X133226309Y-114269047D01*
X131559642Y-114602380D02*
X131559642Y-113602380D01*
X131321547Y-113602380D01*
X131178690Y-113650000D01*
X131083452Y-113745238D01*
X131035833Y-113840476D01*
X130988214Y-114030952D01*
X130988214Y-114173809D01*
X131035833Y-114364285D01*
X131083452Y-114459523D01*
X131178690Y-114554761D01*
X131321547Y-114602380D01*
X131559642Y-114602380D01*
X130702500Y-113602380D02*
X130369166Y-114602380D01*
X130035833Y-113602380D01*
X129702500Y-114602380D02*
X129702500Y-113602380D01*
X136273928Y-115252380D02*
X136178690Y-115252380D01*
X136083452Y-115300000D01*
X136035833Y-115347619D01*
X135988214Y-115442857D01*
X135940595Y-115633333D01*
X135940595Y-115871428D01*
X135988214Y-116061904D01*
X136035833Y-116157142D01*
X136083452Y-116204761D01*
X136178690Y-116252380D01*
X136273928Y-116252380D01*
X136369166Y-116204761D01*
X136416785Y-116157142D01*
X136464404Y-116061904D01*
X136512023Y-115871428D01*
X136512023Y-115633333D01*
X136464404Y-115442857D01*
X136416785Y-115347619D01*
X136369166Y-115300000D01*
X136273928Y-115252380D01*
X135607261Y-115252380D02*
X134988214Y-115252380D01*
X135321547Y-115633333D01*
X135178690Y-115633333D01*
X135083452Y-115680952D01*
X135035833Y-115728571D01*
X134988214Y-115823809D01*
X134988214Y-116061904D01*
X135035833Y-116157142D01*
X135083452Y-116204761D01*
X135178690Y-116252380D01*
X135464404Y-116252380D01*
X135559642Y-116204761D01*
X135607261Y-116157142D01*
X133845357Y-115204761D02*
X134702500Y-116490476D01*
X133559642Y-115347619D02*
X133512023Y-115300000D01*
X133416785Y-115252380D01*
X133178690Y-115252380D01*
X133083452Y-115300000D01*
X133035833Y-115347619D01*
X132988214Y-115442857D01*
X132988214Y-115538095D01*
X133035833Y-115680952D01*
X133607261Y-116252380D01*
X132988214Y-116252380D01*
X132369166Y-115252380D02*
X132273928Y-115252380D01*
X132178690Y-115300000D01*
X132131071Y-115347619D01*
X132083452Y-115442857D01*
X132035833Y-115633333D01*
X132035833Y-115871428D01*
X132083452Y-116061904D01*
X132131071Y-116157142D01*
X132178690Y-116204761D01*
X132273928Y-116252380D01*
X132369166Y-116252380D01*
X132464404Y-116204761D01*
X132512023Y-116157142D01*
X132559642Y-116061904D01*
X132607261Y-115871428D01*
X132607261Y-115633333D01*
X132559642Y-115442857D01*
X132512023Y-115347619D01*
X132464404Y-115300000D01*
X132369166Y-115252380D01*
X131654880Y-115347619D02*
X131607261Y-115300000D01*
X131512023Y-115252380D01*
X131273928Y-115252380D01*
X131178690Y-115300000D01*
X131131071Y-115347619D01*
X131083452Y-115442857D01*
X131083452Y-115538095D01*
X131131071Y-115680952D01*
X131702500Y-116252380D01*
X131083452Y-116252380D01*
X130131071Y-116252380D02*
X130702500Y-116252380D01*
X130416785Y-116252380D02*
X130416785Y-115252380D01*
X130512023Y-115395238D01*
X130607261Y-115490476D01*
X130702500Y-115538095D01*
X128369166Y-116252380D02*
X128702500Y-115776190D01*
X128940595Y-116252380D02*
X128940595Y-115252380D01*
X128559642Y-115252380D01*
X128464404Y-115300000D01*
X128416785Y-115347619D01*
X128369166Y-115442857D01*
X128369166Y-115585714D01*
X128416785Y-115680952D01*
X128464404Y-115728571D01*
X128559642Y-115776190D01*
X128940595Y-115776190D01*
X127559642Y-116204761D02*
X127654880Y-116252380D01*
X127845357Y-116252380D01*
X127940595Y-116204761D01*
X127988214Y-116109523D01*
X127988214Y-115728571D01*
X127940595Y-115633333D01*
X127845357Y-115585714D01*
X127654880Y-115585714D01*
X127559642Y-115633333D01*
X127512023Y-115728571D01*
X127512023Y-115823809D01*
X127988214Y-115919047D01*
X127178690Y-115585714D02*
X126940595Y-116252380D01*
X126702500Y-115585714D01*
X125035833Y-116252380D02*
X125607261Y-116252380D01*
X125321547Y-116252380D02*
X125321547Y-115252380D01*
X125416785Y-115395238D01*
X125512023Y-115490476D01*
X125607261Y-115538095D01*
X124607261Y-116157142D02*
X124559642Y-116204761D01*
X124607261Y-116252380D01*
X124654880Y-116204761D01*
X124607261Y-116157142D01*
X124607261Y-116252380D01*
X123702500Y-115585714D02*
X123702500Y-116252380D01*
X123940595Y-115204761D02*
X124178690Y-115919047D01*
X123559642Y-115919047D01*
D11*
X99532000Y-98920000D02*
X99532000Y-98764000D01*
X99532000Y-101236000D02*
X99532000Y-101080000D01*
X102133130Y-98920163D02*
G75*
G03*
X100051039Y-98920000I-1041130J-1079837D01*
G01*
X102133130Y-101079837D02*
G75*
G02*
X100051039Y-101080000I-1041130J1079837D01*
G01*
X102764335Y-98921392D02*
G75*
G03*
X99532000Y-98764484I-1672335J-1078608D01*
G01*
X102764335Y-101078608D02*
G75*
G02*
X99532000Y-101235516I-1672335J1078608D01*
G01*
X150050000Y-115855000D02*
X152950000Y-115855000D01*
X150050000Y-109145000D02*
X152950000Y-109145000D01*
X154855000Y-113950000D02*
X154855000Y-111050000D01*
X148145000Y-113950000D02*
X148145000Y-111050000D01*
X150050000Y-102855000D02*
X152950000Y-102855000D01*
X150050000Y-96145000D02*
X152950000Y-96145000D01*
X154855000Y-100950000D02*
X154855000Y-98050000D01*
X148145000Y-100950000D02*
X148145000Y-98050000D01*
X116977500Y-112437258D02*
X116977500Y-111962742D01*
X118022500Y-112437258D02*
X118022500Y-111962742D01*
D12*
X144175000Y-113150000D02*
G75*
G03*
X144175000Y-113150000I-125000J0D01*
G01*
X145175000Y-113150000D02*
G75*
G03*
X145175000Y-113150000I-125000J0D01*
G01*
X146175000Y-113150000D02*
G75*
G03*
X146175000Y-113150000I-125000J0D01*
G01*
X146175000Y-114150000D02*
G75*
G03*
X146175000Y-114150000I-125000J0D01*
G01*
X145175000Y-114150000D02*
G75*
G03*
X145175000Y-114150000I-125000J0D01*
G01*
X144175000Y-114150000D02*
G75*
G03*
X144175000Y-114150000I-125000J0D01*
G01*
X145175000Y-115150000D02*
G75*
G03*
X145175000Y-115150000I-125000J0D01*
G01*
X144175000Y-115150000D02*
G75*
G03*
X144175000Y-115150000I-125000J0D01*
G01*
X146175000Y-115150000D02*
G75*
G03*
X146175000Y-115150000I-125000J0D01*
G01*
D11*
X141910000Y-104500000D02*
X107080000Y-104500000D01*
X141910000Y-94500000D02*
X107080000Y-94500000D01*
X111922000Y-94500000D02*
X111922000Y-104455000D01*
X137068000Y-94500000D02*
X137068000Y-104455000D01*
X105880000Y-95700000D02*
X105880000Y-103300000D01*
X143110000Y-95700000D02*
X143110000Y-103300000D01*
X143110000Y-103300000D02*
G75*
G02*
X141910000Y-104500000I-1200000J0D01*
G01*
X141910000Y-94500000D02*
G75*
G02*
X143110000Y-95700000I0J-1200000D01*
G01*
X107080000Y-104500000D02*
G75*
G02*
X105880000Y-103300000I0J1200000D01*
G01*
X105880000Y-95700000D02*
G75*
G02*
X107080000Y-94500000I1200000J0D01*
G01*
D10*
X101830095Y-103412380D02*
X101830095Y-102412380D01*
X101592000Y-102412380D01*
X101449142Y-102460000D01*
X101353904Y-102555238D01*
X101306285Y-102650476D01*
X101258666Y-102840952D01*
X101258666Y-102983809D01*
X101306285Y-103174285D01*
X101353904Y-103269523D01*
X101449142Y-103364761D01*
X101592000Y-103412380D01*
X101830095Y-103412380D01*
X100401523Y-102745714D02*
X100401523Y-103412380D01*
X100639619Y-102364761D02*
X100877714Y-103079047D01*
X100258666Y-103079047D01*
X156857142Y-109404761D02*
X156904761Y-109357142D01*
X156952380Y-109214285D01*
X156952380Y-109119047D01*
X156904761Y-108976190D01*
X156809523Y-108880952D01*
X156714285Y-108833333D01*
X156523809Y-108785714D01*
X156380952Y-108785714D01*
X156190476Y-108833333D01*
X156095238Y-108880952D01*
X156000000Y-108976190D01*
X155952380Y-109119047D01*
X155952380Y-109214285D01*
X156000000Y-109357142D01*
X156047619Y-109404761D01*
X156285714Y-110261904D02*
X156952380Y-110261904D01*
X156285714Y-109833333D02*
X156809523Y-109833333D01*
X156904761Y-109880952D01*
X156952380Y-109976190D01*
X156952380Y-110119047D01*
X156904761Y-110214285D01*
X156857142Y-110261904D01*
X156952380Y-110738095D02*
X156285714Y-110738095D01*
X156476190Y-110738095D02*
X156380952Y-110785714D01*
X156333333Y-110833333D01*
X156285714Y-110928571D01*
X156285714Y-111023809D01*
X156952380Y-111357142D02*
X156285714Y-111357142D01*
X156476190Y-111357142D02*
X156380952Y-111404761D01*
X156333333Y-111452380D01*
X156285714Y-111547619D01*
X156285714Y-111642857D01*
X156857142Y-111976190D02*
X156904761Y-112023809D01*
X156952380Y-111976190D01*
X156904761Y-111928571D01*
X156857142Y-111976190D01*
X156952380Y-111976190D01*
X156952380Y-113214285D02*
X155952380Y-113214285D01*
X156666666Y-113547619D01*
X155952380Y-113880952D01*
X156952380Y-113880952D01*
X156952380Y-114500000D02*
X156904761Y-114404761D01*
X156857142Y-114357142D01*
X156761904Y-114309523D01*
X156476190Y-114309523D01*
X156380952Y-114357142D01*
X156333333Y-114404761D01*
X156285714Y-114500000D01*
X156285714Y-114642857D01*
X156333333Y-114738095D01*
X156380952Y-114785714D01*
X156476190Y-114833333D01*
X156761904Y-114833333D01*
X156857142Y-114785714D01*
X156904761Y-114738095D01*
X156952380Y-114642857D01*
X156952380Y-114500000D01*
X156952380Y-115690476D02*
X155952380Y-115690476D01*
X156904761Y-115690476D02*
X156952380Y-115595238D01*
X156952380Y-115404761D01*
X156904761Y-115309523D01*
X156857142Y-115261904D01*
X156761904Y-115214285D01*
X156476190Y-115214285D01*
X156380952Y-115261904D01*
X156333333Y-115309523D01*
X156285714Y-115404761D01*
X156285714Y-115595238D01*
X156333333Y-115690476D01*
X156857142Y-116166666D02*
X156904761Y-116214285D01*
X156952380Y-116166666D01*
X156904761Y-116119047D01*
X156857142Y-116166666D01*
X156952380Y-116166666D01*
X156952380Y-96642857D02*
X155952380Y-96642857D01*
X155952380Y-97023809D01*
X156000000Y-97119047D01*
X156047619Y-97166666D01*
X156142857Y-97214285D01*
X156285714Y-97214285D01*
X156380952Y-97166666D01*
X156428571Y-97119047D01*
X156476190Y-97023809D01*
X156476190Y-96642857D01*
X156952380Y-97642857D02*
X156285714Y-97642857D01*
X155952380Y-97642857D02*
X156000000Y-97595238D01*
X156047619Y-97642857D01*
X156000000Y-97690476D01*
X155952380Y-97642857D01*
X156047619Y-97642857D01*
X156904761Y-98500000D02*
X156952380Y-98404761D01*
X156952380Y-98214285D01*
X156904761Y-98119047D01*
X156809523Y-98071428D01*
X156428571Y-98071428D01*
X156333333Y-98119047D01*
X156285714Y-98214285D01*
X156285714Y-98404761D01*
X156333333Y-98500000D01*
X156428571Y-98547619D01*
X156523809Y-98547619D01*
X156619047Y-98071428D01*
X156285714Y-98880952D02*
X156285714Y-99404761D01*
X156952380Y-98880952D01*
X156952380Y-99404761D01*
X156952380Y-99928571D02*
X156904761Y-99833333D01*
X156857142Y-99785714D01*
X156761904Y-99738095D01*
X156476190Y-99738095D01*
X156380952Y-99785714D01*
X156333333Y-99833333D01*
X156285714Y-99928571D01*
X156285714Y-100071428D01*
X156333333Y-100166666D01*
X156380952Y-100214285D01*
X156476190Y-100261904D01*
X156761904Y-100261904D01*
X156857142Y-100214285D01*
X156904761Y-100166666D01*
X156952380Y-100071428D01*
X156952380Y-99928571D01*
X157047619Y-100452380D02*
X157047619Y-101214285D01*
X156952380Y-101452380D02*
X155952380Y-101452380D01*
X156285714Y-101928571D02*
X156952380Y-101928571D01*
X156380952Y-101928571D02*
X156333333Y-101976190D01*
X156285714Y-102071428D01*
X156285714Y-102214285D01*
X156333333Y-102309523D01*
X156428571Y-102357142D01*
X156952380Y-102357142D01*
X119382380Y-112033333D02*
X118906190Y-111700000D01*
X119382380Y-111461904D02*
X118382380Y-111461904D01*
X118382380Y-111842857D01*
X118430000Y-111938095D01*
X118477619Y-111985714D01*
X118572857Y-112033333D01*
X118715714Y-112033333D01*
X118810952Y-111985714D01*
X118858571Y-111938095D01*
X118906190Y-111842857D01*
X118906190Y-111461904D01*
X118382380Y-112366666D02*
X118382380Y-113033333D01*
X119382380Y-112604761D01*
D13*
X143126190Y-114516666D02*
X142078571Y-114516666D01*
X143335714Y-115145238D02*
X142602380Y-112945238D01*
X141869047Y-115145238D01*
X141135714Y-115145238D02*
X141135714Y-112945238D01*
X140297619Y-112945238D01*
X140088095Y-113050000D01*
X139983333Y-113154761D01*
X139878571Y-113364285D01*
X139878571Y-113678571D01*
X139983333Y-113888095D01*
X140088095Y-113992857D01*
X140297619Y-114097619D01*
X141135714Y-114097619D01*
X137469047Y-115354761D02*
X137678571Y-115250000D01*
X137888095Y-115040476D01*
X138202380Y-114726190D01*
X138411904Y-114621428D01*
X138621428Y-114621428D01*
X138516666Y-115145238D02*
X138726190Y-115040476D01*
X138935714Y-114830952D01*
X139040476Y-114411904D01*
X139040476Y-113678571D01*
X138935714Y-113259523D01*
X138726190Y-113050000D01*
X138516666Y-112945238D01*
X138097619Y-112945238D01*
X137888095Y-113050000D01*
X137678571Y-113259523D01*
X137573809Y-113678571D01*
X137573809Y-114411904D01*
X137678571Y-114830952D01*
X137888095Y-115040476D01*
X138097619Y-115145238D01*
X138516666Y-115145238D01*
D10*
X114028333Y-92952380D02*
X114028333Y-93666666D01*
X114075952Y-93809523D01*
X114171190Y-93904761D01*
X114314047Y-93952380D01*
X114409285Y-93952380D01*
X113599761Y-93047619D02*
X113552142Y-93000000D01*
X113456904Y-92952380D01*
X113218809Y-92952380D01*
X113123571Y-93000000D01*
X113075952Y-93047619D01*
X113028333Y-93142857D01*
X113028333Y-93238095D01*
X113075952Y-93380952D01*
X113647380Y-93952380D01*
X113028333Y-93952380D01*
X130066428Y-94167380D02*
X130066428Y-93167380D01*
X129828333Y-93167380D01*
X129685476Y-93215000D01*
X129590238Y-93310238D01*
X129542619Y-93405476D01*
X129495000Y-93595952D01*
X129495000Y-93738809D01*
X129542619Y-93929285D01*
X129590238Y-94024523D01*
X129685476Y-94119761D01*
X129828333Y-94167380D01*
X130066428Y-94167380D01*
X129209285Y-93167380D02*
X128875952Y-94167380D01*
X128542619Y-93167380D01*
X128209285Y-94167380D02*
X128209285Y-93167380D01*
X127733095Y-93786428D02*
X126971190Y-93786428D01*
X126495000Y-94167380D02*
X126495000Y-93167380D01*
X125256904Y-94167380D02*
X125256904Y-93167380D01*
X125018809Y-93167380D01*
X124875952Y-93215000D01*
X124780714Y-93310238D01*
X124733095Y-93405476D01*
X124685476Y-93595952D01*
X124685476Y-93738809D01*
X124733095Y-93929285D01*
X124780714Y-94024523D01*
X124875952Y-94119761D01*
X125018809Y-94167380D01*
X125256904Y-94167380D01*
X123828333Y-93500714D02*
X123828333Y-94167380D01*
X124256904Y-93500714D02*
X124256904Y-94024523D01*
X124209285Y-94119761D01*
X124114047Y-94167380D01*
X123971190Y-94167380D01*
X123875952Y-94119761D01*
X123828333Y-94072142D01*
X122923571Y-94167380D02*
X122923571Y-93643571D01*
X122971190Y-93548333D01*
X123066428Y-93500714D01*
X123256904Y-93500714D01*
X123352142Y-93548333D01*
X122923571Y-94119761D02*
X123018809Y-94167380D01*
X123256904Y-94167380D01*
X123352142Y-94119761D01*
X123399761Y-94024523D01*
X123399761Y-93929285D01*
X123352142Y-93834047D01*
X123256904Y-93786428D01*
X123018809Y-93786428D01*
X122923571Y-93738809D01*
X122304523Y-94167380D02*
X122399761Y-94119761D01*
X122447380Y-94024523D01*
X122447380Y-93167380D01*
X121018809Y-94167380D02*
X121114047Y-94119761D01*
X121161666Y-94024523D01*
X121161666Y-93167380D01*
X120637857Y-94167380D02*
X120637857Y-93500714D01*
X120637857Y-93167380D02*
X120685476Y-93215000D01*
X120637857Y-93262619D01*
X120590238Y-93215000D01*
X120637857Y-93167380D01*
X120637857Y-93262619D01*
X120161666Y-93500714D02*
X120161666Y-94167380D01*
X120161666Y-93595952D02*
X120114047Y-93548333D01*
X120018809Y-93500714D01*
X119875952Y-93500714D01*
X119780714Y-93548333D01*
X119733095Y-93643571D01*
X119733095Y-94167380D01*
X119256904Y-94167380D02*
X119256904Y-93167380D01*
X119161666Y-93786428D02*
X118875952Y-94167380D01*
X118875952Y-93500714D02*
X119256904Y-93881666D01*
M02*
