G04 #@! TF.GenerationSoftware,KiCad,Pcbnew,(5.1.9)-1*
G04 #@! TF.CreationDate,2021-08-10T13:31:54+02:00*
G04 #@! TF.ProjectId,DgDrive_DVI,44674472-6976-4655-9f44-56492e6b6963,1.5*
G04 #@! TF.SameCoordinates,Original*
G04 #@! TF.FileFunction,Copper,L2,Bot*
G04 #@! TF.FilePolarity,Positive*
%FSLAX46Y46*%
G04 Gerber Fmt 4.6, Leading zero omitted, Abs format (unit mm)*
G04 Created by KiCad (PCBNEW (5.1.9)-1) date 2021-08-10 13:31:54*
%MOMM*%
%LPD*%
G01*
G04 APERTURE LIST*
G04 #@! TA.AperFunction,ComponentPad*
%ADD10R,1.500000X1.050000*%
G04 #@! TD*
G04 #@! TA.AperFunction,ComponentPad*
%ADD11O,1.500000X1.050000*%
G04 #@! TD*
G04 #@! TA.AperFunction,ComponentPad*
%ADD12C,1.800000*%
G04 #@! TD*
G04 #@! TA.AperFunction,ComponentPad*
%ADD13R,1.800000X1.800000*%
G04 #@! TD*
G04 #@! TA.AperFunction,ComponentPad*
%ADD14C,2.250000*%
G04 #@! TD*
G04 #@! TA.AperFunction,ComponentPad*
%ADD15C,2.050000*%
G04 #@! TD*
G04 #@! TA.AperFunction,ComponentPad*
%ADD16C,2.000000*%
G04 #@! TD*
G04 #@! TA.AperFunction,ComponentPad*
%ADD17C,1.300000*%
G04 #@! TD*
G04 #@! TA.AperFunction,ComponentPad*
%ADD18C,4.200000*%
G04 #@! TD*
G04 #@! TA.AperFunction,ComponentPad*
%ADD19C,2.499360*%
G04 #@! TD*
G04 #@! TA.AperFunction,ComponentPad*
%ADD20R,1.600000X1.600000*%
G04 #@! TD*
G04 #@! TA.AperFunction,ComponentPad*
%ADD21C,1.600000*%
G04 #@! TD*
G04 #@! TA.AperFunction,SMDPad,CuDef*
%ADD22C,0.100000*%
G04 #@! TD*
G04 #@! TA.AperFunction,ViaPad*
%ADD23C,0.600000*%
G04 #@! TD*
G04 #@! TA.AperFunction,Conductor*
%ADD24C,1.000000*%
G04 #@! TD*
G04 #@! TA.AperFunction,Conductor*
%ADD25C,0.250000*%
G04 #@! TD*
G04 #@! TA.AperFunction,Conductor*
%ADD26C,0.200000*%
G04 #@! TD*
G04 #@! TA.AperFunction,Conductor*
%ADD27C,0.100000*%
G04 #@! TD*
G04 #@! TA.AperFunction,Conductor*
%ADD28C,0.254000*%
G04 #@! TD*
G04 APERTURE END LIST*
D10*
X122000000Y-109500000D03*
D11*
X122000000Y-112040000D03*
X122000000Y-110770000D03*
D12*
X102362000Y-100000000D03*
D13*
X99822000Y-100000000D03*
D14*
X148960000Y-109960000D03*
X148960000Y-115040000D03*
X154040000Y-115040000D03*
X154040000Y-109960000D03*
D15*
X151500000Y-112500000D03*
D14*
X148960000Y-96960000D03*
X148960000Y-102040000D03*
X154040000Y-102040000D03*
X154040000Y-96960000D03*
D15*
X151500000Y-99500000D03*
G04 #@! TA.AperFunction,SMDPad,CuDef*
G36*
G01*
X117775000Y-111775000D02*
X117225000Y-111775000D01*
G75*
G02*
X117025000Y-111575000I0J200000D01*
G01*
X117025000Y-111175000D01*
G75*
G02*
X117225000Y-110975000I200000J0D01*
G01*
X117775000Y-110975000D01*
G75*
G02*
X117975000Y-111175000I0J-200000D01*
G01*
X117975000Y-111575000D01*
G75*
G02*
X117775000Y-111775000I-200000J0D01*
G01*
G37*
G04 #@! TD.AperFunction*
G04 #@! TA.AperFunction,SMDPad,CuDef*
G36*
G01*
X117775000Y-113425000D02*
X117225000Y-113425000D01*
G75*
G02*
X117025000Y-113225000I0J200000D01*
G01*
X117025000Y-112825000D01*
G75*
G02*
X117225000Y-112625000I200000J0D01*
G01*
X117775000Y-112625000D01*
G75*
G02*
X117975000Y-112825000I0J-200000D01*
G01*
X117975000Y-113225000D01*
G75*
G02*
X117775000Y-113425000I-200000J0D01*
G01*
G37*
G04 #@! TD.AperFunction*
D16*
X110380000Y-107780000D03*
X105300000Y-107780000D03*
X100220000Y-107780000D03*
X92600000Y-107780000D03*
X110380000Y-115400000D03*
X105300000Y-115400000D03*
X92600000Y-115400000D03*
X100220000Y-115400000D03*
D17*
X116240000Y-102018000D03*
X116240000Y-96938000D03*
X114970000Y-100748000D03*
X117510000Y-100748000D03*
X117510000Y-98208000D03*
X114970000Y-98208000D03*
X120685000Y-97595000D03*
X120685000Y-101405000D03*
X122590000Y-101405000D03*
X124495000Y-101405000D03*
X126400000Y-101405000D03*
X128305000Y-101405000D03*
X130210000Y-101405000D03*
X132115000Y-101405000D03*
X134020000Y-101405000D03*
X120685000Y-99500000D03*
X122590000Y-99500000D03*
X124495000Y-99500000D03*
X126400000Y-99500000D03*
X128305000Y-99500000D03*
X130210000Y-99500000D03*
X132115000Y-99500000D03*
D18*
X140750000Y-99500000D03*
D17*
X124495000Y-97595000D03*
X122590000Y-97595000D03*
X134020000Y-99500000D03*
X126400000Y-97595000D03*
X128305000Y-97595000D03*
X134020000Y-97595000D03*
X132115000Y-97595000D03*
X130210000Y-97595000D03*
D18*
X108240000Y-99500000D03*
D19*
X119500000Y-115500000D03*
X149950000Y-93100000D03*
X153600000Y-93100000D03*
D20*
X95000000Y-101000000D03*
D21*
X95000000Y-103000000D03*
G04 #@! TA.AperFunction,SMDPad,CuDef*
D22*
G36*
X125500000Y-111350602D02*
G01*
X125524534Y-111350602D01*
X125573365Y-111355412D01*
X125621490Y-111364984D01*
X125668445Y-111379228D01*
X125713778Y-111398005D01*
X125757051Y-111421136D01*
X125797850Y-111448396D01*
X125835779Y-111479524D01*
X125870476Y-111514221D01*
X125901604Y-111552150D01*
X125928864Y-111592949D01*
X125951995Y-111636222D01*
X125970772Y-111681555D01*
X125985016Y-111728510D01*
X125994588Y-111776635D01*
X125999398Y-111825466D01*
X125999398Y-111850000D01*
X126000000Y-111850000D01*
X126000000Y-112350000D01*
X125999398Y-112350000D01*
X125999398Y-112374534D01*
X125994588Y-112423365D01*
X125985016Y-112471490D01*
X125970772Y-112518445D01*
X125951995Y-112563778D01*
X125928864Y-112607051D01*
X125901604Y-112647850D01*
X125870476Y-112685779D01*
X125835779Y-112720476D01*
X125797850Y-112751604D01*
X125757051Y-112778864D01*
X125713778Y-112801995D01*
X125668445Y-112820772D01*
X125621490Y-112835016D01*
X125573365Y-112844588D01*
X125524534Y-112849398D01*
X125500000Y-112849398D01*
X125500000Y-112850000D01*
X125000000Y-112850000D01*
X125000000Y-111350000D01*
X125500000Y-111350000D01*
X125500000Y-111350602D01*
G37*
G04 #@! TD.AperFunction*
G04 #@! TA.AperFunction,SMDPad,CuDef*
G36*
X124700000Y-112850000D02*
G01*
X124200000Y-112850000D01*
X124200000Y-112849398D01*
X124175466Y-112849398D01*
X124126635Y-112844588D01*
X124078510Y-112835016D01*
X124031555Y-112820772D01*
X123986222Y-112801995D01*
X123942949Y-112778864D01*
X123902150Y-112751604D01*
X123864221Y-112720476D01*
X123829524Y-112685779D01*
X123798396Y-112647850D01*
X123771136Y-112607051D01*
X123748005Y-112563778D01*
X123729228Y-112518445D01*
X123714984Y-112471490D01*
X123705412Y-112423365D01*
X123700602Y-112374534D01*
X123700602Y-112350000D01*
X123700000Y-112350000D01*
X123700000Y-111850000D01*
X123700602Y-111850000D01*
X123700602Y-111825466D01*
X123705412Y-111776635D01*
X123714984Y-111728510D01*
X123729228Y-111681555D01*
X123748005Y-111636222D01*
X123771136Y-111592949D01*
X123798396Y-111552150D01*
X123829524Y-111514221D01*
X123864221Y-111479524D01*
X123902150Y-111448396D01*
X123942949Y-111421136D01*
X123986222Y-111398005D01*
X124031555Y-111379228D01*
X124078510Y-111364984D01*
X124126635Y-111355412D01*
X124175466Y-111350602D01*
X124200000Y-111350602D01*
X124200000Y-111350000D01*
X124700000Y-111350000D01*
X124700000Y-112850000D01*
G37*
G04 #@! TD.AperFunction*
D23*
X133450001Y-93349999D03*
X133450001Y-94399967D03*
X133450000Y-95350000D03*
X134450000Y-95350000D03*
X135450000Y-95350000D03*
X132450000Y-95350000D03*
X131450000Y-95350000D03*
X131400000Y-114100000D03*
X140750000Y-111000000D03*
X141000000Y-114500000D03*
X145350002Y-103900000D03*
X145800000Y-105700000D03*
X145800000Y-106700000D03*
X145800000Y-107700000D03*
X145800000Y-108700000D03*
X145800000Y-109700000D03*
X145800000Y-110700000D03*
X145800000Y-111700000D03*
X136450000Y-95350000D03*
X137450000Y-95350000D03*
X138450000Y-95350000D03*
X139450000Y-95350000D03*
X140450000Y-95350000D03*
X141450000Y-95350000D03*
X142450000Y-95350000D03*
X130450000Y-95350000D03*
X129450000Y-95350000D03*
X120300000Y-96300000D03*
X113200000Y-104350000D03*
X113250000Y-108200000D03*
X133950000Y-111350000D03*
X138400000Y-111350000D03*
X125850000Y-94000000D03*
X117400000Y-95300000D03*
X137750000Y-98750000D03*
X136750000Y-98750000D03*
X137750000Y-99750000D03*
X136750000Y-99750000D03*
X137750000Y-100750000D03*
X136750000Y-100750000D03*
X137750000Y-101750000D03*
X136750000Y-101750000D03*
X133600000Y-108900000D03*
X133600000Y-105800000D03*
X134600000Y-105800000D03*
X135600000Y-105800000D03*
X136600000Y-105800000D03*
X137600000Y-105800000D03*
X138600000Y-105800000D03*
X134600000Y-108900000D03*
X135600000Y-108900000D03*
X136600000Y-108900000D03*
X137600000Y-108900000D03*
X138600000Y-108900000D03*
X138700000Y-107300000D03*
D24*
X124140000Y-112040000D02*
X124200000Y-112100000D01*
X122000000Y-112040000D02*
X124140000Y-112040000D01*
D25*
X117500000Y-111375000D02*
X116425000Y-111375000D01*
X116425000Y-111375000D02*
X113250000Y-108200000D01*
X133950000Y-111350000D02*
X138400000Y-111350000D01*
X120800000Y-92700000D02*
X118200000Y-95300000D01*
X124550000Y-92700000D02*
X120800000Y-92700000D01*
X118200000Y-95300000D02*
X117400000Y-95300000D01*
X125850000Y-94000000D02*
X124550000Y-92700000D01*
D24*
X119700000Y-115300000D02*
X119700000Y-110600000D01*
X119500000Y-115500000D02*
X119700000Y-115300000D01*
X119700000Y-110600000D02*
X120800000Y-109500000D01*
X120800000Y-109500000D02*
X122000000Y-109500000D01*
D25*
X119500000Y-115500000D02*
X118700000Y-115500000D01*
X117500000Y-114300000D02*
X117500000Y-113025000D01*
X118700000Y-115500000D02*
X117500000Y-114300000D01*
D24*
X129350000Y-107400000D02*
X131200000Y-107400000D01*
X127250000Y-109500000D02*
X129350000Y-107400000D01*
X122000000Y-109500000D02*
X127250000Y-109500000D01*
D26*
X145700000Y-104250000D02*
X145715372Y-104406072D01*
X145760896Y-104556147D01*
X145834824Y-104694456D01*
X145934315Y-104815685D01*
X146184315Y-105065685D01*
X146305544Y-105165176D01*
X146443853Y-105239104D01*
X146593928Y-105284628D01*
X146750000Y-105300000D01*
X158675001Y-105300000D01*
X158675001Y-117675000D01*
X90325000Y-117675000D01*
X90325000Y-115271961D01*
X91300000Y-115271961D01*
X91300000Y-115528039D01*
X91349958Y-115779196D01*
X91447955Y-116015781D01*
X91590224Y-116228702D01*
X91771298Y-116409776D01*
X91984219Y-116552045D01*
X92220804Y-116650042D01*
X92471961Y-116700000D01*
X92728039Y-116700000D01*
X92979196Y-116650042D01*
X93215781Y-116552045D01*
X93428702Y-116409776D01*
X93609776Y-116228702D01*
X93752045Y-116015781D01*
X93850042Y-115779196D01*
X93900000Y-115528039D01*
X93900000Y-115271961D01*
X98920000Y-115271961D01*
X98920000Y-115528039D01*
X98969958Y-115779196D01*
X99067955Y-116015781D01*
X99210224Y-116228702D01*
X99391298Y-116409776D01*
X99604219Y-116552045D01*
X99840804Y-116650042D01*
X100091961Y-116700000D01*
X100348039Y-116700000D01*
X100599196Y-116650042D01*
X100835781Y-116552045D01*
X101048702Y-116409776D01*
X101229776Y-116228702D01*
X101372045Y-116015781D01*
X101470042Y-115779196D01*
X101520000Y-115528039D01*
X101520000Y-115271961D01*
X104000000Y-115271961D01*
X104000000Y-115528039D01*
X104049958Y-115779196D01*
X104147955Y-116015781D01*
X104290224Y-116228702D01*
X104471298Y-116409776D01*
X104684219Y-116552045D01*
X104920804Y-116650042D01*
X105171961Y-116700000D01*
X105428039Y-116700000D01*
X105679196Y-116650042D01*
X105915781Y-116552045D01*
X106128702Y-116409776D01*
X106309776Y-116228702D01*
X106452045Y-116015781D01*
X106550042Y-115779196D01*
X106600000Y-115528039D01*
X106600000Y-115271961D01*
X109080000Y-115271961D01*
X109080000Y-115528039D01*
X109129958Y-115779196D01*
X109227955Y-116015781D01*
X109370224Y-116228702D01*
X109551298Y-116409776D01*
X109764219Y-116552045D01*
X110000804Y-116650042D01*
X110251961Y-116700000D01*
X110508039Y-116700000D01*
X110759196Y-116650042D01*
X110995781Y-116552045D01*
X111208702Y-116409776D01*
X111389776Y-116228702D01*
X111532045Y-116015781D01*
X111630042Y-115779196D01*
X111680000Y-115528039D01*
X111680000Y-115271961D01*
X111630042Y-115020804D01*
X111532045Y-114784219D01*
X111389776Y-114571298D01*
X111208702Y-114390224D01*
X110995781Y-114247955D01*
X110759196Y-114149958D01*
X110508039Y-114100000D01*
X110251961Y-114100000D01*
X110000804Y-114149958D01*
X109764219Y-114247955D01*
X109551298Y-114390224D01*
X109370224Y-114571298D01*
X109227955Y-114784219D01*
X109129958Y-115020804D01*
X109080000Y-115271961D01*
X106600000Y-115271961D01*
X106550042Y-115020804D01*
X106452045Y-114784219D01*
X106309776Y-114571298D01*
X106128702Y-114390224D01*
X105915781Y-114247955D01*
X105679196Y-114149958D01*
X105428039Y-114100000D01*
X105171961Y-114100000D01*
X104920804Y-114149958D01*
X104684219Y-114247955D01*
X104471298Y-114390224D01*
X104290224Y-114571298D01*
X104147955Y-114784219D01*
X104049958Y-115020804D01*
X104000000Y-115271961D01*
X101520000Y-115271961D01*
X101470042Y-115020804D01*
X101372045Y-114784219D01*
X101229776Y-114571298D01*
X101048702Y-114390224D01*
X100835781Y-114247955D01*
X100599196Y-114149958D01*
X100348039Y-114100000D01*
X100091961Y-114100000D01*
X99840804Y-114149958D01*
X99604219Y-114247955D01*
X99391298Y-114390224D01*
X99210224Y-114571298D01*
X99067955Y-114784219D01*
X98969958Y-115020804D01*
X98920000Y-115271961D01*
X93900000Y-115271961D01*
X93850042Y-115020804D01*
X93752045Y-114784219D01*
X93609776Y-114571298D01*
X93428702Y-114390224D01*
X93215781Y-114247955D01*
X92979196Y-114149958D01*
X92728039Y-114100000D01*
X92471961Y-114100000D01*
X92220804Y-114149958D01*
X91984219Y-114247955D01*
X91771298Y-114390224D01*
X91590224Y-114571298D01*
X91447955Y-114784219D01*
X91349958Y-115020804D01*
X91300000Y-115271961D01*
X90325000Y-115271961D01*
X90325000Y-112825000D01*
X116723549Y-112825000D01*
X116723549Y-113225000D01*
X116733184Y-113322828D01*
X116761720Y-113416897D01*
X116808059Y-113503591D01*
X116870421Y-113579579D01*
X116946409Y-113641941D01*
X117033103Y-113688280D01*
X117075000Y-113700990D01*
X117075000Y-114279133D01*
X117072945Y-114300000D01*
X117075000Y-114320867D01*
X117075000Y-114320873D01*
X117081150Y-114383313D01*
X117105452Y-114463426D01*
X117144916Y-114537259D01*
X117198026Y-114601974D01*
X117214243Y-114615283D01*
X117950320Y-115351361D01*
X117950320Y-115652630D01*
X118009874Y-115952025D01*
X118126692Y-116234049D01*
X118296285Y-116487863D01*
X118512137Y-116703715D01*
X118765951Y-116873308D01*
X119047975Y-116990126D01*
X119347370Y-117049680D01*
X119652630Y-117049680D01*
X119952025Y-116990126D01*
X120234049Y-116873308D01*
X120487863Y-116703715D01*
X120703715Y-116487863D01*
X120850975Y-116267472D01*
X147950317Y-116267472D01*
X148065038Y-116533809D01*
X148373663Y-116679704D01*
X148704820Y-116762586D01*
X149045783Y-116779271D01*
X149383449Y-116729115D01*
X149704843Y-116614049D01*
X149854962Y-116533809D01*
X149969683Y-116267472D01*
X153030317Y-116267472D01*
X153145038Y-116533809D01*
X153453663Y-116679704D01*
X153784820Y-116762586D01*
X154125783Y-116779271D01*
X154463449Y-116729115D01*
X154784843Y-116614049D01*
X154934962Y-116533809D01*
X155049683Y-116267472D01*
X154040000Y-115257789D01*
X153030317Y-116267472D01*
X149969683Y-116267472D01*
X148960000Y-115257789D01*
X147950317Y-116267472D01*
X120850975Y-116267472D01*
X120873308Y-116234049D01*
X120990126Y-115952025D01*
X121049680Y-115652630D01*
X121049680Y-115347370D01*
X121005604Y-115125783D01*
X147220729Y-115125783D01*
X147270885Y-115463449D01*
X147385951Y-115784843D01*
X147466191Y-115934962D01*
X147732528Y-116049683D01*
X148742211Y-115040000D01*
X149177789Y-115040000D01*
X150187472Y-116049683D01*
X150453809Y-115934962D01*
X150599704Y-115626337D01*
X150682586Y-115295180D01*
X150690875Y-115125783D01*
X152300729Y-115125783D01*
X152350885Y-115463449D01*
X152465951Y-115784843D01*
X152546191Y-115934962D01*
X152812528Y-116049683D01*
X153822211Y-115040000D01*
X154257789Y-115040000D01*
X155267472Y-116049683D01*
X155533809Y-115934962D01*
X155679704Y-115626337D01*
X155762586Y-115295180D01*
X155779271Y-114954217D01*
X155729115Y-114616551D01*
X155614049Y-114295157D01*
X155533809Y-114145038D01*
X155267472Y-114030317D01*
X154257789Y-115040000D01*
X153822211Y-115040000D01*
X152812528Y-114030317D01*
X152546191Y-114145038D01*
X152400296Y-114453663D01*
X152317414Y-114784820D01*
X152300729Y-115125783D01*
X150690875Y-115125783D01*
X150699271Y-114954217D01*
X150649115Y-114616551D01*
X150534049Y-114295157D01*
X150453809Y-114145038D01*
X150187472Y-114030317D01*
X149177789Y-115040000D01*
X148742211Y-115040000D01*
X147732528Y-114030317D01*
X147466191Y-114145038D01*
X147320296Y-114453663D01*
X147237414Y-114784820D01*
X147220729Y-115125783D01*
X121005604Y-115125783D01*
X120990126Y-115047975D01*
X120873308Y-114765951D01*
X120703715Y-114512137D01*
X120500000Y-114308422D01*
X120500000Y-113812528D01*
X147950317Y-113812528D01*
X148960000Y-114822211D01*
X149969683Y-113812528D01*
X149854962Y-113546191D01*
X149546337Y-113400296D01*
X149215180Y-113317414D01*
X148874217Y-113300729D01*
X148536551Y-113350885D01*
X148215157Y-113465951D01*
X148065038Y-113546191D01*
X147950317Y-113812528D01*
X120500000Y-113812528D01*
X120500000Y-110931370D01*
X121044135Y-110387236D01*
X121009112Y-110452759D01*
X120961938Y-110608272D01*
X120946009Y-110770000D01*
X120961938Y-110931728D01*
X121009112Y-111087241D01*
X121085719Y-111230563D01*
X121188815Y-111356185D01*
X121248296Y-111405000D01*
X121188815Y-111453815D01*
X121085719Y-111579437D01*
X121009112Y-111722759D01*
X120961938Y-111878272D01*
X120946009Y-112040000D01*
X120961938Y-112201728D01*
X121009112Y-112357241D01*
X121085719Y-112500563D01*
X121188815Y-112626185D01*
X121314437Y-112729281D01*
X121457759Y-112805888D01*
X121613272Y-112853062D01*
X121734479Y-112865000D01*
X122265521Y-112865000D01*
X122386728Y-112853062D01*
X122429788Y-112840000D01*
X123567217Y-112840000D01*
X123600336Y-112880356D01*
X123669644Y-112949664D01*
X123715325Y-112987153D01*
X123796824Y-113041609D01*
X123848943Y-113069467D01*
X123939499Y-113106976D01*
X123996048Y-113124130D01*
X124092181Y-113143252D01*
X124150991Y-113149044D01*
X124175550Y-113149044D01*
X124200000Y-113151452D01*
X124700000Y-113151452D01*
X124758810Y-113145660D01*
X124815361Y-113128505D01*
X124867478Y-113100648D01*
X124913159Y-113063159D01*
X124950648Y-113017478D01*
X124978505Y-112965361D01*
X124995660Y-112908810D01*
X125001452Y-112850000D01*
X125001452Y-112369499D01*
X150175000Y-112369499D01*
X150175000Y-112630501D01*
X150225919Y-112886488D01*
X150325800Y-113127623D01*
X150470805Y-113344638D01*
X150655362Y-113529195D01*
X150872377Y-113674200D01*
X151113512Y-113774081D01*
X151369499Y-113825000D01*
X151630501Y-113825000D01*
X151693201Y-113812528D01*
X153030317Y-113812528D01*
X154040000Y-114822211D01*
X155049683Y-113812528D01*
X154934962Y-113546191D01*
X154626337Y-113400296D01*
X154295180Y-113317414D01*
X153954217Y-113300729D01*
X153616551Y-113350885D01*
X153295157Y-113465951D01*
X153145038Y-113546191D01*
X153030317Y-113812528D01*
X151693201Y-113812528D01*
X151886488Y-113774081D01*
X152127623Y-113674200D01*
X152344638Y-113529195D01*
X152529195Y-113344638D01*
X152674200Y-113127623D01*
X152774081Y-112886488D01*
X152825000Y-112630501D01*
X152825000Y-112369499D01*
X152774081Y-112113512D01*
X152674200Y-111872377D01*
X152529195Y-111655362D01*
X152344638Y-111470805D01*
X152127623Y-111325800D01*
X151886488Y-111225919D01*
X151693202Y-111187472D01*
X153030317Y-111187472D01*
X153145038Y-111453809D01*
X153453663Y-111599704D01*
X153784820Y-111682586D01*
X154125783Y-111699271D01*
X154463449Y-111649115D01*
X154784843Y-111534049D01*
X154934962Y-111453809D01*
X155049683Y-111187472D01*
X154040000Y-110177789D01*
X153030317Y-111187472D01*
X151693202Y-111187472D01*
X151630501Y-111175000D01*
X151369499Y-111175000D01*
X151113512Y-111225919D01*
X150872377Y-111325800D01*
X150655362Y-111470805D01*
X150470805Y-111655362D01*
X150325800Y-111872377D01*
X150225919Y-112113512D01*
X150175000Y-112369499D01*
X125001452Y-112369499D01*
X125001452Y-112124549D01*
X125003870Y-112100000D01*
X125001452Y-112075451D01*
X125001452Y-111350000D01*
X124995660Y-111291190D01*
X124995574Y-111290905D01*
X133350000Y-111290905D01*
X133350000Y-111409095D01*
X133373058Y-111525014D01*
X133418287Y-111634207D01*
X133483950Y-111732478D01*
X133567522Y-111816050D01*
X133665793Y-111881713D01*
X133774986Y-111926942D01*
X133890905Y-111950000D01*
X134009095Y-111950000D01*
X134125014Y-111926942D01*
X134234207Y-111881713D01*
X134332478Y-111816050D01*
X134373528Y-111775000D01*
X137976472Y-111775000D01*
X138017522Y-111816050D01*
X138115793Y-111881713D01*
X138224986Y-111926942D01*
X138340905Y-111950000D01*
X138459095Y-111950000D01*
X138575014Y-111926942D01*
X138684207Y-111881713D01*
X138782478Y-111816050D01*
X138866050Y-111732478D01*
X138931713Y-111634207D01*
X138976942Y-111525014D01*
X139000000Y-111409095D01*
X139000000Y-111290905D01*
X138979426Y-111187472D01*
X147950317Y-111187472D01*
X148065038Y-111453809D01*
X148373663Y-111599704D01*
X148704820Y-111682586D01*
X149045783Y-111699271D01*
X149383449Y-111649115D01*
X149704843Y-111534049D01*
X149854962Y-111453809D01*
X149969683Y-111187472D01*
X148960000Y-110177789D01*
X147950317Y-111187472D01*
X138979426Y-111187472D01*
X138976942Y-111174986D01*
X138931713Y-111065793D01*
X138866050Y-110967522D01*
X138782478Y-110883950D01*
X138684207Y-110818287D01*
X138575014Y-110773058D01*
X138459095Y-110750000D01*
X138340905Y-110750000D01*
X138224986Y-110773058D01*
X138115793Y-110818287D01*
X138017522Y-110883950D01*
X137976472Y-110925000D01*
X134373528Y-110925000D01*
X134332478Y-110883950D01*
X134234207Y-110818287D01*
X134125014Y-110773058D01*
X134009095Y-110750000D01*
X133890905Y-110750000D01*
X133774986Y-110773058D01*
X133665793Y-110818287D01*
X133567522Y-110883950D01*
X133483950Y-110967522D01*
X133418287Y-111065793D01*
X133373058Y-111174986D01*
X133350000Y-111290905D01*
X124995574Y-111290905D01*
X124978505Y-111234639D01*
X124950648Y-111182522D01*
X124913159Y-111136841D01*
X124867478Y-111099352D01*
X124815361Y-111071495D01*
X124758810Y-111054340D01*
X124700000Y-111048548D01*
X124200000Y-111048548D01*
X124175550Y-111050956D01*
X124150991Y-111050956D01*
X124092181Y-111056748D01*
X123996048Y-111075870D01*
X123939499Y-111093024D01*
X123848943Y-111130533D01*
X123796824Y-111158391D01*
X123715325Y-111212847D01*
X123682239Y-111240000D01*
X122906536Y-111240000D01*
X122914281Y-111230563D01*
X122990888Y-111087241D01*
X123038062Y-110931728D01*
X123053991Y-110770000D01*
X123038062Y-110608272D01*
X122990888Y-110452759D01*
X122914281Y-110309437D01*
X122906536Y-110300000D01*
X127210709Y-110300000D01*
X127250000Y-110303870D01*
X127289291Y-110300000D01*
X127289293Y-110300000D01*
X127406827Y-110288424D01*
X127557628Y-110242679D01*
X127696606Y-110168393D01*
X127818422Y-110068422D01*
X127837001Y-110045783D01*
X147220729Y-110045783D01*
X147270885Y-110383449D01*
X147385951Y-110704843D01*
X147466191Y-110854962D01*
X147732528Y-110969683D01*
X148742211Y-109960000D01*
X149177789Y-109960000D01*
X150187472Y-110969683D01*
X150453809Y-110854962D01*
X150599704Y-110546337D01*
X150682586Y-110215180D01*
X150690875Y-110045783D01*
X152300729Y-110045783D01*
X152350885Y-110383449D01*
X152465951Y-110704843D01*
X152546191Y-110854962D01*
X152812528Y-110969683D01*
X153822211Y-109960000D01*
X154257789Y-109960000D01*
X155267472Y-110969683D01*
X155533809Y-110854962D01*
X155679704Y-110546337D01*
X155762586Y-110215180D01*
X155779271Y-109874217D01*
X155729115Y-109536551D01*
X155614049Y-109215157D01*
X155533809Y-109065038D01*
X155267472Y-108950317D01*
X154257789Y-109960000D01*
X153822211Y-109960000D01*
X152812528Y-108950317D01*
X152546191Y-109065038D01*
X152400296Y-109373663D01*
X152317414Y-109704820D01*
X152300729Y-110045783D01*
X150690875Y-110045783D01*
X150699271Y-109874217D01*
X150649115Y-109536551D01*
X150534049Y-109215157D01*
X150453809Y-109065038D01*
X150187472Y-108950317D01*
X149177789Y-109960000D01*
X148742211Y-109960000D01*
X147732528Y-108950317D01*
X147466191Y-109065038D01*
X147320296Y-109373663D01*
X147237414Y-109704820D01*
X147220729Y-110045783D01*
X127837001Y-110045783D01*
X127843473Y-110037897D01*
X129681371Y-108200000D01*
X130300000Y-108200000D01*
X130300000Y-108900000D01*
X130305764Y-108958527D01*
X130322836Y-109014805D01*
X130350559Y-109066671D01*
X130387868Y-109112132D01*
X130887868Y-109612132D01*
X130933329Y-109649441D01*
X130985195Y-109677164D01*
X131041473Y-109694236D01*
X131100000Y-109700000D01*
X138700000Y-109700000D01*
X138757607Y-109694417D01*
X138813938Y-109677521D01*
X138865891Y-109649961D01*
X138911468Y-109612794D01*
X139414593Y-109112804D01*
X139451519Y-109068237D01*
X139479566Y-109016545D01*
X139496989Y-108960375D01*
X139503119Y-108901885D01*
X139504177Y-108732528D01*
X147950317Y-108732528D01*
X148960000Y-109742211D01*
X149969683Y-108732528D01*
X153030317Y-108732528D01*
X154040000Y-109742211D01*
X155049683Y-108732528D01*
X154934962Y-108466191D01*
X154626337Y-108320296D01*
X154295180Y-108237414D01*
X153954217Y-108220729D01*
X153616551Y-108270885D01*
X153295157Y-108385951D01*
X153145038Y-108466191D01*
X153030317Y-108732528D01*
X149969683Y-108732528D01*
X149854962Y-108466191D01*
X149546337Y-108320296D01*
X149215180Y-108237414D01*
X148874217Y-108220729D01*
X148536551Y-108270885D01*
X148215157Y-108385951D01*
X148065038Y-108466191D01*
X147950317Y-108732528D01*
X139504177Y-108732528D01*
X139521869Y-105901865D01*
X139516292Y-105842383D01*
X139499396Y-105786052D01*
X139471835Y-105734099D01*
X139434669Y-105688522D01*
X138937794Y-105188532D01*
X138891671Y-105150559D01*
X138839805Y-105122836D01*
X138783527Y-105105764D01*
X138725000Y-105100000D01*
X131100000Y-105100000D01*
X131041473Y-105105764D01*
X130985195Y-105122836D01*
X130933329Y-105150559D01*
X130887868Y-105187868D01*
X130387868Y-105687868D01*
X130350559Y-105733329D01*
X130322836Y-105785195D01*
X130305764Y-105841473D01*
X130300000Y-105900000D01*
X130300000Y-106600000D01*
X129389282Y-106600000D01*
X129349999Y-106596131D01*
X129310716Y-106600000D01*
X129310707Y-106600000D01*
X129193173Y-106611576D01*
X129042372Y-106657321D01*
X128962526Y-106700000D01*
X128903393Y-106731607D01*
X128812098Y-106806531D01*
X128781578Y-106831578D01*
X128756531Y-106862098D01*
X126918630Y-108700000D01*
X122871916Y-108700000D01*
X122865360Y-108696496D01*
X122808810Y-108679341D01*
X122750000Y-108673549D01*
X121250000Y-108673549D01*
X121191190Y-108679341D01*
X121134640Y-108696496D01*
X121128084Y-108700000D01*
X120839291Y-108700000D01*
X120800000Y-108696130D01*
X120760709Y-108700000D01*
X120760707Y-108700000D01*
X120643173Y-108711576D01*
X120492372Y-108757321D01*
X120353393Y-108831607D01*
X120319235Y-108859640D01*
X120231578Y-108931578D01*
X120206531Y-108962098D01*
X119162098Y-110006532D01*
X119131579Y-110031578D01*
X119106532Y-110062098D01*
X119106531Y-110062099D01*
X119031607Y-110153394D01*
X118957321Y-110292373D01*
X118911577Y-110443173D01*
X118896130Y-110600000D01*
X118900001Y-110639300D01*
X118900000Y-114071167D01*
X118765951Y-114126692D01*
X118512137Y-114296285D01*
X118304731Y-114503691D01*
X117925000Y-114123960D01*
X117925000Y-113700990D01*
X117966897Y-113688280D01*
X118053591Y-113641941D01*
X118129579Y-113579579D01*
X118191941Y-113503591D01*
X118238280Y-113416897D01*
X118266816Y-113322828D01*
X118276451Y-113225000D01*
X118276451Y-112825000D01*
X118266816Y-112727172D01*
X118238280Y-112633103D01*
X118191941Y-112546409D01*
X118129579Y-112470421D01*
X118053591Y-112408059D01*
X117966897Y-112361720D01*
X117872828Y-112333184D01*
X117775000Y-112323549D01*
X117225000Y-112323549D01*
X117127172Y-112333184D01*
X117033103Y-112361720D01*
X116946409Y-112408059D01*
X116870421Y-112470421D01*
X116808059Y-112546409D01*
X116761720Y-112633103D01*
X116733184Y-112727172D01*
X116723549Y-112825000D01*
X90325000Y-112825000D01*
X90325000Y-107651961D01*
X91300000Y-107651961D01*
X91300000Y-107908039D01*
X91349958Y-108159196D01*
X91447955Y-108395781D01*
X91590224Y-108608702D01*
X91771298Y-108789776D01*
X91984219Y-108932045D01*
X92220804Y-109030042D01*
X92471961Y-109080000D01*
X92728039Y-109080000D01*
X92979196Y-109030042D01*
X93215781Y-108932045D01*
X93428702Y-108789776D01*
X93609776Y-108608702D01*
X93752045Y-108395781D01*
X93850042Y-108159196D01*
X93900000Y-107908039D01*
X93900000Y-107651961D01*
X98920000Y-107651961D01*
X98920000Y-107908039D01*
X98969958Y-108159196D01*
X99067955Y-108395781D01*
X99210224Y-108608702D01*
X99391298Y-108789776D01*
X99604219Y-108932045D01*
X99840804Y-109030042D01*
X100091961Y-109080000D01*
X100348039Y-109080000D01*
X100599196Y-109030042D01*
X100835781Y-108932045D01*
X101048702Y-108789776D01*
X101229776Y-108608702D01*
X101372045Y-108395781D01*
X101470042Y-108159196D01*
X101520000Y-107908039D01*
X101520000Y-107651961D01*
X104000000Y-107651961D01*
X104000000Y-107908039D01*
X104049958Y-108159196D01*
X104147955Y-108395781D01*
X104290224Y-108608702D01*
X104471298Y-108789776D01*
X104684219Y-108932045D01*
X104920804Y-109030042D01*
X105171961Y-109080000D01*
X105428039Y-109080000D01*
X105679196Y-109030042D01*
X105915781Y-108932045D01*
X106128702Y-108789776D01*
X106309776Y-108608702D01*
X106452045Y-108395781D01*
X106550042Y-108159196D01*
X106600000Y-107908039D01*
X106600000Y-107651961D01*
X109080000Y-107651961D01*
X109080000Y-107908039D01*
X109129958Y-108159196D01*
X109227955Y-108395781D01*
X109370224Y-108608702D01*
X109551298Y-108789776D01*
X109764219Y-108932045D01*
X110000804Y-109030042D01*
X110251961Y-109080000D01*
X110508039Y-109080000D01*
X110759196Y-109030042D01*
X110995781Y-108932045D01*
X111208702Y-108789776D01*
X111389776Y-108608702D01*
X111532045Y-108395781D01*
X111630042Y-108159196D01*
X111633680Y-108140905D01*
X112650000Y-108140905D01*
X112650000Y-108259095D01*
X112673058Y-108375014D01*
X112718287Y-108484207D01*
X112783950Y-108582478D01*
X112867522Y-108666050D01*
X112965793Y-108731713D01*
X113074986Y-108776942D01*
X113190905Y-108800000D01*
X113248960Y-108800000D01*
X116109721Y-111660762D01*
X116123026Y-111676974D01*
X116187740Y-111730084D01*
X116261573Y-111769548D01*
X116317383Y-111786478D01*
X116341685Y-111793850D01*
X116350098Y-111794679D01*
X116404126Y-111800000D01*
X116404132Y-111800000D01*
X116424999Y-111802055D01*
X116445866Y-111800000D01*
X116779414Y-111800000D01*
X116808059Y-111853591D01*
X116870421Y-111929579D01*
X116946409Y-111991941D01*
X117033103Y-112038280D01*
X117127172Y-112066816D01*
X117225000Y-112076451D01*
X117775000Y-112076451D01*
X117872828Y-112066816D01*
X117966897Y-112038280D01*
X118053591Y-111991941D01*
X118129579Y-111929579D01*
X118191941Y-111853591D01*
X118238280Y-111766897D01*
X118266816Y-111672828D01*
X118276451Y-111575000D01*
X118276451Y-111175000D01*
X118266816Y-111077172D01*
X118238280Y-110983103D01*
X118191941Y-110896409D01*
X118129579Y-110820421D01*
X118053591Y-110758059D01*
X117966897Y-110711720D01*
X117872828Y-110683184D01*
X117775000Y-110673549D01*
X117225000Y-110673549D01*
X117127172Y-110683184D01*
X117033103Y-110711720D01*
X116946409Y-110758059D01*
X116870421Y-110820421D01*
X116808059Y-110896409D01*
X116779414Y-110950000D01*
X116601041Y-110950000D01*
X113850000Y-108198960D01*
X113850000Y-108140905D01*
X113826942Y-108024986D01*
X113781713Y-107915793D01*
X113716050Y-107817522D01*
X113632478Y-107733950D01*
X113534207Y-107668287D01*
X113425014Y-107623058D01*
X113309095Y-107600000D01*
X113190905Y-107600000D01*
X113074986Y-107623058D01*
X112965793Y-107668287D01*
X112867522Y-107733950D01*
X112783950Y-107817522D01*
X112718287Y-107915793D01*
X112673058Y-108024986D01*
X112650000Y-108140905D01*
X111633680Y-108140905D01*
X111680000Y-107908039D01*
X111680000Y-107651961D01*
X111630042Y-107400804D01*
X111532045Y-107164219D01*
X111389776Y-106951298D01*
X111208702Y-106770224D01*
X110995781Y-106627955D01*
X110759196Y-106529958D01*
X110508039Y-106480000D01*
X110251961Y-106480000D01*
X110000804Y-106529958D01*
X109764219Y-106627955D01*
X109551298Y-106770224D01*
X109370224Y-106951298D01*
X109227955Y-107164219D01*
X109129958Y-107400804D01*
X109080000Y-107651961D01*
X106600000Y-107651961D01*
X106550042Y-107400804D01*
X106452045Y-107164219D01*
X106309776Y-106951298D01*
X106128702Y-106770224D01*
X105915781Y-106627955D01*
X105679196Y-106529958D01*
X105428039Y-106480000D01*
X105171961Y-106480000D01*
X104920804Y-106529958D01*
X104684219Y-106627955D01*
X104471298Y-106770224D01*
X104290224Y-106951298D01*
X104147955Y-107164219D01*
X104049958Y-107400804D01*
X104000000Y-107651961D01*
X101520000Y-107651961D01*
X101470042Y-107400804D01*
X101372045Y-107164219D01*
X101229776Y-106951298D01*
X101048702Y-106770224D01*
X100835781Y-106627955D01*
X100599196Y-106529958D01*
X100348039Y-106480000D01*
X100091961Y-106480000D01*
X99840804Y-106529958D01*
X99604219Y-106627955D01*
X99391298Y-106770224D01*
X99210224Y-106951298D01*
X99067955Y-107164219D01*
X98969958Y-107400804D01*
X98920000Y-107651961D01*
X93900000Y-107651961D01*
X93850042Y-107400804D01*
X93752045Y-107164219D01*
X93609776Y-106951298D01*
X93428702Y-106770224D01*
X93215781Y-106627955D01*
X92979196Y-106529958D01*
X92728039Y-106480000D01*
X92471961Y-106480000D01*
X92220804Y-106529958D01*
X91984219Y-106627955D01*
X91771298Y-106770224D01*
X91590224Y-106951298D01*
X91447955Y-107164219D01*
X91349958Y-107400804D01*
X91300000Y-107651961D01*
X90325000Y-107651961D01*
X90325000Y-100200000D01*
X93898549Y-100200000D01*
X93898549Y-101800000D01*
X93904341Y-101858810D01*
X93921496Y-101915360D01*
X93949353Y-101967477D01*
X93986842Y-102013158D01*
X94032523Y-102050647D01*
X94084640Y-102078504D01*
X94141190Y-102095659D01*
X94200000Y-102101451D01*
X94364827Y-102101451D01*
X94298791Y-102145575D01*
X94145575Y-102298791D01*
X94025193Y-102478955D01*
X93942273Y-102679142D01*
X93900000Y-102891659D01*
X93900000Y-103108341D01*
X93942273Y-103320858D01*
X94025193Y-103521045D01*
X94145575Y-103701209D01*
X94298791Y-103854425D01*
X94478955Y-103974807D01*
X94679142Y-104057727D01*
X94891659Y-104100000D01*
X95108341Y-104100000D01*
X95320858Y-104057727D01*
X95521045Y-103974807D01*
X95701209Y-103854425D01*
X95854425Y-103701209D01*
X95974807Y-103521045D01*
X96057727Y-103320858D01*
X96100000Y-103108341D01*
X96100000Y-102891659D01*
X96057727Y-102679142D01*
X95974807Y-102478955D01*
X95854425Y-102298791D01*
X95701209Y-102145575D01*
X95635173Y-102101451D01*
X95800000Y-102101451D01*
X95858810Y-102095659D01*
X95915360Y-102078504D01*
X95967477Y-102050647D01*
X96013158Y-102013158D01*
X96050647Y-101967477D01*
X96078504Y-101915360D01*
X96095659Y-101858810D01*
X96101451Y-101800000D01*
X96101451Y-100900000D01*
X98311058Y-100900000D01*
X98322797Y-101019189D01*
X98357563Y-101133797D01*
X98414020Y-101239421D01*
X98489999Y-101332001D01*
X98582579Y-101407980D01*
X98688203Y-101464437D01*
X98802811Y-101499203D01*
X98922000Y-101510942D01*
X99516000Y-101508000D01*
X99668000Y-101356000D01*
X99668000Y-100154000D01*
X98466000Y-100154000D01*
X98314000Y-100306000D01*
X98311058Y-100900000D01*
X96101451Y-100900000D01*
X96101451Y-100200000D01*
X96095659Y-100141190D01*
X96078504Y-100084640D01*
X96050647Y-100032523D01*
X96013158Y-99986842D01*
X95967477Y-99949353D01*
X95915360Y-99921496D01*
X95858810Y-99904341D01*
X95800000Y-99898549D01*
X94200000Y-99898549D01*
X94141190Y-99904341D01*
X94084640Y-99921496D01*
X94032523Y-99949353D01*
X93986842Y-99986842D01*
X93949353Y-100032523D01*
X93921496Y-100084640D01*
X93904341Y-100141190D01*
X93898549Y-100200000D01*
X90325000Y-100200000D01*
X90325000Y-99100000D01*
X98311058Y-99100000D01*
X98314000Y-99694000D01*
X98466000Y-99846000D01*
X99668000Y-99846000D01*
X99668000Y-98644000D01*
X99976000Y-98644000D01*
X99976000Y-99846000D01*
X99996000Y-99846000D01*
X99996000Y-100154000D01*
X99976000Y-100154000D01*
X99976000Y-101356000D01*
X100128000Y-101508000D01*
X100722000Y-101510942D01*
X100841189Y-101499203D01*
X100955797Y-101464437D01*
X101061421Y-101407980D01*
X101154001Y-101332001D01*
X101229980Y-101239421D01*
X101286437Y-101133797D01*
X101321203Y-101019189D01*
X101332942Y-100900000D01*
X101331544Y-100617756D01*
X101429899Y-100764955D01*
X101597045Y-100932101D01*
X101793587Y-101063426D01*
X102011973Y-101153884D01*
X102243810Y-101200000D01*
X102480190Y-101200000D01*
X102712027Y-101153884D01*
X102930413Y-101063426D01*
X103126955Y-100932101D01*
X103294101Y-100764955D01*
X103425426Y-100568413D01*
X103515884Y-100350027D01*
X103562000Y-100118190D01*
X103562000Y-99881810D01*
X103515884Y-99649973D01*
X103425426Y-99431587D01*
X103313195Y-99263621D01*
X105840000Y-99263621D01*
X105840000Y-99736379D01*
X105932230Y-100200054D01*
X106113147Y-100636826D01*
X106375798Y-101029911D01*
X106710089Y-101364202D01*
X107103174Y-101626853D01*
X107539946Y-101807770D01*
X108003621Y-101900000D01*
X108476379Y-101900000D01*
X108940054Y-101807770D01*
X109376826Y-101626853D01*
X109769911Y-101364202D01*
X110104202Y-101029911D01*
X110355088Y-100654433D01*
X114020000Y-100654433D01*
X114020000Y-100841567D01*
X114056508Y-101025105D01*
X114128121Y-101197994D01*
X114232087Y-101353590D01*
X114364410Y-101485913D01*
X114520006Y-101589879D01*
X114692895Y-101661492D01*
X114876433Y-101698000D01*
X115063567Y-101698000D01*
X115247105Y-101661492D01*
X115382654Y-101605346D01*
X115326508Y-101740895D01*
X115290000Y-101924433D01*
X115290000Y-102111567D01*
X115326508Y-102295105D01*
X115398121Y-102467994D01*
X115502087Y-102623590D01*
X115634410Y-102755913D01*
X115790006Y-102859879D01*
X115962895Y-102931492D01*
X116146433Y-102968000D01*
X116333567Y-102968000D01*
X116517105Y-102931492D01*
X116689994Y-102859879D01*
X116845590Y-102755913D01*
X116977913Y-102623590D01*
X117081879Y-102467994D01*
X117153492Y-102295105D01*
X117190000Y-102111567D01*
X117190000Y-101924433D01*
X117153492Y-101740895D01*
X117097346Y-101605346D01*
X117232895Y-101661492D01*
X117416433Y-101698000D01*
X117603567Y-101698000D01*
X117787105Y-101661492D01*
X117959994Y-101589879D01*
X118115590Y-101485913D01*
X118247913Y-101353590D01*
X118276081Y-101311433D01*
X119735000Y-101311433D01*
X119735000Y-101498567D01*
X119771508Y-101682105D01*
X119843121Y-101854994D01*
X119947087Y-102010590D01*
X120079410Y-102142913D01*
X120235006Y-102246879D01*
X120407895Y-102318492D01*
X120591433Y-102355000D01*
X120778567Y-102355000D01*
X120962105Y-102318492D01*
X121134994Y-102246879D01*
X121290590Y-102142913D01*
X121422913Y-102010590D01*
X121526879Y-101854994D01*
X121598492Y-101682105D01*
X121635000Y-101498567D01*
X121635000Y-101311433D01*
X121640000Y-101311433D01*
X121640000Y-101498567D01*
X121676508Y-101682105D01*
X121748121Y-101854994D01*
X121852087Y-102010590D01*
X121984410Y-102142913D01*
X122140006Y-102246879D01*
X122312895Y-102318492D01*
X122496433Y-102355000D01*
X122683567Y-102355000D01*
X122867105Y-102318492D01*
X123039994Y-102246879D01*
X123195590Y-102142913D01*
X123327913Y-102010590D01*
X123431879Y-101854994D01*
X123503492Y-101682105D01*
X123540000Y-101498567D01*
X123540000Y-101311433D01*
X123503492Y-101127895D01*
X123431879Y-100955006D01*
X123327913Y-100799410D01*
X123195590Y-100667087D01*
X123144951Y-100633251D01*
X123168744Y-100623820D01*
X123202888Y-100605569D01*
X123259894Y-100387683D01*
X122590000Y-99717789D01*
X121920106Y-100387683D01*
X121977112Y-100605569D01*
X122037446Y-100631650D01*
X121984410Y-100667087D01*
X121852087Y-100799410D01*
X121748121Y-100955006D01*
X121676508Y-101127895D01*
X121640000Y-101311433D01*
X121635000Y-101311433D01*
X121598492Y-101127895D01*
X121526879Y-100955006D01*
X121422913Y-100799410D01*
X121290590Y-100667087D01*
X121134994Y-100563121D01*
X120962105Y-100491508D01*
X120778567Y-100455000D01*
X120591433Y-100455000D01*
X120407895Y-100491508D01*
X120235006Y-100563121D01*
X120079410Y-100667087D01*
X119947087Y-100799410D01*
X119843121Y-100955006D01*
X119771508Y-101127895D01*
X119735000Y-101311433D01*
X118276081Y-101311433D01*
X118351879Y-101197994D01*
X118423492Y-101025105D01*
X118460000Y-100841567D01*
X118460000Y-100654433D01*
X118423492Y-100470895D01*
X118351879Y-100298006D01*
X118247913Y-100142410D01*
X118115590Y-100010087D01*
X117959994Y-99906121D01*
X117787105Y-99834508D01*
X117603567Y-99798000D01*
X117416433Y-99798000D01*
X117232895Y-99834508D01*
X117060006Y-99906121D01*
X116904410Y-100010087D01*
X116772087Y-100142410D01*
X116668121Y-100298006D01*
X116596508Y-100470895D01*
X116560000Y-100654433D01*
X116560000Y-100841567D01*
X116596508Y-101025105D01*
X116652654Y-101160654D01*
X116517105Y-101104508D01*
X116333567Y-101068000D01*
X116146433Y-101068000D01*
X115962895Y-101104508D01*
X115827346Y-101160654D01*
X115883492Y-101025105D01*
X115920000Y-100841567D01*
X115920000Y-100654433D01*
X115883492Y-100470895D01*
X115811879Y-100298006D01*
X115707913Y-100142410D01*
X115575590Y-100010087D01*
X115419994Y-99906121D01*
X115247105Y-99834508D01*
X115063567Y-99798000D01*
X114876433Y-99798000D01*
X114692895Y-99834508D01*
X114520006Y-99906121D01*
X114364410Y-100010087D01*
X114232087Y-100142410D01*
X114128121Y-100298006D01*
X114056508Y-100470895D01*
X114020000Y-100654433D01*
X110355088Y-100654433D01*
X110366853Y-100636826D01*
X110547770Y-100200054D01*
X110640000Y-99736379D01*
X110640000Y-99406433D01*
X119735000Y-99406433D01*
X119735000Y-99593567D01*
X119771508Y-99777105D01*
X119843121Y-99949994D01*
X119947087Y-100105590D01*
X120079410Y-100237913D01*
X120235006Y-100341879D01*
X120407895Y-100413492D01*
X120591433Y-100450000D01*
X120778567Y-100450000D01*
X120962105Y-100413492D01*
X121134994Y-100341879D01*
X121290590Y-100237913D01*
X121422913Y-100105590D01*
X121456749Y-100054951D01*
X121466180Y-100078744D01*
X121484431Y-100112888D01*
X121702317Y-100169894D01*
X122372211Y-99500000D01*
X122807789Y-99500000D01*
X123477683Y-100169894D01*
X123695569Y-100112888D01*
X123721650Y-100052554D01*
X123757087Y-100105590D01*
X123889410Y-100237913D01*
X124045006Y-100341879D01*
X124217895Y-100413492D01*
X124401433Y-100450000D01*
X124588567Y-100450000D01*
X124700000Y-100427835D01*
X124700000Y-100477165D01*
X124588567Y-100455000D01*
X124401433Y-100455000D01*
X124217895Y-100491508D01*
X124045006Y-100563121D01*
X123889410Y-100667087D01*
X123757087Y-100799410D01*
X123653121Y-100955006D01*
X123581508Y-101127895D01*
X123545000Y-101311433D01*
X123545000Y-101498567D01*
X123581508Y-101682105D01*
X123653121Y-101854994D01*
X123757087Y-102010590D01*
X123889410Y-102142913D01*
X124045006Y-102246879D01*
X124217895Y-102318492D01*
X124401433Y-102355000D01*
X124588567Y-102355000D01*
X124700000Y-102332835D01*
X124700000Y-102500000D01*
X124705764Y-102558527D01*
X124722836Y-102614805D01*
X124750559Y-102666671D01*
X124787868Y-102712132D01*
X125287868Y-103212132D01*
X125333329Y-103249441D01*
X125385195Y-103277164D01*
X125441473Y-103294236D01*
X125500000Y-103300000D01*
X137750000Y-103300000D01*
X137808527Y-103294236D01*
X137864805Y-103277164D01*
X137916671Y-103249441D01*
X137962132Y-103212132D01*
X138462132Y-102712132D01*
X138499441Y-102666671D01*
X138527164Y-102614805D01*
X138544236Y-102558527D01*
X138550000Y-102500000D01*
X138550000Y-100460234D01*
X138623147Y-100636826D01*
X138885798Y-101029911D01*
X139220089Y-101364202D01*
X139613174Y-101626853D01*
X140049946Y-101807770D01*
X140513621Y-101900000D01*
X140986379Y-101900000D01*
X141450054Y-101807770D01*
X141886826Y-101626853D01*
X142279911Y-101364202D01*
X142614202Y-101029911D01*
X142876853Y-100636826D01*
X143057770Y-100200054D01*
X143150000Y-99736379D01*
X143150000Y-99263621D01*
X143057770Y-98799946D01*
X142876853Y-98363174D01*
X142614202Y-97970089D01*
X142279911Y-97635798D01*
X141886826Y-97373147D01*
X141450054Y-97192230D01*
X140986379Y-97100000D01*
X140513621Y-97100000D01*
X140049946Y-97192230D01*
X139613174Y-97373147D01*
X139220089Y-97635798D01*
X138885798Y-97970089D01*
X138623147Y-98363174D01*
X138550000Y-98539766D01*
X138550000Y-98500000D01*
X138544236Y-98441473D01*
X138527164Y-98385195D01*
X138499441Y-98333329D01*
X138462132Y-98287868D01*
X137962132Y-97787868D01*
X137916671Y-97750559D01*
X137864805Y-97722836D01*
X137808527Y-97705764D01*
X137750000Y-97700000D01*
X134967726Y-97700000D01*
X134970000Y-97688567D01*
X134970000Y-97501433D01*
X134933492Y-97317895D01*
X134861879Y-97145006D01*
X134757913Y-96989410D01*
X134625590Y-96857087D01*
X134469994Y-96753121D01*
X134297105Y-96681508D01*
X134113567Y-96645000D01*
X133926433Y-96645000D01*
X133742895Y-96681508D01*
X133570006Y-96753121D01*
X133414410Y-96857087D01*
X133282087Y-96989410D01*
X133178121Y-97145006D01*
X133106508Y-97317895D01*
X133070000Y-97501433D01*
X133070000Y-97688567D01*
X133072274Y-97700000D01*
X133062726Y-97700000D01*
X133065000Y-97688567D01*
X133065000Y-97501433D01*
X133028492Y-97317895D01*
X132956879Y-97145006D01*
X132852913Y-96989410D01*
X132720590Y-96857087D01*
X132564994Y-96753121D01*
X132392105Y-96681508D01*
X132208567Y-96645000D01*
X132021433Y-96645000D01*
X131837895Y-96681508D01*
X131665006Y-96753121D01*
X131509410Y-96857087D01*
X131377087Y-96989410D01*
X131273121Y-97145006D01*
X131201508Y-97317895D01*
X131165000Y-97501433D01*
X131165000Y-97688567D01*
X131167274Y-97700000D01*
X131157726Y-97700000D01*
X131160000Y-97688567D01*
X131160000Y-97501433D01*
X131123492Y-97317895D01*
X131051879Y-97145006D01*
X130947913Y-96989410D01*
X130815590Y-96857087D01*
X130659994Y-96753121D01*
X130487105Y-96681508D01*
X130303567Y-96645000D01*
X130116433Y-96645000D01*
X129932895Y-96681508D01*
X129760006Y-96753121D01*
X129604410Y-96857087D01*
X129472087Y-96989410D01*
X129368121Y-97145006D01*
X129296508Y-97317895D01*
X129260000Y-97501433D01*
X129260000Y-97688567D01*
X129262274Y-97700000D01*
X129252726Y-97700000D01*
X129255000Y-97688567D01*
X129255000Y-97501433D01*
X129218492Y-97317895D01*
X129146879Y-97145006D01*
X129042913Y-96989410D01*
X128910590Y-96857087D01*
X128754994Y-96753121D01*
X128582105Y-96681508D01*
X128398567Y-96645000D01*
X128211433Y-96645000D01*
X128027895Y-96681508D01*
X127855006Y-96753121D01*
X127699410Y-96857087D01*
X127567087Y-96989410D01*
X127463121Y-97145006D01*
X127391508Y-97317895D01*
X127355000Y-97501433D01*
X127355000Y-97688567D01*
X127357274Y-97700000D01*
X127347726Y-97700000D01*
X127350000Y-97688567D01*
X127350000Y-97501433D01*
X127313492Y-97317895D01*
X127241879Y-97145006D01*
X127137913Y-96989410D01*
X127005590Y-96857087D01*
X126849994Y-96753121D01*
X126677105Y-96681508D01*
X126493567Y-96645000D01*
X126306433Y-96645000D01*
X126122895Y-96681508D01*
X125950006Y-96753121D01*
X125794410Y-96857087D01*
X125662087Y-96989410D01*
X125558121Y-97145006D01*
X125486508Y-97317895D01*
X125450000Y-97501433D01*
X125450000Y-97688567D01*
X125486508Y-97872105D01*
X125558121Y-98044994D01*
X125662087Y-98200590D01*
X125749429Y-98287932D01*
X125225365Y-98886862D01*
X125100590Y-98762087D01*
X124944994Y-98658121D01*
X124772105Y-98586508D01*
X124588567Y-98550000D01*
X124401433Y-98550000D01*
X124217895Y-98586508D01*
X124045006Y-98658121D01*
X123889410Y-98762087D01*
X123757087Y-98894410D01*
X123723251Y-98945049D01*
X123713820Y-98921256D01*
X123695569Y-98887112D01*
X123477683Y-98830106D01*
X122807789Y-99500000D01*
X122372211Y-99500000D01*
X121702317Y-98830106D01*
X121484431Y-98887112D01*
X121458350Y-98947446D01*
X121422913Y-98894410D01*
X121290590Y-98762087D01*
X121134994Y-98658121D01*
X120962105Y-98586508D01*
X120778567Y-98550000D01*
X120591433Y-98550000D01*
X120407895Y-98586508D01*
X120235006Y-98658121D01*
X120079410Y-98762087D01*
X119947087Y-98894410D01*
X119843121Y-99050006D01*
X119771508Y-99222895D01*
X119735000Y-99406433D01*
X110640000Y-99406433D01*
X110640000Y-99263621D01*
X110547770Y-98799946D01*
X110366853Y-98363174D01*
X110200650Y-98114433D01*
X114020000Y-98114433D01*
X114020000Y-98301567D01*
X114056508Y-98485105D01*
X114128121Y-98657994D01*
X114232087Y-98813590D01*
X114364410Y-98945913D01*
X114520006Y-99049879D01*
X114692895Y-99121492D01*
X114876433Y-99158000D01*
X115063567Y-99158000D01*
X115247105Y-99121492D01*
X115419994Y-99049879D01*
X115575590Y-98945913D01*
X115707913Y-98813590D01*
X115811879Y-98657994D01*
X115883492Y-98485105D01*
X115920000Y-98301567D01*
X115920000Y-98114433D01*
X115883492Y-97930895D01*
X115827346Y-97795346D01*
X115962895Y-97851492D01*
X116146433Y-97888000D01*
X116333567Y-97888000D01*
X116517105Y-97851492D01*
X116652654Y-97795346D01*
X116596508Y-97930895D01*
X116560000Y-98114433D01*
X116560000Y-98301567D01*
X116596508Y-98485105D01*
X116668121Y-98657994D01*
X116772087Y-98813590D01*
X116904410Y-98945913D01*
X117060006Y-99049879D01*
X117232895Y-99121492D01*
X117416433Y-99158000D01*
X117603567Y-99158000D01*
X117787105Y-99121492D01*
X117959994Y-99049879D01*
X118115590Y-98945913D01*
X118247913Y-98813590D01*
X118351879Y-98657994D01*
X118423492Y-98485105D01*
X118460000Y-98301567D01*
X118460000Y-98114433D01*
X118423492Y-97930895D01*
X118351879Y-97758006D01*
X118247913Y-97602410D01*
X118146936Y-97501433D01*
X119735000Y-97501433D01*
X119735000Y-97688567D01*
X119771508Y-97872105D01*
X119843121Y-98044994D01*
X119947087Y-98200590D01*
X120079410Y-98332913D01*
X120235006Y-98436879D01*
X120407895Y-98508492D01*
X120591433Y-98545000D01*
X120778567Y-98545000D01*
X120962105Y-98508492D01*
X121134994Y-98436879D01*
X121290590Y-98332913D01*
X121422913Y-98200590D01*
X121526879Y-98044994D01*
X121598492Y-97872105D01*
X121635000Y-97688567D01*
X121635000Y-97501433D01*
X121640000Y-97501433D01*
X121640000Y-97688567D01*
X121676508Y-97872105D01*
X121748121Y-98044994D01*
X121852087Y-98200590D01*
X121984410Y-98332913D01*
X122035049Y-98366749D01*
X122011256Y-98376180D01*
X121977112Y-98394431D01*
X121920106Y-98612317D01*
X122590000Y-99282211D01*
X123259894Y-98612317D01*
X123202888Y-98394431D01*
X123142554Y-98368350D01*
X123195590Y-98332913D01*
X123327913Y-98200590D01*
X123431879Y-98044994D01*
X123503492Y-97872105D01*
X123540000Y-97688567D01*
X123540000Y-97501433D01*
X123545000Y-97501433D01*
X123545000Y-97688567D01*
X123581508Y-97872105D01*
X123653121Y-98044994D01*
X123757087Y-98200590D01*
X123889410Y-98332913D01*
X124045006Y-98436879D01*
X124217895Y-98508492D01*
X124401433Y-98545000D01*
X124588567Y-98545000D01*
X124772105Y-98508492D01*
X124944994Y-98436879D01*
X125100590Y-98332913D01*
X125232913Y-98200590D01*
X125336879Y-98044994D01*
X125408492Y-97872105D01*
X125445000Y-97688567D01*
X125445000Y-97501433D01*
X125408492Y-97317895D01*
X125336879Y-97145006D01*
X125232913Y-96989410D01*
X125100590Y-96857087D01*
X124944994Y-96753121D01*
X124772105Y-96681508D01*
X124588567Y-96645000D01*
X124401433Y-96645000D01*
X124217895Y-96681508D01*
X124045006Y-96753121D01*
X123889410Y-96857087D01*
X123757087Y-96989410D01*
X123653121Y-97145006D01*
X123581508Y-97317895D01*
X123545000Y-97501433D01*
X123540000Y-97501433D01*
X123503492Y-97317895D01*
X123431879Y-97145006D01*
X123327913Y-96989410D01*
X123195590Y-96857087D01*
X123039994Y-96753121D01*
X122867105Y-96681508D01*
X122683567Y-96645000D01*
X122496433Y-96645000D01*
X122312895Y-96681508D01*
X122140006Y-96753121D01*
X121984410Y-96857087D01*
X121852087Y-96989410D01*
X121748121Y-97145006D01*
X121676508Y-97317895D01*
X121640000Y-97501433D01*
X121635000Y-97501433D01*
X121598492Y-97317895D01*
X121526879Y-97145006D01*
X121422913Y-96989410D01*
X121290590Y-96857087D01*
X121134994Y-96753121D01*
X120962105Y-96681508D01*
X120778567Y-96645000D01*
X120591433Y-96645000D01*
X120407895Y-96681508D01*
X120235006Y-96753121D01*
X120079410Y-96857087D01*
X119947087Y-96989410D01*
X119843121Y-97145006D01*
X119771508Y-97317895D01*
X119735000Y-97501433D01*
X118146936Y-97501433D01*
X118115590Y-97470087D01*
X117959994Y-97366121D01*
X117787105Y-97294508D01*
X117603567Y-97258000D01*
X117416433Y-97258000D01*
X117232895Y-97294508D01*
X117097346Y-97350654D01*
X117153492Y-97215105D01*
X117190000Y-97031567D01*
X117190000Y-96844433D01*
X117153492Y-96660895D01*
X117081879Y-96488006D01*
X116977913Y-96332410D01*
X116845590Y-96200087D01*
X116689994Y-96096121D01*
X116517105Y-96024508D01*
X116333567Y-95988000D01*
X116146433Y-95988000D01*
X115962895Y-96024508D01*
X115790006Y-96096121D01*
X115634410Y-96200087D01*
X115502087Y-96332410D01*
X115398121Y-96488006D01*
X115326508Y-96660895D01*
X115290000Y-96844433D01*
X115290000Y-97031567D01*
X115326508Y-97215105D01*
X115382654Y-97350654D01*
X115247105Y-97294508D01*
X115063567Y-97258000D01*
X114876433Y-97258000D01*
X114692895Y-97294508D01*
X114520006Y-97366121D01*
X114364410Y-97470087D01*
X114232087Y-97602410D01*
X114128121Y-97758006D01*
X114056508Y-97930895D01*
X114020000Y-98114433D01*
X110200650Y-98114433D01*
X110104202Y-97970089D01*
X109769911Y-97635798D01*
X109376826Y-97373147D01*
X108940054Y-97192230D01*
X108476379Y-97100000D01*
X108003621Y-97100000D01*
X107539946Y-97192230D01*
X107103174Y-97373147D01*
X106710089Y-97635798D01*
X106375798Y-97970089D01*
X106113147Y-98363174D01*
X105932230Y-98799946D01*
X105840000Y-99263621D01*
X103313195Y-99263621D01*
X103294101Y-99235045D01*
X103126955Y-99067899D01*
X102930413Y-98936574D01*
X102712027Y-98846116D01*
X102480190Y-98800000D01*
X102243810Y-98800000D01*
X102011973Y-98846116D01*
X101793587Y-98936574D01*
X101597045Y-99067899D01*
X101429899Y-99235045D01*
X101331544Y-99382244D01*
X101332942Y-99100000D01*
X101321203Y-98980811D01*
X101286437Y-98866203D01*
X101229980Y-98760579D01*
X101154001Y-98667999D01*
X101061421Y-98592020D01*
X100955797Y-98535563D01*
X100841189Y-98500797D01*
X100722000Y-98489058D01*
X100128000Y-98492000D01*
X99976000Y-98644000D01*
X99668000Y-98644000D01*
X99516000Y-98492000D01*
X98922000Y-98489058D01*
X98802811Y-98500797D01*
X98688203Y-98535563D01*
X98582579Y-98592020D01*
X98489999Y-98667999D01*
X98414020Y-98760579D01*
X98357563Y-98866203D01*
X98322797Y-98980811D01*
X98311058Y-99100000D01*
X90325000Y-99100000D01*
X90325000Y-95240905D01*
X116800000Y-95240905D01*
X116800000Y-95359095D01*
X116823058Y-95475014D01*
X116868287Y-95584207D01*
X116933950Y-95682478D01*
X117017522Y-95766050D01*
X117115793Y-95831713D01*
X117224986Y-95876942D01*
X117340905Y-95900000D01*
X117459095Y-95900000D01*
X117575014Y-95876942D01*
X117684207Y-95831713D01*
X117782478Y-95766050D01*
X117823528Y-95725000D01*
X118179133Y-95725000D01*
X118200000Y-95727055D01*
X118220867Y-95725000D01*
X118220874Y-95725000D01*
X118283314Y-95718850D01*
X118363427Y-95694548D01*
X118437260Y-95655084D01*
X118501974Y-95601974D01*
X118515283Y-95585757D01*
X120976041Y-93125000D01*
X124373960Y-93125000D01*
X125250000Y-94001040D01*
X125250000Y-94059095D01*
X125273058Y-94175014D01*
X125318287Y-94284207D01*
X125383950Y-94382478D01*
X125467522Y-94466050D01*
X125565793Y-94531713D01*
X125674986Y-94576942D01*
X125790905Y-94600000D01*
X125909095Y-94600000D01*
X126025014Y-94576942D01*
X126134207Y-94531713D01*
X126232478Y-94466050D01*
X126316050Y-94382478D01*
X126381713Y-94284207D01*
X126426942Y-94175014D01*
X126450000Y-94059095D01*
X126450000Y-93940905D01*
X126426942Y-93824986D01*
X126381713Y-93715793D01*
X126316050Y-93617522D01*
X126232478Y-93533950D01*
X126134207Y-93468287D01*
X126025014Y-93423058D01*
X125909095Y-93400000D01*
X125851040Y-93400000D01*
X124865284Y-92414244D01*
X124851974Y-92398026D01*
X124787260Y-92344916D01*
X124713427Y-92305452D01*
X124633314Y-92281150D01*
X124570874Y-92275000D01*
X124570867Y-92275000D01*
X124550000Y-92272945D01*
X124529133Y-92275000D01*
X120820866Y-92275000D01*
X120799999Y-92272945D01*
X120779132Y-92275000D01*
X120779126Y-92275000D01*
X120725098Y-92280321D01*
X120716685Y-92281150D01*
X120692383Y-92288522D01*
X120636573Y-92305452D01*
X120562740Y-92344916D01*
X120498026Y-92398026D01*
X120484721Y-92414238D01*
X118023960Y-94875000D01*
X117823528Y-94875000D01*
X117782478Y-94833950D01*
X117684207Y-94768287D01*
X117575014Y-94723058D01*
X117459095Y-94700000D01*
X117340905Y-94700000D01*
X117224986Y-94723058D01*
X117115793Y-94768287D01*
X117017522Y-94833950D01*
X116933950Y-94917522D01*
X116868287Y-95015793D01*
X116823058Y-95124986D01*
X116800000Y-95240905D01*
X90325000Y-95240905D01*
X90325000Y-90325000D01*
X145700000Y-90325000D01*
X145700000Y-104250000D01*
G04 #@! TA.AperFunction,Conductor*
D27*
G36*
X145700000Y-104250000D02*
G01*
X145715372Y-104406072D01*
X145760896Y-104556147D01*
X145834824Y-104694456D01*
X145934315Y-104815685D01*
X146184315Y-105065685D01*
X146305544Y-105165176D01*
X146443853Y-105239104D01*
X146593928Y-105284628D01*
X146750000Y-105300000D01*
X158675001Y-105300000D01*
X158675001Y-117675000D01*
X90325000Y-117675000D01*
X90325000Y-115271961D01*
X91300000Y-115271961D01*
X91300000Y-115528039D01*
X91349958Y-115779196D01*
X91447955Y-116015781D01*
X91590224Y-116228702D01*
X91771298Y-116409776D01*
X91984219Y-116552045D01*
X92220804Y-116650042D01*
X92471961Y-116700000D01*
X92728039Y-116700000D01*
X92979196Y-116650042D01*
X93215781Y-116552045D01*
X93428702Y-116409776D01*
X93609776Y-116228702D01*
X93752045Y-116015781D01*
X93850042Y-115779196D01*
X93900000Y-115528039D01*
X93900000Y-115271961D01*
X98920000Y-115271961D01*
X98920000Y-115528039D01*
X98969958Y-115779196D01*
X99067955Y-116015781D01*
X99210224Y-116228702D01*
X99391298Y-116409776D01*
X99604219Y-116552045D01*
X99840804Y-116650042D01*
X100091961Y-116700000D01*
X100348039Y-116700000D01*
X100599196Y-116650042D01*
X100835781Y-116552045D01*
X101048702Y-116409776D01*
X101229776Y-116228702D01*
X101372045Y-116015781D01*
X101470042Y-115779196D01*
X101520000Y-115528039D01*
X101520000Y-115271961D01*
X104000000Y-115271961D01*
X104000000Y-115528039D01*
X104049958Y-115779196D01*
X104147955Y-116015781D01*
X104290224Y-116228702D01*
X104471298Y-116409776D01*
X104684219Y-116552045D01*
X104920804Y-116650042D01*
X105171961Y-116700000D01*
X105428039Y-116700000D01*
X105679196Y-116650042D01*
X105915781Y-116552045D01*
X106128702Y-116409776D01*
X106309776Y-116228702D01*
X106452045Y-116015781D01*
X106550042Y-115779196D01*
X106600000Y-115528039D01*
X106600000Y-115271961D01*
X109080000Y-115271961D01*
X109080000Y-115528039D01*
X109129958Y-115779196D01*
X109227955Y-116015781D01*
X109370224Y-116228702D01*
X109551298Y-116409776D01*
X109764219Y-116552045D01*
X110000804Y-116650042D01*
X110251961Y-116700000D01*
X110508039Y-116700000D01*
X110759196Y-116650042D01*
X110995781Y-116552045D01*
X111208702Y-116409776D01*
X111389776Y-116228702D01*
X111532045Y-116015781D01*
X111630042Y-115779196D01*
X111680000Y-115528039D01*
X111680000Y-115271961D01*
X111630042Y-115020804D01*
X111532045Y-114784219D01*
X111389776Y-114571298D01*
X111208702Y-114390224D01*
X110995781Y-114247955D01*
X110759196Y-114149958D01*
X110508039Y-114100000D01*
X110251961Y-114100000D01*
X110000804Y-114149958D01*
X109764219Y-114247955D01*
X109551298Y-114390224D01*
X109370224Y-114571298D01*
X109227955Y-114784219D01*
X109129958Y-115020804D01*
X109080000Y-115271961D01*
X106600000Y-115271961D01*
X106550042Y-115020804D01*
X106452045Y-114784219D01*
X106309776Y-114571298D01*
X106128702Y-114390224D01*
X105915781Y-114247955D01*
X105679196Y-114149958D01*
X105428039Y-114100000D01*
X105171961Y-114100000D01*
X104920804Y-114149958D01*
X104684219Y-114247955D01*
X104471298Y-114390224D01*
X104290224Y-114571298D01*
X104147955Y-114784219D01*
X104049958Y-115020804D01*
X104000000Y-115271961D01*
X101520000Y-115271961D01*
X101470042Y-115020804D01*
X101372045Y-114784219D01*
X101229776Y-114571298D01*
X101048702Y-114390224D01*
X100835781Y-114247955D01*
X100599196Y-114149958D01*
X100348039Y-114100000D01*
X100091961Y-114100000D01*
X99840804Y-114149958D01*
X99604219Y-114247955D01*
X99391298Y-114390224D01*
X99210224Y-114571298D01*
X99067955Y-114784219D01*
X98969958Y-115020804D01*
X98920000Y-115271961D01*
X93900000Y-115271961D01*
X93850042Y-115020804D01*
X93752045Y-114784219D01*
X93609776Y-114571298D01*
X93428702Y-114390224D01*
X93215781Y-114247955D01*
X92979196Y-114149958D01*
X92728039Y-114100000D01*
X92471961Y-114100000D01*
X92220804Y-114149958D01*
X91984219Y-114247955D01*
X91771298Y-114390224D01*
X91590224Y-114571298D01*
X91447955Y-114784219D01*
X91349958Y-115020804D01*
X91300000Y-115271961D01*
X90325000Y-115271961D01*
X90325000Y-112825000D01*
X116723549Y-112825000D01*
X116723549Y-113225000D01*
X116733184Y-113322828D01*
X116761720Y-113416897D01*
X116808059Y-113503591D01*
X116870421Y-113579579D01*
X116946409Y-113641941D01*
X117033103Y-113688280D01*
X117075000Y-113700990D01*
X117075000Y-114279133D01*
X117072945Y-114300000D01*
X117075000Y-114320867D01*
X117075000Y-114320873D01*
X117081150Y-114383313D01*
X117105452Y-114463426D01*
X117144916Y-114537259D01*
X117198026Y-114601974D01*
X117214243Y-114615283D01*
X117950320Y-115351361D01*
X117950320Y-115652630D01*
X118009874Y-115952025D01*
X118126692Y-116234049D01*
X118296285Y-116487863D01*
X118512137Y-116703715D01*
X118765951Y-116873308D01*
X119047975Y-116990126D01*
X119347370Y-117049680D01*
X119652630Y-117049680D01*
X119952025Y-116990126D01*
X120234049Y-116873308D01*
X120487863Y-116703715D01*
X120703715Y-116487863D01*
X120850975Y-116267472D01*
X147950317Y-116267472D01*
X148065038Y-116533809D01*
X148373663Y-116679704D01*
X148704820Y-116762586D01*
X149045783Y-116779271D01*
X149383449Y-116729115D01*
X149704843Y-116614049D01*
X149854962Y-116533809D01*
X149969683Y-116267472D01*
X153030317Y-116267472D01*
X153145038Y-116533809D01*
X153453663Y-116679704D01*
X153784820Y-116762586D01*
X154125783Y-116779271D01*
X154463449Y-116729115D01*
X154784843Y-116614049D01*
X154934962Y-116533809D01*
X155049683Y-116267472D01*
X154040000Y-115257789D01*
X153030317Y-116267472D01*
X149969683Y-116267472D01*
X148960000Y-115257789D01*
X147950317Y-116267472D01*
X120850975Y-116267472D01*
X120873308Y-116234049D01*
X120990126Y-115952025D01*
X121049680Y-115652630D01*
X121049680Y-115347370D01*
X121005604Y-115125783D01*
X147220729Y-115125783D01*
X147270885Y-115463449D01*
X147385951Y-115784843D01*
X147466191Y-115934962D01*
X147732528Y-116049683D01*
X148742211Y-115040000D01*
X149177789Y-115040000D01*
X150187472Y-116049683D01*
X150453809Y-115934962D01*
X150599704Y-115626337D01*
X150682586Y-115295180D01*
X150690875Y-115125783D01*
X152300729Y-115125783D01*
X152350885Y-115463449D01*
X152465951Y-115784843D01*
X152546191Y-115934962D01*
X152812528Y-116049683D01*
X153822211Y-115040000D01*
X154257789Y-115040000D01*
X155267472Y-116049683D01*
X155533809Y-115934962D01*
X155679704Y-115626337D01*
X155762586Y-115295180D01*
X155779271Y-114954217D01*
X155729115Y-114616551D01*
X155614049Y-114295157D01*
X155533809Y-114145038D01*
X155267472Y-114030317D01*
X154257789Y-115040000D01*
X153822211Y-115040000D01*
X152812528Y-114030317D01*
X152546191Y-114145038D01*
X152400296Y-114453663D01*
X152317414Y-114784820D01*
X152300729Y-115125783D01*
X150690875Y-115125783D01*
X150699271Y-114954217D01*
X150649115Y-114616551D01*
X150534049Y-114295157D01*
X150453809Y-114145038D01*
X150187472Y-114030317D01*
X149177789Y-115040000D01*
X148742211Y-115040000D01*
X147732528Y-114030317D01*
X147466191Y-114145038D01*
X147320296Y-114453663D01*
X147237414Y-114784820D01*
X147220729Y-115125783D01*
X121005604Y-115125783D01*
X120990126Y-115047975D01*
X120873308Y-114765951D01*
X120703715Y-114512137D01*
X120500000Y-114308422D01*
X120500000Y-113812528D01*
X147950317Y-113812528D01*
X148960000Y-114822211D01*
X149969683Y-113812528D01*
X149854962Y-113546191D01*
X149546337Y-113400296D01*
X149215180Y-113317414D01*
X148874217Y-113300729D01*
X148536551Y-113350885D01*
X148215157Y-113465951D01*
X148065038Y-113546191D01*
X147950317Y-113812528D01*
X120500000Y-113812528D01*
X120500000Y-110931370D01*
X121044135Y-110387236D01*
X121009112Y-110452759D01*
X120961938Y-110608272D01*
X120946009Y-110770000D01*
X120961938Y-110931728D01*
X121009112Y-111087241D01*
X121085719Y-111230563D01*
X121188815Y-111356185D01*
X121248296Y-111405000D01*
X121188815Y-111453815D01*
X121085719Y-111579437D01*
X121009112Y-111722759D01*
X120961938Y-111878272D01*
X120946009Y-112040000D01*
X120961938Y-112201728D01*
X121009112Y-112357241D01*
X121085719Y-112500563D01*
X121188815Y-112626185D01*
X121314437Y-112729281D01*
X121457759Y-112805888D01*
X121613272Y-112853062D01*
X121734479Y-112865000D01*
X122265521Y-112865000D01*
X122386728Y-112853062D01*
X122429788Y-112840000D01*
X123567217Y-112840000D01*
X123600336Y-112880356D01*
X123669644Y-112949664D01*
X123715325Y-112987153D01*
X123796824Y-113041609D01*
X123848943Y-113069467D01*
X123939499Y-113106976D01*
X123996048Y-113124130D01*
X124092181Y-113143252D01*
X124150991Y-113149044D01*
X124175550Y-113149044D01*
X124200000Y-113151452D01*
X124700000Y-113151452D01*
X124758810Y-113145660D01*
X124815361Y-113128505D01*
X124867478Y-113100648D01*
X124913159Y-113063159D01*
X124950648Y-113017478D01*
X124978505Y-112965361D01*
X124995660Y-112908810D01*
X125001452Y-112850000D01*
X125001452Y-112369499D01*
X150175000Y-112369499D01*
X150175000Y-112630501D01*
X150225919Y-112886488D01*
X150325800Y-113127623D01*
X150470805Y-113344638D01*
X150655362Y-113529195D01*
X150872377Y-113674200D01*
X151113512Y-113774081D01*
X151369499Y-113825000D01*
X151630501Y-113825000D01*
X151693201Y-113812528D01*
X153030317Y-113812528D01*
X154040000Y-114822211D01*
X155049683Y-113812528D01*
X154934962Y-113546191D01*
X154626337Y-113400296D01*
X154295180Y-113317414D01*
X153954217Y-113300729D01*
X153616551Y-113350885D01*
X153295157Y-113465951D01*
X153145038Y-113546191D01*
X153030317Y-113812528D01*
X151693201Y-113812528D01*
X151886488Y-113774081D01*
X152127623Y-113674200D01*
X152344638Y-113529195D01*
X152529195Y-113344638D01*
X152674200Y-113127623D01*
X152774081Y-112886488D01*
X152825000Y-112630501D01*
X152825000Y-112369499D01*
X152774081Y-112113512D01*
X152674200Y-111872377D01*
X152529195Y-111655362D01*
X152344638Y-111470805D01*
X152127623Y-111325800D01*
X151886488Y-111225919D01*
X151693202Y-111187472D01*
X153030317Y-111187472D01*
X153145038Y-111453809D01*
X153453663Y-111599704D01*
X153784820Y-111682586D01*
X154125783Y-111699271D01*
X154463449Y-111649115D01*
X154784843Y-111534049D01*
X154934962Y-111453809D01*
X155049683Y-111187472D01*
X154040000Y-110177789D01*
X153030317Y-111187472D01*
X151693202Y-111187472D01*
X151630501Y-111175000D01*
X151369499Y-111175000D01*
X151113512Y-111225919D01*
X150872377Y-111325800D01*
X150655362Y-111470805D01*
X150470805Y-111655362D01*
X150325800Y-111872377D01*
X150225919Y-112113512D01*
X150175000Y-112369499D01*
X125001452Y-112369499D01*
X125001452Y-112124549D01*
X125003870Y-112100000D01*
X125001452Y-112075451D01*
X125001452Y-111350000D01*
X124995660Y-111291190D01*
X124995574Y-111290905D01*
X133350000Y-111290905D01*
X133350000Y-111409095D01*
X133373058Y-111525014D01*
X133418287Y-111634207D01*
X133483950Y-111732478D01*
X133567522Y-111816050D01*
X133665793Y-111881713D01*
X133774986Y-111926942D01*
X133890905Y-111950000D01*
X134009095Y-111950000D01*
X134125014Y-111926942D01*
X134234207Y-111881713D01*
X134332478Y-111816050D01*
X134373528Y-111775000D01*
X137976472Y-111775000D01*
X138017522Y-111816050D01*
X138115793Y-111881713D01*
X138224986Y-111926942D01*
X138340905Y-111950000D01*
X138459095Y-111950000D01*
X138575014Y-111926942D01*
X138684207Y-111881713D01*
X138782478Y-111816050D01*
X138866050Y-111732478D01*
X138931713Y-111634207D01*
X138976942Y-111525014D01*
X139000000Y-111409095D01*
X139000000Y-111290905D01*
X138979426Y-111187472D01*
X147950317Y-111187472D01*
X148065038Y-111453809D01*
X148373663Y-111599704D01*
X148704820Y-111682586D01*
X149045783Y-111699271D01*
X149383449Y-111649115D01*
X149704843Y-111534049D01*
X149854962Y-111453809D01*
X149969683Y-111187472D01*
X148960000Y-110177789D01*
X147950317Y-111187472D01*
X138979426Y-111187472D01*
X138976942Y-111174986D01*
X138931713Y-111065793D01*
X138866050Y-110967522D01*
X138782478Y-110883950D01*
X138684207Y-110818287D01*
X138575014Y-110773058D01*
X138459095Y-110750000D01*
X138340905Y-110750000D01*
X138224986Y-110773058D01*
X138115793Y-110818287D01*
X138017522Y-110883950D01*
X137976472Y-110925000D01*
X134373528Y-110925000D01*
X134332478Y-110883950D01*
X134234207Y-110818287D01*
X134125014Y-110773058D01*
X134009095Y-110750000D01*
X133890905Y-110750000D01*
X133774986Y-110773058D01*
X133665793Y-110818287D01*
X133567522Y-110883950D01*
X133483950Y-110967522D01*
X133418287Y-111065793D01*
X133373058Y-111174986D01*
X133350000Y-111290905D01*
X124995574Y-111290905D01*
X124978505Y-111234639D01*
X124950648Y-111182522D01*
X124913159Y-111136841D01*
X124867478Y-111099352D01*
X124815361Y-111071495D01*
X124758810Y-111054340D01*
X124700000Y-111048548D01*
X124200000Y-111048548D01*
X124175550Y-111050956D01*
X124150991Y-111050956D01*
X124092181Y-111056748D01*
X123996048Y-111075870D01*
X123939499Y-111093024D01*
X123848943Y-111130533D01*
X123796824Y-111158391D01*
X123715325Y-111212847D01*
X123682239Y-111240000D01*
X122906536Y-111240000D01*
X122914281Y-111230563D01*
X122990888Y-111087241D01*
X123038062Y-110931728D01*
X123053991Y-110770000D01*
X123038062Y-110608272D01*
X122990888Y-110452759D01*
X122914281Y-110309437D01*
X122906536Y-110300000D01*
X127210709Y-110300000D01*
X127250000Y-110303870D01*
X127289291Y-110300000D01*
X127289293Y-110300000D01*
X127406827Y-110288424D01*
X127557628Y-110242679D01*
X127696606Y-110168393D01*
X127818422Y-110068422D01*
X127837001Y-110045783D01*
X147220729Y-110045783D01*
X147270885Y-110383449D01*
X147385951Y-110704843D01*
X147466191Y-110854962D01*
X147732528Y-110969683D01*
X148742211Y-109960000D01*
X149177789Y-109960000D01*
X150187472Y-110969683D01*
X150453809Y-110854962D01*
X150599704Y-110546337D01*
X150682586Y-110215180D01*
X150690875Y-110045783D01*
X152300729Y-110045783D01*
X152350885Y-110383449D01*
X152465951Y-110704843D01*
X152546191Y-110854962D01*
X152812528Y-110969683D01*
X153822211Y-109960000D01*
X154257789Y-109960000D01*
X155267472Y-110969683D01*
X155533809Y-110854962D01*
X155679704Y-110546337D01*
X155762586Y-110215180D01*
X155779271Y-109874217D01*
X155729115Y-109536551D01*
X155614049Y-109215157D01*
X155533809Y-109065038D01*
X155267472Y-108950317D01*
X154257789Y-109960000D01*
X153822211Y-109960000D01*
X152812528Y-108950317D01*
X152546191Y-109065038D01*
X152400296Y-109373663D01*
X152317414Y-109704820D01*
X152300729Y-110045783D01*
X150690875Y-110045783D01*
X150699271Y-109874217D01*
X150649115Y-109536551D01*
X150534049Y-109215157D01*
X150453809Y-109065038D01*
X150187472Y-108950317D01*
X149177789Y-109960000D01*
X148742211Y-109960000D01*
X147732528Y-108950317D01*
X147466191Y-109065038D01*
X147320296Y-109373663D01*
X147237414Y-109704820D01*
X147220729Y-110045783D01*
X127837001Y-110045783D01*
X127843473Y-110037897D01*
X129681371Y-108200000D01*
X130300000Y-108200000D01*
X130300000Y-108900000D01*
X130305764Y-108958527D01*
X130322836Y-109014805D01*
X130350559Y-109066671D01*
X130387868Y-109112132D01*
X130887868Y-109612132D01*
X130933329Y-109649441D01*
X130985195Y-109677164D01*
X131041473Y-109694236D01*
X131100000Y-109700000D01*
X138700000Y-109700000D01*
X138757607Y-109694417D01*
X138813938Y-109677521D01*
X138865891Y-109649961D01*
X138911468Y-109612794D01*
X139414593Y-109112804D01*
X139451519Y-109068237D01*
X139479566Y-109016545D01*
X139496989Y-108960375D01*
X139503119Y-108901885D01*
X139504177Y-108732528D01*
X147950317Y-108732528D01*
X148960000Y-109742211D01*
X149969683Y-108732528D01*
X153030317Y-108732528D01*
X154040000Y-109742211D01*
X155049683Y-108732528D01*
X154934962Y-108466191D01*
X154626337Y-108320296D01*
X154295180Y-108237414D01*
X153954217Y-108220729D01*
X153616551Y-108270885D01*
X153295157Y-108385951D01*
X153145038Y-108466191D01*
X153030317Y-108732528D01*
X149969683Y-108732528D01*
X149854962Y-108466191D01*
X149546337Y-108320296D01*
X149215180Y-108237414D01*
X148874217Y-108220729D01*
X148536551Y-108270885D01*
X148215157Y-108385951D01*
X148065038Y-108466191D01*
X147950317Y-108732528D01*
X139504177Y-108732528D01*
X139521869Y-105901865D01*
X139516292Y-105842383D01*
X139499396Y-105786052D01*
X139471835Y-105734099D01*
X139434669Y-105688522D01*
X138937794Y-105188532D01*
X138891671Y-105150559D01*
X138839805Y-105122836D01*
X138783527Y-105105764D01*
X138725000Y-105100000D01*
X131100000Y-105100000D01*
X131041473Y-105105764D01*
X130985195Y-105122836D01*
X130933329Y-105150559D01*
X130887868Y-105187868D01*
X130387868Y-105687868D01*
X130350559Y-105733329D01*
X130322836Y-105785195D01*
X130305764Y-105841473D01*
X130300000Y-105900000D01*
X130300000Y-106600000D01*
X129389282Y-106600000D01*
X129349999Y-106596131D01*
X129310716Y-106600000D01*
X129310707Y-106600000D01*
X129193173Y-106611576D01*
X129042372Y-106657321D01*
X128962526Y-106700000D01*
X128903393Y-106731607D01*
X128812098Y-106806531D01*
X128781578Y-106831578D01*
X128756531Y-106862098D01*
X126918630Y-108700000D01*
X122871916Y-108700000D01*
X122865360Y-108696496D01*
X122808810Y-108679341D01*
X122750000Y-108673549D01*
X121250000Y-108673549D01*
X121191190Y-108679341D01*
X121134640Y-108696496D01*
X121128084Y-108700000D01*
X120839291Y-108700000D01*
X120800000Y-108696130D01*
X120760709Y-108700000D01*
X120760707Y-108700000D01*
X120643173Y-108711576D01*
X120492372Y-108757321D01*
X120353393Y-108831607D01*
X120319235Y-108859640D01*
X120231578Y-108931578D01*
X120206531Y-108962098D01*
X119162098Y-110006532D01*
X119131579Y-110031578D01*
X119106532Y-110062098D01*
X119106531Y-110062099D01*
X119031607Y-110153394D01*
X118957321Y-110292373D01*
X118911577Y-110443173D01*
X118896130Y-110600000D01*
X118900001Y-110639300D01*
X118900000Y-114071167D01*
X118765951Y-114126692D01*
X118512137Y-114296285D01*
X118304731Y-114503691D01*
X117925000Y-114123960D01*
X117925000Y-113700990D01*
X117966897Y-113688280D01*
X118053591Y-113641941D01*
X118129579Y-113579579D01*
X118191941Y-113503591D01*
X118238280Y-113416897D01*
X118266816Y-113322828D01*
X118276451Y-113225000D01*
X118276451Y-112825000D01*
X118266816Y-112727172D01*
X118238280Y-112633103D01*
X118191941Y-112546409D01*
X118129579Y-112470421D01*
X118053591Y-112408059D01*
X117966897Y-112361720D01*
X117872828Y-112333184D01*
X117775000Y-112323549D01*
X117225000Y-112323549D01*
X117127172Y-112333184D01*
X117033103Y-112361720D01*
X116946409Y-112408059D01*
X116870421Y-112470421D01*
X116808059Y-112546409D01*
X116761720Y-112633103D01*
X116733184Y-112727172D01*
X116723549Y-112825000D01*
X90325000Y-112825000D01*
X90325000Y-107651961D01*
X91300000Y-107651961D01*
X91300000Y-107908039D01*
X91349958Y-108159196D01*
X91447955Y-108395781D01*
X91590224Y-108608702D01*
X91771298Y-108789776D01*
X91984219Y-108932045D01*
X92220804Y-109030042D01*
X92471961Y-109080000D01*
X92728039Y-109080000D01*
X92979196Y-109030042D01*
X93215781Y-108932045D01*
X93428702Y-108789776D01*
X93609776Y-108608702D01*
X93752045Y-108395781D01*
X93850042Y-108159196D01*
X93900000Y-107908039D01*
X93900000Y-107651961D01*
X98920000Y-107651961D01*
X98920000Y-107908039D01*
X98969958Y-108159196D01*
X99067955Y-108395781D01*
X99210224Y-108608702D01*
X99391298Y-108789776D01*
X99604219Y-108932045D01*
X99840804Y-109030042D01*
X100091961Y-109080000D01*
X100348039Y-109080000D01*
X100599196Y-109030042D01*
X100835781Y-108932045D01*
X101048702Y-108789776D01*
X101229776Y-108608702D01*
X101372045Y-108395781D01*
X101470042Y-108159196D01*
X101520000Y-107908039D01*
X101520000Y-107651961D01*
X104000000Y-107651961D01*
X104000000Y-107908039D01*
X104049958Y-108159196D01*
X104147955Y-108395781D01*
X104290224Y-108608702D01*
X104471298Y-108789776D01*
X104684219Y-108932045D01*
X104920804Y-109030042D01*
X105171961Y-109080000D01*
X105428039Y-109080000D01*
X105679196Y-109030042D01*
X105915781Y-108932045D01*
X106128702Y-108789776D01*
X106309776Y-108608702D01*
X106452045Y-108395781D01*
X106550042Y-108159196D01*
X106600000Y-107908039D01*
X106600000Y-107651961D01*
X109080000Y-107651961D01*
X109080000Y-107908039D01*
X109129958Y-108159196D01*
X109227955Y-108395781D01*
X109370224Y-108608702D01*
X109551298Y-108789776D01*
X109764219Y-108932045D01*
X110000804Y-109030042D01*
X110251961Y-109080000D01*
X110508039Y-109080000D01*
X110759196Y-109030042D01*
X110995781Y-108932045D01*
X111208702Y-108789776D01*
X111389776Y-108608702D01*
X111532045Y-108395781D01*
X111630042Y-108159196D01*
X111633680Y-108140905D01*
X112650000Y-108140905D01*
X112650000Y-108259095D01*
X112673058Y-108375014D01*
X112718287Y-108484207D01*
X112783950Y-108582478D01*
X112867522Y-108666050D01*
X112965793Y-108731713D01*
X113074986Y-108776942D01*
X113190905Y-108800000D01*
X113248960Y-108800000D01*
X116109721Y-111660762D01*
X116123026Y-111676974D01*
X116187740Y-111730084D01*
X116261573Y-111769548D01*
X116317383Y-111786478D01*
X116341685Y-111793850D01*
X116350098Y-111794679D01*
X116404126Y-111800000D01*
X116404132Y-111800000D01*
X116424999Y-111802055D01*
X116445866Y-111800000D01*
X116779414Y-111800000D01*
X116808059Y-111853591D01*
X116870421Y-111929579D01*
X116946409Y-111991941D01*
X117033103Y-112038280D01*
X117127172Y-112066816D01*
X117225000Y-112076451D01*
X117775000Y-112076451D01*
X117872828Y-112066816D01*
X117966897Y-112038280D01*
X118053591Y-111991941D01*
X118129579Y-111929579D01*
X118191941Y-111853591D01*
X118238280Y-111766897D01*
X118266816Y-111672828D01*
X118276451Y-111575000D01*
X118276451Y-111175000D01*
X118266816Y-111077172D01*
X118238280Y-110983103D01*
X118191941Y-110896409D01*
X118129579Y-110820421D01*
X118053591Y-110758059D01*
X117966897Y-110711720D01*
X117872828Y-110683184D01*
X117775000Y-110673549D01*
X117225000Y-110673549D01*
X117127172Y-110683184D01*
X117033103Y-110711720D01*
X116946409Y-110758059D01*
X116870421Y-110820421D01*
X116808059Y-110896409D01*
X116779414Y-110950000D01*
X116601041Y-110950000D01*
X113850000Y-108198960D01*
X113850000Y-108140905D01*
X113826942Y-108024986D01*
X113781713Y-107915793D01*
X113716050Y-107817522D01*
X113632478Y-107733950D01*
X113534207Y-107668287D01*
X113425014Y-107623058D01*
X113309095Y-107600000D01*
X113190905Y-107600000D01*
X113074986Y-107623058D01*
X112965793Y-107668287D01*
X112867522Y-107733950D01*
X112783950Y-107817522D01*
X112718287Y-107915793D01*
X112673058Y-108024986D01*
X112650000Y-108140905D01*
X111633680Y-108140905D01*
X111680000Y-107908039D01*
X111680000Y-107651961D01*
X111630042Y-107400804D01*
X111532045Y-107164219D01*
X111389776Y-106951298D01*
X111208702Y-106770224D01*
X110995781Y-106627955D01*
X110759196Y-106529958D01*
X110508039Y-106480000D01*
X110251961Y-106480000D01*
X110000804Y-106529958D01*
X109764219Y-106627955D01*
X109551298Y-106770224D01*
X109370224Y-106951298D01*
X109227955Y-107164219D01*
X109129958Y-107400804D01*
X109080000Y-107651961D01*
X106600000Y-107651961D01*
X106550042Y-107400804D01*
X106452045Y-107164219D01*
X106309776Y-106951298D01*
X106128702Y-106770224D01*
X105915781Y-106627955D01*
X105679196Y-106529958D01*
X105428039Y-106480000D01*
X105171961Y-106480000D01*
X104920804Y-106529958D01*
X104684219Y-106627955D01*
X104471298Y-106770224D01*
X104290224Y-106951298D01*
X104147955Y-107164219D01*
X104049958Y-107400804D01*
X104000000Y-107651961D01*
X101520000Y-107651961D01*
X101470042Y-107400804D01*
X101372045Y-107164219D01*
X101229776Y-106951298D01*
X101048702Y-106770224D01*
X100835781Y-106627955D01*
X100599196Y-106529958D01*
X100348039Y-106480000D01*
X100091961Y-106480000D01*
X99840804Y-106529958D01*
X99604219Y-106627955D01*
X99391298Y-106770224D01*
X99210224Y-106951298D01*
X99067955Y-107164219D01*
X98969958Y-107400804D01*
X98920000Y-107651961D01*
X93900000Y-107651961D01*
X93850042Y-107400804D01*
X93752045Y-107164219D01*
X93609776Y-106951298D01*
X93428702Y-106770224D01*
X93215781Y-106627955D01*
X92979196Y-106529958D01*
X92728039Y-106480000D01*
X92471961Y-106480000D01*
X92220804Y-106529958D01*
X91984219Y-106627955D01*
X91771298Y-106770224D01*
X91590224Y-106951298D01*
X91447955Y-107164219D01*
X91349958Y-107400804D01*
X91300000Y-107651961D01*
X90325000Y-107651961D01*
X90325000Y-100200000D01*
X93898549Y-100200000D01*
X93898549Y-101800000D01*
X93904341Y-101858810D01*
X93921496Y-101915360D01*
X93949353Y-101967477D01*
X93986842Y-102013158D01*
X94032523Y-102050647D01*
X94084640Y-102078504D01*
X94141190Y-102095659D01*
X94200000Y-102101451D01*
X94364827Y-102101451D01*
X94298791Y-102145575D01*
X94145575Y-102298791D01*
X94025193Y-102478955D01*
X93942273Y-102679142D01*
X93900000Y-102891659D01*
X93900000Y-103108341D01*
X93942273Y-103320858D01*
X94025193Y-103521045D01*
X94145575Y-103701209D01*
X94298791Y-103854425D01*
X94478955Y-103974807D01*
X94679142Y-104057727D01*
X94891659Y-104100000D01*
X95108341Y-104100000D01*
X95320858Y-104057727D01*
X95521045Y-103974807D01*
X95701209Y-103854425D01*
X95854425Y-103701209D01*
X95974807Y-103521045D01*
X96057727Y-103320858D01*
X96100000Y-103108341D01*
X96100000Y-102891659D01*
X96057727Y-102679142D01*
X95974807Y-102478955D01*
X95854425Y-102298791D01*
X95701209Y-102145575D01*
X95635173Y-102101451D01*
X95800000Y-102101451D01*
X95858810Y-102095659D01*
X95915360Y-102078504D01*
X95967477Y-102050647D01*
X96013158Y-102013158D01*
X96050647Y-101967477D01*
X96078504Y-101915360D01*
X96095659Y-101858810D01*
X96101451Y-101800000D01*
X96101451Y-100900000D01*
X98311058Y-100900000D01*
X98322797Y-101019189D01*
X98357563Y-101133797D01*
X98414020Y-101239421D01*
X98489999Y-101332001D01*
X98582579Y-101407980D01*
X98688203Y-101464437D01*
X98802811Y-101499203D01*
X98922000Y-101510942D01*
X99516000Y-101508000D01*
X99668000Y-101356000D01*
X99668000Y-100154000D01*
X98466000Y-100154000D01*
X98314000Y-100306000D01*
X98311058Y-100900000D01*
X96101451Y-100900000D01*
X96101451Y-100200000D01*
X96095659Y-100141190D01*
X96078504Y-100084640D01*
X96050647Y-100032523D01*
X96013158Y-99986842D01*
X95967477Y-99949353D01*
X95915360Y-99921496D01*
X95858810Y-99904341D01*
X95800000Y-99898549D01*
X94200000Y-99898549D01*
X94141190Y-99904341D01*
X94084640Y-99921496D01*
X94032523Y-99949353D01*
X93986842Y-99986842D01*
X93949353Y-100032523D01*
X93921496Y-100084640D01*
X93904341Y-100141190D01*
X93898549Y-100200000D01*
X90325000Y-100200000D01*
X90325000Y-99100000D01*
X98311058Y-99100000D01*
X98314000Y-99694000D01*
X98466000Y-99846000D01*
X99668000Y-99846000D01*
X99668000Y-98644000D01*
X99976000Y-98644000D01*
X99976000Y-99846000D01*
X99996000Y-99846000D01*
X99996000Y-100154000D01*
X99976000Y-100154000D01*
X99976000Y-101356000D01*
X100128000Y-101508000D01*
X100722000Y-101510942D01*
X100841189Y-101499203D01*
X100955797Y-101464437D01*
X101061421Y-101407980D01*
X101154001Y-101332001D01*
X101229980Y-101239421D01*
X101286437Y-101133797D01*
X101321203Y-101019189D01*
X101332942Y-100900000D01*
X101331544Y-100617756D01*
X101429899Y-100764955D01*
X101597045Y-100932101D01*
X101793587Y-101063426D01*
X102011973Y-101153884D01*
X102243810Y-101200000D01*
X102480190Y-101200000D01*
X102712027Y-101153884D01*
X102930413Y-101063426D01*
X103126955Y-100932101D01*
X103294101Y-100764955D01*
X103425426Y-100568413D01*
X103515884Y-100350027D01*
X103562000Y-100118190D01*
X103562000Y-99881810D01*
X103515884Y-99649973D01*
X103425426Y-99431587D01*
X103313195Y-99263621D01*
X105840000Y-99263621D01*
X105840000Y-99736379D01*
X105932230Y-100200054D01*
X106113147Y-100636826D01*
X106375798Y-101029911D01*
X106710089Y-101364202D01*
X107103174Y-101626853D01*
X107539946Y-101807770D01*
X108003621Y-101900000D01*
X108476379Y-101900000D01*
X108940054Y-101807770D01*
X109376826Y-101626853D01*
X109769911Y-101364202D01*
X110104202Y-101029911D01*
X110355088Y-100654433D01*
X114020000Y-100654433D01*
X114020000Y-100841567D01*
X114056508Y-101025105D01*
X114128121Y-101197994D01*
X114232087Y-101353590D01*
X114364410Y-101485913D01*
X114520006Y-101589879D01*
X114692895Y-101661492D01*
X114876433Y-101698000D01*
X115063567Y-101698000D01*
X115247105Y-101661492D01*
X115382654Y-101605346D01*
X115326508Y-101740895D01*
X115290000Y-101924433D01*
X115290000Y-102111567D01*
X115326508Y-102295105D01*
X115398121Y-102467994D01*
X115502087Y-102623590D01*
X115634410Y-102755913D01*
X115790006Y-102859879D01*
X115962895Y-102931492D01*
X116146433Y-102968000D01*
X116333567Y-102968000D01*
X116517105Y-102931492D01*
X116689994Y-102859879D01*
X116845590Y-102755913D01*
X116977913Y-102623590D01*
X117081879Y-102467994D01*
X117153492Y-102295105D01*
X117190000Y-102111567D01*
X117190000Y-101924433D01*
X117153492Y-101740895D01*
X117097346Y-101605346D01*
X117232895Y-101661492D01*
X117416433Y-101698000D01*
X117603567Y-101698000D01*
X117787105Y-101661492D01*
X117959994Y-101589879D01*
X118115590Y-101485913D01*
X118247913Y-101353590D01*
X118276081Y-101311433D01*
X119735000Y-101311433D01*
X119735000Y-101498567D01*
X119771508Y-101682105D01*
X119843121Y-101854994D01*
X119947087Y-102010590D01*
X120079410Y-102142913D01*
X120235006Y-102246879D01*
X120407895Y-102318492D01*
X120591433Y-102355000D01*
X120778567Y-102355000D01*
X120962105Y-102318492D01*
X121134994Y-102246879D01*
X121290590Y-102142913D01*
X121422913Y-102010590D01*
X121526879Y-101854994D01*
X121598492Y-101682105D01*
X121635000Y-101498567D01*
X121635000Y-101311433D01*
X121640000Y-101311433D01*
X121640000Y-101498567D01*
X121676508Y-101682105D01*
X121748121Y-101854994D01*
X121852087Y-102010590D01*
X121984410Y-102142913D01*
X122140006Y-102246879D01*
X122312895Y-102318492D01*
X122496433Y-102355000D01*
X122683567Y-102355000D01*
X122867105Y-102318492D01*
X123039994Y-102246879D01*
X123195590Y-102142913D01*
X123327913Y-102010590D01*
X123431879Y-101854994D01*
X123503492Y-101682105D01*
X123540000Y-101498567D01*
X123540000Y-101311433D01*
X123503492Y-101127895D01*
X123431879Y-100955006D01*
X123327913Y-100799410D01*
X123195590Y-100667087D01*
X123144951Y-100633251D01*
X123168744Y-100623820D01*
X123202888Y-100605569D01*
X123259894Y-100387683D01*
X122590000Y-99717789D01*
X121920106Y-100387683D01*
X121977112Y-100605569D01*
X122037446Y-100631650D01*
X121984410Y-100667087D01*
X121852087Y-100799410D01*
X121748121Y-100955006D01*
X121676508Y-101127895D01*
X121640000Y-101311433D01*
X121635000Y-101311433D01*
X121598492Y-101127895D01*
X121526879Y-100955006D01*
X121422913Y-100799410D01*
X121290590Y-100667087D01*
X121134994Y-100563121D01*
X120962105Y-100491508D01*
X120778567Y-100455000D01*
X120591433Y-100455000D01*
X120407895Y-100491508D01*
X120235006Y-100563121D01*
X120079410Y-100667087D01*
X119947087Y-100799410D01*
X119843121Y-100955006D01*
X119771508Y-101127895D01*
X119735000Y-101311433D01*
X118276081Y-101311433D01*
X118351879Y-101197994D01*
X118423492Y-101025105D01*
X118460000Y-100841567D01*
X118460000Y-100654433D01*
X118423492Y-100470895D01*
X118351879Y-100298006D01*
X118247913Y-100142410D01*
X118115590Y-100010087D01*
X117959994Y-99906121D01*
X117787105Y-99834508D01*
X117603567Y-99798000D01*
X117416433Y-99798000D01*
X117232895Y-99834508D01*
X117060006Y-99906121D01*
X116904410Y-100010087D01*
X116772087Y-100142410D01*
X116668121Y-100298006D01*
X116596508Y-100470895D01*
X116560000Y-100654433D01*
X116560000Y-100841567D01*
X116596508Y-101025105D01*
X116652654Y-101160654D01*
X116517105Y-101104508D01*
X116333567Y-101068000D01*
X116146433Y-101068000D01*
X115962895Y-101104508D01*
X115827346Y-101160654D01*
X115883492Y-101025105D01*
X115920000Y-100841567D01*
X115920000Y-100654433D01*
X115883492Y-100470895D01*
X115811879Y-100298006D01*
X115707913Y-100142410D01*
X115575590Y-100010087D01*
X115419994Y-99906121D01*
X115247105Y-99834508D01*
X115063567Y-99798000D01*
X114876433Y-99798000D01*
X114692895Y-99834508D01*
X114520006Y-99906121D01*
X114364410Y-100010087D01*
X114232087Y-100142410D01*
X114128121Y-100298006D01*
X114056508Y-100470895D01*
X114020000Y-100654433D01*
X110355088Y-100654433D01*
X110366853Y-100636826D01*
X110547770Y-100200054D01*
X110640000Y-99736379D01*
X110640000Y-99406433D01*
X119735000Y-99406433D01*
X119735000Y-99593567D01*
X119771508Y-99777105D01*
X119843121Y-99949994D01*
X119947087Y-100105590D01*
X120079410Y-100237913D01*
X120235006Y-100341879D01*
X120407895Y-100413492D01*
X120591433Y-100450000D01*
X120778567Y-100450000D01*
X120962105Y-100413492D01*
X121134994Y-100341879D01*
X121290590Y-100237913D01*
X121422913Y-100105590D01*
X121456749Y-100054951D01*
X121466180Y-100078744D01*
X121484431Y-100112888D01*
X121702317Y-100169894D01*
X122372211Y-99500000D01*
X122807789Y-99500000D01*
X123477683Y-100169894D01*
X123695569Y-100112888D01*
X123721650Y-100052554D01*
X123757087Y-100105590D01*
X123889410Y-100237913D01*
X124045006Y-100341879D01*
X124217895Y-100413492D01*
X124401433Y-100450000D01*
X124588567Y-100450000D01*
X124700000Y-100427835D01*
X124700000Y-100477165D01*
X124588567Y-100455000D01*
X124401433Y-100455000D01*
X124217895Y-100491508D01*
X124045006Y-100563121D01*
X123889410Y-100667087D01*
X123757087Y-100799410D01*
X123653121Y-100955006D01*
X123581508Y-101127895D01*
X123545000Y-101311433D01*
X123545000Y-101498567D01*
X123581508Y-101682105D01*
X123653121Y-101854994D01*
X123757087Y-102010590D01*
X123889410Y-102142913D01*
X124045006Y-102246879D01*
X124217895Y-102318492D01*
X124401433Y-102355000D01*
X124588567Y-102355000D01*
X124700000Y-102332835D01*
X124700000Y-102500000D01*
X124705764Y-102558527D01*
X124722836Y-102614805D01*
X124750559Y-102666671D01*
X124787868Y-102712132D01*
X125287868Y-103212132D01*
X125333329Y-103249441D01*
X125385195Y-103277164D01*
X125441473Y-103294236D01*
X125500000Y-103300000D01*
X137750000Y-103300000D01*
X137808527Y-103294236D01*
X137864805Y-103277164D01*
X137916671Y-103249441D01*
X137962132Y-103212132D01*
X138462132Y-102712132D01*
X138499441Y-102666671D01*
X138527164Y-102614805D01*
X138544236Y-102558527D01*
X138550000Y-102500000D01*
X138550000Y-100460234D01*
X138623147Y-100636826D01*
X138885798Y-101029911D01*
X139220089Y-101364202D01*
X139613174Y-101626853D01*
X140049946Y-101807770D01*
X140513621Y-101900000D01*
X140986379Y-101900000D01*
X141450054Y-101807770D01*
X141886826Y-101626853D01*
X142279911Y-101364202D01*
X142614202Y-101029911D01*
X142876853Y-100636826D01*
X143057770Y-100200054D01*
X143150000Y-99736379D01*
X143150000Y-99263621D01*
X143057770Y-98799946D01*
X142876853Y-98363174D01*
X142614202Y-97970089D01*
X142279911Y-97635798D01*
X141886826Y-97373147D01*
X141450054Y-97192230D01*
X140986379Y-97100000D01*
X140513621Y-97100000D01*
X140049946Y-97192230D01*
X139613174Y-97373147D01*
X139220089Y-97635798D01*
X138885798Y-97970089D01*
X138623147Y-98363174D01*
X138550000Y-98539766D01*
X138550000Y-98500000D01*
X138544236Y-98441473D01*
X138527164Y-98385195D01*
X138499441Y-98333329D01*
X138462132Y-98287868D01*
X137962132Y-97787868D01*
X137916671Y-97750559D01*
X137864805Y-97722836D01*
X137808527Y-97705764D01*
X137750000Y-97700000D01*
X134967726Y-97700000D01*
X134970000Y-97688567D01*
X134970000Y-97501433D01*
X134933492Y-97317895D01*
X134861879Y-97145006D01*
X134757913Y-96989410D01*
X134625590Y-96857087D01*
X134469994Y-96753121D01*
X134297105Y-96681508D01*
X134113567Y-96645000D01*
X133926433Y-96645000D01*
X133742895Y-96681508D01*
X133570006Y-96753121D01*
X133414410Y-96857087D01*
X133282087Y-96989410D01*
X133178121Y-97145006D01*
X133106508Y-97317895D01*
X133070000Y-97501433D01*
X133070000Y-97688567D01*
X133072274Y-97700000D01*
X133062726Y-97700000D01*
X133065000Y-97688567D01*
X133065000Y-97501433D01*
X133028492Y-97317895D01*
X132956879Y-97145006D01*
X132852913Y-96989410D01*
X132720590Y-96857087D01*
X132564994Y-96753121D01*
X132392105Y-96681508D01*
X132208567Y-96645000D01*
X132021433Y-96645000D01*
X131837895Y-96681508D01*
X131665006Y-96753121D01*
X131509410Y-96857087D01*
X131377087Y-96989410D01*
X131273121Y-97145006D01*
X131201508Y-97317895D01*
X131165000Y-97501433D01*
X131165000Y-97688567D01*
X131167274Y-97700000D01*
X131157726Y-97700000D01*
X131160000Y-97688567D01*
X131160000Y-97501433D01*
X131123492Y-97317895D01*
X131051879Y-97145006D01*
X130947913Y-96989410D01*
X130815590Y-96857087D01*
X130659994Y-96753121D01*
X130487105Y-96681508D01*
X130303567Y-96645000D01*
X130116433Y-96645000D01*
X129932895Y-96681508D01*
X129760006Y-96753121D01*
X129604410Y-96857087D01*
X129472087Y-96989410D01*
X129368121Y-97145006D01*
X129296508Y-97317895D01*
X129260000Y-97501433D01*
X129260000Y-97688567D01*
X129262274Y-97700000D01*
X129252726Y-97700000D01*
X129255000Y-97688567D01*
X129255000Y-97501433D01*
X129218492Y-97317895D01*
X129146879Y-97145006D01*
X129042913Y-96989410D01*
X128910590Y-96857087D01*
X128754994Y-96753121D01*
X128582105Y-96681508D01*
X128398567Y-96645000D01*
X128211433Y-96645000D01*
X128027895Y-96681508D01*
X127855006Y-96753121D01*
X127699410Y-96857087D01*
X127567087Y-96989410D01*
X127463121Y-97145006D01*
X127391508Y-97317895D01*
X127355000Y-97501433D01*
X127355000Y-97688567D01*
X127357274Y-97700000D01*
X127347726Y-97700000D01*
X127350000Y-97688567D01*
X127350000Y-97501433D01*
X127313492Y-97317895D01*
X127241879Y-97145006D01*
X127137913Y-96989410D01*
X127005590Y-96857087D01*
X126849994Y-96753121D01*
X126677105Y-96681508D01*
X126493567Y-96645000D01*
X126306433Y-96645000D01*
X126122895Y-96681508D01*
X125950006Y-96753121D01*
X125794410Y-96857087D01*
X125662087Y-96989410D01*
X125558121Y-97145006D01*
X125486508Y-97317895D01*
X125450000Y-97501433D01*
X125450000Y-97688567D01*
X125486508Y-97872105D01*
X125558121Y-98044994D01*
X125662087Y-98200590D01*
X125749429Y-98287932D01*
X125225365Y-98886862D01*
X125100590Y-98762087D01*
X124944994Y-98658121D01*
X124772105Y-98586508D01*
X124588567Y-98550000D01*
X124401433Y-98550000D01*
X124217895Y-98586508D01*
X124045006Y-98658121D01*
X123889410Y-98762087D01*
X123757087Y-98894410D01*
X123723251Y-98945049D01*
X123713820Y-98921256D01*
X123695569Y-98887112D01*
X123477683Y-98830106D01*
X122807789Y-99500000D01*
X122372211Y-99500000D01*
X121702317Y-98830106D01*
X121484431Y-98887112D01*
X121458350Y-98947446D01*
X121422913Y-98894410D01*
X121290590Y-98762087D01*
X121134994Y-98658121D01*
X120962105Y-98586508D01*
X120778567Y-98550000D01*
X120591433Y-98550000D01*
X120407895Y-98586508D01*
X120235006Y-98658121D01*
X120079410Y-98762087D01*
X119947087Y-98894410D01*
X119843121Y-99050006D01*
X119771508Y-99222895D01*
X119735000Y-99406433D01*
X110640000Y-99406433D01*
X110640000Y-99263621D01*
X110547770Y-98799946D01*
X110366853Y-98363174D01*
X110200650Y-98114433D01*
X114020000Y-98114433D01*
X114020000Y-98301567D01*
X114056508Y-98485105D01*
X114128121Y-98657994D01*
X114232087Y-98813590D01*
X114364410Y-98945913D01*
X114520006Y-99049879D01*
X114692895Y-99121492D01*
X114876433Y-99158000D01*
X115063567Y-99158000D01*
X115247105Y-99121492D01*
X115419994Y-99049879D01*
X115575590Y-98945913D01*
X115707913Y-98813590D01*
X115811879Y-98657994D01*
X115883492Y-98485105D01*
X115920000Y-98301567D01*
X115920000Y-98114433D01*
X115883492Y-97930895D01*
X115827346Y-97795346D01*
X115962895Y-97851492D01*
X116146433Y-97888000D01*
X116333567Y-97888000D01*
X116517105Y-97851492D01*
X116652654Y-97795346D01*
X116596508Y-97930895D01*
X116560000Y-98114433D01*
X116560000Y-98301567D01*
X116596508Y-98485105D01*
X116668121Y-98657994D01*
X116772087Y-98813590D01*
X116904410Y-98945913D01*
X117060006Y-99049879D01*
X117232895Y-99121492D01*
X117416433Y-99158000D01*
X117603567Y-99158000D01*
X117787105Y-99121492D01*
X117959994Y-99049879D01*
X118115590Y-98945913D01*
X118247913Y-98813590D01*
X118351879Y-98657994D01*
X118423492Y-98485105D01*
X118460000Y-98301567D01*
X118460000Y-98114433D01*
X118423492Y-97930895D01*
X118351879Y-97758006D01*
X118247913Y-97602410D01*
X118146936Y-97501433D01*
X119735000Y-97501433D01*
X119735000Y-97688567D01*
X119771508Y-97872105D01*
X119843121Y-98044994D01*
X119947087Y-98200590D01*
X120079410Y-98332913D01*
X120235006Y-98436879D01*
X120407895Y-98508492D01*
X120591433Y-98545000D01*
X120778567Y-98545000D01*
X120962105Y-98508492D01*
X121134994Y-98436879D01*
X121290590Y-98332913D01*
X121422913Y-98200590D01*
X121526879Y-98044994D01*
X121598492Y-97872105D01*
X121635000Y-97688567D01*
X121635000Y-97501433D01*
X121640000Y-97501433D01*
X121640000Y-97688567D01*
X121676508Y-97872105D01*
X121748121Y-98044994D01*
X121852087Y-98200590D01*
X121984410Y-98332913D01*
X122035049Y-98366749D01*
X122011256Y-98376180D01*
X121977112Y-98394431D01*
X121920106Y-98612317D01*
X122590000Y-99282211D01*
X123259894Y-98612317D01*
X123202888Y-98394431D01*
X123142554Y-98368350D01*
X123195590Y-98332913D01*
X123327913Y-98200590D01*
X123431879Y-98044994D01*
X123503492Y-97872105D01*
X123540000Y-97688567D01*
X123540000Y-97501433D01*
X123545000Y-97501433D01*
X123545000Y-97688567D01*
X123581508Y-97872105D01*
X123653121Y-98044994D01*
X123757087Y-98200590D01*
X123889410Y-98332913D01*
X124045006Y-98436879D01*
X124217895Y-98508492D01*
X124401433Y-98545000D01*
X124588567Y-98545000D01*
X124772105Y-98508492D01*
X124944994Y-98436879D01*
X125100590Y-98332913D01*
X125232913Y-98200590D01*
X125336879Y-98044994D01*
X125408492Y-97872105D01*
X125445000Y-97688567D01*
X125445000Y-97501433D01*
X125408492Y-97317895D01*
X125336879Y-97145006D01*
X125232913Y-96989410D01*
X125100590Y-96857087D01*
X124944994Y-96753121D01*
X124772105Y-96681508D01*
X124588567Y-96645000D01*
X124401433Y-96645000D01*
X124217895Y-96681508D01*
X124045006Y-96753121D01*
X123889410Y-96857087D01*
X123757087Y-96989410D01*
X123653121Y-97145006D01*
X123581508Y-97317895D01*
X123545000Y-97501433D01*
X123540000Y-97501433D01*
X123503492Y-97317895D01*
X123431879Y-97145006D01*
X123327913Y-96989410D01*
X123195590Y-96857087D01*
X123039994Y-96753121D01*
X122867105Y-96681508D01*
X122683567Y-96645000D01*
X122496433Y-96645000D01*
X122312895Y-96681508D01*
X122140006Y-96753121D01*
X121984410Y-96857087D01*
X121852087Y-96989410D01*
X121748121Y-97145006D01*
X121676508Y-97317895D01*
X121640000Y-97501433D01*
X121635000Y-97501433D01*
X121598492Y-97317895D01*
X121526879Y-97145006D01*
X121422913Y-96989410D01*
X121290590Y-96857087D01*
X121134994Y-96753121D01*
X120962105Y-96681508D01*
X120778567Y-96645000D01*
X120591433Y-96645000D01*
X120407895Y-96681508D01*
X120235006Y-96753121D01*
X120079410Y-96857087D01*
X119947087Y-96989410D01*
X119843121Y-97145006D01*
X119771508Y-97317895D01*
X119735000Y-97501433D01*
X118146936Y-97501433D01*
X118115590Y-97470087D01*
X117959994Y-97366121D01*
X117787105Y-97294508D01*
X117603567Y-97258000D01*
X117416433Y-97258000D01*
X117232895Y-97294508D01*
X117097346Y-97350654D01*
X117153492Y-97215105D01*
X117190000Y-97031567D01*
X117190000Y-96844433D01*
X117153492Y-96660895D01*
X117081879Y-96488006D01*
X116977913Y-96332410D01*
X116845590Y-96200087D01*
X116689994Y-96096121D01*
X116517105Y-96024508D01*
X116333567Y-95988000D01*
X116146433Y-95988000D01*
X115962895Y-96024508D01*
X115790006Y-96096121D01*
X115634410Y-96200087D01*
X115502087Y-96332410D01*
X115398121Y-96488006D01*
X115326508Y-96660895D01*
X115290000Y-96844433D01*
X115290000Y-97031567D01*
X115326508Y-97215105D01*
X115382654Y-97350654D01*
X115247105Y-97294508D01*
X115063567Y-97258000D01*
X114876433Y-97258000D01*
X114692895Y-97294508D01*
X114520006Y-97366121D01*
X114364410Y-97470087D01*
X114232087Y-97602410D01*
X114128121Y-97758006D01*
X114056508Y-97930895D01*
X114020000Y-98114433D01*
X110200650Y-98114433D01*
X110104202Y-97970089D01*
X109769911Y-97635798D01*
X109376826Y-97373147D01*
X108940054Y-97192230D01*
X108476379Y-97100000D01*
X108003621Y-97100000D01*
X107539946Y-97192230D01*
X107103174Y-97373147D01*
X106710089Y-97635798D01*
X106375798Y-97970089D01*
X106113147Y-98363174D01*
X105932230Y-98799946D01*
X105840000Y-99263621D01*
X103313195Y-99263621D01*
X103294101Y-99235045D01*
X103126955Y-99067899D01*
X102930413Y-98936574D01*
X102712027Y-98846116D01*
X102480190Y-98800000D01*
X102243810Y-98800000D01*
X102011973Y-98846116D01*
X101793587Y-98936574D01*
X101597045Y-99067899D01*
X101429899Y-99235045D01*
X101331544Y-99382244D01*
X101332942Y-99100000D01*
X101321203Y-98980811D01*
X101286437Y-98866203D01*
X101229980Y-98760579D01*
X101154001Y-98667999D01*
X101061421Y-98592020D01*
X100955797Y-98535563D01*
X100841189Y-98500797D01*
X100722000Y-98489058D01*
X100128000Y-98492000D01*
X99976000Y-98644000D01*
X99668000Y-98644000D01*
X99516000Y-98492000D01*
X98922000Y-98489058D01*
X98802811Y-98500797D01*
X98688203Y-98535563D01*
X98582579Y-98592020D01*
X98489999Y-98667999D01*
X98414020Y-98760579D01*
X98357563Y-98866203D01*
X98322797Y-98980811D01*
X98311058Y-99100000D01*
X90325000Y-99100000D01*
X90325000Y-95240905D01*
X116800000Y-95240905D01*
X116800000Y-95359095D01*
X116823058Y-95475014D01*
X116868287Y-95584207D01*
X116933950Y-95682478D01*
X117017522Y-95766050D01*
X117115793Y-95831713D01*
X117224986Y-95876942D01*
X117340905Y-95900000D01*
X117459095Y-95900000D01*
X117575014Y-95876942D01*
X117684207Y-95831713D01*
X117782478Y-95766050D01*
X117823528Y-95725000D01*
X118179133Y-95725000D01*
X118200000Y-95727055D01*
X118220867Y-95725000D01*
X118220874Y-95725000D01*
X118283314Y-95718850D01*
X118363427Y-95694548D01*
X118437260Y-95655084D01*
X118501974Y-95601974D01*
X118515283Y-95585757D01*
X120976041Y-93125000D01*
X124373960Y-93125000D01*
X125250000Y-94001040D01*
X125250000Y-94059095D01*
X125273058Y-94175014D01*
X125318287Y-94284207D01*
X125383950Y-94382478D01*
X125467522Y-94466050D01*
X125565793Y-94531713D01*
X125674986Y-94576942D01*
X125790905Y-94600000D01*
X125909095Y-94600000D01*
X126025014Y-94576942D01*
X126134207Y-94531713D01*
X126232478Y-94466050D01*
X126316050Y-94382478D01*
X126381713Y-94284207D01*
X126426942Y-94175014D01*
X126450000Y-94059095D01*
X126450000Y-93940905D01*
X126426942Y-93824986D01*
X126381713Y-93715793D01*
X126316050Y-93617522D01*
X126232478Y-93533950D01*
X126134207Y-93468287D01*
X126025014Y-93423058D01*
X125909095Y-93400000D01*
X125851040Y-93400000D01*
X124865284Y-92414244D01*
X124851974Y-92398026D01*
X124787260Y-92344916D01*
X124713427Y-92305452D01*
X124633314Y-92281150D01*
X124570874Y-92275000D01*
X124570867Y-92275000D01*
X124550000Y-92272945D01*
X124529133Y-92275000D01*
X120820866Y-92275000D01*
X120799999Y-92272945D01*
X120779132Y-92275000D01*
X120779126Y-92275000D01*
X120725098Y-92280321D01*
X120716685Y-92281150D01*
X120692383Y-92288522D01*
X120636573Y-92305452D01*
X120562740Y-92344916D01*
X120498026Y-92398026D01*
X120484721Y-92414238D01*
X118023960Y-94875000D01*
X117823528Y-94875000D01*
X117782478Y-94833950D01*
X117684207Y-94768287D01*
X117575014Y-94723058D01*
X117459095Y-94700000D01*
X117340905Y-94700000D01*
X117224986Y-94723058D01*
X117115793Y-94768287D01*
X117017522Y-94833950D01*
X116933950Y-94917522D01*
X116868287Y-95015793D01*
X116823058Y-95124986D01*
X116800000Y-95240905D01*
X90325000Y-95240905D01*
X90325000Y-90325000D01*
X145700000Y-90325000D01*
X145700000Y-104250000D01*
G37*
G04 #@! TD.AperFunction*
D28*
X158148000Y-104373000D02*
X146802606Y-104373000D01*
X146627000Y-104197394D01*
X146627000Y-103264531D01*
X147915074Y-103264531D01*
X148025921Y-103541714D01*
X148336840Y-103695089D01*
X148671705Y-103784860D01*
X149017650Y-103807576D01*
X149361380Y-103762366D01*
X149689685Y-103650966D01*
X149894079Y-103541714D01*
X150004926Y-103264531D01*
X152995074Y-103264531D01*
X153105921Y-103541714D01*
X153416840Y-103695089D01*
X153751705Y-103784860D01*
X154097650Y-103807576D01*
X154441380Y-103762366D01*
X154769685Y-103650966D01*
X154974079Y-103541714D01*
X155084926Y-103264531D01*
X154040000Y-102219605D01*
X152995074Y-103264531D01*
X150004926Y-103264531D01*
X148960000Y-102219605D01*
X147915074Y-103264531D01*
X146627000Y-103264531D01*
X146627000Y-102097650D01*
X147192424Y-102097650D01*
X147237634Y-102441380D01*
X147349034Y-102769685D01*
X147458286Y-102974079D01*
X147735469Y-103084926D01*
X148780395Y-102040000D01*
X147735469Y-100995074D01*
X147458286Y-101105921D01*
X147304911Y-101416840D01*
X147215140Y-101751705D01*
X147192424Y-102097650D01*
X146627000Y-102097650D01*
X146627000Y-98184531D01*
X147915074Y-98184531D01*
X148025921Y-98461714D01*
X148336840Y-98615089D01*
X148671705Y-98704860D01*
X149017650Y-98727576D01*
X149361380Y-98682366D01*
X149689685Y-98570966D01*
X149894079Y-98461714D01*
X150004925Y-98184533D01*
X150100635Y-98280243D01*
X150061458Y-98319419D01*
X149858779Y-98622749D01*
X149719171Y-98959792D01*
X149648000Y-99317594D01*
X149648000Y-99682406D01*
X149719171Y-100040208D01*
X149858779Y-100377251D01*
X150061458Y-100680581D01*
X150100635Y-100719758D01*
X150004925Y-100815467D01*
X149894079Y-100538286D01*
X149583160Y-100384911D01*
X149248295Y-100295140D01*
X148902350Y-100272424D01*
X148558620Y-100317634D01*
X148230315Y-100429034D01*
X148025921Y-100538286D01*
X147915074Y-100815469D01*
X148960000Y-101860395D01*
X148974143Y-101846253D01*
X149153748Y-102025858D01*
X149139605Y-102040000D01*
X150184531Y-103084926D01*
X150461714Y-102974079D01*
X150615089Y-102663160D01*
X150704860Y-102328295D01*
X150727576Y-101982350D01*
X150682366Y-101638620D01*
X150570966Y-101310315D01*
X150461714Y-101105921D01*
X150184533Y-100995075D01*
X150280243Y-100899366D01*
X150319419Y-100938542D01*
X150622749Y-101141221D01*
X150959792Y-101280829D01*
X151317594Y-101352000D01*
X151682406Y-101352000D01*
X152040208Y-101280829D01*
X152377251Y-101141221D01*
X152680581Y-100938542D01*
X152719758Y-100899366D01*
X152815467Y-100995075D01*
X152538286Y-101105921D01*
X152384911Y-101416840D01*
X152295140Y-101751705D01*
X152272424Y-102097650D01*
X152317634Y-102441380D01*
X152429034Y-102769685D01*
X152538286Y-102974079D01*
X152815469Y-103084926D01*
X153860395Y-102040000D01*
X154219605Y-102040000D01*
X155264531Y-103084926D01*
X155541714Y-102974079D01*
X155695089Y-102663160D01*
X155784860Y-102328295D01*
X155807576Y-101982350D01*
X155762366Y-101638620D01*
X155650966Y-101310315D01*
X155541714Y-101105921D01*
X155264531Y-100995074D01*
X154219605Y-102040000D01*
X153860395Y-102040000D01*
X153846253Y-102025858D01*
X154025858Y-101846253D01*
X154040000Y-101860395D01*
X155084926Y-100815469D01*
X154974079Y-100538286D01*
X154663160Y-100384911D01*
X154328295Y-100295140D01*
X153982350Y-100272424D01*
X153638620Y-100317634D01*
X153310315Y-100429034D01*
X153105921Y-100538286D01*
X152995075Y-100815467D01*
X152899366Y-100719758D01*
X152938542Y-100680581D01*
X153141221Y-100377251D01*
X153280829Y-100040208D01*
X153352000Y-99682406D01*
X153352000Y-99317594D01*
X153280829Y-98959792D01*
X153141221Y-98622749D01*
X152938542Y-98319419D01*
X152899366Y-98280243D01*
X152995075Y-98184533D01*
X153105921Y-98461714D01*
X153416840Y-98615089D01*
X153751705Y-98704860D01*
X154097650Y-98727576D01*
X154441380Y-98682366D01*
X154769685Y-98570966D01*
X154974079Y-98461714D01*
X155084926Y-98184531D01*
X154040000Y-97139605D01*
X154025858Y-97153748D01*
X153846253Y-96974143D01*
X153860395Y-96960000D01*
X154219605Y-96960000D01*
X155264531Y-98004926D01*
X155541714Y-97894079D01*
X155695089Y-97583160D01*
X155784860Y-97248295D01*
X155807576Y-96902350D01*
X155762366Y-96558620D01*
X155650966Y-96230315D01*
X155541714Y-96025921D01*
X155264531Y-95915074D01*
X154219605Y-96960000D01*
X153860395Y-96960000D01*
X152815469Y-95915074D01*
X152538286Y-96025921D01*
X152384911Y-96336840D01*
X152295140Y-96671705D01*
X152272424Y-97017650D01*
X152317634Y-97361380D01*
X152429034Y-97689685D01*
X152538286Y-97894079D01*
X152815467Y-98004925D01*
X152719758Y-98100635D01*
X152680581Y-98061458D01*
X152377251Y-97858779D01*
X152040208Y-97719171D01*
X151682406Y-97648000D01*
X151317594Y-97648000D01*
X150959792Y-97719171D01*
X150622749Y-97858779D01*
X150319419Y-98061458D01*
X150280243Y-98100635D01*
X150184533Y-98004925D01*
X150461714Y-97894079D01*
X150615089Y-97583160D01*
X150704860Y-97248295D01*
X150727576Y-96902350D01*
X150682366Y-96558620D01*
X150570966Y-96230315D01*
X150461714Y-96025921D01*
X150184531Y-95915074D01*
X149139605Y-96960000D01*
X149153748Y-96974143D01*
X148974143Y-97153748D01*
X148960000Y-97139605D01*
X147915074Y-98184531D01*
X146627000Y-98184531D01*
X146627000Y-97017650D01*
X147192424Y-97017650D01*
X147237634Y-97361380D01*
X147349034Y-97689685D01*
X147458286Y-97894079D01*
X147735469Y-98004926D01*
X148780395Y-96960000D01*
X147735469Y-95915074D01*
X147458286Y-96025921D01*
X147304911Y-96336840D01*
X147215140Y-96671705D01*
X147192424Y-97017650D01*
X146627000Y-97017650D01*
X146627000Y-95735469D01*
X147915074Y-95735469D01*
X148960000Y-96780395D01*
X150004926Y-95735469D01*
X152995074Y-95735469D01*
X154040000Y-96780395D01*
X155084926Y-95735469D01*
X154974079Y-95458286D01*
X154663160Y-95304911D01*
X154328295Y-95215140D01*
X153982350Y-95192424D01*
X153638620Y-95237634D01*
X153310315Y-95349034D01*
X153105921Y-95458286D01*
X152995074Y-95735469D01*
X150004926Y-95735469D01*
X149894079Y-95458286D01*
X149583160Y-95304911D01*
X149248295Y-95215140D01*
X148902350Y-95192424D01*
X148558620Y-95237634D01*
X148230315Y-95349034D01*
X148025921Y-95458286D01*
X147915074Y-95735469D01*
X146627000Y-95735469D01*
X146627000Y-92895465D01*
X147873320Y-92895465D01*
X147873320Y-93304535D01*
X147953126Y-93705745D01*
X148109670Y-94083677D01*
X148336937Y-94423806D01*
X148626194Y-94713063D01*
X148966323Y-94940330D01*
X149344255Y-95096874D01*
X149745465Y-95176680D01*
X150154535Y-95176680D01*
X150555745Y-95096874D01*
X150933677Y-94940330D01*
X151273806Y-94713063D01*
X151563063Y-94423806D01*
X151570031Y-94413377D01*
X152466229Y-94413377D01*
X152592104Y-94703315D01*
X152924262Y-94869139D01*
X153282387Y-94966975D01*
X153652719Y-94993065D01*
X154021025Y-94946405D01*
X154373151Y-94828789D01*
X154607896Y-94703315D01*
X154733771Y-94413377D01*
X153600000Y-93279605D01*
X152466229Y-94413377D01*
X151570031Y-94413377D01*
X151790330Y-94083677D01*
X151874772Y-93879814D01*
X151996685Y-94107896D01*
X152286623Y-94233771D01*
X153420395Y-93100000D01*
X153779605Y-93100000D01*
X154913377Y-94233771D01*
X155203315Y-94107896D01*
X155369139Y-93775738D01*
X155466975Y-93417613D01*
X155493065Y-93047281D01*
X155446405Y-92678975D01*
X155328789Y-92326849D01*
X155203315Y-92092104D01*
X154913377Y-91966229D01*
X153779605Y-93100000D01*
X153420395Y-93100000D01*
X152286623Y-91966229D01*
X151996685Y-92092104D01*
X151878421Y-92328995D01*
X151790330Y-92116323D01*
X151570032Y-91786623D01*
X152466229Y-91786623D01*
X153600000Y-92920395D01*
X154733771Y-91786623D01*
X154607896Y-91496685D01*
X154275738Y-91330861D01*
X153917613Y-91233025D01*
X153547281Y-91206935D01*
X153178975Y-91253595D01*
X152826849Y-91371211D01*
X152592104Y-91496685D01*
X152466229Y-91786623D01*
X151570032Y-91786623D01*
X151563063Y-91776194D01*
X151273806Y-91486937D01*
X150933677Y-91259670D01*
X150555745Y-91103126D01*
X150154535Y-91023320D01*
X149745465Y-91023320D01*
X149344255Y-91103126D01*
X148966323Y-91259670D01*
X148626194Y-91486937D01*
X148336937Y-91776194D01*
X148109670Y-92116323D01*
X147953126Y-92494255D01*
X147873320Y-92895465D01*
X146627000Y-92895465D01*
X146627000Y-90852000D01*
X158148000Y-90852000D01*
X158148000Y-104373000D01*
G04 #@! TA.AperFunction,Conductor*
D27*
G36*
X158148000Y-104373000D02*
G01*
X146802606Y-104373000D01*
X146627000Y-104197394D01*
X146627000Y-103264531D01*
X147915074Y-103264531D01*
X148025921Y-103541714D01*
X148336840Y-103695089D01*
X148671705Y-103784860D01*
X149017650Y-103807576D01*
X149361380Y-103762366D01*
X149689685Y-103650966D01*
X149894079Y-103541714D01*
X150004926Y-103264531D01*
X152995074Y-103264531D01*
X153105921Y-103541714D01*
X153416840Y-103695089D01*
X153751705Y-103784860D01*
X154097650Y-103807576D01*
X154441380Y-103762366D01*
X154769685Y-103650966D01*
X154974079Y-103541714D01*
X155084926Y-103264531D01*
X154040000Y-102219605D01*
X152995074Y-103264531D01*
X150004926Y-103264531D01*
X148960000Y-102219605D01*
X147915074Y-103264531D01*
X146627000Y-103264531D01*
X146627000Y-102097650D01*
X147192424Y-102097650D01*
X147237634Y-102441380D01*
X147349034Y-102769685D01*
X147458286Y-102974079D01*
X147735469Y-103084926D01*
X148780395Y-102040000D01*
X147735469Y-100995074D01*
X147458286Y-101105921D01*
X147304911Y-101416840D01*
X147215140Y-101751705D01*
X147192424Y-102097650D01*
X146627000Y-102097650D01*
X146627000Y-98184531D01*
X147915074Y-98184531D01*
X148025921Y-98461714D01*
X148336840Y-98615089D01*
X148671705Y-98704860D01*
X149017650Y-98727576D01*
X149361380Y-98682366D01*
X149689685Y-98570966D01*
X149894079Y-98461714D01*
X150004925Y-98184533D01*
X150100635Y-98280243D01*
X150061458Y-98319419D01*
X149858779Y-98622749D01*
X149719171Y-98959792D01*
X149648000Y-99317594D01*
X149648000Y-99682406D01*
X149719171Y-100040208D01*
X149858779Y-100377251D01*
X150061458Y-100680581D01*
X150100635Y-100719758D01*
X150004925Y-100815467D01*
X149894079Y-100538286D01*
X149583160Y-100384911D01*
X149248295Y-100295140D01*
X148902350Y-100272424D01*
X148558620Y-100317634D01*
X148230315Y-100429034D01*
X148025921Y-100538286D01*
X147915074Y-100815469D01*
X148960000Y-101860395D01*
X148974143Y-101846253D01*
X149153748Y-102025858D01*
X149139605Y-102040000D01*
X150184531Y-103084926D01*
X150461714Y-102974079D01*
X150615089Y-102663160D01*
X150704860Y-102328295D01*
X150727576Y-101982350D01*
X150682366Y-101638620D01*
X150570966Y-101310315D01*
X150461714Y-101105921D01*
X150184533Y-100995075D01*
X150280243Y-100899366D01*
X150319419Y-100938542D01*
X150622749Y-101141221D01*
X150959792Y-101280829D01*
X151317594Y-101352000D01*
X151682406Y-101352000D01*
X152040208Y-101280829D01*
X152377251Y-101141221D01*
X152680581Y-100938542D01*
X152719758Y-100899366D01*
X152815467Y-100995075D01*
X152538286Y-101105921D01*
X152384911Y-101416840D01*
X152295140Y-101751705D01*
X152272424Y-102097650D01*
X152317634Y-102441380D01*
X152429034Y-102769685D01*
X152538286Y-102974079D01*
X152815469Y-103084926D01*
X153860395Y-102040000D01*
X154219605Y-102040000D01*
X155264531Y-103084926D01*
X155541714Y-102974079D01*
X155695089Y-102663160D01*
X155784860Y-102328295D01*
X155807576Y-101982350D01*
X155762366Y-101638620D01*
X155650966Y-101310315D01*
X155541714Y-101105921D01*
X155264531Y-100995074D01*
X154219605Y-102040000D01*
X153860395Y-102040000D01*
X153846253Y-102025858D01*
X154025858Y-101846253D01*
X154040000Y-101860395D01*
X155084926Y-100815469D01*
X154974079Y-100538286D01*
X154663160Y-100384911D01*
X154328295Y-100295140D01*
X153982350Y-100272424D01*
X153638620Y-100317634D01*
X153310315Y-100429034D01*
X153105921Y-100538286D01*
X152995075Y-100815467D01*
X152899366Y-100719758D01*
X152938542Y-100680581D01*
X153141221Y-100377251D01*
X153280829Y-100040208D01*
X153352000Y-99682406D01*
X153352000Y-99317594D01*
X153280829Y-98959792D01*
X153141221Y-98622749D01*
X152938542Y-98319419D01*
X152899366Y-98280243D01*
X152995075Y-98184533D01*
X153105921Y-98461714D01*
X153416840Y-98615089D01*
X153751705Y-98704860D01*
X154097650Y-98727576D01*
X154441380Y-98682366D01*
X154769685Y-98570966D01*
X154974079Y-98461714D01*
X155084926Y-98184531D01*
X154040000Y-97139605D01*
X154025858Y-97153748D01*
X153846253Y-96974143D01*
X153860395Y-96960000D01*
X154219605Y-96960000D01*
X155264531Y-98004926D01*
X155541714Y-97894079D01*
X155695089Y-97583160D01*
X155784860Y-97248295D01*
X155807576Y-96902350D01*
X155762366Y-96558620D01*
X155650966Y-96230315D01*
X155541714Y-96025921D01*
X155264531Y-95915074D01*
X154219605Y-96960000D01*
X153860395Y-96960000D01*
X152815469Y-95915074D01*
X152538286Y-96025921D01*
X152384911Y-96336840D01*
X152295140Y-96671705D01*
X152272424Y-97017650D01*
X152317634Y-97361380D01*
X152429034Y-97689685D01*
X152538286Y-97894079D01*
X152815467Y-98004925D01*
X152719758Y-98100635D01*
X152680581Y-98061458D01*
X152377251Y-97858779D01*
X152040208Y-97719171D01*
X151682406Y-97648000D01*
X151317594Y-97648000D01*
X150959792Y-97719171D01*
X150622749Y-97858779D01*
X150319419Y-98061458D01*
X150280243Y-98100635D01*
X150184533Y-98004925D01*
X150461714Y-97894079D01*
X150615089Y-97583160D01*
X150704860Y-97248295D01*
X150727576Y-96902350D01*
X150682366Y-96558620D01*
X150570966Y-96230315D01*
X150461714Y-96025921D01*
X150184531Y-95915074D01*
X149139605Y-96960000D01*
X149153748Y-96974143D01*
X148974143Y-97153748D01*
X148960000Y-97139605D01*
X147915074Y-98184531D01*
X146627000Y-98184531D01*
X146627000Y-97017650D01*
X147192424Y-97017650D01*
X147237634Y-97361380D01*
X147349034Y-97689685D01*
X147458286Y-97894079D01*
X147735469Y-98004926D01*
X148780395Y-96960000D01*
X147735469Y-95915074D01*
X147458286Y-96025921D01*
X147304911Y-96336840D01*
X147215140Y-96671705D01*
X147192424Y-97017650D01*
X146627000Y-97017650D01*
X146627000Y-95735469D01*
X147915074Y-95735469D01*
X148960000Y-96780395D01*
X150004926Y-95735469D01*
X152995074Y-95735469D01*
X154040000Y-96780395D01*
X155084926Y-95735469D01*
X154974079Y-95458286D01*
X154663160Y-95304911D01*
X154328295Y-95215140D01*
X153982350Y-95192424D01*
X153638620Y-95237634D01*
X153310315Y-95349034D01*
X153105921Y-95458286D01*
X152995074Y-95735469D01*
X150004926Y-95735469D01*
X149894079Y-95458286D01*
X149583160Y-95304911D01*
X149248295Y-95215140D01*
X148902350Y-95192424D01*
X148558620Y-95237634D01*
X148230315Y-95349034D01*
X148025921Y-95458286D01*
X147915074Y-95735469D01*
X146627000Y-95735469D01*
X146627000Y-92895465D01*
X147873320Y-92895465D01*
X147873320Y-93304535D01*
X147953126Y-93705745D01*
X148109670Y-94083677D01*
X148336937Y-94423806D01*
X148626194Y-94713063D01*
X148966323Y-94940330D01*
X149344255Y-95096874D01*
X149745465Y-95176680D01*
X150154535Y-95176680D01*
X150555745Y-95096874D01*
X150933677Y-94940330D01*
X151273806Y-94713063D01*
X151563063Y-94423806D01*
X151570031Y-94413377D01*
X152466229Y-94413377D01*
X152592104Y-94703315D01*
X152924262Y-94869139D01*
X153282387Y-94966975D01*
X153652719Y-94993065D01*
X154021025Y-94946405D01*
X154373151Y-94828789D01*
X154607896Y-94703315D01*
X154733771Y-94413377D01*
X153600000Y-93279605D01*
X152466229Y-94413377D01*
X151570031Y-94413377D01*
X151790330Y-94083677D01*
X151874772Y-93879814D01*
X151996685Y-94107896D01*
X152286623Y-94233771D01*
X153420395Y-93100000D01*
X153779605Y-93100000D01*
X154913377Y-94233771D01*
X155203315Y-94107896D01*
X155369139Y-93775738D01*
X155466975Y-93417613D01*
X155493065Y-93047281D01*
X155446405Y-92678975D01*
X155328789Y-92326849D01*
X155203315Y-92092104D01*
X154913377Y-91966229D01*
X153779605Y-93100000D01*
X153420395Y-93100000D01*
X152286623Y-91966229D01*
X151996685Y-92092104D01*
X151878421Y-92328995D01*
X151790330Y-92116323D01*
X151570032Y-91786623D01*
X152466229Y-91786623D01*
X153600000Y-92920395D01*
X154733771Y-91786623D01*
X154607896Y-91496685D01*
X154275738Y-91330861D01*
X153917613Y-91233025D01*
X153547281Y-91206935D01*
X153178975Y-91253595D01*
X152826849Y-91371211D01*
X152592104Y-91496685D01*
X152466229Y-91786623D01*
X151570032Y-91786623D01*
X151563063Y-91776194D01*
X151273806Y-91486937D01*
X150933677Y-91259670D01*
X150555745Y-91103126D01*
X150154535Y-91023320D01*
X149745465Y-91023320D01*
X149344255Y-91103126D01*
X148966323Y-91259670D01*
X148626194Y-91486937D01*
X148336937Y-91776194D01*
X148109670Y-92116323D01*
X147953126Y-92494255D01*
X147873320Y-92895465D01*
X146627000Y-92895465D01*
X146627000Y-90852000D01*
X158148000Y-90852000D01*
X158148000Y-104373000D01*
G37*
G04 #@! TD.AperFunction*
D26*
X127567087Y-98200590D02*
X127699410Y-98332913D01*
X127855006Y-98436879D01*
X128027895Y-98508492D01*
X128211433Y-98545000D01*
X128398567Y-98545000D01*
X128582105Y-98508492D01*
X128754994Y-98436879D01*
X128910590Y-98332913D01*
X129042913Y-98200590D01*
X129110125Y-98100000D01*
X129404875Y-98100000D01*
X129472087Y-98200590D01*
X129604410Y-98332913D01*
X129760006Y-98436879D01*
X129932895Y-98508492D01*
X130116433Y-98545000D01*
X130303567Y-98545000D01*
X130487105Y-98508492D01*
X130659994Y-98436879D01*
X130815590Y-98332913D01*
X130947913Y-98200590D01*
X131015125Y-98100000D01*
X131309875Y-98100000D01*
X131377087Y-98200590D01*
X131509410Y-98332913D01*
X131560049Y-98366749D01*
X131536256Y-98376180D01*
X131502112Y-98394431D01*
X131445106Y-98612317D01*
X132115000Y-99282211D01*
X132784894Y-98612317D01*
X132727888Y-98394431D01*
X132667554Y-98368350D01*
X132720590Y-98332913D01*
X132852913Y-98200590D01*
X132920125Y-98100000D01*
X133214875Y-98100000D01*
X133282087Y-98200590D01*
X133414410Y-98332913D01*
X133570006Y-98436879D01*
X133742895Y-98508492D01*
X133926433Y-98545000D01*
X134113567Y-98545000D01*
X134297105Y-98508492D01*
X134469994Y-98436879D01*
X134625590Y-98332913D01*
X134757913Y-98200590D01*
X134825125Y-98100000D01*
X137708578Y-98100000D01*
X138150000Y-98541422D01*
X138150000Y-102458578D01*
X137708578Y-102900000D01*
X125541422Y-102900000D01*
X125100000Y-102458578D01*
X125100000Y-102143307D01*
X125100590Y-102142913D01*
X125232913Y-102010590D01*
X125336879Y-101854994D01*
X125408492Y-101682105D01*
X125445000Y-101498567D01*
X125445000Y-101311433D01*
X125450000Y-101311433D01*
X125450000Y-101498567D01*
X125486508Y-101682105D01*
X125558121Y-101854994D01*
X125662087Y-102010590D01*
X125794410Y-102142913D01*
X125950006Y-102246879D01*
X126122895Y-102318492D01*
X126306433Y-102355000D01*
X126493567Y-102355000D01*
X126677105Y-102318492D01*
X126849994Y-102246879D01*
X127005590Y-102142913D01*
X127137913Y-102010590D01*
X127241879Y-101854994D01*
X127313492Y-101682105D01*
X127350000Y-101498567D01*
X127350000Y-101311433D01*
X127355000Y-101311433D01*
X127355000Y-101498567D01*
X127391508Y-101682105D01*
X127463121Y-101854994D01*
X127567087Y-102010590D01*
X127699410Y-102142913D01*
X127855006Y-102246879D01*
X128027895Y-102318492D01*
X128211433Y-102355000D01*
X128398567Y-102355000D01*
X128582105Y-102318492D01*
X128754994Y-102246879D01*
X128910590Y-102142913D01*
X129042913Y-102010590D01*
X129146879Y-101854994D01*
X129218492Y-101682105D01*
X129255000Y-101498567D01*
X129255000Y-101311433D01*
X129260000Y-101311433D01*
X129260000Y-101498567D01*
X129296508Y-101682105D01*
X129368121Y-101854994D01*
X129472087Y-102010590D01*
X129604410Y-102142913D01*
X129760006Y-102246879D01*
X129932895Y-102318492D01*
X130116433Y-102355000D01*
X130303567Y-102355000D01*
X130487105Y-102318492D01*
X130659994Y-102246879D01*
X130815590Y-102142913D01*
X130947913Y-102010590D01*
X131051879Y-101854994D01*
X131123492Y-101682105D01*
X131160000Y-101498567D01*
X131160000Y-101311433D01*
X131165000Y-101311433D01*
X131165000Y-101498567D01*
X131201508Y-101682105D01*
X131273121Y-101854994D01*
X131377087Y-102010590D01*
X131509410Y-102142913D01*
X131665006Y-102246879D01*
X131837895Y-102318492D01*
X132021433Y-102355000D01*
X132208567Y-102355000D01*
X132392105Y-102318492D01*
X132564994Y-102246879D01*
X132720590Y-102142913D01*
X132852913Y-102010590D01*
X132956879Y-101854994D01*
X133028492Y-101682105D01*
X133065000Y-101498567D01*
X133065000Y-101311433D01*
X133070000Y-101311433D01*
X133070000Y-101498567D01*
X133106508Y-101682105D01*
X133178121Y-101854994D01*
X133282087Y-102010590D01*
X133414410Y-102142913D01*
X133570006Y-102246879D01*
X133742895Y-102318492D01*
X133926433Y-102355000D01*
X134113567Y-102355000D01*
X134297105Y-102318492D01*
X134469994Y-102246879D01*
X134625590Y-102142913D01*
X134757913Y-102010590D01*
X134861879Y-101854994D01*
X134933492Y-101682105D01*
X134970000Y-101498567D01*
X134970000Y-101311433D01*
X134933492Y-101127895D01*
X134861879Y-100955006D01*
X134757913Y-100799410D01*
X134625590Y-100667087D01*
X134469994Y-100563121D01*
X134297105Y-100491508D01*
X134113567Y-100455000D01*
X133926433Y-100455000D01*
X133742895Y-100491508D01*
X133570006Y-100563121D01*
X133414410Y-100667087D01*
X133282087Y-100799410D01*
X133178121Y-100955006D01*
X133106508Y-101127895D01*
X133070000Y-101311433D01*
X133065000Y-101311433D01*
X133028492Y-101127895D01*
X132956879Y-100955006D01*
X132852913Y-100799410D01*
X132720590Y-100667087D01*
X132669951Y-100633251D01*
X132693744Y-100623820D01*
X132727888Y-100605569D01*
X132784894Y-100387683D01*
X132115000Y-99717789D01*
X131445106Y-100387683D01*
X131502112Y-100605569D01*
X131562446Y-100631650D01*
X131509410Y-100667087D01*
X131377087Y-100799410D01*
X131273121Y-100955006D01*
X131201508Y-101127895D01*
X131165000Y-101311433D01*
X131160000Y-101311433D01*
X131123492Y-101127895D01*
X131051879Y-100955006D01*
X130947913Y-100799410D01*
X130815590Y-100667087D01*
X130659994Y-100563121D01*
X130487105Y-100491508D01*
X130303567Y-100455000D01*
X130116433Y-100455000D01*
X129932895Y-100491508D01*
X129760006Y-100563121D01*
X129604410Y-100667087D01*
X129472087Y-100799410D01*
X129368121Y-100955006D01*
X129296508Y-101127895D01*
X129260000Y-101311433D01*
X129255000Y-101311433D01*
X129218492Y-101127895D01*
X129146879Y-100955006D01*
X129042913Y-100799410D01*
X128910590Y-100667087D01*
X128754994Y-100563121D01*
X128582105Y-100491508D01*
X128398567Y-100455000D01*
X128211433Y-100455000D01*
X128027895Y-100491508D01*
X127855006Y-100563121D01*
X127699410Y-100667087D01*
X127567087Y-100799410D01*
X127463121Y-100955006D01*
X127391508Y-101127895D01*
X127355000Y-101311433D01*
X127350000Y-101311433D01*
X127313492Y-101127895D01*
X127241879Y-100955006D01*
X127137913Y-100799410D01*
X127005590Y-100667087D01*
X126954951Y-100633251D01*
X126978744Y-100623820D01*
X127012888Y-100605569D01*
X127069894Y-100387683D01*
X126400000Y-99717789D01*
X125730106Y-100387683D01*
X125787112Y-100605569D01*
X125847446Y-100631650D01*
X125794410Y-100667087D01*
X125662087Y-100799410D01*
X125558121Y-100955006D01*
X125486508Y-101127895D01*
X125450000Y-101311433D01*
X125445000Y-101311433D01*
X125408492Y-101127895D01*
X125336879Y-100955006D01*
X125232913Y-100799410D01*
X125100590Y-100667087D01*
X125100000Y-100666693D01*
X125100000Y-100238307D01*
X125100590Y-100237913D01*
X125232913Y-100105590D01*
X125266749Y-100054951D01*
X125276180Y-100078744D01*
X125294431Y-100112888D01*
X125512317Y-100169894D01*
X126182211Y-99500000D01*
X126617789Y-99500000D01*
X127287683Y-100169894D01*
X127505569Y-100112888D01*
X127531650Y-100052554D01*
X127567087Y-100105590D01*
X127699410Y-100237913D01*
X127855006Y-100341879D01*
X128027895Y-100413492D01*
X128211433Y-100450000D01*
X128398567Y-100450000D01*
X128582105Y-100413492D01*
X128754994Y-100341879D01*
X128910590Y-100237913D01*
X129042913Y-100105590D01*
X129146879Y-99949994D01*
X129218492Y-99777105D01*
X129255000Y-99593567D01*
X129255000Y-99406433D01*
X129260000Y-99406433D01*
X129260000Y-99593567D01*
X129296508Y-99777105D01*
X129368121Y-99949994D01*
X129472087Y-100105590D01*
X129604410Y-100237913D01*
X129760006Y-100341879D01*
X129932895Y-100413492D01*
X130116433Y-100450000D01*
X130303567Y-100450000D01*
X130487105Y-100413492D01*
X130659994Y-100341879D01*
X130815590Y-100237913D01*
X130947913Y-100105590D01*
X130981749Y-100054951D01*
X130991180Y-100078744D01*
X131009431Y-100112888D01*
X131227317Y-100169894D01*
X131897211Y-99500000D01*
X132332789Y-99500000D01*
X133002683Y-100169894D01*
X133220569Y-100112888D01*
X133246650Y-100052554D01*
X133282087Y-100105590D01*
X133414410Y-100237913D01*
X133570006Y-100341879D01*
X133742895Y-100413492D01*
X133926433Y-100450000D01*
X134113567Y-100450000D01*
X134297105Y-100413492D01*
X134469994Y-100341879D01*
X134625590Y-100237913D01*
X134757913Y-100105590D01*
X134861879Y-99949994D01*
X134933492Y-99777105D01*
X134970000Y-99593567D01*
X134970000Y-99406433D01*
X134933492Y-99222895D01*
X134861879Y-99050006D01*
X134757913Y-98894410D01*
X134625590Y-98762087D01*
X134469994Y-98658121D01*
X134297105Y-98586508D01*
X134113567Y-98550000D01*
X133926433Y-98550000D01*
X133742895Y-98586508D01*
X133570006Y-98658121D01*
X133414410Y-98762087D01*
X133282087Y-98894410D01*
X133248251Y-98945049D01*
X133238820Y-98921256D01*
X133220569Y-98887112D01*
X133002683Y-98830106D01*
X132332789Y-99500000D01*
X131897211Y-99500000D01*
X131227317Y-98830106D01*
X131009431Y-98887112D01*
X130983350Y-98947446D01*
X130947913Y-98894410D01*
X130815590Y-98762087D01*
X130659994Y-98658121D01*
X130487105Y-98586508D01*
X130303567Y-98550000D01*
X130116433Y-98550000D01*
X129932895Y-98586508D01*
X129760006Y-98658121D01*
X129604410Y-98762087D01*
X129472087Y-98894410D01*
X129368121Y-99050006D01*
X129296508Y-99222895D01*
X129260000Y-99406433D01*
X129255000Y-99406433D01*
X129218492Y-99222895D01*
X129146879Y-99050006D01*
X129042913Y-98894410D01*
X128910590Y-98762087D01*
X128754994Y-98658121D01*
X128582105Y-98586508D01*
X128398567Y-98550000D01*
X128211433Y-98550000D01*
X128027895Y-98586508D01*
X127855006Y-98658121D01*
X127699410Y-98762087D01*
X127567087Y-98894410D01*
X127533251Y-98945049D01*
X127523820Y-98921256D01*
X127505569Y-98887112D01*
X127287683Y-98830106D01*
X126617789Y-99500000D01*
X126182211Y-99500000D01*
X126168069Y-99485858D01*
X126385858Y-99268069D01*
X126400000Y-99282211D01*
X127069894Y-98612317D01*
X127012888Y-98394431D01*
X126952554Y-98368350D01*
X127005590Y-98332913D01*
X127137913Y-98200590D01*
X127205125Y-98100000D01*
X127499875Y-98100000D01*
X127567087Y-98200590D01*
G04 #@! TA.AperFunction,Conductor*
D27*
G36*
X127567087Y-98200590D02*
G01*
X127699410Y-98332913D01*
X127855006Y-98436879D01*
X128027895Y-98508492D01*
X128211433Y-98545000D01*
X128398567Y-98545000D01*
X128582105Y-98508492D01*
X128754994Y-98436879D01*
X128910590Y-98332913D01*
X129042913Y-98200590D01*
X129110125Y-98100000D01*
X129404875Y-98100000D01*
X129472087Y-98200590D01*
X129604410Y-98332913D01*
X129760006Y-98436879D01*
X129932895Y-98508492D01*
X130116433Y-98545000D01*
X130303567Y-98545000D01*
X130487105Y-98508492D01*
X130659994Y-98436879D01*
X130815590Y-98332913D01*
X130947913Y-98200590D01*
X131015125Y-98100000D01*
X131309875Y-98100000D01*
X131377087Y-98200590D01*
X131509410Y-98332913D01*
X131560049Y-98366749D01*
X131536256Y-98376180D01*
X131502112Y-98394431D01*
X131445106Y-98612317D01*
X132115000Y-99282211D01*
X132784894Y-98612317D01*
X132727888Y-98394431D01*
X132667554Y-98368350D01*
X132720590Y-98332913D01*
X132852913Y-98200590D01*
X132920125Y-98100000D01*
X133214875Y-98100000D01*
X133282087Y-98200590D01*
X133414410Y-98332913D01*
X133570006Y-98436879D01*
X133742895Y-98508492D01*
X133926433Y-98545000D01*
X134113567Y-98545000D01*
X134297105Y-98508492D01*
X134469994Y-98436879D01*
X134625590Y-98332913D01*
X134757913Y-98200590D01*
X134825125Y-98100000D01*
X137708578Y-98100000D01*
X138150000Y-98541422D01*
X138150000Y-102458578D01*
X137708578Y-102900000D01*
X125541422Y-102900000D01*
X125100000Y-102458578D01*
X125100000Y-102143307D01*
X125100590Y-102142913D01*
X125232913Y-102010590D01*
X125336879Y-101854994D01*
X125408492Y-101682105D01*
X125445000Y-101498567D01*
X125445000Y-101311433D01*
X125450000Y-101311433D01*
X125450000Y-101498567D01*
X125486508Y-101682105D01*
X125558121Y-101854994D01*
X125662087Y-102010590D01*
X125794410Y-102142913D01*
X125950006Y-102246879D01*
X126122895Y-102318492D01*
X126306433Y-102355000D01*
X126493567Y-102355000D01*
X126677105Y-102318492D01*
X126849994Y-102246879D01*
X127005590Y-102142913D01*
X127137913Y-102010590D01*
X127241879Y-101854994D01*
X127313492Y-101682105D01*
X127350000Y-101498567D01*
X127350000Y-101311433D01*
X127355000Y-101311433D01*
X127355000Y-101498567D01*
X127391508Y-101682105D01*
X127463121Y-101854994D01*
X127567087Y-102010590D01*
X127699410Y-102142913D01*
X127855006Y-102246879D01*
X128027895Y-102318492D01*
X128211433Y-102355000D01*
X128398567Y-102355000D01*
X128582105Y-102318492D01*
X128754994Y-102246879D01*
X128910590Y-102142913D01*
X129042913Y-102010590D01*
X129146879Y-101854994D01*
X129218492Y-101682105D01*
X129255000Y-101498567D01*
X129255000Y-101311433D01*
X129260000Y-101311433D01*
X129260000Y-101498567D01*
X129296508Y-101682105D01*
X129368121Y-101854994D01*
X129472087Y-102010590D01*
X129604410Y-102142913D01*
X129760006Y-102246879D01*
X129932895Y-102318492D01*
X130116433Y-102355000D01*
X130303567Y-102355000D01*
X130487105Y-102318492D01*
X130659994Y-102246879D01*
X130815590Y-102142913D01*
X130947913Y-102010590D01*
X131051879Y-101854994D01*
X131123492Y-101682105D01*
X131160000Y-101498567D01*
X131160000Y-101311433D01*
X131165000Y-101311433D01*
X131165000Y-101498567D01*
X131201508Y-101682105D01*
X131273121Y-101854994D01*
X131377087Y-102010590D01*
X131509410Y-102142913D01*
X131665006Y-102246879D01*
X131837895Y-102318492D01*
X132021433Y-102355000D01*
X132208567Y-102355000D01*
X132392105Y-102318492D01*
X132564994Y-102246879D01*
X132720590Y-102142913D01*
X132852913Y-102010590D01*
X132956879Y-101854994D01*
X133028492Y-101682105D01*
X133065000Y-101498567D01*
X133065000Y-101311433D01*
X133070000Y-101311433D01*
X133070000Y-101498567D01*
X133106508Y-101682105D01*
X133178121Y-101854994D01*
X133282087Y-102010590D01*
X133414410Y-102142913D01*
X133570006Y-102246879D01*
X133742895Y-102318492D01*
X133926433Y-102355000D01*
X134113567Y-102355000D01*
X134297105Y-102318492D01*
X134469994Y-102246879D01*
X134625590Y-102142913D01*
X134757913Y-102010590D01*
X134861879Y-101854994D01*
X134933492Y-101682105D01*
X134970000Y-101498567D01*
X134970000Y-101311433D01*
X134933492Y-101127895D01*
X134861879Y-100955006D01*
X134757913Y-100799410D01*
X134625590Y-100667087D01*
X134469994Y-100563121D01*
X134297105Y-100491508D01*
X134113567Y-100455000D01*
X133926433Y-100455000D01*
X133742895Y-100491508D01*
X133570006Y-100563121D01*
X133414410Y-100667087D01*
X133282087Y-100799410D01*
X133178121Y-100955006D01*
X133106508Y-101127895D01*
X133070000Y-101311433D01*
X133065000Y-101311433D01*
X133028492Y-101127895D01*
X132956879Y-100955006D01*
X132852913Y-100799410D01*
X132720590Y-100667087D01*
X132669951Y-100633251D01*
X132693744Y-100623820D01*
X132727888Y-100605569D01*
X132784894Y-100387683D01*
X132115000Y-99717789D01*
X131445106Y-100387683D01*
X131502112Y-100605569D01*
X131562446Y-100631650D01*
X131509410Y-100667087D01*
X131377087Y-100799410D01*
X131273121Y-100955006D01*
X131201508Y-101127895D01*
X131165000Y-101311433D01*
X131160000Y-101311433D01*
X131123492Y-101127895D01*
X131051879Y-100955006D01*
X130947913Y-100799410D01*
X130815590Y-100667087D01*
X130659994Y-100563121D01*
X130487105Y-100491508D01*
X130303567Y-100455000D01*
X130116433Y-100455000D01*
X129932895Y-100491508D01*
X129760006Y-100563121D01*
X129604410Y-100667087D01*
X129472087Y-100799410D01*
X129368121Y-100955006D01*
X129296508Y-101127895D01*
X129260000Y-101311433D01*
X129255000Y-101311433D01*
X129218492Y-101127895D01*
X129146879Y-100955006D01*
X129042913Y-100799410D01*
X128910590Y-100667087D01*
X128754994Y-100563121D01*
X128582105Y-100491508D01*
X128398567Y-100455000D01*
X128211433Y-100455000D01*
X128027895Y-100491508D01*
X127855006Y-100563121D01*
X127699410Y-100667087D01*
X127567087Y-100799410D01*
X127463121Y-100955006D01*
X127391508Y-101127895D01*
X127355000Y-101311433D01*
X127350000Y-101311433D01*
X127313492Y-101127895D01*
X127241879Y-100955006D01*
X127137913Y-100799410D01*
X127005590Y-100667087D01*
X126954951Y-100633251D01*
X126978744Y-100623820D01*
X127012888Y-100605569D01*
X127069894Y-100387683D01*
X126400000Y-99717789D01*
X125730106Y-100387683D01*
X125787112Y-100605569D01*
X125847446Y-100631650D01*
X125794410Y-100667087D01*
X125662087Y-100799410D01*
X125558121Y-100955006D01*
X125486508Y-101127895D01*
X125450000Y-101311433D01*
X125445000Y-101311433D01*
X125408492Y-101127895D01*
X125336879Y-100955006D01*
X125232913Y-100799410D01*
X125100590Y-100667087D01*
X125100000Y-100666693D01*
X125100000Y-100238307D01*
X125100590Y-100237913D01*
X125232913Y-100105590D01*
X125266749Y-100054951D01*
X125276180Y-100078744D01*
X125294431Y-100112888D01*
X125512317Y-100169894D01*
X126182211Y-99500000D01*
X126617789Y-99500000D01*
X127287683Y-100169894D01*
X127505569Y-100112888D01*
X127531650Y-100052554D01*
X127567087Y-100105590D01*
X127699410Y-100237913D01*
X127855006Y-100341879D01*
X128027895Y-100413492D01*
X128211433Y-100450000D01*
X128398567Y-100450000D01*
X128582105Y-100413492D01*
X128754994Y-100341879D01*
X128910590Y-100237913D01*
X129042913Y-100105590D01*
X129146879Y-99949994D01*
X129218492Y-99777105D01*
X129255000Y-99593567D01*
X129255000Y-99406433D01*
X129260000Y-99406433D01*
X129260000Y-99593567D01*
X129296508Y-99777105D01*
X129368121Y-99949994D01*
X129472087Y-100105590D01*
X129604410Y-100237913D01*
X129760006Y-100341879D01*
X129932895Y-100413492D01*
X130116433Y-100450000D01*
X130303567Y-100450000D01*
X130487105Y-100413492D01*
X130659994Y-100341879D01*
X130815590Y-100237913D01*
X130947913Y-100105590D01*
X130981749Y-100054951D01*
X130991180Y-100078744D01*
X131009431Y-100112888D01*
X131227317Y-100169894D01*
X131897211Y-99500000D01*
X132332789Y-99500000D01*
X133002683Y-100169894D01*
X133220569Y-100112888D01*
X133246650Y-100052554D01*
X133282087Y-100105590D01*
X133414410Y-100237913D01*
X133570006Y-100341879D01*
X133742895Y-100413492D01*
X133926433Y-100450000D01*
X134113567Y-100450000D01*
X134297105Y-100413492D01*
X134469994Y-100341879D01*
X134625590Y-100237913D01*
X134757913Y-100105590D01*
X134861879Y-99949994D01*
X134933492Y-99777105D01*
X134970000Y-99593567D01*
X134970000Y-99406433D01*
X134933492Y-99222895D01*
X134861879Y-99050006D01*
X134757913Y-98894410D01*
X134625590Y-98762087D01*
X134469994Y-98658121D01*
X134297105Y-98586508D01*
X134113567Y-98550000D01*
X133926433Y-98550000D01*
X133742895Y-98586508D01*
X133570006Y-98658121D01*
X133414410Y-98762087D01*
X133282087Y-98894410D01*
X133248251Y-98945049D01*
X133238820Y-98921256D01*
X133220569Y-98887112D01*
X133002683Y-98830106D01*
X132332789Y-99500000D01*
X131897211Y-99500000D01*
X131227317Y-98830106D01*
X131009431Y-98887112D01*
X130983350Y-98947446D01*
X130947913Y-98894410D01*
X130815590Y-98762087D01*
X130659994Y-98658121D01*
X130487105Y-98586508D01*
X130303567Y-98550000D01*
X130116433Y-98550000D01*
X129932895Y-98586508D01*
X129760006Y-98658121D01*
X129604410Y-98762087D01*
X129472087Y-98894410D01*
X129368121Y-99050006D01*
X129296508Y-99222895D01*
X129260000Y-99406433D01*
X129255000Y-99406433D01*
X129218492Y-99222895D01*
X129146879Y-99050006D01*
X129042913Y-98894410D01*
X128910590Y-98762087D01*
X128754994Y-98658121D01*
X128582105Y-98586508D01*
X128398567Y-98550000D01*
X128211433Y-98550000D01*
X128027895Y-98586508D01*
X127855006Y-98658121D01*
X127699410Y-98762087D01*
X127567087Y-98894410D01*
X127533251Y-98945049D01*
X127523820Y-98921256D01*
X127505569Y-98887112D01*
X127287683Y-98830106D01*
X126617789Y-99500000D01*
X126182211Y-99500000D01*
X126168069Y-99485858D01*
X126385858Y-99268069D01*
X126400000Y-99282211D01*
X127069894Y-98612317D01*
X127012888Y-98394431D01*
X126952554Y-98368350D01*
X127005590Y-98332913D01*
X127137913Y-98200590D01*
X127205125Y-98100000D01*
X127499875Y-98100000D01*
X127567087Y-98200590D01*
G37*
G04 #@! TD.AperFunction*
D26*
X139121617Y-105940968D02*
X139103385Y-108858148D01*
X138658762Y-109300000D01*
X131141422Y-109300000D01*
X130700000Y-108858578D01*
X130700000Y-105941422D01*
X131141422Y-105500000D01*
X138683396Y-105500000D01*
X139121617Y-105940968D01*
G04 #@! TA.AperFunction,Conductor*
D27*
G36*
X139121617Y-105940968D02*
G01*
X139103385Y-108858148D01*
X138658762Y-109300000D01*
X131141422Y-109300000D01*
X130700000Y-108858578D01*
X130700000Y-105941422D01*
X131141422Y-105500000D01*
X138683396Y-105500000D01*
X139121617Y-105940968D01*
G37*
G04 #@! TD.AperFunction*
M02*
