G04 #@! TF.GenerationSoftware,KiCad,Pcbnew,(5.1.9)-1*
G04 #@! TF.CreationDate,2021-03-04T22:15:46+01:00*
G04 #@! TF.ProjectId,DgDrive_DVI,44674472-6976-4655-9f44-56492e6b6963,1.3.1*
G04 #@! TF.SameCoordinates,Original*
G04 #@! TF.FileFunction,Paste,Bot*
G04 #@! TF.FilePolarity,Positive*
%FSLAX46Y46*%
G04 Gerber Fmt 4.6, Leading zero omitted, Abs format (unit mm)*
G04 Created by KiCad (PCBNEW (5.1.9)-1) date 2021-03-04 22:15:46*
%MOMM*%
%LPD*%
G01*
G04 APERTURE LIST*
G04 APERTURE END LIST*
G36*
G01*
X133350000Y-116425000D02*
X133350000Y-113575000D01*
G75*
G02*
X133600000Y-113325000I250000J0D01*
G01*
X134325000Y-113325000D01*
G75*
G02*
X134575000Y-113575000I0J-250000D01*
G01*
X134575000Y-116425000D01*
G75*
G02*
X134325000Y-116675000I-250000J0D01*
G01*
X133600000Y-116675000D01*
G75*
G02*
X133350000Y-116425000I0J250000D01*
G01*
G37*
G36*
G01*
X127425000Y-116425000D02*
X127425000Y-113575000D01*
G75*
G02*
X127675000Y-113325000I250000J0D01*
G01*
X128400000Y-113325000D01*
G75*
G02*
X128650000Y-113575000I0J-250000D01*
G01*
X128650000Y-116425000D01*
G75*
G02*
X128400000Y-116675000I-250000J0D01*
G01*
X127675000Y-116675000D01*
G75*
G02*
X127425000Y-116425000I0J250000D01*
G01*
G37*
G36*
G01*
X130850000Y-110425000D02*
X130850000Y-107575000D01*
G75*
G02*
X131100000Y-107325000I250000J0D01*
G01*
X131825000Y-107325000D01*
G75*
G02*
X132075000Y-107575000I0J-250000D01*
G01*
X132075000Y-110425000D01*
G75*
G02*
X131825000Y-110675000I-250000J0D01*
G01*
X131100000Y-110675000D01*
G75*
G02*
X130850000Y-110425000I0J250000D01*
G01*
G37*
G36*
G01*
X124925000Y-110425000D02*
X124925000Y-107575000D01*
G75*
G02*
X125175000Y-107325000I250000J0D01*
G01*
X125900000Y-107325000D01*
G75*
G02*
X126150000Y-107575000I0J-250000D01*
G01*
X126150000Y-110425000D01*
G75*
G02*
X125900000Y-110675000I-250000J0D01*
G01*
X125175000Y-110675000D01*
G75*
G02*
X124925000Y-110425000I0J250000D01*
G01*
G37*
G36*
G01*
X117775000Y-111775000D02*
X117225000Y-111775000D01*
G75*
G02*
X117025000Y-111575000I0J200000D01*
G01*
X117025000Y-111175000D01*
G75*
G02*
X117225000Y-110975000I200000J0D01*
G01*
X117775000Y-110975000D01*
G75*
G02*
X117975000Y-111175000I0J-200000D01*
G01*
X117975000Y-111575000D01*
G75*
G02*
X117775000Y-111775000I-200000J0D01*
G01*
G37*
G36*
G01*
X117775000Y-113425000D02*
X117225000Y-113425000D01*
G75*
G02*
X117025000Y-113225000I0J200000D01*
G01*
X117025000Y-112825000D01*
G75*
G02*
X117225000Y-112625000I200000J0D01*
G01*
X117775000Y-112625000D01*
G75*
G02*
X117975000Y-112825000I0J-200000D01*
G01*
X117975000Y-113225000D01*
G75*
G02*
X117775000Y-113425000I-200000J0D01*
G01*
G37*
M02*
