G04 #@! TF.GenerationSoftware,KiCad,Pcbnew,5.1.7*
G04 #@! TF.CreationDate,2020-10-15T01:08:01+02:00*
G04 #@! TF.ProjectId,DgDrive_DVI,44674472-6976-4655-9f44-56492e6b6963,1.2*
G04 #@! TF.SameCoordinates,Original*
G04 #@! TF.FileFunction,Soldermask,Top*
G04 #@! TF.FilePolarity,Negative*
%FSLAX46Y46*%
G04 Gerber Fmt 4.6, Leading zero omitted, Abs format (unit mm)*
G04 Created by KiCad (PCBNEW 5.1.7) date 2020-10-15 01:08:01*
%MOMM*%
%LPD*%
G01*
G04 APERTURE LIST*
%ADD10R,1.500000X1.050000*%
%ADD11O,1.500000X1.050000*%
%ADD12C,1.800000*%
%ADD13R,1.800000X1.800000*%
%ADD14C,2.250000*%
%ADD15C,2.050000*%
%ADD16R,0.900000X0.800000*%
%ADD17R,0.800000X0.900000*%
%ADD18R,0.900000X1.200000*%
%ADD19O,1.600000X1.600000*%
%ADD20R,1.600000X1.600000*%
%ADD21C,2.000000*%
%ADD22C,1.300000*%
%ADD23C,4.200000*%
%ADD24C,1.600000*%
%ADD25R,0.900000X0.500000*%
%ADD26C,2.499360*%
G04 APERTURE END LIST*
D10*
X122000000Y-109500000D03*
D11*
X122000000Y-112040000D03*
X122000000Y-110770000D03*
D12*
X102362000Y-100000000D03*
D13*
X99822000Y-100000000D03*
G36*
G01*
X131924999Y-113150000D02*
X134075001Y-113150000D01*
G75*
G02*
X134325000Y-113399999I0J-249999D01*
G01*
X134325000Y-114025001D01*
G75*
G02*
X134075001Y-114275000I-249999J0D01*
G01*
X131924999Y-114275000D01*
G75*
G02*
X131675000Y-114025001I0J249999D01*
G01*
X131675000Y-113399999D01*
G75*
G02*
X131924999Y-113150000I249999J0D01*
G01*
G37*
G36*
G01*
X131924999Y-110225000D02*
X134075001Y-110225000D01*
G75*
G02*
X134325000Y-110474999I0J-249999D01*
G01*
X134325000Y-111100001D01*
G75*
G02*
X134075001Y-111350000I-249999J0D01*
G01*
X131924999Y-111350000D01*
G75*
G02*
X131675000Y-111100001I0J249999D01*
G01*
X131675000Y-110474999D01*
G75*
G02*
X131924999Y-110225000I249999J0D01*
G01*
G37*
D14*
X148960000Y-109960000D03*
X148960000Y-115040000D03*
X154040000Y-115040000D03*
X154040000Y-109960000D03*
D15*
X151500000Y-112500000D03*
D14*
X148960000Y-96960000D03*
X148960000Y-102040000D03*
X154040000Y-102040000D03*
X154040000Y-96960000D03*
D15*
X151500000Y-99500000D03*
D16*
X118300000Y-92600000D03*
X116300000Y-93550000D03*
X116300000Y-91650000D03*
D17*
X109500000Y-93500000D03*
X108550000Y-91500000D03*
X110450000Y-91500000D03*
G36*
G01*
X133900000Y-108650001D02*
X133900000Y-107349999D01*
G75*
G02*
X134149999Y-107100000I249999J0D01*
G01*
X134800001Y-107100000D01*
G75*
G02*
X135050000Y-107349999I0J-249999D01*
G01*
X135050000Y-108650001D01*
G75*
G02*
X134800001Y-108900000I-249999J0D01*
G01*
X134149999Y-108900000D01*
G75*
G02*
X133900000Y-108650001I0J249999D01*
G01*
G37*
G36*
G01*
X130950000Y-108650001D02*
X130950000Y-107349999D01*
G75*
G02*
X131199999Y-107100000I249999J0D01*
G01*
X131850001Y-107100000D01*
G75*
G02*
X132100000Y-107349999I0J-249999D01*
G01*
X132100000Y-108650001D01*
G75*
G02*
X131850001Y-108900000I-249999J0D01*
G01*
X131199999Y-108900000D01*
G75*
G02*
X130950000Y-108650001I0J249999D01*
G01*
G37*
D18*
X98650000Y-95500000D03*
X95350000Y-95500000D03*
D19*
X137080000Y-114800000D03*
X144700000Y-109720000D03*
X137080000Y-112260000D03*
X144700000Y-112260000D03*
X137080000Y-109720000D03*
D20*
X144700000Y-114800000D03*
G36*
G01*
X147900000Y-104924999D02*
X147900000Y-107075001D01*
G75*
G02*
X147650001Y-107325000I-249999J0D01*
G01*
X147024999Y-107325000D01*
G75*
G02*
X146775000Y-107075001I0J249999D01*
G01*
X146775000Y-104924999D01*
G75*
G02*
X147024999Y-104675000I249999J0D01*
G01*
X147650001Y-104675000D01*
G75*
G02*
X147900000Y-104924999I0J-249999D01*
G01*
G37*
G36*
G01*
X150825000Y-104924999D02*
X150825000Y-107075001D01*
G75*
G02*
X150575001Y-107325000I-249999J0D01*
G01*
X149949999Y-107325000D01*
G75*
G02*
X149700000Y-107075001I0J249999D01*
G01*
X149700000Y-104924999D01*
G75*
G02*
X149949999Y-104675000I249999J0D01*
G01*
X150575001Y-104675000D01*
G75*
G02*
X150825000Y-104924999I0J-249999D01*
G01*
G37*
G36*
G01*
X125225000Y-112425000D02*
X125775000Y-112425000D01*
G75*
G02*
X125975000Y-112625000I0J-200000D01*
G01*
X125975000Y-113025000D01*
G75*
G02*
X125775000Y-113225000I-200000J0D01*
G01*
X125225000Y-113225000D01*
G75*
G02*
X125025000Y-113025000I0J200000D01*
G01*
X125025000Y-112625000D01*
G75*
G02*
X125225000Y-112425000I200000J0D01*
G01*
G37*
G36*
G01*
X125225000Y-110775000D02*
X125775000Y-110775000D01*
G75*
G02*
X125975000Y-110975000I0J-200000D01*
G01*
X125975000Y-111375000D01*
G75*
G02*
X125775000Y-111575000I-200000J0D01*
G01*
X125225000Y-111575000D01*
G75*
G02*
X125025000Y-111375000I0J200000D01*
G01*
X125025000Y-110975000D01*
G75*
G02*
X125225000Y-110775000I200000J0D01*
G01*
G37*
G36*
G01*
X113275000Y-92075000D02*
X112725000Y-92075000D01*
G75*
G02*
X112525000Y-91875000I0J200000D01*
G01*
X112525000Y-91475000D01*
G75*
G02*
X112725000Y-91275000I200000J0D01*
G01*
X113275000Y-91275000D01*
G75*
G02*
X113475000Y-91475000I0J-200000D01*
G01*
X113475000Y-91875000D01*
G75*
G02*
X113275000Y-92075000I-200000J0D01*
G01*
G37*
G36*
G01*
X113275000Y-93725000D02*
X112725000Y-93725000D01*
G75*
G02*
X112525000Y-93525000I0J200000D01*
G01*
X112525000Y-93125000D01*
G75*
G02*
X112725000Y-92925000I200000J0D01*
G01*
X113275000Y-92925000D01*
G75*
G02*
X113475000Y-93125000I0J-200000D01*
G01*
X113475000Y-93525000D01*
G75*
G02*
X113275000Y-93725000I-200000J0D01*
G01*
G37*
D21*
X110380000Y-107780000D03*
X105300000Y-107780000D03*
X100220000Y-107780000D03*
X92600000Y-107780000D03*
X110380000Y-115400000D03*
X105300000Y-115400000D03*
X92600000Y-115400000D03*
X100220000Y-115400000D03*
D22*
X116240000Y-102018000D03*
X116240000Y-96938000D03*
X114970000Y-100748000D03*
X117510000Y-100748000D03*
X117510000Y-98208000D03*
X114970000Y-98208000D03*
X120685000Y-97595000D03*
X120685000Y-101405000D03*
X122590000Y-101405000D03*
X124495000Y-101405000D03*
X126400000Y-101405000D03*
X128305000Y-101405000D03*
X130210000Y-101405000D03*
X132115000Y-101405000D03*
X134020000Y-101405000D03*
X120685000Y-99500000D03*
X122590000Y-99500000D03*
X124495000Y-99500000D03*
X126400000Y-99500000D03*
X128305000Y-99500000D03*
X130210000Y-99500000D03*
X132115000Y-99500000D03*
D23*
X140750000Y-99500000D03*
D22*
X124495000Y-97595000D03*
X122590000Y-97595000D03*
X134020000Y-99500000D03*
X126400000Y-97595000D03*
X128305000Y-97595000D03*
X134020000Y-97595000D03*
X132115000Y-97595000D03*
X130210000Y-97595000D03*
D23*
X108240000Y-99500000D03*
D24*
X95000000Y-103000000D03*
D20*
X95000000Y-101000000D03*
D25*
X102500000Y-104750000D03*
X102500000Y-103250000D03*
D26*
X150200000Y-93000000D03*
X153600000Y-93100000D03*
X119500000Y-115500000D03*
X124200000Y-115400000D03*
M02*
