G04 #@! TF.GenerationSoftware,KiCad,Pcbnew,(5.1.9)-1*
G04 #@! TF.CreationDate,2021-10-09T16:27:14+02:00*
G04 #@! TF.ProjectId,DgDrive_DVI,44674472-6976-4655-9f44-56492e6b6963,1.5*
G04 #@! TF.SameCoordinates,Original*
G04 #@! TF.FileFunction,Paste,Top*
G04 #@! TF.FilePolarity,Positive*
%FSLAX46Y46*%
G04 Gerber Fmt 4.6, Leading zero omitted, Abs format (unit mm)*
G04 Created by KiCad (PCBNEW (5.1.9)-1) date 2021-10-09 16:27:14*
%MOMM*%
%LPD*%
G01*
G04 APERTURE LIST*
%ADD10R,0.800000X0.900000*%
%ADD11R,0.900000X0.800000*%
%ADD12R,0.900000X1.200000*%
%ADD13R,2.000000X3.800000*%
%ADD14R,1.220000X0.650000*%
%ADD15R,0.650000X1.220000*%
G04 APERTURE END LIST*
G36*
G01*
X133550000Y-106500000D02*
X137650000Y-106500000D01*
G75*
G02*
X137950000Y-106800000I0J-300000D01*
G01*
X137950000Y-107400000D01*
G75*
G02*
X137650000Y-107700000I-300000J0D01*
G01*
X133550000Y-107700000D01*
G75*
G02*
X133250000Y-107400000I0J300000D01*
G01*
X133250000Y-106800000D01*
G75*
G02*
X133550000Y-106500000I300000J0D01*
G01*
G37*
G36*
G01*
X133550000Y-103200000D02*
X137650000Y-103200000D01*
G75*
G02*
X137950000Y-103500000I0J-300000D01*
G01*
X137950000Y-104100000D01*
G75*
G02*
X137650000Y-104400000I-300000J0D01*
G01*
X133550000Y-104400000D01*
G75*
G02*
X133250000Y-104100000I0J300000D01*
G01*
X133250000Y-103500000D01*
G75*
G02*
X133550000Y-103200000I300000J0D01*
G01*
G37*
D10*
X112000000Y-104300000D03*
X111050000Y-102300000D03*
X112950000Y-102300000D03*
D11*
X118300000Y-92600000D03*
X116300000Y-93550000D03*
X116300000Y-91650000D03*
D10*
X109500000Y-93500000D03*
X108550000Y-91500000D03*
X110450000Y-91500000D03*
D12*
X98650000Y-95500000D03*
X95350000Y-95500000D03*
G36*
G01*
X142850000Y-113424997D02*
X142850000Y-115575003D01*
G75*
G02*
X142600003Y-115825000I-249997J0D01*
G01*
X141974997Y-115825000D01*
G75*
G02*
X141725000Y-115575003I0J249997D01*
G01*
X141725000Y-113424997D01*
G75*
G02*
X141974997Y-113175000I249997J0D01*
G01*
X142600003Y-113175000D01*
G75*
G02*
X142850000Y-113424997I0J-249997D01*
G01*
G37*
G36*
G01*
X145775000Y-113424997D02*
X145775000Y-115575003D01*
G75*
G02*
X145525003Y-115825000I-249997J0D01*
G01*
X144899997Y-115825000D01*
G75*
G02*
X144650000Y-115575003I0J249997D01*
G01*
X144650000Y-113424997D01*
G75*
G02*
X144899997Y-113175000I249997J0D01*
G01*
X145525003Y-113175000D01*
G75*
G02*
X145775000Y-113424997I0J-249997D01*
G01*
G37*
G36*
G01*
X114725000Y-106325000D02*
X115275000Y-106325000D01*
G75*
G02*
X115475000Y-106525000I0J-200000D01*
G01*
X115475000Y-106925000D01*
G75*
G02*
X115275000Y-107125000I-200000J0D01*
G01*
X114725000Y-107125000D01*
G75*
G02*
X114525000Y-106925000I0J200000D01*
G01*
X114525000Y-106525000D01*
G75*
G02*
X114725000Y-106325000I200000J0D01*
G01*
G37*
G36*
G01*
X114725000Y-104675000D02*
X115275000Y-104675000D01*
G75*
G02*
X115475000Y-104875000I0J-200000D01*
G01*
X115475000Y-105275000D01*
G75*
G02*
X115275000Y-105475000I-200000J0D01*
G01*
X114725000Y-105475000D01*
G75*
G02*
X114525000Y-105275000I0J200000D01*
G01*
X114525000Y-104875000D01*
G75*
G02*
X114725000Y-104675000I200000J0D01*
G01*
G37*
G36*
G01*
X118975000Y-105475000D02*
X118425000Y-105475000D01*
G75*
G02*
X118225000Y-105275000I0J200000D01*
G01*
X118225000Y-104875000D01*
G75*
G02*
X118425000Y-104675000I200000J0D01*
G01*
X118975000Y-104675000D01*
G75*
G02*
X119175000Y-104875000I0J-200000D01*
G01*
X119175000Y-105275000D01*
G75*
G02*
X118975000Y-105475000I-200000J0D01*
G01*
G37*
G36*
G01*
X118975000Y-107125000D02*
X118425000Y-107125000D01*
G75*
G02*
X118225000Y-106925000I0J200000D01*
G01*
X118225000Y-106525000D01*
G75*
G02*
X118425000Y-106325000I200000J0D01*
G01*
X118975000Y-106325000D01*
G75*
G02*
X119175000Y-106525000I0J-200000D01*
G01*
X119175000Y-106925000D01*
G75*
G02*
X118975000Y-107125000I-200000J0D01*
G01*
G37*
G36*
G01*
X113275000Y-92075000D02*
X112725000Y-92075000D01*
G75*
G02*
X112525000Y-91875000I0J200000D01*
G01*
X112525000Y-91475000D01*
G75*
G02*
X112725000Y-91275000I200000J0D01*
G01*
X113275000Y-91275000D01*
G75*
G02*
X113475000Y-91475000I0J-200000D01*
G01*
X113475000Y-91875000D01*
G75*
G02*
X113275000Y-92075000I-200000J0D01*
G01*
G37*
G36*
G01*
X113275000Y-93725000D02*
X112725000Y-93725000D01*
G75*
G02*
X112525000Y-93525000I0J200000D01*
G01*
X112525000Y-93125000D01*
G75*
G02*
X112725000Y-92925000I200000J0D01*
G01*
X113275000Y-92925000D01*
G75*
G02*
X113475000Y-93125000I0J-200000D01*
G01*
X113475000Y-93525000D01*
G75*
G02*
X113275000Y-93725000I-200000J0D01*
G01*
G37*
D13*
X125000000Y-115000000D03*
G36*
G01*
X102775000Y-105225000D02*
X102225000Y-105225000D01*
G75*
G02*
X102025000Y-105025000I0J200000D01*
G01*
X102025000Y-104625000D01*
G75*
G02*
X102225000Y-104425000I200000J0D01*
G01*
X102775000Y-104425000D01*
G75*
G02*
X102975000Y-104625000I0J-200000D01*
G01*
X102975000Y-105025000D01*
G75*
G02*
X102775000Y-105225000I-200000J0D01*
G01*
G37*
G36*
G01*
X102775000Y-103575000D02*
X102225000Y-103575000D01*
G75*
G02*
X102025000Y-103375000I0J200000D01*
G01*
X102025000Y-102975000D01*
G75*
G02*
X102225000Y-102775000I200000J0D01*
G01*
X102775000Y-102775000D01*
G75*
G02*
X102975000Y-102975000I0J-200000D01*
G01*
X102975000Y-103375000D01*
G75*
G02*
X102775000Y-103575000I-200000J0D01*
G01*
G37*
G36*
G01*
X127525000Y-95850000D02*
X127525000Y-95350000D01*
G75*
G02*
X127750000Y-95125000I225000J0D01*
G01*
X128200000Y-95125000D01*
G75*
G02*
X128425000Y-95350000I0J-225000D01*
G01*
X128425000Y-95850000D01*
G75*
G02*
X128200000Y-96075000I-225000J0D01*
G01*
X127750000Y-96075000D01*
G75*
G02*
X127525000Y-95850000I0J225000D01*
G01*
G37*
G36*
G01*
X125975000Y-95850000D02*
X125975000Y-95350000D01*
G75*
G02*
X126200000Y-95125000I225000J0D01*
G01*
X126650000Y-95125000D01*
G75*
G02*
X126875000Y-95350000I0J-225000D01*
G01*
X126875000Y-95850000D01*
G75*
G02*
X126650000Y-96075000I-225000J0D01*
G01*
X126200000Y-96075000D01*
G75*
G02*
X125975000Y-95850000I0J225000D01*
G01*
G37*
G36*
G01*
X121825000Y-95350000D02*
X121825000Y-95850000D01*
G75*
G02*
X121600000Y-96075000I-225000J0D01*
G01*
X121150000Y-96075000D01*
G75*
G02*
X120925000Y-95850000I0J225000D01*
G01*
X120925000Y-95350000D01*
G75*
G02*
X121150000Y-95125000I225000J0D01*
G01*
X121600000Y-95125000D01*
G75*
G02*
X121825000Y-95350000I0J-225000D01*
G01*
G37*
G36*
G01*
X120275000Y-95350000D02*
X120275000Y-95850000D01*
G75*
G02*
X120050000Y-96075000I-225000J0D01*
G01*
X119600000Y-96075000D01*
G75*
G02*
X119375000Y-95850000I0J225000D01*
G01*
X119375000Y-95350000D01*
G75*
G02*
X119600000Y-95125000I225000J0D01*
G01*
X120050000Y-95125000D01*
G75*
G02*
X120275000Y-95350000I0J-225000D01*
G01*
G37*
G36*
G01*
X129250000Y-114725000D02*
X128750000Y-114725000D01*
G75*
G02*
X128525000Y-114500000I0J225000D01*
G01*
X128525000Y-114050000D01*
G75*
G02*
X128750000Y-113825000I225000J0D01*
G01*
X129250000Y-113825000D01*
G75*
G02*
X129475000Y-114050000I0J-225000D01*
G01*
X129475000Y-114500000D01*
G75*
G02*
X129250000Y-114725000I-225000J0D01*
G01*
G37*
G36*
G01*
X129250000Y-113175000D02*
X128750000Y-113175000D01*
G75*
G02*
X128525000Y-112950000I0J225000D01*
G01*
X128525000Y-112500000D01*
G75*
G02*
X128750000Y-112275000I225000J0D01*
G01*
X129250000Y-112275000D01*
G75*
G02*
X129475000Y-112500000I0J-225000D01*
G01*
X129475000Y-112950000D01*
G75*
G02*
X129250000Y-113175000I-225000J0D01*
G01*
G37*
G36*
G01*
X131425000Y-91300000D02*
X132375000Y-91300000D01*
G75*
G02*
X132625000Y-91550000I0J-250000D01*
G01*
X132625000Y-92050000D01*
G75*
G02*
X132375000Y-92300000I-250000J0D01*
G01*
X131425000Y-92300000D01*
G75*
G02*
X131175000Y-92050000I0J250000D01*
G01*
X131175000Y-91550000D01*
G75*
G02*
X131425000Y-91300000I250000J0D01*
G01*
G37*
G36*
G01*
X131425000Y-93200000D02*
X132375000Y-93200000D01*
G75*
G02*
X132625000Y-93450000I0J-250000D01*
G01*
X132625000Y-93950000D01*
G75*
G02*
X132375000Y-94200000I-250000J0D01*
G01*
X131425000Y-94200000D01*
G75*
G02*
X131175000Y-93950000I0J250000D01*
G01*
X131175000Y-93450000D01*
G75*
G02*
X131425000Y-93200000I250000J0D01*
G01*
G37*
G36*
G01*
X139200000Y-91375000D02*
X139700000Y-91375000D01*
G75*
G02*
X139925000Y-91600000I0J-225000D01*
G01*
X139925000Y-92050000D01*
G75*
G02*
X139700000Y-92275000I-225000J0D01*
G01*
X139200000Y-92275000D01*
G75*
G02*
X138975000Y-92050000I0J225000D01*
G01*
X138975000Y-91600000D01*
G75*
G02*
X139200000Y-91375000I225000J0D01*
G01*
G37*
G36*
G01*
X139200000Y-92925000D02*
X139700000Y-92925000D01*
G75*
G02*
X139925000Y-93150000I0J-225000D01*
G01*
X139925000Y-93600000D01*
G75*
G02*
X139700000Y-93825000I-225000J0D01*
G01*
X139200000Y-93825000D01*
G75*
G02*
X138975000Y-93600000I0J225000D01*
G01*
X138975000Y-93150000D01*
G75*
G02*
X139200000Y-92925000I225000J0D01*
G01*
G37*
G36*
G01*
X141225000Y-93250000D02*
X142175000Y-93250000D01*
G75*
G02*
X142425000Y-93500000I0J-250000D01*
G01*
X142425000Y-94000000D01*
G75*
G02*
X142175000Y-94250000I-250000J0D01*
G01*
X141225000Y-94250000D01*
G75*
G02*
X140975000Y-94000000I0J250000D01*
G01*
X140975000Y-93500000D01*
G75*
G02*
X141225000Y-93250000I250000J0D01*
G01*
G37*
G36*
G01*
X141225000Y-91350000D02*
X142175000Y-91350000D01*
G75*
G02*
X142425000Y-91600000I0J-250000D01*
G01*
X142425000Y-92100000D01*
G75*
G02*
X142175000Y-92350000I-250000J0D01*
G01*
X141225000Y-92350000D01*
G75*
G02*
X140975000Y-92100000I0J250000D01*
G01*
X140975000Y-91600000D01*
G75*
G02*
X141225000Y-91350000I250000J0D01*
G01*
G37*
G36*
G01*
X141800000Y-104375000D02*
X141800000Y-103425000D01*
G75*
G02*
X142050000Y-103175000I250000J0D01*
G01*
X142550000Y-103175000D01*
G75*
G02*
X142800000Y-103425000I0J-250000D01*
G01*
X142800000Y-104375000D01*
G75*
G02*
X142550000Y-104625000I-250000J0D01*
G01*
X142050000Y-104625000D01*
G75*
G02*
X141800000Y-104375000I0J250000D01*
G01*
G37*
G36*
G01*
X143700000Y-104375000D02*
X143700000Y-103425000D01*
G75*
G02*
X143950000Y-103175000I250000J0D01*
G01*
X144450000Y-103175000D01*
G75*
G02*
X144700000Y-103425000I0J-250000D01*
G01*
X144700000Y-104375000D01*
G75*
G02*
X144450000Y-104625000I-250000J0D01*
G01*
X143950000Y-104625000D01*
G75*
G02*
X143700000Y-104375000I0J250000D01*
G01*
G37*
G36*
G01*
X140750000Y-107825000D02*
X140250000Y-107825000D01*
G75*
G02*
X140025000Y-107600000I0J225000D01*
G01*
X140025000Y-107150000D01*
G75*
G02*
X140250000Y-106925000I225000J0D01*
G01*
X140750000Y-106925000D01*
G75*
G02*
X140975000Y-107150000I0J-225000D01*
G01*
X140975000Y-107600000D01*
G75*
G02*
X140750000Y-107825000I-225000J0D01*
G01*
G37*
G36*
G01*
X140750000Y-109375000D02*
X140250000Y-109375000D01*
G75*
G02*
X140025000Y-109150000I0J225000D01*
G01*
X140025000Y-108700000D01*
G75*
G02*
X140250000Y-108475000I225000J0D01*
G01*
X140750000Y-108475000D01*
G75*
G02*
X140975000Y-108700000I0J-225000D01*
G01*
X140975000Y-109150000D01*
G75*
G02*
X140750000Y-109375000I-225000J0D01*
G01*
G37*
G36*
G01*
X142850000Y-110525000D02*
X142850000Y-111475000D01*
G75*
G02*
X142600000Y-111725000I-250000J0D01*
G01*
X142100000Y-111725000D01*
G75*
G02*
X141850000Y-111475000I0J250000D01*
G01*
X141850000Y-110525000D01*
G75*
G02*
X142100000Y-110275000I250000J0D01*
G01*
X142600000Y-110275000D01*
G75*
G02*
X142850000Y-110525000I0J-250000D01*
G01*
G37*
G36*
G01*
X144750000Y-110525000D02*
X144750000Y-111475000D01*
G75*
G02*
X144500000Y-111725000I-250000J0D01*
G01*
X144000000Y-111725000D01*
G75*
G02*
X143750000Y-111475000I0J250000D01*
G01*
X143750000Y-110525000D01*
G75*
G02*
X144000000Y-110275000I250000J0D01*
G01*
X144500000Y-110275000D01*
G75*
G02*
X144750000Y-110525000I0J-250000D01*
G01*
G37*
G36*
G01*
X124756250Y-96025000D02*
X124243750Y-96025000D01*
G75*
G02*
X124025000Y-95806250I0J218750D01*
G01*
X124025000Y-95368750D01*
G75*
G02*
X124243750Y-95150000I218750J0D01*
G01*
X124756250Y-95150000D01*
G75*
G02*
X124975000Y-95368750I0J-218750D01*
G01*
X124975000Y-95806250D01*
G75*
G02*
X124756250Y-96025000I-218750J0D01*
G01*
G37*
G36*
G01*
X124756250Y-94450000D02*
X124243750Y-94450000D01*
G75*
G02*
X124025000Y-94231250I0J218750D01*
G01*
X124025000Y-93793750D01*
G75*
G02*
X124243750Y-93575000I218750J0D01*
G01*
X124756250Y-93575000D01*
G75*
G02*
X124975000Y-93793750I0J-218750D01*
G01*
X124975000Y-94231250D01*
G75*
G02*
X124756250Y-94450000I-218750J0D01*
G01*
G37*
G36*
G01*
X123256250Y-94450000D02*
X122743750Y-94450000D01*
G75*
G02*
X122525000Y-94231250I0J218750D01*
G01*
X122525000Y-93793750D01*
G75*
G02*
X122743750Y-93575000I218750J0D01*
G01*
X123256250Y-93575000D01*
G75*
G02*
X123475000Y-93793750I0J-218750D01*
G01*
X123475000Y-94231250D01*
G75*
G02*
X123256250Y-94450000I-218750J0D01*
G01*
G37*
G36*
G01*
X123256250Y-96025000D02*
X122743750Y-96025000D01*
G75*
G02*
X122525000Y-95806250I0J218750D01*
G01*
X122525000Y-95368750D01*
G75*
G02*
X122743750Y-95150000I218750J0D01*
G01*
X123256250Y-95150000D01*
G75*
G02*
X123475000Y-95368750I0J-218750D01*
G01*
X123475000Y-95806250D01*
G75*
G02*
X123256250Y-96025000I-218750J0D01*
G01*
G37*
G36*
G01*
X131475000Y-106425000D02*
X130925000Y-106425000D01*
G75*
G02*
X130725000Y-106225000I0J200000D01*
G01*
X130725000Y-105825000D01*
G75*
G02*
X130925000Y-105625000I200000J0D01*
G01*
X131475000Y-105625000D01*
G75*
G02*
X131675000Y-105825000I0J-200000D01*
G01*
X131675000Y-106225000D01*
G75*
G02*
X131475000Y-106425000I-200000J0D01*
G01*
G37*
G36*
G01*
X131475000Y-104775000D02*
X130925000Y-104775000D01*
G75*
G02*
X130725000Y-104575000I0J200000D01*
G01*
X130725000Y-104175000D01*
G75*
G02*
X130925000Y-103975000I200000J0D01*
G01*
X131475000Y-103975000D01*
G75*
G02*
X131675000Y-104175000I0J-200000D01*
G01*
X131675000Y-104575000D01*
G75*
G02*
X131475000Y-104775000I-200000J0D01*
G01*
G37*
G36*
G01*
X131475000Y-109625000D02*
X130925000Y-109625000D01*
G75*
G02*
X130725000Y-109425000I0J200000D01*
G01*
X130725000Y-109025000D01*
G75*
G02*
X130925000Y-108825000I200000J0D01*
G01*
X131475000Y-108825000D01*
G75*
G02*
X131675000Y-109025000I0J-200000D01*
G01*
X131675000Y-109425000D01*
G75*
G02*
X131475000Y-109625000I-200000J0D01*
G01*
G37*
G36*
G01*
X131475000Y-107975000D02*
X130925000Y-107975000D01*
G75*
G02*
X130725000Y-107775000I0J200000D01*
G01*
X130725000Y-107375000D01*
G75*
G02*
X130925000Y-107175000I200000J0D01*
G01*
X131475000Y-107175000D01*
G75*
G02*
X131675000Y-107375000I0J-200000D01*
G01*
X131675000Y-107775000D01*
G75*
G02*
X131475000Y-107975000I-200000J0D01*
G01*
G37*
G36*
G01*
X130875000Y-116425000D02*
X130675000Y-116425000D01*
G75*
G02*
X130575000Y-116325000I0J100000D01*
G01*
X130575000Y-114900000D01*
G75*
G02*
X130675000Y-114800000I100000J0D01*
G01*
X130875000Y-114800000D01*
G75*
G02*
X130975000Y-114900000I0J-100000D01*
G01*
X130975000Y-116325000D01*
G75*
G02*
X130875000Y-116425000I-100000J0D01*
G01*
G37*
G36*
G01*
X131525000Y-116425000D02*
X131325000Y-116425000D01*
G75*
G02*
X131225000Y-116325000I0J100000D01*
G01*
X131225000Y-114900000D01*
G75*
G02*
X131325000Y-114800000I100000J0D01*
G01*
X131525000Y-114800000D01*
G75*
G02*
X131625000Y-114900000I0J-100000D01*
G01*
X131625000Y-116325000D01*
G75*
G02*
X131525000Y-116425000I-100000J0D01*
G01*
G37*
G36*
G01*
X132175000Y-116425000D02*
X131975000Y-116425000D01*
G75*
G02*
X131875000Y-116325000I0J100000D01*
G01*
X131875000Y-114900000D01*
G75*
G02*
X131975000Y-114800000I100000J0D01*
G01*
X132175000Y-114800000D01*
G75*
G02*
X132275000Y-114900000I0J-100000D01*
G01*
X132275000Y-116325000D01*
G75*
G02*
X132175000Y-116425000I-100000J0D01*
G01*
G37*
G36*
G01*
X132825000Y-116425000D02*
X132625000Y-116425000D01*
G75*
G02*
X132525000Y-116325000I0J100000D01*
G01*
X132525000Y-114900000D01*
G75*
G02*
X132625000Y-114800000I100000J0D01*
G01*
X132825000Y-114800000D01*
G75*
G02*
X132925000Y-114900000I0J-100000D01*
G01*
X132925000Y-116325000D01*
G75*
G02*
X132825000Y-116425000I-100000J0D01*
G01*
G37*
G36*
G01*
X132825000Y-112200000D02*
X132625000Y-112200000D01*
G75*
G02*
X132525000Y-112100000I0J100000D01*
G01*
X132525000Y-110675000D01*
G75*
G02*
X132625000Y-110575000I100000J0D01*
G01*
X132825000Y-110575000D01*
G75*
G02*
X132925000Y-110675000I0J-100000D01*
G01*
X132925000Y-112100000D01*
G75*
G02*
X132825000Y-112200000I-100000J0D01*
G01*
G37*
G36*
G01*
X132175000Y-112200000D02*
X131975000Y-112200000D01*
G75*
G02*
X131875000Y-112100000I0J100000D01*
G01*
X131875000Y-110675000D01*
G75*
G02*
X131975000Y-110575000I100000J0D01*
G01*
X132175000Y-110575000D01*
G75*
G02*
X132275000Y-110675000I0J-100000D01*
G01*
X132275000Y-112100000D01*
G75*
G02*
X132175000Y-112200000I-100000J0D01*
G01*
G37*
G36*
G01*
X131525000Y-112200000D02*
X131325000Y-112200000D01*
G75*
G02*
X131225000Y-112100000I0J100000D01*
G01*
X131225000Y-110675000D01*
G75*
G02*
X131325000Y-110575000I100000J0D01*
G01*
X131525000Y-110575000D01*
G75*
G02*
X131625000Y-110675000I0J-100000D01*
G01*
X131625000Y-112100000D01*
G75*
G02*
X131525000Y-112200000I-100000J0D01*
G01*
G37*
G36*
G01*
X130875000Y-112200000D02*
X130675000Y-112200000D01*
G75*
G02*
X130575000Y-112100000I0J100000D01*
G01*
X130575000Y-110675000D01*
G75*
G02*
X130675000Y-110575000I100000J0D01*
G01*
X130875000Y-110575000D01*
G75*
G02*
X130975000Y-110675000I0J-100000D01*
G01*
X130975000Y-112100000D01*
G75*
G02*
X130875000Y-112200000I-100000J0D01*
G01*
G37*
D14*
X134790000Y-91850000D03*
X134790000Y-92800000D03*
X134790000Y-93750000D03*
X137410000Y-93750000D03*
X137410000Y-91850000D03*
D15*
X144200000Y-108710000D03*
X142300000Y-108710000D03*
X142300000Y-106090000D03*
X143250000Y-106090000D03*
X144200000Y-106090000D03*
G36*
G01*
X135125000Y-116425000D02*
X134925000Y-116425000D01*
G75*
G02*
X134825000Y-116325000I0J100000D01*
G01*
X134825000Y-114900000D01*
G75*
G02*
X134925000Y-114800000I100000J0D01*
G01*
X135125000Y-114800000D01*
G75*
G02*
X135225000Y-114900000I0J-100000D01*
G01*
X135225000Y-116325000D01*
G75*
G02*
X135125000Y-116425000I-100000J0D01*
G01*
G37*
G36*
G01*
X135775000Y-116425000D02*
X135575000Y-116425000D01*
G75*
G02*
X135475000Y-116325000I0J100000D01*
G01*
X135475000Y-114900000D01*
G75*
G02*
X135575000Y-114800000I100000J0D01*
G01*
X135775000Y-114800000D01*
G75*
G02*
X135875000Y-114900000I0J-100000D01*
G01*
X135875000Y-116325000D01*
G75*
G02*
X135775000Y-116425000I-100000J0D01*
G01*
G37*
G36*
G01*
X136425000Y-116425000D02*
X136225000Y-116425000D01*
G75*
G02*
X136125000Y-116325000I0J100000D01*
G01*
X136125000Y-114900000D01*
G75*
G02*
X136225000Y-114800000I100000J0D01*
G01*
X136425000Y-114800000D01*
G75*
G02*
X136525000Y-114900000I0J-100000D01*
G01*
X136525000Y-116325000D01*
G75*
G02*
X136425000Y-116425000I-100000J0D01*
G01*
G37*
G36*
G01*
X137075000Y-116425000D02*
X136875000Y-116425000D01*
G75*
G02*
X136775000Y-116325000I0J100000D01*
G01*
X136775000Y-114900000D01*
G75*
G02*
X136875000Y-114800000I100000J0D01*
G01*
X137075000Y-114800000D01*
G75*
G02*
X137175000Y-114900000I0J-100000D01*
G01*
X137175000Y-116325000D01*
G75*
G02*
X137075000Y-116425000I-100000J0D01*
G01*
G37*
G36*
G01*
X137075000Y-112200000D02*
X136875000Y-112200000D01*
G75*
G02*
X136775000Y-112100000I0J100000D01*
G01*
X136775000Y-110675000D01*
G75*
G02*
X136875000Y-110575000I100000J0D01*
G01*
X137075000Y-110575000D01*
G75*
G02*
X137175000Y-110675000I0J-100000D01*
G01*
X137175000Y-112100000D01*
G75*
G02*
X137075000Y-112200000I-100000J0D01*
G01*
G37*
G36*
G01*
X136425000Y-112200000D02*
X136225000Y-112200000D01*
G75*
G02*
X136125000Y-112100000I0J100000D01*
G01*
X136125000Y-110675000D01*
G75*
G02*
X136225000Y-110575000I100000J0D01*
G01*
X136425000Y-110575000D01*
G75*
G02*
X136525000Y-110675000I0J-100000D01*
G01*
X136525000Y-112100000D01*
G75*
G02*
X136425000Y-112200000I-100000J0D01*
G01*
G37*
G36*
G01*
X135775000Y-112200000D02*
X135575000Y-112200000D01*
G75*
G02*
X135475000Y-112100000I0J100000D01*
G01*
X135475000Y-110675000D01*
G75*
G02*
X135575000Y-110575000I100000J0D01*
G01*
X135775000Y-110575000D01*
G75*
G02*
X135875000Y-110675000I0J-100000D01*
G01*
X135875000Y-112100000D01*
G75*
G02*
X135775000Y-112200000I-100000J0D01*
G01*
G37*
G36*
G01*
X135125000Y-112200000D02*
X134925000Y-112200000D01*
G75*
G02*
X134825000Y-112100000I0J100000D01*
G01*
X134825000Y-110675000D01*
G75*
G02*
X134925000Y-110575000I100000J0D01*
G01*
X135125000Y-110575000D01*
G75*
G02*
X135225000Y-110675000I0J-100000D01*
G01*
X135225000Y-112100000D01*
G75*
G02*
X135125000Y-112200000I-100000J0D01*
G01*
G37*
M02*
