G04 #@! TF.GenerationSoftware,KiCad,Pcbnew,5.1.7*
G04 #@! TF.CreationDate,2020-10-15T01:08:01+02:00*
G04 #@! TF.ProjectId,DgDrive_DVI,44674472-6976-4655-9f44-56492e6b6963,1.2*
G04 #@! TF.SameCoordinates,Original*
G04 #@! TF.FileFunction,Legend,Top*
G04 #@! TF.FilePolarity,Positive*
%FSLAX46Y46*%
G04 Gerber Fmt 4.6, Leading zero omitted, Abs format (unit mm)*
G04 Created by KiCad (PCBNEW 5.1.7) date 2020-10-15 01:08:01*
%MOMM*%
%LPD*%
G01*
G04 APERTURE LIST*
%ADD10C,0.150000*%
%ADD11C,0.120000*%
%ADD12C,0.010000*%
%ADD13C,0.250000*%
%ADD14C,0.200000*%
%ADD15C,0.300000*%
G04 APERTURE END LIST*
D10*
X120911785Y-92202380D02*
X120435595Y-92202380D01*
X120435595Y-91202380D01*
X121673690Y-92202380D02*
X121673690Y-91678571D01*
X121626071Y-91583333D01*
X121530833Y-91535714D01*
X121340357Y-91535714D01*
X121245119Y-91583333D01*
X121673690Y-92154761D02*
X121578452Y-92202380D01*
X121340357Y-92202380D01*
X121245119Y-92154761D01*
X121197500Y-92059523D01*
X121197500Y-91964285D01*
X121245119Y-91869047D01*
X121340357Y-91821428D01*
X121578452Y-91821428D01*
X121673690Y-91773809D01*
X122102261Y-92154761D02*
X122197500Y-92202380D01*
X122387976Y-92202380D01*
X122483214Y-92154761D01*
X122530833Y-92059523D01*
X122530833Y-92011904D01*
X122483214Y-91916666D01*
X122387976Y-91869047D01*
X122245119Y-91869047D01*
X122149880Y-91821428D01*
X122102261Y-91726190D01*
X122102261Y-91678571D01*
X122149880Y-91583333D01*
X122245119Y-91535714D01*
X122387976Y-91535714D01*
X122483214Y-91583333D01*
X123340357Y-92154761D02*
X123245119Y-92202380D01*
X123054642Y-92202380D01*
X122959404Y-92154761D01*
X122911785Y-92059523D01*
X122911785Y-91678571D01*
X122959404Y-91583333D01*
X123054642Y-91535714D01*
X123245119Y-91535714D01*
X123340357Y-91583333D01*
X123387976Y-91678571D01*
X123387976Y-91773809D01*
X122911785Y-91869047D01*
X123816547Y-92202380D02*
X123816547Y-91535714D01*
X123816547Y-91726190D02*
X123864166Y-91630952D01*
X123911785Y-91583333D01*
X124007023Y-91535714D01*
X124102261Y-91535714D01*
X124768928Y-91678571D02*
X124911785Y-91726190D01*
X124959404Y-91773809D01*
X125007023Y-91869047D01*
X125007023Y-92011904D01*
X124959404Y-92107142D01*
X124911785Y-92154761D01*
X124816547Y-92202380D01*
X124435595Y-92202380D01*
X124435595Y-91202380D01*
X124768928Y-91202380D01*
X124864166Y-91250000D01*
X124911785Y-91297619D01*
X124959404Y-91392857D01*
X124959404Y-91488095D01*
X124911785Y-91583333D01*
X124864166Y-91630952D01*
X124768928Y-91678571D01*
X124435595Y-91678571D01*
X125864166Y-92202380D02*
X125864166Y-91678571D01*
X125816547Y-91583333D01*
X125721309Y-91535714D01*
X125530833Y-91535714D01*
X125435595Y-91583333D01*
X125864166Y-92154761D02*
X125768928Y-92202380D01*
X125530833Y-92202380D01*
X125435595Y-92154761D01*
X125387976Y-92059523D01*
X125387976Y-91964285D01*
X125435595Y-91869047D01*
X125530833Y-91821428D01*
X125768928Y-91821428D01*
X125864166Y-91773809D01*
X126768928Y-92154761D02*
X126673690Y-92202380D01*
X126483214Y-92202380D01*
X126387976Y-92154761D01*
X126340357Y-92107142D01*
X126292738Y-92011904D01*
X126292738Y-91726190D01*
X126340357Y-91630952D01*
X126387976Y-91583333D01*
X126483214Y-91535714D01*
X126673690Y-91535714D01*
X126768928Y-91583333D01*
X127197500Y-92202380D02*
X127197500Y-91202380D01*
X127292738Y-91821428D02*
X127578452Y-92202380D01*
X127578452Y-91535714D02*
X127197500Y-91916666D01*
X128007023Y-91535714D02*
X128007023Y-92535714D01*
X128007023Y-91583333D02*
X128102261Y-91535714D01*
X128292738Y-91535714D01*
X128387976Y-91583333D01*
X128435595Y-91630952D01*
X128483214Y-91726190D01*
X128483214Y-92011904D01*
X128435595Y-92107142D01*
X128387976Y-92154761D01*
X128292738Y-92202380D01*
X128102261Y-92202380D01*
X128007023Y-92154761D01*
X129054642Y-92202380D02*
X128959404Y-92154761D01*
X128911785Y-92059523D01*
X128911785Y-91202380D01*
X129864166Y-92202380D02*
X129864166Y-91678571D01*
X129816547Y-91583333D01*
X129721309Y-91535714D01*
X129530833Y-91535714D01*
X129435595Y-91583333D01*
X129864166Y-92154761D02*
X129768928Y-92202380D01*
X129530833Y-92202380D01*
X129435595Y-92154761D01*
X129387976Y-92059523D01*
X129387976Y-91964285D01*
X129435595Y-91869047D01*
X129530833Y-91821428D01*
X129768928Y-91821428D01*
X129864166Y-91773809D01*
X130340357Y-91535714D02*
X130340357Y-92202380D01*
X130340357Y-91630952D02*
X130387976Y-91583333D01*
X130483214Y-91535714D01*
X130626071Y-91535714D01*
X130721309Y-91583333D01*
X130768928Y-91678571D01*
X130768928Y-92202380D01*
X131626071Y-92154761D02*
X131530833Y-92202380D01*
X131340357Y-92202380D01*
X131245119Y-92154761D01*
X131197500Y-92059523D01*
X131197500Y-91678571D01*
X131245119Y-91583333D01*
X131340357Y-91535714D01*
X131530833Y-91535714D01*
X131626071Y-91583333D01*
X131673690Y-91678571D01*
X131673690Y-91773809D01*
X131197500Y-91869047D01*
X120435595Y-93852380D02*
X120435595Y-92852380D01*
X120673690Y-92852380D01*
X120816547Y-92900000D01*
X120911785Y-92995238D01*
X120959404Y-93090476D01*
X121007023Y-93280952D01*
X121007023Y-93423809D01*
X120959404Y-93614285D01*
X120911785Y-93709523D01*
X120816547Y-93804761D01*
X120673690Y-93852380D01*
X120435595Y-93852380D01*
X121435595Y-93852380D02*
X121435595Y-93185714D01*
X121435595Y-92852380D02*
X121387976Y-92900000D01*
X121435595Y-92947619D01*
X121483214Y-92900000D01*
X121435595Y-92852380D01*
X121435595Y-92947619D01*
X122054642Y-93852380D02*
X121959404Y-93804761D01*
X121911785Y-93757142D01*
X121864166Y-93661904D01*
X121864166Y-93376190D01*
X121911785Y-93280952D01*
X121959404Y-93233333D01*
X122054642Y-93185714D01*
X122197500Y-93185714D01*
X122292738Y-93233333D01*
X122340357Y-93280952D01*
X122387976Y-93376190D01*
X122387976Y-93661904D01*
X122340357Y-93757142D01*
X122292738Y-93804761D01*
X122197500Y-93852380D01*
X122054642Y-93852380D01*
X123245119Y-93852380D02*
X123245119Y-92852380D01*
X123245119Y-93804761D02*
X123149880Y-93852380D01*
X122959404Y-93852380D01*
X122864166Y-93804761D01*
X122816547Y-93757142D01*
X122768928Y-93661904D01*
X122768928Y-93376190D01*
X122816547Y-93280952D01*
X122864166Y-93233333D01*
X122959404Y-93185714D01*
X123149880Y-93185714D01*
X123245119Y-93233333D01*
X124102261Y-93804761D02*
X124007023Y-93852380D01*
X123816547Y-93852380D01*
X123721309Y-93804761D01*
X123673690Y-93709523D01*
X123673690Y-93328571D01*
X123721309Y-93233333D01*
X123816547Y-93185714D01*
X124007023Y-93185714D01*
X124102261Y-93233333D01*
X124149880Y-93328571D01*
X124149880Y-93423809D01*
X123673690Y-93519047D01*
X125340357Y-93852380D02*
X125340357Y-92852380D01*
X125578452Y-92852380D01*
X125721309Y-92900000D01*
X125816547Y-92995238D01*
X125864166Y-93090476D01*
X125911785Y-93280952D01*
X125911785Y-93423809D01*
X125864166Y-93614285D01*
X125816547Y-93709523D01*
X125721309Y-93804761D01*
X125578452Y-93852380D01*
X125340357Y-93852380D01*
X126197500Y-92852380D02*
X126530833Y-93852380D01*
X126864166Y-92852380D01*
X127197500Y-93852380D02*
X127197500Y-92852380D01*
X120959404Y-95502380D02*
X120387976Y-95502380D01*
X120673690Y-95502380D02*
X120673690Y-94502380D01*
X120578452Y-94645238D01*
X120483214Y-94740476D01*
X120387976Y-94788095D01*
X121578452Y-94502380D02*
X121673690Y-94502380D01*
X121768928Y-94550000D01*
X121816547Y-94597619D01*
X121864166Y-94692857D01*
X121911785Y-94883333D01*
X121911785Y-95121428D01*
X121864166Y-95311904D01*
X121816547Y-95407142D01*
X121768928Y-95454761D01*
X121673690Y-95502380D01*
X121578452Y-95502380D01*
X121483214Y-95454761D01*
X121435595Y-95407142D01*
X121387976Y-95311904D01*
X121340357Y-95121428D01*
X121340357Y-94883333D01*
X121387976Y-94692857D01*
X121435595Y-94597619D01*
X121483214Y-94550000D01*
X121578452Y-94502380D01*
X123054642Y-94454761D02*
X122197500Y-95740476D01*
X123340357Y-94597619D02*
X123387976Y-94550000D01*
X123483214Y-94502380D01*
X123721309Y-94502380D01*
X123816547Y-94550000D01*
X123864166Y-94597619D01*
X123911785Y-94692857D01*
X123911785Y-94788095D01*
X123864166Y-94930952D01*
X123292738Y-95502380D01*
X123911785Y-95502380D01*
X124530833Y-94502380D02*
X124626071Y-94502380D01*
X124721309Y-94550000D01*
X124768928Y-94597619D01*
X124816547Y-94692857D01*
X124864166Y-94883333D01*
X124864166Y-95121428D01*
X124816547Y-95311904D01*
X124768928Y-95407142D01*
X124721309Y-95454761D01*
X124626071Y-95502380D01*
X124530833Y-95502380D01*
X124435595Y-95454761D01*
X124387976Y-95407142D01*
X124340357Y-95311904D01*
X124292738Y-95121428D01*
X124292738Y-94883333D01*
X124340357Y-94692857D01*
X124387976Y-94597619D01*
X124435595Y-94550000D01*
X124530833Y-94502380D01*
X125245119Y-94597619D02*
X125292738Y-94550000D01*
X125387976Y-94502380D01*
X125626071Y-94502380D01*
X125721309Y-94550000D01*
X125768928Y-94597619D01*
X125816547Y-94692857D01*
X125816547Y-94788095D01*
X125768928Y-94930952D01*
X125197500Y-95502380D01*
X125816547Y-95502380D01*
X126435595Y-94502380D02*
X126530833Y-94502380D01*
X126626071Y-94550000D01*
X126673690Y-94597619D01*
X126721309Y-94692857D01*
X126768928Y-94883333D01*
X126768928Y-95121428D01*
X126721309Y-95311904D01*
X126673690Y-95407142D01*
X126626071Y-95454761D01*
X126530833Y-95502380D01*
X126435595Y-95502380D01*
X126340357Y-95454761D01*
X126292738Y-95407142D01*
X126245119Y-95311904D01*
X126197500Y-95121428D01*
X126197500Y-94883333D01*
X126245119Y-94692857D01*
X126292738Y-94597619D01*
X126340357Y-94550000D01*
X126435595Y-94502380D01*
X128530833Y-95502380D02*
X128197500Y-95026190D01*
X127959404Y-95502380D02*
X127959404Y-94502380D01*
X128340357Y-94502380D01*
X128435595Y-94550000D01*
X128483214Y-94597619D01*
X128530833Y-94692857D01*
X128530833Y-94835714D01*
X128483214Y-94930952D01*
X128435595Y-94978571D01*
X128340357Y-95026190D01*
X127959404Y-95026190D01*
X129340357Y-95454761D02*
X129245119Y-95502380D01*
X129054642Y-95502380D01*
X128959404Y-95454761D01*
X128911785Y-95359523D01*
X128911785Y-94978571D01*
X128959404Y-94883333D01*
X129054642Y-94835714D01*
X129245119Y-94835714D01*
X129340357Y-94883333D01*
X129387976Y-94978571D01*
X129387976Y-95073809D01*
X128911785Y-95169047D01*
X129721309Y-94835714D02*
X129959404Y-95502380D01*
X130197500Y-94835714D01*
X131864166Y-95502380D02*
X131292738Y-95502380D01*
X131578452Y-95502380D02*
X131578452Y-94502380D01*
X131483214Y-94645238D01*
X131387976Y-94740476D01*
X131292738Y-94788095D01*
X132292738Y-95407142D02*
X132340357Y-95454761D01*
X132292738Y-95502380D01*
X132245119Y-95454761D01*
X132292738Y-95407142D01*
X132292738Y-95502380D01*
X132673690Y-94502380D02*
X133292738Y-94502380D01*
X132959404Y-94883333D01*
X133102261Y-94883333D01*
X133197500Y-94930952D01*
X133245119Y-94978571D01*
X133292738Y-95073809D01*
X133292738Y-95311904D01*
X133245119Y-95407142D01*
X133197500Y-95454761D01*
X133102261Y-95502380D01*
X132816547Y-95502380D01*
X132721309Y-95454761D01*
X132673690Y-95407142D01*
D11*
X120980000Y-109500000D02*
X118190000Y-109500000D01*
X120980000Y-110770000D02*
X118190000Y-110770000D01*
X120980000Y-112040000D02*
X118190000Y-112040000D01*
X118190000Y-108370000D02*
X118190000Y-113170000D01*
X118190000Y-113170000D02*
X113000000Y-113170000D01*
X113000000Y-113170000D02*
X113000000Y-108370000D01*
X113000000Y-108370000D02*
X118190000Y-108370000D01*
X134355000Y-111526263D02*
X134355000Y-112973737D01*
X131645000Y-111526263D02*
X131645000Y-112973737D01*
X118060000Y-94180000D02*
X118060000Y-93250000D01*
X118060000Y-91020000D02*
X118060000Y-91950000D01*
X118060000Y-91020000D02*
X115900000Y-91020000D01*
X118060000Y-94180000D02*
X116600000Y-94180000D01*
X107920000Y-93260000D02*
X108850000Y-93260000D01*
X111080000Y-93260000D02*
X110150000Y-93260000D01*
X111080000Y-93260000D02*
X111080000Y-91100000D01*
X107920000Y-93260000D02*
X107920000Y-91800000D01*
X132288748Y-107090000D02*
X133711252Y-107090000D01*
X132288748Y-108910000D02*
X133711252Y-108910000D01*
X94750000Y-94500000D02*
X94750000Y-96500000D01*
X94750000Y-96500000D02*
X98650000Y-96500000D01*
X94750000Y-94500000D02*
X98650000Y-94500000D01*
X139890000Y-116130000D02*
G75*
G02*
X141890000Y-116130000I1000000J0D01*
G01*
X141890000Y-116130000D02*
X143540000Y-116130000D01*
X143540000Y-116130000D02*
X143540000Y-108390000D01*
X143540000Y-108390000D02*
X138240000Y-108390000D01*
X138240000Y-108390000D02*
X138240000Y-116130000D01*
X138240000Y-116130000D02*
X139890000Y-116130000D01*
X149523737Y-107355000D02*
X148076263Y-107355000D01*
X149523737Y-104645000D02*
X148076263Y-104645000D01*
X126022500Y-111762742D02*
X126022500Y-112237258D01*
X124977500Y-111762742D02*
X124977500Y-112237258D01*
X112477500Y-92737258D02*
X112477500Y-92262742D01*
X113522500Y-92737258D02*
X113522500Y-92262742D01*
D12*
G36*
X100713360Y-96202468D02*
G01*
X100748592Y-96219874D01*
X100792040Y-96250206D01*
X100823706Y-96283283D01*
X100845394Y-96324817D01*
X100858903Y-96380522D01*
X100866038Y-96456111D01*
X100868600Y-96557296D01*
X100868750Y-96600797D01*
X100868312Y-96696135D01*
X100866496Y-96764271D01*
X100862545Y-96811418D01*
X100855702Y-96843790D01*
X100845211Y-96867600D01*
X100834296Y-96883843D01*
X100764619Y-96952952D01*
X100682566Y-96994521D01*
X100594050Y-97007023D01*
X100504981Y-96988934D01*
X100476763Y-96976142D01*
X100409210Y-96940931D01*
X100409210Y-97492700D01*
X100458512Y-97467205D01*
X100523473Y-97447480D01*
X100603320Y-97442427D01*
X100683052Y-97451756D01*
X100743265Y-97472714D01*
X100793208Y-97512627D01*
X100835881Y-97569741D01*
X100839090Y-97575605D01*
X100852622Y-97603227D01*
X100862505Y-97631068D01*
X100869309Y-97664794D01*
X100873601Y-97710071D01*
X100875951Y-97772562D01*
X100876928Y-97857935D01*
X100877105Y-97954010D01*
X100877105Y-98260526D01*
X100693289Y-98260526D01*
X100693289Y-97695339D01*
X100641875Y-97652077D01*
X100588466Y-97617472D01*
X100537888Y-97611180D01*
X100487030Y-97627372D01*
X100459925Y-97643227D01*
X100439751Y-97665810D01*
X100425403Y-97699940D01*
X100415776Y-97750434D01*
X100409763Y-97822111D01*
X100406260Y-97919788D01*
X100405026Y-97984802D01*
X100400855Y-98252171D01*
X100313125Y-98257222D01*
X100225394Y-98262273D01*
X100225394Y-96603101D01*
X100409210Y-96603101D01*
X100413896Y-96695600D01*
X100429688Y-96759809D01*
X100459183Y-96799759D01*
X100504980Y-96819480D01*
X100551250Y-96823421D01*
X100603628Y-96818892D01*
X100638390Y-96801069D01*
X100660128Y-96777519D01*
X100677240Y-96752189D01*
X100687427Y-96723969D01*
X100691960Y-96684431D01*
X100692109Y-96625142D01*
X100690584Y-96575498D01*
X100687081Y-96500710D01*
X100681867Y-96451611D01*
X100673087Y-96420467D01*
X100658886Y-96399545D01*
X100645484Y-96387452D01*
X100589487Y-96361081D01*
X100523211Y-96356822D01*
X100485156Y-96365906D01*
X100447477Y-96398196D01*
X100422519Y-96461006D01*
X100410422Y-96553894D01*
X100409210Y-96603101D01*
X100225394Y-96603101D01*
X100225394Y-96188421D01*
X100317302Y-96188421D01*
X100372483Y-96190603D01*
X100400952Y-96198351D01*
X100409206Y-96213468D01*
X100409210Y-96213916D01*
X100413040Y-96228720D01*
X100429933Y-96227039D01*
X100463519Y-96210772D01*
X100541778Y-96185887D01*
X100629827Y-96183271D01*
X100713360Y-96202468D01*
G37*
X100713360Y-96202468D02*
X100748592Y-96219874D01*
X100792040Y-96250206D01*
X100823706Y-96283283D01*
X100845394Y-96324817D01*
X100858903Y-96380522D01*
X100866038Y-96456111D01*
X100868600Y-96557296D01*
X100868750Y-96600797D01*
X100868312Y-96696135D01*
X100866496Y-96764271D01*
X100862545Y-96811418D01*
X100855702Y-96843790D01*
X100845211Y-96867600D01*
X100834296Y-96883843D01*
X100764619Y-96952952D01*
X100682566Y-96994521D01*
X100594050Y-97007023D01*
X100504981Y-96988934D01*
X100476763Y-96976142D01*
X100409210Y-96940931D01*
X100409210Y-97492700D01*
X100458512Y-97467205D01*
X100523473Y-97447480D01*
X100603320Y-97442427D01*
X100683052Y-97451756D01*
X100743265Y-97472714D01*
X100793208Y-97512627D01*
X100835881Y-97569741D01*
X100839090Y-97575605D01*
X100852622Y-97603227D01*
X100862505Y-97631068D01*
X100869309Y-97664794D01*
X100873601Y-97710071D01*
X100875951Y-97772562D01*
X100876928Y-97857935D01*
X100877105Y-97954010D01*
X100877105Y-98260526D01*
X100693289Y-98260526D01*
X100693289Y-97695339D01*
X100641875Y-97652077D01*
X100588466Y-97617472D01*
X100537888Y-97611180D01*
X100487030Y-97627372D01*
X100459925Y-97643227D01*
X100439751Y-97665810D01*
X100425403Y-97699940D01*
X100415776Y-97750434D01*
X100409763Y-97822111D01*
X100406260Y-97919788D01*
X100405026Y-97984802D01*
X100400855Y-98252171D01*
X100313125Y-98257222D01*
X100225394Y-98262273D01*
X100225394Y-96603101D01*
X100409210Y-96603101D01*
X100413896Y-96695600D01*
X100429688Y-96759809D01*
X100459183Y-96799759D01*
X100504980Y-96819480D01*
X100551250Y-96823421D01*
X100603628Y-96818892D01*
X100638390Y-96801069D01*
X100660128Y-96777519D01*
X100677240Y-96752189D01*
X100687427Y-96723969D01*
X100691960Y-96684431D01*
X100692109Y-96625142D01*
X100690584Y-96575498D01*
X100687081Y-96500710D01*
X100681867Y-96451611D01*
X100673087Y-96420467D01*
X100658886Y-96399545D01*
X100645484Y-96387452D01*
X100589487Y-96361081D01*
X100523211Y-96356822D01*
X100485156Y-96365906D01*
X100447477Y-96398196D01*
X100422519Y-96461006D01*
X100410422Y-96553894D01*
X100409210Y-96603101D01*
X100225394Y-96603101D01*
X100225394Y-96188421D01*
X100317302Y-96188421D01*
X100372483Y-96190603D01*
X100400952Y-96198351D01*
X100409206Y-96213468D01*
X100409210Y-96213916D01*
X100413040Y-96228720D01*
X100429933Y-96227039D01*
X100463519Y-96210772D01*
X100541778Y-96185887D01*
X100629827Y-96183271D01*
X100713360Y-96202468D01*
G36*
X101410457Y-97448184D02*
G01*
X101489070Y-97469160D01*
X101548916Y-97507180D01*
X101591147Y-97556978D01*
X101604275Y-97578230D01*
X101613968Y-97600492D01*
X101620744Y-97628970D01*
X101625123Y-97668871D01*
X101627624Y-97725401D01*
X101628768Y-97803767D01*
X101629072Y-97909176D01*
X101629078Y-97937142D01*
X101629078Y-98260526D01*
X101548868Y-98260526D01*
X101497706Y-98256943D01*
X101459877Y-98247866D01*
X101450399Y-98242268D01*
X101424488Y-98232606D01*
X101398024Y-98242268D01*
X101354452Y-98254330D01*
X101291160Y-98259185D01*
X101221010Y-98257078D01*
X101156860Y-98248256D01*
X101119407Y-98236937D01*
X101046933Y-98190412D01*
X101001640Y-98125846D01*
X100981278Y-98040000D01*
X100981088Y-98037796D01*
X100982875Y-97999713D01*
X101144473Y-97999713D01*
X101158601Y-98043030D01*
X101181612Y-98067408D01*
X101227804Y-98085845D01*
X101288775Y-98093205D01*
X101350949Y-98089583D01*
X101400751Y-98075074D01*
X101414703Y-98065765D01*
X101439085Y-98022753D01*
X101445263Y-97973857D01*
X101445263Y-97909605D01*
X101352818Y-97909605D01*
X101264995Y-97916366D01*
X101198418Y-97935520D01*
X101157002Y-97965376D01*
X101144473Y-97999713D01*
X100982875Y-97999713D01*
X100985490Y-97944004D01*
X101016424Y-97869847D01*
X101074581Y-97813767D01*
X101082620Y-97808665D01*
X101117163Y-97792055D01*
X101159918Y-97781996D01*
X101219686Y-97777107D01*
X101290690Y-97775983D01*
X101445263Y-97775921D01*
X101445263Y-97711125D01*
X101438706Y-97660850D01*
X101421975Y-97627169D01*
X101420016Y-97625376D01*
X101382783Y-97610642D01*
X101326580Y-97604931D01*
X101264467Y-97607737D01*
X101209510Y-97618556D01*
X101176899Y-97634782D01*
X101159228Y-97647780D01*
X101140569Y-97650262D01*
X101114819Y-97639613D01*
X101075873Y-97613218D01*
X101017630Y-97568465D01*
X101012284Y-97564273D01*
X101015023Y-97548760D01*
X101037876Y-97522960D01*
X101072609Y-97494289D01*
X101110990Y-97470166D01*
X101123048Y-97464470D01*
X101167034Y-97453103D01*
X101231487Y-97444995D01*
X101303497Y-97441743D01*
X101306864Y-97441736D01*
X101410457Y-97448184D01*
G37*
X101410457Y-97448184D02*
X101489070Y-97469160D01*
X101548916Y-97507180D01*
X101591147Y-97556978D01*
X101604275Y-97578230D01*
X101613968Y-97600492D01*
X101620744Y-97628970D01*
X101625123Y-97668871D01*
X101627624Y-97725401D01*
X101628768Y-97803767D01*
X101629072Y-97909176D01*
X101629078Y-97937142D01*
X101629078Y-98260526D01*
X101548868Y-98260526D01*
X101497706Y-98256943D01*
X101459877Y-98247866D01*
X101450399Y-98242268D01*
X101424488Y-98232606D01*
X101398024Y-98242268D01*
X101354452Y-98254330D01*
X101291160Y-98259185D01*
X101221010Y-98257078D01*
X101156860Y-98248256D01*
X101119407Y-98236937D01*
X101046933Y-98190412D01*
X101001640Y-98125846D01*
X100981278Y-98040000D01*
X100981088Y-98037796D01*
X100982875Y-97999713D01*
X101144473Y-97999713D01*
X101158601Y-98043030D01*
X101181612Y-98067408D01*
X101227804Y-98085845D01*
X101288775Y-98093205D01*
X101350949Y-98089583D01*
X101400751Y-98075074D01*
X101414703Y-98065765D01*
X101439085Y-98022753D01*
X101445263Y-97973857D01*
X101445263Y-97909605D01*
X101352818Y-97909605D01*
X101264995Y-97916366D01*
X101198418Y-97935520D01*
X101157002Y-97965376D01*
X101144473Y-97999713D01*
X100982875Y-97999713D01*
X100985490Y-97944004D01*
X101016424Y-97869847D01*
X101074581Y-97813767D01*
X101082620Y-97808665D01*
X101117163Y-97792055D01*
X101159918Y-97781996D01*
X101219686Y-97777107D01*
X101290690Y-97775983D01*
X101445263Y-97775921D01*
X101445263Y-97711125D01*
X101438706Y-97660850D01*
X101421975Y-97627169D01*
X101420016Y-97625376D01*
X101382783Y-97610642D01*
X101326580Y-97604931D01*
X101264467Y-97607737D01*
X101209510Y-97618556D01*
X101176899Y-97634782D01*
X101159228Y-97647780D01*
X101140569Y-97650262D01*
X101114819Y-97639613D01*
X101075873Y-97613218D01*
X101017630Y-97568465D01*
X101012284Y-97564273D01*
X101015023Y-97548760D01*
X101037876Y-97522960D01*
X101072609Y-97494289D01*
X101110990Y-97470166D01*
X101123048Y-97464470D01*
X101167034Y-97453103D01*
X101231487Y-97444995D01*
X101303497Y-97441743D01*
X101306864Y-97441736D01*
X101410457Y-97448184D01*
G36*
X101929881Y-97443486D02*
G01*
X101954888Y-97450982D01*
X101962950Y-97467451D01*
X101963289Y-97474886D01*
X101964736Y-97495594D01*
X101974698Y-97498845D01*
X102001612Y-97484648D01*
X102017598Y-97474948D01*
X102068033Y-97454175D01*
X102128272Y-97443904D01*
X102191434Y-97443114D01*
X102250637Y-97450786D01*
X102299002Y-97465898D01*
X102329646Y-97487432D01*
X102335689Y-97514366D01*
X102332639Y-97521660D01*
X102310406Y-97551937D01*
X102275930Y-97589175D01*
X102269694Y-97595195D01*
X102236833Y-97622875D01*
X102208480Y-97631818D01*
X102168827Y-97625576D01*
X102152942Y-97621429D01*
X102103509Y-97611467D01*
X102068752Y-97615947D01*
X102039400Y-97631746D01*
X102012513Y-97652949D01*
X101992710Y-97679614D01*
X101978948Y-97716827D01*
X101970184Y-97769673D01*
X101965374Y-97843237D01*
X101963474Y-97942605D01*
X101963289Y-98002601D01*
X101963289Y-98260526D01*
X101796184Y-98260526D01*
X101796184Y-97441710D01*
X101879736Y-97441710D01*
X101929881Y-97443486D01*
G37*
X101929881Y-97443486D02*
X101954888Y-97450982D01*
X101962950Y-97467451D01*
X101963289Y-97474886D01*
X101964736Y-97495594D01*
X101974698Y-97498845D01*
X102001612Y-97484648D01*
X102017598Y-97474948D01*
X102068033Y-97454175D01*
X102128272Y-97443904D01*
X102191434Y-97443114D01*
X102250637Y-97450786D01*
X102299002Y-97465898D01*
X102329646Y-97487432D01*
X102335689Y-97514366D01*
X102332639Y-97521660D01*
X102310406Y-97551937D01*
X102275930Y-97589175D01*
X102269694Y-97595195D01*
X102236833Y-97622875D01*
X102208480Y-97631818D01*
X102168827Y-97625576D01*
X102152942Y-97621429D01*
X102103509Y-97611467D01*
X102068752Y-97615947D01*
X102039400Y-97631746D01*
X102012513Y-97652949D01*
X101992710Y-97679614D01*
X101978948Y-97716827D01*
X101970184Y-97769673D01*
X101965374Y-97843237D01*
X101963474Y-97942605D01*
X101963289Y-98002601D01*
X101963289Y-98260526D01*
X101796184Y-98260526D01*
X101796184Y-97441710D01*
X101879736Y-97441710D01*
X101929881Y-97443486D01*
G36*
X102982631Y-98260526D02*
G01*
X102890723Y-98260526D01*
X102837377Y-98258962D01*
X102809593Y-98252485D01*
X102799590Y-98238418D01*
X102798815Y-98228906D01*
X102797128Y-98209832D01*
X102786490Y-98206174D01*
X102758535Y-98217932D01*
X102736795Y-98228906D01*
X102653332Y-98254911D01*
X102562604Y-98256416D01*
X102488842Y-98237021D01*
X102420154Y-98190165D01*
X102367794Y-98121004D01*
X102339122Y-98039427D01*
X102338392Y-98034866D01*
X102334132Y-97985101D01*
X102332014Y-97913659D01*
X102332184Y-97859626D01*
X102514720Y-97859626D01*
X102518949Y-97931441D01*
X102528568Y-97990634D01*
X102541590Y-98024060D01*
X102590856Y-98069740D01*
X102649350Y-98086115D01*
X102709671Y-98072873D01*
X102761217Y-98033373D01*
X102780738Y-98006807D01*
X102792152Y-97975106D01*
X102797498Y-97928832D01*
X102798815Y-97859328D01*
X102796458Y-97790499D01*
X102790233Y-97730026D01*
X102781408Y-97689556D01*
X102779937Y-97685929D01*
X102744347Y-97642802D01*
X102692400Y-97619124D01*
X102634278Y-97615301D01*
X102580160Y-97631738D01*
X102540226Y-97668840D01*
X102536083Y-97676222D01*
X102523116Y-97721239D01*
X102516052Y-97785967D01*
X102514720Y-97859626D01*
X102332184Y-97859626D01*
X102332271Y-97832230D01*
X102333472Y-97788405D01*
X102341645Y-97679988D01*
X102358630Y-97598588D01*
X102386887Y-97538412D01*
X102428872Y-97493666D01*
X102469632Y-97467400D01*
X102526581Y-97448935D01*
X102597411Y-97442602D01*
X102669941Y-97447760D01*
X102731986Y-97463769D01*
X102764768Y-97482920D01*
X102798815Y-97513732D01*
X102798815Y-97124210D01*
X102982631Y-97124210D01*
X102982631Y-98260526D01*
G37*
X102982631Y-98260526D02*
X102890723Y-98260526D01*
X102837377Y-98258962D01*
X102809593Y-98252485D01*
X102799590Y-98238418D01*
X102798815Y-98228906D01*
X102797128Y-98209832D01*
X102786490Y-98206174D01*
X102758535Y-98217932D01*
X102736795Y-98228906D01*
X102653332Y-98254911D01*
X102562604Y-98256416D01*
X102488842Y-98237021D01*
X102420154Y-98190165D01*
X102367794Y-98121004D01*
X102339122Y-98039427D01*
X102338392Y-98034866D01*
X102334132Y-97985101D01*
X102332014Y-97913659D01*
X102332184Y-97859626D01*
X102514720Y-97859626D01*
X102518949Y-97931441D01*
X102528568Y-97990634D01*
X102541590Y-98024060D01*
X102590856Y-98069740D01*
X102649350Y-98086115D01*
X102709671Y-98072873D01*
X102761217Y-98033373D01*
X102780738Y-98006807D01*
X102792152Y-97975106D01*
X102797498Y-97928832D01*
X102798815Y-97859328D01*
X102796458Y-97790499D01*
X102790233Y-97730026D01*
X102781408Y-97689556D01*
X102779937Y-97685929D01*
X102744347Y-97642802D01*
X102692400Y-97619124D01*
X102634278Y-97615301D01*
X102580160Y-97631738D01*
X102540226Y-97668840D01*
X102536083Y-97676222D01*
X102523116Y-97721239D01*
X102516052Y-97785967D01*
X102514720Y-97859626D01*
X102332184Y-97859626D01*
X102332271Y-97832230D01*
X102333472Y-97788405D01*
X102341645Y-97679988D01*
X102358630Y-97598588D01*
X102386887Y-97538412D01*
X102428872Y-97493666D01*
X102469632Y-97467400D01*
X102526581Y-97448935D01*
X102597411Y-97442602D01*
X102669941Y-97447760D01*
X102731986Y-97463769D01*
X102764768Y-97482920D01*
X102798815Y-97513732D01*
X102798815Y-97124210D01*
X102982631Y-97124210D01*
X102982631Y-98260526D01*
G36*
X103624130Y-97445104D02*
G01*
X103690220Y-97450066D01*
X103776626Y-97709079D01*
X103863031Y-97968092D01*
X103890124Y-97876184D01*
X103906428Y-97819384D01*
X103927875Y-97742625D01*
X103951035Y-97658251D01*
X103963280Y-97612993D01*
X104009344Y-97441710D01*
X104199387Y-97441710D01*
X104142582Y-97621349D01*
X104114607Y-97709704D01*
X104080813Y-97816281D01*
X104045520Y-97927454D01*
X104014013Y-98026579D01*
X103942250Y-98252171D01*
X103787286Y-98262253D01*
X103745270Y-98123528D01*
X103719359Y-98037351D01*
X103691083Y-97942347D01*
X103666369Y-97858441D01*
X103665394Y-97855102D01*
X103646935Y-97798248D01*
X103630649Y-97759456D01*
X103619242Y-97744787D01*
X103616898Y-97746483D01*
X103608671Y-97769225D01*
X103593038Y-97817940D01*
X103571904Y-97886502D01*
X103547170Y-97968785D01*
X103533787Y-98014046D01*
X103461311Y-98260526D01*
X103307495Y-98260526D01*
X103184531Y-97872006D01*
X103149988Y-97763022D01*
X103118521Y-97664048D01*
X103091616Y-97579736D01*
X103070759Y-97514734D01*
X103057438Y-97473692D01*
X103053388Y-97461701D01*
X103056594Y-97449423D01*
X103081765Y-97444046D01*
X103134146Y-97444584D01*
X103142345Y-97444990D01*
X103239482Y-97450066D01*
X103303100Y-97684013D01*
X103326484Y-97769333D01*
X103347381Y-97844335D01*
X103363951Y-97902507D01*
X103374354Y-97937337D01*
X103376276Y-97943016D01*
X103384241Y-97936486D01*
X103400304Y-97902654D01*
X103422621Y-97846127D01*
X103449345Y-97771510D01*
X103471937Y-97704107D01*
X103558041Y-97440143D01*
X103624130Y-97445104D01*
G37*
X103624130Y-97445104D02*
X103690220Y-97450066D01*
X103776626Y-97709079D01*
X103863031Y-97968092D01*
X103890124Y-97876184D01*
X103906428Y-97819384D01*
X103927875Y-97742625D01*
X103951035Y-97658251D01*
X103963280Y-97612993D01*
X104009344Y-97441710D01*
X104199387Y-97441710D01*
X104142582Y-97621349D01*
X104114607Y-97709704D01*
X104080813Y-97816281D01*
X104045520Y-97927454D01*
X104014013Y-98026579D01*
X103942250Y-98252171D01*
X103787286Y-98262253D01*
X103745270Y-98123528D01*
X103719359Y-98037351D01*
X103691083Y-97942347D01*
X103666369Y-97858441D01*
X103665394Y-97855102D01*
X103646935Y-97798248D01*
X103630649Y-97759456D01*
X103619242Y-97744787D01*
X103616898Y-97746483D01*
X103608671Y-97769225D01*
X103593038Y-97817940D01*
X103571904Y-97886502D01*
X103547170Y-97968785D01*
X103533787Y-98014046D01*
X103461311Y-98260526D01*
X103307495Y-98260526D01*
X103184531Y-97872006D01*
X103149988Y-97763022D01*
X103118521Y-97664048D01*
X103091616Y-97579736D01*
X103070759Y-97514734D01*
X103057438Y-97473692D01*
X103053388Y-97461701D01*
X103056594Y-97449423D01*
X103081765Y-97444046D01*
X103134146Y-97444584D01*
X103142345Y-97444990D01*
X103239482Y-97450066D01*
X103303100Y-97684013D01*
X103326484Y-97769333D01*
X103347381Y-97844335D01*
X103363951Y-97902507D01*
X103374354Y-97937337D01*
X103376276Y-97943016D01*
X103384241Y-97936486D01*
X103400304Y-97902654D01*
X103422621Y-97846127D01*
X103449345Y-97771510D01*
X103471937Y-97704107D01*
X103558041Y-97440143D01*
X103624130Y-97445104D01*
G36*
X104629992Y-97446673D02*
G01*
X104700427Y-97463780D01*
X104720787Y-97472844D01*
X104760253Y-97496583D01*
X104790541Y-97523321D01*
X104812952Y-97557699D01*
X104828786Y-97604360D01*
X104839343Y-97667946D01*
X104845924Y-97753099D01*
X104849828Y-97864462D01*
X104851310Y-97938849D01*
X104856765Y-98260526D01*
X104763580Y-98260526D01*
X104707047Y-98258156D01*
X104677922Y-98250055D01*
X104670394Y-98236451D01*
X104666420Y-98221741D01*
X104648652Y-98224554D01*
X104624440Y-98236348D01*
X104563828Y-98254427D01*
X104485929Y-98259299D01*
X104403995Y-98251330D01*
X104331281Y-98230889D01*
X104324759Y-98228051D01*
X104258302Y-98181365D01*
X104214491Y-98116464D01*
X104194332Y-98040600D01*
X104195872Y-98013344D01*
X104360345Y-98013344D01*
X104374837Y-98050024D01*
X104417805Y-98076309D01*
X104487129Y-98090417D01*
X104524177Y-98092290D01*
X104585919Y-98087494D01*
X104626960Y-98068858D01*
X104636973Y-98060000D01*
X104664100Y-98011806D01*
X104670394Y-97968092D01*
X104670394Y-97909605D01*
X104588930Y-97909605D01*
X104494234Y-97914432D01*
X104427813Y-97929613D01*
X104385846Y-97956200D01*
X104376449Y-97968052D01*
X104360345Y-98013344D01*
X104195872Y-98013344D01*
X104198829Y-97961026D01*
X104228985Y-97884995D01*
X104270131Y-97833612D01*
X104295052Y-97811397D01*
X104319448Y-97796798D01*
X104351191Y-97787897D01*
X104398152Y-97782775D01*
X104468204Y-97779515D01*
X104495990Y-97778577D01*
X104670394Y-97772879D01*
X104670138Y-97720091D01*
X104663384Y-97664603D01*
X104638964Y-97631052D01*
X104589630Y-97609618D01*
X104588306Y-97609236D01*
X104518360Y-97600808D01*
X104449914Y-97611816D01*
X104399047Y-97638585D01*
X104378637Y-97651803D01*
X104356654Y-97649974D01*
X104322826Y-97630824D01*
X104302961Y-97617308D01*
X104264106Y-97588432D01*
X104240038Y-97566786D01*
X104236176Y-97560589D01*
X104252079Y-97528519D01*
X104299065Y-97490219D01*
X104319473Y-97477297D01*
X104378143Y-97455041D01*
X104457212Y-97442432D01*
X104545041Y-97439600D01*
X104629992Y-97446673D01*
G37*
X104629992Y-97446673D02*
X104700427Y-97463780D01*
X104720787Y-97472844D01*
X104760253Y-97496583D01*
X104790541Y-97523321D01*
X104812952Y-97557699D01*
X104828786Y-97604360D01*
X104839343Y-97667946D01*
X104845924Y-97753099D01*
X104849828Y-97864462D01*
X104851310Y-97938849D01*
X104856765Y-98260526D01*
X104763580Y-98260526D01*
X104707047Y-98258156D01*
X104677922Y-98250055D01*
X104670394Y-98236451D01*
X104666420Y-98221741D01*
X104648652Y-98224554D01*
X104624440Y-98236348D01*
X104563828Y-98254427D01*
X104485929Y-98259299D01*
X104403995Y-98251330D01*
X104331281Y-98230889D01*
X104324759Y-98228051D01*
X104258302Y-98181365D01*
X104214491Y-98116464D01*
X104194332Y-98040600D01*
X104195872Y-98013344D01*
X104360345Y-98013344D01*
X104374837Y-98050024D01*
X104417805Y-98076309D01*
X104487129Y-98090417D01*
X104524177Y-98092290D01*
X104585919Y-98087494D01*
X104626960Y-98068858D01*
X104636973Y-98060000D01*
X104664100Y-98011806D01*
X104670394Y-97968092D01*
X104670394Y-97909605D01*
X104588930Y-97909605D01*
X104494234Y-97914432D01*
X104427813Y-97929613D01*
X104385846Y-97956200D01*
X104376449Y-97968052D01*
X104360345Y-98013344D01*
X104195872Y-98013344D01*
X104198829Y-97961026D01*
X104228985Y-97884995D01*
X104270131Y-97833612D01*
X104295052Y-97811397D01*
X104319448Y-97796798D01*
X104351191Y-97787897D01*
X104398152Y-97782775D01*
X104468204Y-97779515D01*
X104495990Y-97778577D01*
X104670394Y-97772879D01*
X104670138Y-97720091D01*
X104663384Y-97664603D01*
X104638964Y-97631052D01*
X104589630Y-97609618D01*
X104588306Y-97609236D01*
X104518360Y-97600808D01*
X104449914Y-97611816D01*
X104399047Y-97638585D01*
X104378637Y-97651803D01*
X104356654Y-97649974D01*
X104322826Y-97630824D01*
X104302961Y-97617308D01*
X104264106Y-97588432D01*
X104240038Y-97566786D01*
X104236176Y-97560589D01*
X104252079Y-97528519D01*
X104299065Y-97490219D01*
X104319473Y-97477297D01*
X104378143Y-97455041D01*
X104457212Y-97442432D01*
X104545041Y-97439600D01*
X104629992Y-97446673D01*
G36*
X105423167Y-97441447D02*
G01*
X105487408Y-97454112D01*
X105523980Y-97472864D01*
X105562453Y-97504017D01*
X105507717Y-97573127D01*
X105473969Y-97614979D01*
X105451053Y-97635398D01*
X105428279Y-97638517D01*
X105394956Y-97628472D01*
X105379314Y-97622789D01*
X105315542Y-97614404D01*
X105257140Y-97632378D01*
X105214264Y-97672982D01*
X105207299Y-97685929D01*
X105199713Y-97720224D01*
X105193859Y-97783427D01*
X105190011Y-97871060D01*
X105188443Y-97978640D01*
X105188421Y-97993944D01*
X105188421Y-98260526D01*
X105004605Y-98260526D01*
X105004605Y-97441710D01*
X105096513Y-97441710D01*
X105149507Y-97443094D01*
X105177115Y-97449252D01*
X105187324Y-97463194D01*
X105188421Y-97476344D01*
X105188421Y-97510978D01*
X105232450Y-97476344D01*
X105282937Y-97452716D01*
X105350760Y-97441033D01*
X105423167Y-97441447D01*
G37*
X105423167Y-97441447D02*
X105487408Y-97454112D01*
X105523980Y-97472864D01*
X105562453Y-97504017D01*
X105507717Y-97573127D01*
X105473969Y-97614979D01*
X105451053Y-97635398D01*
X105428279Y-97638517D01*
X105394956Y-97628472D01*
X105379314Y-97622789D01*
X105315542Y-97614404D01*
X105257140Y-97632378D01*
X105214264Y-97672982D01*
X105207299Y-97685929D01*
X105199713Y-97720224D01*
X105193859Y-97783427D01*
X105190011Y-97871060D01*
X105188443Y-97978640D01*
X105188421Y-97993944D01*
X105188421Y-98260526D01*
X105004605Y-98260526D01*
X105004605Y-97441710D01*
X105096513Y-97441710D01*
X105149507Y-97443094D01*
X105177115Y-97449252D01*
X105187324Y-97463194D01*
X105188421Y-97476344D01*
X105188421Y-97510978D01*
X105232450Y-97476344D01*
X105282937Y-97452716D01*
X105350760Y-97441033D01*
X105423167Y-97441447D01*
G36*
X105951193Y-97446078D02*
G01*
X106031068Y-97466845D01*
X106097962Y-97509705D01*
X106130351Y-97541723D01*
X106183445Y-97617413D01*
X106213873Y-97705216D01*
X106224327Y-97813150D01*
X106224380Y-97821875D01*
X106224473Y-97909605D01*
X105719534Y-97909605D01*
X105730298Y-97955559D01*
X105749732Y-97997178D01*
X105783745Y-98040544D01*
X105790860Y-98047467D01*
X105852003Y-98084935D01*
X105921729Y-98091289D01*
X106001987Y-98066638D01*
X106015592Y-98060000D01*
X106057319Y-98039819D01*
X106085268Y-98028321D01*
X106090145Y-98027258D01*
X106107168Y-98037583D01*
X106139633Y-98062845D01*
X106156114Y-98076650D01*
X106190264Y-98108361D01*
X106201478Y-98129299D01*
X106193695Y-98148560D01*
X106189535Y-98153827D01*
X106161357Y-98176878D01*
X106114862Y-98204892D01*
X106082434Y-98221246D01*
X105990385Y-98250059D01*
X105888476Y-98259395D01*
X105791963Y-98248332D01*
X105764934Y-98240412D01*
X105681276Y-98195581D01*
X105619266Y-98126598D01*
X105578545Y-98032794D01*
X105558755Y-97913498D01*
X105556582Y-97851118D01*
X105562926Y-97760298D01*
X105723157Y-97760298D01*
X105738655Y-97767012D01*
X105780312Y-97772280D01*
X105840876Y-97775389D01*
X105881907Y-97775921D01*
X105955711Y-97775408D01*
X106002293Y-97773006D01*
X106027848Y-97767422D01*
X106038569Y-97757361D01*
X106040657Y-97742763D01*
X106026331Y-97697796D01*
X105990262Y-97653353D01*
X105942815Y-97619242D01*
X105895349Y-97605288D01*
X105830879Y-97617666D01*
X105775070Y-97653452D01*
X105736374Y-97705033D01*
X105723157Y-97760298D01*
X105562926Y-97760298D01*
X105565821Y-97718866D01*
X105594336Y-97613498D01*
X105642729Y-97534178D01*
X105711604Y-97480071D01*
X105801565Y-97450343D01*
X105850300Y-97444618D01*
X105951193Y-97446078D01*
G37*
X105951193Y-97446078D02*
X106031068Y-97466845D01*
X106097962Y-97509705D01*
X106130351Y-97541723D01*
X106183445Y-97617413D01*
X106213873Y-97705216D01*
X106224327Y-97813150D01*
X106224380Y-97821875D01*
X106224473Y-97909605D01*
X105719534Y-97909605D01*
X105730298Y-97955559D01*
X105749732Y-97997178D01*
X105783745Y-98040544D01*
X105790860Y-98047467D01*
X105852003Y-98084935D01*
X105921729Y-98091289D01*
X106001987Y-98066638D01*
X106015592Y-98060000D01*
X106057319Y-98039819D01*
X106085268Y-98028321D01*
X106090145Y-98027258D01*
X106107168Y-98037583D01*
X106139633Y-98062845D01*
X106156114Y-98076650D01*
X106190264Y-98108361D01*
X106201478Y-98129299D01*
X106193695Y-98148560D01*
X106189535Y-98153827D01*
X106161357Y-98176878D01*
X106114862Y-98204892D01*
X106082434Y-98221246D01*
X105990385Y-98250059D01*
X105888476Y-98259395D01*
X105791963Y-98248332D01*
X105764934Y-98240412D01*
X105681276Y-98195581D01*
X105619266Y-98126598D01*
X105578545Y-98032794D01*
X105558755Y-97913498D01*
X105556582Y-97851118D01*
X105562926Y-97760298D01*
X105723157Y-97760298D01*
X105738655Y-97767012D01*
X105780312Y-97772280D01*
X105840876Y-97775389D01*
X105881907Y-97775921D01*
X105955711Y-97775408D01*
X106002293Y-97773006D01*
X106027848Y-97767422D01*
X106038569Y-97757361D01*
X106040657Y-97742763D01*
X106026331Y-97697796D01*
X105990262Y-97653353D01*
X105942815Y-97619242D01*
X105895349Y-97605288D01*
X105830879Y-97617666D01*
X105775070Y-97653452D01*
X105736374Y-97705033D01*
X105723157Y-97760298D01*
X105562926Y-97760298D01*
X105565821Y-97718866D01*
X105594336Y-97613498D01*
X105642729Y-97534178D01*
X105711604Y-97480071D01*
X105801565Y-97450343D01*
X105850300Y-97444618D01*
X105951193Y-97446078D01*
G36*
X99876784Y-96197104D02*
G01*
X99964205Y-96235754D01*
X100030570Y-96300290D01*
X100075976Y-96390812D01*
X100100518Y-96507418D01*
X100102277Y-96525624D01*
X100103656Y-96653984D01*
X100085784Y-96766496D01*
X100049750Y-96857688D01*
X100030455Y-96887022D01*
X99963245Y-96949106D01*
X99877650Y-96989316D01*
X99781890Y-97006003D01*
X99684187Y-96997517D01*
X99609917Y-96971380D01*
X99546047Y-96927335D01*
X99493846Y-96869587D01*
X99492943Y-96868236D01*
X99471744Y-96832593D01*
X99457967Y-96796752D01*
X99449624Y-96751519D01*
X99444727Y-96687701D01*
X99442569Y-96635368D01*
X99441671Y-96587910D01*
X99608743Y-96587910D01*
X99610376Y-96635154D01*
X99616304Y-96698046D01*
X99626761Y-96738407D01*
X99645619Y-96767122D01*
X99663281Y-96783896D01*
X99725894Y-96819016D01*
X99791408Y-96823710D01*
X99852421Y-96798440D01*
X99882928Y-96770124D01*
X99904911Y-96741589D01*
X99917769Y-96714284D01*
X99923412Y-96678750D01*
X99923751Y-96625524D01*
X99922012Y-96576506D01*
X99918271Y-96506482D01*
X99912341Y-96461064D01*
X99901653Y-96431440D01*
X99883639Y-96408797D01*
X99869363Y-96395855D01*
X99809651Y-96361860D01*
X99745234Y-96360165D01*
X99691219Y-96380301D01*
X99645140Y-96422352D01*
X99617689Y-96491428D01*
X99608743Y-96587910D01*
X99441671Y-96587910D01*
X99440599Y-96531299D01*
X99443964Y-96453468D01*
X99454045Y-96394930D01*
X99472226Y-96348737D01*
X99499890Y-96307942D01*
X99510146Y-96295828D01*
X99574278Y-96235474D01*
X99643066Y-96200220D01*
X99727189Y-96185450D01*
X99768209Y-96184243D01*
X99876784Y-96197104D01*
G37*
X99876784Y-96197104D02*
X99964205Y-96235754D01*
X100030570Y-96300290D01*
X100075976Y-96390812D01*
X100100518Y-96507418D01*
X100102277Y-96525624D01*
X100103656Y-96653984D01*
X100085784Y-96766496D01*
X100049750Y-96857688D01*
X100030455Y-96887022D01*
X99963245Y-96949106D01*
X99877650Y-96989316D01*
X99781890Y-97006003D01*
X99684187Y-96997517D01*
X99609917Y-96971380D01*
X99546047Y-96927335D01*
X99493846Y-96869587D01*
X99492943Y-96868236D01*
X99471744Y-96832593D01*
X99457967Y-96796752D01*
X99449624Y-96751519D01*
X99444727Y-96687701D01*
X99442569Y-96635368D01*
X99441671Y-96587910D01*
X99608743Y-96587910D01*
X99610376Y-96635154D01*
X99616304Y-96698046D01*
X99626761Y-96738407D01*
X99645619Y-96767122D01*
X99663281Y-96783896D01*
X99725894Y-96819016D01*
X99791408Y-96823710D01*
X99852421Y-96798440D01*
X99882928Y-96770124D01*
X99904911Y-96741589D01*
X99917769Y-96714284D01*
X99923412Y-96678750D01*
X99923751Y-96625524D01*
X99922012Y-96576506D01*
X99918271Y-96506482D01*
X99912341Y-96461064D01*
X99901653Y-96431440D01*
X99883639Y-96408797D01*
X99869363Y-96395855D01*
X99809651Y-96361860D01*
X99745234Y-96360165D01*
X99691219Y-96380301D01*
X99645140Y-96422352D01*
X99617689Y-96491428D01*
X99608743Y-96587910D01*
X99441671Y-96587910D01*
X99440599Y-96531299D01*
X99443964Y-96453468D01*
X99454045Y-96394930D01*
X99472226Y-96348737D01*
X99499890Y-96307942D01*
X99510146Y-96295828D01*
X99574278Y-96235474D01*
X99643066Y-96200220D01*
X99727189Y-96185450D01*
X99768209Y-96184243D01*
X99876784Y-96197104D01*
G36*
X101447018Y-96207027D02*
G01*
X101463670Y-96214866D01*
X101521305Y-96257086D01*
X101575805Y-96318700D01*
X101616499Y-96386543D01*
X101628074Y-96417734D01*
X101638634Y-96473449D01*
X101644931Y-96540781D01*
X101645696Y-96568585D01*
X101645789Y-96656316D01*
X101140850Y-96656316D01*
X101151613Y-96702270D01*
X101178033Y-96756620D01*
X101224222Y-96803591D01*
X101279172Y-96833848D01*
X101314189Y-96840131D01*
X101361677Y-96832506D01*
X101418335Y-96813383D01*
X101437582Y-96804584D01*
X101508759Y-96769036D01*
X101569502Y-96815367D01*
X101604552Y-96846703D01*
X101623202Y-96872567D01*
X101624147Y-96880158D01*
X101607485Y-96898556D01*
X101570970Y-96926515D01*
X101537828Y-96948327D01*
X101448393Y-96987537D01*
X101348129Y-97005285D01*
X101248754Y-97000670D01*
X101169539Y-96976551D01*
X101087880Y-96924884D01*
X101029849Y-96856856D01*
X100993546Y-96768843D01*
X100977072Y-96657216D01*
X100975611Y-96606138D01*
X100981457Y-96489091D01*
X100982175Y-96485686D01*
X101149489Y-96485686D01*
X101154097Y-96496662D01*
X101173036Y-96502715D01*
X101212098Y-96505310D01*
X101277077Y-96505910D01*
X101302097Y-96505921D01*
X101378221Y-96505014D01*
X101426496Y-96501720D01*
X101452460Y-96495181D01*
X101461648Y-96484537D01*
X101461973Y-96481119D01*
X101451487Y-96453956D01*
X101425242Y-96415903D01*
X101413959Y-96402579D01*
X101372072Y-96364896D01*
X101328409Y-96350080D01*
X101304885Y-96348842D01*
X101241243Y-96364329D01*
X101187873Y-96405930D01*
X101154019Y-96466353D01*
X101153419Y-96468322D01*
X101149489Y-96485686D01*
X100982175Y-96485686D01*
X101000899Y-96396928D01*
X101035922Y-96323190D01*
X101078756Y-96270848D01*
X101157948Y-96214092D01*
X101251040Y-96183762D01*
X101350055Y-96181021D01*
X101447018Y-96207027D01*
G37*
X101447018Y-96207027D02*
X101463670Y-96214866D01*
X101521305Y-96257086D01*
X101575805Y-96318700D01*
X101616499Y-96386543D01*
X101628074Y-96417734D01*
X101638634Y-96473449D01*
X101644931Y-96540781D01*
X101645696Y-96568585D01*
X101645789Y-96656316D01*
X101140850Y-96656316D01*
X101151613Y-96702270D01*
X101178033Y-96756620D01*
X101224222Y-96803591D01*
X101279172Y-96833848D01*
X101314189Y-96840131D01*
X101361677Y-96832506D01*
X101418335Y-96813383D01*
X101437582Y-96804584D01*
X101508759Y-96769036D01*
X101569502Y-96815367D01*
X101604552Y-96846703D01*
X101623202Y-96872567D01*
X101624147Y-96880158D01*
X101607485Y-96898556D01*
X101570970Y-96926515D01*
X101537828Y-96948327D01*
X101448393Y-96987537D01*
X101348129Y-97005285D01*
X101248754Y-97000670D01*
X101169539Y-96976551D01*
X101087880Y-96924884D01*
X101029849Y-96856856D01*
X100993546Y-96768843D01*
X100977072Y-96657216D01*
X100975611Y-96606138D01*
X100981457Y-96489091D01*
X100982175Y-96485686D01*
X101149489Y-96485686D01*
X101154097Y-96496662D01*
X101173036Y-96502715D01*
X101212098Y-96505310D01*
X101277077Y-96505910D01*
X101302097Y-96505921D01*
X101378221Y-96505014D01*
X101426496Y-96501720D01*
X101452460Y-96495181D01*
X101461648Y-96484537D01*
X101461973Y-96481119D01*
X101451487Y-96453956D01*
X101425242Y-96415903D01*
X101413959Y-96402579D01*
X101372072Y-96364896D01*
X101328409Y-96350080D01*
X101304885Y-96348842D01*
X101241243Y-96364329D01*
X101187873Y-96405930D01*
X101154019Y-96466353D01*
X101153419Y-96468322D01*
X101149489Y-96485686D01*
X100982175Y-96485686D01*
X101000899Y-96396928D01*
X101035922Y-96323190D01*
X101078756Y-96270848D01*
X101157948Y-96214092D01*
X101251040Y-96183762D01*
X101350055Y-96181021D01*
X101447018Y-96207027D01*
G36*
X103268628Y-96185547D02*
G01*
X103331908Y-96197548D01*
X103397557Y-96222648D01*
X103404572Y-96225848D01*
X103454356Y-96252026D01*
X103488834Y-96276353D01*
X103499978Y-96291937D01*
X103489366Y-96317353D01*
X103463588Y-96354853D01*
X103452146Y-96368852D01*
X103404992Y-96423954D01*
X103344201Y-96388086D01*
X103286347Y-96364192D01*
X103219500Y-96351420D01*
X103155394Y-96350613D01*
X103105764Y-96362615D01*
X103093854Y-96370105D01*
X103071172Y-96404450D01*
X103068416Y-96444013D01*
X103085388Y-96474920D01*
X103095427Y-96480913D01*
X103125510Y-96488357D01*
X103178389Y-96497106D01*
X103243575Y-96505467D01*
X103255600Y-96506778D01*
X103360297Y-96524888D01*
X103436232Y-96555651D01*
X103486592Y-96601907D01*
X103514564Y-96666497D01*
X103523278Y-96745387D01*
X103511240Y-96835065D01*
X103472151Y-96905486D01*
X103405855Y-96956777D01*
X103312194Y-96989067D01*
X103208223Y-97001807D01*
X103123438Y-97001654D01*
X103054665Y-96990083D01*
X103007697Y-96974109D01*
X102948350Y-96946275D01*
X102893506Y-96913973D01*
X102874013Y-96899755D01*
X102823881Y-96858835D01*
X102944803Y-96736477D01*
X103013543Y-96781967D01*
X103082488Y-96816133D01*
X103156111Y-96834004D01*
X103226883Y-96835889D01*
X103287274Y-96822101D01*
X103329757Y-96792949D01*
X103343474Y-96768352D01*
X103341417Y-96728904D01*
X103307330Y-96698737D01*
X103241308Y-96677906D01*
X103168974Y-96668279D01*
X103057652Y-96649910D01*
X102974952Y-96615254D01*
X102919765Y-96563297D01*
X102890988Y-96493023D01*
X102887001Y-96409707D01*
X102906693Y-96322681D01*
X102951589Y-96256902D01*
X103022091Y-96212068D01*
X103118601Y-96187879D01*
X103190100Y-96183137D01*
X103268628Y-96185547D01*
G37*
X103268628Y-96185547D02*
X103331908Y-96197548D01*
X103397557Y-96222648D01*
X103404572Y-96225848D01*
X103454356Y-96252026D01*
X103488834Y-96276353D01*
X103499978Y-96291937D01*
X103489366Y-96317353D01*
X103463588Y-96354853D01*
X103452146Y-96368852D01*
X103404992Y-96423954D01*
X103344201Y-96388086D01*
X103286347Y-96364192D01*
X103219500Y-96351420D01*
X103155394Y-96350613D01*
X103105764Y-96362615D01*
X103093854Y-96370105D01*
X103071172Y-96404450D01*
X103068416Y-96444013D01*
X103085388Y-96474920D01*
X103095427Y-96480913D01*
X103125510Y-96488357D01*
X103178389Y-96497106D01*
X103243575Y-96505467D01*
X103255600Y-96506778D01*
X103360297Y-96524888D01*
X103436232Y-96555651D01*
X103486592Y-96601907D01*
X103514564Y-96666497D01*
X103523278Y-96745387D01*
X103511240Y-96835065D01*
X103472151Y-96905486D01*
X103405855Y-96956777D01*
X103312194Y-96989067D01*
X103208223Y-97001807D01*
X103123438Y-97001654D01*
X103054665Y-96990083D01*
X103007697Y-96974109D01*
X102948350Y-96946275D01*
X102893506Y-96913973D01*
X102874013Y-96899755D01*
X102823881Y-96858835D01*
X102944803Y-96736477D01*
X103013543Y-96781967D01*
X103082488Y-96816133D01*
X103156111Y-96834004D01*
X103226883Y-96835889D01*
X103287274Y-96822101D01*
X103329757Y-96792949D01*
X103343474Y-96768352D01*
X103341417Y-96728904D01*
X103307330Y-96698737D01*
X103241308Y-96677906D01*
X103168974Y-96668279D01*
X103057652Y-96649910D01*
X102974952Y-96615254D01*
X102919765Y-96563297D01*
X102890988Y-96493023D01*
X102887001Y-96409707D01*
X102906693Y-96322681D01*
X102951589Y-96256902D01*
X103022091Y-96212068D01*
X103118601Y-96187879D01*
X103190100Y-96183137D01*
X103268628Y-96185547D01*
G36*
X104061669Y-96198310D02*
G01*
X104146192Y-96244340D01*
X104212321Y-96317006D01*
X104243478Y-96376106D01*
X104256855Y-96428305D01*
X104265522Y-96502719D01*
X104269237Y-96588442D01*
X104267754Y-96674569D01*
X104260831Y-96750193D01*
X104252745Y-96790584D01*
X104225465Y-96845840D01*
X104178220Y-96904530D01*
X104121282Y-96955852D01*
X104064924Y-96989005D01*
X104063550Y-96989531D01*
X103993616Y-97004018D01*
X103910737Y-97004377D01*
X103831977Y-96991188D01*
X103801566Y-96980617D01*
X103723239Y-96936201D01*
X103667143Y-96878007D01*
X103630286Y-96800965D01*
X103609680Y-96700001D01*
X103605018Y-96647116D01*
X103605613Y-96580663D01*
X103784736Y-96580663D01*
X103790770Y-96677630D01*
X103808138Y-96751523D01*
X103835740Y-96798736D01*
X103855404Y-96812237D01*
X103905787Y-96821651D01*
X103965673Y-96818864D01*
X104017449Y-96805316D01*
X104031027Y-96797862D01*
X104066849Y-96754451D01*
X104090493Y-96688014D01*
X104100558Y-96607161D01*
X104095642Y-96520502D01*
X104084655Y-96468349D01*
X104053109Y-96407951D01*
X104003311Y-96370197D01*
X103943337Y-96357143D01*
X103881264Y-96370849D01*
X103833582Y-96404372D01*
X103808525Y-96432031D01*
X103793900Y-96459294D01*
X103786929Y-96496190D01*
X103784833Y-96552750D01*
X103784736Y-96580663D01*
X103605613Y-96580663D01*
X103606282Y-96505994D01*
X103629265Y-96390271D01*
X103673972Y-96299941D01*
X103740405Y-96235000D01*
X103828565Y-96195445D01*
X103847495Y-96190858D01*
X103961266Y-96180090D01*
X104061669Y-96198310D01*
G37*
X104061669Y-96198310D02*
X104146192Y-96244340D01*
X104212321Y-96317006D01*
X104243478Y-96376106D01*
X104256855Y-96428305D01*
X104265522Y-96502719D01*
X104269237Y-96588442D01*
X104267754Y-96674569D01*
X104260831Y-96750193D01*
X104252745Y-96790584D01*
X104225465Y-96845840D01*
X104178220Y-96904530D01*
X104121282Y-96955852D01*
X104064924Y-96989005D01*
X104063550Y-96989531D01*
X103993616Y-97004018D01*
X103910737Y-97004377D01*
X103831977Y-96991188D01*
X103801566Y-96980617D01*
X103723239Y-96936201D01*
X103667143Y-96878007D01*
X103630286Y-96800965D01*
X103609680Y-96700001D01*
X103605018Y-96647116D01*
X103605613Y-96580663D01*
X103784736Y-96580663D01*
X103790770Y-96677630D01*
X103808138Y-96751523D01*
X103835740Y-96798736D01*
X103855404Y-96812237D01*
X103905787Y-96821651D01*
X103965673Y-96818864D01*
X104017449Y-96805316D01*
X104031027Y-96797862D01*
X104066849Y-96754451D01*
X104090493Y-96688014D01*
X104100558Y-96607161D01*
X104095642Y-96520502D01*
X104084655Y-96468349D01*
X104053109Y-96407951D01*
X104003311Y-96370197D01*
X103943337Y-96357143D01*
X103881264Y-96370849D01*
X103833582Y-96404372D01*
X103808525Y-96432031D01*
X103793900Y-96459294D01*
X103786929Y-96496190D01*
X103784833Y-96552750D01*
X103784736Y-96580663D01*
X103605613Y-96580663D01*
X103606282Y-96505994D01*
X103629265Y-96390271D01*
X103673972Y-96299941D01*
X103740405Y-96235000D01*
X103828565Y-96195445D01*
X103847495Y-96190858D01*
X103961266Y-96180090D01*
X104061669Y-96198310D01*
G36*
X104570131Y-96448533D02*
G01*
X104571710Y-96571089D01*
X104577481Y-96664179D01*
X104588991Y-96731651D01*
X104607790Y-96777355D01*
X104635426Y-96805139D01*
X104673448Y-96818854D01*
X104720526Y-96822358D01*
X104769832Y-96818432D01*
X104807283Y-96804089D01*
X104834428Y-96775478D01*
X104852815Y-96728751D01*
X104863993Y-96660058D01*
X104869511Y-96565550D01*
X104870921Y-96448533D01*
X104870921Y-96188421D01*
X105054736Y-96188421D01*
X105054736Y-96990526D01*
X104962828Y-96990526D01*
X104907422Y-96988281D01*
X104878891Y-96980396D01*
X104870921Y-96965428D01*
X104866120Y-96952097D01*
X104847014Y-96954917D01*
X104808504Y-96973783D01*
X104720239Y-97002887D01*
X104626623Y-97000825D01*
X104536921Y-96969221D01*
X104494204Y-96944257D01*
X104461621Y-96917226D01*
X104437817Y-96883405D01*
X104421439Y-96838068D01*
X104411131Y-96776489D01*
X104405541Y-96693943D01*
X104403312Y-96585705D01*
X104403026Y-96502004D01*
X104403026Y-96188421D01*
X104570131Y-96188421D01*
X104570131Y-96448533D01*
G37*
X104570131Y-96448533D02*
X104571710Y-96571089D01*
X104577481Y-96664179D01*
X104588991Y-96731651D01*
X104607790Y-96777355D01*
X104635426Y-96805139D01*
X104673448Y-96818854D01*
X104720526Y-96822358D01*
X104769832Y-96818432D01*
X104807283Y-96804089D01*
X104834428Y-96775478D01*
X104852815Y-96728751D01*
X104863993Y-96660058D01*
X104869511Y-96565550D01*
X104870921Y-96448533D01*
X104870921Y-96188421D01*
X105054736Y-96188421D01*
X105054736Y-96990526D01*
X104962828Y-96990526D01*
X104907422Y-96988281D01*
X104878891Y-96980396D01*
X104870921Y-96965428D01*
X104866120Y-96952097D01*
X104847014Y-96954917D01*
X104808504Y-96973783D01*
X104720239Y-97002887D01*
X104626623Y-97000825D01*
X104536921Y-96969221D01*
X104494204Y-96944257D01*
X104461621Y-96917226D01*
X104437817Y-96883405D01*
X104421439Y-96838068D01*
X104411131Y-96776489D01*
X104405541Y-96693943D01*
X104403312Y-96585705D01*
X104403026Y-96502004D01*
X104403026Y-96188421D01*
X104570131Y-96188421D01*
X104570131Y-96448533D01*
G36*
X106196576Y-96195419D02*
G01*
X106293395Y-96236549D01*
X106323890Y-96256571D01*
X106362865Y-96287340D01*
X106387331Y-96311533D01*
X106391578Y-96319413D01*
X106379584Y-96336899D01*
X106348887Y-96366570D01*
X106324312Y-96387279D01*
X106257046Y-96441336D01*
X106203930Y-96396642D01*
X106162884Y-96367789D01*
X106122863Y-96357829D01*
X106077059Y-96360261D01*
X106004324Y-96378345D01*
X105954256Y-96415881D01*
X105923829Y-96476562D01*
X105910017Y-96564081D01*
X105910013Y-96564136D01*
X105911208Y-96661958D01*
X105929772Y-96733730D01*
X105966804Y-96782595D01*
X105992050Y-96799143D01*
X106059097Y-96819749D01*
X106130709Y-96819762D01*
X106193015Y-96799768D01*
X106207763Y-96790000D01*
X106244750Y-96765047D01*
X106273668Y-96760958D01*
X106304856Y-96779530D01*
X106339336Y-96812887D01*
X106393912Y-96869196D01*
X106333318Y-96919142D01*
X106239698Y-96975513D01*
X106134125Y-97003293D01*
X106023798Y-97001282D01*
X105951343Y-96982862D01*
X105866656Y-96937310D01*
X105798927Y-96865650D01*
X105768157Y-96815066D01*
X105743236Y-96742488D01*
X105730766Y-96650569D01*
X105730670Y-96550948D01*
X105742870Y-96455267D01*
X105767290Y-96375169D01*
X105771136Y-96366956D01*
X105828093Y-96286413D01*
X105905209Y-96227771D01*
X105996390Y-96192247D01*
X106095543Y-96181057D01*
X106196576Y-96195419D01*
G37*
X106196576Y-96195419D02*
X106293395Y-96236549D01*
X106323890Y-96256571D01*
X106362865Y-96287340D01*
X106387331Y-96311533D01*
X106391578Y-96319413D01*
X106379584Y-96336899D01*
X106348887Y-96366570D01*
X106324312Y-96387279D01*
X106257046Y-96441336D01*
X106203930Y-96396642D01*
X106162884Y-96367789D01*
X106122863Y-96357829D01*
X106077059Y-96360261D01*
X106004324Y-96378345D01*
X105954256Y-96415881D01*
X105923829Y-96476562D01*
X105910017Y-96564081D01*
X105910013Y-96564136D01*
X105911208Y-96661958D01*
X105929772Y-96733730D01*
X105966804Y-96782595D01*
X105992050Y-96799143D01*
X106059097Y-96819749D01*
X106130709Y-96819762D01*
X106193015Y-96799768D01*
X106207763Y-96790000D01*
X106244750Y-96765047D01*
X106273668Y-96760958D01*
X106304856Y-96779530D01*
X106339336Y-96812887D01*
X106393912Y-96869196D01*
X106333318Y-96919142D01*
X106239698Y-96975513D01*
X106134125Y-97003293D01*
X106023798Y-97001282D01*
X105951343Y-96982862D01*
X105866656Y-96937310D01*
X105798927Y-96865650D01*
X105768157Y-96815066D01*
X105743236Y-96742488D01*
X105730766Y-96650569D01*
X105730670Y-96550948D01*
X105742870Y-96455267D01*
X105767290Y-96375169D01*
X105771136Y-96366956D01*
X105828093Y-96286413D01*
X105905209Y-96227771D01*
X105996390Y-96192247D01*
X106095543Y-96181057D01*
X106196576Y-96195419D01*
G36*
X106808784Y-96185554D02*
G01*
X106851574Y-96195949D01*
X106933609Y-96234013D01*
X107003757Y-96292149D01*
X107052305Y-96361852D01*
X107058975Y-96377502D01*
X107068124Y-96418496D01*
X107074529Y-96479138D01*
X107076710Y-96540430D01*
X107076710Y-96656316D01*
X106834407Y-96656316D01*
X106734471Y-96656693D01*
X106664069Y-96658987D01*
X106619313Y-96664938D01*
X106596315Y-96676285D01*
X106591189Y-96694771D01*
X106600048Y-96722136D01*
X106615917Y-96754155D01*
X106660184Y-96807592D01*
X106721699Y-96834215D01*
X106796885Y-96833347D01*
X106882053Y-96804371D01*
X106955659Y-96768611D01*
X107016734Y-96816904D01*
X107077810Y-96865197D01*
X107020351Y-96918285D01*
X106943641Y-96968445D01*
X106849302Y-96998688D01*
X106747827Y-97007151D01*
X106649711Y-96991974D01*
X106633881Y-96986824D01*
X106547647Y-96941791D01*
X106483501Y-96874652D01*
X106440091Y-96783405D01*
X106416064Y-96666044D01*
X106415784Y-96663529D01*
X106413633Y-96535627D01*
X106422329Y-96489997D01*
X106592105Y-96489997D01*
X106607697Y-96497013D01*
X106650029Y-96502388D01*
X106712434Y-96505457D01*
X106751981Y-96505921D01*
X106825728Y-96505630D01*
X106871840Y-96503783D01*
X106896100Y-96498912D01*
X106904294Y-96489555D01*
X106902206Y-96474245D01*
X106900455Y-96468322D01*
X106870560Y-96412668D01*
X106823542Y-96367815D01*
X106782049Y-96348105D01*
X106726926Y-96349295D01*
X106671068Y-96373875D01*
X106624212Y-96414570D01*
X106596094Y-96464108D01*
X106592105Y-96489997D01*
X106422329Y-96489997D01*
X106435074Y-96423133D01*
X106477611Y-96328727D01*
X106538747Y-96255088D01*
X106615985Y-96204893D01*
X106706830Y-96180822D01*
X106808784Y-96185554D01*
G37*
X106808784Y-96185554D02*
X106851574Y-96195949D01*
X106933609Y-96234013D01*
X107003757Y-96292149D01*
X107052305Y-96361852D01*
X107058975Y-96377502D01*
X107068124Y-96418496D01*
X107074529Y-96479138D01*
X107076710Y-96540430D01*
X107076710Y-96656316D01*
X106834407Y-96656316D01*
X106734471Y-96656693D01*
X106664069Y-96658987D01*
X106619313Y-96664938D01*
X106596315Y-96676285D01*
X106591189Y-96694771D01*
X106600048Y-96722136D01*
X106615917Y-96754155D01*
X106660184Y-96807592D01*
X106721699Y-96834215D01*
X106796885Y-96833347D01*
X106882053Y-96804371D01*
X106955659Y-96768611D01*
X107016734Y-96816904D01*
X107077810Y-96865197D01*
X107020351Y-96918285D01*
X106943641Y-96968445D01*
X106849302Y-96998688D01*
X106747827Y-97007151D01*
X106649711Y-96991974D01*
X106633881Y-96986824D01*
X106547647Y-96941791D01*
X106483501Y-96874652D01*
X106440091Y-96783405D01*
X106416064Y-96666044D01*
X106415784Y-96663529D01*
X106413633Y-96535627D01*
X106422329Y-96489997D01*
X106592105Y-96489997D01*
X106607697Y-96497013D01*
X106650029Y-96502388D01*
X106712434Y-96505457D01*
X106751981Y-96505921D01*
X106825728Y-96505630D01*
X106871840Y-96503783D01*
X106896100Y-96498912D01*
X106904294Y-96489555D01*
X106902206Y-96474245D01*
X106900455Y-96468322D01*
X106870560Y-96412668D01*
X106823542Y-96367815D01*
X106782049Y-96348105D01*
X106726926Y-96349295D01*
X106671068Y-96373875D01*
X106624212Y-96414570D01*
X106596094Y-96464108D01*
X106592105Y-96489997D01*
X106422329Y-96489997D01*
X106435074Y-96423133D01*
X106477611Y-96328727D01*
X106538747Y-96255088D01*
X106615985Y-96204893D01*
X106706830Y-96180822D01*
X106808784Y-96185554D01*
G36*
X102247957Y-96202226D02*
G01*
X102289546Y-96222090D01*
X102329825Y-96250784D01*
X102360510Y-96283809D01*
X102382861Y-96325931D01*
X102398136Y-96381915D01*
X102407592Y-96456528D01*
X102412487Y-96554535D01*
X102414081Y-96680702D01*
X102414106Y-96693914D01*
X102414473Y-96990526D01*
X102230657Y-96990526D01*
X102230657Y-96717081D01*
X102230527Y-96615777D01*
X102229621Y-96542353D01*
X102227173Y-96491271D01*
X102222414Y-96456990D01*
X102214574Y-96433971D01*
X102202885Y-96416673D01*
X102186602Y-96399581D01*
X102129634Y-96362857D01*
X102067445Y-96356042D01*
X102008199Y-96379261D01*
X101987595Y-96396543D01*
X101972470Y-96412791D01*
X101961610Y-96430191D01*
X101954310Y-96454212D01*
X101949863Y-96490322D01*
X101947564Y-96543988D01*
X101946704Y-96620680D01*
X101946578Y-96714043D01*
X101946578Y-96990526D01*
X101762763Y-96990526D01*
X101762763Y-96188421D01*
X101854671Y-96188421D01*
X101909851Y-96190603D01*
X101938320Y-96198351D01*
X101946575Y-96213468D01*
X101946578Y-96213916D01*
X101950408Y-96228720D01*
X101967301Y-96227040D01*
X102000888Y-96210773D01*
X102077063Y-96186840D01*
X102164200Y-96184178D01*
X102247957Y-96202226D01*
G37*
X102247957Y-96202226D02*
X102289546Y-96222090D01*
X102329825Y-96250784D01*
X102360510Y-96283809D01*
X102382861Y-96325931D01*
X102398136Y-96381915D01*
X102407592Y-96456528D01*
X102412487Y-96554535D01*
X102414081Y-96680702D01*
X102414106Y-96693914D01*
X102414473Y-96990526D01*
X102230657Y-96990526D01*
X102230657Y-96717081D01*
X102230527Y-96615777D01*
X102229621Y-96542353D01*
X102227173Y-96491271D01*
X102222414Y-96456990D01*
X102214574Y-96433971D01*
X102202885Y-96416673D01*
X102186602Y-96399581D01*
X102129634Y-96362857D01*
X102067445Y-96356042D01*
X102008199Y-96379261D01*
X101987595Y-96396543D01*
X101972470Y-96412791D01*
X101961610Y-96430191D01*
X101954310Y-96454212D01*
X101949863Y-96490322D01*
X101947564Y-96543988D01*
X101946704Y-96620680D01*
X101946578Y-96714043D01*
X101946578Y-96990526D01*
X101762763Y-96990526D01*
X101762763Y-96188421D01*
X101854671Y-96188421D01*
X101909851Y-96190603D01*
X101938320Y-96198351D01*
X101946575Y-96213468D01*
X101946578Y-96213916D01*
X101950408Y-96228720D01*
X101967301Y-96227040D01*
X102000888Y-96210773D01*
X102077063Y-96186840D01*
X102164200Y-96184178D01*
X102247957Y-96202226D01*
G36*
X105641388Y-96187645D02*
G01*
X105698865Y-96205206D01*
X105735872Y-96227395D01*
X105747927Y-96244942D01*
X105744609Y-96265742D01*
X105723079Y-96298419D01*
X105704874Y-96321562D01*
X105667344Y-96363402D01*
X105639148Y-96381005D01*
X105615111Y-96379856D01*
X105543808Y-96361710D01*
X105491442Y-96362534D01*
X105448918Y-96383098D01*
X105434642Y-96395134D01*
X105388947Y-96437483D01*
X105388947Y-96990526D01*
X105205131Y-96990526D01*
X105205131Y-96188421D01*
X105297039Y-96188421D01*
X105352219Y-96190603D01*
X105380688Y-96198351D01*
X105388943Y-96213468D01*
X105388947Y-96213916D01*
X105392845Y-96229749D01*
X105410474Y-96227684D01*
X105434901Y-96216261D01*
X105485350Y-96195005D01*
X105526316Y-96182216D01*
X105579028Y-96178938D01*
X105641388Y-96187645D01*
G37*
X105641388Y-96187645D02*
X105698865Y-96205206D01*
X105735872Y-96227395D01*
X105747927Y-96244942D01*
X105744609Y-96265742D01*
X105723079Y-96298419D01*
X105704874Y-96321562D01*
X105667344Y-96363402D01*
X105639148Y-96381005D01*
X105615111Y-96379856D01*
X105543808Y-96361710D01*
X105491442Y-96362534D01*
X105448918Y-96383098D01*
X105434642Y-96395134D01*
X105388947Y-96437483D01*
X105388947Y-96990526D01*
X105205131Y-96990526D01*
X105205131Y-96188421D01*
X105297039Y-96188421D01*
X105352219Y-96190603D01*
X105380688Y-96198351D01*
X105388943Y-96213468D01*
X105388947Y-96213916D01*
X105392845Y-96229749D01*
X105410474Y-96227684D01*
X105434901Y-96216261D01*
X105485350Y-96195005D01*
X105526316Y-96182216D01*
X105579028Y-96178938D01*
X105641388Y-96187645D01*
G36*
X103750964Y-90648576D02*
G01*
X103826513Y-91049322D01*
X104384041Y-91279154D01*
X104718465Y-91051748D01*
X104812122Y-90988431D01*
X104896782Y-90931896D01*
X104968495Y-90884727D01*
X105023311Y-90849502D01*
X105057280Y-90828805D01*
X105066530Y-90824342D01*
X105083195Y-90835820D01*
X105118806Y-90867551D01*
X105169371Y-90915483D01*
X105230900Y-90975562D01*
X105299399Y-91043733D01*
X105370879Y-91115945D01*
X105441347Y-91188142D01*
X105506811Y-91256273D01*
X105563280Y-91316283D01*
X105606763Y-91364119D01*
X105633268Y-91395727D01*
X105639605Y-91406305D01*
X105630486Y-91425806D01*
X105604920Y-91468531D01*
X105565597Y-91530298D01*
X105515203Y-91606931D01*
X105456427Y-91694248D01*
X105422368Y-91744052D01*
X105360289Y-91834993D01*
X105305126Y-91917059D01*
X105259554Y-91986163D01*
X105226250Y-92038222D01*
X105207890Y-92069150D01*
X105205131Y-92075650D01*
X105211385Y-92094121D01*
X105228434Y-92137172D01*
X105253703Y-92198749D01*
X105284622Y-92272799D01*
X105318618Y-92353270D01*
X105353118Y-92434107D01*
X105385551Y-92509258D01*
X105413343Y-92572671D01*
X105433923Y-92618293D01*
X105444719Y-92640069D01*
X105445356Y-92640926D01*
X105462307Y-92645084D01*
X105507451Y-92654361D01*
X105576110Y-92667844D01*
X105663602Y-92684621D01*
X105765250Y-92703781D01*
X105824556Y-92714830D01*
X105933172Y-92735510D01*
X106031277Y-92755189D01*
X106113909Y-92772789D01*
X106176104Y-92787233D01*
X106212899Y-92797446D01*
X106220296Y-92800686D01*
X106227540Y-92822617D01*
X106233385Y-92872147D01*
X106237835Y-92943485D01*
X106240893Y-93030839D01*
X106242565Y-93128417D01*
X106242853Y-93230426D01*
X106241761Y-93331075D01*
X106239294Y-93424572D01*
X106235456Y-93505125D01*
X106230250Y-93566942D01*
X106223681Y-93604230D01*
X106219741Y-93611993D01*
X106196188Y-93621298D01*
X106146282Y-93634600D01*
X106076623Y-93650337D01*
X105993813Y-93666946D01*
X105964905Y-93672319D01*
X105825531Y-93697848D01*
X105715436Y-93718408D01*
X105630982Y-93734815D01*
X105568530Y-93747887D01*
X105524444Y-93758441D01*
X105495085Y-93767294D01*
X105476815Y-93775263D01*
X105465998Y-93783165D01*
X105464485Y-93784727D01*
X105449377Y-93809886D01*
X105426329Y-93858850D01*
X105397644Y-93925621D01*
X105365622Y-94004205D01*
X105332565Y-94088607D01*
X105300773Y-94172830D01*
X105272549Y-94250879D01*
X105250193Y-94316759D01*
X105236007Y-94364473D01*
X105232293Y-94388027D01*
X105232602Y-94388852D01*
X105245189Y-94408104D01*
X105273744Y-94450463D01*
X105315267Y-94511521D01*
X105366756Y-94586868D01*
X105425211Y-94672096D01*
X105441858Y-94696315D01*
X105501215Y-94784123D01*
X105553447Y-94864238D01*
X105595708Y-94932062D01*
X105625153Y-94982993D01*
X105638937Y-95012431D01*
X105639605Y-95016048D01*
X105628024Y-95035057D01*
X105596024Y-95072714D01*
X105547718Y-95124973D01*
X105487220Y-95187786D01*
X105418644Y-95257106D01*
X105346104Y-95328885D01*
X105273712Y-95399077D01*
X105205584Y-95463635D01*
X105145832Y-95518510D01*
X105098571Y-95559656D01*
X105067913Y-95583026D01*
X105059432Y-95586842D01*
X105039691Y-95577855D01*
X104999274Y-95553616D01*
X104944763Y-95518209D01*
X104902823Y-95489711D01*
X104826829Y-95437418D01*
X104736834Y-95375845D01*
X104646564Y-95314370D01*
X104598032Y-95281469D01*
X104433762Y-95170359D01*
X104295869Y-95244916D01*
X104233049Y-95277578D01*
X104179629Y-95302966D01*
X104143484Y-95317446D01*
X104134284Y-95319460D01*
X104123221Y-95304584D01*
X104101394Y-95262547D01*
X104070434Y-95197227D01*
X104031970Y-95112500D01*
X103987632Y-95012245D01*
X103939047Y-94900339D01*
X103887846Y-94780659D01*
X103835659Y-94657084D01*
X103784113Y-94533491D01*
X103734840Y-94413757D01*
X103689467Y-94301759D01*
X103649625Y-94201377D01*
X103616942Y-94116486D01*
X103593049Y-94050965D01*
X103579574Y-94008690D01*
X103577406Y-93994172D01*
X103594583Y-93975653D01*
X103632190Y-93945590D01*
X103682366Y-93910232D01*
X103686578Y-93907434D01*
X103816264Y-93803625D01*
X103920834Y-93682515D01*
X103999381Y-93547976D01*
X104050999Y-93403882D01*
X104074782Y-93254105D01*
X104069823Y-93102517D01*
X104035217Y-92952992D01*
X103970057Y-92809400D01*
X103950886Y-92777984D01*
X103851174Y-92651125D01*
X103733377Y-92549255D01*
X103601571Y-92472904D01*
X103459833Y-92422602D01*
X103312242Y-92398879D01*
X103162873Y-92402265D01*
X103015803Y-92433288D01*
X102875111Y-92492480D01*
X102744873Y-92580369D01*
X102704586Y-92616042D01*
X102602055Y-92727706D01*
X102527341Y-92845257D01*
X102476090Y-92977020D01*
X102447546Y-93107507D01*
X102440500Y-93254216D01*
X102463996Y-93401653D01*
X102515649Y-93544834D01*
X102593071Y-93678777D01*
X102693875Y-93798498D01*
X102815676Y-93899014D01*
X102831684Y-93909609D01*
X102882398Y-93944306D01*
X102920950Y-93974370D01*
X102939381Y-93993565D01*
X102939649Y-93994172D01*
X102935692Y-94014936D01*
X102920007Y-94062062D01*
X102894222Y-94131673D01*
X102859969Y-94219893D01*
X102818877Y-94322844D01*
X102772576Y-94436650D01*
X102722696Y-94557435D01*
X102670867Y-94681321D01*
X102618719Y-94804432D01*
X102567882Y-94922891D01*
X102519987Y-95032823D01*
X102476662Y-95130349D01*
X102439538Y-95211593D01*
X102410244Y-95272679D01*
X102390412Y-95309730D01*
X102382426Y-95319460D01*
X102358021Y-95311883D01*
X102312358Y-95291560D01*
X102253310Y-95262125D01*
X102220840Y-95244916D01*
X102082947Y-95170359D01*
X101918677Y-95281469D01*
X101834821Y-95338390D01*
X101743013Y-95401030D01*
X101656980Y-95460011D01*
X101613887Y-95489711D01*
X101553277Y-95530410D01*
X101501955Y-95562663D01*
X101466615Y-95582384D01*
X101455137Y-95586554D01*
X101438430Y-95575307D01*
X101401454Y-95543911D01*
X101347795Y-95495624D01*
X101281038Y-95433708D01*
X101204766Y-95361421D01*
X101156527Y-95315008D01*
X101072133Y-95232087D01*
X100999197Y-95157920D01*
X100940669Y-95095680D01*
X100899497Y-95048541D01*
X100878628Y-95019673D01*
X100876626Y-95013815D01*
X100885917Y-94991532D01*
X100911591Y-94946477D01*
X100950800Y-94883211D01*
X101000697Y-94806295D01*
X101058433Y-94720292D01*
X101074851Y-94696315D01*
X101134677Y-94609170D01*
X101188350Y-94530710D01*
X101232870Y-94465345D01*
X101265235Y-94417484D01*
X101282445Y-94391535D01*
X101284107Y-94388852D01*
X101281621Y-94368172D01*
X101268423Y-94322704D01*
X101246814Y-94258444D01*
X101219096Y-94181387D01*
X101187570Y-94097529D01*
X101154537Y-94012866D01*
X101122299Y-93933392D01*
X101093157Y-93865104D01*
X101069412Y-93813997D01*
X101053365Y-93786067D01*
X101052225Y-93784727D01*
X101042412Y-93776745D01*
X101025839Y-93768851D01*
X100998868Y-93760229D01*
X100957861Y-93750062D01*
X100899180Y-93737531D01*
X100819187Y-93721821D01*
X100714245Y-93702113D01*
X100580715Y-93677592D01*
X100551804Y-93672319D01*
X100466118Y-93655764D01*
X100391418Y-93639569D01*
X100334306Y-93625296D01*
X100301383Y-93614508D01*
X100296969Y-93611993D01*
X100289694Y-93589696D01*
X100283781Y-93539869D01*
X100279234Y-93468304D01*
X100276055Y-93380793D01*
X100274251Y-93283128D01*
X100273823Y-93181101D01*
X100274777Y-93080503D01*
X100277116Y-92987127D01*
X100280844Y-92906765D01*
X100285966Y-92845209D01*
X100292484Y-92808250D01*
X100296414Y-92800686D01*
X100318292Y-92793056D01*
X100368109Y-92780642D01*
X100440903Y-92764522D01*
X100531711Y-92745773D01*
X100635569Y-92725471D01*
X100692154Y-92714830D01*
X100799514Y-92694760D01*
X100895254Y-92676580D01*
X100974694Y-92661199D01*
X101033154Y-92649531D01*
X101065955Y-92642488D01*
X101071354Y-92640926D01*
X101080478Y-92623322D01*
X101099765Y-92580918D01*
X101126645Y-92519772D01*
X101158546Y-92445943D01*
X101192898Y-92365489D01*
X101227129Y-92284468D01*
X101258669Y-92208937D01*
X101284946Y-92144955D01*
X101303389Y-92098580D01*
X101311429Y-92075869D01*
X101311578Y-92074876D01*
X101302465Y-92056961D01*
X101276914Y-92015733D01*
X101237612Y-91955291D01*
X101187243Y-91879731D01*
X101128494Y-91793152D01*
X101094342Y-91743421D01*
X101032110Y-91652236D01*
X100976836Y-91569449D01*
X100931218Y-91499249D01*
X100897952Y-91445824D01*
X100879736Y-91413361D01*
X100877105Y-91406083D01*
X100888414Y-91389145D01*
X100919681Y-91352978D01*
X100966910Y-91301635D01*
X101026108Y-91239167D01*
X101093281Y-91169626D01*
X101164434Y-91097065D01*
X101235574Y-91025535D01*
X101302707Y-90959087D01*
X101361839Y-90901774D01*
X101408975Y-90857647D01*
X101440123Y-90830759D01*
X101450543Y-90824342D01*
X101467509Y-90833365D01*
X101508089Y-90858715D01*
X101568337Y-90897810D01*
X101644307Y-90948071D01*
X101732054Y-91006917D01*
X101798244Y-91051748D01*
X102132668Y-91279154D01*
X102411433Y-91164238D01*
X102690197Y-91049322D01*
X102765746Y-90648576D01*
X102841294Y-90247829D01*
X103675415Y-90247829D01*
X103750964Y-90648576D01*
G37*
X103750964Y-90648576D02*
X103826513Y-91049322D01*
X104384041Y-91279154D01*
X104718465Y-91051748D01*
X104812122Y-90988431D01*
X104896782Y-90931896D01*
X104968495Y-90884727D01*
X105023311Y-90849502D01*
X105057280Y-90828805D01*
X105066530Y-90824342D01*
X105083195Y-90835820D01*
X105118806Y-90867551D01*
X105169371Y-90915483D01*
X105230900Y-90975562D01*
X105299399Y-91043733D01*
X105370879Y-91115945D01*
X105441347Y-91188142D01*
X105506811Y-91256273D01*
X105563280Y-91316283D01*
X105606763Y-91364119D01*
X105633268Y-91395727D01*
X105639605Y-91406305D01*
X105630486Y-91425806D01*
X105604920Y-91468531D01*
X105565597Y-91530298D01*
X105515203Y-91606931D01*
X105456427Y-91694248D01*
X105422368Y-91744052D01*
X105360289Y-91834993D01*
X105305126Y-91917059D01*
X105259554Y-91986163D01*
X105226250Y-92038222D01*
X105207890Y-92069150D01*
X105205131Y-92075650D01*
X105211385Y-92094121D01*
X105228434Y-92137172D01*
X105253703Y-92198749D01*
X105284622Y-92272799D01*
X105318618Y-92353270D01*
X105353118Y-92434107D01*
X105385551Y-92509258D01*
X105413343Y-92572671D01*
X105433923Y-92618293D01*
X105444719Y-92640069D01*
X105445356Y-92640926D01*
X105462307Y-92645084D01*
X105507451Y-92654361D01*
X105576110Y-92667844D01*
X105663602Y-92684621D01*
X105765250Y-92703781D01*
X105824556Y-92714830D01*
X105933172Y-92735510D01*
X106031277Y-92755189D01*
X106113909Y-92772789D01*
X106176104Y-92787233D01*
X106212899Y-92797446D01*
X106220296Y-92800686D01*
X106227540Y-92822617D01*
X106233385Y-92872147D01*
X106237835Y-92943485D01*
X106240893Y-93030839D01*
X106242565Y-93128417D01*
X106242853Y-93230426D01*
X106241761Y-93331075D01*
X106239294Y-93424572D01*
X106235456Y-93505125D01*
X106230250Y-93566942D01*
X106223681Y-93604230D01*
X106219741Y-93611993D01*
X106196188Y-93621298D01*
X106146282Y-93634600D01*
X106076623Y-93650337D01*
X105993813Y-93666946D01*
X105964905Y-93672319D01*
X105825531Y-93697848D01*
X105715436Y-93718408D01*
X105630982Y-93734815D01*
X105568530Y-93747887D01*
X105524444Y-93758441D01*
X105495085Y-93767294D01*
X105476815Y-93775263D01*
X105465998Y-93783165D01*
X105464485Y-93784727D01*
X105449377Y-93809886D01*
X105426329Y-93858850D01*
X105397644Y-93925621D01*
X105365622Y-94004205D01*
X105332565Y-94088607D01*
X105300773Y-94172830D01*
X105272549Y-94250879D01*
X105250193Y-94316759D01*
X105236007Y-94364473D01*
X105232293Y-94388027D01*
X105232602Y-94388852D01*
X105245189Y-94408104D01*
X105273744Y-94450463D01*
X105315267Y-94511521D01*
X105366756Y-94586868D01*
X105425211Y-94672096D01*
X105441858Y-94696315D01*
X105501215Y-94784123D01*
X105553447Y-94864238D01*
X105595708Y-94932062D01*
X105625153Y-94982993D01*
X105638937Y-95012431D01*
X105639605Y-95016048D01*
X105628024Y-95035057D01*
X105596024Y-95072714D01*
X105547718Y-95124973D01*
X105487220Y-95187786D01*
X105418644Y-95257106D01*
X105346104Y-95328885D01*
X105273712Y-95399077D01*
X105205584Y-95463635D01*
X105145832Y-95518510D01*
X105098571Y-95559656D01*
X105067913Y-95583026D01*
X105059432Y-95586842D01*
X105039691Y-95577855D01*
X104999274Y-95553616D01*
X104944763Y-95518209D01*
X104902823Y-95489711D01*
X104826829Y-95437418D01*
X104736834Y-95375845D01*
X104646564Y-95314370D01*
X104598032Y-95281469D01*
X104433762Y-95170359D01*
X104295869Y-95244916D01*
X104233049Y-95277578D01*
X104179629Y-95302966D01*
X104143484Y-95317446D01*
X104134284Y-95319460D01*
X104123221Y-95304584D01*
X104101394Y-95262547D01*
X104070434Y-95197227D01*
X104031970Y-95112500D01*
X103987632Y-95012245D01*
X103939047Y-94900339D01*
X103887846Y-94780659D01*
X103835659Y-94657084D01*
X103784113Y-94533491D01*
X103734840Y-94413757D01*
X103689467Y-94301759D01*
X103649625Y-94201377D01*
X103616942Y-94116486D01*
X103593049Y-94050965D01*
X103579574Y-94008690D01*
X103577406Y-93994172D01*
X103594583Y-93975653D01*
X103632190Y-93945590D01*
X103682366Y-93910232D01*
X103686578Y-93907434D01*
X103816264Y-93803625D01*
X103920834Y-93682515D01*
X103999381Y-93547976D01*
X104050999Y-93403882D01*
X104074782Y-93254105D01*
X104069823Y-93102517D01*
X104035217Y-92952992D01*
X103970057Y-92809400D01*
X103950886Y-92777984D01*
X103851174Y-92651125D01*
X103733377Y-92549255D01*
X103601571Y-92472904D01*
X103459833Y-92422602D01*
X103312242Y-92398879D01*
X103162873Y-92402265D01*
X103015803Y-92433288D01*
X102875111Y-92492480D01*
X102744873Y-92580369D01*
X102704586Y-92616042D01*
X102602055Y-92727706D01*
X102527341Y-92845257D01*
X102476090Y-92977020D01*
X102447546Y-93107507D01*
X102440500Y-93254216D01*
X102463996Y-93401653D01*
X102515649Y-93544834D01*
X102593071Y-93678777D01*
X102693875Y-93798498D01*
X102815676Y-93899014D01*
X102831684Y-93909609D01*
X102882398Y-93944306D01*
X102920950Y-93974370D01*
X102939381Y-93993565D01*
X102939649Y-93994172D01*
X102935692Y-94014936D01*
X102920007Y-94062062D01*
X102894222Y-94131673D01*
X102859969Y-94219893D01*
X102818877Y-94322844D01*
X102772576Y-94436650D01*
X102722696Y-94557435D01*
X102670867Y-94681321D01*
X102618719Y-94804432D01*
X102567882Y-94922891D01*
X102519987Y-95032823D01*
X102476662Y-95130349D01*
X102439538Y-95211593D01*
X102410244Y-95272679D01*
X102390412Y-95309730D01*
X102382426Y-95319460D01*
X102358021Y-95311883D01*
X102312358Y-95291560D01*
X102253310Y-95262125D01*
X102220840Y-95244916D01*
X102082947Y-95170359D01*
X101918677Y-95281469D01*
X101834821Y-95338390D01*
X101743013Y-95401030D01*
X101656980Y-95460011D01*
X101613887Y-95489711D01*
X101553277Y-95530410D01*
X101501955Y-95562663D01*
X101466615Y-95582384D01*
X101455137Y-95586554D01*
X101438430Y-95575307D01*
X101401454Y-95543911D01*
X101347795Y-95495624D01*
X101281038Y-95433708D01*
X101204766Y-95361421D01*
X101156527Y-95315008D01*
X101072133Y-95232087D01*
X100999197Y-95157920D01*
X100940669Y-95095680D01*
X100899497Y-95048541D01*
X100878628Y-95019673D01*
X100876626Y-95013815D01*
X100885917Y-94991532D01*
X100911591Y-94946477D01*
X100950800Y-94883211D01*
X101000697Y-94806295D01*
X101058433Y-94720292D01*
X101074851Y-94696315D01*
X101134677Y-94609170D01*
X101188350Y-94530710D01*
X101232870Y-94465345D01*
X101265235Y-94417484D01*
X101282445Y-94391535D01*
X101284107Y-94388852D01*
X101281621Y-94368172D01*
X101268423Y-94322704D01*
X101246814Y-94258444D01*
X101219096Y-94181387D01*
X101187570Y-94097529D01*
X101154537Y-94012866D01*
X101122299Y-93933392D01*
X101093157Y-93865104D01*
X101069412Y-93813997D01*
X101053365Y-93786067D01*
X101052225Y-93784727D01*
X101042412Y-93776745D01*
X101025839Y-93768851D01*
X100998868Y-93760229D01*
X100957861Y-93750062D01*
X100899180Y-93737531D01*
X100819187Y-93721821D01*
X100714245Y-93702113D01*
X100580715Y-93677592D01*
X100551804Y-93672319D01*
X100466118Y-93655764D01*
X100391418Y-93639569D01*
X100334306Y-93625296D01*
X100301383Y-93614508D01*
X100296969Y-93611993D01*
X100289694Y-93589696D01*
X100283781Y-93539869D01*
X100279234Y-93468304D01*
X100276055Y-93380793D01*
X100274251Y-93283128D01*
X100273823Y-93181101D01*
X100274777Y-93080503D01*
X100277116Y-92987127D01*
X100280844Y-92906765D01*
X100285966Y-92845209D01*
X100292484Y-92808250D01*
X100296414Y-92800686D01*
X100318292Y-92793056D01*
X100368109Y-92780642D01*
X100440903Y-92764522D01*
X100531711Y-92745773D01*
X100635569Y-92725471D01*
X100692154Y-92714830D01*
X100799514Y-92694760D01*
X100895254Y-92676580D01*
X100974694Y-92661199D01*
X101033154Y-92649531D01*
X101065955Y-92642488D01*
X101071354Y-92640926D01*
X101080478Y-92623322D01*
X101099765Y-92580918D01*
X101126645Y-92519772D01*
X101158546Y-92445943D01*
X101192898Y-92365489D01*
X101227129Y-92284468D01*
X101258669Y-92208937D01*
X101284946Y-92144955D01*
X101303389Y-92098580D01*
X101311429Y-92075869D01*
X101311578Y-92074876D01*
X101302465Y-92056961D01*
X101276914Y-92015733D01*
X101237612Y-91955291D01*
X101187243Y-91879731D01*
X101128494Y-91793152D01*
X101094342Y-91743421D01*
X101032110Y-91652236D01*
X100976836Y-91569449D01*
X100931218Y-91499249D01*
X100897952Y-91445824D01*
X100879736Y-91413361D01*
X100877105Y-91406083D01*
X100888414Y-91389145D01*
X100919681Y-91352978D01*
X100966910Y-91301635D01*
X101026108Y-91239167D01*
X101093281Y-91169626D01*
X101164434Y-91097065D01*
X101235574Y-91025535D01*
X101302707Y-90959087D01*
X101361839Y-90901774D01*
X101408975Y-90857647D01*
X101440123Y-90830759D01*
X101450543Y-90824342D01*
X101467509Y-90833365D01*
X101508089Y-90858715D01*
X101568337Y-90897810D01*
X101644307Y-90948071D01*
X101732054Y-91006917D01*
X101798244Y-91051748D01*
X102132668Y-91279154D01*
X102411433Y-91164238D01*
X102690197Y-91049322D01*
X102765746Y-90648576D01*
X102841294Y-90247829D01*
X103675415Y-90247829D01*
X103750964Y-90648576D01*
D13*
X136625000Y-91500000D02*
G75*
G03*
X136625000Y-91500000I-125000J0D01*
G01*
X134625000Y-91500000D02*
G75*
G03*
X134625000Y-91500000I-125000J0D01*
G01*
X135625000Y-91500000D02*
G75*
G03*
X135625000Y-91500000I-125000J0D01*
G01*
X134625000Y-92500000D02*
G75*
G03*
X134625000Y-92500000I-125000J0D01*
G01*
X135625000Y-92500000D02*
G75*
G03*
X135625000Y-92500000I-125000J0D01*
G01*
X136625000Y-92500000D02*
G75*
G03*
X136625000Y-92500000I-125000J0D01*
G01*
X136625000Y-93500000D02*
G75*
G03*
X136625000Y-93500000I-125000J0D01*
G01*
X135625000Y-93500000D02*
G75*
G03*
X135625000Y-93500000I-125000J0D01*
G01*
X134625000Y-93500000D02*
G75*
G03*
X134625000Y-93500000I-125000J0D01*
G01*
D11*
X105300000Y-114130000D02*
X105300000Y-113495000D01*
X107840000Y-112225000D02*
X106570000Y-113495000D01*
X110380000Y-114130000D02*
X110380000Y-113495000D01*
X100220000Y-114130000D02*
X100220000Y-112225000D01*
X100220000Y-112225000D02*
X107840000Y-112225000D01*
X94630000Y-112096000D02*
X95650000Y-111086000D01*
X95140000Y-107780000D02*
X93870000Y-107780000D01*
X95140000Y-110320000D02*
X95140000Y-107780000D01*
X95140000Y-115400000D02*
X95140000Y-112860000D01*
X93870000Y-115400000D02*
X95140000Y-115400000D01*
X95140000Y-112856000D02*
X94630000Y-112856000D01*
X94630000Y-112856000D02*
X94630000Y-110316000D01*
X94630000Y-110316000D02*
X95140000Y-110316000D01*
X95140000Y-110316000D02*
X95650000Y-110316000D01*
X95650000Y-110316000D02*
X95650000Y-112856000D01*
X95650000Y-112856000D02*
X95140000Y-112856000D01*
X90920000Y-117090000D02*
X112060000Y-117090000D01*
X112060000Y-117090000D02*
X112060000Y-106090000D01*
X90920000Y-117090000D02*
X90920000Y-106090000D01*
X90920000Y-106090000D02*
X112060000Y-106090000D01*
D14*
X107970000Y-112225000D02*
G75*
G03*
X107970000Y-112225000I-130000J0D01*
G01*
D11*
X105300000Y-113495000D02*
X106316000Y-113495000D01*
X109364000Y-113495000D02*
X110380000Y-113495000D01*
X106316000Y-113495000D02*
X105935000Y-113114000D01*
X106316000Y-113495000D02*
X105935000Y-113876000D01*
X109364000Y-113495000D02*
X109745000Y-113876000D01*
X109364000Y-113495000D02*
X109745000Y-113114000D01*
X105300000Y-109685000D02*
X106316000Y-109685000D01*
X110380000Y-109050000D02*
X110380000Y-109685000D01*
X107840000Y-110955000D02*
X106570000Y-109685000D01*
X109364000Y-109685000D02*
X109745000Y-110066000D01*
D14*
X107970000Y-110955000D02*
G75*
G03*
X107970000Y-110955000I-130000J0D01*
G01*
D11*
X106316000Y-109685000D02*
X105935000Y-110066000D01*
X105300000Y-109050000D02*
X105300000Y-109685000D01*
X100220000Y-110955000D02*
X107840000Y-110955000D01*
X109364000Y-109685000D02*
X109745000Y-109304000D01*
X100220000Y-109050000D02*
X100220000Y-110955000D01*
X109364000Y-109685000D02*
X110380000Y-109685000D01*
X106316000Y-109685000D02*
X105935000Y-109304000D01*
X97550000Y-102000000D02*
X92450000Y-102000000D01*
X97550000Y-102040000D02*
X95980000Y-102040000D01*
X94020000Y-102040000D02*
X92450000Y-102040000D01*
X97549000Y-102080000D02*
X95980000Y-102080000D01*
X94020000Y-102080000D02*
X92451000Y-102080000D01*
X97548000Y-102120000D02*
X95980000Y-102120000D01*
X94020000Y-102120000D02*
X92452000Y-102120000D01*
X97546000Y-102160000D02*
X95980000Y-102160000D01*
X94020000Y-102160000D02*
X92454000Y-102160000D01*
X97543000Y-102200000D02*
X95980000Y-102200000D01*
X94020000Y-102200000D02*
X92457000Y-102200000D01*
X97539000Y-102240000D02*
X95980000Y-102240000D01*
X94020000Y-102240000D02*
X92461000Y-102240000D01*
X97535000Y-102280000D02*
X95980000Y-102280000D01*
X94020000Y-102280000D02*
X92465000Y-102280000D01*
X97531000Y-102320000D02*
X95980000Y-102320000D01*
X94020000Y-102320000D02*
X92469000Y-102320000D01*
X97525000Y-102360000D02*
X95980000Y-102360000D01*
X94020000Y-102360000D02*
X92475000Y-102360000D01*
X97519000Y-102400000D02*
X95980000Y-102400000D01*
X94020000Y-102400000D02*
X92481000Y-102400000D01*
X97513000Y-102440000D02*
X95980000Y-102440000D01*
X94020000Y-102440000D02*
X92487000Y-102440000D01*
X97506000Y-102480000D02*
X95980000Y-102480000D01*
X94020000Y-102480000D02*
X92494000Y-102480000D01*
X97498000Y-102520000D02*
X95980000Y-102520000D01*
X94020000Y-102520000D02*
X92502000Y-102520000D01*
X97489000Y-102560000D02*
X95980000Y-102560000D01*
X94020000Y-102560000D02*
X92511000Y-102560000D01*
X97480000Y-102600000D02*
X95980000Y-102600000D01*
X94020000Y-102600000D02*
X92520000Y-102600000D01*
X97470000Y-102640000D02*
X95980000Y-102640000D01*
X94020000Y-102640000D02*
X92530000Y-102640000D01*
X97460000Y-102680000D02*
X95980000Y-102680000D01*
X94020000Y-102680000D02*
X92540000Y-102680000D01*
X97448000Y-102721000D02*
X95980000Y-102721000D01*
X94020000Y-102721000D02*
X92552000Y-102721000D01*
X97436000Y-102761000D02*
X95980000Y-102761000D01*
X94020000Y-102761000D02*
X92564000Y-102761000D01*
X97424000Y-102801000D02*
X95980000Y-102801000D01*
X94020000Y-102801000D02*
X92576000Y-102801000D01*
X97410000Y-102841000D02*
X95980000Y-102841000D01*
X94020000Y-102841000D02*
X92590000Y-102841000D01*
X97396000Y-102881000D02*
X95980000Y-102881000D01*
X94020000Y-102881000D02*
X92604000Y-102881000D01*
X97382000Y-102921000D02*
X95980000Y-102921000D01*
X94020000Y-102921000D02*
X92618000Y-102921000D01*
X97366000Y-102961000D02*
X95980000Y-102961000D01*
X94020000Y-102961000D02*
X92634000Y-102961000D01*
X97350000Y-103001000D02*
X95980000Y-103001000D01*
X94020000Y-103001000D02*
X92650000Y-103001000D01*
X97333000Y-103041000D02*
X95980000Y-103041000D01*
X94020000Y-103041000D02*
X92667000Y-103041000D01*
X97315000Y-103081000D02*
X95980000Y-103081000D01*
X94020000Y-103081000D02*
X92685000Y-103081000D01*
X97296000Y-103121000D02*
X95980000Y-103121000D01*
X94020000Y-103121000D02*
X92704000Y-103121000D01*
X97276000Y-103161000D02*
X95980000Y-103161000D01*
X94020000Y-103161000D02*
X92724000Y-103161000D01*
X97256000Y-103201000D02*
X95980000Y-103201000D01*
X94020000Y-103201000D02*
X92744000Y-103201000D01*
X97234000Y-103241000D02*
X95980000Y-103241000D01*
X94020000Y-103241000D02*
X92766000Y-103241000D01*
X97212000Y-103281000D02*
X95980000Y-103281000D01*
X94020000Y-103281000D02*
X92788000Y-103281000D01*
X97189000Y-103321000D02*
X95980000Y-103321000D01*
X94020000Y-103321000D02*
X92811000Y-103321000D01*
X97165000Y-103361000D02*
X95980000Y-103361000D01*
X94020000Y-103361000D02*
X92835000Y-103361000D01*
X97140000Y-103401000D02*
X95980000Y-103401000D01*
X94020000Y-103401000D02*
X92860000Y-103401000D01*
X97113000Y-103441000D02*
X95980000Y-103441000D01*
X94020000Y-103441000D02*
X92887000Y-103441000D01*
X97086000Y-103481000D02*
X95980000Y-103481000D01*
X94020000Y-103481000D02*
X92914000Y-103481000D01*
X97058000Y-103521000D02*
X95980000Y-103521000D01*
X94020000Y-103521000D02*
X92942000Y-103521000D01*
X97028000Y-103561000D02*
X95980000Y-103561000D01*
X94020000Y-103561000D02*
X92972000Y-103561000D01*
X96997000Y-103601000D02*
X95980000Y-103601000D01*
X94020000Y-103601000D02*
X93003000Y-103601000D01*
X96965000Y-103641000D02*
X95980000Y-103641000D01*
X94020000Y-103641000D02*
X93035000Y-103641000D01*
X96932000Y-103681000D02*
X95980000Y-103681000D01*
X94020000Y-103681000D02*
X93068000Y-103681000D01*
X96897000Y-103721000D02*
X95980000Y-103721000D01*
X94020000Y-103721000D02*
X93103000Y-103721000D01*
X96861000Y-103761000D02*
X95980000Y-103761000D01*
X94020000Y-103761000D02*
X93139000Y-103761000D01*
X96823000Y-103801000D02*
X95980000Y-103801000D01*
X94020000Y-103801000D02*
X93177000Y-103801000D01*
X96783000Y-103841000D02*
X95980000Y-103841000D01*
X94020000Y-103841000D02*
X93217000Y-103841000D01*
X96742000Y-103881000D02*
X95980000Y-103881000D01*
X94020000Y-103881000D02*
X93258000Y-103881000D01*
X96699000Y-103921000D02*
X95980000Y-103921000D01*
X94020000Y-103921000D02*
X93301000Y-103921000D01*
X96654000Y-103961000D02*
X95980000Y-103961000D01*
X94020000Y-103961000D02*
X93346000Y-103961000D01*
X96606000Y-104001000D02*
X93394000Y-104001000D01*
X96556000Y-104041000D02*
X93444000Y-104041000D01*
X96504000Y-104081000D02*
X93496000Y-104081000D01*
X96448000Y-104121000D02*
X93552000Y-104121000D01*
X96390000Y-104161000D02*
X93610000Y-104161000D01*
X96327000Y-104201000D02*
X93673000Y-104201000D01*
X96261000Y-104241000D02*
X93739000Y-104241000D01*
X96189000Y-104281000D02*
X93811000Y-104281000D01*
X96112000Y-104321000D02*
X93888000Y-104321000D01*
X96028000Y-104361000D02*
X93972000Y-104361000D01*
X95934000Y-104401000D02*
X94066000Y-104401000D01*
X95829000Y-104441000D02*
X94171000Y-104441000D01*
X95707000Y-104481000D02*
X94293000Y-104481000D01*
X95559000Y-104521000D02*
X94441000Y-104521000D01*
X95354000Y-104561000D02*
X94646000Y-104561000D01*
X95000000Y-98800000D02*
X95000000Y-100000000D01*
X95650000Y-99400000D02*
X94350000Y-99400000D01*
X93820277Y-104305722D02*
G75*
G03*
X96180000Y-104305580I1179723J2305722D01*
G01*
X93820277Y-104305722D02*
G75*
G02*
X93820000Y-99694420I1179723J2305722D01*
G01*
X96179723Y-104305722D02*
G75*
G03*
X96180000Y-99694420I-1179723J2305722D01*
G01*
X101820000Y-104500000D02*
X101820000Y-103500000D01*
X103180000Y-103500000D02*
X103180000Y-104500000D01*
D10*
X124327619Y-110865238D02*
X124280000Y-110960476D01*
X124184761Y-111055714D01*
X124041904Y-111198571D01*
X123994285Y-111293809D01*
X123994285Y-111389047D01*
X124232380Y-111341428D02*
X124184761Y-111436666D01*
X124089523Y-111531904D01*
X123899047Y-111579523D01*
X123565714Y-111579523D01*
X123375238Y-111531904D01*
X123280000Y-111436666D01*
X123232380Y-111341428D01*
X123232380Y-111150952D01*
X123280000Y-111055714D01*
X123375238Y-110960476D01*
X123565714Y-110912857D01*
X123899047Y-110912857D01*
X124089523Y-110960476D01*
X124184761Y-111055714D01*
X124232380Y-111150952D01*
X124232380Y-111341428D01*
X123327619Y-110531904D02*
X123280000Y-110484285D01*
X123232380Y-110389047D01*
X123232380Y-110150952D01*
X123280000Y-110055714D01*
X123327619Y-110008095D01*
X123422857Y-109960476D01*
X123518095Y-109960476D01*
X123660952Y-110008095D01*
X124232380Y-110579523D01*
X124232380Y-109960476D01*
X130952380Y-112416666D02*
X130476190Y-112750000D01*
X130952380Y-112988095D02*
X129952380Y-112988095D01*
X129952380Y-112607142D01*
X130000000Y-112511904D01*
X130047619Y-112464285D01*
X130142857Y-112416666D01*
X130285714Y-112416666D01*
X130380952Y-112464285D01*
X130428571Y-112511904D01*
X130476190Y-112607142D01*
X130476190Y-112988095D01*
X130285714Y-111559523D02*
X130952380Y-111559523D01*
X129904761Y-111797619D02*
X130619047Y-112035714D01*
X130619047Y-111416666D01*
X115252380Y-93338095D02*
X114252380Y-93338095D01*
X114252380Y-93100000D01*
X114300000Y-92957142D01*
X114395238Y-92861904D01*
X114490476Y-92814285D01*
X114680952Y-92766666D01*
X114823809Y-92766666D01*
X115014285Y-92814285D01*
X115109523Y-92861904D01*
X115204761Y-92957142D01*
X115252380Y-93100000D01*
X115252380Y-93338095D01*
X114347619Y-92385714D02*
X114300000Y-92338095D01*
X114252380Y-92242857D01*
X114252380Y-92004761D01*
X114300000Y-91909523D01*
X114347619Y-91861904D01*
X114442857Y-91814285D01*
X114538095Y-91814285D01*
X114680952Y-91861904D01*
X115252380Y-92433333D01*
X115252380Y-91814285D01*
X109404761Y-96047619D02*
X109309523Y-96000000D01*
X109214285Y-95904761D01*
X109071428Y-95761904D01*
X108976190Y-95714285D01*
X108880952Y-95714285D01*
X108928571Y-95952380D02*
X108833333Y-95904761D01*
X108738095Y-95809523D01*
X108690476Y-95619047D01*
X108690476Y-95285714D01*
X108738095Y-95095238D01*
X108833333Y-95000000D01*
X108928571Y-94952380D01*
X109119047Y-94952380D01*
X109214285Y-95000000D01*
X109309523Y-95095238D01*
X109357142Y-95285714D01*
X109357142Y-95619047D01*
X109309523Y-95809523D01*
X109214285Y-95904761D01*
X109119047Y-95952380D01*
X108928571Y-95952380D01*
X110309523Y-95952380D02*
X109738095Y-95952380D01*
X110023809Y-95952380D02*
X110023809Y-94952380D01*
X109928571Y-95095238D01*
X109833333Y-95190476D01*
X109738095Y-95238095D01*
X128833333Y-108357142D02*
X128785714Y-108404761D01*
X128642857Y-108452380D01*
X128547619Y-108452380D01*
X128404761Y-108404761D01*
X128309523Y-108309523D01*
X128261904Y-108214285D01*
X128214285Y-108023809D01*
X128214285Y-107880952D01*
X128261904Y-107690476D01*
X128309523Y-107595238D01*
X128404761Y-107500000D01*
X128547619Y-107452380D01*
X128642857Y-107452380D01*
X128785714Y-107500000D01*
X128833333Y-107547619D01*
X129214285Y-107547619D02*
X129261904Y-107500000D01*
X129357142Y-107452380D01*
X129595238Y-107452380D01*
X129690476Y-107500000D01*
X129738095Y-107547619D01*
X129785714Y-107642857D01*
X129785714Y-107738095D01*
X129738095Y-107880952D01*
X129166666Y-108452380D01*
X129785714Y-108452380D01*
X96261904Y-97852380D02*
X96261904Y-96852380D01*
X96500000Y-96852380D01*
X96642857Y-96900000D01*
X96738095Y-96995238D01*
X96785714Y-97090476D01*
X96833333Y-97280952D01*
X96833333Y-97423809D01*
X96785714Y-97614285D01*
X96738095Y-97709523D01*
X96642857Y-97804761D01*
X96500000Y-97852380D01*
X96261904Y-97852380D01*
X97785714Y-97852380D02*
X97214285Y-97852380D01*
X97500000Y-97852380D02*
X97500000Y-96852380D01*
X97404761Y-96995238D01*
X97309523Y-97090476D01*
X97214285Y-97138095D01*
X139628095Y-106452380D02*
X140199523Y-106452380D01*
X139913809Y-107452380D02*
X139913809Y-106452380D01*
X141104285Y-107452380D02*
X140770952Y-106976190D01*
X140532857Y-107452380D02*
X140532857Y-106452380D01*
X140913809Y-106452380D01*
X141009047Y-106500000D01*
X141056666Y-106547619D01*
X141104285Y-106642857D01*
X141104285Y-106785714D01*
X141056666Y-106880952D01*
X141009047Y-106928571D01*
X140913809Y-106976190D01*
X140532857Y-106976190D01*
X142056666Y-107452380D02*
X141485238Y-107452380D01*
X141770952Y-107452380D02*
X141770952Y-106452380D01*
X141675714Y-106595238D01*
X141580476Y-106690476D01*
X141485238Y-106738095D01*
X148633333Y-108732380D02*
X148300000Y-108256190D01*
X148061904Y-108732380D02*
X148061904Y-107732380D01*
X148442857Y-107732380D01*
X148538095Y-107780000D01*
X148585714Y-107827619D01*
X148633333Y-107922857D01*
X148633333Y-108065714D01*
X148585714Y-108160952D01*
X148538095Y-108208571D01*
X148442857Y-108256190D01*
X148061904Y-108256190D01*
X149014285Y-107827619D02*
X149061904Y-107780000D01*
X149157142Y-107732380D01*
X149395238Y-107732380D01*
X149490476Y-107780000D01*
X149538095Y-107827619D01*
X149585714Y-107922857D01*
X149585714Y-108018095D01*
X149538095Y-108160952D01*
X148966666Y-108732380D01*
X149585714Y-108732380D01*
X127382380Y-112166666D02*
X126906190Y-112500000D01*
X127382380Y-112738095D02*
X126382380Y-112738095D01*
X126382380Y-112357142D01*
X126430000Y-112261904D01*
X126477619Y-112214285D01*
X126572857Y-112166666D01*
X126715714Y-112166666D01*
X126810952Y-112214285D01*
X126858571Y-112261904D01*
X126906190Y-112357142D01*
X126906190Y-112738095D01*
X126810952Y-111595238D02*
X126763333Y-111690476D01*
X126715714Y-111738095D01*
X126620476Y-111785714D01*
X126572857Y-111785714D01*
X126477619Y-111738095D01*
X126430000Y-111690476D01*
X126382380Y-111595238D01*
X126382380Y-111404761D01*
X126430000Y-111309523D01*
X126477619Y-111261904D01*
X126572857Y-111214285D01*
X126620476Y-111214285D01*
X126715714Y-111261904D01*
X126763333Y-111309523D01*
X126810952Y-111404761D01*
X126810952Y-111595238D01*
X126858571Y-111690476D01*
X126906190Y-111738095D01*
X127001428Y-111785714D01*
X127191904Y-111785714D01*
X127287142Y-111738095D01*
X127334761Y-111690476D01*
X127382380Y-111595238D01*
X127382380Y-111404761D01*
X127334761Y-111309523D01*
X127287142Y-111261904D01*
X127191904Y-111214285D01*
X127001428Y-111214285D01*
X126906190Y-111261904D01*
X126858571Y-111309523D01*
X126810952Y-111404761D01*
X113452380Y-95666666D02*
X112976190Y-96000000D01*
X113452380Y-96238095D02*
X112452380Y-96238095D01*
X112452380Y-95857142D01*
X112500000Y-95761904D01*
X112547619Y-95714285D01*
X112642857Y-95666666D01*
X112785714Y-95666666D01*
X112880952Y-95714285D01*
X112928571Y-95761904D01*
X112976190Y-95857142D01*
X112976190Y-96238095D01*
X112452380Y-95333333D02*
X112452380Y-94714285D01*
X112833333Y-95047619D01*
X112833333Y-94904761D01*
X112880952Y-94809523D01*
X112928571Y-94761904D01*
X113023809Y-94714285D01*
X113261904Y-94714285D01*
X113357142Y-94761904D01*
X113404761Y-94809523D01*
X113452380Y-94904761D01*
X113452380Y-95190476D01*
X113404761Y-95285714D01*
X113357142Y-95333333D01*
D15*
X137473809Y-92866666D02*
X138521428Y-92866666D01*
X137264285Y-93495238D02*
X137997619Y-91295238D01*
X138730952Y-93495238D01*
X139464285Y-93495238D02*
X139464285Y-91295238D01*
X140302380Y-91295238D01*
X140511904Y-91400000D01*
X140616666Y-91504761D01*
X140721428Y-91714285D01*
X140721428Y-92028571D01*
X140616666Y-92238095D01*
X140511904Y-92342857D01*
X140302380Y-92447619D01*
X139464285Y-92447619D01*
X143130952Y-93704761D02*
X142921428Y-93600000D01*
X142711904Y-93390476D01*
X142397619Y-93076190D01*
X142188095Y-92971428D01*
X141978571Y-92971428D01*
X142083333Y-93495238D02*
X141873809Y-93390476D01*
X141664285Y-93180952D01*
X141559523Y-92761904D01*
X141559523Y-92028571D01*
X141664285Y-91609523D01*
X141873809Y-91400000D01*
X142083333Y-91295238D01*
X142502380Y-91295238D01*
X142711904Y-91400000D01*
X142921428Y-91609523D01*
X143026190Y-92028571D01*
X143026190Y-92761904D01*
X142921428Y-93180952D01*
X142711904Y-93390476D01*
X142502380Y-93495238D01*
X142083333Y-93495238D01*
D10*
X99261904Y-105452380D02*
X99261904Y-104452380D01*
X99833333Y-105452380D02*
X99404761Y-104880952D01*
X99833333Y-104452380D02*
X99261904Y-105023809D01*
X100785714Y-105452380D02*
X100214285Y-105452380D01*
X100500000Y-105452380D02*
X100500000Y-104452380D01*
X100404761Y-104595238D01*
X100309523Y-104690476D01*
X100214285Y-104738095D01*
X99167142Y-102166666D02*
X99214761Y-102214285D01*
X99262380Y-102357142D01*
X99262380Y-102452380D01*
X99214761Y-102595238D01*
X99119523Y-102690476D01*
X99024285Y-102738095D01*
X98833809Y-102785714D01*
X98690952Y-102785714D01*
X98500476Y-102738095D01*
X98405238Y-102690476D01*
X98310000Y-102595238D01*
X98262380Y-102452380D01*
X98262380Y-102357142D01*
X98310000Y-102214285D01*
X98357619Y-102166666D01*
X98262380Y-101833333D02*
X98262380Y-101214285D01*
X98643333Y-101547619D01*
X98643333Y-101404761D01*
X98690952Y-101309523D01*
X98738571Y-101261904D01*
X98833809Y-101214285D01*
X99071904Y-101214285D01*
X99167142Y-101261904D01*
X99214761Y-101309523D01*
X99262380Y-101404761D01*
X99262380Y-101690476D01*
X99214761Y-101785714D01*
X99167142Y-101833333D01*
X104452380Y-104166666D02*
X103976190Y-104500000D01*
X104452380Y-104738095D02*
X103452380Y-104738095D01*
X103452380Y-104357142D01*
X103500000Y-104261904D01*
X103547619Y-104214285D01*
X103642857Y-104166666D01*
X103785714Y-104166666D01*
X103880952Y-104214285D01*
X103928571Y-104261904D01*
X103976190Y-104357142D01*
X103976190Y-104738095D01*
X103452380Y-103261904D02*
X103452380Y-103738095D01*
X103928571Y-103785714D01*
X103880952Y-103738095D01*
X103833333Y-103642857D01*
X103833333Y-103404761D01*
X103880952Y-103309523D01*
X103928571Y-103261904D01*
X104023809Y-103214285D01*
X104261904Y-103214285D01*
X104357142Y-103261904D01*
X104404761Y-103309523D01*
X104452380Y-103404761D01*
X104452380Y-103642857D01*
X104404761Y-103738095D01*
X104357142Y-103785714D01*
D13*
X148188095Y-94671428D02*
X146888095Y-94671428D01*
X146888095Y-94176190D01*
X146950000Y-94052380D01*
X147011904Y-93990476D01*
X147135714Y-93928571D01*
X147321428Y-93928571D01*
X147445238Y-93990476D01*
X147507142Y-94052380D01*
X147569047Y-94176190D01*
X147569047Y-94671428D01*
X147321428Y-93495238D02*
X147321428Y-92814285D01*
X148188095Y-93495238D01*
X148188095Y-92814285D01*
X147692857Y-92319047D02*
X147692857Y-91328571D01*
X148188095Y-91823809D02*
X147197619Y-91823809D01*
X156688095Y-94771428D02*
X155388095Y-94771428D01*
X155388095Y-94276190D01*
X155450000Y-94152380D01*
X155511904Y-94090476D01*
X155635714Y-94028571D01*
X155821428Y-94028571D01*
X155945238Y-94090476D01*
X156007142Y-94152380D01*
X156069047Y-94276190D01*
X156069047Y-94771428D01*
X155821428Y-93595238D02*
X155821428Y-92914285D01*
X156688095Y-93595238D01*
X156688095Y-92914285D01*
X156192857Y-92419047D02*
X156192857Y-91428571D01*
X117088095Y-116390476D02*
X117088095Y-117009523D01*
X115788095Y-117009523D01*
X117088095Y-115400000D02*
X115788095Y-115400000D01*
X117026190Y-115400000D02*
X117088095Y-115523809D01*
X117088095Y-115771428D01*
X117026190Y-115895238D01*
X116964285Y-115957142D01*
X116840476Y-116019047D01*
X116469047Y-116019047D01*
X116345238Y-115957142D01*
X116283333Y-115895238D01*
X116221428Y-115771428D01*
X116221428Y-115523809D01*
X116283333Y-115400000D01*
X116592857Y-114780952D02*
X116592857Y-113790476D01*
X117088095Y-114285714D02*
X116097619Y-114285714D01*
X127488095Y-116390476D02*
X127488095Y-117009523D01*
X126188095Y-117009523D01*
X127488095Y-115400000D02*
X126188095Y-115400000D01*
X127426190Y-115400000D02*
X127488095Y-115523809D01*
X127488095Y-115771428D01*
X127426190Y-115895238D01*
X127364285Y-115957142D01*
X127240476Y-116019047D01*
X126869047Y-116019047D01*
X126745238Y-115957142D01*
X126683333Y-115895238D01*
X126621428Y-115771428D01*
X126621428Y-115523809D01*
X126683333Y-115400000D01*
X126992857Y-114780952D02*
X126992857Y-113790476D01*
M02*
