G04 #@! TF.GenerationSoftware,KiCad,Pcbnew,5.1.10*
G04 #@! TF.CreationDate,2021-05-12T16:07:03+02:00*
G04 #@! TF.ProjectId,DgDrive_DVI,44674472-6976-4655-9f44-56492e6b6963,1.4*
G04 #@! TF.SameCoordinates,Original*
G04 #@! TF.FileFunction,Copper,L1,Top*
G04 #@! TF.FilePolarity,Positive*
%FSLAX46Y46*%
G04 Gerber Fmt 4.6, Leading zero omitted, Abs format (unit mm)*
G04 Created by KiCad (PCBNEW 5.1.10) date 2021-05-12 16:07:03*
%MOMM*%
%LPD*%
G01*
G04 APERTURE LIST*
G04 #@! TA.AperFunction,SMDPad,CuDef*
%ADD10R,0.800000X0.900000*%
G04 #@! TD*
G04 #@! TA.AperFunction,ComponentPad*
%ADD11R,1.500000X1.050000*%
G04 #@! TD*
G04 #@! TA.AperFunction,ComponentPad*
%ADD12O,1.500000X1.050000*%
G04 #@! TD*
G04 #@! TA.AperFunction,ComponentPad*
%ADD13C,1.800000*%
G04 #@! TD*
G04 #@! TA.AperFunction,ComponentPad*
%ADD14R,1.800000X1.800000*%
G04 #@! TD*
G04 #@! TA.AperFunction,ComponentPad*
%ADD15C,2.250000*%
G04 #@! TD*
G04 #@! TA.AperFunction,ComponentPad*
%ADD16C,2.050000*%
G04 #@! TD*
G04 #@! TA.AperFunction,SMDPad,CuDef*
%ADD17R,0.900000X0.800000*%
G04 #@! TD*
G04 #@! TA.AperFunction,SMDPad,CuDef*
%ADD18R,0.900000X1.200000*%
G04 #@! TD*
G04 #@! TA.AperFunction,ComponentPad*
%ADD19C,2.000000*%
G04 #@! TD*
G04 #@! TA.AperFunction,ComponentPad*
%ADD20C,1.300000*%
G04 #@! TD*
G04 #@! TA.AperFunction,ComponentPad*
%ADD21C,4.200000*%
G04 #@! TD*
G04 #@! TA.AperFunction,ComponentPad*
%ADD22C,2.499360*%
G04 #@! TD*
G04 #@! TA.AperFunction,SMDPad,CuDef*
%ADD23R,2.000000X3.800000*%
G04 #@! TD*
G04 #@! TA.AperFunction,ComponentPad*
%ADD24R,1.600000X1.600000*%
G04 #@! TD*
G04 #@! TA.AperFunction,ComponentPad*
%ADD25C,1.600000*%
G04 #@! TD*
G04 #@! TA.AperFunction,SMDPad,CuDef*
%ADD26R,1.220000X0.650000*%
G04 #@! TD*
G04 #@! TA.AperFunction,SMDPad,CuDef*
%ADD27R,0.650000X1.220000*%
G04 #@! TD*
G04 #@! TA.AperFunction,ViaPad*
%ADD28C,0.600000*%
G04 #@! TD*
G04 #@! TA.AperFunction,Conductor*
%ADD29C,0.500000*%
G04 #@! TD*
G04 #@! TA.AperFunction,Conductor*
%ADD30C,0.250000*%
G04 #@! TD*
G04 #@! TA.AperFunction,Conductor*
%ADD31C,1.000000*%
G04 #@! TD*
G04 #@! TA.AperFunction,Conductor*
%ADD32C,0.200000*%
G04 #@! TD*
G04 #@! TA.AperFunction,Conductor*
%ADD33C,0.254000*%
G04 #@! TD*
G04 #@! TA.AperFunction,Conductor*
%ADD34C,0.100000*%
G04 #@! TD*
G04 APERTURE END LIST*
D10*
X115600000Y-106400000D03*
X114650000Y-104400000D03*
X116550000Y-104400000D03*
D11*
X122000000Y-109500000D03*
D12*
X122000000Y-112040000D03*
X122000000Y-110770000D03*
D13*
X102362000Y-100000000D03*
D14*
X99822000Y-100000000D03*
D15*
X148960000Y-109960000D03*
X148960000Y-115040000D03*
X154040000Y-115040000D03*
X154040000Y-109960000D03*
D16*
X151500000Y-112500000D03*
D15*
X148960000Y-96960000D03*
X148960000Y-102040000D03*
X154040000Y-102040000D03*
X154040000Y-96960000D03*
D16*
X151500000Y-99500000D03*
D17*
X118300000Y-92600000D03*
X116300000Y-93550000D03*
X116300000Y-91650000D03*
D10*
X109500000Y-93500000D03*
X108550000Y-91500000D03*
X110450000Y-91500000D03*
D18*
X98650000Y-95500000D03*
X95350000Y-95500000D03*
G04 #@! TA.AperFunction,SMDPad,CuDef*
G36*
G01*
X142850000Y-113424997D02*
X142850000Y-115575003D01*
G75*
G02*
X142600003Y-115825000I-249997J0D01*
G01*
X141974997Y-115825000D01*
G75*
G02*
X141725000Y-115575003I0J249997D01*
G01*
X141725000Y-113424997D01*
G75*
G02*
X141974997Y-113175000I249997J0D01*
G01*
X142600003Y-113175000D01*
G75*
G02*
X142850000Y-113424997I0J-249997D01*
G01*
G37*
G04 #@! TD.AperFunction*
G04 #@! TA.AperFunction,SMDPad,CuDef*
G36*
G01*
X145775000Y-113424997D02*
X145775000Y-115575003D01*
G75*
G02*
X145525003Y-115825000I-249997J0D01*
G01*
X144899997Y-115825000D01*
G75*
G02*
X144650000Y-115575003I0J249997D01*
G01*
X144650000Y-113424997D01*
G75*
G02*
X144899997Y-113175000I249997J0D01*
G01*
X145525003Y-113175000D01*
G75*
G02*
X145775000Y-113424997I0J-249997D01*
G01*
G37*
G04 #@! TD.AperFunction*
G04 #@! TA.AperFunction,SMDPad,CuDef*
G36*
G01*
X120225000Y-106975000D02*
X120775000Y-106975000D01*
G75*
G02*
X120975000Y-107175000I0J-200000D01*
G01*
X120975000Y-107575000D01*
G75*
G02*
X120775000Y-107775000I-200000J0D01*
G01*
X120225000Y-107775000D01*
G75*
G02*
X120025000Y-107575000I0J200000D01*
G01*
X120025000Y-107175000D01*
G75*
G02*
X120225000Y-106975000I200000J0D01*
G01*
G37*
G04 #@! TD.AperFunction*
G04 #@! TA.AperFunction,SMDPad,CuDef*
G36*
G01*
X120225000Y-105325000D02*
X120775000Y-105325000D01*
G75*
G02*
X120975000Y-105525000I0J-200000D01*
G01*
X120975000Y-105925000D01*
G75*
G02*
X120775000Y-106125000I-200000J0D01*
G01*
X120225000Y-106125000D01*
G75*
G02*
X120025000Y-105925000I0J200000D01*
G01*
X120025000Y-105525000D01*
G75*
G02*
X120225000Y-105325000I200000J0D01*
G01*
G37*
G04 #@! TD.AperFunction*
G04 #@! TA.AperFunction,SMDPad,CuDef*
G36*
G01*
X113275000Y-92075000D02*
X112725000Y-92075000D01*
G75*
G02*
X112525000Y-91875000I0J200000D01*
G01*
X112525000Y-91475000D01*
G75*
G02*
X112725000Y-91275000I200000J0D01*
G01*
X113275000Y-91275000D01*
G75*
G02*
X113475000Y-91475000I0J-200000D01*
G01*
X113475000Y-91875000D01*
G75*
G02*
X113275000Y-92075000I-200000J0D01*
G01*
G37*
G04 #@! TD.AperFunction*
G04 #@! TA.AperFunction,SMDPad,CuDef*
G36*
G01*
X113275000Y-93725000D02*
X112725000Y-93725000D01*
G75*
G02*
X112525000Y-93525000I0J200000D01*
G01*
X112525000Y-93125000D01*
G75*
G02*
X112725000Y-92925000I200000J0D01*
G01*
X113275000Y-92925000D01*
G75*
G02*
X113475000Y-93125000I0J-200000D01*
G01*
X113475000Y-93525000D01*
G75*
G02*
X113275000Y-93725000I-200000J0D01*
G01*
G37*
G04 #@! TD.AperFunction*
D19*
X110380000Y-107780000D03*
X105300000Y-107780000D03*
X100220000Y-107780000D03*
X92600000Y-107780000D03*
X110380000Y-115400000D03*
X105300000Y-115400000D03*
X92600000Y-115400000D03*
X100220000Y-115400000D03*
D20*
X116240000Y-102018000D03*
X116240000Y-96938000D03*
X114970000Y-100748000D03*
X117510000Y-100748000D03*
X117510000Y-98208000D03*
X114970000Y-98208000D03*
X120685000Y-97595000D03*
X120685000Y-101405000D03*
X122590000Y-101405000D03*
X124495000Y-101405000D03*
X126400000Y-101405000D03*
X128305000Y-101405000D03*
X130210000Y-101405000D03*
X132115000Y-101405000D03*
X134020000Y-101405000D03*
X120685000Y-99500000D03*
X122590000Y-99500000D03*
X124495000Y-99500000D03*
X126400000Y-99500000D03*
X128305000Y-99500000D03*
X130210000Y-99500000D03*
X132115000Y-99500000D03*
D21*
X140750000Y-99500000D03*
D20*
X124495000Y-97595000D03*
X122590000Y-97595000D03*
X134020000Y-99500000D03*
X126400000Y-97595000D03*
X128305000Y-97595000D03*
X134020000Y-97595000D03*
X132115000Y-97595000D03*
X130210000Y-97595000D03*
D21*
X108240000Y-99500000D03*
D22*
X119500000Y-115500000D03*
X149950000Y-93100000D03*
X153600000Y-93100000D03*
D23*
X125000000Y-115000000D03*
D24*
X95000000Y-101000000D03*
D25*
X95000000Y-103000000D03*
G04 #@! TA.AperFunction,SMDPad,CuDef*
G36*
G01*
X102775000Y-105225000D02*
X102225000Y-105225000D01*
G75*
G02*
X102025000Y-105025000I0J200000D01*
G01*
X102025000Y-104625000D01*
G75*
G02*
X102225000Y-104425000I200000J0D01*
G01*
X102775000Y-104425000D01*
G75*
G02*
X102975000Y-104625000I0J-200000D01*
G01*
X102975000Y-105025000D01*
G75*
G02*
X102775000Y-105225000I-200000J0D01*
G01*
G37*
G04 #@! TD.AperFunction*
G04 #@! TA.AperFunction,SMDPad,CuDef*
G36*
G01*
X102775000Y-103575000D02*
X102225000Y-103575000D01*
G75*
G02*
X102025000Y-103375000I0J200000D01*
G01*
X102025000Y-102975000D01*
G75*
G02*
X102225000Y-102775000I200000J0D01*
G01*
X102775000Y-102775000D01*
G75*
G02*
X102975000Y-102975000I0J-200000D01*
G01*
X102975000Y-103375000D01*
G75*
G02*
X102775000Y-103575000I-200000J0D01*
G01*
G37*
G04 #@! TD.AperFunction*
G04 #@! TA.AperFunction,SMDPad,CuDef*
G36*
G01*
X127525000Y-95850000D02*
X127525000Y-95350000D01*
G75*
G02*
X127750000Y-95125000I225000J0D01*
G01*
X128200000Y-95125000D01*
G75*
G02*
X128425000Y-95350000I0J-225000D01*
G01*
X128425000Y-95850000D01*
G75*
G02*
X128200000Y-96075000I-225000J0D01*
G01*
X127750000Y-96075000D01*
G75*
G02*
X127525000Y-95850000I0J225000D01*
G01*
G37*
G04 #@! TD.AperFunction*
G04 #@! TA.AperFunction,SMDPad,CuDef*
G36*
G01*
X125975000Y-95850000D02*
X125975000Y-95350000D01*
G75*
G02*
X126200000Y-95125000I225000J0D01*
G01*
X126650000Y-95125000D01*
G75*
G02*
X126875000Y-95350000I0J-225000D01*
G01*
X126875000Y-95850000D01*
G75*
G02*
X126650000Y-96075000I-225000J0D01*
G01*
X126200000Y-96075000D01*
G75*
G02*
X125975000Y-95850000I0J225000D01*
G01*
G37*
G04 #@! TD.AperFunction*
G04 #@! TA.AperFunction,SMDPad,CuDef*
G36*
G01*
X121825000Y-95350000D02*
X121825000Y-95850000D01*
G75*
G02*
X121600000Y-96075000I-225000J0D01*
G01*
X121150000Y-96075000D01*
G75*
G02*
X120925000Y-95850000I0J225000D01*
G01*
X120925000Y-95350000D01*
G75*
G02*
X121150000Y-95125000I225000J0D01*
G01*
X121600000Y-95125000D01*
G75*
G02*
X121825000Y-95350000I0J-225000D01*
G01*
G37*
G04 #@! TD.AperFunction*
G04 #@! TA.AperFunction,SMDPad,CuDef*
G36*
G01*
X120275000Y-95350000D02*
X120275000Y-95850000D01*
G75*
G02*
X120050000Y-96075000I-225000J0D01*
G01*
X119600000Y-96075000D01*
G75*
G02*
X119375000Y-95850000I0J225000D01*
G01*
X119375000Y-95350000D01*
G75*
G02*
X119600000Y-95125000I225000J0D01*
G01*
X120050000Y-95125000D01*
G75*
G02*
X120275000Y-95350000I0J-225000D01*
G01*
G37*
G04 #@! TD.AperFunction*
G04 #@! TA.AperFunction,SMDPad,CuDef*
G36*
G01*
X129250000Y-114725000D02*
X128750000Y-114725000D01*
G75*
G02*
X128525000Y-114500000I0J225000D01*
G01*
X128525000Y-114050000D01*
G75*
G02*
X128750000Y-113825000I225000J0D01*
G01*
X129250000Y-113825000D01*
G75*
G02*
X129475000Y-114050000I0J-225000D01*
G01*
X129475000Y-114500000D01*
G75*
G02*
X129250000Y-114725000I-225000J0D01*
G01*
G37*
G04 #@! TD.AperFunction*
G04 #@! TA.AperFunction,SMDPad,CuDef*
G36*
G01*
X129250000Y-113175000D02*
X128750000Y-113175000D01*
G75*
G02*
X128525000Y-112950000I0J225000D01*
G01*
X128525000Y-112500000D01*
G75*
G02*
X128750000Y-112275000I225000J0D01*
G01*
X129250000Y-112275000D01*
G75*
G02*
X129475000Y-112500000I0J-225000D01*
G01*
X129475000Y-112950000D01*
G75*
G02*
X129250000Y-113175000I-225000J0D01*
G01*
G37*
G04 #@! TD.AperFunction*
G04 #@! TA.AperFunction,SMDPad,CuDef*
G36*
G01*
X131425000Y-91300000D02*
X132375000Y-91300000D01*
G75*
G02*
X132625000Y-91550000I0J-250000D01*
G01*
X132625000Y-92050000D01*
G75*
G02*
X132375000Y-92300000I-250000J0D01*
G01*
X131425000Y-92300000D01*
G75*
G02*
X131175000Y-92050000I0J250000D01*
G01*
X131175000Y-91550000D01*
G75*
G02*
X131425000Y-91300000I250000J0D01*
G01*
G37*
G04 #@! TD.AperFunction*
G04 #@! TA.AperFunction,SMDPad,CuDef*
G36*
G01*
X131425000Y-93200000D02*
X132375000Y-93200000D01*
G75*
G02*
X132625000Y-93450000I0J-250000D01*
G01*
X132625000Y-93950000D01*
G75*
G02*
X132375000Y-94200000I-250000J0D01*
G01*
X131425000Y-94200000D01*
G75*
G02*
X131175000Y-93950000I0J250000D01*
G01*
X131175000Y-93450000D01*
G75*
G02*
X131425000Y-93200000I250000J0D01*
G01*
G37*
G04 #@! TD.AperFunction*
G04 #@! TA.AperFunction,SMDPad,CuDef*
G36*
G01*
X139200000Y-91375000D02*
X139700000Y-91375000D01*
G75*
G02*
X139925000Y-91600000I0J-225000D01*
G01*
X139925000Y-92050000D01*
G75*
G02*
X139700000Y-92275000I-225000J0D01*
G01*
X139200000Y-92275000D01*
G75*
G02*
X138975000Y-92050000I0J225000D01*
G01*
X138975000Y-91600000D01*
G75*
G02*
X139200000Y-91375000I225000J0D01*
G01*
G37*
G04 #@! TD.AperFunction*
G04 #@! TA.AperFunction,SMDPad,CuDef*
G36*
G01*
X139200000Y-92925000D02*
X139700000Y-92925000D01*
G75*
G02*
X139925000Y-93150000I0J-225000D01*
G01*
X139925000Y-93600000D01*
G75*
G02*
X139700000Y-93825000I-225000J0D01*
G01*
X139200000Y-93825000D01*
G75*
G02*
X138975000Y-93600000I0J225000D01*
G01*
X138975000Y-93150000D01*
G75*
G02*
X139200000Y-92925000I225000J0D01*
G01*
G37*
G04 #@! TD.AperFunction*
G04 #@! TA.AperFunction,SMDPad,CuDef*
G36*
G01*
X141225000Y-93250000D02*
X142175000Y-93250000D01*
G75*
G02*
X142425000Y-93500000I0J-250000D01*
G01*
X142425000Y-94000000D01*
G75*
G02*
X142175000Y-94250000I-250000J0D01*
G01*
X141225000Y-94250000D01*
G75*
G02*
X140975000Y-94000000I0J250000D01*
G01*
X140975000Y-93500000D01*
G75*
G02*
X141225000Y-93250000I250000J0D01*
G01*
G37*
G04 #@! TD.AperFunction*
G04 #@! TA.AperFunction,SMDPad,CuDef*
G36*
G01*
X141225000Y-91350000D02*
X142175000Y-91350000D01*
G75*
G02*
X142425000Y-91600000I0J-250000D01*
G01*
X142425000Y-92100000D01*
G75*
G02*
X142175000Y-92350000I-250000J0D01*
G01*
X141225000Y-92350000D01*
G75*
G02*
X140975000Y-92100000I0J250000D01*
G01*
X140975000Y-91600000D01*
G75*
G02*
X141225000Y-91350000I250000J0D01*
G01*
G37*
G04 #@! TD.AperFunction*
G04 #@! TA.AperFunction,SMDPad,CuDef*
G36*
G01*
X141800000Y-104375000D02*
X141800000Y-103425000D01*
G75*
G02*
X142050000Y-103175000I250000J0D01*
G01*
X142550000Y-103175000D01*
G75*
G02*
X142800000Y-103425000I0J-250000D01*
G01*
X142800000Y-104375000D01*
G75*
G02*
X142550000Y-104625000I-250000J0D01*
G01*
X142050000Y-104625000D01*
G75*
G02*
X141800000Y-104375000I0J250000D01*
G01*
G37*
G04 #@! TD.AperFunction*
G04 #@! TA.AperFunction,SMDPad,CuDef*
G36*
G01*
X143700000Y-104375000D02*
X143700000Y-103425000D01*
G75*
G02*
X143950000Y-103175000I250000J0D01*
G01*
X144450000Y-103175000D01*
G75*
G02*
X144700000Y-103425000I0J-250000D01*
G01*
X144700000Y-104375000D01*
G75*
G02*
X144450000Y-104625000I-250000J0D01*
G01*
X143950000Y-104625000D01*
G75*
G02*
X143700000Y-104375000I0J250000D01*
G01*
G37*
G04 #@! TD.AperFunction*
G04 #@! TA.AperFunction,SMDPad,CuDef*
G36*
G01*
X140750000Y-107825000D02*
X140250000Y-107825000D01*
G75*
G02*
X140025000Y-107600000I0J225000D01*
G01*
X140025000Y-107150000D01*
G75*
G02*
X140250000Y-106925000I225000J0D01*
G01*
X140750000Y-106925000D01*
G75*
G02*
X140975000Y-107150000I0J-225000D01*
G01*
X140975000Y-107600000D01*
G75*
G02*
X140750000Y-107825000I-225000J0D01*
G01*
G37*
G04 #@! TD.AperFunction*
G04 #@! TA.AperFunction,SMDPad,CuDef*
G36*
G01*
X140750000Y-109375000D02*
X140250000Y-109375000D01*
G75*
G02*
X140025000Y-109150000I0J225000D01*
G01*
X140025000Y-108700000D01*
G75*
G02*
X140250000Y-108475000I225000J0D01*
G01*
X140750000Y-108475000D01*
G75*
G02*
X140975000Y-108700000I0J-225000D01*
G01*
X140975000Y-109150000D01*
G75*
G02*
X140750000Y-109375000I-225000J0D01*
G01*
G37*
G04 #@! TD.AperFunction*
G04 #@! TA.AperFunction,SMDPad,CuDef*
G36*
G01*
X142850000Y-110525000D02*
X142850000Y-111475000D01*
G75*
G02*
X142600000Y-111725000I-250000J0D01*
G01*
X142100000Y-111725000D01*
G75*
G02*
X141850000Y-111475000I0J250000D01*
G01*
X141850000Y-110525000D01*
G75*
G02*
X142100000Y-110275000I250000J0D01*
G01*
X142600000Y-110275000D01*
G75*
G02*
X142850000Y-110525000I0J-250000D01*
G01*
G37*
G04 #@! TD.AperFunction*
G04 #@! TA.AperFunction,SMDPad,CuDef*
G36*
G01*
X144750000Y-110525000D02*
X144750000Y-111475000D01*
G75*
G02*
X144500000Y-111725000I-250000J0D01*
G01*
X144000000Y-111725000D01*
G75*
G02*
X143750000Y-111475000I0J250000D01*
G01*
X143750000Y-110525000D01*
G75*
G02*
X144000000Y-110275000I250000J0D01*
G01*
X144500000Y-110275000D01*
G75*
G02*
X144750000Y-110525000I0J-250000D01*
G01*
G37*
G04 #@! TD.AperFunction*
G04 #@! TA.AperFunction,SMDPad,CuDef*
G36*
G01*
X124756250Y-96025000D02*
X124243750Y-96025000D01*
G75*
G02*
X124025000Y-95806250I0J218750D01*
G01*
X124025000Y-95368750D01*
G75*
G02*
X124243750Y-95150000I218750J0D01*
G01*
X124756250Y-95150000D01*
G75*
G02*
X124975000Y-95368750I0J-218750D01*
G01*
X124975000Y-95806250D01*
G75*
G02*
X124756250Y-96025000I-218750J0D01*
G01*
G37*
G04 #@! TD.AperFunction*
G04 #@! TA.AperFunction,SMDPad,CuDef*
G36*
G01*
X124756250Y-94450000D02*
X124243750Y-94450000D01*
G75*
G02*
X124025000Y-94231250I0J218750D01*
G01*
X124025000Y-93793750D01*
G75*
G02*
X124243750Y-93575000I218750J0D01*
G01*
X124756250Y-93575000D01*
G75*
G02*
X124975000Y-93793750I0J-218750D01*
G01*
X124975000Y-94231250D01*
G75*
G02*
X124756250Y-94450000I-218750J0D01*
G01*
G37*
G04 #@! TD.AperFunction*
G04 #@! TA.AperFunction,SMDPad,CuDef*
G36*
G01*
X123256250Y-94450000D02*
X122743750Y-94450000D01*
G75*
G02*
X122525000Y-94231250I0J218750D01*
G01*
X122525000Y-93793750D01*
G75*
G02*
X122743750Y-93575000I218750J0D01*
G01*
X123256250Y-93575000D01*
G75*
G02*
X123475000Y-93793750I0J-218750D01*
G01*
X123475000Y-94231250D01*
G75*
G02*
X123256250Y-94450000I-218750J0D01*
G01*
G37*
G04 #@! TD.AperFunction*
G04 #@! TA.AperFunction,SMDPad,CuDef*
G36*
G01*
X123256250Y-96025000D02*
X122743750Y-96025000D01*
G75*
G02*
X122525000Y-95806250I0J218750D01*
G01*
X122525000Y-95368750D01*
G75*
G02*
X122743750Y-95150000I218750J0D01*
G01*
X123256250Y-95150000D01*
G75*
G02*
X123475000Y-95368750I0J-218750D01*
G01*
X123475000Y-95806250D01*
G75*
G02*
X123256250Y-96025000I-218750J0D01*
G01*
G37*
G04 #@! TD.AperFunction*
G04 #@! TA.AperFunction,SMDPad,CuDef*
G36*
G01*
X134352500Y-105720000D02*
X137147500Y-105720000D01*
G75*
G02*
X137350000Y-105922500I0J-202500D01*
G01*
X137350000Y-106327500D01*
G75*
G02*
X137147500Y-106530000I-202500J0D01*
G01*
X134352500Y-106530000D01*
G75*
G02*
X134150000Y-106327500I0J202500D01*
G01*
X134150000Y-105922500D01*
G75*
G02*
X134352500Y-105720000I202500J0D01*
G01*
G37*
G04 #@! TD.AperFunction*
G04 #@! TA.AperFunction,SMDPad,CuDef*
G36*
G01*
X134352500Y-103920000D02*
X137147500Y-103920000D01*
G75*
G02*
X137350000Y-104122500I0J-202500D01*
G01*
X137350000Y-104527500D01*
G75*
G02*
X137147500Y-104730000I-202500J0D01*
G01*
X134352500Y-104730000D01*
G75*
G02*
X134150000Y-104527500I0J202500D01*
G01*
X134150000Y-104122500D01*
G75*
G02*
X134352500Y-103920000I202500J0D01*
G01*
G37*
G04 #@! TD.AperFunction*
G04 #@! TA.AperFunction,SMDPad,CuDef*
G36*
G01*
X125352500Y-104095000D02*
X128147500Y-104095000D01*
G75*
G02*
X128350000Y-104297500I0J-202500D01*
G01*
X128350000Y-104702500D01*
G75*
G02*
X128147500Y-104905000I-202500J0D01*
G01*
X125352500Y-104905000D01*
G75*
G02*
X125150000Y-104702500I0J202500D01*
G01*
X125150000Y-104297500D01*
G75*
G02*
X125352500Y-104095000I202500J0D01*
G01*
G37*
G04 #@! TD.AperFunction*
G04 #@! TA.AperFunction,SMDPad,CuDef*
G36*
G01*
X125352500Y-105895000D02*
X128147500Y-105895000D01*
G75*
G02*
X128350000Y-106097500I0J-202500D01*
G01*
X128350000Y-106502500D01*
G75*
G02*
X128147500Y-106705000I-202500J0D01*
G01*
X125352500Y-106705000D01*
G75*
G02*
X125150000Y-106502500I0J202500D01*
G01*
X125150000Y-106097500D01*
G75*
G02*
X125352500Y-105895000I202500J0D01*
G01*
G37*
G04 #@! TD.AperFunction*
G04 #@! TA.AperFunction,SMDPad,CuDef*
G36*
G01*
X132925000Y-106375000D02*
X132375000Y-106375000D01*
G75*
G02*
X132175000Y-106175000I0J200000D01*
G01*
X132175000Y-105775000D01*
G75*
G02*
X132375000Y-105575000I200000J0D01*
G01*
X132925000Y-105575000D01*
G75*
G02*
X133125000Y-105775000I0J-200000D01*
G01*
X133125000Y-106175000D01*
G75*
G02*
X132925000Y-106375000I-200000J0D01*
G01*
G37*
G04 #@! TD.AperFunction*
G04 #@! TA.AperFunction,SMDPad,CuDef*
G36*
G01*
X132925000Y-104725000D02*
X132375000Y-104725000D01*
G75*
G02*
X132175000Y-104525000I0J200000D01*
G01*
X132175000Y-104125000D01*
G75*
G02*
X132375000Y-103925000I200000J0D01*
G01*
X132925000Y-103925000D01*
G75*
G02*
X133125000Y-104125000I0J-200000D01*
G01*
X133125000Y-104525000D01*
G75*
G02*
X132925000Y-104725000I-200000J0D01*
G01*
G37*
G04 #@! TD.AperFunction*
G04 #@! TA.AperFunction,SMDPad,CuDef*
G36*
G01*
X137225000Y-108475000D02*
X137225000Y-109025000D01*
G75*
G02*
X137025000Y-109225000I-200000J0D01*
G01*
X136625000Y-109225000D01*
G75*
G02*
X136425000Y-109025000I0J200000D01*
G01*
X136425000Y-108475000D01*
G75*
G02*
X136625000Y-108275000I200000J0D01*
G01*
X137025000Y-108275000D01*
G75*
G02*
X137225000Y-108475000I0J-200000D01*
G01*
G37*
G04 #@! TD.AperFunction*
G04 #@! TA.AperFunction,SMDPad,CuDef*
G36*
G01*
X135575000Y-108475000D02*
X135575000Y-109025000D01*
G75*
G02*
X135375000Y-109225000I-200000J0D01*
G01*
X134975000Y-109225000D01*
G75*
G02*
X134775000Y-109025000I0J200000D01*
G01*
X134775000Y-108475000D01*
G75*
G02*
X134975000Y-108275000I200000J0D01*
G01*
X135375000Y-108275000D01*
G75*
G02*
X135575000Y-108475000I0J-200000D01*
G01*
G37*
G04 #@! TD.AperFunction*
G04 #@! TA.AperFunction,SMDPad,CuDef*
G36*
G01*
X124175000Y-104975000D02*
X123625000Y-104975000D01*
G75*
G02*
X123425000Y-104775000I0J200000D01*
G01*
X123425000Y-104375000D01*
G75*
G02*
X123625000Y-104175000I200000J0D01*
G01*
X124175000Y-104175000D01*
G75*
G02*
X124375000Y-104375000I0J-200000D01*
G01*
X124375000Y-104775000D01*
G75*
G02*
X124175000Y-104975000I-200000J0D01*
G01*
G37*
G04 #@! TD.AperFunction*
G04 #@! TA.AperFunction,SMDPad,CuDef*
G36*
G01*
X124175000Y-106625000D02*
X123625000Y-106625000D01*
G75*
G02*
X123425000Y-106425000I0J200000D01*
G01*
X123425000Y-106025000D01*
G75*
G02*
X123625000Y-105825000I200000J0D01*
G01*
X124175000Y-105825000D01*
G75*
G02*
X124375000Y-106025000I0J-200000D01*
G01*
X124375000Y-106425000D01*
G75*
G02*
X124175000Y-106625000I-200000J0D01*
G01*
G37*
G04 #@! TD.AperFunction*
G04 #@! TA.AperFunction,SMDPad,CuDef*
G36*
G01*
X130875000Y-116425000D02*
X130675000Y-116425000D01*
G75*
G02*
X130575000Y-116325000I0J100000D01*
G01*
X130575000Y-114900000D01*
G75*
G02*
X130675000Y-114800000I100000J0D01*
G01*
X130875000Y-114800000D01*
G75*
G02*
X130975000Y-114900000I0J-100000D01*
G01*
X130975000Y-116325000D01*
G75*
G02*
X130875000Y-116425000I-100000J0D01*
G01*
G37*
G04 #@! TD.AperFunction*
G04 #@! TA.AperFunction,SMDPad,CuDef*
G36*
G01*
X131525000Y-116425000D02*
X131325000Y-116425000D01*
G75*
G02*
X131225000Y-116325000I0J100000D01*
G01*
X131225000Y-114900000D01*
G75*
G02*
X131325000Y-114800000I100000J0D01*
G01*
X131525000Y-114800000D01*
G75*
G02*
X131625000Y-114900000I0J-100000D01*
G01*
X131625000Y-116325000D01*
G75*
G02*
X131525000Y-116425000I-100000J0D01*
G01*
G37*
G04 #@! TD.AperFunction*
G04 #@! TA.AperFunction,SMDPad,CuDef*
G36*
G01*
X132175000Y-116425000D02*
X131975000Y-116425000D01*
G75*
G02*
X131875000Y-116325000I0J100000D01*
G01*
X131875000Y-114900000D01*
G75*
G02*
X131975000Y-114800000I100000J0D01*
G01*
X132175000Y-114800000D01*
G75*
G02*
X132275000Y-114900000I0J-100000D01*
G01*
X132275000Y-116325000D01*
G75*
G02*
X132175000Y-116425000I-100000J0D01*
G01*
G37*
G04 #@! TD.AperFunction*
G04 #@! TA.AperFunction,SMDPad,CuDef*
G36*
G01*
X132825000Y-116425000D02*
X132625000Y-116425000D01*
G75*
G02*
X132525000Y-116325000I0J100000D01*
G01*
X132525000Y-114900000D01*
G75*
G02*
X132625000Y-114800000I100000J0D01*
G01*
X132825000Y-114800000D01*
G75*
G02*
X132925000Y-114900000I0J-100000D01*
G01*
X132925000Y-116325000D01*
G75*
G02*
X132825000Y-116425000I-100000J0D01*
G01*
G37*
G04 #@! TD.AperFunction*
G04 #@! TA.AperFunction,SMDPad,CuDef*
G36*
G01*
X132825000Y-112200000D02*
X132625000Y-112200000D01*
G75*
G02*
X132525000Y-112100000I0J100000D01*
G01*
X132525000Y-110675000D01*
G75*
G02*
X132625000Y-110575000I100000J0D01*
G01*
X132825000Y-110575000D01*
G75*
G02*
X132925000Y-110675000I0J-100000D01*
G01*
X132925000Y-112100000D01*
G75*
G02*
X132825000Y-112200000I-100000J0D01*
G01*
G37*
G04 #@! TD.AperFunction*
G04 #@! TA.AperFunction,SMDPad,CuDef*
G36*
G01*
X132175000Y-112200000D02*
X131975000Y-112200000D01*
G75*
G02*
X131875000Y-112100000I0J100000D01*
G01*
X131875000Y-110675000D01*
G75*
G02*
X131975000Y-110575000I100000J0D01*
G01*
X132175000Y-110575000D01*
G75*
G02*
X132275000Y-110675000I0J-100000D01*
G01*
X132275000Y-112100000D01*
G75*
G02*
X132175000Y-112200000I-100000J0D01*
G01*
G37*
G04 #@! TD.AperFunction*
G04 #@! TA.AperFunction,SMDPad,CuDef*
G36*
G01*
X131525000Y-112200000D02*
X131325000Y-112200000D01*
G75*
G02*
X131225000Y-112100000I0J100000D01*
G01*
X131225000Y-110675000D01*
G75*
G02*
X131325000Y-110575000I100000J0D01*
G01*
X131525000Y-110575000D01*
G75*
G02*
X131625000Y-110675000I0J-100000D01*
G01*
X131625000Y-112100000D01*
G75*
G02*
X131525000Y-112200000I-100000J0D01*
G01*
G37*
G04 #@! TD.AperFunction*
G04 #@! TA.AperFunction,SMDPad,CuDef*
G36*
G01*
X130875000Y-112200000D02*
X130675000Y-112200000D01*
G75*
G02*
X130575000Y-112100000I0J100000D01*
G01*
X130575000Y-110675000D01*
G75*
G02*
X130675000Y-110575000I100000J0D01*
G01*
X130875000Y-110575000D01*
G75*
G02*
X130975000Y-110675000I0J-100000D01*
G01*
X130975000Y-112100000D01*
G75*
G02*
X130875000Y-112200000I-100000J0D01*
G01*
G37*
G04 #@! TD.AperFunction*
D26*
X134790000Y-91850000D03*
X134790000Y-92800000D03*
X134790000Y-93750000D03*
X137410000Y-93750000D03*
X137410000Y-91850000D03*
D27*
X144200000Y-108710000D03*
X142300000Y-108710000D03*
X142300000Y-106090000D03*
X143250000Y-106090000D03*
X144200000Y-106090000D03*
G04 #@! TA.AperFunction,SMDPad,CuDef*
G36*
G01*
X135125000Y-116425000D02*
X134925000Y-116425000D01*
G75*
G02*
X134825000Y-116325000I0J100000D01*
G01*
X134825000Y-114900000D01*
G75*
G02*
X134925000Y-114800000I100000J0D01*
G01*
X135125000Y-114800000D01*
G75*
G02*
X135225000Y-114900000I0J-100000D01*
G01*
X135225000Y-116325000D01*
G75*
G02*
X135125000Y-116425000I-100000J0D01*
G01*
G37*
G04 #@! TD.AperFunction*
G04 #@! TA.AperFunction,SMDPad,CuDef*
G36*
G01*
X135775000Y-116425000D02*
X135575000Y-116425000D01*
G75*
G02*
X135475000Y-116325000I0J100000D01*
G01*
X135475000Y-114900000D01*
G75*
G02*
X135575000Y-114800000I100000J0D01*
G01*
X135775000Y-114800000D01*
G75*
G02*
X135875000Y-114900000I0J-100000D01*
G01*
X135875000Y-116325000D01*
G75*
G02*
X135775000Y-116425000I-100000J0D01*
G01*
G37*
G04 #@! TD.AperFunction*
G04 #@! TA.AperFunction,SMDPad,CuDef*
G36*
G01*
X136425000Y-116425000D02*
X136225000Y-116425000D01*
G75*
G02*
X136125000Y-116325000I0J100000D01*
G01*
X136125000Y-114900000D01*
G75*
G02*
X136225000Y-114800000I100000J0D01*
G01*
X136425000Y-114800000D01*
G75*
G02*
X136525000Y-114900000I0J-100000D01*
G01*
X136525000Y-116325000D01*
G75*
G02*
X136425000Y-116425000I-100000J0D01*
G01*
G37*
G04 #@! TD.AperFunction*
G04 #@! TA.AperFunction,SMDPad,CuDef*
G36*
G01*
X137075000Y-116425000D02*
X136875000Y-116425000D01*
G75*
G02*
X136775000Y-116325000I0J100000D01*
G01*
X136775000Y-114900000D01*
G75*
G02*
X136875000Y-114800000I100000J0D01*
G01*
X137075000Y-114800000D01*
G75*
G02*
X137175000Y-114900000I0J-100000D01*
G01*
X137175000Y-116325000D01*
G75*
G02*
X137075000Y-116425000I-100000J0D01*
G01*
G37*
G04 #@! TD.AperFunction*
G04 #@! TA.AperFunction,SMDPad,CuDef*
G36*
G01*
X137075000Y-112200000D02*
X136875000Y-112200000D01*
G75*
G02*
X136775000Y-112100000I0J100000D01*
G01*
X136775000Y-110675000D01*
G75*
G02*
X136875000Y-110575000I100000J0D01*
G01*
X137075000Y-110575000D01*
G75*
G02*
X137175000Y-110675000I0J-100000D01*
G01*
X137175000Y-112100000D01*
G75*
G02*
X137075000Y-112200000I-100000J0D01*
G01*
G37*
G04 #@! TD.AperFunction*
G04 #@! TA.AperFunction,SMDPad,CuDef*
G36*
G01*
X136425000Y-112200000D02*
X136225000Y-112200000D01*
G75*
G02*
X136125000Y-112100000I0J100000D01*
G01*
X136125000Y-110675000D01*
G75*
G02*
X136225000Y-110575000I100000J0D01*
G01*
X136425000Y-110575000D01*
G75*
G02*
X136525000Y-110675000I0J-100000D01*
G01*
X136525000Y-112100000D01*
G75*
G02*
X136425000Y-112200000I-100000J0D01*
G01*
G37*
G04 #@! TD.AperFunction*
G04 #@! TA.AperFunction,SMDPad,CuDef*
G36*
G01*
X135775000Y-112200000D02*
X135575000Y-112200000D01*
G75*
G02*
X135475000Y-112100000I0J100000D01*
G01*
X135475000Y-110675000D01*
G75*
G02*
X135575000Y-110575000I100000J0D01*
G01*
X135775000Y-110575000D01*
G75*
G02*
X135875000Y-110675000I0J-100000D01*
G01*
X135875000Y-112100000D01*
G75*
G02*
X135775000Y-112200000I-100000J0D01*
G01*
G37*
G04 #@! TD.AperFunction*
G04 #@! TA.AperFunction,SMDPad,CuDef*
G36*
G01*
X135125000Y-112200000D02*
X134925000Y-112200000D01*
G75*
G02*
X134825000Y-112100000I0J100000D01*
G01*
X134825000Y-110675000D01*
G75*
G02*
X134925000Y-110575000I100000J0D01*
G01*
X135125000Y-110575000D01*
G75*
G02*
X135225000Y-110675000I0J-100000D01*
G01*
X135225000Y-112100000D01*
G75*
G02*
X135125000Y-112200000I-100000J0D01*
G01*
G37*
G04 #@! TD.AperFunction*
D28*
X133450001Y-93349999D03*
X133450001Y-94399967D03*
X133450000Y-95350000D03*
X134450000Y-95350000D03*
X135450000Y-95350000D03*
X132450000Y-95350000D03*
X131450000Y-95350000D03*
X131400000Y-114100000D03*
X140750000Y-111000000D03*
X141000000Y-114500000D03*
X145350002Y-103900000D03*
X145800000Y-105700000D03*
X145800000Y-106700000D03*
X145800000Y-107700000D03*
X145800000Y-108700000D03*
X145800000Y-109700000D03*
X145800000Y-110700000D03*
X145800000Y-111700000D03*
X136450000Y-95350000D03*
X137450000Y-95350000D03*
X138450000Y-95350000D03*
X139450000Y-95350000D03*
X140450000Y-95350000D03*
X141450000Y-95350000D03*
X142450000Y-95350000D03*
X130450000Y-95350000D03*
X129450000Y-95350000D03*
X120300000Y-96300000D03*
X116750000Y-106400000D03*
X135750000Y-98750000D03*
X136750000Y-98750000D03*
X135750000Y-99750000D03*
X136750000Y-99750000D03*
X135750000Y-100750000D03*
X136750000Y-100750000D03*
X135750000Y-101750000D03*
X136750000Y-101750000D03*
X119000000Y-109200000D03*
X133950000Y-111350000D03*
X138400000Y-111350000D03*
X125850000Y-94000000D03*
X117400000Y-95300000D03*
X132500000Y-107500000D03*
X134500000Y-107500000D03*
X137000000Y-107500000D03*
D29*
X95000000Y-113000000D02*
X92600000Y-115400000D01*
X95000000Y-103000000D02*
X95000000Y-113000000D01*
X95000000Y-101000000D02*
X95000000Y-98200000D01*
X95350000Y-97850000D02*
X95350000Y-95500000D01*
X95000000Y-98200000D02*
X95350000Y-97850000D01*
X95350000Y-95500000D02*
X95350000Y-94050000D01*
X95900000Y-93500000D02*
X109500000Y-93500000D01*
X95350000Y-94050000D02*
X95900000Y-93500000D01*
D30*
X106600000Y-104000000D02*
X110380000Y-107780000D01*
X100000000Y-104000000D02*
X106600000Y-104000000D01*
X97000000Y-101000000D02*
X100000000Y-104000000D01*
X95000000Y-101000000D02*
X97000000Y-101000000D01*
X111800000Y-93500000D02*
X109500000Y-93500000D01*
X112050000Y-93250000D02*
X111800000Y-93500000D01*
X113000000Y-93250000D02*
X112050000Y-93250000D01*
X116300000Y-91650000D02*
X115250000Y-91650000D01*
X115250000Y-91650000D02*
X114200000Y-90600000D01*
X109450000Y-90600000D02*
X108550000Y-91500000D01*
X114200000Y-90600000D02*
X109450000Y-90600000D01*
D29*
X92600000Y-94100000D02*
X92600000Y-107780000D01*
X95200000Y-91500000D02*
X92600000Y-94100000D01*
X108550000Y-91500000D02*
X95200000Y-91500000D01*
D31*
X122000000Y-110770000D02*
X122000000Y-112040000D01*
X105220001Y-110399999D02*
X100220000Y-115400000D01*
X118999999Y-110399999D02*
X105220001Y-110399999D01*
X119370000Y-110770000D02*
X118999999Y-110399999D01*
D30*
X125500000Y-114100000D02*
X124200000Y-115400000D01*
D31*
X122000000Y-112040000D02*
X122000000Y-114250000D01*
X122750000Y-115000000D02*
X125000000Y-115000000D01*
X122000000Y-114250000D02*
X122750000Y-115000000D01*
D30*
X125550000Y-114450000D02*
X125000000Y-115000000D01*
D31*
X120970000Y-110770000D02*
X119370000Y-110770000D01*
X122000000Y-110770000D02*
X120970000Y-110770000D01*
X125000000Y-115000000D02*
X125000000Y-110500000D01*
X125000000Y-110500000D02*
X126000000Y-109500000D01*
X126000000Y-109500000D02*
X126000000Y-107750000D01*
D30*
X120500000Y-110300000D02*
X120970000Y-110770000D01*
X120500000Y-107375000D02*
X120500000Y-110300000D01*
D29*
X102500000Y-103250000D02*
X102500000Y-101600000D01*
X102500000Y-101600000D02*
X102362000Y-101462000D01*
X102362000Y-101462000D02*
X102362000Y-99500000D01*
X141700000Y-93750000D02*
X141700000Y-95050000D01*
X134000000Y-92800000D02*
X133450001Y-93349999D01*
X134790000Y-92800000D02*
X134000000Y-92800000D01*
X133100000Y-93700000D02*
X133450001Y-93349999D01*
X131900000Y-93700000D02*
X133100000Y-93700000D01*
X133450001Y-93349999D02*
X133450001Y-94399967D01*
X133450001Y-95349999D02*
X133450000Y-95350000D01*
X133450001Y-94399967D02*
X133450001Y-95349999D01*
X131450000Y-95350000D02*
X132450000Y-95350000D01*
X132450000Y-95350000D02*
X135450000Y-95350000D01*
X127975000Y-95600000D02*
X130400000Y-95600000D01*
X130650000Y-95350000D02*
X131450000Y-95350000D01*
X130400000Y-95600000D02*
X130650000Y-95350000D01*
D32*
X131425000Y-114125000D02*
X131400000Y-114100000D01*
X131425000Y-115612500D02*
X131425000Y-114125000D01*
D29*
X142350000Y-111000000D02*
X140750000Y-111000000D01*
X144200000Y-106090000D02*
X144200000Y-103900000D01*
X142287500Y-114500000D02*
X141000000Y-114500000D01*
X144200000Y-103900000D02*
X145350002Y-103900000D01*
D30*
X119825000Y-95825000D02*
X119825000Y-95600000D01*
X120300000Y-96300000D02*
X119825000Y-95825000D01*
X115600000Y-106400000D02*
X116750000Y-106400000D01*
X118300000Y-95205000D02*
X118300000Y-95000000D01*
X118300000Y-95000000D02*
X118300000Y-92600000D01*
X118300000Y-92600000D02*
X118300000Y-96600000D01*
X119100000Y-98900000D02*
X119700000Y-99500000D01*
X119700000Y-99500000D02*
X120685000Y-99500000D01*
X119100000Y-97400000D02*
X119100000Y-98900000D01*
X118300000Y-96600000D02*
X119100000Y-97400000D01*
X110450000Y-91500000D02*
X111800000Y-91500000D01*
X112050000Y-91750000D02*
X113000000Y-91750000D01*
X111800000Y-91500000D02*
X112050000Y-91750000D01*
X113000000Y-91750000D02*
X114150000Y-91750000D01*
X115000000Y-92600000D02*
X118300000Y-92600000D01*
X114150000Y-91750000D02*
X115000000Y-92600000D01*
D29*
X102500000Y-105500000D02*
X100220000Y-107780000D01*
X102500000Y-104750000D02*
X102500000Y-105500000D01*
D30*
X123000000Y-96100000D02*
X123000000Y-95587500D01*
X124495000Y-97595000D02*
X123000000Y-96100000D01*
X121387500Y-95587500D02*
X121375000Y-95600000D01*
X123000000Y-95587500D02*
X121387500Y-95587500D01*
D32*
X145212500Y-114500000D02*
X145212500Y-116487500D01*
X145212500Y-116487500D02*
X144800000Y-116900000D01*
X144800000Y-116900000D02*
X136550000Y-116900000D01*
X136325000Y-116675000D02*
X136325000Y-115650000D01*
X136550000Y-116900000D02*
X136325000Y-116675000D01*
D29*
X145212500Y-114500000D02*
X145850000Y-114500000D01*
X147850000Y-112500000D02*
X151500000Y-112500000D01*
X145850000Y-114500000D02*
X147850000Y-112500000D01*
X151500000Y-94300000D02*
X150200000Y-93000000D01*
X151500000Y-99500000D02*
X151500000Y-94300000D01*
D30*
X122590000Y-102310000D02*
X122590000Y-101405000D01*
X122200000Y-102700000D02*
X122590000Y-102310000D01*
X122200000Y-105400000D02*
X122200000Y-102700000D01*
X121000000Y-106600000D02*
X122200000Y-105400000D01*
X119600000Y-106600000D02*
X121000000Y-106600000D01*
X119000000Y-107200000D02*
X119600000Y-106600000D01*
X119000000Y-109200000D02*
X119000000Y-107200000D01*
X120685000Y-104715000D02*
X120500000Y-104900000D01*
X120685000Y-101405000D02*
X120685000Y-104715000D01*
X120500000Y-104900000D02*
X120500000Y-105725000D01*
D32*
X124495000Y-99500000D02*
X124500000Y-99500000D01*
X124500000Y-99500000D02*
X125450000Y-98550000D01*
X125450000Y-98550000D02*
X125450000Y-97000000D01*
X124500000Y-96050000D02*
X124500000Y-95587500D01*
X125450000Y-97000000D02*
X124500000Y-96050000D01*
D30*
X124512500Y-95600000D02*
X124500000Y-95587500D01*
X126425000Y-95600000D02*
X124512500Y-95600000D01*
D32*
X132075000Y-114125000D02*
X132075000Y-115612500D01*
X132575000Y-114275000D02*
X132725000Y-114425000D01*
X132725000Y-114425000D02*
X132725000Y-115612500D01*
X132575000Y-114275000D02*
X134825000Y-114275000D01*
X135675000Y-113425000D02*
X135675000Y-111387500D01*
X134825000Y-114275000D02*
X135675000Y-113425000D01*
X132125000Y-114275000D02*
X132575000Y-114275000D01*
X132100000Y-114250000D02*
X132125000Y-114275000D01*
X132100000Y-113800000D02*
X132100000Y-114250000D01*
X131800000Y-113500000D02*
X132100000Y-113800000D01*
X129775000Y-113500000D02*
X131800000Y-113500000D01*
X129000000Y-114275000D02*
X129775000Y-113500000D01*
X129000000Y-112725000D02*
X131125000Y-112725000D01*
X131425000Y-112425000D02*
X131425000Y-111387500D01*
X131125000Y-112725000D02*
X131425000Y-112425000D01*
X131125000Y-112725000D02*
X132625000Y-112725000D01*
X132725000Y-112625000D02*
X132725000Y-111387500D01*
X132625000Y-112725000D02*
X132725000Y-112625000D01*
X136325000Y-110375000D02*
X136325000Y-111350000D01*
X136000000Y-110050000D02*
X136325000Y-110375000D01*
X133165698Y-110050000D02*
X136000000Y-110050000D01*
X132725000Y-110490698D02*
X133165698Y-110050000D01*
X132725000Y-111387500D02*
X132725000Y-110490698D01*
D29*
X139425000Y-91850000D02*
X139450000Y-91825000D01*
X137410000Y-91850000D02*
X139425000Y-91850000D01*
X141675000Y-91825000D02*
X141700000Y-91850000D01*
X139450000Y-91825000D02*
X141675000Y-91825000D01*
D30*
X133987500Y-111387500D02*
X133950000Y-111350000D01*
X135025000Y-111387500D02*
X133987500Y-111387500D01*
X143200000Y-91850000D02*
X141700000Y-91850000D01*
X144450000Y-93100000D02*
X143200000Y-91850000D01*
X144450000Y-100900000D02*
X144450000Y-93100000D01*
X143300000Y-102050000D02*
X144450000Y-100900000D01*
X139000000Y-104200000D02*
X141150000Y-102050000D01*
X141150000Y-102050000D02*
X143300000Y-102050000D01*
X139000000Y-110750000D02*
X139000000Y-104200000D01*
X138400000Y-111350000D02*
X139000000Y-110750000D01*
D29*
X144200000Y-110950000D02*
X144250000Y-111000000D01*
X144200000Y-110000000D02*
X144200000Y-110950000D01*
X144200000Y-108710000D02*
X144200000Y-110000000D01*
D32*
X144000000Y-109800000D02*
X144200000Y-110000000D01*
X140850000Y-109800000D02*
X144000000Y-109800000D01*
X140500000Y-109450000D02*
X140850000Y-109800000D01*
X140500000Y-108925000D02*
X140500000Y-109450000D01*
D30*
X138375000Y-115650000D02*
X138750000Y-115275000D01*
X136975000Y-115650000D02*
X138375000Y-115650000D01*
X138750000Y-115275000D02*
X140050000Y-113975000D01*
X140050000Y-113975000D02*
X140050000Y-110250000D01*
X140500000Y-109800000D02*
X140500000Y-108925000D01*
X140050000Y-110250000D02*
X140500000Y-109800000D01*
D29*
X128950000Y-91800000D02*
X132550000Y-91800000D01*
X126737500Y-94012500D02*
X128950000Y-91800000D01*
X132600000Y-91850000D02*
X132550000Y-91800000D01*
X134790000Y-91850000D02*
X132600000Y-91850000D01*
D30*
X135700000Y-91850000D02*
X134790000Y-91850000D01*
X136100000Y-92250000D02*
X135700000Y-91850000D01*
X136100000Y-93350000D02*
X136100000Y-92250000D01*
X135700000Y-93750000D02*
X136100000Y-93350000D01*
X134790000Y-93750000D02*
X135700000Y-93750000D01*
X125412500Y-94012500D02*
X125837500Y-94012500D01*
X125837500Y-94012500D02*
X125850000Y-94000000D01*
D29*
X125412500Y-94012500D02*
X126737500Y-94012500D01*
X124500000Y-94012500D02*
X125412500Y-94012500D01*
D30*
X98650000Y-95500000D02*
X100700000Y-95500000D01*
X100700000Y-95500000D02*
X100900000Y-95300000D01*
X117400000Y-95300000D02*
X100900000Y-95300000D01*
D32*
X137410000Y-93750000D02*
X138250000Y-93750000D01*
X138625000Y-93375000D02*
X139450000Y-93375000D01*
X138250000Y-93750000D02*
X138625000Y-93375000D01*
X142300000Y-108710000D02*
X142300000Y-107550000D01*
X142300000Y-107550000D02*
X142450000Y-107400000D01*
X142450000Y-107400000D02*
X143000000Y-107400000D01*
X143250000Y-107150000D02*
X143250000Y-106090000D01*
X143000000Y-107400000D02*
X143250000Y-107150000D01*
D29*
X143250000Y-104850000D02*
X143250000Y-106090000D01*
X142300000Y-103900000D02*
X143250000Y-104850000D01*
D30*
X142300000Y-102800000D02*
X142300000Y-103900000D01*
X142300000Y-102550000D02*
X142300000Y-102800000D01*
X142549990Y-102500010D02*
X142500000Y-102550000D01*
X143486401Y-102500009D02*
X142549990Y-102500010D01*
X145000000Y-100986410D02*
X143486401Y-102500009D01*
X142500000Y-102550000D02*
X142300000Y-102550000D01*
X145000000Y-93013590D02*
X145000000Y-100986410D01*
X142961400Y-90974990D02*
X145000000Y-93013590D01*
X123000000Y-92600000D02*
X124625010Y-90974990D01*
X124625010Y-90974990D02*
X142961400Y-90974990D01*
X123000000Y-94012500D02*
X123000000Y-92600000D01*
D32*
X142300000Y-106090000D02*
X140860000Y-106090000D01*
X140500000Y-106450000D02*
X140500000Y-107375000D01*
X140860000Y-106090000D02*
X140500000Y-106450000D01*
D31*
X116600000Y-112600000D02*
X119500000Y-115500000D01*
X108100000Y-112600000D02*
X116600000Y-112600000D01*
X105300000Y-115400000D02*
X108100000Y-112600000D01*
D32*
X135175000Y-108175000D02*
X135100000Y-108100000D01*
X135175000Y-108750000D02*
X135175000Y-108175000D01*
X135100000Y-108100000D02*
X134500000Y-107500000D01*
X136975000Y-111350000D02*
X136975000Y-109400000D01*
X132450000Y-110200000D02*
X132075000Y-110575000D01*
X132075000Y-110575000D02*
X132075000Y-111387500D01*
X136825000Y-109250000D02*
X136975000Y-109400000D01*
X136825000Y-108750000D02*
X136825000Y-109250000D01*
X133000000Y-109650000D02*
X132450000Y-110200000D01*
X136600000Y-109650000D02*
X133000000Y-109650000D01*
X136975000Y-110025000D02*
X136600000Y-109650000D01*
X136975000Y-111350000D02*
X136975000Y-110025000D01*
X130775000Y-110325000D02*
X130775000Y-111387500D01*
X131450000Y-109650000D02*
X130775000Y-110325000D01*
X133000000Y-109650000D02*
X131450000Y-109650000D01*
X130775000Y-115612500D02*
X130775000Y-116575000D01*
X130775000Y-116575000D02*
X131200000Y-117000000D01*
X131200000Y-117000000D02*
X134800000Y-117000000D01*
X135025000Y-116775000D02*
X135025000Y-115650000D01*
X134800000Y-117000000D02*
X135025000Y-116775000D01*
X134800000Y-117000000D02*
X135550000Y-117000000D01*
X135675000Y-116875000D02*
X135675000Y-115650000D01*
X135550000Y-117000000D02*
X135675000Y-116875000D01*
X116550000Y-103800000D02*
X116550000Y-104400000D01*
X119900000Y-100450000D02*
X116550000Y-103800000D01*
X121300000Y-100450000D02*
X119900000Y-100450000D01*
X121638060Y-100111940D02*
X121300000Y-100450000D01*
X121638060Y-98911940D02*
X121638060Y-100111940D01*
X122590000Y-97960000D02*
X121638060Y-98911940D01*
X122590000Y-97595000D02*
X122590000Y-97960000D01*
D33*
X158148000Y-104373000D02*
X146802606Y-104373000D01*
X146627000Y-104197394D01*
X146627000Y-103264531D01*
X147915074Y-103264531D01*
X148025921Y-103541714D01*
X148336840Y-103695089D01*
X148671705Y-103784860D01*
X149017650Y-103807576D01*
X149361380Y-103762366D01*
X149689685Y-103650966D01*
X149894079Y-103541714D01*
X150004926Y-103264531D01*
X152995074Y-103264531D01*
X153105921Y-103541714D01*
X153416840Y-103695089D01*
X153751705Y-103784860D01*
X154097650Y-103807576D01*
X154441380Y-103762366D01*
X154769685Y-103650966D01*
X154974079Y-103541714D01*
X155084926Y-103264531D01*
X154040000Y-102219605D01*
X152995074Y-103264531D01*
X150004926Y-103264531D01*
X148960000Y-102219605D01*
X147915074Y-103264531D01*
X146627000Y-103264531D01*
X146627000Y-102097650D01*
X147192424Y-102097650D01*
X147237634Y-102441380D01*
X147349034Y-102769685D01*
X147458286Y-102974079D01*
X147735469Y-103084926D01*
X148780395Y-102040000D01*
X147735469Y-100995074D01*
X147458286Y-101105921D01*
X147304911Y-101416840D01*
X147215140Y-101751705D01*
X147192424Y-102097650D01*
X146627000Y-102097650D01*
X146627000Y-97017650D01*
X147192424Y-97017650D01*
X147237634Y-97361380D01*
X147349034Y-97689685D01*
X147458286Y-97894079D01*
X147735469Y-98004926D01*
X148780395Y-96960000D01*
X147735469Y-95915074D01*
X147458286Y-96025921D01*
X147304911Y-96336840D01*
X147215140Y-96671705D01*
X147192424Y-97017650D01*
X146627000Y-97017650D01*
X146627000Y-95735469D01*
X147915074Y-95735469D01*
X148960000Y-96780395D01*
X150004926Y-95735469D01*
X149894079Y-95458286D01*
X149583160Y-95304911D01*
X149248295Y-95215140D01*
X148902350Y-95192424D01*
X148558620Y-95237634D01*
X148230315Y-95349034D01*
X148025921Y-95458286D01*
X147915074Y-95735469D01*
X146627000Y-95735469D01*
X146627000Y-92895465D01*
X147873320Y-92895465D01*
X147873320Y-93304535D01*
X147953126Y-93705745D01*
X148109670Y-94083677D01*
X148336937Y-94423806D01*
X148626194Y-94713063D01*
X148966323Y-94940330D01*
X149344255Y-95096874D01*
X149745465Y-95176680D01*
X150154535Y-95176680D01*
X150423001Y-95123279D01*
X150423001Y-96010439D01*
X150184531Y-95915074D01*
X149139605Y-96960000D01*
X149153748Y-96974143D01*
X148974143Y-97153748D01*
X148960000Y-97139605D01*
X147915074Y-98184531D01*
X148025921Y-98461714D01*
X148336840Y-98615089D01*
X148671705Y-98704860D01*
X149017650Y-98727576D01*
X149361380Y-98682366D01*
X149689685Y-98570966D01*
X149894079Y-98461714D01*
X150004925Y-98184533D01*
X150100635Y-98280243D01*
X150061458Y-98319419D01*
X149858779Y-98622749D01*
X149719171Y-98959792D01*
X149648000Y-99317594D01*
X149648000Y-99682406D01*
X149719171Y-100040208D01*
X149858779Y-100377251D01*
X150061458Y-100680581D01*
X150100635Y-100719758D01*
X150004925Y-100815467D01*
X149894079Y-100538286D01*
X149583160Y-100384911D01*
X149248295Y-100295140D01*
X148902350Y-100272424D01*
X148558620Y-100317634D01*
X148230315Y-100429034D01*
X148025921Y-100538286D01*
X147915074Y-100815469D01*
X148960000Y-101860395D01*
X148974143Y-101846253D01*
X149153748Y-102025858D01*
X149139605Y-102040000D01*
X150184531Y-103084926D01*
X150461714Y-102974079D01*
X150615089Y-102663160D01*
X150704860Y-102328295D01*
X150727576Y-101982350D01*
X150682366Y-101638620D01*
X150570966Y-101310315D01*
X150461714Y-101105921D01*
X150184533Y-100995075D01*
X150280243Y-100899366D01*
X150319419Y-100938542D01*
X150622749Y-101141221D01*
X150959792Y-101280829D01*
X151317594Y-101352000D01*
X151682406Y-101352000D01*
X152040208Y-101280829D01*
X152377251Y-101141221D01*
X152680581Y-100938542D01*
X152719758Y-100899366D01*
X152815467Y-100995075D01*
X152538286Y-101105921D01*
X152384911Y-101416840D01*
X152295140Y-101751705D01*
X152272424Y-102097650D01*
X152317634Y-102441380D01*
X152429034Y-102769685D01*
X152538286Y-102974079D01*
X152815469Y-103084926D01*
X153860395Y-102040000D01*
X154219605Y-102040000D01*
X155264531Y-103084926D01*
X155541714Y-102974079D01*
X155695089Y-102663160D01*
X155784860Y-102328295D01*
X155807576Y-101982350D01*
X155762366Y-101638620D01*
X155650966Y-101310315D01*
X155541714Y-101105921D01*
X155264531Y-100995074D01*
X154219605Y-102040000D01*
X153860395Y-102040000D01*
X153846253Y-102025858D01*
X154025858Y-101846253D01*
X154040000Y-101860395D01*
X155084926Y-100815469D01*
X154974079Y-100538286D01*
X154663160Y-100384911D01*
X154328295Y-100295140D01*
X153982350Y-100272424D01*
X153638620Y-100317634D01*
X153310315Y-100429034D01*
X153105921Y-100538286D01*
X152995075Y-100815467D01*
X152899366Y-100719758D01*
X152938542Y-100680581D01*
X153141221Y-100377251D01*
X153280829Y-100040208D01*
X153352000Y-99682406D01*
X153352000Y-99317594D01*
X153280829Y-98959792D01*
X153141221Y-98622749D01*
X152938542Y-98319419D01*
X152899366Y-98280243D01*
X152995075Y-98184533D01*
X153105921Y-98461714D01*
X153416840Y-98615089D01*
X153751705Y-98704860D01*
X154097650Y-98727576D01*
X154441380Y-98682366D01*
X154769685Y-98570966D01*
X154974079Y-98461714D01*
X155084926Y-98184531D01*
X154040000Y-97139605D01*
X154025858Y-97153748D01*
X153846253Y-96974143D01*
X153860395Y-96960000D01*
X154219605Y-96960000D01*
X155264531Y-98004926D01*
X155541714Y-97894079D01*
X155695089Y-97583160D01*
X155784860Y-97248295D01*
X155807576Y-96902350D01*
X155762366Y-96558620D01*
X155650966Y-96230315D01*
X155541714Y-96025921D01*
X155264531Y-95915074D01*
X154219605Y-96960000D01*
X153860395Y-96960000D01*
X152815469Y-95915074D01*
X152577000Y-96010439D01*
X152577000Y-95735469D01*
X152995074Y-95735469D01*
X154040000Y-96780395D01*
X155084926Y-95735469D01*
X154974079Y-95458286D01*
X154663160Y-95304911D01*
X154328295Y-95215140D01*
X153982350Y-95192424D01*
X153638620Y-95237634D01*
X153310315Y-95349034D01*
X153105921Y-95458286D01*
X152995074Y-95735469D01*
X152577000Y-95735469D01*
X152577000Y-94668525D01*
X152592104Y-94703315D01*
X152924262Y-94869139D01*
X153282387Y-94966975D01*
X153652719Y-94993065D01*
X154021025Y-94946405D01*
X154373151Y-94828789D01*
X154607896Y-94703315D01*
X154733771Y-94413377D01*
X153600000Y-93279605D01*
X153585858Y-93293748D01*
X153406252Y-93114142D01*
X153420395Y-93100000D01*
X153779605Y-93100000D01*
X154913377Y-94233771D01*
X155203315Y-94107896D01*
X155369139Y-93775738D01*
X155466975Y-93417613D01*
X155493065Y-93047281D01*
X155446405Y-92678975D01*
X155328789Y-92326849D01*
X155203315Y-92092104D01*
X154913377Y-91966229D01*
X153779605Y-93100000D01*
X153420395Y-93100000D01*
X152286623Y-91966229D01*
X151996685Y-92092104D01*
X151878421Y-92328995D01*
X151790330Y-92116323D01*
X151570032Y-91786623D01*
X152466229Y-91786623D01*
X153600000Y-92920395D01*
X154733771Y-91786623D01*
X154607896Y-91496685D01*
X154275738Y-91330861D01*
X153917613Y-91233025D01*
X153547281Y-91206935D01*
X153178975Y-91253595D01*
X152826849Y-91371211D01*
X152592104Y-91496685D01*
X152466229Y-91786623D01*
X151570032Y-91786623D01*
X151563063Y-91776194D01*
X151273806Y-91486937D01*
X150933677Y-91259670D01*
X150555745Y-91103126D01*
X150154535Y-91023320D01*
X149745465Y-91023320D01*
X149344255Y-91103126D01*
X148966323Y-91259670D01*
X148626194Y-91486937D01*
X148336937Y-91776194D01*
X148109670Y-92116323D01*
X147953126Y-92494255D01*
X147873320Y-92895465D01*
X146627000Y-92895465D01*
X146627000Y-90852000D01*
X158148000Y-90852000D01*
X158148000Y-104373000D01*
G04 #@! TA.AperFunction,Conductor*
D34*
G36*
X158148000Y-104373000D02*
G01*
X146802606Y-104373000D01*
X146627000Y-104197394D01*
X146627000Y-103264531D01*
X147915074Y-103264531D01*
X148025921Y-103541714D01*
X148336840Y-103695089D01*
X148671705Y-103784860D01*
X149017650Y-103807576D01*
X149361380Y-103762366D01*
X149689685Y-103650966D01*
X149894079Y-103541714D01*
X150004926Y-103264531D01*
X152995074Y-103264531D01*
X153105921Y-103541714D01*
X153416840Y-103695089D01*
X153751705Y-103784860D01*
X154097650Y-103807576D01*
X154441380Y-103762366D01*
X154769685Y-103650966D01*
X154974079Y-103541714D01*
X155084926Y-103264531D01*
X154040000Y-102219605D01*
X152995074Y-103264531D01*
X150004926Y-103264531D01*
X148960000Y-102219605D01*
X147915074Y-103264531D01*
X146627000Y-103264531D01*
X146627000Y-102097650D01*
X147192424Y-102097650D01*
X147237634Y-102441380D01*
X147349034Y-102769685D01*
X147458286Y-102974079D01*
X147735469Y-103084926D01*
X148780395Y-102040000D01*
X147735469Y-100995074D01*
X147458286Y-101105921D01*
X147304911Y-101416840D01*
X147215140Y-101751705D01*
X147192424Y-102097650D01*
X146627000Y-102097650D01*
X146627000Y-97017650D01*
X147192424Y-97017650D01*
X147237634Y-97361380D01*
X147349034Y-97689685D01*
X147458286Y-97894079D01*
X147735469Y-98004926D01*
X148780395Y-96960000D01*
X147735469Y-95915074D01*
X147458286Y-96025921D01*
X147304911Y-96336840D01*
X147215140Y-96671705D01*
X147192424Y-97017650D01*
X146627000Y-97017650D01*
X146627000Y-95735469D01*
X147915074Y-95735469D01*
X148960000Y-96780395D01*
X150004926Y-95735469D01*
X149894079Y-95458286D01*
X149583160Y-95304911D01*
X149248295Y-95215140D01*
X148902350Y-95192424D01*
X148558620Y-95237634D01*
X148230315Y-95349034D01*
X148025921Y-95458286D01*
X147915074Y-95735469D01*
X146627000Y-95735469D01*
X146627000Y-92895465D01*
X147873320Y-92895465D01*
X147873320Y-93304535D01*
X147953126Y-93705745D01*
X148109670Y-94083677D01*
X148336937Y-94423806D01*
X148626194Y-94713063D01*
X148966323Y-94940330D01*
X149344255Y-95096874D01*
X149745465Y-95176680D01*
X150154535Y-95176680D01*
X150423001Y-95123279D01*
X150423001Y-96010439D01*
X150184531Y-95915074D01*
X149139605Y-96960000D01*
X149153748Y-96974143D01*
X148974143Y-97153748D01*
X148960000Y-97139605D01*
X147915074Y-98184531D01*
X148025921Y-98461714D01*
X148336840Y-98615089D01*
X148671705Y-98704860D01*
X149017650Y-98727576D01*
X149361380Y-98682366D01*
X149689685Y-98570966D01*
X149894079Y-98461714D01*
X150004925Y-98184533D01*
X150100635Y-98280243D01*
X150061458Y-98319419D01*
X149858779Y-98622749D01*
X149719171Y-98959792D01*
X149648000Y-99317594D01*
X149648000Y-99682406D01*
X149719171Y-100040208D01*
X149858779Y-100377251D01*
X150061458Y-100680581D01*
X150100635Y-100719758D01*
X150004925Y-100815467D01*
X149894079Y-100538286D01*
X149583160Y-100384911D01*
X149248295Y-100295140D01*
X148902350Y-100272424D01*
X148558620Y-100317634D01*
X148230315Y-100429034D01*
X148025921Y-100538286D01*
X147915074Y-100815469D01*
X148960000Y-101860395D01*
X148974143Y-101846253D01*
X149153748Y-102025858D01*
X149139605Y-102040000D01*
X150184531Y-103084926D01*
X150461714Y-102974079D01*
X150615089Y-102663160D01*
X150704860Y-102328295D01*
X150727576Y-101982350D01*
X150682366Y-101638620D01*
X150570966Y-101310315D01*
X150461714Y-101105921D01*
X150184533Y-100995075D01*
X150280243Y-100899366D01*
X150319419Y-100938542D01*
X150622749Y-101141221D01*
X150959792Y-101280829D01*
X151317594Y-101352000D01*
X151682406Y-101352000D01*
X152040208Y-101280829D01*
X152377251Y-101141221D01*
X152680581Y-100938542D01*
X152719758Y-100899366D01*
X152815467Y-100995075D01*
X152538286Y-101105921D01*
X152384911Y-101416840D01*
X152295140Y-101751705D01*
X152272424Y-102097650D01*
X152317634Y-102441380D01*
X152429034Y-102769685D01*
X152538286Y-102974079D01*
X152815469Y-103084926D01*
X153860395Y-102040000D01*
X154219605Y-102040000D01*
X155264531Y-103084926D01*
X155541714Y-102974079D01*
X155695089Y-102663160D01*
X155784860Y-102328295D01*
X155807576Y-101982350D01*
X155762366Y-101638620D01*
X155650966Y-101310315D01*
X155541714Y-101105921D01*
X155264531Y-100995074D01*
X154219605Y-102040000D01*
X153860395Y-102040000D01*
X153846253Y-102025858D01*
X154025858Y-101846253D01*
X154040000Y-101860395D01*
X155084926Y-100815469D01*
X154974079Y-100538286D01*
X154663160Y-100384911D01*
X154328295Y-100295140D01*
X153982350Y-100272424D01*
X153638620Y-100317634D01*
X153310315Y-100429034D01*
X153105921Y-100538286D01*
X152995075Y-100815467D01*
X152899366Y-100719758D01*
X152938542Y-100680581D01*
X153141221Y-100377251D01*
X153280829Y-100040208D01*
X153352000Y-99682406D01*
X153352000Y-99317594D01*
X153280829Y-98959792D01*
X153141221Y-98622749D01*
X152938542Y-98319419D01*
X152899366Y-98280243D01*
X152995075Y-98184533D01*
X153105921Y-98461714D01*
X153416840Y-98615089D01*
X153751705Y-98704860D01*
X154097650Y-98727576D01*
X154441380Y-98682366D01*
X154769685Y-98570966D01*
X154974079Y-98461714D01*
X155084926Y-98184531D01*
X154040000Y-97139605D01*
X154025858Y-97153748D01*
X153846253Y-96974143D01*
X153860395Y-96960000D01*
X154219605Y-96960000D01*
X155264531Y-98004926D01*
X155541714Y-97894079D01*
X155695089Y-97583160D01*
X155784860Y-97248295D01*
X155807576Y-96902350D01*
X155762366Y-96558620D01*
X155650966Y-96230315D01*
X155541714Y-96025921D01*
X155264531Y-95915074D01*
X154219605Y-96960000D01*
X153860395Y-96960000D01*
X152815469Y-95915074D01*
X152577000Y-96010439D01*
X152577000Y-95735469D01*
X152995074Y-95735469D01*
X154040000Y-96780395D01*
X155084926Y-95735469D01*
X154974079Y-95458286D01*
X154663160Y-95304911D01*
X154328295Y-95215140D01*
X153982350Y-95192424D01*
X153638620Y-95237634D01*
X153310315Y-95349034D01*
X153105921Y-95458286D01*
X152995074Y-95735469D01*
X152577000Y-95735469D01*
X152577000Y-94668525D01*
X152592104Y-94703315D01*
X152924262Y-94869139D01*
X153282387Y-94966975D01*
X153652719Y-94993065D01*
X154021025Y-94946405D01*
X154373151Y-94828789D01*
X154607896Y-94703315D01*
X154733771Y-94413377D01*
X153600000Y-93279605D01*
X153585858Y-93293748D01*
X153406252Y-93114142D01*
X153420395Y-93100000D01*
X153779605Y-93100000D01*
X154913377Y-94233771D01*
X155203315Y-94107896D01*
X155369139Y-93775738D01*
X155466975Y-93417613D01*
X155493065Y-93047281D01*
X155446405Y-92678975D01*
X155328789Y-92326849D01*
X155203315Y-92092104D01*
X154913377Y-91966229D01*
X153779605Y-93100000D01*
X153420395Y-93100000D01*
X152286623Y-91966229D01*
X151996685Y-92092104D01*
X151878421Y-92328995D01*
X151790330Y-92116323D01*
X151570032Y-91786623D01*
X152466229Y-91786623D01*
X153600000Y-92920395D01*
X154733771Y-91786623D01*
X154607896Y-91496685D01*
X154275738Y-91330861D01*
X153917613Y-91233025D01*
X153547281Y-91206935D01*
X153178975Y-91253595D01*
X152826849Y-91371211D01*
X152592104Y-91496685D01*
X152466229Y-91786623D01*
X151570032Y-91786623D01*
X151563063Y-91776194D01*
X151273806Y-91486937D01*
X150933677Y-91259670D01*
X150555745Y-91103126D01*
X150154535Y-91023320D01*
X149745465Y-91023320D01*
X149344255Y-91103126D01*
X148966323Y-91259670D01*
X148626194Y-91486937D01*
X148336937Y-91776194D01*
X148109670Y-92116323D01*
X147953126Y-92494255D01*
X147873320Y-92895465D01*
X146627000Y-92895465D01*
X146627000Y-90852000D01*
X158148000Y-90852000D01*
X158148000Y-104373000D01*
G37*
G04 #@! TD.AperFunction*
D33*
X155873000Y-108302606D02*
X155873000Y-116697394D01*
X155697394Y-116873000D01*
X147302606Y-116873000D01*
X147127000Y-116697394D01*
X147127000Y-116264531D01*
X147915074Y-116264531D01*
X148025921Y-116541714D01*
X148336840Y-116695089D01*
X148671705Y-116784860D01*
X149017650Y-116807576D01*
X149361380Y-116762366D01*
X149689685Y-116650966D01*
X149894079Y-116541714D01*
X150004926Y-116264531D01*
X152995074Y-116264531D01*
X153105921Y-116541714D01*
X153416840Y-116695089D01*
X153751705Y-116784860D01*
X154097650Y-116807576D01*
X154441380Y-116762366D01*
X154769685Y-116650966D01*
X154974079Y-116541714D01*
X155084926Y-116264531D01*
X154040000Y-115219605D01*
X152995074Y-116264531D01*
X150004926Y-116264531D01*
X148960000Y-115219605D01*
X147915074Y-116264531D01*
X147127000Y-116264531D01*
X147127000Y-114474578D01*
X147421903Y-114179675D01*
X147304911Y-114416840D01*
X147215140Y-114751705D01*
X147192424Y-115097650D01*
X147237634Y-115441380D01*
X147349034Y-115769685D01*
X147458286Y-115974079D01*
X147735469Y-116084926D01*
X148780395Y-115040000D01*
X149139605Y-115040000D01*
X150184531Y-116084926D01*
X150461714Y-115974079D01*
X150615089Y-115663160D01*
X150704860Y-115328295D01*
X150720004Y-115097650D01*
X152272424Y-115097650D01*
X152317634Y-115441380D01*
X152429034Y-115769685D01*
X152538286Y-115974079D01*
X152815469Y-116084926D01*
X153860395Y-115040000D01*
X154219605Y-115040000D01*
X155264531Y-116084926D01*
X155541714Y-115974079D01*
X155695089Y-115663160D01*
X155784860Y-115328295D01*
X155807576Y-114982350D01*
X155762366Y-114638620D01*
X155650966Y-114310315D01*
X155541714Y-114105921D01*
X155264531Y-113995074D01*
X154219605Y-115040000D01*
X153860395Y-115040000D01*
X152815469Y-113995074D01*
X152538286Y-114105921D01*
X152384911Y-114416840D01*
X152295140Y-114751705D01*
X152272424Y-115097650D01*
X150720004Y-115097650D01*
X150727576Y-114982350D01*
X150682366Y-114638620D01*
X150570966Y-114310315D01*
X150461714Y-114105921D01*
X150184531Y-113995074D01*
X149139605Y-115040000D01*
X148780395Y-115040000D01*
X148766253Y-115025858D01*
X148945858Y-114846253D01*
X148960000Y-114860395D01*
X150004926Y-113815469D01*
X149894079Y-113538286D01*
X149583340Y-113385000D01*
X150094873Y-113385000D01*
X150210594Y-113558188D01*
X150441812Y-113789406D01*
X150713695Y-113971073D01*
X151015796Y-114096207D01*
X151336504Y-114160000D01*
X151663496Y-114160000D01*
X151984204Y-114096207D01*
X152286305Y-113971073D01*
X152519182Y-113815469D01*
X152995074Y-113815469D01*
X154040000Y-114860395D01*
X155084926Y-113815469D01*
X154974079Y-113538286D01*
X154663160Y-113384911D01*
X154328295Y-113295140D01*
X153982350Y-113272424D01*
X153638620Y-113317634D01*
X153310315Y-113429034D01*
X153105921Y-113538286D01*
X152995074Y-113815469D01*
X152519182Y-113815469D01*
X152558188Y-113789406D01*
X152789406Y-113558188D01*
X152971073Y-113286305D01*
X153096207Y-112984204D01*
X153160000Y-112663496D01*
X153160000Y-112336504D01*
X153096207Y-112015796D01*
X152971073Y-111713695D01*
X152789406Y-111441812D01*
X152558188Y-111210594D01*
X152519183Y-111184531D01*
X152995074Y-111184531D01*
X153105921Y-111461714D01*
X153416840Y-111615089D01*
X153751705Y-111704860D01*
X154097650Y-111727576D01*
X154441380Y-111682366D01*
X154769685Y-111570966D01*
X154974079Y-111461714D01*
X155084926Y-111184531D01*
X154040000Y-110139605D01*
X152995074Y-111184531D01*
X152519183Y-111184531D01*
X152286305Y-111028927D01*
X151984204Y-110903793D01*
X151663496Y-110840000D01*
X151336504Y-110840000D01*
X151015796Y-110903793D01*
X150713695Y-111028927D01*
X150441812Y-111210594D01*
X150210594Y-111441812D01*
X150094873Y-111615000D01*
X149559913Y-111615000D01*
X149689685Y-111570966D01*
X149894079Y-111461714D01*
X150004926Y-111184531D01*
X148960000Y-110139605D01*
X147915074Y-111184531D01*
X148025921Y-111461714D01*
X148336660Y-111615000D01*
X147893465Y-111615000D01*
X147849999Y-111610719D01*
X147806533Y-111615000D01*
X147806523Y-111615000D01*
X147676510Y-111627805D01*
X147509687Y-111678411D01*
X147355941Y-111760589D01*
X147355939Y-111760590D01*
X147355940Y-111760590D01*
X147254953Y-111843468D01*
X147254951Y-111843470D01*
X147221183Y-111871183D01*
X147193470Y-111904951D01*
X147127000Y-111971421D01*
X147127000Y-110017650D01*
X147192424Y-110017650D01*
X147237634Y-110361380D01*
X147349034Y-110689685D01*
X147458286Y-110894079D01*
X147735469Y-111004926D01*
X148780395Y-109960000D01*
X149139605Y-109960000D01*
X150184531Y-111004926D01*
X150461714Y-110894079D01*
X150615089Y-110583160D01*
X150704860Y-110248295D01*
X150720004Y-110017650D01*
X152272424Y-110017650D01*
X152317634Y-110361380D01*
X152429034Y-110689685D01*
X152538286Y-110894079D01*
X152815469Y-111004926D01*
X153860395Y-109960000D01*
X154219605Y-109960000D01*
X155264531Y-111004926D01*
X155541714Y-110894079D01*
X155695089Y-110583160D01*
X155784860Y-110248295D01*
X155807576Y-109902350D01*
X155762366Y-109558620D01*
X155650966Y-109230315D01*
X155541714Y-109025921D01*
X155264531Y-108915074D01*
X154219605Y-109960000D01*
X153860395Y-109960000D01*
X152815469Y-108915074D01*
X152538286Y-109025921D01*
X152384911Y-109336840D01*
X152295140Y-109671705D01*
X152272424Y-110017650D01*
X150720004Y-110017650D01*
X150727576Y-109902350D01*
X150682366Y-109558620D01*
X150570966Y-109230315D01*
X150461714Y-109025921D01*
X150184531Y-108915074D01*
X149139605Y-109960000D01*
X148780395Y-109960000D01*
X147735469Y-108915074D01*
X147458286Y-109025921D01*
X147304911Y-109336840D01*
X147215140Y-109671705D01*
X147192424Y-110017650D01*
X147127000Y-110017650D01*
X147127000Y-108735469D01*
X147915074Y-108735469D01*
X148960000Y-109780395D01*
X150004926Y-108735469D01*
X152995074Y-108735469D01*
X154040000Y-109780395D01*
X155084926Y-108735469D01*
X154974079Y-108458286D01*
X154663160Y-108304911D01*
X154328295Y-108215140D01*
X153982350Y-108192424D01*
X153638620Y-108237634D01*
X153310315Y-108349034D01*
X153105921Y-108458286D01*
X152995074Y-108735469D01*
X150004926Y-108735469D01*
X149894079Y-108458286D01*
X149583160Y-108304911D01*
X149248295Y-108215140D01*
X148902350Y-108192424D01*
X148558620Y-108237634D01*
X148230315Y-108349034D01*
X148025921Y-108458286D01*
X147915074Y-108735469D01*
X147127000Y-108735469D01*
X147127000Y-108302606D01*
X147302606Y-108127000D01*
X155697394Y-108127000D01*
X155873000Y-108302606D01*
G04 #@! TA.AperFunction,Conductor*
D34*
G36*
X155873000Y-108302606D02*
G01*
X155873000Y-116697394D01*
X155697394Y-116873000D01*
X147302606Y-116873000D01*
X147127000Y-116697394D01*
X147127000Y-116264531D01*
X147915074Y-116264531D01*
X148025921Y-116541714D01*
X148336840Y-116695089D01*
X148671705Y-116784860D01*
X149017650Y-116807576D01*
X149361380Y-116762366D01*
X149689685Y-116650966D01*
X149894079Y-116541714D01*
X150004926Y-116264531D01*
X152995074Y-116264531D01*
X153105921Y-116541714D01*
X153416840Y-116695089D01*
X153751705Y-116784860D01*
X154097650Y-116807576D01*
X154441380Y-116762366D01*
X154769685Y-116650966D01*
X154974079Y-116541714D01*
X155084926Y-116264531D01*
X154040000Y-115219605D01*
X152995074Y-116264531D01*
X150004926Y-116264531D01*
X148960000Y-115219605D01*
X147915074Y-116264531D01*
X147127000Y-116264531D01*
X147127000Y-114474578D01*
X147421903Y-114179675D01*
X147304911Y-114416840D01*
X147215140Y-114751705D01*
X147192424Y-115097650D01*
X147237634Y-115441380D01*
X147349034Y-115769685D01*
X147458286Y-115974079D01*
X147735469Y-116084926D01*
X148780395Y-115040000D01*
X149139605Y-115040000D01*
X150184531Y-116084926D01*
X150461714Y-115974079D01*
X150615089Y-115663160D01*
X150704860Y-115328295D01*
X150720004Y-115097650D01*
X152272424Y-115097650D01*
X152317634Y-115441380D01*
X152429034Y-115769685D01*
X152538286Y-115974079D01*
X152815469Y-116084926D01*
X153860395Y-115040000D01*
X154219605Y-115040000D01*
X155264531Y-116084926D01*
X155541714Y-115974079D01*
X155695089Y-115663160D01*
X155784860Y-115328295D01*
X155807576Y-114982350D01*
X155762366Y-114638620D01*
X155650966Y-114310315D01*
X155541714Y-114105921D01*
X155264531Y-113995074D01*
X154219605Y-115040000D01*
X153860395Y-115040000D01*
X152815469Y-113995074D01*
X152538286Y-114105921D01*
X152384911Y-114416840D01*
X152295140Y-114751705D01*
X152272424Y-115097650D01*
X150720004Y-115097650D01*
X150727576Y-114982350D01*
X150682366Y-114638620D01*
X150570966Y-114310315D01*
X150461714Y-114105921D01*
X150184531Y-113995074D01*
X149139605Y-115040000D01*
X148780395Y-115040000D01*
X148766253Y-115025858D01*
X148945858Y-114846253D01*
X148960000Y-114860395D01*
X150004926Y-113815469D01*
X149894079Y-113538286D01*
X149583340Y-113385000D01*
X150094873Y-113385000D01*
X150210594Y-113558188D01*
X150441812Y-113789406D01*
X150713695Y-113971073D01*
X151015796Y-114096207D01*
X151336504Y-114160000D01*
X151663496Y-114160000D01*
X151984204Y-114096207D01*
X152286305Y-113971073D01*
X152519182Y-113815469D01*
X152995074Y-113815469D01*
X154040000Y-114860395D01*
X155084926Y-113815469D01*
X154974079Y-113538286D01*
X154663160Y-113384911D01*
X154328295Y-113295140D01*
X153982350Y-113272424D01*
X153638620Y-113317634D01*
X153310315Y-113429034D01*
X153105921Y-113538286D01*
X152995074Y-113815469D01*
X152519182Y-113815469D01*
X152558188Y-113789406D01*
X152789406Y-113558188D01*
X152971073Y-113286305D01*
X153096207Y-112984204D01*
X153160000Y-112663496D01*
X153160000Y-112336504D01*
X153096207Y-112015796D01*
X152971073Y-111713695D01*
X152789406Y-111441812D01*
X152558188Y-111210594D01*
X152519183Y-111184531D01*
X152995074Y-111184531D01*
X153105921Y-111461714D01*
X153416840Y-111615089D01*
X153751705Y-111704860D01*
X154097650Y-111727576D01*
X154441380Y-111682366D01*
X154769685Y-111570966D01*
X154974079Y-111461714D01*
X155084926Y-111184531D01*
X154040000Y-110139605D01*
X152995074Y-111184531D01*
X152519183Y-111184531D01*
X152286305Y-111028927D01*
X151984204Y-110903793D01*
X151663496Y-110840000D01*
X151336504Y-110840000D01*
X151015796Y-110903793D01*
X150713695Y-111028927D01*
X150441812Y-111210594D01*
X150210594Y-111441812D01*
X150094873Y-111615000D01*
X149559913Y-111615000D01*
X149689685Y-111570966D01*
X149894079Y-111461714D01*
X150004926Y-111184531D01*
X148960000Y-110139605D01*
X147915074Y-111184531D01*
X148025921Y-111461714D01*
X148336660Y-111615000D01*
X147893465Y-111615000D01*
X147849999Y-111610719D01*
X147806533Y-111615000D01*
X147806523Y-111615000D01*
X147676510Y-111627805D01*
X147509687Y-111678411D01*
X147355941Y-111760589D01*
X147355939Y-111760590D01*
X147355940Y-111760590D01*
X147254953Y-111843468D01*
X147254951Y-111843470D01*
X147221183Y-111871183D01*
X147193470Y-111904951D01*
X147127000Y-111971421D01*
X147127000Y-110017650D01*
X147192424Y-110017650D01*
X147237634Y-110361380D01*
X147349034Y-110689685D01*
X147458286Y-110894079D01*
X147735469Y-111004926D01*
X148780395Y-109960000D01*
X149139605Y-109960000D01*
X150184531Y-111004926D01*
X150461714Y-110894079D01*
X150615089Y-110583160D01*
X150704860Y-110248295D01*
X150720004Y-110017650D01*
X152272424Y-110017650D01*
X152317634Y-110361380D01*
X152429034Y-110689685D01*
X152538286Y-110894079D01*
X152815469Y-111004926D01*
X153860395Y-109960000D01*
X154219605Y-109960000D01*
X155264531Y-111004926D01*
X155541714Y-110894079D01*
X155695089Y-110583160D01*
X155784860Y-110248295D01*
X155807576Y-109902350D01*
X155762366Y-109558620D01*
X155650966Y-109230315D01*
X155541714Y-109025921D01*
X155264531Y-108915074D01*
X154219605Y-109960000D01*
X153860395Y-109960000D01*
X152815469Y-108915074D01*
X152538286Y-109025921D01*
X152384911Y-109336840D01*
X152295140Y-109671705D01*
X152272424Y-110017650D01*
X150720004Y-110017650D01*
X150727576Y-109902350D01*
X150682366Y-109558620D01*
X150570966Y-109230315D01*
X150461714Y-109025921D01*
X150184531Y-108915074D01*
X149139605Y-109960000D01*
X148780395Y-109960000D01*
X147735469Y-108915074D01*
X147458286Y-109025921D01*
X147304911Y-109336840D01*
X147215140Y-109671705D01*
X147192424Y-110017650D01*
X147127000Y-110017650D01*
X147127000Y-108735469D01*
X147915074Y-108735469D01*
X148960000Y-109780395D01*
X150004926Y-108735469D01*
X152995074Y-108735469D01*
X154040000Y-109780395D01*
X155084926Y-108735469D01*
X154974079Y-108458286D01*
X154663160Y-108304911D01*
X154328295Y-108215140D01*
X153982350Y-108192424D01*
X153638620Y-108237634D01*
X153310315Y-108349034D01*
X153105921Y-108458286D01*
X152995074Y-108735469D01*
X150004926Y-108735469D01*
X149894079Y-108458286D01*
X149583160Y-108304911D01*
X149248295Y-108215140D01*
X148902350Y-108192424D01*
X148558620Y-108237634D01*
X148230315Y-108349034D01*
X148025921Y-108458286D01*
X147915074Y-108735469D01*
X147127000Y-108735469D01*
X147127000Y-108302606D01*
X147302606Y-108127000D01*
X155697394Y-108127000D01*
X155873000Y-108302606D01*
G37*
G04 #@! TD.AperFunction*
D32*
X127567087Y-98200590D02*
X127699410Y-98332913D01*
X127855006Y-98436879D01*
X128027895Y-98508492D01*
X128211433Y-98545000D01*
X128398567Y-98545000D01*
X128582105Y-98508492D01*
X128754994Y-98436879D01*
X128910590Y-98332913D01*
X129042913Y-98200590D01*
X129110125Y-98100000D01*
X129404875Y-98100000D01*
X129472087Y-98200590D01*
X129604410Y-98332913D01*
X129760006Y-98436879D01*
X129932895Y-98508492D01*
X130116433Y-98545000D01*
X130303567Y-98545000D01*
X130487105Y-98508492D01*
X130659994Y-98436879D01*
X130815590Y-98332913D01*
X130947913Y-98200590D01*
X131015125Y-98100000D01*
X131309875Y-98100000D01*
X131377087Y-98200590D01*
X131509410Y-98332913D01*
X131560049Y-98366749D01*
X131536256Y-98376180D01*
X131502112Y-98394431D01*
X131445106Y-98612317D01*
X132115000Y-99282211D01*
X132129142Y-99268069D01*
X132346931Y-99485858D01*
X132332789Y-99500000D01*
X133002683Y-100169894D01*
X133220569Y-100112888D01*
X133246650Y-100052554D01*
X133282087Y-100105590D01*
X133400000Y-100223503D01*
X133400000Y-100681497D01*
X133282087Y-100799410D01*
X133178121Y-100955006D01*
X133106508Y-101127895D01*
X133070000Y-101311433D01*
X133070000Y-101498567D01*
X133106508Y-101682105D01*
X133178121Y-101854994D01*
X133282087Y-102010590D01*
X133315038Y-102043541D01*
X132958578Y-102400000D01*
X130500000Y-102400000D01*
X130480491Y-102401921D01*
X130461732Y-102407612D01*
X130444443Y-102416853D01*
X130429289Y-102429289D01*
X129929289Y-102929289D01*
X129916853Y-102944443D01*
X129907612Y-102961732D01*
X129901921Y-102980491D01*
X129900000Y-103000000D01*
X129900000Y-104708578D01*
X129458578Y-105150000D01*
X128908449Y-105150000D01*
X128914437Y-105138797D01*
X128949203Y-105024189D01*
X128960942Y-104905000D01*
X128958000Y-104806000D01*
X128806000Y-104654000D01*
X126904000Y-104654000D01*
X126904000Y-104674000D01*
X126596000Y-104674000D01*
X126596000Y-104654000D01*
X124694000Y-104654000D01*
X124619000Y-104729000D01*
X124054000Y-104729000D01*
X124054000Y-104749000D01*
X123746000Y-104749000D01*
X123746000Y-104729000D01*
X122969000Y-104729000D01*
X122817000Y-104881000D01*
X122815647Y-104924225D01*
X122625000Y-104733578D01*
X122625000Y-104175000D01*
X122814058Y-104175000D01*
X122817000Y-104269000D01*
X122969000Y-104421000D01*
X123746000Y-104421000D01*
X123746000Y-103719000D01*
X124054000Y-103719000D01*
X124054000Y-104421000D01*
X124831000Y-104421000D01*
X124906000Y-104346000D01*
X126596000Y-104346000D01*
X126596000Y-103639000D01*
X126904000Y-103639000D01*
X126904000Y-104346000D01*
X128806000Y-104346000D01*
X128958000Y-104194000D01*
X128960942Y-104095000D01*
X128949203Y-103975811D01*
X128914437Y-103861203D01*
X128857980Y-103755579D01*
X128782001Y-103662999D01*
X128689421Y-103587020D01*
X128583797Y-103530563D01*
X128469189Y-103495797D01*
X128350000Y-103484058D01*
X127056000Y-103487000D01*
X126904000Y-103639000D01*
X126596000Y-103639000D01*
X126444000Y-103487000D01*
X125150000Y-103484058D01*
X125030811Y-103495797D01*
X124916203Y-103530563D01*
X124810579Y-103587020D01*
X124717999Y-103662999D01*
X124714587Y-103667156D01*
X124714421Y-103667020D01*
X124608797Y-103610563D01*
X124494189Y-103575797D01*
X124375000Y-103564058D01*
X124206000Y-103567000D01*
X124054000Y-103719000D01*
X123746000Y-103719000D01*
X123594000Y-103567000D01*
X123425000Y-103564058D01*
X123305811Y-103575797D01*
X123191203Y-103610563D01*
X123085579Y-103667020D01*
X122992999Y-103742999D01*
X122917020Y-103835579D01*
X122860563Y-103941203D01*
X122825797Y-104055811D01*
X122814058Y-104175000D01*
X122625000Y-104175000D01*
X122625000Y-103166422D01*
X123041422Y-102750000D01*
X124500000Y-102750000D01*
X124519509Y-102748079D01*
X124538268Y-102742388D01*
X124555557Y-102733147D01*
X124570711Y-102720711D01*
X125070711Y-102220711D01*
X125083147Y-102205557D01*
X125092388Y-102188268D01*
X125098079Y-102169509D01*
X125100000Y-102150000D01*
X125100000Y-102143307D01*
X125100590Y-102142913D01*
X125232913Y-102010590D01*
X125336879Y-101854994D01*
X125408492Y-101682105D01*
X125445000Y-101498567D01*
X125445000Y-101311433D01*
X125450000Y-101311433D01*
X125450000Y-101498567D01*
X125486508Y-101682105D01*
X125558121Y-101854994D01*
X125662087Y-102010590D01*
X125794410Y-102142913D01*
X125950006Y-102246879D01*
X126122895Y-102318492D01*
X126306433Y-102355000D01*
X126493567Y-102355000D01*
X126677105Y-102318492D01*
X126849994Y-102246879D01*
X127005590Y-102142913D01*
X127137913Y-102010590D01*
X127241879Y-101854994D01*
X127313492Y-101682105D01*
X127350000Y-101498567D01*
X127350000Y-101311433D01*
X127355000Y-101311433D01*
X127355000Y-101498567D01*
X127391508Y-101682105D01*
X127463121Y-101854994D01*
X127567087Y-102010590D01*
X127699410Y-102142913D01*
X127855006Y-102246879D01*
X128027895Y-102318492D01*
X128211433Y-102355000D01*
X128398567Y-102355000D01*
X128582105Y-102318492D01*
X128754994Y-102246879D01*
X128910590Y-102142913D01*
X129042913Y-102010590D01*
X129146879Y-101854994D01*
X129218492Y-101682105D01*
X129255000Y-101498567D01*
X129255000Y-101311433D01*
X129260000Y-101311433D01*
X129260000Y-101498567D01*
X129296508Y-101682105D01*
X129368121Y-101854994D01*
X129472087Y-102010590D01*
X129604410Y-102142913D01*
X129760006Y-102246879D01*
X129932895Y-102318492D01*
X130116433Y-102355000D01*
X130303567Y-102355000D01*
X130487105Y-102318492D01*
X130659994Y-102246879D01*
X130815590Y-102142913D01*
X130947913Y-102010590D01*
X131051879Y-101854994D01*
X131123492Y-101682105D01*
X131160000Y-101498567D01*
X131160000Y-101311433D01*
X131165000Y-101311433D01*
X131165000Y-101498567D01*
X131201508Y-101682105D01*
X131273121Y-101854994D01*
X131377087Y-102010590D01*
X131509410Y-102142913D01*
X131665006Y-102246879D01*
X131837895Y-102318492D01*
X132021433Y-102355000D01*
X132208567Y-102355000D01*
X132392105Y-102318492D01*
X132564994Y-102246879D01*
X132720590Y-102142913D01*
X132852913Y-102010590D01*
X132956879Y-101854994D01*
X133028492Y-101682105D01*
X133065000Y-101498567D01*
X133065000Y-101311433D01*
X133028492Y-101127895D01*
X132956879Y-100955006D01*
X132852913Y-100799410D01*
X132720590Y-100667087D01*
X132669951Y-100633251D01*
X132693744Y-100623820D01*
X132727888Y-100605569D01*
X132784894Y-100387683D01*
X132115000Y-99717789D01*
X131445106Y-100387683D01*
X131502112Y-100605569D01*
X131562446Y-100631650D01*
X131509410Y-100667087D01*
X131377087Y-100799410D01*
X131273121Y-100955006D01*
X131201508Y-101127895D01*
X131165000Y-101311433D01*
X131160000Y-101311433D01*
X131123492Y-101127895D01*
X131051879Y-100955006D01*
X130947913Y-100799410D01*
X130815590Y-100667087D01*
X130659994Y-100563121D01*
X130487105Y-100491508D01*
X130303567Y-100455000D01*
X130116433Y-100455000D01*
X129932895Y-100491508D01*
X129760006Y-100563121D01*
X129604410Y-100667087D01*
X129472087Y-100799410D01*
X129368121Y-100955006D01*
X129296508Y-101127895D01*
X129260000Y-101311433D01*
X129255000Y-101311433D01*
X129218492Y-101127895D01*
X129146879Y-100955006D01*
X129042913Y-100799410D01*
X128910590Y-100667087D01*
X128754994Y-100563121D01*
X128582105Y-100491508D01*
X128398567Y-100455000D01*
X128211433Y-100455000D01*
X128027895Y-100491508D01*
X127855006Y-100563121D01*
X127699410Y-100667087D01*
X127567087Y-100799410D01*
X127463121Y-100955006D01*
X127391508Y-101127895D01*
X127355000Y-101311433D01*
X127350000Y-101311433D01*
X127313492Y-101127895D01*
X127241879Y-100955006D01*
X127137913Y-100799410D01*
X127005590Y-100667087D01*
X126954951Y-100633251D01*
X126978744Y-100623820D01*
X127012888Y-100605569D01*
X127069894Y-100387683D01*
X126400000Y-99717789D01*
X125730106Y-100387683D01*
X125787112Y-100605569D01*
X125847446Y-100631650D01*
X125794410Y-100667087D01*
X125662087Y-100799410D01*
X125558121Y-100955006D01*
X125486508Y-101127895D01*
X125450000Y-101311433D01*
X125445000Y-101311433D01*
X125408492Y-101127895D01*
X125336879Y-100955006D01*
X125232913Y-100799410D01*
X125100590Y-100667087D01*
X125100000Y-100666693D01*
X125100000Y-100238307D01*
X125100590Y-100237913D01*
X125232913Y-100105590D01*
X125266749Y-100054951D01*
X125276180Y-100078744D01*
X125294431Y-100112888D01*
X125512317Y-100169894D01*
X126182211Y-99500000D01*
X126617789Y-99500000D01*
X127287683Y-100169894D01*
X127505569Y-100112888D01*
X127531650Y-100052554D01*
X127567087Y-100105590D01*
X127699410Y-100237913D01*
X127855006Y-100341879D01*
X128027895Y-100413492D01*
X128211433Y-100450000D01*
X128398567Y-100450000D01*
X128582105Y-100413492D01*
X128754994Y-100341879D01*
X128910590Y-100237913D01*
X129042913Y-100105590D01*
X129146879Y-99949994D01*
X129218492Y-99777105D01*
X129255000Y-99593567D01*
X129255000Y-99406433D01*
X129260000Y-99406433D01*
X129260000Y-99593567D01*
X129296508Y-99777105D01*
X129368121Y-99949994D01*
X129472087Y-100105590D01*
X129604410Y-100237913D01*
X129760006Y-100341879D01*
X129932895Y-100413492D01*
X130116433Y-100450000D01*
X130303567Y-100450000D01*
X130487105Y-100413492D01*
X130659994Y-100341879D01*
X130815590Y-100237913D01*
X130947913Y-100105590D01*
X130981749Y-100054951D01*
X130991180Y-100078744D01*
X131009431Y-100112888D01*
X131227317Y-100169894D01*
X131897211Y-99500000D01*
X131227317Y-98830106D01*
X131009431Y-98887112D01*
X130983350Y-98947446D01*
X130947913Y-98894410D01*
X130815590Y-98762087D01*
X130659994Y-98658121D01*
X130487105Y-98586508D01*
X130303567Y-98550000D01*
X130116433Y-98550000D01*
X129932895Y-98586508D01*
X129760006Y-98658121D01*
X129604410Y-98762087D01*
X129472087Y-98894410D01*
X129368121Y-99050006D01*
X129296508Y-99222895D01*
X129260000Y-99406433D01*
X129255000Y-99406433D01*
X129218492Y-99222895D01*
X129146879Y-99050006D01*
X129042913Y-98894410D01*
X128910590Y-98762087D01*
X128754994Y-98658121D01*
X128582105Y-98586508D01*
X128398567Y-98550000D01*
X128211433Y-98550000D01*
X128027895Y-98586508D01*
X127855006Y-98658121D01*
X127699410Y-98762087D01*
X127567087Y-98894410D01*
X127533251Y-98945049D01*
X127523820Y-98921256D01*
X127505569Y-98887112D01*
X127287683Y-98830106D01*
X126617789Y-99500000D01*
X126182211Y-99500000D01*
X126168069Y-99485858D01*
X126385858Y-99268069D01*
X126400000Y-99282211D01*
X127069894Y-98612317D01*
X127012888Y-98394431D01*
X126952554Y-98368350D01*
X127005590Y-98332913D01*
X127137913Y-98200590D01*
X127205125Y-98100000D01*
X127499875Y-98100000D01*
X127567087Y-98200590D01*
G04 #@! TA.AperFunction,Conductor*
D34*
G36*
X127567087Y-98200590D02*
G01*
X127699410Y-98332913D01*
X127855006Y-98436879D01*
X128027895Y-98508492D01*
X128211433Y-98545000D01*
X128398567Y-98545000D01*
X128582105Y-98508492D01*
X128754994Y-98436879D01*
X128910590Y-98332913D01*
X129042913Y-98200590D01*
X129110125Y-98100000D01*
X129404875Y-98100000D01*
X129472087Y-98200590D01*
X129604410Y-98332913D01*
X129760006Y-98436879D01*
X129932895Y-98508492D01*
X130116433Y-98545000D01*
X130303567Y-98545000D01*
X130487105Y-98508492D01*
X130659994Y-98436879D01*
X130815590Y-98332913D01*
X130947913Y-98200590D01*
X131015125Y-98100000D01*
X131309875Y-98100000D01*
X131377087Y-98200590D01*
X131509410Y-98332913D01*
X131560049Y-98366749D01*
X131536256Y-98376180D01*
X131502112Y-98394431D01*
X131445106Y-98612317D01*
X132115000Y-99282211D01*
X132129142Y-99268069D01*
X132346931Y-99485858D01*
X132332789Y-99500000D01*
X133002683Y-100169894D01*
X133220569Y-100112888D01*
X133246650Y-100052554D01*
X133282087Y-100105590D01*
X133400000Y-100223503D01*
X133400000Y-100681497D01*
X133282087Y-100799410D01*
X133178121Y-100955006D01*
X133106508Y-101127895D01*
X133070000Y-101311433D01*
X133070000Y-101498567D01*
X133106508Y-101682105D01*
X133178121Y-101854994D01*
X133282087Y-102010590D01*
X133315038Y-102043541D01*
X132958578Y-102400000D01*
X130500000Y-102400000D01*
X130480491Y-102401921D01*
X130461732Y-102407612D01*
X130444443Y-102416853D01*
X130429289Y-102429289D01*
X129929289Y-102929289D01*
X129916853Y-102944443D01*
X129907612Y-102961732D01*
X129901921Y-102980491D01*
X129900000Y-103000000D01*
X129900000Y-104708578D01*
X129458578Y-105150000D01*
X128908449Y-105150000D01*
X128914437Y-105138797D01*
X128949203Y-105024189D01*
X128960942Y-104905000D01*
X128958000Y-104806000D01*
X128806000Y-104654000D01*
X126904000Y-104654000D01*
X126904000Y-104674000D01*
X126596000Y-104674000D01*
X126596000Y-104654000D01*
X124694000Y-104654000D01*
X124619000Y-104729000D01*
X124054000Y-104729000D01*
X124054000Y-104749000D01*
X123746000Y-104749000D01*
X123746000Y-104729000D01*
X122969000Y-104729000D01*
X122817000Y-104881000D01*
X122815647Y-104924225D01*
X122625000Y-104733578D01*
X122625000Y-104175000D01*
X122814058Y-104175000D01*
X122817000Y-104269000D01*
X122969000Y-104421000D01*
X123746000Y-104421000D01*
X123746000Y-103719000D01*
X124054000Y-103719000D01*
X124054000Y-104421000D01*
X124831000Y-104421000D01*
X124906000Y-104346000D01*
X126596000Y-104346000D01*
X126596000Y-103639000D01*
X126904000Y-103639000D01*
X126904000Y-104346000D01*
X128806000Y-104346000D01*
X128958000Y-104194000D01*
X128960942Y-104095000D01*
X128949203Y-103975811D01*
X128914437Y-103861203D01*
X128857980Y-103755579D01*
X128782001Y-103662999D01*
X128689421Y-103587020D01*
X128583797Y-103530563D01*
X128469189Y-103495797D01*
X128350000Y-103484058D01*
X127056000Y-103487000D01*
X126904000Y-103639000D01*
X126596000Y-103639000D01*
X126444000Y-103487000D01*
X125150000Y-103484058D01*
X125030811Y-103495797D01*
X124916203Y-103530563D01*
X124810579Y-103587020D01*
X124717999Y-103662999D01*
X124714587Y-103667156D01*
X124714421Y-103667020D01*
X124608797Y-103610563D01*
X124494189Y-103575797D01*
X124375000Y-103564058D01*
X124206000Y-103567000D01*
X124054000Y-103719000D01*
X123746000Y-103719000D01*
X123594000Y-103567000D01*
X123425000Y-103564058D01*
X123305811Y-103575797D01*
X123191203Y-103610563D01*
X123085579Y-103667020D01*
X122992999Y-103742999D01*
X122917020Y-103835579D01*
X122860563Y-103941203D01*
X122825797Y-104055811D01*
X122814058Y-104175000D01*
X122625000Y-104175000D01*
X122625000Y-103166422D01*
X123041422Y-102750000D01*
X124500000Y-102750000D01*
X124519509Y-102748079D01*
X124538268Y-102742388D01*
X124555557Y-102733147D01*
X124570711Y-102720711D01*
X125070711Y-102220711D01*
X125083147Y-102205557D01*
X125092388Y-102188268D01*
X125098079Y-102169509D01*
X125100000Y-102150000D01*
X125100000Y-102143307D01*
X125100590Y-102142913D01*
X125232913Y-102010590D01*
X125336879Y-101854994D01*
X125408492Y-101682105D01*
X125445000Y-101498567D01*
X125445000Y-101311433D01*
X125450000Y-101311433D01*
X125450000Y-101498567D01*
X125486508Y-101682105D01*
X125558121Y-101854994D01*
X125662087Y-102010590D01*
X125794410Y-102142913D01*
X125950006Y-102246879D01*
X126122895Y-102318492D01*
X126306433Y-102355000D01*
X126493567Y-102355000D01*
X126677105Y-102318492D01*
X126849994Y-102246879D01*
X127005590Y-102142913D01*
X127137913Y-102010590D01*
X127241879Y-101854994D01*
X127313492Y-101682105D01*
X127350000Y-101498567D01*
X127350000Y-101311433D01*
X127355000Y-101311433D01*
X127355000Y-101498567D01*
X127391508Y-101682105D01*
X127463121Y-101854994D01*
X127567087Y-102010590D01*
X127699410Y-102142913D01*
X127855006Y-102246879D01*
X128027895Y-102318492D01*
X128211433Y-102355000D01*
X128398567Y-102355000D01*
X128582105Y-102318492D01*
X128754994Y-102246879D01*
X128910590Y-102142913D01*
X129042913Y-102010590D01*
X129146879Y-101854994D01*
X129218492Y-101682105D01*
X129255000Y-101498567D01*
X129255000Y-101311433D01*
X129260000Y-101311433D01*
X129260000Y-101498567D01*
X129296508Y-101682105D01*
X129368121Y-101854994D01*
X129472087Y-102010590D01*
X129604410Y-102142913D01*
X129760006Y-102246879D01*
X129932895Y-102318492D01*
X130116433Y-102355000D01*
X130303567Y-102355000D01*
X130487105Y-102318492D01*
X130659994Y-102246879D01*
X130815590Y-102142913D01*
X130947913Y-102010590D01*
X131051879Y-101854994D01*
X131123492Y-101682105D01*
X131160000Y-101498567D01*
X131160000Y-101311433D01*
X131165000Y-101311433D01*
X131165000Y-101498567D01*
X131201508Y-101682105D01*
X131273121Y-101854994D01*
X131377087Y-102010590D01*
X131509410Y-102142913D01*
X131665006Y-102246879D01*
X131837895Y-102318492D01*
X132021433Y-102355000D01*
X132208567Y-102355000D01*
X132392105Y-102318492D01*
X132564994Y-102246879D01*
X132720590Y-102142913D01*
X132852913Y-102010590D01*
X132956879Y-101854994D01*
X133028492Y-101682105D01*
X133065000Y-101498567D01*
X133065000Y-101311433D01*
X133028492Y-101127895D01*
X132956879Y-100955006D01*
X132852913Y-100799410D01*
X132720590Y-100667087D01*
X132669951Y-100633251D01*
X132693744Y-100623820D01*
X132727888Y-100605569D01*
X132784894Y-100387683D01*
X132115000Y-99717789D01*
X131445106Y-100387683D01*
X131502112Y-100605569D01*
X131562446Y-100631650D01*
X131509410Y-100667087D01*
X131377087Y-100799410D01*
X131273121Y-100955006D01*
X131201508Y-101127895D01*
X131165000Y-101311433D01*
X131160000Y-101311433D01*
X131123492Y-101127895D01*
X131051879Y-100955006D01*
X130947913Y-100799410D01*
X130815590Y-100667087D01*
X130659994Y-100563121D01*
X130487105Y-100491508D01*
X130303567Y-100455000D01*
X130116433Y-100455000D01*
X129932895Y-100491508D01*
X129760006Y-100563121D01*
X129604410Y-100667087D01*
X129472087Y-100799410D01*
X129368121Y-100955006D01*
X129296508Y-101127895D01*
X129260000Y-101311433D01*
X129255000Y-101311433D01*
X129218492Y-101127895D01*
X129146879Y-100955006D01*
X129042913Y-100799410D01*
X128910590Y-100667087D01*
X128754994Y-100563121D01*
X128582105Y-100491508D01*
X128398567Y-100455000D01*
X128211433Y-100455000D01*
X128027895Y-100491508D01*
X127855006Y-100563121D01*
X127699410Y-100667087D01*
X127567087Y-100799410D01*
X127463121Y-100955006D01*
X127391508Y-101127895D01*
X127355000Y-101311433D01*
X127350000Y-101311433D01*
X127313492Y-101127895D01*
X127241879Y-100955006D01*
X127137913Y-100799410D01*
X127005590Y-100667087D01*
X126954951Y-100633251D01*
X126978744Y-100623820D01*
X127012888Y-100605569D01*
X127069894Y-100387683D01*
X126400000Y-99717789D01*
X125730106Y-100387683D01*
X125787112Y-100605569D01*
X125847446Y-100631650D01*
X125794410Y-100667087D01*
X125662087Y-100799410D01*
X125558121Y-100955006D01*
X125486508Y-101127895D01*
X125450000Y-101311433D01*
X125445000Y-101311433D01*
X125408492Y-101127895D01*
X125336879Y-100955006D01*
X125232913Y-100799410D01*
X125100590Y-100667087D01*
X125100000Y-100666693D01*
X125100000Y-100238307D01*
X125100590Y-100237913D01*
X125232913Y-100105590D01*
X125266749Y-100054951D01*
X125276180Y-100078744D01*
X125294431Y-100112888D01*
X125512317Y-100169894D01*
X126182211Y-99500000D01*
X126617789Y-99500000D01*
X127287683Y-100169894D01*
X127505569Y-100112888D01*
X127531650Y-100052554D01*
X127567087Y-100105590D01*
X127699410Y-100237913D01*
X127855006Y-100341879D01*
X128027895Y-100413492D01*
X128211433Y-100450000D01*
X128398567Y-100450000D01*
X128582105Y-100413492D01*
X128754994Y-100341879D01*
X128910590Y-100237913D01*
X129042913Y-100105590D01*
X129146879Y-99949994D01*
X129218492Y-99777105D01*
X129255000Y-99593567D01*
X129255000Y-99406433D01*
X129260000Y-99406433D01*
X129260000Y-99593567D01*
X129296508Y-99777105D01*
X129368121Y-99949994D01*
X129472087Y-100105590D01*
X129604410Y-100237913D01*
X129760006Y-100341879D01*
X129932895Y-100413492D01*
X130116433Y-100450000D01*
X130303567Y-100450000D01*
X130487105Y-100413492D01*
X130659994Y-100341879D01*
X130815590Y-100237913D01*
X130947913Y-100105590D01*
X130981749Y-100054951D01*
X130991180Y-100078744D01*
X131009431Y-100112888D01*
X131227317Y-100169894D01*
X131897211Y-99500000D01*
X131227317Y-98830106D01*
X131009431Y-98887112D01*
X130983350Y-98947446D01*
X130947913Y-98894410D01*
X130815590Y-98762087D01*
X130659994Y-98658121D01*
X130487105Y-98586508D01*
X130303567Y-98550000D01*
X130116433Y-98550000D01*
X129932895Y-98586508D01*
X129760006Y-98658121D01*
X129604410Y-98762087D01*
X129472087Y-98894410D01*
X129368121Y-99050006D01*
X129296508Y-99222895D01*
X129260000Y-99406433D01*
X129255000Y-99406433D01*
X129218492Y-99222895D01*
X129146879Y-99050006D01*
X129042913Y-98894410D01*
X128910590Y-98762087D01*
X128754994Y-98658121D01*
X128582105Y-98586508D01*
X128398567Y-98550000D01*
X128211433Y-98550000D01*
X128027895Y-98586508D01*
X127855006Y-98658121D01*
X127699410Y-98762087D01*
X127567087Y-98894410D01*
X127533251Y-98945049D01*
X127523820Y-98921256D01*
X127505569Y-98887112D01*
X127287683Y-98830106D01*
X126617789Y-99500000D01*
X126182211Y-99500000D01*
X126168069Y-99485858D01*
X126385858Y-99268069D01*
X126400000Y-99282211D01*
X127069894Y-98612317D01*
X127012888Y-98394431D01*
X126952554Y-98368350D01*
X127005590Y-98332913D01*
X127137913Y-98200590D01*
X127205125Y-98100000D01*
X127499875Y-98100000D01*
X127567087Y-98200590D01*
G37*
G04 #@! TD.AperFunction*
D33*
X130585498Y-92955820D02*
X130549188Y-93075518D01*
X130536928Y-93200000D01*
X130540000Y-93414250D01*
X130698750Y-93573000D01*
X131773000Y-93573000D01*
X131773000Y-93553000D01*
X132027000Y-93553000D01*
X132027000Y-93573000D01*
X133101250Y-93573000D01*
X133260000Y-93414250D01*
X133263072Y-93200000D01*
X133250812Y-93075518D01*
X133214502Y-92955820D01*
X133199097Y-92927000D01*
X133518856Y-92927000D01*
X133489048Y-92963321D01*
X133412255Y-93106990D01*
X133364966Y-93262880D01*
X133348999Y-93425000D01*
X133348999Y-94075000D01*
X133364966Y-94237120D01*
X133412255Y-94393010D01*
X133489048Y-94536679D01*
X133592394Y-94662606D01*
X133718321Y-94765952D01*
X133861990Y-94842745D01*
X134017880Y-94890034D01*
X134180000Y-94906001D01*
X135400000Y-94906001D01*
X135562120Y-94890034D01*
X135718010Y-94842745D01*
X135861679Y-94765952D01*
X135987606Y-94662606D01*
X135993084Y-94655931D01*
X136066077Y-94633789D01*
X136151342Y-94588214D01*
X136212394Y-94662606D01*
X136338321Y-94765952D01*
X136481990Y-94842745D01*
X136637880Y-94890034D01*
X136800000Y-94906001D01*
X138020000Y-94906001D01*
X138182120Y-94890034D01*
X138338010Y-94842745D01*
X138481679Y-94765952D01*
X138607606Y-94662606D01*
X138684562Y-94568836D01*
X138733879Y-94542475D01*
X138795886Y-94575618D01*
X138993984Y-94635710D01*
X139200000Y-94656001D01*
X139700000Y-94656001D01*
X139906016Y-94635710D01*
X140104114Y-94575618D01*
X140286683Y-94478033D01*
X140361879Y-94416320D01*
X140385498Y-94494180D01*
X140444463Y-94604494D01*
X140523815Y-94701185D01*
X140620506Y-94780537D01*
X140730820Y-94839502D01*
X140850518Y-94875812D01*
X140975000Y-94888072D01*
X141414250Y-94885000D01*
X141573000Y-94726250D01*
X141573000Y-93877000D01*
X141827000Y-93877000D01*
X141827000Y-94726250D01*
X141985750Y-94885000D01*
X142425000Y-94888072D01*
X142549482Y-94875812D01*
X142669180Y-94839502D01*
X142779494Y-94780537D01*
X142876185Y-94701185D01*
X142955537Y-94604494D01*
X143014502Y-94494180D01*
X143050812Y-94374482D01*
X143063072Y-94250000D01*
X143060000Y-94035750D01*
X142901250Y-93877000D01*
X141827000Y-93877000D01*
X141573000Y-93877000D01*
X141553000Y-93877000D01*
X141553000Y-93623000D01*
X141573000Y-93623000D01*
X141573000Y-93603000D01*
X141827000Y-93603000D01*
X141827000Y-93623000D01*
X142901250Y-93623000D01*
X143060000Y-93464250D01*
X143063072Y-93250000D01*
X143050812Y-93125518D01*
X143016685Y-93013015D01*
X143473000Y-93469331D01*
X143473000Y-96197394D01*
X143297394Y-96373000D01*
X134849678Y-96373000D01*
X134719622Y-96286099D01*
X134450825Y-96174760D01*
X134165472Y-96118000D01*
X133874528Y-96118000D01*
X133589175Y-96174760D01*
X133320378Y-96286099D01*
X133190322Y-96373000D01*
X132944678Y-96373000D01*
X132814622Y-96286099D01*
X132545825Y-96174760D01*
X132260472Y-96118000D01*
X131969528Y-96118000D01*
X131684175Y-96174760D01*
X131415378Y-96286099D01*
X131285322Y-96373000D01*
X131039678Y-96373000D01*
X130909622Y-96286099D01*
X130640825Y-96174760D01*
X130355472Y-96118000D01*
X130064528Y-96118000D01*
X129779175Y-96174760D01*
X129510378Y-96286099D01*
X129380322Y-96373000D01*
X129134679Y-96373000D01*
X129021181Y-96297163D01*
X129050812Y-96199482D01*
X129063072Y-96075000D01*
X129060000Y-95885750D01*
X128901250Y-95727000D01*
X128102000Y-95727000D01*
X128102000Y-95747000D01*
X127848000Y-95747000D01*
X127848000Y-95727000D01*
X127828000Y-95727000D01*
X127828000Y-95473000D01*
X127848000Y-95473000D01*
X127848000Y-94648750D01*
X128102000Y-94648750D01*
X128102000Y-95473000D01*
X128901250Y-95473000D01*
X129060000Y-95314250D01*
X129063072Y-95125000D01*
X129050812Y-95000518D01*
X129014502Y-94880820D01*
X128955537Y-94770506D01*
X128876185Y-94673815D01*
X128779494Y-94594463D01*
X128669180Y-94535498D01*
X128549482Y-94499188D01*
X128425000Y-94486928D01*
X128260750Y-94490000D01*
X128102000Y-94648750D01*
X127848000Y-94648750D01*
X127736179Y-94536929D01*
X128073108Y-94200000D01*
X130536928Y-94200000D01*
X130549188Y-94324482D01*
X130585498Y-94444180D01*
X130644463Y-94554494D01*
X130723815Y-94651185D01*
X130820506Y-94730537D01*
X130930820Y-94789502D01*
X131050518Y-94825812D01*
X131175000Y-94838072D01*
X131614250Y-94835000D01*
X131773000Y-94676250D01*
X131773000Y-93827000D01*
X132027000Y-93827000D01*
X132027000Y-94676250D01*
X132185750Y-94835000D01*
X132625000Y-94838072D01*
X132749482Y-94825812D01*
X132869180Y-94789502D01*
X132979494Y-94730537D01*
X133076185Y-94651185D01*
X133155537Y-94554494D01*
X133214502Y-94444180D01*
X133250812Y-94324482D01*
X133263072Y-94200000D01*
X133260000Y-93985750D01*
X133101250Y-93827000D01*
X132027000Y-93827000D01*
X131773000Y-93827000D01*
X130698750Y-93827000D01*
X130540000Y-93985750D01*
X130536928Y-94200000D01*
X128073108Y-94200000D01*
X129396108Y-92877000D01*
X130627629Y-92877000D01*
X130585498Y-92955820D01*
G04 #@! TA.AperFunction,Conductor*
D34*
G36*
X130585498Y-92955820D02*
G01*
X130549188Y-93075518D01*
X130536928Y-93200000D01*
X130540000Y-93414250D01*
X130698750Y-93573000D01*
X131773000Y-93573000D01*
X131773000Y-93553000D01*
X132027000Y-93553000D01*
X132027000Y-93573000D01*
X133101250Y-93573000D01*
X133260000Y-93414250D01*
X133263072Y-93200000D01*
X133250812Y-93075518D01*
X133214502Y-92955820D01*
X133199097Y-92927000D01*
X133518856Y-92927000D01*
X133489048Y-92963321D01*
X133412255Y-93106990D01*
X133364966Y-93262880D01*
X133348999Y-93425000D01*
X133348999Y-94075000D01*
X133364966Y-94237120D01*
X133412255Y-94393010D01*
X133489048Y-94536679D01*
X133592394Y-94662606D01*
X133718321Y-94765952D01*
X133861990Y-94842745D01*
X134017880Y-94890034D01*
X134180000Y-94906001D01*
X135400000Y-94906001D01*
X135562120Y-94890034D01*
X135718010Y-94842745D01*
X135861679Y-94765952D01*
X135987606Y-94662606D01*
X135993084Y-94655931D01*
X136066077Y-94633789D01*
X136151342Y-94588214D01*
X136212394Y-94662606D01*
X136338321Y-94765952D01*
X136481990Y-94842745D01*
X136637880Y-94890034D01*
X136800000Y-94906001D01*
X138020000Y-94906001D01*
X138182120Y-94890034D01*
X138338010Y-94842745D01*
X138481679Y-94765952D01*
X138607606Y-94662606D01*
X138684562Y-94568836D01*
X138733879Y-94542475D01*
X138795886Y-94575618D01*
X138993984Y-94635710D01*
X139200000Y-94656001D01*
X139700000Y-94656001D01*
X139906016Y-94635710D01*
X140104114Y-94575618D01*
X140286683Y-94478033D01*
X140361879Y-94416320D01*
X140385498Y-94494180D01*
X140444463Y-94604494D01*
X140523815Y-94701185D01*
X140620506Y-94780537D01*
X140730820Y-94839502D01*
X140850518Y-94875812D01*
X140975000Y-94888072D01*
X141414250Y-94885000D01*
X141573000Y-94726250D01*
X141573000Y-93877000D01*
X141827000Y-93877000D01*
X141827000Y-94726250D01*
X141985750Y-94885000D01*
X142425000Y-94888072D01*
X142549482Y-94875812D01*
X142669180Y-94839502D01*
X142779494Y-94780537D01*
X142876185Y-94701185D01*
X142955537Y-94604494D01*
X143014502Y-94494180D01*
X143050812Y-94374482D01*
X143063072Y-94250000D01*
X143060000Y-94035750D01*
X142901250Y-93877000D01*
X141827000Y-93877000D01*
X141573000Y-93877000D01*
X141553000Y-93877000D01*
X141553000Y-93623000D01*
X141573000Y-93623000D01*
X141573000Y-93603000D01*
X141827000Y-93603000D01*
X141827000Y-93623000D01*
X142901250Y-93623000D01*
X143060000Y-93464250D01*
X143063072Y-93250000D01*
X143050812Y-93125518D01*
X143016685Y-93013015D01*
X143473000Y-93469331D01*
X143473000Y-96197394D01*
X143297394Y-96373000D01*
X134849678Y-96373000D01*
X134719622Y-96286099D01*
X134450825Y-96174760D01*
X134165472Y-96118000D01*
X133874528Y-96118000D01*
X133589175Y-96174760D01*
X133320378Y-96286099D01*
X133190322Y-96373000D01*
X132944678Y-96373000D01*
X132814622Y-96286099D01*
X132545825Y-96174760D01*
X132260472Y-96118000D01*
X131969528Y-96118000D01*
X131684175Y-96174760D01*
X131415378Y-96286099D01*
X131285322Y-96373000D01*
X131039678Y-96373000D01*
X130909622Y-96286099D01*
X130640825Y-96174760D01*
X130355472Y-96118000D01*
X130064528Y-96118000D01*
X129779175Y-96174760D01*
X129510378Y-96286099D01*
X129380322Y-96373000D01*
X129134679Y-96373000D01*
X129021181Y-96297163D01*
X129050812Y-96199482D01*
X129063072Y-96075000D01*
X129060000Y-95885750D01*
X128901250Y-95727000D01*
X128102000Y-95727000D01*
X128102000Y-95747000D01*
X127848000Y-95747000D01*
X127848000Y-95727000D01*
X127828000Y-95727000D01*
X127828000Y-95473000D01*
X127848000Y-95473000D01*
X127848000Y-94648750D01*
X128102000Y-94648750D01*
X128102000Y-95473000D01*
X128901250Y-95473000D01*
X129060000Y-95314250D01*
X129063072Y-95125000D01*
X129050812Y-95000518D01*
X129014502Y-94880820D01*
X128955537Y-94770506D01*
X128876185Y-94673815D01*
X128779494Y-94594463D01*
X128669180Y-94535498D01*
X128549482Y-94499188D01*
X128425000Y-94486928D01*
X128260750Y-94490000D01*
X128102000Y-94648750D01*
X127848000Y-94648750D01*
X127736179Y-94536929D01*
X128073108Y-94200000D01*
X130536928Y-94200000D01*
X130549188Y-94324482D01*
X130585498Y-94444180D01*
X130644463Y-94554494D01*
X130723815Y-94651185D01*
X130820506Y-94730537D01*
X130930820Y-94789502D01*
X131050518Y-94825812D01*
X131175000Y-94838072D01*
X131614250Y-94835000D01*
X131773000Y-94676250D01*
X131773000Y-93827000D01*
X132027000Y-93827000D01*
X132027000Y-94676250D01*
X132185750Y-94835000D01*
X132625000Y-94838072D01*
X132749482Y-94825812D01*
X132869180Y-94789502D01*
X132979494Y-94730537D01*
X133076185Y-94651185D01*
X133155537Y-94554494D01*
X133214502Y-94444180D01*
X133250812Y-94324482D01*
X133263072Y-94200000D01*
X133260000Y-93985750D01*
X133101250Y-93827000D01*
X132027000Y-93827000D01*
X131773000Y-93827000D01*
X130698750Y-93827000D01*
X130540000Y-93985750D01*
X130536928Y-94200000D01*
X128073108Y-94200000D01*
X129396108Y-92877000D01*
X130627629Y-92877000D01*
X130585498Y-92955820D01*
G37*
G04 #@! TD.AperFunction*
D32*
X138150000Y-98541422D02*
X138150000Y-104458578D01*
X137958565Y-104650013D01*
X137958000Y-104631000D01*
X137806000Y-104479000D01*
X135904000Y-104479000D01*
X135904000Y-104499000D01*
X135596000Y-104499000D01*
X135596000Y-104479000D01*
X133694000Y-104479000D01*
X133637500Y-104535500D01*
X133581000Y-104479000D01*
X132804000Y-104479000D01*
X132804000Y-104499000D01*
X132496000Y-104499000D01*
X132496000Y-104479000D01*
X131719000Y-104479000D01*
X131567000Y-104631000D01*
X131565647Y-104674225D01*
X131350000Y-104458578D01*
X131350000Y-103925000D01*
X131564058Y-103925000D01*
X131567000Y-104019000D01*
X131719000Y-104171000D01*
X132496000Y-104171000D01*
X132496000Y-103469000D01*
X132804000Y-103469000D01*
X132804000Y-104171000D01*
X133581000Y-104171000D01*
X133637500Y-104114500D01*
X133694000Y-104171000D01*
X135596000Y-104171000D01*
X135596000Y-103464000D01*
X135904000Y-103464000D01*
X135904000Y-104171000D01*
X137806000Y-104171000D01*
X137958000Y-104019000D01*
X137960942Y-103920000D01*
X137949203Y-103800811D01*
X137914437Y-103686203D01*
X137857980Y-103580579D01*
X137782001Y-103487999D01*
X137689421Y-103412020D01*
X137583797Y-103355563D01*
X137469189Y-103320797D01*
X137350000Y-103309058D01*
X136056000Y-103312000D01*
X135904000Y-103464000D01*
X135596000Y-103464000D01*
X135444000Y-103312000D01*
X134150000Y-103309058D01*
X134030811Y-103320797D01*
X133916203Y-103355563D01*
X133810579Y-103412020D01*
X133717999Y-103487999D01*
X133642020Y-103580579D01*
X133636164Y-103591535D01*
X133632980Y-103585579D01*
X133557001Y-103492999D01*
X133464421Y-103417020D01*
X133358797Y-103360563D01*
X133244189Y-103325797D01*
X133125000Y-103314058D01*
X132956000Y-103317000D01*
X132804000Y-103469000D01*
X132496000Y-103469000D01*
X132344000Y-103317000D01*
X132175000Y-103314058D01*
X132055811Y-103325797D01*
X131941203Y-103360563D01*
X131835579Y-103417020D01*
X131742999Y-103492999D01*
X131667020Y-103585579D01*
X131610563Y-103691203D01*
X131575797Y-103805811D01*
X131564058Y-103925000D01*
X131350000Y-103925000D01*
X131350000Y-103541422D01*
X131791422Y-103100000D01*
X133250000Y-103100000D01*
X133269509Y-103098079D01*
X133288268Y-103092388D01*
X133305557Y-103083147D01*
X133320711Y-103070711D01*
X133820711Y-102570711D01*
X133833147Y-102555557D01*
X133842388Y-102538268D01*
X133848079Y-102519509D01*
X133850000Y-102500000D01*
X133850000Y-102339797D01*
X133926433Y-102355000D01*
X134113567Y-102355000D01*
X134297105Y-102318492D01*
X134469994Y-102246879D01*
X134625590Y-102142913D01*
X134757913Y-102010590D01*
X134861879Y-101854994D01*
X134933492Y-101682105D01*
X134970000Y-101498567D01*
X134970000Y-101311433D01*
X134933492Y-101127895D01*
X134861879Y-100955006D01*
X134757913Y-100799410D01*
X134625590Y-100667087D01*
X134574951Y-100633251D01*
X134598744Y-100623820D01*
X134632888Y-100605569D01*
X134689894Y-100387683D01*
X134020000Y-99717789D01*
X134005858Y-99731931D01*
X133850000Y-99576073D01*
X133850000Y-99500000D01*
X134237789Y-99500000D01*
X134907683Y-100169894D01*
X135125569Y-100112888D01*
X135223895Y-99885426D01*
X135275955Y-99643152D01*
X135279750Y-99395376D01*
X135235134Y-99151622D01*
X135143820Y-98921256D01*
X135125569Y-98887112D01*
X134907683Y-98830106D01*
X134237789Y-99500000D01*
X133850000Y-99500000D01*
X133850000Y-99423927D01*
X134005858Y-99268069D01*
X134020000Y-99282211D01*
X134689894Y-98612317D01*
X134632888Y-98394431D01*
X134572554Y-98368350D01*
X134625590Y-98332913D01*
X134757913Y-98200590D01*
X134825125Y-98100000D01*
X137708578Y-98100000D01*
X138150000Y-98541422D01*
G04 #@! TA.AperFunction,Conductor*
D34*
G36*
X138150000Y-98541422D02*
G01*
X138150000Y-104458578D01*
X137958565Y-104650013D01*
X137958000Y-104631000D01*
X137806000Y-104479000D01*
X135904000Y-104479000D01*
X135904000Y-104499000D01*
X135596000Y-104499000D01*
X135596000Y-104479000D01*
X133694000Y-104479000D01*
X133637500Y-104535500D01*
X133581000Y-104479000D01*
X132804000Y-104479000D01*
X132804000Y-104499000D01*
X132496000Y-104499000D01*
X132496000Y-104479000D01*
X131719000Y-104479000D01*
X131567000Y-104631000D01*
X131565647Y-104674225D01*
X131350000Y-104458578D01*
X131350000Y-103925000D01*
X131564058Y-103925000D01*
X131567000Y-104019000D01*
X131719000Y-104171000D01*
X132496000Y-104171000D01*
X132496000Y-103469000D01*
X132804000Y-103469000D01*
X132804000Y-104171000D01*
X133581000Y-104171000D01*
X133637500Y-104114500D01*
X133694000Y-104171000D01*
X135596000Y-104171000D01*
X135596000Y-103464000D01*
X135904000Y-103464000D01*
X135904000Y-104171000D01*
X137806000Y-104171000D01*
X137958000Y-104019000D01*
X137960942Y-103920000D01*
X137949203Y-103800811D01*
X137914437Y-103686203D01*
X137857980Y-103580579D01*
X137782001Y-103487999D01*
X137689421Y-103412020D01*
X137583797Y-103355563D01*
X137469189Y-103320797D01*
X137350000Y-103309058D01*
X136056000Y-103312000D01*
X135904000Y-103464000D01*
X135596000Y-103464000D01*
X135444000Y-103312000D01*
X134150000Y-103309058D01*
X134030811Y-103320797D01*
X133916203Y-103355563D01*
X133810579Y-103412020D01*
X133717999Y-103487999D01*
X133642020Y-103580579D01*
X133636164Y-103591535D01*
X133632980Y-103585579D01*
X133557001Y-103492999D01*
X133464421Y-103417020D01*
X133358797Y-103360563D01*
X133244189Y-103325797D01*
X133125000Y-103314058D01*
X132956000Y-103317000D01*
X132804000Y-103469000D01*
X132496000Y-103469000D01*
X132344000Y-103317000D01*
X132175000Y-103314058D01*
X132055811Y-103325797D01*
X131941203Y-103360563D01*
X131835579Y-103417020D01*
X131742999Y-103492999D01*
X131667020Y-103585579D01*
X131610563Y-103691203D01*
X131575797Y-103805811D01*
X131564058Y-103925000D01*
X131350000Y-103925000D01*
X131350000Y-103541422D01*
X131791422Y-103100000D01*
X133250000Y-103100000D01*
X133269509Y-103098079D01*
X133288268Y-103092388D01*
X133305557Y-103083147D01*
X133320711Y-103070711D01*
X133820711Y-102570711D01*
X133833147Y-102555557D01*
X133842388Y-102538268D01*
X133848079Y-102519509D01*
X133850000Y-102500000D01*
X133850000Y-102339797D01*
X133926433Y-102355000D01*
X134113567Y-102355000D01*
X134297105Y-102318492D01*
X134469994Y-102246879D01*
X134625590Y-102142913D01*
X134757913Y-102010590D01*
X134861879Y-101854994D01*
X134933492Y-101682105D01*
X134970000Y-101498567D01*
X134970000Y-101311433D01*
X134933492Y-101127895D01*
X134861879Y-100955006D01*
X134757913Y-100799410D01*
X134625590Y-100667087D01*
X134574951Y-100633251D01*
X134598744Y-100623820D01*
X134632888Y-100605569D01*
X134689894Y-100387683D01*
X134020000Y-99717789D01*
X134005858Y-99731931D01*
X133850000Y-99576073D01*
X133850000Y-99500000D01*
X134237789Y-99500000D01*
X134907683Y-100169894D01*
X135125569Y-100112888D01*
X135223895Y-99885426D01*
X135275955Y-99643152D01*
X135279750Y-99395376D01*
X135235134Y-99151622D01*
X135143820Y-98921256D01*
X135125569Y-98887112D01*
X134907683Y-98830106D01*
X134237789Y-99500000D01*
X133850000Y-99500000D01*
X133850000Y-99423927D01*
X134005858Y-99268069D01*
X134020000Y-99282211D01*
X134689894Y-98612317D01*
X134632888Y-98394431D01*
X134572554Y-98368350D01*
X134625590Y-98332913D01*
X134757913Y-98200590D01*
X134825125Y-98100000D01*
X137708578Y-98100000D01*
X138150000Y-98541422D01*
G37*
G04 #@! TD.AperFunction*
D32*
X131719000Y-105821000D02*
X132496000Y-105821000D01*
X132496000Y-105801000D01*
X132804000Y-105801000D01*
X132804000Y-105821000D01*
X133544000Y-105821000D01*
X133694000Y-105971000D01*
X135596000Y-105971000D01*
X135596000Y-105951000D01*
X135904000Y-105951000D01*
X135904000Y-105971000D01*
X137806000Y-105971000D01*
X137958000Y-105819000D01*
X137958611Y-105798452D01*
X138150000Y-105991213D01*
X138150000Y-107458578D01*
X137708578Y-107900000D01*
X136053781Y-107900000D01*
X136007001Y-107842999D01*
X135914421Y-107767020D01*
X135808797Y-107710563D01*
X135694189Y-107675797D01*
X135575000Y-107664058D01*
X135481000Y-107667000D01*
X135329000Y-107819000D01*
X135329000Y-107900000D01*
X135021000Y-107900000D01*
X135021000Y-107819000D01*
X134869000Y-107667000D01*
X134775000Y-107664058D01*
X134655811Y-107675797D01*
X134541203Y-107710563D01*
X134435579Y-107767020D01*
X134342999Y-107842999D01*
X134296219Y-107900000D01*
X131791422Y-107900000D01*
X131350000Y-107458578D01*
X131350000Y-106375000D01*
X131564058Y-106375000D01*
X131575797Y-106494189D01*
X131610563Y-106608797D01*
X131667020Y-106714421D01*
X131742999Y-106807001D01*
X131835579Y-106882980D01*
X131941203Y-106939437D01*
X132055811Y-106974203D01*
X132175000Y-106985942D01*
X132344000Y-106983000D01*
X132496000Y-106831000D01*
X132496000Y-106129000D01*
X132804000Y-106129000D01*
X132804000Y-106831000D01*
X132956000Y-106983000D01*
X133125000Y-106985942D01*
X133244189Y-106974203D01*
X133358797Y-106939437D01*
X133464421Y-106882980D01*
X133557001Y-106807001D01*
X133588282Y-106768885D01*
X133642020Y-106869421D01*
X133717999Y-106962001D01*
X133810579Y-107037980D01*
X133916203Y-107094437D01*
X134030811Y-107129203D01*
X134150000Y-107140942D01*
X135444000Y-107138000D01*
X135596000Y-106986000D01*
X135596000Y-106279000D01*
X135904000Y-106279000D01*
X135904000Y-106986000D01*
X136056000Y-107138000D01*
X137350000Y-107140942D01*
X137469189Y-107129203D01*
X137583797Y-107094437D01*
X137689421Y-107037980D01*
X137782001Y-106962001D01*
X137857980Y-106869421D01*
X137914437Y-106763797D01*
X137949203Y-106649189D01*
X137960942Y-106530000D01*
X137958000Y-106431000D01*
X137806000Y-106279000D01*
X135904000Y-106279000D01*
X135596000Y-106279000D01*
X133731000Y-106279000D01*
X133581000Y-106129000D01*
X132804000Y-106129000D01*
X132496000Y-106129000D01*
X131719000Y-106129000D01*
X131567000Y-106281000D01*
X131564058Y-106375000D01*
X131350000Y-106375000D01*
X131350000Y-105941631D01*
X131595690Y-105697690D01*
X131719000Y-105821000D01*
G04 #@! TA.AperFunction,Conductor*
D34*
G36*
X131719000Y-105821000D02*
G01*
X132496000Y-105821000D01*
X132496000Y-105801000D01*
X132804000Y-105801000D01*
X132804000Y-105821000D01*
X133544000Y-105821000D01*
X133694000Y-105971000D01*
X135596000Y-105971000D01*
X135596000Y-105951000D01*
X135904000Y-105951000D01*
X135904000Y-105971000D01*
X137806000Y-105971000D01*
X137958000Y-105819000D01*
X137958611Y-105798452D01*
X138150000Y-105991213D01*
X138150000Y-107458578D01*
X137708578Y-107900000D01*
X136053781Y-107900000D01*
X136007001Y-107842999D01*
X135914421Y-107767020D01*
X135808797Y-107710563D01*
X135694189Y-107675797D01*
X135575000Y-107664058D01*
X135481000Y-107667000D01*
X135329000Y-107819000D01*
X135329000Y-107900000D01*
X135021000Y-107900000D01*
X135021000Y-107819000D01*
X134869000Y-107667000D01*
X134775000Y-107664058D01*
X134655811Y-107675797D01*
X134541203Y-107710563D01*
X134435579Y-107767020D01*
X134342999Y-107842999D01*
X134296219Y-107900000D01*
X131791422Y-107900000D01*
X131350000Y-107458578D01*
X131350000Y-106375000D01*
X131564058Y-106375000D01*
X131575797Y-106494189D01*
X131610563Y-106608797D01*
X131667020Y-106714421D01*
X131742999Y-106807001D01*
X131835579Y-106882980D01*
X131941203Y-106939437D01*
X132055811Y-106974203D01*
X132175000Y-106985942D01*
X132344000Y-106983000D01*
X132496000Y-106831000D01*
X132496000Y-106129000D01*
X132804000Y-106129000D01*
X132804000Y-106831000D01*
X132956000Y-106983000D01*
X133125000Y-106985942D01*
X133244189Y-106974203D01*
X133358797Y-106939437D01*
X133464421Y-106882980D01*
X133557001Y-106807001D01*
X133588282Y-106768885D01*
X133642020Y-106869421D01*
X133717999Y-106962001D01*
X133810579Y-107037980D01*
X133916203Y-107094437D01*
X134030811Y-107129203D01*
X134150000Y-107140942D01*
X135444000Y-107138000D01*
X135596000Y-106986000D01*
X135596000Y-106279000D01*
X135904000Y-106279000D01*
X135904000Y-106986000D01*
X136056000Y-107138000D01*
X137350000Y-107140942D01*
X137469189Y-107129203D01*
X137583797Y-107094437D01*
X137689421Y-107037980D01*
X137782001Y-106962001D01*
X137857980Y-106869421D01*
X137914437Y-106763797D01*
X137949203Y-106649189D01*
X137960942Y-106530000D01*
X137958000Y-106431000D01*
X137806000Y-106279000D01*
X135904000Y-106279000D01*
X135596000Y-106279000D01*
X133731000Y-106279000D01*
X133581000Y-106129000D01*
X132804000Y-106129000D01*
X132496000Y-106129000D01*
X131719000Y-106129000D01*
X131567000Y-106281000D01*
X131564058Y-106375000D01*
X131350000Y-106375000D01*
X131350000Y-105941631D01*
X131595690Y-105697690D01*
X131719000Y-105821000D01*
G37*
G04 #@! TD.AperFunction*
D32*
X129900000Y-106291422D02*
X129900000Y-107458578D01*
X129458578Y-107900000D01*
X123041422Y-107900000D01*
X122600000Y-107458578D01*
X122600000Y-106625000D01*
X122814058Y-106625000D01*
X122825797Y-106744189D01*
X122860563Y-106858797D01*
X122917020Y-106964421D01*
X122992999Y-107057001D01*
X123085579Y-107132980D01*
X123191203Y-107189437D01*
X123305811Y-107224203D01*
X123425000Y-107235942D01*
X123594000Y-107233000D01*
X123746000Y-107081000D01*
X123746000Y-106379000D01*
X124054000Y-106379000D01*
X124054000Y-107081000D01*
X124206000Y-107233000D01*
X124375000Y-107235942D01*
X124494189Y-107224203D01*
X124608797Y-107189437D01*
X124714421Y-107132980D01*
X124714587Y-107132844D01*
X124717999Y-107137001D01*
X124810579Y-107212980D01*
X124916203Y-107269437D01*
X125030811Y-107304203D01*
X125150000Y-107315942D01*
X126444000Y-107313000D01*
X126596000Y-107161000D01*
X126596000Y-106454000D01*
X126904000Y-106454000D01*
X126904000Y-107161000D01*
X127056000Y-107313000D01*
X128350000Y-107315942D01*
X128469189Y-107304203D01*
X128583797Y-107269437D01*
X128689421Y-107212980D01*
X128782001Y-107137001D01*
X128857980Y-107044421D01*
X128914437Y-106938797D01*
X128949203Y-106824189D01*
X128960942Y-106705000D01*
X128958000Y-106606000D01*
X128806000Y-106454000D01*
X126904000Y-106454000D01*
X126596000Y-106454000D01*
X124906000Y-106454000D01*
X124831000Y-106379000D01*
X124054000Y-106379000D01*
X123746000Y-106379000D01*
X122969000Y-106379000D01*
X122817000Y-106531000D01*
X122814058Y-106625000D01*
X122600000Y-106625000D01*
X122600000Y-106291422D01*
X122894711Y-105996711D01*
X122969000Y-106071000D01*
X123746000Y-106071000D01*
X123746000Y-106051000D01*
X124054000Y-106051000D01*
X124054000Y-106071000D01*
X124619000Y-106071000D01*
X124694000Y-106146000D01*
X126596000Y-106146000D01*
X126596000Y-106126000D01*
X126904000Y-106126000D01*
X126904000Y-106146000D01*
X128806000Y-106146000D01*
X128958000Y-105994000D01*
X128960942Y-105895000D01*
X128956510Y-105850000D01*
X129458578Y-105850000D01*
X129900000Y-106291422D01*
G04 #@! TA.AperFunction,Conductor*
D34*
G36*
X129900000Y-106291422D02*
G01*
X129900000Y-107458578D01*
X129458578Y-107900000D01*
X123041422Y-107900000D01*
X122600000Y-107458578D01*
X122600000Y-106625000D01*
X122814058Y-106625000D01*
X122825797Y-106744189D01*
X122860563Y-106858797D01*
X122917020Y-106964421D01*
X122992999Y-107057001D01*
X123085579Y-107132980D01*
X123191203Y-107189437D01*
X123305811Y-107224203D01*
X123425000Y-107235942D01*
X123594000Y-107233000D01*
X123746000Y-107081000D01*
X123746000Y-106379000D01*
X124054000Y-106379000D01*
X124054000Y-107081000D01*
X124206000Y-107233000D01*
X124375000Y-107235942D01*
X124494189Y-107224203D01*
X124608797Y-107189437D01*
X124714421Y-107132980D01*
X124714587Y-107132844D01*
X124717999Y-107137001D01*
X124810579Y-107212980D01*
X124916203Y-107269437D01*
X125030811Y-107304203D01*
X125150000Y-107315942D01*
X126444000Y-107313000D01*
X126596000Y-107161000D01*
X126596000Y-106454000D01*
X126904000Y-106454000D01*
X126904000Y-107161000D01*
X127056000Y-107313000D01*
X128350000Y-107315942D01*
X128469189Y-107304203D01*
X128583797Y-107269437D01*
X128689421Y-107212980D01*
X128782001Y-107137001D01*
X128857980Y-107044421D01*
X128914437Y-106938797D01*
X128949203Y-106824189D01*
X128960942Y-106705000D01*
X128958000Y-106606000D01*
X128806000Y-106454000D01*
X126904000Y-106454000D01*
X126596000Y-106454000D01*
X124906000Y-106454000D01*
X124831000Y-106379000D01*
X124054000Y-106379000D01*
X123746000Y-106379000D01*
X122969000Y-106379000D01*
X122817000Y-106531000D01*
X122814058Y-106625000D01*
X122600000Y-106625000D01*
X122600000Y-106291422D01*
X122894711Y-105996711D01*
X122969000Y-106071000D01*
X123746000Y-106071000D01*
X123746000Y-106051000D01*
X124054000Y-106051000D01*
X124054000Y-106071000D01*
X124619000Y-106071000D01*
X124694000Y-106146000D01*
X126596000Y-106146000D01*
X126596000Y-106126000D01*
X126904000Y-106126000D01*
X126904000Y-106146000D01*
X128806000Y-106146000D01*
X128958000Y-105994000D01*
X128960942Y-105895000D01*
X128956510Y-105850000D01*
X129458578Y-105850000D01*
X129900000Y-106291422D01*
G37*
G04 #@! TD.AperFunction*
D33*
X145246133Y-102118869D02*
X145673000Y-102552059D01*
X145673000Y-104800000D01*
X145675440Y-104824776D01*
X145682667Y-104848601D01*
X145694403Y-104870557D01*
X145710197Y-104889803D01*
X146010197Y-105189803D01*
X146010806Y-105190407D01*
X146277770Y-105453788D01*
X146365545Y-111949148D01*
X145945759Y-112380281D01*
X140502000Y-112451910D01*
X140502000Y-111725000D01*
X141211928Y-111725000D01*
X141224188Y-111849482D01*
X141260498Y-111969180D01*
X141319463Y-112079494D01*
X141398815Y-112176185D01*
X141495506Y-112255537D01*
X141605820Y-112314502D01*
X141725518Y-112350812D01*
X141850000Y-112363072D01*
X142064250Y-112360000D01*
X142223000Y-112201250D01*
X142223000Y-111127000D01*
X141373750Y-111127000D01*
X141215000Y-111285750D01*
X141211928Y-111725000D01*
X140502000Y-111725000D01*
X140502000Y-110437224D01*
X140729549Y-110209675D01*
X140766293Y-110220822D01*
X140829022Y-110227000D01*
X140829033Y-110227000D01*
X140850000Y-110229065D01*
X140870967Y-110227000D01*
X141216655Y-110227000D01*
X141211928Y-110275000D01*
X141215000Y-110714250D01*
X141373750Y-110873000D01*
X142223000Y-110873000D01*
X142223000Y-110853000D01*
X142477000Y-110853000D01*
X142477000Y-110873000D01*
X142497000Y-110873000D01*
X142497000Y-111127000D01*
X142477000Y-111127000D01*
X142477000Y-112201250D01*
X142635750Y-112360000D01*
X142850000Y-112363072D01*
X142974482Y-112350812D01*
X143094180Y-112314502D01*
X143204494Y-112255537D01*
X143301185Y-112176185D01*
X143380537Y-112079494D01*
X143439502Y-111969180D01*
X143475812Y-111849482D01*
X143486931Y-111736583D01*
X143518927Y-111796443D01*
X143590881Y-111884119D01*
X143678557Y-111956073D01*
X143778586Y-112009540D01*
X143887124Y-112042465D01*
X144000000Y-112053582D01*
X144500000Y-112053582D01*
X144612876Y-112042465D01*
X144721414Y-112009540D01*
X144821443Y-111956073D01*
X144909119Y-111884119D01*
X144981073Y-111796443D01*
X145034540Y-111696414D01*
X145067465Y-111587876D01*
X145078582Y-111475000D01*
X145078582Y-110525000D01*
X145067465Y-110412124D01*
X145034540Y-110303586D01*
X144981073Y-110203557D01*
X144909119Y-110115881D01*
X144821443Y-110043927D01*
X144777000Y-110020172D01*
X144777000Y-109528390D01*
X144798206Y-109502550D01*
X144828570Y-109445743D01*
X144847268Y-109384103D01*
X144853582Y-109320000D01*
X144853582Y-108100000D01*
X144847268Y-108035897D01*
X144828570Y-107974257D01*
X144798206Y-107917450D01*
X144757343Y-107867657D01*
X144707550Y-107826794D01*
X144650743Y-107796430D01*
X144589103Y-107777732D01*
X144525000Y-107771418D01*
X143875000Y-107771418D01*
X143810897Y-107777732D01*
X143749257Y-107796430D01*
X143692450Y-107826794D01*
X143642657Y-107867657D01*
X143601794Y-107917450D01*
X143571430Y-107974257D01*
X143552732Y-108035897D01*
X143546418Y-108100000D01*
X143546418Y-109320000D01*
X143551638Y-109373000D01*
X142948362Y-109373000D01*
X142953582Y-109320000D01*
X142953582Y-108100000D01*
X142947268Y-108035897D01*
X142928570Y-107974257D01*
X142898206Y-107917450D01*
X142857343Y-107867657D01*
X142807801Y-107827000D01*
X142979033Y-107827000D01*
X143000000Y-107829065D01*
X143020967Y-107827000D01*
X143020978Y-107827000D01*
X143083707Y-107820822D01*
X143164196Y-107796405D01*
X143238376Y-107756755D01*
X143303395Y-107703395D01*
X143316768Y-107687100D01*
X143537106Y-107466763D01*
X143553395Y-107453395D01*
X143566764Y-107437105D01*
X143566768Y-107437101D01*
X143606755Y-107388377D01*
X143640196Y-107325812D01*
X143646405Y-107314196D01*
X143651952Y-107295912D01*
X143750518Y-107325812D01*
X143875000Y-107338072D01*
X143914250Y-107335000D01*
X144073000Y-107176250D01*
X144073000Y-106217000D01*
X144327000Y-106217000D01*
X144327000Y-107176250D01*
X144485750Y-107335000D01*
X144525000Y-107338072D01*
X144649482Y-107325812D01*
X144769180Y-107289502D01*
X144879494Y-107230537D01*
X144976185Y-107151185D01*
X145055537Y-107054494D01*
X145114502Y-106944180D01*
X145150812Y-106824482D01*
X145163072Y-106700000D01*
X145160000Y-106375750D01*
X145001250Y-106217000D01*
X144327000Y-106217000D01*
X144073000Y-106217000D01*
X144053000Y-106217000D01*
X144053000Y-105963000D01*
X144073000Y-105963000D01*
X144073000Y-104027000D01*
X144327000Y-104027000D01*
X144327000Y-105963000D01*
X145001250Y-105963000D01*
X145160000Y-105804250D01*
X145163072Y-105480000D01*
X145150812Y-105355518D01*
X145114502Y-105235820D01*
X145066377Y-105145785D01*
X145151185Y-105076185D01*
X145230537Y-104979494D01*
X145289502Y-104869180D01*
X145325812Y-104749482D01*
X145338072Y-104625000D01*
X145335000Y-104185750D01*
X145176250Y-104027000D01*
X144327000Y-104027000D01*
X144073000Y-104027000D01*
X144053000Y-104027000D01*
X144053000Y-103773000D01*
X144073000Y-103773000D01*
X144073000Y-102698750D01*
X144327000Y-102698750D01*
X144327000Y-103773000D01*
X145176250Y-103773000D01*
X145335000Y-103614250D01*
X145338072Y-103175000D01*
X145325812Y-103050518D01*
X145289502Y-102930820D01*
X145230537Y-102820506D01*
X145151185Y-102723815D01*
X145054494Y-102644463D01*
X144944180Y-102585498D01*
X144824482Y-102549188D01*
X144700000Y-102536928D01*
X144485750Y-102540000D01*
X144327000Y-102698750D01*
X144073000Y-102698750D01*
X143999942Y-102625692D01*
X144517481Y-102108153D01*
X145246133Y-102118869D01*
G04 #@! TA.AperFunction,Conductor*
D34*
G36*
X145246133Y-102118869D02*
G01*
X145673000Y-102552059D01*
X145673000Y-104800000D01*
X145675440Y-104824776D01*
X145682667Y-104848601D01*
X145694403Y-104870557D01*
X145710197Y-104889803D01*
X146010197Y-105189803D01*
X146010806Y-105190407D01*
X146277770Y-105453788D01*
X146365545Y-111949148D01*
X145945759Y-112380281D01*
X140502000Y-112451910D01*
X140502000Y-111725000D01*
X141211928Y-111725000D01*
X141224188Y-111849482D01*
X141260498Y-111969180D01*
X141319463Y-112079494D01*
X141398815Y-112176185D01*
X141495506Y-112255537D01*
X141605820Y-112314502D01*
X141725518Y-112350812D01*
X141850000Y-112363072D01*
X142064250Y-112360000D01*
X142223000Y-112201250D01*
X142223000Y-111127000D01*
X141373750Y-111127000D01*
X141215000Y-111285750D01*
X141211928Y-111725000D01*
X140502000Y-111725000D01*
X140502000Y-110437224D01*
X140729549Y-110209675D01*
X140766293Y-110220822D01*
X140829022Y-110227000D01*
X140829033Y-110227000D01*
X140850000Y-110229065D01*
X140870967Y-110227000D01*
X141216655Y-110227000D01*
X141211928Y-110275000D01*
X141215000Y-110714250D01*
X141373750Y-110873000D01*
X142223000Y-110873000D01*
X142223000Y-110853000D01*
X142477000Y-110853000D01*
X142477000Y-110873000D01*
X142497000Y-110873000D01*
X142497000Y-111127000D01*
X142477000Y-111127000D01*
X142477000Y-112201250D01*
X142635750Y-112360000D01*
X142850000Y-112363072D01*
X142974482Y-112350812D01*
X143094180Y-112314502D01*
X143204494Y-112255537D01*
X143301185Y-112176185D01*
X143380537Y-112079494D01*
X143439502Y-111969180D01*
X143475812Y-111849482D01*
X143486931Y-111736583D01*
X143518927Y-111796443D01*
X143590881Y-111884119D01*
X143678557Y-111956073D01*
X143778586Y-112009540D01*
X143887124Y-112042465D01*
X144000000Y-112053582D01*
X144500000Y-112053582D01*
X144612876Y-112042465D01*
X144721414Y-112009540D01*
X144821443Y-111956073D01*
X144909119Y-111884119D01*
X144981073Y-111796443D01*
X145034540Y-111696414D01*
X145067465Y-111587876D01*
X145078582Y-111475000D01*
X145078582Y-110525000D01*
X145067465Y-110412124D01*
X145034540Y-110303586D01*
X144981073Y-110203557D01*
X144909119Y-110115881D01*
X144821443Y-110043927D01*
X144777000Y-110020172D01*
X144777000Y-109528390D01*
X144798206Y-109502550D01*
X144828570Y-109445743D01*
X144847268Y-109384103D01*
X144853582Y-109320000D01*
X144853582Y-108100000D01*
X144847268Y-108035897D01*
X144828570Y-107974257D01*
X144798206Y-107917450D01*
X144757343Y-107867657D01*
X144707550Y-107826794D01*
X144650743Y-107796430D01*
X144589103Y-107777732D01*
X144525000Y-107771418D01*
X143875000Y-107771418D01*
X143810897Y-107777732D01*
X143749257Y-107796430D01*
X143692450Y-107826794D01*
X143642657Y-107867657D01*
X143601794Y-107917450D01*
X143571430Y-107974257D01*
X143552732Y-108035897D01*
X143546418Y-108100000D01*
X143546418Y-109320000D01*
X143551638Y-109373000D01*
X142948362Y-109373000D01*
X142953582Y-109320000D01*
X142953582Y-108100000D01*
X142947268Y-108035897D01*
X142928570Y-107974257D01*
X142898206Y-107917450D01*
X142857343Y-107867657D01*
X142807801Y-107827000D01*
X142979033Y-107827000D01*
X143000000Y-107829065D01*
X143020967Y-107827000D01*
X143020978Y-107827000D01*
X143083707Y-107820822D01*
X143164196Y-107796405D01*
X143238376Y-107756755D01*
X143303395Y-107703395D01*
X143316768Y-107687100D01*
X143537106Y-107466763D01*
X143553395Y-107453395D01*
X143566764Y-107437105D01*
X143566768Y-107437101D01*
X143606755Y-107388377D01*
X143640196Y-107325812D01*
X143646405Y-107314196D01*
X143651952Y-107295912D01*
X143750518Y-107325812D01*
X143875000Y-107338072D01*
X143914250Y-107335000D01*
X144073000Y-107176250D01*
X144073000Y-106217000D01*
X144327000Y-106217000D01*
X144327000Y-107176250D01*
X144485750Y-107335000D01*
X144525000Y-107338072D01*
X144649482Y-107325812D01*
X144769180Y-107289502D01*
X144879494Y-107230537D01*
X144976185Y-107151185D01*
X145055537Y-107054494D01*
X145114502Y-106944180D01*
X145150812Y-106824482D01*
X145163072Y-106700000D01*
X145160000Y-106375750D01*
X145001250Y-106217000D01*
X144327000Y-106217000D01*
X144073000Y-106217000D01*
X144053000Y-106217000D01*
X144053000Y-105963000D01*
X144073000Y-105963000D01*
X144073000Y-104027000D01*
X144327000Y-104027000D01*
X144327000Y-105963000D01*
X145001250Y-105963000D01*
X145160000Y-105804250D01*
X145163072Y-105480000D01*
X145150812Y-105355518D01*
X145114502Y-105235820D01*
X145066377Y-105145785D01*
X145151185Y-105076185D01*
X145230537Y-104979494D01*
X145289502Y-104869180D01*
X145325812Y-104749482D01*
X145338072Y-104625000D01*
X145335000Y-104185750D01*
X145176250Y-104027000D01*
X144327000Y-104027000D01*
X144073000Y-104027000D01*
X144053000Y-104027000D01*
X144053000Y-103773000D01*
X144073000Y-103773000D01*
X144073000Y-102698750D01*
X144327000Y-102698750D01*
X144327000Y-103773000D01*
X145176250Y-103773000D01*
X145335000Y-103614250D01*
X145338072Y-103175000D01*
X145325812Y-103050518D01*
X145289502Y-102930820D01*
X145230537Y-102820506D01*
X145151185Y-102723815D01*
X145054494Y-102644463D01*
X144944180Y-102585498D01*
X144824482Y-102549188D01*
X144700000Y-102536928D01*
X144485750Y-102540000D01*
X144327000Y-102698750D01*
X144073000Y-102698750D01*
X143999942Y-102625692D01*
X144517481Y-102108153D01*
X145246133Y-102118869D01*
G37*
G04 #@! TD.AperFunction*
M02*
