G04 #@! TF.GenerationSoftware,KiCad,Pcbnew,5.1.7*
G04 #@! TF.CreationDate,2020-10-15T01:08:01+02:00*
G04 #@! TF.ProjectId,DgDrive_DVI,44674472-6976-4655-9f44-56492e6b6963,1.2*
G04 #@! TF.SameCoordinates,Original*
G04 #@! TF.FileFunction,Copper,L1,Top*
G04 #@! TF.FilePolarity,Positive*
%FSLAX46Y46*%
G04 Gerber Fmt 4.6, Leading zero omitted, Abs format (unit mm)*
G04 Created by KiCad (PCBNEW 5.1.7) date 2020-10-15 01:08:01*
%MOMM*%
%LPD*%
G01*
G04 APERTURE LIST*
G04 #@! TA.AperFunction,ComponentPad*
%ADD10R,1.500000X1.050000*%
G04 #@! TD*
G04 #@! TA.AperFunction,ComponentPad*
%ADD11O,1.500000X1.050000*%
G04 #@! TD*
G04 #@! TA.AperFunction,ComponentPad*
%ADD12C,1.800000*%
G04 #@! TD*
G04 #@! TA.AperFunction,ComponentPad*
%ADD13R,1.800000X1.800000*%
G04 #@! TD*
G04 #@! TA.AperFunction,ComponentPad*
%ADD14C,2.250000*%
G04 #@! TD*
G04 #@! TA.AperFunction,ComponentPad*
%ADD15C,2.050000*%
G04 #@! TD*
G04 #@! TA.AperFunction,SMDPad,CuDef*
%ADD16R,0.900000X0.800000*%
G04 #@! TD*
G04 #@! TA.AperFunction,SMDPad,CuDef*
%ADD17R,0.800000X0.900000*%
G04 #@! TD*
G04 #@! TA.AperFunction,SMDPad,CuDef*
%ADD18R,0.900000X1.200000*%
G04 #@! TD*
G04 #@! TA.AperFunction,ComponentPad*
%ADD19O,1.600000X1.600000*%
G04 #@! TD*
G04 #@! TA.AperFunction,ComponentPad*
%ADD20R,1.600000X1.600000*%
G04 #@! TD*
G04 #@! TA.AperFunction,ComponentPad*
%ADD21C,2.000000*%
G04 #@! TD*
G04 #@! TA.AperFunction,ComponentPad*
%ADD22C,1.300000*%
G04 #@! TD*
G04 #@! TA.AperFunction,ComponentPad*
%ADD23C,4.200000*%
G04 #@! TD*
G04 #@! TA.AperFunction,ComponentPad*
%ADD24C,1.600000*%
G04 #@! TD*
G04 #@! TA.AperFunction,SMDPad,CuDef*
%ADD25R,0.900000X0.500000*%
G04 #@! TD*
G04 #@! TA.AperFunction,ComponentPad*
%ADD26C,2.499360*%
G04 #@! TD*
G04 #@! TA.AperFunction,ViaPad*
%ADD27C,0.600000*%
G04 #@! TD*
G04 #@! TA.AperFunction,Conductor*
%ADD28C,0.500000*%
G04 #@! TD*
G04 #@! TA.AperFunction,Conductor*
%ADD29C,1.000000*%
G04 #@! TD*
G04 #@! TA.AperFunction,Conductor*
%ADD30C,0.250000*%
G04 #@! TD*
G04 #@! TA.AperFunction,Conductor*
%ADD31C,0.200000*%
G04 #@! TD*
G04 #@! TA.AperFunction,Conductor*
%ADD32C,0.254000*%
G04 #@! TD*
G04 #@! TA.AperFunction,Conductor*
%ADD33C,0.100000*%
G04 #@! TD*
G04 APERTURE END LIST*
D10*
X122000000Y-109500000D03*
D11*
X122000000Y-112040000D03*
X122000000Y-110770000D03*
D12*
X102362000Y-100000000D03*
D13*
X99822000Y-100000000D03*
G04 #@! TA.AperFunction,SMDPad,CuDef*
G36*
G01*
X131924999Y-113150000D02*
X134075001Y-113150000D01*
G75*
G02*
X134325000Y-113399999I0J-249999D01*
G01*
X134325000Y-114025001D01*
G75*
G02*
X134075001Y-114275000I-249999J0D01*
G01*
X131924999Y-114275000D01*
G75*
G02*
X131675000Y-114025001I0J249999D01*
G01*
X131675000Y-113399999D01*
G75*
G02*
X131924999Y-113150000I249999J0D01*
G01*
G37*
G04 #@! TD.AperFunction*
G04 #@! TA.AperFunction,SMDPad,CuDef*
G36*
G01*
X131924999Y-110225000D02*
X134075001Y-110225000D01*
G75*
G02*
X134325000Y-110474999I0J-249999D01*
G01*
X134325000Y-111100001D01*
G75*
G02*
X134075001Y-111350000I-249999J0D01*
G01*
X131924999Y-111350000D01*
G75*
G02*
X131675000Y-111100001I0J249999D01*
G01*
X131675000Y-110474999D01*
G75*
G02*
X131924999Y-110225000I249999J0D01*
G01*
G37*
G04 #@! TD.AperFunction*
D14*
X148960000Y-109960000D03*
X148960000Y-115040000D03*
X154040000Y-115040000D03*
X154040000Y-109960000D03*
D15*
X151500000Y-112500000D03*
D14*
X148960000Y-96960000D03*
X148960000Y-102040000D03*
X154040000Y-102040000D03*
X154040000Y-96960000D03*
D15*
X151500000Y-99500000D03*
D16*
X118300000Y-92600000D03*
X116300000Y-93550000D03*
X116300000Y-91650000D03*
D17*
X109500000Y-93500000D03*
X108550000Y-91500000D03*
X110450000Y-91500000D03*
G04 #@! TA.AperFunction,SMDPad,CuDef*
G36*
G01*
X133900000Y-108650001D02*
X133900000Y-107349999D01*
G75*
G02*
X134149999Y-107100000I249999J0D01*
G01*
X134800001Y-107100000D01*
G75*
G02*
X135050000Y-107349999I0J-249999D01*
G01*
X135050000Y-108650001D01*
G75*
G02*
X134800001Y-108900000I-249999J0D01*
G01*
X134149999Y-108900000D01*
G75*
G02*
X133900000Y-108650001I0J249999D01*
G01*
G37*
G04 #@! TD.AperFunction*
G04 #@! TA.AperFunction,SMDPad,CuDef*
G36*
G01*
X130950000Y-108650001D02*
X130950000Y-107349999D01*
G75*
G02*
X131199999Y-107100000I249999J0D01*
G01*
X131850001Y-107100000D01*
G75*
G02*
X132100000Y-107349999I0J-249999D01*
G01*
X132100000Y-108650001D01*
G75*
G02*
X131850001Y-108900000I-249999J0D01*
G01*
X131199999Y-108900000D01*
G75*
G02*
X130950000Y-108650001I0J249999D01*
G01*
G37*
G04 #@! TD.AperFunction*
D18*
X98650000Y-95500000D03*
X95350000Y-95500000D03*
D19*
X137080000Y-114800000D03*
X144700000Y-109720000D03*
X137080000Y-112260000D03*
X144700000Y-112260000D03*
X137080000Y-109720000D03*
D20*
X144700000Y-114800000D03*
G04 #@! TA.AperFunction,SMDPad,CuDef*
G36*
G01*
X147900000Y-104924999D02*
X147900000Y-107075001D01*
G75*
G02*
X147650001Y-107325000I-249999J0D01*
G01*
X147024999Y-107325000D01*
G75*
G02*
X146775000Y-107075001I0J249999D01*
G01*
X146775000Y-104924999D01*
G75*
G02*
X147024999Y-104675000I249999J0D01*
G01*
X147650001Y-104675000D01*
G75*
G02*
X147900000Y-104924999I0J-249999D01*
G01*
G37*
G04 #@! TD.AperFunction*
G04 #@! TA.AperFunction,SMDPad,CuDef*
G36*
G01*
X150825000Y-104924999D02*
X150825000Y-107075001D01*
G75*
G02*
X150575001Y-107325000I-249999J0D01*
G01*
X149949999Y-107325000D01*
G75*
G02*
X149700000Y-107075001I0J249999D01*
G01*
X149700000Y-104924999D01*
G75*
G02*
X149949999Y-104675000I249999J0D01*
G01*
X150575001Y-104675000D01*
G75*
G02*
X150825000Y-104924999I0J-249999D01*
G01*
G37*
G04 #@! TD.AperFunction*
G04 #@! TA.AperFunction,SMDPad,CuDef*
G36*
G01*
X125225000Y-112425000D02*
X125775000Y-112425000D01*
G75*
G02*
X125975000Y-112625000I0J-200000D01*
G01*
X125975000Y-113025000D01*
G75*
G02*
X125775000Y-113225000I-200000J0D01*
G01*
X125225000Y-113225000D01*
G75*
G02*
X125025000Y-113025000I0J200000D01*
G01*
X125025000Y-112625000D01*
G75*
G02*
X125225000Y-112425000I200000J0D01*
G01*
G37*
G04 #@! TD.AperFunction*
G04 #@! TA.AperFunction,SMDPad,CuDef*
G36*
G01*
X125225000Y-110775000D02*
X125775000Y-110775000D01*
G75*
G02*
X125975000Y-110975000I0J-200000D01*
G01*
X125975000Y-111375000D01*
G75*
G02*
X125775000Y-111575000I-200000J0D01*
G01*
X125225000Y-111575000D01*
G75*
G02*
X125025000Y-111375000I0J200000D01*
G01*
X125025000Y-110975000D01*
G75*
G02*
X125225000Y-110775000I200000J0D01*
G01*
G37*
G04 #@! TD.AperFunction*
G04 #@! TA.AperFunction,SMDPad,CuDef*
G36*
G01*
X113275000Y-92075000D02*
X112725000Y-92075000D01*
G75*
G02*
X112525000Y-91875000I0J200000D01*
G01*
X112525000Y-91475000D01*
G75*
G02*
X112725000Y-91275000I200000J0D01*
G01*
X113275000Y-91275000D01*
G75*
G02*
X113475000Y-91475000I0J-200000D01*
G01*
X113475000Y-91875000D01*
G75*
G02*
X113275000Y-92075000I-200000J0D01*
G01*
G37*
G04 #@! TD.AperFunction*
G04 #@! TA.AperFunction,SMDPad,CuDef*
G36*
G01*
X113275000Y-93725000D02*
X112725000Y-93725000D01*
G75*
G02*
X112525000Y-93525000I0J200000D01*
G01*
X112525000Y-93125000D01*
G75*
G02*
X112725000Y-92925000I200000J0D01*
G01*
X113275000Y-92925000D01*
G75*
G02*
X113475000Y-93125000I0J-200000D01*
G01*
X113475000Y-93525000D01*
G75*
G02*
X113275000Y-93725000I-200000J0D01*
G01*
G37*
G04 #@! TD.AperFunction*
D21*
X110380000Y-107780000D03*
X105300000Y-107780000D03*
X100220000Y-107780000D03*
X92600000Y-107780000D03*
X110380000Y-115400000D03*
X105300000Y-115400000D03*
X92600000Y-115400000D03*
X100220000Y-115400000D03*
D22*
X116240000Y-102018000D03*
X116240000Y-96938000D03*
X114970000Y-100748000D03*
X117510000Y-100748000D03*
X117510000Y-98208000D03*
X114970000Y-98208000D03*
X120685000Y-97595000D03*
X120685000Y-101405000D03*
X122590000Y-101405000D03*
X124495000Y-101405000D03*
X126400000Y-101405000D03*
X128305000Y-101405000D03*
X130210000Y-101405000D03*
X132115000Y-101405000D03*
X134020000Y-101405000D03*
X120685000Y-99500000D03*
X122590000Y-99500000D03*
X124495000Y-99500000D03*
X126400000Y-99500000D03*
X128305000Y-99500000D03*
X130210000Y-99500000D03*
X132115000Y-99500000D03*
D23*
X140750000Y-99500000D03*
D22*
X124495000Y-97595000D03*
X122590000Y-97595000D03*
X134020000Y-99500000D03*
X126400000Y-97595000D03*
X128305000Y-97595000D03*
X134020000Y-97595000D03*
X132115000Y-97595000D03*
X130210000Y-97595000D03*
D23*
X108240000Y-99500000D03*
D24*
X95000000Y-103000000D03*
D20*
X95000000Y-101000000D03*
D25*
X102500000Y-104750000D03*
X102500000Y-103250000D03*
D26*
X150200000Y-93000000D03*
X153600000Y-93100000D03*
X119500000Y-115500000D03*
X124200000Y-115400000D03*
D27*
X132500000Y-108000000D03*
X130500000Y-108000000D03*
X130500000Y-106500000D03*
X132500000Y-106500000D03*
X119000000Y-109200000D03*
D28*
X133000000Y-110800000D02*
X134700000Y-110800000D01*
X135780000Y-109720000D02*
X137080000Y-109720000D01*
X134700000Y-110800000D02*
X135780000Y-109720000D01*
X134500000Y-108440000D02*
X135780000Y-109720000D01*
X134500000Y-108000000D02*
X134500000Y-108440000D01*
D29*
X116600000Y-112600000D02*
X119500000Y-115500000D01*
X108100000Y-112600000D02*
X116600000Y-112600000D01*
X105300000Y-115400000D02*
X108100000Y-112600000D01*
D28*
X95000000Y-113000000D02*
X92600000Y-115400000D01*
X95000000Y-103000000D02*
X95000000Y-113000000D01*
X95000000Y-101000000D02*
X95000000Y-98200000D01*
X95350000Y-97850000D02*
X95350000Y-95500000D01*
X95000000Y-98200000D02*
X95350000Y-97850000D01*
X95350000Y-95500000D02*
X95350000Y-94050000D01*
X95900000Y-93500000D02*
X109500000Y-93500000D01*
X95350000Y-94050000D02*
X95900000Y-93500000D01*
D30*
X106600000Y-104000000D02*
X110380000Y-107780000D01*
X100000000Y-104000000D02*
X106600000Y-104000000D01*
X97000000Y-101000000D02*
X100000000Y-104000000D01*
X95000000Y-101000000D02*
X97000000Y-101000000D01*
X111800000Y-93500000D02*
X109500000Y-93500000D01*
X112050000Y-93250000D02*
X111800000Y-93500000D01*
X113000000Y-93250000D02*
X112050000Y-93250000D01*
D31*
X119899759Y-100450241D02*
X119950241Y-100450241D01*
D30*
X98650000Y-95500000D02*
X109000000Y-95500000D01*
X118300000Y-99500000D02*
X119250241Y-100450241D01*
X119250241Y-100450241D02*
X119950241Y-100450241D01*
X113000000Y-99500000D02*
X118300000Y-99500000D01*
X109000000Y-95500000D02*
X113000000Y-99500000D01*
D31*
X121149759Y-100450241D02*
X119950241Y-100450241D01*
X121640000Y-99960000D02*
X121149759Y-100450241D01*
X121640000Y-98960000D02*
X121640000Y-99960000D01*
X123550000Y-98550000D02*
X122050000Y-98550000D01*
X122050000Y-98550000D02*
X121640000Y-98960000D01*
X124495000Y-99495000D02*
X123550000Y-98550000D01*
X124495000Y-99500000D02*
X124495000Y-99495000D01*
D30*
X116300000Y-91650000D02*
X115250000Y-91650000D01*
X115250000Y-91650000D02*
X114200000Y-90600000D01*
X109450000Y-90600000D02*
X108550000Y-91500000D01*
X114200000Y-90600000D02*
X109450000Y-90600000D01*
D28*
X92600000Y-94100000D02*
X92600000Y-107780000D01*
X95200000Y-91500000D02*
X92600000Y-94100000D01*
X108550000Y-91500000D02*
X95200000Y-91500000D01*
D29*
X124200000Y-114240000D02*
X122000000Y-112040000D01*
X124200000Y-115400000D02*
X124200000Y-114240000D01*
X122000000Y-110770000D02*
X122000000Y-112040000D01*
X105220001Y-110399999D02*
X100220000Y-115400000D01*
X118999999Y-110399999D02*
X105220001Y-110399999D01*
X119370000Y-110770000D02*
X118999999Y-110399999D01*
X122000000Y-110770000D02*
X119370000Y-110770000D01*
D30*
X125500000Y-114100000D02*
X124200000Y-115400000D01*
X125500000Y-112825000D02*
X125500000Y-114100000D01*
D28*
X102500000Y-103250000D02*
X102500000Y-101600000D01*
X102500000Y-101600000D02*
X102362000Y-101462000D01*
X102362000Y-101462000D02*
X102362000Y-99500000D01*
X144700000Y-114800000D02*
X146500000Y-114800000D01*
X146740000Y-115040000D02*
X148960000Y-115040000D01*
X146500000Y-114800000D02*
X146740000Y-115040000D01*
D30*
X118300000Y-95205000D02*
X118300000Y-95000000D01*
X118300000Y-95000000D02*
X118300000Y-92600000D01*
X118300000Y-92600000D02*
X118300000Y-96600000D01*
X119100000Y-98900000D02*
X119700000Y-99500000D01*
X119700000Y-99500000D02*
X120685000Y-99500000D01*
X119100000Y-97400000D02*
X119100000Y-98900000D01*
X118300000Y-96600000D02*
X119100000Y-97400000D01*
X110450000Y-91500000D02*
X111800000Y-91500000D01*
X112050000Y-91750000D02*
X113000000Y-91750000D01*
X111800000Y-91500000D02*
X112050000Y-91750000D01*
X113000000Y-91750000D02*
X114150000Y-91750000D01*
X115000000Y-92600000D02*
X118300000Y-92600000D01*
X114150000Y-91750000D02*
X115000000Y-92600000D01*
D28*
X102500000Y-105500000D02*
X100220000Y-107780000D01*
X102500000Y-104750000D02*
X102500000Y-105500000D01*
X131500000Y-108000000D02*
X131500000Y-106000000D01*
D29*
X131500000Y-106000000D02*
X131500000Y-103000000D01*
D28*
X131500000Y-103000000D02*
X131500000Y-102750000D01*
X150250000Y-106000000D02*
X150250000Y-107650000D01*
X151500000Y-108900000D02*
X151500000Y-112500000D01*
X150250000Y-107650000D02*
X151500000Y-108900000D01*
X135700000Y-114800000D02*
X137080000Y-114800000D01*
X134600000Y-113700000D02*
X135700000Y-114800000D01*
X133000000Y-113700000D02*
X134600000Y-113700000D01*
X144700000Y-106900000D02*
X145600000Y-106000000D01*
X147350000Y-106000000D02*
X145600000Y-106000000D01*
X144700000Y-109720000D02*
X144700000Y-106900000D01*
X151500000Y-94300000D02*
X150200000Y-93000000D01*
X151500000Y-99500000D02*
X151500000Y-94300000D01*
D30*
X122590000Y-105610000D02*
X119000000Y-109200000D01*
X122590000Y-101405000D02*
X122590000Y-105610000D01*
D31*
X123100000Y-100450000D02*
X123540000Y-100890000D01*
X121750000Y-100450000D02*
X123100000Y-100450000D01*
X120795000Y-101405000D02*
X121750000Y-100450000D01*
X120685000Y-101405000D02*
X120795000Y-101405000D01*
X123540000Y-100890000D02*
X123540000Y-102540000D01*
D30*
X125500000Y-109800000D02*
X123540000Y-107840000D01*
X125500000Y-111175000D02*
X125500000Y-109800000D01*
X123540000Y-107840000D02*
X123540000Y-102540000D01*
D32*
X155873000Y-103697394D02*
X155697394Y-103873000D01*
X150813025Y-103873000D01*
X150785894Y-103864770D01*
X150575001Y-103843999D01*
X149949999Y-103843999D01*
X149739106Y-103864770D01*
X149711975Y-103873000D01*
X147888025Y-103873000D01*
X147860894Y-103864770D01*
X147650001Y-103843999D01*
X147273605Y-103843999D01*
X147127000Y-103697394D01*
X147127000Y-103264531D01*
X147915074Y-103264531D01*
X148025921Y-103541714D01*
X148336840Y-103695089D01*
X148671705Y-103784860D01*
X149017650Y-103807576D01*
X149361380Y-103762366D01*
X149689685Y-103650966D01*
X149894079Y-103541714D01*
X150004926Y-103264531D01*
X152995074Y-103264531D01*
X153105921Y-103541714D01*
X153416840Y-103695089D01*
X153751705Y-103784860D01*
X154097650Y-103807576D01*
X154441380Y-103762366D01*
X154769685Y-103650966D01*
X154974079Y-103541714D01*
X155084926Y-103264531D01*
X154040000Y-102219605D01*
X152995074Y-103264531D01*
X150004926Y-103264531D01*
X148960000Y-102219605D01*
X147915074Y-103264531D01*
X147127000Y-103264531D01*
X147127000Y-102097650D01*
X147192424Y-102097650D01*
X147237634Y-102441380D01*
X147349034Y-102769685D01*
X147458286Y-102974079D01*
X147735469Y-103084926D01*
X148780395Y-102040000D01*
X147735469Y-100995074D01*
X147458286Y-101105921D01*
X147304911Y-101416840D01*
X147215140Y-101751705D01*
X147192424Y-102097650D01*
X147127000Y-102097650D01*
X147127000Y-98184531D01*
X147915074Y-98184531D01*
X148025921Y-98461714D01*
X148336840Y-98615089D01*
X148671705Y-98704860D01*
X149017650Y-98727576D01*
X149361380Y-98682366D01*
X149689685Y-98570966D01*
X149894079Y-98461714D01*
X150004925Y-98184533D01*
X150100635Y-98280243D01*
X150061458Y-98319419D01*
X149858779Y-98622749D01*
X149719171Y-98959792D01*
X149648000Y-99317594D01*
X149648000Y-99682406D01*
X149719171Y-100040208D01*
X149858779Y-100377251D01*
X150061458Y-100680581D01*
X150100635Y-100719758D01*
X150004925Y-100815467D01*
X149894079Y-100538286D01*
X149583160Y-100384911D01*
X149248295Y-100295140D01*
X148902350Y-100272424D01*
X148558620Y-100317634D01*
X148230315Y-100429034D01*
X148025921Y-100538286D01*
X147915074Y-100815469D01*
X148960000Y-101860395D01*
X148974143Y-101846253D01*
X149153748Y-102025858D01*
X149139605Y-102040000D01*
X150184531Y-103084926D01*
X150461714Y-102974079D01*
X150615089Y-102663160D01*
X150704860Y-102328295D01*
X150727576Y-101982350D01*
X150682366Y-101638620D01*
X150570966Y-101310315D01*
X150461714Y-101105921D01*
X150184533Y-100995075D01*
X150280243Y-100899366D01*
X150319419Y-100938542D01*
X150622749Y-101141221D01*
X150959792Y-101280829D01*
X151317594Y-101352000D01*
X151682406Y-101352000D01*
X152040208Y-101280829D01*
X152377251Y-101141221D01*
X152680581Y-100938542D01*
X152719758Y-100899366D01*
X152815467Y-100995075D01*
X152538286Y-101105921D01*
X152384911Y-101416840D01*
X152295140Y-101751705D01*
X152272424Y-102097650D01*
X152317634Y-102441380D01*
X152429034Y-102769685D01*
X152538286Y-102974079D01*
X152815469Y-103084926D01*
X153860395Y-102040000D01*
X154219605Y-102040000D01*
X155264531Y-103084926D01*
X155541714Y-102974079D01*
X155695089Y-102663160D01*
X155784860Y-102328295D01*
X155807576Y-101982350D01*
X155762366Y-101638620D01*
X155650966Y-101310315D01*
X155541714Y-101105921D01*
X155264531Y-100995074D01*
X154219605Y-102040000D01*
X153860395Y-102040000D01*
X153846253Y-102025858D01*
X154025858Y-101846253D01*
X154040000Y-101860395D01*
X155084926Y-100815469D01*
X154974079Y-100538286D01*
X154663160Y-100384911D01*
X154328295Y-100295140D01*
X153982350Y-100272424D01*
X153638620Y-100317634D01*
X153310315Y-100429034D01*
X153105921Y-100538286D01*
X152995075Y-100815467D01*
X152899366Y-100719758D01*
X152938542Y-100680581D01*
X153141221Y-100377251D01*
X153280829Y-100040208D01*
X153352000Y-99682406D01*
X153352000Y-99317594D01*
X153280829Y-98959792D01*
X153141221Y-98622749D01*
X152938542Y-98319419D01*
X152899366Y-98280243D01*
X152995075Y-98184533D01*
X153105921Y-98461714D01*
X153416840Y-98615089D01*
X153751705Y-98704860D01*
X154097650Y-98727576D01*
X154441380Y-98682366D01*
X154769685Y-98570966D01*
X154974079Y-98461714D01*
X155084926Y-98184531D01*
X154040000Y-97139605D01*
X154025858Y-97153748D01*
X153846253Y-96974143D01*
X153860395Y-96960000D01*
X154219605Y-96960000D01*
X155264531Y-98004926D01*
X155541714Y-97894079D01*
X155695089Y-97583160D01*
X155784860Y-97248295D01*
X155807576Y-96902350D01*
X155762366Y-96558620D01*
X155650966Y-96230315D01*
X155541714Y-96025921D01*
X155264531Y-95915074D01*
X154219605Y-96960000D01*
X153860395Y-96960000D01*
X152815469Y-95915074D01*
X152577000Y-96010439D01*
X152577000Y-95735469D01*
X152995074Y-95735469D01*
X154040000Y-96780395D01*
X155084926Y-95735469D01*
X154974079Y-95458286D01*
X154663160Y-95304911D01*
X154328295Y-95215140D01*
X153982350Y-95192424D01*
X153638620Y-95237634D01*
X153310315Y-95349034D01*
X153105921Y-95458286D01*
X152995074Y-95735469D01*
X152577000Y-95735469D01*
X152577000Y-94668525D01*
X152592104Y-94703315D01*
X152924262Y-94869139D01*
X153282387Y-94966975D01*
X153652719Y-94993065D01*
X154021025Y-94946405D01*
X154373151Y-94828789D01*
X154607896Y-94703315D01*
X154733771Y-94413377D01*
X153600000Y-93279605D01*
X153585858Y-93293748D01*
X153406252Y-93114142D01*
X153420395Y-93100000D01*
X153779605Y-93100000D01*
X154913377Y-94233771D01*
X155203315Y-94107896D01*
X155369139Y-93775738D01*
X155466975Y-93417613D01*
X155493065Y-93047281D01*
X155446405Y-92678975D01*
X155328789Y-92326849D01*
X155203315Y-92092104D01*
X154913377Y-91966229D01*
X153779605Y-93100000D01*
X153420395Y-93100000D01*
X152286623Y-91966229D01*
X152060283Y-92064493D01*
X152040330Y-92016323D01*
X151886850Y-91786623D01*
X152466229Y-91786623D01*
X153600000Y-92920395D01*
X154733771Y-91786623D01*
X154607896Y-91496685D01*
X154275738Y-91330861D01*
X153917613Y-91233025D01*
X153547281Y-91206935D01*
X153178975Y-91253595D01*
X152826849Y-91371211D01*
X152592104Y-91496685D01*
X152466229Y-91786623D01*
X151886850Y-91786623D01*
X151813063Y-91676194D01*
X151523806Y-91386937D01*
X151183677Y-91159670D01*
X150805745Y-91003126D01*
X150404535Y-90923320D01*
X149995465Y-90923320D01*
X149594255Y-91003126D01*
X149216323Y-91159670D01*
X148876194Y-91386937D01*
X148586937Y-91676194D01*
X148359670Y-92016323D01*
X148203126Y-92394255D01*
X148123320Y-92795465D01*
X148123320Y-93204535D01*
X148203126Y-93605745D01*
X148359670Y-93983677D01*
X148586937Y-94323806D01*
X148876194Y-94613063D01*
X149216323Y-94840330D01*
X149594255Y-94996874D01*
X149995465Y-95076680D01*
X150404535Y-95076680D01*
X150423001Y-95073007D01*
X150423001Y-96010439D01*
X150184531Y-95915074D01*
X149139605Y-96960000D01*
X149153748Y-96974143D01*
X148974143Y-97153748D01*
X148960000Y-97139605D01*
X147915074Y-98184531D01*
X147127000Y-98184531D01*
X147127000Y-97017650D01*
X147192424Y-97017650D01*
X147237634Y-97361380D01*
X147349034Y-97689685D01*
X147458286Y-97894079D01*
X147735469Y-98004926D01*
X148780395Y-96960000D01*
X147735469Y-95915074D01*
X147458286Y-96025921D01*
X147304911Y-96336840D01*
X147215140Y-96671705D01*
X147192424Y-97017650D01*
X147127000Y-97017650D01*
X147127000Y-95735469D01*
X147915074Y-95735469D01*
X148960000Y-96780395D01*
X150004926Y-95735469D01*
X149894079Y-95458286D01*
X149583160Y-95304911D01*
X149248295Y-95215140D01*
X148902350Y-95192424D01*
X148558620Y-95237634D01*
X148230315Y-95349034D01*
X148025921Y-95458286D01*
X147915074Y-95735469D01*
X147127000Y-95735469D01*
X147127000Y-90852000D01*
X155873000Y-90852000D01*
X155873000Y-103697394D01*
G04 #@! TA.AperFunction,Conductor*
D33*
G36*
X155873000Y-103697394D02*
G01*
X155697394Y-103873000D01*
X150813025Y-103873000D01*
X150785894Y-103864770D01*
X150575001Y-103843999D01*
X149949999Y-103843999D01*
X149739106Y-103864770D01*
X149711975Y-103873000D01*
X147888025Y-103873000D01*
X147860894Y-103864770D01*
X147650001Y-103843999D01*
X147273605Y-103843999D01*
X147127000Y-103697394D01*
X147127000Y-103264531D01*
X147915074Y-103264531D01*
X148025921Y-103541714D01*
X148336840Y-103695089D01*
X148671705Y-103784860D01*
X149017650Y-103807576D01*
X149361380Y-103762366D01*
X149689685Y-103650966D01*
X149894079Y-103541714D01*
X150004926Y-103264531D01*
X152995074Y-103264531D01*
X153105921Y-103541714D01*
X153416840Y-103695089D01*
X153751705Y-103784860D01*
X154097650Y-103807576D01*
X154441380Y-103762366D01*
X154769685Y-103650966D01*
X154974079Y-103541714D01*
X155084926Y-103264531D01*
X154040000Y-102219605D01*
X152995074Y-103264531D01*
X150004926Y-103264531D01*
X148960000Y-102219605D01*
X147915074Y-103264531D01*
X147127000Y-103264531D01*
X147127000Y-102097650D01*
X147192424Y-102097650D01*
X147237634Y-102441380D01*
X147349034Y-102769685D01*
X147458286Y-102974079D01*
X147735469Y-103084926D01*
X148780395Y-102040000D01*
X147735469Y-100995074D01*
X147458286Y-101105921D01*
X147304911Y-101416840D01*
X147215140Y-101751705D01*
X147192424Y-102097650D01*
X147127000Y-102097650D01*
X147127000Y-98184531D01*
X147915074Y-98184531D01*
X148025921Y-98461714D01*
X148336840Y-98615089D01*
X148671705Y-98704860D01*
X149017650Y-98727576D01*
X149361380Y-98682366D01*
X149689685Y-98570966D01*
X149894079Y-98461714D01*
X150004925Y-98184533D01*
X150100635Y-98280243D01*
X150061458Y-98319419D01*
X149858779Y-98622749D01*
X149719171Y-98959792D01*
X149648000Y-99317594D01*
X149648000Y-99682406D01*
X149719171Y-100040208D01*
X149858779Y-100377251D01*
X150061458Y-100680581D01*
X150100635Y-100719758D01*
X150004925Y-100815467D01*
X149894079Y-100538286D01*
X149583160Y-100384911D01*
X149248295Y-100295140D01*
X148902350Y-100272424D01*
X148558620Y-100317634D01*
X148230315Y-100429034D01*
X148025921Y-100538286D01*
X147915074Y-100815469D01*
X148960000Y-101860395D01*
X148974143Y-101846253D01*
X149153748Y-102025858D01*
X149139605Y-102040000D01*
X150184531Y-103084926D01*
X150461714Y-102974079D01*
X150615089Y-102663160D01*
X150704860Y-102328295D01*
X150727576Y-101982350D01*
X150682366Y-101638620D01*
X150570966Y-101310315D01*
X150461714Y-101105921D01*
X150184533Y-100995075D01*
X150280243Y-100899366D01*
X150319419Y-100938542D01*
X150622749Y-101141221D01*
X150959792Y-101280829D01*
X151317594Y-101352000D01*
X151682406Y-101352000D01*
X152040208Y-101280829D01*
X152377251Y-101141221D01*
X152680581Y-100938542D01*
X152719758Y-100899366D01*
X152815467Y-100995075D01*
X152538286Y-101105921D01*
X152384911Y-101416840D01*
X152295140Y-101751705D01*
X152272424Y-102097650D01*
X152317634Y-102441380D01*
X152429034Y-102769685D01*
X152538286Y-102974079D01*
X152815469Y-103084926D01*
X153860395Y-102040000D01*
X154219605Y-102040000D01*
X155264531Y-103084926D01*
X155541714Y-102974079D01*
X155695089Y-102663160D01*
X155784860Y-102328295D01*
X155807576Y-101982350D01*
X155762366Y-101638620D01*
X155650966Y-101310315D01*
X155541714Y-101105921D01*
X155264531Y-100995074D01*
X154219605Y-102040000D01*
X153860395Y-102040000D01*
X153846253Y-102025858D01*
X154025858Y-101846253D01*
X154040000Y-101860395D01*
X155084926Y-100815469D01*
X154974079Y-100538286D01*
X154663160Y-100384911D01*
X154328295Y-100295140D01*
X153982350Y-100272424D01*
X153638620Y-100317634D01*
X153310315Y-100429034D01*
X153105921Y-100538286D01*
X152995075Y-100815467D01*
X152899366Y-100719758D01*
X152938542Y-100680581D01*
X153141221Y-100377251D01*
X153280829Y-100040208D01*
X153352000Y-99682406D01*
X153352000Y-99317594D01*
X153280829Y-98959792D01*
X153141221Y-98622749D01*
X152938542Y-98319419D01*
X152899366Y-98280243D01*
X152995075Y-98184533D01*
X153105921Y-98461714D01*
X153416840Y-98615089D01*
X153751705Y-98704860D01*
X154097650Y-98727576D01*
X154441380Y-98682366D01*
X154769685Y-98570966D01*
X154974079Y-98461714D01*
X155084926Y-98184531D01*
X154040000Y-97139605D01*
X154025858Y-97153748D01*
X153846253Y-96974143D01*
X153860395Y-96960000D01*
X154219605Y-96960000D01*
X155264531Y-98004926D01*
X155541714Y-97894079D01*
X155695089Y-97583160D01*
X155784860Y-97248295D01*
X155807576Y-96902350D01*
X155762366Y-96558620D01*
X155650966Y-96230315D01*
X155541714Y-96025921D01*
X155264531Y-95915074D01*
X154219605Y-96960000D01*
X153860395Y-96960000D01*
X152815469Y-95915074D01*
X152577000Y-96010439D01*
X152577000Y-95735469D01*
X152995074Y-95735469D01*
X154040000Y-96780395D01*
X155084926Y-95735469D01*
X154974079Y-95458286D01*
X154663160Y-95304911D01*
X154328295Y-95215140D01*
X153982350Y-95192424D01*
X153638620Y-95237634D01*
X153310315Y-95349034D01*
X153105921Y-95458286D01*
X152995074Y-95735469D01*
X152577000Y-95735469D01*
X152577000Y-94668525D01*
X152592104Y-94703315D01*
X152924262Y-94869139D01*
X153282387Y-94966975D01*
X153652719Y-94993065D01*
X154021025Y-94946405D01*
X154373151Y-94828789D01*
X154607896Y-94703315D01*
X154733771Y-94413377D01*
X153600000Y-93279605D01*
X153585858Y-93293748D01*
X153406252Y-93114142D01*
X153420395Y-93100000D01*
X153779605Y-93100000D01*
X154913377Y-94233771D01*
X155203315Y-94107896D01*
X155369139Y-93775738D01*
X155466975Y-93417613D01*
X155493065Y-93047281D01*
X155446405Y-92678975D01*
X155328789Y-92326849D01*
X155203315Y-92092104D01*
X154913377Y-91966229D01*
X153779605Y-93100000D01*
X153420395Y-93100000D01*
X152286623Y-91966229D01*
X152060283Y-92064493D01*
X152040330Y-92016323D01*
X151886850Y-91786623D01*
X152466229Y-91786623D01*
X153600000Y-92920395D01*
X154733771Y-91786623D01*
X154607896Y-91496685D01*
X154275738Y-91330861D01*
X153917613Y-91233025D01*
X153547281Y-91206935D01*
X153178975Y-91253595D01*
X152826849Y-91371211D01*
X152592104Y-91496685D01*
X152466229Y-91786623D01*
X151886850Y-91786623D01*
X151813063Y-91676194D01*
X151523806Y-91386937D01*
X151183677Y-91159670D01*
X150805745Y-91003126D01*
X150404535Y-90923320D01*
X149995465Y-90923320D01*
X149594255Y-91003126D01*
X149216323Y-91159670D01*
X148876194Y-91386937D01*
X148586937Y-91676194D01*
X148359670Y-92016323D01*
X148203126Y-92394255D01*
X148123320Y-92795465D01*
X148123320Y-93204535D01*
X148203126Y-93605745D01*
X148359670Y-93983677D01*
X148586937Y-94323806D01*
X148876194Y-94613063D01*
X149216323Y-94840330D01*
X149594255Y-94996874D01*
X149995465Y-95076680D01*
X150404535Y-95076680D01*
X150423001Y-95073007D01*
X150423001Y-96010439D01*
X150184531Y-95915074D01*
X149139605Y-96960000D01*
X149153748Y-96974143D01*
X148974143Y-97153748D01*
X148960000Y-97139605D01*
X147915074Y-98184531D01*
X147127000Y-98184531D01*
X147127000Y-97017650D01*
X147192424Y-97017650D01*
X147237634Y-97361380D01*
X147349034Y-97689685D01*
X147458286Y-97894079D01*
X147735469Y-98004926D01*
X148780395Y-96960000D01*
X147735469Y-95915074D01*
X147458286Y-96025921D01*
X147304911Y-96336840D01*
X147215140Y-96671705D01*
X147192424Y-97017650D01*
X147127000Y-97017650D01*
X147127000Y-95735469D01*
X147915074Y-95735469D01*
X148960000Y-96780395D01*
X150004926Y-95735469D01*
X149894079Y-95458286D01*
X149583160Y-95304911D01*
X149248295Y-95215140D01*
X148902350Y-95192424D01*
X148558620Y-95237634D01*
X148230315Y-95349034D01*
X148025921Y-95458286D01*
X147915074Y-95735469D01*
X147127000Y-95735469D01*
X147127000Y-90852000D01*
X155873000Y-90852000D01*
X155873000Y-103697394D01*
G37*
G04 #@! TD.AperFunction*
D32*
X149510590Y-108144059D02*
X149593468Y-108245046D01*
X149593471Y-108245049D01*
X149621184Y-108278817D01*
X149654951Y-108306529D01*
X149721649Y-108373227D01*
X149583160Y-108304911D01*
X149248295Y-108215140D01*
X148902350Y-108192424D01*
X148558620Y-108237634D01*
X148230315Y-108349034D01*
X148025921Y-108458286D01*
X147915074Y-108735469D01*
X148960000Y-109780395D01*
X148974143Y-109766253D01*
X149153748Y-109945858D01*
X149139605Y-109960000D01*
X150184531Y-111004926D01*
X150461714Y-110894079D01*
X150615000Y-110583339D01*
X150615001Y-111094873D01*
X150441812Y-111210594D01*
X150210594Y-111441812D01*
X150028927Y-111713695D01*
X149903793Y-112015796D01*
X149840000Y-112336504D01*
X149840000Y-112663496D01*
X149903793Y-112984204D01*
X150028927Y-113286305D01*
X150210594Y-113558188D01*
X150441812Y-113789406D01*
X150713695Y-113971073D01*
X151015796Y-114096207D01*
X151336504Y-114160000D01*
X151663496Y-114160000D01*
X151984204Y-114096207D01*
X152286305Y-113971073D01*
X152519182Y-113815469D01*
X152995074Y-113815469D01*
X154040000Y-114860395D01*
X155084926Y-113815469D01*
X154974079Y-113538286D01*
X154663160Y-113384911D01*
X154328295Y-113295140D01*
X153982350Y-113272424D01*
X153638620Y-113317634D01*
X153310315Y-113429034D01*
X153105921Y-113538286D01*
X152995074Y-113815469D01*
X152519182Y-113815469D01*
X152558188Y-113789406D01*
X152789406Y-113558188D01*
X152971073Y-113286305D01*
X153096207Y-112984204D01*
X153160000Y-112663496D01*
X153160000Y-112336504D01*
X153096207Y-112015796D01*
X152971073Y-111713695D01*
X152789406Y-111441812D01*
X152558188Y-111210594D01*
X152519183Y-111184531D01*
X152995074Y-111184531D01*
X153105921Y-111461714D01*
X153416840Y-111615089D01*
X153751705Y-111704860D01*
X154097650Y-111727576D01*
X154441380Y-111682366D01*
X154769685Y-111570966D01*
X154974079Y-111461714D01*
X155084926Y-111184531D01*
X154040000Y-110139605D01*
X152995074Y-111184531D01*
X152519183Y-111184531D01*
X152385000Y-111094873D01*
X152385000Y-110559913D01*
X152429034Y-110689685D01*
X152538286Y-110894079D01*
X152815469Y-111004926D01*
X153860395Y-109960000D01*
X154219605Y-109960000D01*
X155264531Y-111004926D01*
X155541714Y-110894079D01*
X155695089Y-110583160D01*
X155784860Y-110248295D01*
X155807576Y-109902350D01*
X155762366Y-109558620D01*
X155650966Y-109230315D01*
X155541714Y-109025921D01*
X155264531Y-108915074D01*
X154219605Y-109960000D01*
X153860395Y-109960000D01*
X152815469Y-108915074D01*
X152538286Y-109025921D01*
X152385000Y-109336660D01*
X152385000Y-108943469D01*
X152389281Y-108900000D01*
X152385000Y-108856531D01*
X152385000Y-108856523D01*
X152373078Y-108735469D01*
X152995074Y-108735469D01*
X154040000Y-109780395D01*
X155084926Y-108735469D01*
X154974079Y-108458286D01*
X154663160Y-108304911D01*
X154328295Y-108215140D01*
X153982350Y-108192424D01*
X153638620Y-108237634D01*
X153310315Y-108349034D01*
X153105921Y-108458286D01*
X152995074Y-108735469D01*
X152373078Y-108735469D01*
X152372195Y-108726510D01*
X152321589Y-108559687D01*
X152239411Y-108405941D01*
X152128817Y-108271183D01*
X152095050Y-108243471D01*
X151978579Y-108127000D01*
X155697394Y-108127000D01*
X155873000Y-108302606D01*
X155873000Y-116697394D01*
X155697394Y-116873000D01*
X147302606Y-116873000D01*
X147127000Y-116697394D01*
X147127000Y-116264531D01*
X147915074Y-116264531D01*
X148025921Y-116541714D01*
X148336840Y-116695089D01*
X148671705Y-116784860D01*
X149017650Y-116807576D01*
X149361380Y-116762366D01*
X149689685Y-116650966D01*
X149894079Y-116541714D01*
X150004926Y-116264531D01*
X152995074Y-116264531D01*
X153105921Y-116541714D01*
X153416840Y-116695089D01*
X153751705Y-116784860D01*
X154097650Y-116807576D01*
X154441380Y-116762366D01*
X154769685Y-116650966D01*
X154974079Y-116541714D01*
X155084926Y-116264531D01*
X154040000Y-115219605D01*
X152995074Y-116264531D01*
X150004926Y-116264531D01*
X148960000Y-115219605D01*
X147915074Y-116264531D01*
X147127000Y-116264531D01*
X147127000Y-115097650D01*
X147192424Y-115097650D01*
X147237634Y-115441380D01*
X147349034Y-115769685D01*
X147458286Y-115974079D01*
X147735469Y-116084926D01*
X148780395Y-115040000D01*
X149139605Y-115040000D01*
X150184531Y-116084926D01*
X150461714Y-115974079D01*
X150615089Y-115663160D01*
X150704860Y-115328295D01*
X150720004Y-115097650D01*
X152272424Y-115097650D01*
X152317634Y-115441380D01*
X152429034Y-115769685D01*
X152538286Y-115974079D01*
X152815469Y-116084926D01*
X153860395Y-115040000D01*
X154219605Y-115040000D01*
X155264531Y-116084926D01*
X155541714Y-115974079D01*
X155695089Y-115663160D01*
X155784860Y-115328295D01*
X155807576Y-114982350D01*
X155762366Y-114638620D01*
X155650966Y-114310315D01*
X155541714Y-114105921D01*
X155264531Y-113995074D01*
X154219605Y-115040000D01*
X153860395Y-115040000D01*
X152815469Y-113995074D01*
X152538286Y-114105921D01*
X152384911Y-114416840D01*
X152295140Y-114751705D01*
X152272424Y-115097650D01*
X150720004Y-115097650D01*
X150727576Y-114982350D01*
X150682366Y-114638620D01*
X150570966Y-114310315D01*
X150461714Y-114105921D01*
X150184531Y-113995074D01*
X149139605Y-115040000D01*
X148780395Y-115040000D01*
X147735469Y-113995074D01*
X147458286Y-114105921D01*
X147304911Y-114416840D01*
X147215140Y-114751705D01*
X147192424Y-115097650D01*
X147127000Y-115097650D01*
X147127000Y-113815469D01*
X147915074Y-113815469D01*
X148960000Y-114860395D01*
X150004926Y-113815469D01*
X149894079Y-113538286D01*
X149583160Y-113384911D01*
X149248295Y-113295140D01*
X148902350Y-113272424D01*
X148558620Y-113317634D01*
X148230315Y-113429034D01*
X148025921Y-113538286D01*
X147915074Y-113815469D01*
X147127000Y-113815469D01*
X147127000Y-111184531D01*
X147915074Y-111184531D01*
X148025921Y-111461714D01*
X148336840Y-111615089D01*
X148671705Y-111704860D01*
X149017650Y-111727576D01*
X149361380Y-111682366D01*
X149689685Y-111570966D01*
X149894079Y-111461714D01*
X150004926Y-111184531D01*
X148960000Y-110139605D01*
X147915074Y-111184531D01*
X147127000Y-111184531D01*
X147127000Y-110017650D01*
X147192424Y-110017650D01*
X147237634Y-110361380D01*
X147349034Y-110689685D01*
X147458286Y-110894079D01*
X147735469Y-111004926D01*
X148780395Y-109960000D01*
X147735469Y-108915074D01*
X147458286Y-109025921D01*
X147304911Y-109336840D01*
X147215140Y-109671705D01*
X147192424Y-110017650D01*
X147127000Y-110017650D01*
X147127000Y-108302606D01*
X147302606Y-108127000D01*
X149501472Y-108127000D01*
X149510590Y-108144059D01*
G04 #@! TA.AperFunction,Conductor*
D33*
G36*
X149510590Y-108144059D02*
G01*
X149593468Y-108245046D01*
X149593471Y-108245049D01*
X149621184Y-108278817D01*
X149654951Y-108306529D01*
X149721649Y-108373227D01*
X149583160Y-108304911D01*
X149248295Y-108215140D01*
X148902350Y-108192424D01*
X148558620Y-108237634D01*
X148230315Y-108349034D01*
X148025921Y-108458286D01*
X147915074Y-108735469D01*
X148960000Y-109780395D01*
X148974143Y-109766253D01*
X149153748Y-109945858D01*
X149139605Y-109960000D01*
X150184531Y-111004926D01*
X150461714Y-110894079D01*
X150615000Y-110583339D01*
X150615001Y-111094873D01*
X150441812Y-111210594D01*
X150210594Y-111441812D01*
X150028927Y-111713695D01*
X149903793Y-112015796D01*
X149840000Y-112336504D01*
X149840000Y-112663496D01*
X149903793Y-112984204D01*
X150028927Y-113286305D01*
X150210594Y-113558188D01*
X150441812Y-113789406D01*
X150713695Y-113971073D01*
X151015796Y-114096207D01*
X151336504Y-114160000D01*
X151663496Y-114160000D01*
X151984204Y-114096207D01*
X152286305Y-113971073D01*
X152519182Y-113815469D01*
X152995074Y-113815469D01*
X154040000Y-114860395D01*
X155084926Y-113815469D01*
X154974079Y-113538286D01*
X154663160Y-113384911D01*
X154328295Y-113295140D01*
X153982350Y-113272424D01*
X153638620Y-113317634D01*
X153310315Y-113429034D01*
X153105921Y-113538286D01*
X152995074Y-113815469D01*
X152519182Y-113815469D01*
X152558188Y-113789406D01*
X152789406Y-113558188D01*
X152971073Y-113286305D01*
X153096207Y-112984204D01*
X153160000Y-112663496D01*
X153160000Y-112336504D01*
X153096207Y-112015796D01*
X152971073Y-111713695D01*
X152789406Y-111441812D01*
X152558188Y-111210594D01*
X152519183Y-111184531D01*
X152995074Y-111184531D01*
X153105921Y-111461714D01*
X153416840Y-111615089D01*
X153751705Y-111704860D01*
X154097650Y-111727576D01*
X154441380Y-111682366D01*
X154769685Y-111570966D01*
X154974079Y-111461714D01*
X155084926Y-111184531D01*
X154040000Y-110139605D01*
X152995074Y-111184531D01*
X152519183Y-111184531D01*
X152385000Y-111094873D01*
X152385000Y-110559913D01*
X152429034Y-110689685D01*
X152538286Y-110894079D01*
X152815469Y-111004926D01*
X153860395Y-109960000D01*
X154219605Y-109960000D01*
X155264531Y-111004926D01*
X155541714Y-110894079D01*
X155695089Y-110583160D01*
X155784860Y-110248295D01*
X155807576Y-109902350D01*
X155762366Y-109558620D01*
X155650966Y-109230315D01*
X155541714Y-109025921D01*
X155264531Y-108915074D01*
X154219605Y-109960000D01*
X153860395Y-109960000D01*
X152815469Y-108915074D01*
X152538286Y-109025921D01*
X152385000Y-109336660D01*
X152385000Y-108943469D01*
X152389281Y-108900000D01*
X152385000Y-108856531D01*
X152385000Y-108856523D01*
X152373078Y-108735469D01*
X152995074Y-108735469D01*
X154040000Y-109780395D01*
X155084926Y-108735469D01*
X154974079Y-108458286D01*
X154663160Y-108304911D01*
X154328295Y-108215140D01*
X153982350Y-108192424D01*
X153638620Y-108237634D01*
X153310315Y-108349034D01*
X153105921Y-108458286D01*
X152995074Y-108735469D01*
X152373078Y-108735469D01*
X152372195Y-108726510D01*
X152321589Y-108559687D01*
X152239411Y-108405941D01*
X152128817Y-108271183D01*
X152095050Y-108243471D01*
X151978579Y-108127000D01*
X155697394Y-108127000D01*
X155873000Y-108302606D01*
X155873000Y-116697394D01*
X155697394Y-116873000D01*
X147302606Y-116873000D01*
X147127000Y-116697394D01*
X147127000Y-116264531D01*
X147915074Y-116264531D01*
X148025921Y-116541714D01*
X148336840Y-116695089D01*
X148671705Y-116784860D01*
X149017650Y-116807576D01*
X149361380Y-116762366D01*
X149689685Y-116650966D01*
X149894079Y-116541714D01*
X150004926Y-116264531D01*
X152995074Y-116264531D01*
X153105921Y-116541714D01*
X153416840Y-116695089D01*
X153751705Y-116784860D01*
X154097650Y-116807576D01*
X154441380Y-116762366D01*
X154769685Y-116650966D01*
X154974079Y-116541714D01*
X155084926Y-116264531D01*
X154040000Y-115219605D01*
X152995074Y-116264531D01*
X150004926Y-116264531D01*
X148960000Y-115219605D01*
X147915074Y-116264531D01*
X147127000Y-116264531D01*
X147127000Y-115097650D01*
X147192424Y-115097650D01*
X147237634Y-115441380D01*
X147349034Y-115769685D01*
X147458286Y-115974079D01*
X147735469Y-116084926D01*
X148780395Y-115040000D01*
X149139605Y-115040000D01*
X150184531Y-116084926D01*
X150461714Y-115974079D01*
X150615089Y-115663160D01*
X150704860Y-115328295D01*
X150720004Y-115097650D01*
X152272424Y-115097650D01*
X152317634Y-115441380D01*
X152429034Y-115769685D01*
X152538286Y-115974079D01*
X152815469Y-116084926D01*
X153860395Y-115040000D01*
X154219605Y-115040000D01*
X155264531Y-116084926D01*
X155541714Y-115974079D01*
X155695089Y-115663160D01*
X155784860Y-115328295D01*
X155807576Y-114982350D01*
X155762366Y-114638620D01*
X155650966Y-114310315D01*
X155541714Y-114105921D01*
X155264531Y-113995074D01*
X154219605Y-115040000D01*
X153860395Y-115040000D01*
X152815469Y-113995074D01*
X152538286Y-114105921D01*
X152384911Y-114416840D01*
X152295140Y-114751705D01*
X152272424Y-115097650D01*
X150720004Y-115097650D01*
X150727576Y-114982350D01*
X150682366Y-114638620D01*
X150570966Y-114310315D01*
X150461714Y-114105921D01*
X150184531Y-113995074D01*
X149139605Y-115040000D01*
X148780395Y-115040000D01*
X147735469Y-113995074D01*
X147458286Y-114105921D01*
X147304911Y-114416840D01*
X147215140Y-114751705D01*
X147192424Y-115097650D01*
X147127000Y-115097650D01*
X147127000Y-113815469D01*
X147915074Y-113815469D01*
X148960000Y-114860395D01*
X150004926Y-113815469D01*
X149894079Y-113538286D01*
X149583160Y-113384911D01*
X149248295Y-113295140D01*
X148902350Y-113272424D01*
X148558620Y-113317634D01*
X148230315Y-113429034D01*
X148025921Y-113538286D01*
X147915074Y-113815469D01*
X147127000Y-113815469D01*
X147127000Y-111184531D01*
X147915074Y-111184531D01*
X148025921Y-111461714D01*
X148336840Y-111615089D01*
X148671705Y-111704860D01*
X149017650Y-111727576D01*
X149361380Y-111682366D01*
X149689685Y-111570966D01*
X149894079Y-111461714D01*
X150004926Y-111184531D01*
X148960000Y-110139605D01*
X147915074Y-111184531D01*
X147127000Y-111184531D01*
X147127000Y-110017650D01*
X147192424Y-110017650D01*
X147237634Y-110361380D01*
X147349034Y-110689685D01*
X147458286Y-110894079D01*
X147735469Y-111004926D01*
X148780395Y-109960000D01*
X147735469Y-108915074D01*
X147458286Y-109025921D01*
X147304911Y-109336840D01*
X147215140Y-109671705D01*
X147192424Y-110017650D01*
X147127000Y-110017650D01*
X147127000Y-108302606D01*
X147302606Y-108127000D01*
X149501472Y-108127000D01*
X149510590Y-108144059D01*
G37*
G04 #@! TD.AperFunction*
D31*
X127567087Y-98200590D02*
X127699410Y-98332913D01*
X127855006Y-98436879D01*
X128027895Y-98508492D01*
X128211433Y-98545000D01*
X128398567Y-98545000D01*
X128582105Y-98508492D01*
X128754994Y-98436879D01*
X128910590Y-98332913D01*
X129042913Y-98200590D01*
X129110125Y-98100000D01*
X129404875Y-98100000D01*
X129472087Y-98200590D01*
X129604410Y-98332913D01*
X129760006Y-98436879D01*
X129932895Y-98508492D01*
X130116433Y-98545000D01*
X130303567Y-98545000D01*
X130487105Y-98508492D01*
X130659994Y-98436879D01*
X130815590Y-98332913D01*
X130947913Y-98200590D01*
X131015125Y-98100000D01*
X131309875Y-98100000D01*
X131377087Y-98200590D01*
X131509410Y-98332913D01*
X131560049Y-98366749D01*
X131536256Y-98376180D01*
X131502112Y-98394431D01*
X131445106Y-98612317D01*
X132115000Y-99282211D01*
X132129142Y-99268069D01*
X132346931Y-99485858D01*
X132332789Y-99500000D01*
X133002683Y-100169894D01*
X133220569Y-100112888D01*
X133246650Y-100052554D01*
X133282087Y-100105590D01*
X133400000Y-100223503D01*
X133400000Y-100681497D01*
X133282087Y-100799410D01*
X133178121Y-100955006D01*
X133106508Y-101127895D01*
X133070000Y-101311433D01*
X133070000Y-101498567D01*
X133106508Y-101682105D01*
X133178121Y-101854994D01*
X133282087Y-102010590D01*
X133400000Y-102128503D01*
X133400000Y-102458578D01*
X132958578Y-102900000D01*
X125541422Y-102900000D01*
X125100000Y-102458578D01*
X125100000Y-102143307D01*
X125100590Y-102142913D01*
X125232913Y-102010590D01*
X125336879Y-101854994D01*
X125408492Y-101682105D01*
X125445000Y-101498567D01*
X125445000Y-101311433D01*
X125450000Y-101311433D01*
X125450000Y-101498567D01*
X125486508Y-101682105D01*
X125558121Y-101854994D01*
X125662087Y-102010590D01*
X125794410Y-102142913D01*
X125950006Y-102246879D01*
X126122895Y-102318492D01*
X126306433Y-102355000D01*
X126493567Y-102355000D01*
X126677105Y-102318492D01*
X126849994Y-102246879D01*
X127005590Y-102142913D01*
X127137913Y-102010590D01*
X127241879Y-101854994D01*
X127313492Y-101682105D01*
X127350000Y-101498567D01*
X127350000Y-101311433D01*
X127355000Y-101311433D01*
X127355000Y-101498567D01*
X127391508Y-101682105D01*
X127463121Y-101854994D01*
X127567087Y-102010590D01*
X127699410Y-102142913D01*
X127855006Y-102246879D01*
X128027895Y-102318492D01*
X128211433Y-102355000D01*
X128398567Y-102355000D01*
X128582105Y-102318492D01*
X128754994Y-102246879D01*
X128910590Y-102142913D01*
X129042913Y-102010590D01*
X129146879Y-101854994D01*
X129218492Y-101682105D01*
X129255000Y-101498567D01*
X129255000Y-101311433D01*
X129260000Y-101311433D01*
X129260000Y-101498567D01*
X129296508Y-101682105D01*
X129368121Y-101854994D01*
X129472087Y-102010590D01*
X129604410Y-102142913D01*
X129760006Y-102246879D01*
X129932895Y-102318492D01*
X130116433Y-102355000D01*
X130303567Y-102355000D01*
X130487105Y-102318492D01*
X130659994Y-102246879D01*
X130815590Y-102142913D01*
X130947913Y-102010590D01*
X131051879Y-101854994D01*
X131123492Y-101682105D01*
X131160000Y-101498567D01*
X131160000Y-101311433D01*
X131165000Y-101311433D01*
X131165000Y-101498567D01*
X131201508Y-101682105D01*
X131273121Y-101854994D01*
X131377087Y-102010590D01*
X131509410Y-102142913D01*
X131665006Y-102246879D01*
X131837895Y-102318492D01*
X132021433Y-102355000D01*
X132208567Y-102355000D01*
X132392105Y-102318492D01*
X132564994Y-102246879D01*
X132720590Y-102142913D01*
X132852913Y-102010590D01*
X132956879Y-101854994D01*
X133028492Y-101682105D01*
X133065000Y-101498567D01*
X133065000Y-101311433D01*
X133028492Y-101127895D01*
X132956879Y-100955006D01*
X132852913Y-100799410D01*
X132720590Y-100667087D01*
X132669951Y-100633251D01*
X132693744Y-100623820D01*
X132727888Y-100605569D01*
X132784894Y-100387683D01*
X132115000Y-99717789D01*
X131445106Y-100387683D01*
X131502112Y-100605569D01*
X131562446Y-100631650D01*
X131509410Y-100667087D01*
X131377087Y-100799410D01*
X131273121Y-100955006D01*
X131201508Y-101127895D01*
X131165000Y-101311433D01*
X131160000Y-101311433D01*
X131123492Y-101127895D01*
X131051879Y-100955006D01*
X130947913Y-100799410D01*
X130815590Y-100667087D01*
X130659994Y-100563121D01*
X130487105Y-100491508D01*
X130303567Y-100455000D01*
X130116433Y-100455000D01*
X129932895Y-100491508D01*
X129760006Y-100563121D01*
X129604410Y-100667087D01*
X129472087Y-100799410D01*
X129368121Y-100955006D01*
X129296508Y-101127895D01*
X129260000Y-101311433D01*
X129255000Y-101311433D01*
X129218492Y-101127895D01*
X129146879Y-100955006D01*
X129042913Y-100799410D01*
X128910590Y-100667087D01*
X128754994Y-100563121D01*
X128582105Y-100491508D01*
X128398567Y-100455000D01*
X128211433Y-100455000D01*
X128027895Y-100491508D01*
X127855006Y-100563121D01*
X127699410Y-100667087D01*
X127567087Y-100799410D01*
X127463121Y-100955006D01*
X127391508Y-101127895D01*
X127355000Y-101311433D01*
X127350000Y-101311433D01*
X127313492Y-101127895D01*
X127241879Y-100955006D01*
X127137913Y-100799410D01*
X127005590Y-100667087D01*
X126954951Y-100633251D01*
X126978744Y-100623820D01*
X127012888Y-100605569D01*
X127069894Y-100387683D01*
X126400000Y-99717789D01*
X125730106Y-100387683D01*
X125787112Y-100605569D01*
X125847446Y-100631650D01*
X125794410Y-100667087D01*
X125662087Y-100799410D01*
X125558121Y-100955006D01*
X125486508Y-101127895D01*
X125450000Y-101311433D01*
X125445000Y-101311433D01*
X125408492Y-101127895D01*
X125336879Y-100955006D01*
X125232913Y-100799410D01*
X125100590Y-100667087D01*
X125100000Y-100666693D01*
X125100000Y-100238307D01*
X125100590Y-100237913D01*
X125232913Y-100105590D01*
X125266749Y-100054951D01*
X125276180Y-100078744D01*
X125294431Y-100112888D01*
X125512317Y-100169894D01*
X126182211Y-99500000D01*
X126617789Y-99500000D01*
X127287683Y-100169894D01*
X127505569Y-100112888D01*
X127531650Y-100052554D01*
X127567087Y-100105590D01*
X127699410Y-100237913D01*
X127855006Y-100341879D01*
X128027895Y-100413492D01*
X128211433Y-100450000D01*
X128398567Y-100450000D01*
X128582105Y-100413492D01*
X128754994Y-100341879D01*
X128910590Y-100237913D01*
X129042913Y-100105590D01*
X129146879Y-99949994D01*
X129218492Y-99777105D01*
X129255000Y-99593567D01*
X129255000Y-99406433D01*
X129260000Y-99406433D01*
X129260000Y-99593567D01*
X129296508Y-99777105D01*
X129368121Y-99949994D01*
X129472087Y-100105590D01*
X129604410Y-100237913D01*
X129760006Y-100341879D01*
X129932895Y-100413492D01*
X130116433Y-100450000D01*
X130303567Y-100450000D01*
X130487105Y-100413492D01*
X130659994Y-100341879D01*
X130815590Y-100237913D01*
X130947913Y-100105590D01*
X130981749Y-100054951D01*
X130991180Y-100078744D01*
X131009431Y-100112888D01*
X131227317Y-100169894D01*
X131897211Y-99500000D01*
X131227317Y-98830106D01*
X131009431Y-98887112D01*
X130983350Y-98947446D01*
X130947913Y-98894410D01*
X130815590Y-98762087D01*
X130659994Y-98658121D01*
X130487105Y-98586508D01*
X130303567Y-98550000D01*
X130116433Y-98550000D01*
X129932895Y-98586508D01*
X129760006Y-98658121D01*
X129604410Y-98762087D01*
X129472087Y-98894410D01*
X129368121Y-99050006D01*
X129296508Y-99222895D01*
X129260000Y-99406433D01*
X129255000Y-99406433D01*
X129218492Y-99222895D01*
X129146879Y-99050006D01*
X129042913Y-98894410D01*
X128910590Y-98762087D01*
X128754994Y-98658121D01*
X128582105Y-98586508D01*
X128398567Y-98550000D01*
X128211433Y-98550000D01*
X128027895Y-98586508D01*
X127855006Y-98658121D01*
X127699410Y-98762087D01*
X127567087Y-98894410D01*
X127533251Y-98945049D01*
X127523820Y-98921256D01*
X127505569Y-98887112D01*
X127287683Y-98830106D01*
X126617789Y-99500000D01*
X126182211Y-99500000D01*
X126168069Y-99485858D01*
X126385858Y-99268069D01*
X126400000Y-99282211D01*
X127069894Y-98612317D01*
X127012888Y-98394431D01*
X126952554Y-98368350D01*
X127005590Y-98332913D01*
X127137913Y-98200590D01*
X127205125Y-98100000D01*
X127499875Y-98100000D01*
X127567087Y-98200590D01*
G04 #@! TA.AperFunction,Conductor*
D33*
G36*
X127567087Y-98200590D02*
G01*
X127699410Y-98332913D01*
X127855006Y-98436879D01*
X128027895Y-98508492D01*
X128211433Y-98545000D01*
X128398567Y-98545000D01*
X128582105Y-98508492D01*
X128754994Y-98436879D01*
X128910590Y-98332913D01*
X129042913Y-98200590D01*
X129110125Y-98100000D01*
X129404875Y-98100000D01*
X129472087Y-98200590D01*
X129604410Y-98332913D01*
X129760006Y-98436879D01*
X129932895Y-98508492D01*
X130116433Y-98545000D01*
X130303567Y-98545000D01*
X130487105Y-98508492D01*
X130659994Y-98436879D01*
X130815590Y-98332913D01*
X130947913Y-98200590D01*
X131015125Y-98100000D01*
X131309875Y-98100000D01*
X131377087Y-98200590D01*
X131509410Y-98332913D01*
X131560049Y-98366749D01*
X131536256Y-98376180D01*
X131502112Y-98394431D01*
X131445106Y-98612317D01*
X132115000Y-99282211D01*
X132129142Y-99268069D01*
X132346931Y-99485858D01*
X132332789Y-99500000D01*
X133002683Y-100169894D01*
X133220569Y-100112888D01*
X133246650Y-100052554D01*
X133282087Y-100105590D01*
X133400000Y-100223503D01*
X133400000Y-100681497D01*
X133282087Y-100799410D01*
X133178121Y-100955006D01*
X133106508Y-101127895D01*
X133070000Y-101311433D01*
X133070000Y-101498567D01*
X133106508Y-101682105D01*
X133178121Y-101854994D01*
X133282087Y-102010590D01*
X133400000Y-102128503D01*
X133400000Y-102458578D01*
X132958578Y-102900000D01*
X125541422Y-102900000D01*
X125100000Y-102458578D01*
X125100000Y-102143307D01*
X125100590Y-102142913D01*
X125232913Y-102010590D01*
X125336879Y-101854994D01*
X125408492Y-101682105D01*
X125445000Y-101498567D01*
X125445000Y-101311433D01*
X125450000Y-101311433D01*
X125450000Y-101498567D01*
X125486508Y-101682105D01*
X125558121Y-101854994D01*
X125662087Y-102010590D01*
X125794410Y-102142913D01*
X125950006Y-102246879D01*
X126122895Y-102318492D01*
X126306433Y-102355000D01*
X126493567Y-102355000D01*
X126677105Y-102318492D01*
X126849994Y-102246879D01*
X127005590Y-102142913D01*
X127137913Y-102010590D01*
X127241879Y-101854994D01*
X127313492Y-101682105D01*
X127350000Y-101498567D01*
X127350000Y-101311433D01*
X127355000Y-101311433D01*
X127355000Y-101498567D01*
X127391508Y-101682105D01*
X127463121Y-101854994D01*
X127567087Y-102010590D01*
X127699410Y-102142913D01*
X127855006Y-102246879D01*
X128027895Y-102318492D01*
X128211433Y-102355000D01*
X128398567Y-102355000D01*
X128582105Y-102318492D01*
X128754994Y-102246879D01*
X128910590Y-102142913D01*
X129042913Y-102010590D01*
X129146879Y-101854994D01*
X129218492Y-101682105D01*
X129255000Y-101498567D01*
X129255000Y-101311433D01*
X129260000Y-101311433D01*
X129260000Y-101498567D01*
X129296508Y-101682105D01*
X129368121Y-101854994D01*
X129472087Y-102010590D01*
X129604410Y-102142913D01*
X129760006Y-102246879D01*
X129932895Y-102318492D01*
X130116433Y-102355000D01*
X130303567Y-102355000D01*
X130487105Y-102318492D01*
X130659994Y-102246879D01*
X130815590Y-102142913D01*
X130947913Y-102010590D01*
X131051879Y-101854994D01*
X131123492Y-101682105D01*
X131160000Y-101498567D01*
X131160000Y-101311433D01*
X131165000Y-101311433D01*
X131165000Y-101498567D01*
X131201508Y-101682105D01*
X131273121Y-101854994D01*
X131377087Y-102010590D01*
X131509410Y-102142913D01*
X131665006Y-102246879D01*
X131837895Y-102318492D01*
X132021433Y-102355000D01*
X132208567Y-102355000D01*
X132392105Y-102318492D01*
X132564994Y-102246879D01*
X132720590Y-102142913D01*
X132852913Y-102010590D01*
X132956879Y-101854994D01*
X133028492Y-101682105D01*
X133065000Y-101498567D01*
X133065000Y-101311433D01*
X133028492Y-101127895D01*
X132956879Y-100955006D01*
X132852913Y-100799410D01*
X132720590Y-100667087D01*
X132669951Y-100633251D01*
X132693744Y-100623820D01*
X132727888Y-100605569D01*
X132784894Y-100387683D01*
X132115000Y-99717789D01*
X131445106Y-100387683D01*
X131502112Y-100605569D01*
X131562446Y-100631650D01*
X131509410Y-100667087D01*
X131377087Y-100799410D01*
X131273121Y-100955006D01*
X131201508Y-101127895D01*
X131165000Y-101311433D01*
X131160000Y-101311433D01*
X131123492Y-101127895D01*
X131051879Y-100955006D01*
X130947913Y-100799410D01*
X130815590Y-100667087D01*
X130659994Y-100563121D01*
X130487105Y-100491508D01*
X130303567Y-100455000D01*
X130116433Y-100455000D01*
X129932895Y-100491508D01*
X129760006Y-100563121D01*
X129604410Y-100667087D01*
X129472087Y-100799410D01*
X129368121Y-100955006D01*
X129296508Y-101127895D01*
X129260000Y-101311433D01*
X129255000Y-101311433D01*
X129218492Y-101127895D01*
X129146879Y-100955006D01*
X129042913Y-100799410D01*
X128910590Y-100667087D01*
X128754994Y-100563121D01*
X128582105Y-100491508D01*
X128398567Y-100455000D01*
X128211433Y-100455000D01*
X128027895Y-100491508D01*
X127855006Y-100563121D01*
X127699410Y-100667087D01*
X127567087Y-100799410D01*
X127463121Y-100955006D01*
X127391508Y-101127895D01*
X127355000Y-101311433D01*
X127350000Y-101311433D01*
X127313492Y-101127895D01*
X127241879Y-100955006D01*
X127137913Y-100799410D01*
X127005590Y-100667087D01*
X126954951Y-100633251D01*
X126978744Y-100623820D01*
X127012888Y-100605569D01*
X127069894Y-100387683D01*
X126400000Y-99717789D01*
X125730106Y-100387683D01*
X125787112Y-100605569D01*
X125847446Y-100631650D01*
X125794410Y-100667087D01*
X125662087Y-100799410D01*
X125558121Y-100955006D01*
X125486508Y-101127895D01*
X125450000Y-101311433D01*
X125445000Y-101311433D01*
X125408492Y-101127895D01*
X125336879Y-100955006D01*
X125232913Y-100799410D01*
X125100590Y-100667087D01*
X125100000Y-100666693D01*
X125100000Y-100238307D01*
X125100590Y-100237913D01*
X125232913Y-100105590D01*
X125266749Y-100054951D01*
X125276180Y-100078744D01*
X125294431Y-100112888D01*
X125512317Y-100169894D01*
X126182211Y-99500000D01*
X126617789Y-99500000D01*
X127287683Y-100169894D01*
X127505569Y-100112888D01*
X127531650Y-100052554D01*
X127567087Y-100105590D01*
X127699410Y-100237913D01*
X127855006Y-100341879D01*
X128027895Y-100413492D01*
X128211433Y-100450000D01*
X128398567Y-100450000D01*
X128582105Y-100413492D01*
X128754994Y-100341879D01*
X128910590Y-100237913D01*
X129042913Y-100105590D01*
X129146879Y-99949994D01*
X129218492Y-99777105D01*
X129255000Y-99593567D01*
X129255000Y-99406433D01*
X129260000Y-99406433D01*
X129260000Y-99593567D01*
X129296508Y-99777105D01*
X129368121Y-99949994D01*
X129472087Y-100105590D01*
X129604410Y-100237913D01*
X129760006Y-100341879D01*
X129932895Y-100413492D01*
X130116433Y-100450000D01*
X130303567Y-100450000D01*
X130487105Y-100413492D01*
X130659994Y-100341879D01*
X130815590Y-100237913D01*
X130947913Y-100105590D01*
X130981749Y-100054951D01*
X130991180Y-100078744D01*
X131009431Y-100112888D01*
X131227317Y-100169894D01*
X131897211Y-99500000D01*
X131227317Y-98830106D01*
X131009431Y-98887112D01*
X130983350Y-98947446D01*
X130947913Y-98894410D01*
X130815590Y-98762087D01*
X130659994Y-98658121D01*
X130487105Y-98586508D01*
X130303567Y-98550000D01*
X130116433Y-98550000D01*
X129932895Y-98586508D01*
X129760006Y-98658121D01*
X129604410Y-98762087D01*
X129472087Y-98894410D01*
X129368121Y-99050006D01*
X129296508Y-99222895D01*
X129260000Y-99406433D01*
X129255000Y-99406433D01*
X129218492Y-99222895D01*
X129146879Y-99050006D01*
X129042913Y-98894410D01*
X128910590Y-98762087D01*
X128754994Y-98658121D01*
X128582105Y-98586508D01*
X128398567Y-98550000D01*
X128211433Y-98550000D01*
X128027895Y-98586508D01*
X127855006Y-98658121D01*
X127699410Y-98762087D01*
X127567087Y-98894410D01*
X127533251Y-98945049D01*
X127523820Y-98921256D01*
X127505569Y-98887112D01*
X127287683Y-98830106D01*
X126617789Y-99500000D01*
X126182211Y-99500000D01*
X126168069Y-99485858D01*
X126385858Y-99268069D01*
X126400000Y-99282211D01*
X127069894Y-98612317D01*
X127012888Y-98394431D01*
X126952554Y-98368350D01*
X127005590Y-98332913D01*
X127137913Y-98200590D01*
X127205125Y-98100000D01*
X127499875Y-98100000D01*
X127567087Y-98200590D01*
G37*
G04 #@! TD.AperFunction*
D31*
X132900000Y-106541422D02*
X132900000Y-109208578D01*
X132458578Y-109650000D01*
X130541422Y-109650000D01*
X130100000Y-109208578D01*
X130100000Y-108900000D01*
X130339058Y-108900000D01*
X130350797Y-109019189D01*
X130385563Y-109133797D01*
X130442020Y-109239421D01*
X130517999Y-109332001D01*
X130610579Y-109407980D01*
X130716203Y-109464437D01*
X130830811Y-109499203D01*
X130950000Y-109510942D01*
X131219000Y-109508000D01*
X131371000Y-109356000D01*
X131371000Y-108154000D01*
X131679000Y-108154000D01*
X131679000Y-109356000D01*
X131831000Y-109508000D01*
X132100000Y-109510942D01*
X132219189Y-109499203D01*
X132333797Y-109464437D01*
X132439421Y-109407980D01*
X132532001Y-109332001D01*
X132607980Y-109239421D01*
X132664437Y-109133797D01*
X132699203Y-109019189D01*
X132710942Y-108900000D01*
X132708000Y-108306000D01*
X132556000Y-108154000D01*
X131679000Y-108154000D01*
X131371000Y-108154000D01*
X130494000Y-108154000D01*
X130342000Y-108306000D01*
X130339058Y-108900000D01*
X130100000Y-108900000D01*
X130100000Y-107100000D01*
X130339058Y-107100000D01*
X130342000Y-107694000D01*
X130494000Y-107846000D01*
X131371000Y-107846000D01*
X131371000Y-106644000D01*
X131679000Y-106644000D01*
X131679000Y-107846000D01*
X132556000Y-107846000D01*
X132708000Y-107694000D01*
X132710942Y-107100000D01*
X132699203Y-106980811D01*
X132664437Y-106866203D01*
X132607980Y-106760579D01*
X132532001Y-106667999D01*
X132439421Y-106592020D01*
X132333797Y-106535563D01*
X132219189Y-106500797D01*
X132100000Y-106489058D01*
X131831000Y-106492000D01*
X131679000Y-106644000D01*
X131371000Y-106644000D01*
X131219000Y-106492000D01*
X130950000Y-106489058D01*
X130830811Y-106500797D01*
X130716203Y-106535563D01*
X130610579Y-106592020D01*
X130517999Y-106667999D01*
X130442020Y-106760579D01*
X130385563Y-106866203D01*
X130350797Y-106980811D01*
X130339058Y-107100000D01*
X130100000Y-107100000D01*
X130100000Y-106541422D01*
X130541422Y-106100000D01*
X132458578Y-106100000D01*
X132900000Y-106541422D01*
G04 #@! TA.AperFunction,Conductor*
D33*
G36*
X132900000Y-106541422D02*
G01*
X132900000Y-109208578D01*
X132458578Y-109650000D01*
X130541422Y-109650000D01*
X130100000Y-109208578D01*
X130100000Y-108900000D01*
X130339058Y-108900000D01*
X130350797Y-109019189D01*
X130385563Y-109133797D01*
X130442020Y-109239421D01*
X130517999Y-109332001D01*
X130610579Y-109407980D01*
X130716203Y-109464437D01*
X130830811Y-109499203D01*
X130950000Y-109510942D01*
X131219000Y-109508000D01*
X131371000Y-109356000D01*
X131371000Y-108154000D01*
X131679000Y-108154000D01*
X131679000Y-109356000D01*
X131831000Y-109508000D01*
X132100000Y-109510942D01*
X132219189Y-109499203D01*
X132333797Y-109464437D01*
X132439421Y-109407980D01*
X132532001Y-109332001D01*
X132607980Y-109239421D01*
X132664437Y-109133797D01*
X132699203Y-109019189D01*
X132710942Y-108900000D01*
X132708000Y-108306000D01*
X132556000Y-108154000D01*
X131679000Y-108154000D01*
X131371000Y-108154000D01*
X130494000Y-108154000D01*
X130342000Y-108306000D01*
X130339058Y-108900000D01*
X130100000Y-108900000D01*
X130100000Y-107100000D01*
X130339058Y-107100000D01*
X130342000Y-107694000D01*
X130494000Y-107846000D01*
X131371000Y-107846000D01*
X131371000Y-106644000D01*
X131679000Y-106644000D01*
X131679000Y-107846000D01*
X132556000Y-107846000D01*
X132708000Y-107694000D01*
X132710942Y-107100000D01*
X132699203Y-106980811D01*
X132664437Y-106866203D01*
X132607980Y-106760579D01*
X132532001Y-106667999D01*
X132439421Y-106592020D01*
X132333797Y-106535563D01*
X132219189Y-106500797D01*
X132100000Y-106489058D01*
X131831000Y-106492000D01*
X131679000Y-106644000D01*
X131371000Y-106644000D01*
X131219000Y-106492000D01*
X130950000Y-106489058D01*
X130830811Y-106500797D01*
X130716203Y-106535563D01*
X130610579Y-106592020D01*
X130517999Y-106667999D01*
X130442020Y-106760579D01*
X130385563Y-106866203D01*
X130350797Y-106980811D01*
X130339058Y-107100000D01*
X130100000Y-107100000D01*
X130100000Y-106541422D01*
X130541422Y-106100000D01*
X132458578Y-106100000D01*
X132900000Y-106541422D01*
G37*
G04 #@! TD.AperFunction*
M02*
