G04 #@! TF.GenerationSoftware,KiCad,Pcbnew,(5.1.9)-1*
G04 #@! TF.CreationDate,2021-08-10T13:31:54+02:00*
G04 #@! TF.ProjectId,DgDrive_DVI,44674472-6976-4655-9f44-56492e6b6963,1.5*
G04 #@! TF.SameCoordinates,Original*
G04 #@! TF.FileFunction,Soldermask,Top*
G04 #@! TF.FilePolarity,Negative*
%FSLAX46Y46*%
G04 Gerber Fmt 4.6, Leading zero omitted, Abs format (unit mm)*
G04 Created by KiCad (PCBNEW (5.1.9)-1) date 2021-08-10 13:31:54*
%MOMM*%
%LPD*%
G01*
G04 APERTURE LIST*
%ADD10R,0.800000X0.900000*%
%ADD11R,1.500000X1.050000*%
%ADD12O,1.500000X1.050000*%
%ADD13C,1.800000*%
%ADD14R,1.800000X1.800000*%
%ADD15C,2.250000*%
%ADD16C,2.050000*%
%ADD17R,0.900000X0.800000*%
%ADD18R,0.900000X1.200000*%
%ADD19C,2.000000*%
%ADD20C,1.300000*%
%ADD21C,4.200000*%
%ADD22C,2.499360*%
%ADD23R,2.000000X3.800000*%
%ADD24R,1.600000X1.600000*%
%ADD25C,1.600000*%
%ADD26R,1.220000X0.650000*%
%ADD27R,0.650000X1.220000*%
%ADD28C,0.100000*%
G04 APERTURE END LIST*
G36*
G01*
X133550000Y-106500000D02*
X137650000Y-106500000D01*
G75*
G02*
X137950000Y-106800000I0J-300000D01*
G01*
X137950000Y-107400000D01*
G75*
G02*
X137650000Y-107700000I-300000J0D01*
G01*
X133550000Y-107700000D01*
G75*
G02*
X133250000Y-107400000I0J300000D01*
G01*
X133250000Y-106800000D01*
G75*
G02*
X133550000Y-106500000I300000J0D01*
G01*
G37*
G36*
G01*
X133550000Y-103200000D02*
X137650000Y-103200000D01*
G75*
G02*
X137950000Y-103500000I0J-300000D01*
G01*
X137950000Y-104100000D01*
G75*
G02*
X137650000Y-104400000I-300000J0D01*
G01*
X133550000Y-104400000D01*
G75*
G02*
X133250000Y-104100000I0J300000D01*
G01*
X133250000Y-103500000D01*
G75*
G02*
X133550000Y-103200000I300000J0D01*
G01*
G37*
G36*
G01*
X123950000Y-106350000D02*
X128050000Y-106350000D01*
G75*
G02*
X128350000Y-106650000I0J-300000D01*
G01*
X128350000Y-107250000D01*
G75*
G02*
X128050000Y-107550000I-300000J0D01*
G01*
X123950000Y-107550000D01*
G75*
G02*
X123650000Y-107250000I0J300000D01*
G01*
X123650000Y-106650000D01*
G75*
G02*
X123950000Y-106350000I300000J0D01*
G01*
G37*
G36*
G01*
X123950000Y-103050000D02*
X128050000Y-103050000D01*
G75*
G02*
X128350000Y-103350000I0J-300000D01*
G01*
X128350000Y-103950000D01*
G75*
G02*
X128050000Y-104250000I-300000J0D01*
G01*
X123950000Y-104250000D01*
G75*
G02*
X123650000Y-103950000I0J300000D01*
G01*
X123650000Y-103350000D01*
G75*
G02*
X123950000Y-103050000I300000J0D01*
G01*
G37*
D10*
X112000000Y-104300000D03*
X111050000Y-102300000D03*
X112950000Y-102300000D03*
D11*
X122000000Y-109500000D03*
D12*
X122000000Y-112040000D03*
X122000000Y-110770000D03*
D13*
X102362000Y-100000000D03*
D14*
X99822000Y-100000000D03*
D15*
X148960000Y-109960000D03*
X148960000Y-115040000D03*
X154040000Y-115040000D03*
X154040000Y-109960000D03*
D16*
X151500000Y-112500000D03*
D15*
X148960000Y-96960000D03*
X148960000Y-102040000D03*
X154040000Y-102040000D03*
X154040000Y-96960000D03*
D16*
X151500000Y-99500000D03*
D17*
X118300000Y-92600000D03*
X116300000Y-93550000D03*
X116300000Y-91650000D03*
D10*
X109500000Y-93500000D03*
X108550000Y-91500000D03*
X110450000Y-91500000D03*
D18*
X98650000Y-95500000D03*
X95350000Y-95500000D03*
G36*
G01*
X142850000Y-113424997D02*
X142850000Y-115575003D01*
G75*
G02*
X142600003Y-115825000I-249997J0D01*
G01*
X141974997Y-115825000D01*
G75*
G02*
X141725000Y-115575003I0J249997D01*
G01*
X141725000Y-113424997D01*
G75*
G02*
X141974997Y-113175000I249997J0D01*
G01*
X142600003Y-113175000D01*
G75*
G02*
X142850000Y-113424997I0J-249997D01*
G01*
G37*
G36*
G01*
X145775000Y-113424997D02*
X145775000Y-115575003D01*
G75*
G02*
X145525003Y-115825000I-249997J0D01*
G01*
X144899997Y-115825000D01*
G75*
G02*
X144650000Y-115575003I0J249997D01*
G01*
X144650000Y-113424997D01*
G75*
G02*
X144899997Y-113175000I249997J0D01*
G01*
X145525003Y-113175000D01*
G75*
G02*
X145775000Y-113424997I0J-249997D01*
G01*
G37*
G36*
G01*
X114725000Y-106325000D02*
X115275000Y-106325000D01*
G75*
G02*
X115475000Y-106525000I0J-200000D01*
G01*
X115475000Y-106925000D01*
G75*
G02*
X115275000Y-107125000I-200000J0D01*
G01*
X114725000Y-107125000D01*
G75*
G02*
X114525000Y-106925000I0J200000D01*
G01*
X114525000Y-106525000D01*
G75*
G02*
X114725000Y-106325000I200000J0D01*
G01*
G37*
G36*
G01*
X114725000Y-104675000D02*
X115275000Y-104675000D01*
G75*
G02*
X115475000Y-104875000I0J-200000D01*
G01*
X115475000Y-105275000D01*
G75*
G02*
X115275000Y-105475000I-200000J0D01*
G01*
X114725000Y-105475000D01*
G75*
G02*
X114525000Y-105275000I0J200000D01*
G01*
X114525000Y-104875000D01*
G75*
G02*
X114725000Y-104675000I200000J0D01*
G01*
G37*
G36*
G01*
X113275000Y-92075000D02*
X112725000Y-92075000D01*
G75*
G02*
X112525000Y-91875000I0J200000D01*
G01*
X112525000Y-91475000D01*
G75*
G02*
X112725000Y-91275000I200000J0D01*
G01*
X113275000Y-91275000D01*
G75*
G02*
X113475000Y-91475000I0J-200000D01*
G01*
X113475000Y-91875000D01*
G75*
G02*
X113275000Y-92075000I-200000J0D01*
G01*
G37*
G36*
G01*
X113275000Y-93725000D02*
X112725000Y-93725000D01*
G75*
G02*
X112525000Y-93525000I0J200000D01*
G01*
X112525000Y-93125000D01*
G75*
G02*
X112725000Y-92925000I200000J0D01*
G01*
X113275000Y-92925000D01*
G75*
G02*
X113475000Y-93125000I0J-200000D01*
G01*
X113475000Y-93525000D01*
G75*
G02*
X113275000Y-93725000I-200000J0D01*
G01*
G37*
D19*
X110380000Y-107780000D03*
X105300000Y-107780000D03*
X100220000Y-107780000D03*
X92600000Y-107780000D03*
X110380000Y-115400000D03*
X105300000Y-115400000D03*
X92600000Y-115400000D03*
X100220000Y-115400000D03*
D20*
X116240000Y-102018000D03*
X116240000Y-96938000D03*
X114970000Y-100748000D03*
X117510000Y-100748000D03*
X117510000Y-98208000D03*
X114970000Y-98208000D03*
X120685000Y-97595000D03*
X120685000Y-101405000D03*
X122590000Y-101405000D03*
X124495000Y-101405000D03*
X126400000Y-101405000D03*
X128305000Y-101405000D03*
X130210000Y-101405000D03*
X132115000Y-101405000D03*
X134020000Y-101405000D03*
X120685000Y-99500000D03*
X122590000Y-99500000D03*
X124495000Y-99500000D03*
X126400000Y-99500000D03*
X128305000Y-99500000D03*
X130210000Y-99500000D03*
X132115000Y-99500000D03*
D21*
X140750000Y-99500000D03*
D20*
X124495000Y-97595000D03*
X122590000Y-97595000D03*
X134020000Y-99500000D03*
X126400000Y-97595000D03*
X128305000Y-97595000D03*
X134020000Y-97595000D03*
X132115000Y-97595000D03*
X130210000Y-97595000D03*
D21*
X108240000Y-99500000D03*
D22*
X119500000Y-115500000D03*
X149950000Y-93100000D03*
X153600000Y-93100000D03*
D23*
X125000000Y-115000000D03*
D24*
X95000000Y-101000000D03*
D25*
X95000000Y-103000000D03*
G36*
G01*
X102775000Y-105225000D02*
X102225000Y-105225000D01*
G75*
G02*
X102025000Y-105025000I0J200000D01*
G01*
X102025000Y-104625000D01*
G75*
G02*
X102225000Y-104425000I200000J0D01*
G01*
X102775000Y-104425000D01*
G75*
G02*
X102975000Y-104625000I0J-200000D01*
G01*
X102975000Y-105025000D01*
G75*
G02*
X102775000Y-105225000I-200000J0D01*
G01*
G37*
G36*
G01*
X102775000Y-103575000D02*
X102225000Y-103575000D01*
G75*
G02*
X102025000Y-103375000I0J200000D01*
G01*
X102025000Y-102975000D01*
G75*
G02*
X102225000Y-102775000I200000J0D01*
G01*
X102775000Y-102775000D01*
G75*
G02*
X102975000Y-102975000I0J-200000D01*
G01*
X102975000Y-103375000D01*
G75*
G02*
X102775000Y-103575000I-200000J0D01*
G01*
G37*
G36*
G01*
X127525000Y-95850000D02*
X127525000Y-95350000D01*
G75*
G02*
X127750000Y-95125000I225000J0D01*
G01*
X128200000Y-95125000D01*
G75*
G02*
X128425000Y-95350000I0J-225000D01*
G01*
X128425000Y-95850000D01*
G75*
G02*
X128200000Y-96075000I-225000J0D01*
G01*
X127750000Y-96075000D01*
G75*
G02*
X127525000Y-95850000I0J225000D01*
G01*
G37*
G36*
G01*
X125975000Y-95850000D02*
X125975000Y-95350000D01*
G75*
G02*
X126200000Y-95125000I225000J0D01*
G01*
X126650000Y-95125000D01*
G75*
G02*
X126875000Y-95350000I0J-225000D01*
G01*
X126875000Y-95850000D01*
G75*
G02*
X126650000Y-96075000I-225000J0D01*
G01*
X126200000Y-96075000D01*
G75*
G02*
X125975000Y-95850000I0J225000D01*
G01*
G37*
G36*
G01*
X121825000Y-95350000D02*
X121825000Y-95850000D01*
G75*
G02*
X121600000Y-96075000I-225000J0D01*
G01*
X121150000Y-96075000D01*
G75*
G02*
X120925000Y-95850000I0J225000D01*
G01*
X120925000Y-95350000D01*
G75*
G02*
X121150000Y-95125000I225000J0D01*
G01*
X121600000Y-95125000D01*
G75*
G02*
X121825000Y-95350000I0J-225000D01*
G01*
G37*
G36*
G01*
X120275000Y-95350000D02*
X120275000Y-95850000D01*
G75*
G02*
X120050000Y-96075000I-225000J0D01*
G01*
X119600000Y-96075000D01*
G75*
G02*
X119375000Y-95850000I0J225000D01*
G01*
X119375000Y-95350000D01*
G75*
G02*
X119600000Y-95125000I225000J0D01*
G01*
X120050000Y-95125000D01*
G75*
G02*
X120275000Y-95350000I0J-225000D01*
G01*
G37*
G36*
G01*
X129250000Y-114725000D02*
X128750000Y-114725000D01*
G75*
G02*
X128525000Y-114500000I0J225000D01*
G01*
X128525000Y-114050000D01*
G75*
G02*
X128750000Y-113825000I225000J0D01*
G01*
X129250000Y-113825000D01*
G75*
G02*
X129475000Y-114050000I0J-225000D01*
G01*
X129475000Y-114500000D01*
G75*
G02*
X129250000Y-114725000I-225000J0D01*
G01*
G37*
G36*
G01*
X129250000Y-113175000D02*
X128750000Y-113175000D01*
G75*
G02*
X128525000Y-112950000I0J225000D01*
G01*
X128525000Y-112500000D01*
G75*
G02*
X128750000Y-112275000I225000J0D01*
G01*
X129250000Y-112275000D01*
G75*
G02*
X129475000Y-112500000I0J-225000D01*
G01*
X129475000Y-112950000D01*
G75*
G02*
X129250000Y-113175000I-225000J0D01*
G01*
G37*
G36*
G01*
X131425000Y-91300000D02*
X132375000Y-91300000D01*
G75*
G02*
X132625000Y-91550000I0J-250000D01*
G01*
X132625000Y-92050000D01*
G75*
G02*
X132375000Y-92300000I-250000J0D01*
G01*
X131425000Y-92300000D01*
G75*
G02*
X131175000Y-92050000I0J250000D01*
G01*
X131175000Y-91550000D01*
G75*
G02*
X131425000Y-91300000I250000J0D01*
G01*
G37*
G36*
G01*
X131425000Y-93200000D02*
X132375000Y-93200000D01*
G75*
G02*
X132625000Y-93450000I0J-250000D01*
G01*
X132625000Y-93950000D01*
G75*
G02*
X132375000Y-94200000I-250000J0D01*
G01*
X131425000Y-94200000D01*
G75*
G02*
X131175000Y-93950000I0J250000D01*
G01*
X131175000Y-93450000D01*
G75*
G02*
X131425000Y-93200000I250000J0D01*
G01*
G37*
G36*
G01*
X139200000Y-91375000D02*
X139700000Y-91375000D01*
G75*
G02*
X139925000Y-91600000I0J-225000D01*
G01*
X139925000Y-92050000D01*
G75*
G02*
X139700000Y-92275000I-225000J0D01*
G01*
X139200000Y-92275000D01*
G75*
G02*
X138975000Y-92050000I0J225000D01*
G01*
X138975000Y-91600000D01*
G75*
G02*
X139200000Y-91375000I225000J0D01*
G01*
G37*
G36*
G01*
X139200000Y-92925000D02*
X139700000Y-92925000D01*
G75*
G02*
X139925000Y-93150000I0J-225000D01*
G01*
X139925000Y-93600000D01*
G75*
G02*
X139700000Y-93825000I-225000J0D01*
G01*
X139200000Y-93825000D01*
G75*
G02*
X138975000Y-93600000I0J225000D01*
G01*
X138975000Y-93150000D01*
G75*
G02*
X139200000Y-92925000I225000J0D01*
G01*
G37*
G36*
G01*
X141225000Y-93250000D02*
X142175000Y-93250000D01*
G75*
G02*
X142425000Y-93500000I0J-250000D01*
G01*
X142425000Y-94000000D01*
G75*
G02*
X142175000Y-94250000I-250000J0D01*
G01*
X141225000Y-94250000D01*
G75*
G02*
X140975000Y-94000000I0J250000D01*
G01*
X140975000Y-93500000D01*
G75*
G02*
X141225000Y-93250000I250000J0D01*
G01*
G37*
G36*
G01*
X141225000Y-91350000D02*
X142175000Y-91350000D01*
G75*
G02*
X142425000Y-91600000I0J-250000D01*
G01*
X142425000Y-92100000D01*
G75*
G02*
X142175000Y-92350000I-250000J0D01*
G01*
X141225000Y-92350000D01*
G75*
G02*
X140975000Y-92100000I0J250000D01*
G01*
X140975000Y-91600000D01*
G75*
G02*
X141225000Y-91350000I250000J0D01*
G01*
G37*
G36*
G01*
X141800000Y-104375000D02*
X141800000Y-103425000D01*
G75*
G02*
X142050000Y-103175000I250000J0D01*
G01*
X142550000Y-103175000D01*
G75*
G02*
X142800000Y-103425000I0J-250000D01*
G01*
X142800000Y-104375000D01*
G75*
G02*
X142550000Y-104625000I-250000J0D01*
G01*
X142050000Y-104625000D01*
G75*
G02*
X141800000Y-104375000I0J250000D01*
G01*
G37*
G36*
G01*
X143700000Y-104375000D02*
X143700000Y-103425000D01*
G75*
G02*
X143950000Y-103175000I250000J0D01*
G01*
X144450000Y-103175000D01*
G75*
G02*
X144700000Y-103425000I0J-250000D01*
G01*
X144700000Y-104375000D01*
G75*
G02*
X144450000Y-104625000I-250000J0D01*
G01*
X143950000Y-104625000D01*
G75*
G02*
X143700000Y-104375000I0J250000D01*
G01*
G37*
G36*
G01*
X140750000Y-107825000D02*
X140250000Y-107825000D01*
G75*
G02*
X140025000Y-107600000I0J225000D01*
G01*
X140025000Y-107150000D01*
G75*
G02*
X140250000Y-106925000I225000J0D01*
G01*
X140750000Y-106925000D01*
G75*
G02*
X140975000Y-107150000I0J-225000D01*
G01*
X140975000Y-107600000D01*
G75*
G02*
X140750000Y-107825000I-225000J0D01*
G01*
G37*
G36*
G01*
X140750000Y-109375000D02*
X140250000Y-109375000D01*
G75*
G02*
X140025000Y-109150000I0J225000D01*
G01*
X140025000Y-108700000D01*
G75*
G02*
X140250000Y-108475000I225000J0D01*
G01*
X140750000Y-108475000D01*
G75*
G02*
X140975000Y-108700000I0J-225000D01*
G01*
X140975000Y-109150000D01*
G75*
G02*
X140750000Y-109375000I-225000J0D01*
G01*
G37*
G36*
G01*
X142850000Y-110525000D02*
X142850000Y-111475000D01*
G75*
G02*
X142600000Y-111725000I-250000J0D01*
G01*
X142100000Y-111725000D01*
G75*
G02*
X141850000Y-111475000I0J250000D01*
G01*
X141850000Y-110525000D01*
G75*
G02*
X142100000Y-110275000I250000J0D01*
G01*
X142600000Y-110275000D01*
G75*
G02*
X142850000Y-110525000I0J-250000D01*
G01*
G37*
G36*
G01*
X144750000Y-110525000D02*
X144750000Y-111475000D01*
G75*
G02*
X144500000Y-111725000I-250000J0D01*
G01*
X144000000Y-111725000D01*
G75*
G02*
X143750000Y-111475000I0J250000D01*
G01*
X143750000Y-110525000D01*
G75*
G02*
X144000000Y-110275000I250000J0D01*
G01*
X144500000Y-110275000D01*
G75*
G02*
X144750000Y-110525000I0J-250000D01*
G01*
G37*
G36*
G01*
X124756250Y-96025000D02*
X124243750Y-96025000D01*
G75*
G02*
X124025000Y-95806250I0J218750D01*
G01*
X124025000Y-95368750D01*
G75*
G02*
X124243750Y-95150000I218750J0D01*
G01*
X124756250Y-95150000D01*
G75*
G02*
X124975000Y-95368750I0J-218750D01*
G01*
X124975000Y-95806250D01*
G75*
G02*
X124756250Y-96025000I-218750J0D01*
G01*
G37*
G36*
G01*
X124756250Y-94450000D02*
X124243750Y-94450000D01*
G75*
G02*
X124025000Y-94231250I0J218750D01*
G01*
X124025000Y-93793750D01*
G75*
G02*
X124243750Y-93575000I218750J0D01*
G01*
X124756250Y-93575000D01*
G75*
G02*
X124975000Y-93793750I0J-218750D01*
G01*
X124975000Y-94231250D01*
G75*
G02*
X124756250Y-94450000I-218750J0D01*
G01*
G37*
G36*
G01*
X123256250Y-94450000D02*
X122743750Y-94450000D01*
G75*
G02*
X122525000Y-94231250I0J218750D01*
G01*
X122525000Y-93793750D01*
G75*
G02*
X122743750Y-93575000I218750J0D01*
G01*
X123256250Y-93575000D01*
G75*
G02*
X123475000Y-93793750I0J-218750D01*
G01*
X123475000Y-94231250D01*
G75*
G02*
X123256250Y-94450000I-218750J0D01*
G01*
G37*
G36*
G01*
X123256250Y-96025000D02*
X122743750Y-96025000D01*
G75*
G02*
X122525000Y-95806250I0J218750D01*
G01*
X122525000Y-95368750D01*
G75*
G02*
X122743750Y-95150000I218750J0D01*
G01*
X123256250Y-95150000D01*
G75*
G02*
X123475000Y-95368750I0J-218750D01*
G01*
X123475000Y-95806250D01*
G75*
G02*
X123256250Y-96025000I-218750J0D01*
G01*
G37*
G36*
G01*
X131475000Y-106425000D02*
X130925000Y-106425000D01*
G75*
G02*
X130725000Y-106225000I0J200000D01*
G01*
X130725000Y-105825000D01*
G75*
G02*
X130925000Y-105625000I200000J0D01*
G01*
X131475000Y-105625000D01*
G75*
G02*
X131675000Y-105825000I0J-200000D01*
G01*
X131675000Y-106225000D01*
G75*
G02*
X131475000Y-106425000I-200000J0D01*
G01*
G37*
G36*
G01*
X131475000Y-104775000D02*
X130925000Y-104775000D01*
G75*
G02*
X130725000Y-104575000I0J200000D01*
G01*
X130725000Y-104175000D01*
G75*
G02*
X130925000Y-103975000I200000J0D01*
G01*
X131475000Y-103975000D01*
G75*
G02*
X131675000Y-104175000I0J-200000D01*
G01*
X131675000Y-104575000D01*
G75*
G02*
X131475000Y-104775000I-200000J0D01*
G01*
G37*
G36*
G01*
X131475000Y-109625000D02*
X130925000Y-109625000D01*
G75*
G02*
X130725000Y-109425000I0J200000D01*
G01*
X130725000Y-109025000D01*
G75*
G02*
X130925000Y-108825000I200000J0D01*
G01*
X131475000Y-108825000D01*
G75*
G02*
X131675000Y-109025000I0J-200000D01*
G01*
X131675000Y-109425000D01*
G75*
G02*
X131475000Y-109625000I-200000J0D01*
G01*
G37*
G36*
G01*
X131475000Y-107975000D02*
X130925000Y-107975000D01*
G75*
G02*
X130725000Y-107775000I0J200000D01*
G01*
X130725000Y-107375000D01*
G75*
G02*
X130925000Y-107175000I200000J0D01*
G01*
X131475000Y-107175000D01*
G75*
G02*
X131675000Y-107375000I0J-200000D01*
G01*
X131675000Y-107775000D01*
G75*
G02*
X131475000Y-107975000I-200000J0D01*
G01*
G37*
G36*
G01*
X121875000Y-104825000D02*
X121325000Y-104825000D01*
G75*
G02*
X121125000Y-104625000I0J200000D01*
G01*
X121125000Y-104225000D01*
G75*
G02*
X121325000Y-104025000I200000J0D01*
G01*
X121875000Y-104025000D01*
G75*
G02*
X122075000Y-104225000I0J-200000D01*
G01*
X122075000Y-104625000D01*
G75*
G02*
X121875000Y-104825000I-200000J0D01*
G01*
G37*
G36*
G01*
X121875000Y-106475000D02*
X121325000Y-106475000D01*
G75*
G02*
X121125000Y-106275000I0J200000D01*
G01*
X121125000Y-105875000D01*
G75*
G02*
X121325000Y-105675000I200000J0D01*
G01*
X121875000Y-105675000D01*
G75*
G02*
X122075000Y-105875000I0J-200000D01*
G01*
X122075000Y-106275000D01*
G75*
G02*
X121875000Y-106475000I-200000J0D01*
G01*
G37*
G36*
G01*
X130875000Y-116425000D02*
X130675000Y-116425000D01*
G75*
G02*
X130575000Y-116325000I0J100000D01*
G01*
X130575000Y-114900000D01*
G75*
G02*
X130675000Y-114800000I100000J0D01*
G01*
X130875000Y-114800000D01*
G75*
G02*
X130975000Y-114900000I0J-100000D01*
G01*
X130975000Y-116325000D01*
G75*
G02*
X130875000Y-116425000I-100000J0D01*
G01*
G37*
G36*
G01*
X131525000Y-116425000D02*
X131325000Y-116425000D01*
G75*
G02*
X131225000Y-116325000I0J100000D01*
G01*
X131225000Y-114900000D01*
G75*
G02*
X131325000Y-114800000I100000J0D01*
G01*
X131525000Y-114800000D01*
G75*
G02*
X131625000Y-114900000I0J-100000D01*
G01*
X131625000Y-116325000D01*
G75*
G02*
X131525000Y-116425000I-100000J0D01*
G01*
G37*
G36*
G01*
X132175000Y-116425000D02*
X131975000Y-116425000D01*
G75*
G02*
X131875000Y-116325000I0J100000D01*
G01*
X131875000Y-114900000D01*
G75*
G02*
X131975000Y-114800000I100000J0D01*
G01*
X132175000Y-114800000D01*
G75*
G02*
X132275000Y-114900000I0J-100000D01*
G01*
X132275000Y-116325000D01*
G75*
G02*
X132175000Y-116425000I-100000J0D01*
G01*
G37*
G36*
G01*
X132825000Y-116425000D02*
X132625000Y-116425000D01*
G75*
G02*
X132525000Y-116325000I0J100000D01*
G01*
X132525000Y-114900000D01*
G75*
G02*
X132625000Y-114800000I100000J0D01*
G01*
X132825000Y-114800000D01*
G75*
G02*
X132925000Y-114900000I0J-100000D01*
G01*
X132925000Y-116325000D01*
G75*
G02*
X132825000Y-116425000I-100000J0D01*
G01*
G37*
G36*
G01*
X132825000Y-112200000D02*
X132625000Y-112200000D01*
G75*
G02*
X132525000Y-112100000I0J100000D01*
G01*
X132525000Y-110675000D01*
G75*
G02*
X132625000Y-110575000I100000J0D01*
G01*
X132825000Y-110575000D01*
G75*
G02*
X132925000Y-110675000I0J-100000D01*
G01*
X132925000Y-112100000D01*
G75*
G02*
X132825000Y-112200000I-100000J0D01*
G01*
G37*
G36*
G01*
X132175000Y-112200000D02*
X131975000Y-112200000D01*
G75*
G02*
X131875000Y-112100000I0J100000D01*
G01*
X131875000Y-110675000D01*
G75*
G02*
X131975000Y-110575000I100000J0D01*
G01*
X132175000Y-110575000D01*
G75*
G02*
X132275000Y-110675000I0J-100000D01*
G01*
X132275000Y-112100000D01*
G75*
G02*
X132175000Y-112200000I-100000J0D01*
G01*
G37*
G36*
G01*
X131525000Y-112200000D02*
X131325000Y-112200000D01*
G75*
G02*
X131225000Y-112100000I0J100000D01*
G01*
X131225000Y-110675000D01*
G75*
G02*
X131325000Y-110575000I100000J0D01*
G01*
X131525000Y-110575000D01*
G75*
G02*
X131625000Y-110675000I0J-100000D01*
G01*
X131625000Y-112100000D01*
G75*
G02*
X131525000Y-112200000I-100000J0D01*
G01*
G37*
G36*
G01*
X130875000Y-112200000D02*
X130675000Y-112200000D01*
G75*
G02*
X130575000Y-112100000I0J100000D01*
G01*
X130575000Y-110675000D01*
G75*
G02*
X130675000Y-110575000I100000J0D01*
G01*
X130875000Y-110575000D01*
G75*
G02*
X130975000Y-110675000I0J-100000D01*
G01*
X130975000Y-112100000D01*
G75*
G02*
X130875000Y-112200000I-100000J0D01*
G01*
G37*
D26*
X134790000Y-91850000D03*
X134790000Y-92800000D03*
X134790000Y-93750000D03*
X137410000Y-93750000D03*
X137410000Y-91850000D03*
D27*
X144200000Y-108710000D03*
X142300000Y-108710000D03*
X142300000Y-106090000D03*
X143250000Y-106090000D03*
X144200000Y-106090000D03*
G36*
G01*
X135125000Y-116425000D02*
X134925000Y-116425000D01*
G75*
G02*
X134825000Y-116325000I0J100000D01*
G01*
X134825000Y-114900000D01*
G75*
G02*
X134925000Y-114800000I100000J0D01*
G01*
X135125000Y-114800000D01*
G75*
G02*
X135225000Y-114900000I0J-100000D01*
G01*
X135225000Y-116325000D01*
G75*
G02*
X135125000Y-116425000I-100000J0D01*
G01*
G37*
G36*
G01*
X135775000Y-116425000D02*
X135575000Y-116425000D01*
G75*
G02*
X135475000Y-116325000I0J100000D01*
G01*
X135475000Y-114900000D01*
G75*
G02*
X135575000Y-114800000I100000J0D01*
G01*
X135775000Y-114800000D01*
G75*
G02*
X135875000Y-114900000I0J-100000D01*
G01*
X135875000Y-116325000D01*
G75*
G02*
X135775000Y-116425000I-100000J0D01*
G01*
G37*
G36*
G01*
X136425000Y-116425000D02*
X136225000Y-116425000D01*
G75*
G02*
X136125000Y-116325000I0J100000D01*
G01*
X136125000Y-114900000D01*
G75*
G02*
X136225000Y-114800000I100000J0D01*
G01*
X136425000Y-114800000D01*
G75*
G02*
X136525000Y-114900000I0J-100000D01*
G01*
X136525000Y-116325000D01*
G75*
G02*
X136425000Y-116425000I-100000J0D01*
G01*
G37*
G36*
G01*
X137075000Y-116425000D02*
X136875000Y-116425000D01*
G75*
G02*
X136775000Y-116325000I0J100000D01*
G01*
X136775000Y-114900000D01*
G75*
G02*
X136875000Y-114800000I100000J0D01*
G01*
X137075000Y-114800000D01*
G75*
G02*
X137175000Y-114900000I0J-100000D01*
G01*
X137175000Y-116325000D01*
G75*
G02*
X137075000Y-116425000I-100000J0D01*
G01*
G37*
G36*
G01*
X137075000Y-112200000D02*
X136875000Y-112200000D01*
G75*
G02*
X136775000Y-112100000I0J100000D01*
G01*
X136775000Y-110675000D01*
G75*
G02*
X136875000Y-110575000I100000J0D01*
G01*
X137075000Y-110575000D01*
G75*
G02*
X137175000Y-110675000I0J-100000D01*
G01*
X137175000Y-112100000D01*
G75*
G02*
X137075000Y-112200000I-100000J0D01*
G01*
G37*
G36*
G01*
X136425000Y-112200000D02*
X136225000Y-112200000D01*
G75*
G02*
X136125000Y-112100000I0J100000D01*
G01*
X136125000Y-110675000D01*
G75*
G02*
X136225000Y-110575000I100000J0D01*
G01*
X136425000Y-110575000D01*
G75*
G02*
X136525000Y-110675000I0J-100000D01*
G01*
X136525000Y-112100000D01*
G75*
G02*
X136425000Y-112200000I-100000J0D01*
G01*
G37*
G36*
G01*
X135775000Y-112200000D02*
X135575000Y-112200000D01*
G75*
G02*
X135475000Y-112100000I0J100000D01*
G01*
X135475000Y-110675000D01*
G75*
G02*
X135575000Y-110575000I100000J0D01*
G01*
X135775000Y-110575000D01*
G75*
G02*
X135875000Y-110675000I0J-100000D01*
G01*
X135875000Y-112100000D01*
G75*
G02*
X135775000Y-112200000I-100000J0D01*
G01*
G37*
G36*
G01*
X135125000Y-112200000D02*
X134925000Y-112200000D01*
G75*
G02*
X134825000Y-112100000I0J100000D01*
G01*
X134825000Y-110675000D01*
G75*
G02*
X134925000Y-110575000I100000J0D01*
G01*
X135125000Y-110575000D01*
G75*
G02*
X135225000Y-110675000I0J-100000D01*
G01*
X135225000Y-112100000D01*
G75*
G02*
X135125000Y-112200000I-100000J0D01*
G01*
G37*
D28*
G36*
X119750000Y-105400000D02*
G01*
X119750000Y-105900000D01*
X119749398Y-105900000D01*
X119749398Y-105924534D01*
X119744588Y-105973365D01*
X119735016Y-106021490D01*
X119720772Y-106068445D01*
X119701995Y-106113778D01*
X119678864Y-106157051D01*
X119651604Y-106197850D01*
X119620476Y-106235779D01*
X119585779Y-106270476D01*
X119547850Y-106301604D01*
X119507051Y-106328864D01*
X119463778Y-106351995D01*
X119418445Y-106370772D01*
X119371490Y-106385016D01*
X119323365Y-106394588D01*
X119274534Y-106399398D01*
X119250000Y-106399398D01*
X119250000Y-106400000D01*
X118750000Y-106400000D01*
X118750000Y-106399398D01*
X118725466Y-106399398D01*
X118676635Y-106394588D01*
X118628510Y-106385016D01*
X118581555Y-106370772D01*
X118536222Y-106351995D01*
X118492949Y-106328864D01*
X118452150Y-106301604D01*
X118414221Y-106270476D01*
X118379524Y-106235779D01*
X118348396Y-106197850D01*
X118321136Y-106157051D01*
X118298005Y-106113778D01*
X118279228Y-106068445D01*
X118264984Y-106021490D01*
X118255412Y-105973365D01*
X118250602Y-105924534D01*
X118250602Y-105900000D01*
X118250000Y-105900000D01*
X118250000Y-105400000D01*
X119750000Y-105400000D01*
G37*
G36*
X118250602Y-104600000D02*
G01*
X118250602Y-104575466D01*
X118255412Y-104526635D01*
X118264984Y-104478510D01*
X118279228Y-104431555D01*
X118298005Y-104386222D01*
X118321136Y-104342949D01*
X118348396Y-104302150D01*
X118379524Y-104264221D01*
X118414221Y-104229524D01*
X118452150Y-104198396D01*
X118492949Y-104171136D01*
X118536222Y-104148005D01*
X118581555Y-104129228D01*
X118628510Y-104114984D01*
X118676635Y-104105412D01*
X118725466Y-104100602D01*
X118750000Y-104100602D01*
X118750000Y-104100000D01*
X119250000Y-104100000D01*
X119250000Y-104100602D01*
X119274534Y-104100602D01*
X119323365Y-104105412D01*
X119371490Y-104114984D01*
X119418445Y-104129228D01*
X119463778Y-104148005D01*
X119507051Y-104171136D01*
X119547850Y-104198396D01*
X119585779Y-104229524D01*
X119620476Y-104264221D01*
X119651604Y-104302150D01*
X119678864Y-104342949D01*
X119701995Y-104386222D01*
X119720772Y-104431555D01*
X119735016Y-104478510D01*
X119744588Y-104526635D01*
X119749398Y-104575466D01*
X119749398Y-104600000D01*
X119750000Y-104600000D01*
X119750000Y-105100000D01*
X118250000Y-105100000D01*
X118250000Y-104600000D01*
X118250602Y-104600000D01*
G37*
M02*
