G04 #@! TF.GenerationSoftware,KiCad,Pcbnew,(6.0.1)*
G04 #@! TF.CreationDate,2022-01-25T14:47:39+01:00*
G04 #@! TF.ProjectId,DgDrive_DVI,44674472-6976-4655-9f44-56492e6b6963,1.7*
G04 #@! TF.SameCoordinates,Original*
G04 #@! TF.FileFunction,AssemblyDrawing,Top*
%FSLAX46Y46*%
G04 Gerber Fmt 4.6, Leading zero omitted, Abs format (unit mm)*
G04 Created by KiCad (PCBNEW (6.0.1)) date 2022-01-25 14:47:39*
%MOMM*%
%LPD*%
G01*
G04 APERTURE LIST*
%ADD10C,0.150000*%
%ADD11C,0.075000*%
%ADD12C,0.120000*%
%ADD13C,0.060000*%
%ADD14C,0.135000*%
%ADD15C,0.080000*%
%ADD16C,0.110000*%
%ADD17C,0.090000*%
%ADD18C,0.100000*%
G04 APERTURE END LIST*
D10*
X130402380Y-105061904D02*
X130402380Y-104442857D01*
X130783333Y-104776190D01*
X130783333Y-104633333D01*
X130830952Y-104538095D01*
X130878571Y-104490476D01*
X130973809Y-104442857D01*
X131211904Y-104442857D01*
X131307142Y-104490476D01*
X131354761Y-104538095D01*
X131402380Y-104633333D01*
X131402380Y-104919047D01*
X131354761Y-105014285D01*
X131307142Y-105061904D01*
X130402380Y-104109523D02*
X130402380Y-103490476D01*
X130783333Y-103823809D01*
X130783333Y-103680952D01*
X130830952Y-103585714D01*
X130878571Y-103538095D01*
X130973809Y-103490476D01*
X131211904Y-103490476D01*
X131307142Y-103538095D01*
X131354761Y-103585714D01*
X131402380Y-103680952D01*
X131402380Y-103966666D01*
X131354761Y-104061904D01*
X131307142Y-104109523D01*
X130735714Y-102633333D02*
X131402380Y-102633333D01*
X130735714Y-103061904D02*
X131259523Y-103061904D01*
X131354761Y-103014285D01*
X131402380Y-102919047D01*
X131402380Y-102776190D01*
X131354761Y-102680952D01*
X131307142Y-102633333D01*
X109666666Y-111276190D02*
X109666666Y-110800000D01*
X109952380Y-111371428D02*
X108952380Y-111038095D01*
X109952380Y-110704761D01*
X108952380Y-110514285D02*
X108952380Y-109942857D01*
X109952380Y-110228571D02*
X108952380Y-110228571D01*
X109047619Y-109657142D02*
X109000000Y-109609523D01*
X108952380Y-109514285D01*
X108952380Y-109276190D01*
X109000000Y-109180952D01*
X109047619Y-109133333D01*
X109142857Y-109085714D01*
X109238095Y-109085714D01*
X109380952Y-109133333D01*
X109952380Y-109704761D01*
X109952380Y-109085714D01*
X109952380Y-108133333D02*
X109952380Y-108704761D01*
X109952380Y-108419047D02*
X108952380Y-108419047D01*
X109095238Y-108514285D01*
X109190476Y-108609523D01*
X109238095Y-108704761D01*
X109857142Y-107133333D02*
X109904761Y-107180952D01*
X109952380Y-107323809D01*
X109952380Y-107419047D01*
X109904761Y-107561904D01*
X109809523Y-107657142D01*
X109714285Y-107704761D01*
X109523809Y-107752380D01*
X109380952Y-107752380D01*
X109190476Y-107704761D01*
X109095238Y-107657142D01*
X109000000Y-107561904D01*
X108952380Y-107419047D01*
X108952380Y-107323809D01*
X109000000Y-107180952D01*
X109047619Y-107133333D01*
X109904761Y-106752380D02*
X109952380Y-106609523D01*
X109952380Y-106371428D01*
X109904761Y-106276190D01*
X109857142Y-106228571D01*
X109761904Y-106180952D01*
X109666666Y-106180952D01*
X109571428Y-106228571D01*
X109523809Y-106276190D01*
X109476190Y-106371428D01*
X109428571Y-106561904D01*
X109380952Y-106657142D01*
X109333333Y-106704761D01*
X109238095Y-106752380D01*
X109142857Y-106752380D01*
X109047619Y-106704761D01*
X109000000Y-106657142D01*
X108952380Y-106561904D01*
X108952380Y-106323809D01*
X109000000Y-106180952D01*
X109952380Y-105228571D02*
X109952380Y-105800000D01*
X109952380Y-105514285D02*
X108952380Y-105514285D01*
X109095238Y-105609523D01*
X109190476Y-105704761D01*
X109238095Y-105800000D01*
X109952380Y-104276190D02*
X109952380Y-104847619D01*
X109952380Y-104561904D02*
X108952380Y-104561904D01*
X109095238Y-104657142D01*
X109190476Y-104752380D01*
X109238095Y-104847619D01*
X109571428Y-103847619D02*
X109571428Y-103085714D01*
X109904761Y-102657142D02*
X109952380Y-102514285D01*
X109952380Y-102276190D01*
X109904761Y-102180952D01*
X109857142Y-102133333D01*
X109761904Y-102085714D01*
X109666666Y-102085714D01*
X109571428Y-102133333D01*
X109523809Y-102180952D01*
X109476190Y-102276190D01*
X109428571Y-102466666D01*
X109380952Y-102561904D01*
X109333333Y-102609523D01*
X109238095Y-102657142D01*
X109142857Y-102657142D01*
X109047619Y-102609523D01*
X109000000Y-102561904D01*
X108952380Y-102466666D01*
X108952380Y-102228571D01*
X109000000Y-102085714D01*
X108952380Y-101800000D02*
X108952380Y-101228571D01*
X109952380Y-101514285D02*
X108952380Y-101514285D01*
X108952380Y-100990476D02*
X109952380Y-100323809D01*
X108952380Y-100323809D02*
X109952380Y-100990476D01*
X108952380Y-100038095D02*
X109952380Y-99371428D01*
X108952380Y-99371428D02*
X109952380Y-100038095D01*
X108952380Y-99085714D02*
X109952380Y-98419047D01*
X108952380Y-98419047D02*
X109952380Y-99085714D01*
X108952380Y-98133333D02*
X109952380Y-97466666D01*
X108952380Y-97466666D02*
X109952380Y-98133333D01*
X109571428Y-97085714D02*
X109571428Y-96323809D01*
X108952380Y-95942857D02*
X109952380Y-95276190D01*
X108952380Y-95276190D02*
X109952380Y-95942857D01*
D11*
X111619047Y-103026190D02*
X111619047Y-103430952D01*
X111642857Y-103478571D01*
X111666666Y-103502380D01*
X111714285Y-103526190D01*
X111809523Y-103526190D01*
X111857142Y-103502380D01*
X111880952Y-103478571D01*
X111904761Y-103430952D01*
X111904761Y-103026190D01*
X112357142Y-103192857D02*
X112357142Y-103526190D01*
X112238095Y-103002380D02*
X112119047Y-103359523D01*
X112428571Y-103359523D01*
D10*
X111517619Y-113484285D02*
X111470000Y-113436666D01*
X111422380Y-113341428D01*
X111422380Y-113103333D01*
X111470000Y-113008095D01*
X111517619Y-112960476D01*
X111612857Y-112912857D01*
X111708095Y-112912857D01*
X111850952Y-112960476D01*
X112422380Y-113531904D01*
X112422380Y-112912857D01*
X112422380Y-112484285D02*
X111422380Y-112484285D01*
X112422380Y-111912857D01*
X111422380Y-111912857D01*
X111755714Y-111008095D02*
X112422380Y-111008095D01*
X111374761Y-111246190D02*
X112089047Y-111484285D01*
X112089047Y-110865238D01*
X111755714Y-110055714D02*
X112422380Y-110055714D01*
X111374761Y-110293809D02*
X112089047Y-110531904D01*
X112089047Y-109912857D01*
X111422380Y-109341428D02*
X111422380Y-109246190D01*
X111470000Y-109150952D01*
X111517619Y-109103333D01*
X111612857Y-109055714D01*
X111803333Y-109008095D01*
X112041428Y-109008095D01*
X112231904Y-109055714D01*
X112327142Y-109103333D01*
X112374761Y-109150952D01*
X112422380Y-109246190D01*
X112422380Y-109341428D01*
X112374761Y-109436666D01*
X112327142Y-109484285D01*
X112231904Y-109531904D01*
X112041428Y-109579523D01*
X111803333Y-109579523D01*
X111612857Y-109531904D01*
X111517619Y-109484285D01*
X111470000Y-109436666D01*
X111422380Y-109341428D01*
X112422380Y-108055714D02*
X112422380Y-108627142D01*
X112422380Y-108341428D02*
X111422380Y-108341428D01*
X111565238Y-108436666D01*
X111660476Y-108531904D01*
X111708095Y-108627142D01*
X124327619Y-110865238D02*
X124280000Y-110960476D01*
X124184761Y-111055714D01*
X124041904Y-111198571D01*
X123994285Y-111293809D01*
X123994285Y-111389047D01*
X124232380Y-111341428D02*
X124184761Y-111436666D01*
X124089523Y-111531904D01*
X123899047Y-111579523D01*
X123565714Y-111579523D01*
X123375238Y-111531904D01*
X123280000Y-111436666D01*
X123232380Y-111341428D01*
X123232380Y-111150952D01*
X123280000Y-111055714D01*
X123375238Y-110960476D01*
X123565714Y-110912857D01*
X123899047Y-110912857D01*
X124089523Y-110960476D01*
X124184761Y-111055714D01*
X124232380Y-111150952D01*
X124232380Y-111341428D01*
X123327619Y-110531904D02*
X123280000Y-110484285D01*
X123232380Y-110389047D01*
X123232380Y-110150952D01*
X123280000Y-110055714D01*
X123327619Y-110008095D01*
X123422857Y-109960476D01*
X123518095Y-109960476D01*
X123660952Y-110008095D01*
X124232380Y-110579523D01*
X124232380Y-109960476D01*
X115609523Y-95028571D02*
X115752380Y-95076190D01*
X115800000Y-95123809D01*
X115847619Y-95219047D01*
X115847619Y-95361904D01*
X115800000Y-95457142D01*
X115752380Y-95504761D01*
X115657142Y-95552380D01*
X115276190Y-95552380D01*
X115276190Y-94552380D01*
X115609523Y-94552380D01*
X115704761Y-94600000D01*
X115752380Y-94647619D01*
X115800000Y-94742857D01*
X115800000Y-94838095D01*
X115752380Y-94933333D01*
X115704761Y-94980952D01*
X115609523Y-95028571D01*
X115276190Y-95028571D01*
X116228571Y-95266666D02*
X116704761Y-95266666D01*
X116133333Y-95552380D02*
X116466666Y-94552380D01*
X116800000Y-95552380D01*
X116990476Y-94552380D02*
X117561904Y-94552380D01*
X117276190Y-95552380D02*
X117276190Y-94552380D01*
X118371428Y-94552380D02*
X117895238Y-94552380D01*
X117847619Y-95028571D01*
X117895238Y-94980952D01*
X117990476Y-94933333D01*
X118228571Y-94933333D01*
X118323809Y-94980952D01*
X118371428Y-95028571D01*
X118419047Y-95123809D01*
X118419047Y-95361904D01*
X118371428Y-95457142D01*
X118323809Y-95504761D01*
X118228571Y-95552380D01*
X117990476Y-95552380D01*
X117895238Y-95504761D01*
X117847619Y-95457142D01*
X119276190Y-94885714D02*
X119276190Y-95552380D01*
X119038095Y-94504761D02*
X118800000Y-95219047D01*
X119419047Y-95219047D01*
X116561904Y-90552380D02*
X116561904Y-89552380D01*
X116800000Y-89552380D01*
X116942857Y-89600000D01*
X117038095Y-89695238D01*
X117085714Y-89790476D01*
X117133333Y-89980952D01*
X117133333Y-90123809D01*
X117085714Y-90314285D01*
X117038095Y-90409523D01*
X116942857Y-90504761D01*
X116800000Y-90552380D01*
X116561904Y-90552380D01*
X117514285Y-89647619D02*
X117561904Y-89600000D01*
X117657142Y-89552380D01*
X117895238Y-89552380D01*
X117990476Y-89600000D01*
X118038095Y-89647619D01*
X118085714Y-89742857D01*
X118085714Y-89838095D01*
X118038095Y-89980952D01*
X117466666Y-90552380D01*
X118085714Y-90552380D01*
X107452380Y-96190476D02*
X106452380Y-96190476D01*
X107166666Y-95857142D01*
X106452380Y-95523809D01*
X107452380Y-95523809D01*
X107452380Y-95047619D02*
X106452380Y-95047619D01*
X107166666Y-94714285D01*
X106452380Y-94380952D01*
X107452380Y-94380952D01*
X106928571Y-93571428D02*
X106976190Y-93428571D01*
X107023809Y-93380952D01*
X107119047Y-93333333D01*
X107261904Y-93333333D01*
X107357142Y-93380952D01*
X107404761Y-93428571D01*
X107452380Y-93523809D01*
X107452380Y-93904761D01*
X106452380Y-93904761D01*
X106452380Y-93571428D01*
X106500000Y-93476190D01*
X106547619Y-93428571D01*
X106642857Y-93380952D01*
X106738095Y-93380952D01*
X106833333Y-93428571D01*
X106880952Y-93476190D01*
X106928571Y-93571428D01*
X106928571Y-93904761D01*
X106452380Y-93047619D02*
X106452380Y-92476190D01*
X107452380Y-92761904D02*
X106452380Y-92761904D01*
X106452380Y-92238095D02*
X106452380Y-91619047D01*
X106833333Y-91952380D01*
X106833333Y-91809523D01*
X106880952Y-91714285D01*
X106928571Y-91666666D01*
X107023809Y-91619047D01*
X107261904Y-91619047D01*
X107357142Y-91666666D01*
X107404761Y-91714285D01*
X107452380Y-91809523D01*
X107452380Y-92095238D01*
X107404761Y-92190476D01*
X107357142Y-92238095D01*
X107452380Y-91142857D02*
X107452380Y-90952380D01*
X107404761Y-90857142D01*
X107357142Y-90809523D01*
X107214285Y-90714285D01*
X107023809Y-90666666D01*
X106642857Y-90666666D01*
X106547619Y-90714285D01*
X106500000Y-90761904D01*
X106452380Y-90857142D01*
X106452380Y-91047619D01*
X106500000Y-91142857D01*
X106547619Y-91190476D01*
X106642857Y-91238095D01*
X106880952Y-91238095D01*
X106976190Y-91190476D01*
X107023809Y-91142857D01*
X107071428Y-91047619D01*
X107071428Y-90857142D01*
X107023809Y-90761904D01*
X106976190Y-90714285D01*
X106880952Y-90666666D01*
X106452380Y-90047619D02*
X106452380Y-89952380D01*
X106500000Y-89857142D01*
X106547619Y-89809523D01*
X106642857Y-89761904D01*
X106833333Y-89714285D01*
X107071428Y-89714285D01*
X107261904Y-89761904D01*
X107357142Y-89809523D01*
X107404761Y-89857142D01*
X107452380Y-89952380D01*
X107452380Y-90047619D01*
X107404761Y-90142857D01*
X107357142Y-90190476D01*
X107261904Y-90238095D01*
X107071428Y-90285714D01*
X106833333Y-90285714D01*
X106642857Y-90238095D01*
X106547619Y-90190476D01*
X106500000Y-90142857D01*
X106452380Y-90047619D01*
X106785714Y-88857142D02*
X107452380Y-88857142D01*
X106404761Y-89095238D02*
X107119047Y-89333333D01*
X107119047Y-88714285D01*
D11*
X109452380Y-92773809D02*
X109404761Y-92750000D01*
X109357142Y-92702380D01*
X109285714Y-92630952D01*
X109238095Y-92607142D01*
X109190476Y-92607142D01*
X109214285Y-92726190D02*
X109166666Y-92702380D01*
X109119047Y-92654761D01*
X109095238Y-92559523D01*
X109095238Y-92392857D01*
X109119047Y-92297619D01*
X109166666Y-92250000D01*
X109214285Y-92226190D01*
X109309523Y-92226190D01*
X109357142Y-92250000D01*
X109404761Y-92297619D01*
X109428571Y-92392857D01*
X109428571Y-92559523D01*
X109404761Y-92654761D01*
X109357142Y-92702380D01*
X109309523Y-92726190D01*
X109214285Y-92726190D01*
X109904761Y-92726190D02*
X109619047Y-92726190D01*
X109761904Y-92726190D02*
X109761904Y-92226190D01*
X109714285Y-92297619D01*
X109666666Y-92345238D01*
X109619047Y-92369047D01*
D10*
X93666666Y-97528571D02*
X93809523Y-97576190D01*
X93857142Y-97623809D01*
X93904761Y-97719047D01*
X93904761Y-97861904D01*
X93857142Y-97957142D01*
X93809523Y-98004761D01*
X93714285Y-98052380D01*
X93333333Y-98052380D01*
X93333333Y-97052380D01*
X93666666Y-97052380D01*
X93761904Y-97100000D01*
X93809523Y-97147619D01*
X93857142Y-97242857D01*
X93857142Y-97338095D01*
X93809523Y-97433333D01*
X93761904Y-97480952D01*
X93666666Y-97528571D01*
X93333333Y-97528571D01*
X94285714Y-97766666D02*
X94761904Y-97766666D01*
X94190476Y-98052380D02*
X94523809Y-97052380D01*
X94857142Y-98052380D01*
X95142857Y-98004761D02*
X95285714Y-98052380D01*
X95523809Y-98052380D01*
X95619047Y-98004761D01*
X95666666Y-97957142D01*
X95714285Y-97861904D01*
X95714285Y-97766666D01*
X95666666Y-97671428D01*
X95619047Y-97623809D01*
X95523809Y-97576190D01*
X95333333Y-97528571D01*
X95238095Y-97480952D01*
X95190476Y-97433333D01*
X95142857Y-97338095D01*
X95142857Y-97242857D01*
X95190476Y-97147619D01*
X95238095Y-97100000D01*
X95333333Y-97052380D01*
X95571428Y-97052380D01*
X95714285Y-97100000D01*
X96095238Y-97147619D02*
X96142857Y-97100000D01*
X96238095Y-97052380D01*
X96476190Y-97052380D01*
X96571428Y-97100000D01*
X96619047Y-97147619D01*
X96666666Y-97242857D01*
X96666666Y-97338095D01*
X96619047Y-97480952D01*
X96047619Y-98052380D01*
X96666666Y-98052380D01*
X97619047Y-98052380D02*
X97047619Y-98052380D01*
X97333333Y-98052380D02*
X97333333Y-97052380D01*
X97238095Y-97195238D01*
X97142857Y-97290476D01*
X97047619Y-97338095D01*
X98571428Y-97100000D02*
X98476190Y-97052380D01*
X98333333Y-97052380D01*
X98190476Y-97100000D01*
X98095238Y-97195238D01*
X98047619Y-97290476D01*
X98000000Y-97480952D01*
X98000000Y-97623809D01*
X98047619Y-97814285D01*
X98095238Y-97909523D01*
X98190476Y-98004761D01*
X98333333Y-98052380D01*
X98428571Y-98052380D01*
X98571428Y-98004761D01*
X98619047Y-97957142D01*
X98619047Y-97623809D01*
X98428571Y-97623809D01*
X98952380Y-97052380D02*
X99190476Y-98052380D01*
X99380952Y-97338095D01*
X99571428Y-98052380D01*
X99809523Y-97052380D01*
X100095238Y-97052380D02*
X100761904Y-98052380D01*
X100761904Y-97052380D02*
X100095238Y-98052380D01*
X96261904Y-93952380D02*
X96261904Y-92952380D01*
X96500000Y-92952380D01*
X96642857Y-93000000D01*
X96738095Y-93095238D01*
X96785714Y-93190476D01*
X96833333Y-93380952D01*
X96833333Y-93523809D01*
X96785714Y-93714285D01*
X96738095Y-93809523D01*
X96642857Y-93904761D01*
X96500000Y-93952380D01*
X96261904Y-93952380D01*
X97785714Y-93952380D02*
X97214285Y-93952380D01*
X97500000Y-93952380D02*
X97500000Y-92952380D01*
X97404761Y-93095238D01*
X97309523Y-93190476D01*
X97214285Y-93238095D01*
X142750000Y-112005714D02*
X142750000Y-112672380D01*
X142511904Y-111624761D02*
X142273809Y-112339047D01*
X142892857Y-112339047D01*
X143321428Y-112672380D02*
X143511904Y-112672380D01*
X143607142Y-112624761D01*
X143654761Y-112577142D01*
X143750000Y-112434285D01*
X143797619Y-112243809D01*
X143797619Y-111862857D01*
X143750000Y-111767619D01*
X143702380Y-111720000D01*
X143607142Y-111672380D01*
X143416666Y-111672380D01*
X143321428Y-111720000D01*
X143273809Y-111767619D01*
X143226190Y-111862857D01*
X143226190Y-112100952D01*
X143273809Y-112196190D01*
X143321428Y-112243809D01*
X143416666Y-112291428D01*
X143607142Y-112291428D01*
X143702380Y-112243809D01*
X143750000Y-112196190D01*
X143797619Y-112100952D01*
X144226190Y-112577142D02*
X144273809Y-112624761D01*
X144226190Y-112672380D01*
X144178571Y-112624761D01*
X144226190Y-112577142D01*
X144226190Y-112672380D01*
X144750000Y-112672380D02*
X144940476Y-112672380D01*
X145035714Y-112624761D01*
X145083333Y-112577142D01*
X145178571Y-112434285D01*
X145226190Y-112243809D01*
X145226190Y-111862857D01*
X145178571Y-111767619D01*
X145130952Y-111720000D01*
X145035714Y-111672380D01*
X144845238Y-111672380D01*
X144750000Y-111720000D01*
X144702380Y-111767619D01*
X144654761Y-111862857D01*
X144654761Y-112100952D01*
X144702380Y-112196190D01*
X144750000Y-112243809D01*
X144845238Y-112291428D01*
X145035714Y-112291428D01*
X145130952Y-112243809D01*
X145178571Y-112196190D01*
X145226190Y-112100952D01*
D12*
X143616666Y-114861904D02*
X143350000Y-114480952D01*
X143159523Y-114861904D02*
X143159523Y-114061904D01*
X143464285Y-114061904D01*
X143540476Y-114100000D01*
X143578571Y-114138095D01*
X143616666Y-114214285D01*
X143616666Y-114328571D01*
X143578571Y-114404761D01*
X143540476Y-114442857D01*
X143464285Y-114480952D01*
X143159523Y-114480952D01*
X143921428Y-114138095D02*
X143959523Y-114100000D01*
X144035714Y-114061904D01*
X144226190Y-114061904D01*
X144302380Y-114100000D01*
X144340476Y-114138095D01*
X144378571Y-114214285D01*
X144378571Y-114290476D01*
X144340476Y-114404761D01*
X143883333Y-114861904D01*
X144378571Y-114861904D01*
D10*
X114022380Y-106019047D02*
X114022380Y-106590476D01*
X114022380Y-106304761D02*
X113022380Y-106304761D01*
X113165238Y-106400000D01*
X113260476Y-106495238D01*
X113308095Y-106590476D01*
X114022380Y-105590476D02*
X113022380Y-105590476D01*
X113641428Y-105495238D02*
X114022380Y-105209523D01*
X113355714Y-105209523D02*
X113736666Y-105590476D01*
D13*
X115180952Y-105966666D02*
X114990476Y-106100000D01*
X115180952Y-106195238D02*
X114780952Y-106195238D01*
X114780952Y-106042857D01*
X114800000Y-106004761D01*
X114819047Y-105985714D01*
X114857142Y-105966666D01*
X114914285Y-105966666D01*
X114952380Y-105985714D01*
X114971428Y-106004761D01*
X114990476Y-106042857D01*
X114990476Y-106195238D01*
X114952380Y-105738095D02*
X114933333Y-105776190D01*
X114914285Y-105795238D01*
X114876190Y-105814285D01*
X114857142Y-105814285D01*
X114819047Y-105795238D01*
X114800000Y-105776190D01*
X114780952Y-105738095D01*
X114780952Y-105661904D01*
X114800000Y-105623809D01*
X114819047Y-105604761D01*
X114857142Y-105585714D01*
X114876190Y-105585714D01*
X114914285Y-105604761D01*
X114933333Y-105623809D01*
X114952380Y-105661904D01*
X114952380Y-105738095D01*
X114971428Y-105776190D01*
X114990476Y-105795238D01*
X115028571Y-105814285D01*
X115104761Y-105814285D01*
X115142857Y-105795238D01*
X115161904Y-105776190D01*
X115180952Y-105738095D01*
X115180952Y-105661904D01*
X115161904Y-105623809D01*
X115142857Y-105604761D01*
X115104761Y-105585714D01*
X115028571Y-105585714D01*
X114990476Y-105604761D01*
X114971428Y-105623809D01*
X114952380Y-105661904D01*
D10*
X120582380Y-106019047D02*
X120582380Y-106590476D01*
X120582380Y-106304761D02*
X119582380Y-106304761D01*
X119725238Y-106400000D01*
X119820476Y-106495238D01*
X119868095Y-106590476D01*
X120582380Y-105590476D02*
X119582380Y-105590476D01*
X120201428Y-105495238D02*
X120582380Y-105209523D01*
X119915714Y-105209523D02*
X120296666Y-105590476D01*
D13*
X118880952Y-105966666D02*
X118690476Y-106100000D01*
X118880952Y-106195238D02*
X118480952Y-106195238D01*
X118480952Y-106042857D01*
X118500000Y-106004761D01*
X118519047Y-105985714D01*
X118557142Y-105966666D01*
X118614285Y-105966666D01*
X118652380Y-105985714D01*
X118671428Y-106004761D01*
X118690476Y-106042857D01*
X118690476Y-106195238D01*
X118480952Y-105833333D02*
X118480952Y-105566666D01*
X118880952Y-105738095D01*
D10*
X114882380Y-93571428D02*
X114882380Y-94142857D01*
X114882380Y-93857142D02*
X113882380Y-93857142D01*
X114025238Y-93952380D01*
X114120476Y-94047619D01*
X114168095Y-94142857D01*
X113882380Y-92952380D02*
X113882380Y-92857142D01*
X113930000Y-92761904D01*
X113977619Y-92714285D01*
X114072857Y-92666666D01*
X114263333Y-92619047D01*
X114501428Y-92619047D01*
X114691904Y-92666666D01*
X114787142Y-92714285D01*
X114834761Y-92761904D01*
X114882380Y-92857142D01*
X114882380Y-92952380D01*
X114834761Y-93047619D01*
X114787142Y-93095238D01*
X114691904Y-93142857D01*
X114501428Y-93190476D01*
X114263333Y-93190476D01*
X114072857Y-93142857D01*
X113977619Y-93095238D01*
X113930000Y-93047619D01*
X113882380Y-92952380D01*
X113882380Y-92000000D02*
X113882380Y-91904761D01*
X113930000Y-91809523D01*
X113977619Y-91761904D01*
X114072857Y-91714285D01*
X114263333Y-91666666D01*
X114501428Y-91666666D01*
X114691904Y-91714285D01*
X114787142Y-91761904D01*
X114834761Y-91809523D01*
X114882380Y-91904761D01*
X114882380Y-92000000D01*
X114834761Y-92095238D01*
X114787142Y-92142857D01*
X114691904Y-92190476D01*
X114501428Y-92238095D01*
X114263333Y-92238095D01*
X114072857Y-92190476D01*
X113977619Y-92142857D01*
X113930000Y-92095238D01*
X113882380Y-92000000D01*
X114882380Y-91238095D02*
X113882380Y-91238095D01*
X114501428Y-91142857D02*
X114882380Y-90857142D01*
X114215714Y-90857142D02*
X114596666Y-91238095D01*
D13*
X113180952Y-92566666D02*
X112990476Y-92700000D01*
X113180952Y-92795238D02*
X112780952Y-92795238D01*
X112780952Y-92642857D01*
X112800000Y-92604761D01*
X112819047Y-92585714D01*
X112857142Y-92566666D01*
X112914285Y-92566666D01*
X112952380Y-92585714D01*
X112971428Y-92604761D01*
X112990476Y-92642857D01*
X112990476Y-92795238D01*
X112780952Y-92433333D02*
X112780952Y-92185714D01*
X112933333Y-92319047D01*
X112933333Y-92261904D01*
X112952380Y-92223809D01*
X112971428Y-92204761D01*
X113009523Y-92185714D01*
X113104761Y-92185714D01*
X113142857Y-92204761D01*
X113161904Y-92223809D01*
X113180952Y-92261904D01*
X113180952Y-92376190D01*
X113161904Y-92414285D01*
X113142857Y-92433333D01*
D10*
X100196333Y-117821000D02*
X100101095Y-117773380D01*
X99958238Y-117773380D01*
X99815380Y-117821000D01*
X99720142Y-117916238D01*
X99672523Y-118011476D01*
X99624904Y-118201952D01*
X99624904Y-118344809D01*
X99672523Y-118535285D01*
X99720142Y-118630523D01*
X99815380Y-118725761D01*
X99958238Y-118773380D01*
X100053476Y-118773380D01*
X100196333Y-118725761D01*
X100243952Y-118678142D01*
X100243952Y-118344809D01*
X100053476Y-118344809D01*
X101101095Y-117773380D02*
X100910619Y-117773380D01*
X100815380Y-117821000D01*
X100767761Y-117868619D01*
X100672523Y-118011476D01*
X100624904Y-118201952D01*
X100624904Y-118582904D01*
X100672523Y-118678142D01*
X100720142Y-118725761D01*
X100815380Y-118773380D01*
X101005857Y-118773380D01*
X101101095Y-118725761D01*
X101148714Y-118678142D01*
X101196333Y-118582904D01*
X101196333Y-118344809D01*
X101148714Y-118249571D01*
X101101095Y-118201952D01*
X101005857Y-118154333D01*
X100815380Y-118154333D01*
X100720142Y-118201952D01*
X100672523Y-118249571D01*
X100624904Y-118344809D01*
X101577285Y-118487666D02*
X102053476Y-118487666D01*
X101482047Y-118773380D02*
X101815380Y-117773380D01*
X102148714Y-118773380D01*
X102482047Y-117773380D02*
X102482047Y-118582904D01*
X102529666Y-118678142D01*
X102577285Y-118725761D01*
X102672523Y-118773380D01*
X102863000Y-118773380D01*
X102958238Y-118725761D01*
X103005857Y-118678142D01*
X103053476Y-118582904D01*
X103053476Y-117773380D01*
X101461904Y-111352380D02*
X101461904Y-110352380D01*
X102033333Y-111352380D02*
X101604761Y-110780952D01*
X102033333Y-110352380D02*
X101461904Y-110923809D01*
X102985714Y-111352380D02*
X102414285Y-111352380D01*
X102700000Y-111352380D02*
X102700000Y-110352380D01*
X102604761Y-110495238D01*
X102509523Y-110590476D01*
X102414285Y-110638095D01*
X119166666Y-114952380D02*
X119166666Y-115666666D01*
X119119047Y-115809523D01*
X119023809Y-115904761D01*
X118880952Y-115952380D01*
X118785714Y-115952380D01*
X119547619Y-114952380D02*
X120166666Y-114952380D01*
X119833333Y-115333333D01*
X119976190Y-115333333D01*
X120071428Y-115380952D01*
X120119047Y-115428571D01*
X120166666Y-115523809D01*
X120166666Y-115761904D01*
X120119047Y-115857142D01*
X120071428Y-115904761D01*
X119976190Y-115952380D01*
X119690476Y-115952380D01*
X119595238Y-115904761D01*
X119547619Y-115857142D01*
D14*
X124507142Y-115300000D02*
X125150000Y-115300000D01*
X125278571Y-115342857D01*
X125364285Y-115428571D01*
X125407142Y-115557142D01*
X125407142Y-115642857D01*
X124807142Y-114485714D02*
X125407142Y-114485714D01*
X124464285Y-114700000D02*
X125107142Y-114914285D01*
X125107142Y-114357142D01*
D10*
X90975714Y-102738095D02*
X91642380Y-102738095D01*
X90594761Y-102976190D02*
X91309047Y-103214285D01*
X91309047Y-102595238D01*
X90642380Y-102309523D02*
X90642380Y-101642857D01*
X91642380Y-102071428D01*
X90975714Y-100833333D02*
X91642380Y-100833333D01*
X90975714Y-101261904D02*
X91499523Y-101261904D01*
X91594761Y-101214285D01*
X91642380Y-101119047D01*
X91642380Y-100976190D01*
X91594761Y-100880952D01*
X91547142Y-100833333D01*
X95357142Y-102166666D02*
X95404761Y-102214285D01*
X95452380Y-102357142D01*
X95452380Y-102452380D01*
X95404761Y-102595238D01*
X95309523Y-102690476D01*
X95214285Y-102738095D01*
X95023809Y-102785714D01*
X94880952Y-102785714D01*
X94690476Y-102738095D01*
X94595238Y-102690476D01*
X94500000Y-102595238D01*
X94452380Y-102452380D01*
X94452380Y-102357142D01*
X94500000Y-102214285D01*
X94547619Y-102166666D01*
X94452380Y-101833333D02*
X94452380Y-101214285D01*
X94833333Y-101547619D01*
X94833333Y-101404761D01*
X94880952Y-101309523D01*
X94928571Y-101261904D01*
X95023809Y-101214285D01*
X95261904Y-101214285D01*
X95357142Y-101261904D01*
X95404761Y-101309523D01*
X95452380Y-101404761D01*
X95452380Y-101690476D01*
X95404761Y-101785714D01*
X95357142Y-101833333D01*
X104382380Y-104119047D02*
X104382380Y-104690476D01*
X104382380Y-104404761D02*
X103382380Y-104404761D01*
X103525238Y-104500000D01*
X103620476Y-104595238D01*
X103668095Y-104690476D01*
X104382380Y-103690476D02*
X103382380Y-103690476D01*
X104001428Y-103595238D02*
X104382380Y-103309523D01*
X103715714Y-103309523D02*
X104096666Y-103690476D01*
D13*
X102680952Y-104066666D02*
X102490476Y-104200000D01*
X102680952Y-104295238D02*
X102280952Y-104295238D01*
X102280952Y-104142857D01*
X102300000Y-104104761D01*
X102319047Y-104085714D01*
X102357142Y-104066666D01*
X102414285Y-104066666D01*
X102452380Y-104085714D01*
X102471428Y-104104761D01*
X102490476Y-104142857D01*
X102490476Y-104295238D01*
X102280952Y-103704761D02*
X102280952Y-103895238D01*
X102471428Y-103914285D01*
X102452380Y-103895238D01*
X102433333Y-103857142D01*
X102433333Y-103761904D01*
X102452380Y-103723809D01*
X102471428Y-103704761D01*
X102509523Y-103685714D01*
X102604761Y-103685714D01*
X102642857Y-103704761D01*
X102661904Y-103723809D01*
X102680952Y-103761904D01*
X102680952Y-103857142D01*
X102661904Y-103895238D01*
X102642857Y-103914285D01*
D10*
X126557142Y-97482380D02*
X125985714Y-97482380D01*
X126271428Y-97482380D02*
X126271428Y-96482380D01*
X126176190Y-96625238D01*
X126080952Y-96720476D01*
X125985714Y-96768095D01*
X127176190Y-96482380D02*
X127271428Y-96482380D01*
X127366666Y-96530000D01*
X127414285Y-96577619D01*
X127461904Y-96672857D01*
X127509523Y-96863333D01*
X127509523Y-97101428D01*
X127461904Y-97291904D01*
X127414285Y-97387142D01*
X127366666Y-97434761D01*
X127271428Y-97482380D01*
X127176190Y-97482380D01*
X127080952Y-97434761D01*
X127033333Y-97387142D01*
X126985714Y-97291904D01*
X126938095Y-97101428D01*
X126938095Y-96863333D01*
X126985714Y-96672857D01*
X127033333Y-96577619D01*
X127080952Y-96530000D01*
X127176190Y-96482380D01*
X127938095Y-96815714D02*
X127938095Y-97482380D01*
X127938095Y-96910952D02*
X127985714Y-96863333D01*
X128080952Y-96815714D01*
X128223809Y-96815714D01*
X128319047Y-96863333D01*
X128366666Y-96958571D01*
X128366666Y-97482380D01*
D13*
X127133333Y-95742857D02*
X127114285Y-95761904D01*
X127057142Y-95780952D01*
X127019047Y-95780952D01*
X126961904Y-95761904D01*
X126923809Y-95723809D01*
X126904761Y-95685714D01*
X126885714Y-95609523D01*
X126885714Y-95552380D01*
X126904761Y-95476190D01*
X126923809Y-95438095D01*
X126961904Y-95400000D01*
X127019047Y-95380952D01*
X127057142Y-95380952D01*
X127114285Y-95400000D01*
X127133333Y-95419047D01*
X127514285Y-95780952D02*
X127285714Y-95780952D01*
X127400000Y-95780952D02*
X127400000Y-95380952D01*
X127361904Y-95438095D01*
X127323809Y-95476190D01*
X127285714Y-95495238D01*
D10*
X119957142Y-94622380D02*
X119385714Y-94622380D01*
X119671428Y-94622380D02*
X119671428Y-93622380D01*
X119576190Y-93765238D01*
X119480952Y-93860476D01*
X119385714Y-93908095D01*
X120576190Y-93622380D02*
X120671428Y-93622380D01*
X120766666Y-93670000D01*
X120814285Y-93717619D01*
X120861904Y-93812857D01*
X120909523Y-94003333D01*
X120909523Y-94241428D01*
X120861904Y-94431904D01*
X120814285Y-94527142D01*
X120766666Y-94574761D01*
X120671428Y-94622380D01*
X120576190Y-94622380D01*
X120480952Y-94574761D01*
X120433333Y-94527142D01*
X120385714Y-94431904D01*
X120338095Y-94241428D01*
X120338095Y-94003333D01*
X120385714Y-93812857D01*
X120433333Y-93717619D01*
X120480952Y-93670000D01*
X120576190Y-93622380D01*
X121338095Y-93955714D02*
X121338095Y-94622380D01*
X121338095Y-94050952D02*
X121385714Y-94003333D01*
X121480952Y-93955714D01*
X121623809Y-93955714D01*
X121719047Y-94003333D01*
X121766666Y-94098571D01*
X121766666Y-94622380D01*
D13*
X120533333Y-95742857D02*
X120514285Y-95761904D01*
X120457142Y-95780952D01*
X120419047Y-95780952D01*
X120361904Y-95761904D01*
X120323809Y-95723809D01*
X120304761Y-95685714D01*
X120285714Y-95609523D01*
X120285714Y-95552380D01*
X120304761Y-95476190D01*
X120323809Y-95438095D01*
X120361904Y-95400000D01*
X120419047Y-95380952D01*
X120457142Y-95380952D01*
X120514285Y-95400000D01*
X120533333Y-95419047D01*
X120685714Y-95419047D02*
X120704761Y-95400000D01*
X120742857Y-95380952D01*
X120838095Y-95380952D01*
X120876190Y-95400000D01*
X120895238Y-95419047D01*
X120914285Y-95457142D01*
X120914285Y-95495238D01*
X120895238Y-95552380D01*
X120666666Y-95780952D01*
X120914285Y-95780952D01*
D10*
X130882380Y-114380952D02*
X130882380Y-114952380D01*
X130882380Y-114666666D02*
X129882380Y-114666666D01*
X130025238Y-114761904D01*
X130120476Y-114857142D01*
X130168095Y-114952380D01*
X130787142Y-113952380D02*
X130834761Y-113904761D01*
X130882380Y-113952380D01*
X130834761Y-114000000D01*
X130787142Y-113952380D01*
X130882380Y-113952380D01*
X129882380Y-113000000D02*
X129882380Y-113476190D01*
X130358571Y-113523809D01*
X130310952Y-113476190D01*
X130263333Y-113380952D01*
X130263333Y-113142857D01*
X130310952Y-113047619D01*
X130358571Y-113000000D01*
X130453809Y-112952380D01*
X130691904Y-112952380D01*
X130787142Y-113000000D01*
X130834761Y-113047619D01*
X130882380Y-113142857D01*
X130882380Y-113380952D01*
X130834761Y-113476190D01*
X130787142Y-113523809D01*
X130215714Y-112523809D02*
X131215714Y-112523809D01*
X130263333Y-112523809D02*
X130215714Y-112428571D01*
X130215714Y-112238095D01*
X130263333Y-112142857D01*
X130310952Y-112095238D01*
X130406190Y-112047619D01*
X130691904Y-112047619D01*
X130787142Y-112095238D01*
X130834761Y-112142857D01*
X130882380Y-112238095D01*
X130882380Y-112428571D01*
X130834761Y-112523809D01*
D13*
X129142857Y-113566666D02*
X129161904Y-113585714D01*
X129180952Y-113642857D01*
X129180952Y-113680952D01*
X129161904Y-113738095D01*
X129123809Y-113776190D01*
X129085714Y-113795238D01*
X129009523Y-113814285D01*
X128952380Y-113814285D01*
X128876190Y-113795238D01*
X128838095Y-113776190D01*
X128800000Y-113738095D01*
X128780952Y-113680952D01*
X128780952Y-113642857D01*
X128800000Y-113585714D01*
X128819047Y-113566666D01*
X128914285Y-113223809D02*
X129180952Y-113223809D01*
X128761904Y-113319047D02*
X129047619Y-113414285D01*
X129047619Y-113166666D01*
D10*
X130005714Y-93726190D02*
X130672380Y-93726190D01*
X129624761Y-93964285D02*
X130339047Y-94202380D01*
X130339047Y-93583333D01*
X130577142Y-93202380D02*
X130624761Y-93154761D01*
X130672380Y-93202380D01*
X130624761Y-93250000D01*
X130577142Y-93202380D01*
X130672380Y-93202380D01*
X129672380Y-92821428D02*
X129672380Y-92154761D01*
X130672380Y-92583333D01*
X130005714Y-91345238D02*
X130672380Y-91345238D01*
X130005714Y-91773809D02*
X130529523Y-91773809D01*
X130624761Y-91726190D01*
X130672380Y-91630952D01*
X130672380Y-91488095D01*
X130624761Y-91392857D01*
X130577142Y-91345238D01*
D15*
X132078571Y-92833333D02*
X132102380Y-92857142D01*
X132126190Y-92928571D01*
X132126190Y-92976190D01*
X132102380Y-93047619D01*
X132054761Y-93095238D01*
X132007142Y-93119047D01*
X131911904Y-93142857D01*
X131840476Y-93142857D01*
X131745238Y-93119047D01*
X131697619Y-93095238D01*
X131650000Y-93047619D01*
X131626190Y-92976190D01*
X131626190Y-92928571D01*
X131650000Y-92857142D01*
X131673809Y-92833333D01*
X131626190Y-92666666D02*
X131626190Y-92333333D01*
X132126190Y-92547619D01*
D10*
X138472380Y-93242857D02*
X138472380Y-93814285D01*
X138472380Y-93528571D02*
X137472380Y-93528571D01*
X137615238Y-93623809D01*
X137710476Y-93719047D01*
X137758095Y-93814285D01*
X137472380Y-92623809D02*
X137472380Y-92528571D01*
X137520000Y-92433333D01*
X137567619Y-92385714D01*
X137662857Y-92338095D01*
X137853333Y-92290476D01*
X138091428Y-92290476D01*
X138281904Y-92338095D01*
X138377142Y-92385714D01*
X138424761Y-92433333D01*
X138472380Y-92528571D01*
X138472380Y-92623809D01*
X138424761Y-92719047D01*
X138377142Y-92766666D01*
X138281904Y-92814285D01*
X138091428Y-92861904D01*
X137853333Y-92861904D01*
X137662857Y-92814285D01*
X137567619Y-92766666D01*
X137520000Y-92719047D01*
X137472380Y-92623809D01*
X137805714Y-91861904D02*
X138472380Y-91861904D01*
X137900952Y-91861904D02*
X137853333Y-91814285D01*
X137805714Y-91719047D01*
X137805714Y-91576190D01*
X137853333Y-91480952D01*
X137948571Y-91433333D01*
X138472380Y-91433333D01*
D13*
X139592857Y-92666666D02*
X139611904Y-92685714D01*
X139630952Y-92742857D01*
X139630952Y-92780952D01*
X139611904Y-92838095D01*
X139573809Y-92876190D01*
X139535714Y-92895238D01*
X139459523Y-92914285D01*
X139402380Y-92914285D01*
X139326190Y-92895238D01*
X139288095Y-92876190D01*
X139250000Y-92838095D01*
X139230952Y-92780952D01*
X139230952Y-92742857D01*
X139250000Y-92685714D01*
X139269047Y-92666666D01*
X139402380Y-92438095D02*
X139383333Y-92476190D01*
X139364285Y-92495238D01*
X139326190Y-92514285D01*
X139307142Y-92514285D01*
X139269047Y-92495238D01*
X139250000Y-92476190D01*
X139230952Y-92438095D01*
X139230952Y-92361904D01*
X139250000Y-92323809D01*
X139269047Y-92304761D01*
X139307142Y-92285714D01*
X139326190Y-92285714D01*
X139364285Y-92304761D01*
X139383333Y-92323809D01*
X139402380Y-92361904D01*
X139402380Y-92438095D01*
X139421428Y-92476190D01*
X139440476Y-92495238D01*
X139478571Y-92514285D01*
X139554761Y-92514285D01*
X139592857Y-92495238D01*
X139611904Y-92476190D01*
X139630952Y-92438095D01*
X139630952Y-92361904D01*
X139611904Y-92323809D01*
X139592857Y-92304761D01*
X139554761Y-92285714D01*
X139478571Y-92285714D01*
X139440476Y-92304761D01*
X139421428Y-92323809D01*
X139402380Y-92361904D01*
D10*
X139805714Y-93776190D02*
X140472380Y-93776190D01*
X139424761Y-94014285D02*
X140139047Y-94252380D01*
X140139047Y-93633333D01*
X140377142Y-93252380D02*
X140424761Y-93204761D01*
X140472380Y-93252380D01*
X140424761Y-93300000D01*
X140377142Y-93252380D01*
X140472380Y-93252380D01*
X139472380Y-92871428D02*
X139472380Y-92204761D01*
X140472380Y-92633333D01*
X139805714Y-91395238D02*
X140472380Y-91395238D01*
X139805714Y-91823809D02*
X140329523Y-91823809D01*
X140424761Y-91776190D01*
X140472380Y-91680952D01*
X140472380Y-91538095D01*
X140424761Y-91442857D01*
X140377142Y-91395238D01*
D15*
X141878571Y-92883333D02*
X141902380Y-92907142D01*
X141926190Y-92978571D01*
X141926190Y-93026190D01*
X141902380Y-93097619D01*
X141854761Y-93145238D01*
X141807142Y-93169047D01*
X141711904Y-93192857D01*
X141640476Y-93192857D01*
X141545238Y-93169047D01*
X141497619Y-93145238D01*
X141450000Y-93097619D01*
X141426190Y-93026190D01*
X141426190Y-92978571D01*
X141450000Y-92907142D01*
X141473809Y-92883333D01*
X141926190Y-92645238D02*
X141926190Y-92550000D01*
X141902380Y-92502380D01*
X141878571Y-92478571D01*
X141807142Y-92430952D01*
X141711904Y-92407142D01*
X141521428Y-92407142D01*
X141473809Y-92430952D01*
X141450000Y-92454761D01*
X141426190Y-92502380D01*
X141426190Y-92597619D01*
X141450000Y-92645238D01*
X141473809Y-92669047D01*
X141521428Y-92692857D01*
X141640476Y-92692857D01*
X141688095Y-92669047D01*
X141711904Y-92645238D01*
X141735714Y-92597619D01*
X141735714Y-92502380D01*
X141711904Y-92454761D01*
X141688095Y-92430952D01*
X141640476Y-92407142D01*
D10*
X142273809Y-105365714D02*
X142273809Y-106032380D01*
X142035714Y-104984761D02*
X141797619Y-105699047D01*
X142416666Y-105699047D01*
X142797619Y-105937142D02*
X142845238Y-105984761D01*
X142797619Y-106032380D01*
X142750000Y-105984761D01*
X142797619Y-105937142D01*
X142797619Y-106032380D01*
X143178571Y-105032380D02*
X143845238Y-105032380D01*
X143416666Y-106032380D01*
X144654761Y-105365714D02*
X144654761Y-106032380D01*
X144226190Y-105365714D02*
X144226190Y-105889523D01*
X144273809Y-105984761D01*
X144369047Y-106032380D01*
X144511904Y-106032380D01*
X144607142Y-105984761D01*
X144654761Y-105937142D01*
D15*
X142928571Y-104078571D02*
X142904761Y-104102380D01*
X142833333Y-104126190D01*
X142785714Y-104126190D01*
X142714285Y-104102380D01*
X142666666Y-104054761D01*
X142642857Y-104007142D01*
X142619047Y-103911904D01*
X142619047Y-103840476D01*
X142642857Y-103745238D01*
X142666666Y-103697619D01*
X142714285Y-103650000D01*
X142785714Y-103626190D01*
X142833333Y-103626190D01*
X142904761Y-103650000D01*
X142928571Y-103673809D01*
X143404761Y-104126190D02*
X143119047Y-104126190D01*
X143261904Y-104126190D02*
X143261904Y-103626190D01*
X143214285Y-103697619D01*
X143166666Y-103745238D01*
X143119047Y-103769047D01*
X143714285Y-103626190D02*
X143761904Y-103626190D01*
X143809523Y-103650000D01*
X143833333Y-103673809D01*
X143857142Y-103721428D01*
X143880952Y-103816666D01*
X143880952Y-103935714D01*
X143857142Y-104030952D01*
X143833333Y-104078571D01*
X143809523Y-104102380D01*
X143761904Y-104126190D01*
X143714285Y-104126190D01*
X143666666Y-104102380D01*
X143642857Y-104078571D01*
X143619047Y-104030952D01*
X143595238Y-103935714D01*
X143595238Y-103816666D01*
X143619047Y-103721428D01*
X143642857Y-103673809D01*
X143666666Y-103650000D01*
X143714285Y-103626190D01*
D10*
X142382380Y-108792857D02*
X142382380Y-109364285D01*
X142382380Y-109078571D02*
X141382380Y-109078571D01*
X141525238Y-109173809D01*
X141620476Y-109269047D01*
X141668095Y-109364285D01*
X141382380Y-108173809D02*
X141382380Y-108078571D01*
X141430000Y-107983333D01*
X141477619Y-107935714D01*
X141572857Y-107888095D01*
X141763333Y-107840476D01*
X142001428Y-107840476D01*
X142191904Y-107888095D01*
X142287142Y-107935714D01*
X142334761Y-107983333D01*
X142382380Y-108078571D01*
X142382380Y-108173809D01*
X142334761Y-108269047D01*
X142287142Y-108316666D01*
X142191904Y-108364285D01*
X142001428Y-108411904D01*
X141763333Y-108411904D01*
X141572857Y-108364285D01*
X141477619Y-108316666D01*
X141430000Y-108269047D01*
X141382380Y-108173809D01*
X141715714Y-107411904D02*
X142382380Y-107411904D01*
X141810952Y-107411904D02*
X141763333Y-107364285D01*
X141715714Y-107269047D01*
X141715714Y-107126190D01*
X141763333Y-107030952D01*
X141858571Y-106983333D01*
X142382380Y-106983333D01*
D13*
X140642857Y-108407142D02*
X140661904Y-108426190D01*
X140680952Y-108483333D01*
X140680952Y-108521428D01*
X140661904Y-108578571D01*
X140623809Y-108616666D01*
X140585714Y-108635714D01*
X140509523Y-108654761D01*
X140452380Y-108654761D01*
X140376190Y-108635714D01*
X140338095Y-108616666D01*
X140300000Y-108578571D01*
X140280952Y-108521428D01*
X140280952Y-108483333D01*
X140300000Y-108426190D01*
X140319047Y-108407142D01*
X140680952Y-108026190D02*
X140680952Y-108254761D01*
X140680952Y-108140476D02*
X140280952Y-108140476D01*
X140338095Y-108178571D01*
X140376190Y-108216666D01*
X140395238Y-108254761D01*
X140680952Y-107645238D02*
X140680952Y-107873809D01*
X140680952Y-107759523D02*
X140280952Y-107759523D01*
X140338095Y-107797619D01*
X140376190Y-107835714D01*
X140395238Y-107873809D01*
D10*
X142323809Y-109105714D02*
X142323809Y-109772380D01*
X142085714Y-108724761D02*
X141847619Y-109439047D01*
X142466666Y-109439047D01*
X142847619Y-109677142D02*
X142895238Y-109724761D01*
X142847619Y-109772380D01*
X142800000Y-109724761D01*
X142847619Y-109677142D01*
X142847619Y-109772380D01*
X143228571Y-108772380D02*
X143895238Y-108772380D01*
X143466666Y-109772380D01*
X144704761Y-109105714D02*
X144704761Y-109772380D01*
X144276190Y-109105714D02*
X144276190Y-109629523D01*
X144323809Y-109724761D01*
X144419047Y-109772380D01*
X144561904Y-109772380D01*
X144657142Y-109724761D01*
X144704761Y-109677142D01*
D15*
X142978571Y-111178571D02*
X142954761Y-111202380D01*
X142883333Y-111226190D01*
X142835714Y-111226190D01*
X142764285Y-111202380D01*
X142716666Y-111154761D01*
X142692857Y-111107142D01*
X142669047Y-111011904D01*
X142669047Y-110940476D01*
X142692857Y-110845238D01*
X142716666Y-110797619D01*
X142764285Y-110750000D01*
X142835714Y-110726190D01*
X142883333Y-110726190D01*
X142954761Y-110750000D01*
X142978571Y-110773809D01*
X143454761Y-111226190D02*
X143169047Y-111226190D01*
X143311904Y-111226190D02*
X143311904Y-110726190D01*
X143264285Y-110797619D01*
X143216666Y-110845238D01*
X143169047Y-110869047D01*
X143645238Y-110773809D02*
X143669047Y-110750000D01*
X143716666Y-110726190D01*
X143835714Y-110726190D01*
X143883333Y-110750000D01*
X143907142Y-110773809D01*
X143930952Y-110821428D01*
X143930952Y-110869047D01*
X143907142Y-110940476D01*
X143621428Y-111226190D01*
X143930952Y-111226190D01*
D10*
X125858571Y-101014285D02*
X125906190Y-100871428D01*
X125953809Y-100823809D01*
X126049047Y-100776190D01*
X126191904Y-100776190D01*
X126287142Y-100823809D01*
X126334761Y-100871428D01*
X126382380Y-100966666D01*
X126382380Y-101347619D01*
X125382380Y-101347619D01*
X125382380Y-101014285D01*
X125430000Y-100919047D01*
X125477619Y-100871428D01*
X125572857Y-100823809D01*
X125668095Y-100823809D01*
X125763333Y-100871428D01*
X125810952Y-100919047D01*
X125858571Y-101014285D01*
X125858571Y-101347619D01*
X126382380Y-99871428D02*
X126382380Y-100347619D01*
X125382380Y-100347619D01*
X126382380Y-99538095D02*
X125382380Y-99538095D01*
X126096666Y-99204761D01*
X125382380Y-98871428D01*
X126382380Y-98871428D01*
X126382380Y-97871428D02*
X126382380Y-98442857D01*
X126382380Y-98157142D02*
X125382380Y-98157142D01*
X125525238Y-98252380D01*
X125620476Y-98347619D01*
X125668095Y-98442857D01*
X125810952Y-97300000D02*
X125763333Y-97395238D01*
X125715714Y-97442857D01*
X125620476Y-97490476D01*
X125572857Y-97490476D01*
X125477619Y-97442857D01*
X125430000Y-97395238D01*
X125382380Y-97300000D01*
X125382380Y-97109523D01*
X125430000Y-97014285D01*
X125477619Y-96966666D01*
X125572857Y-96919047D01*
X125620476Y-96919047D01*
X125715714Y-96966666D01*
X125763333Y-97014285D01*
X125810952Y-97109523D01*
X125810952Y-97300000D01*
X125858571Y-97395238D01*
X125906190Y-97442857D01*
X126001428Y-97490476D01*
X126191904Y-97490476D01*
X126287142Y-97442857D01*
X126334761Y-97395238D01*
X126382380Y-97300000D01*
X126382380Y-97109523D01*
X126334761Y-97014285D01*
X126287142Y-96966666D01*
X126191904Y-96919047D01*
X126001428Y-96919047D01*
X125906190Y-96966666D01*
X125858571Y-97014285D01*
X125810952Y-97109523D01*
X126382380Y-96490476D02*
X125382380Y-96490476D01*
X126382380Y-95919047D02*
X125810952Y-96347619D01*
X125382380Y-95919047D02*
X125953809Y-96490476D01*
X125430000Y-94966666D02*
X125382380Y-95061904D01*
X125382380Y-95204761D01*
X125430000Y-95347619D01*
X125525238Y-95442857D01*
X125620476Y-95490476D01*
X125810952Y-95538095D01*
X125953809Y-95538095D01*
X126144285Y-95490476D01*
X126239523Y-95442857D01*
X126334761Y-95347619D01*
X126382380Y-95204761D01*
X126382380Y-95109523D01*
X126334761Y-94966666D01*
X126287142Y-94919047D01*
X125953809Y-94919047D01*
X125953809Y-95109523D01*
X126382380Y-93966666D02*
X126382380Y-94538095D01*
X126382380Y-94252380D02*
X125382380Y-94252380D01*
X125525238Y-94347619D01*
X125620476Y-94442857D01*
X125668095Y-94538095D01*
X125382380Y-93347619D02*
X125382380Y-93252380D01*
X125430000Y-93157142D01*
X125477619Y-93109523D01*
X125572857Y-93061904D01*
X125763333Y-93014285D01*
X126001428Y-93014285D01*
X126191904Y-93061904D01*
X126287142Y-93109523D01*
X126334761Y-93157142D01*
X126382380Y-93252380D01*
X126382380Y-93347619D01*
X126334761Y-93442857D01*
X126287142Y-93490476D01*
X126191904Y-93538095D01*
X126001428Y-93585714D01*
X125763333Y-93585714D01*
X125572857Y-93538095D01*
X125477619Y-93490476D01*
X125430000Y-93442857D01*
X125382380Y-93347619D01*
X125477619Y-92633333D02*
X125430000Y-92585714D01*
X125382380Y-92490476D01*
X125382380Y-92252380D01*
X125430000Y-92157142D01*
X125477619Y-92109523D01*
X125572857Y-92061904D01*
X125668095Y-92061904D01*
X125810952Y-92109523D01*
X126382380Y-92680952D01*
X126382380Y-92061904D01*
X126334761Y-91680952D02*
X126382380Y-91538095D01*
X126382380Y-91300000D01*
X126334761Y-91204761D01*
X126287142Y-91157142D01*
X126191904Y-91109523D01*
X126096666Y-91109523D01*
X126001428Y-91157142D01*
X125953809Y-91204761D01*
X125906190Y-91300000D01*
X125858571Y-91490476D01*
X125810952Y-91585714D01*
X125763333Y-91633333D01*
X125668095Y-91680952D01*
X125572857Y-91680952D01*
X125477619Y-91633333D01*
X125430000Y-91585714D01*
X125382380Y-91490476D01*
X125382380Y-91252380D01*
X125430000Y-91109523D01*
X125382380Y-90776190D02*
X125382380Y-90109523D01*
X126382380Y-90776190D01*
X126382380Y-90109523D01*
X126382380Y-89204761D02*
X126382380Y-89776190D01*
X126382380Y-89490476D02*
X125382380Y-89490476D01*
X125525238Y-89585714D01*
X125620476Y-89680952D01*
X125668095Y-89776190D01*
X126382380Y-88776190D02*
X125382380Y-88776190D01*
X125382380Y-88538095D01*
X125430000Y-88395238D01*
X125525238Y-88300000D01*
X125620476Y-88252380D01*
X125810952Y-88204761D01*
X125953809Y-88204761D01*
X126144285Y-88252380D01*
X126239523Y-88300000D01*
X126334761Y-88395238D01*
X126382380Y-88538095D01*
X126382380Y-88776190D01*
D13*
X124471428Y-95133333D02*
X124471428Y-95266666D01*
X124680952Y-95266666D02*
X124280952Y-95266666D01*
X124280952Y-95076190D01*
X124471428Y-94790476D02*
X124490476Y-94733333D01*
X124509523Y-94714285D01*
X124547619Y-94695238D01*
X124604761Y-94695238D01*
X124642857Y-94714285D01*
X124661904Y-94733333D01*
X124680952Y-94771428D01*
X124680952Y-94923809D01*
X124280952Y-94923809D01*
X124280952Y-94790476D01*
X124300000Y-94752380D01*
X124319047Y-94733333D01*
X124357142Y-94714285D01*
X124395238Y-94714285D01*
X124433333Y-94733333D01*
X124452380Y-94752380D01*
X124471428Y-94790476D01*
X124471428Y-94923809D01*
X124680952Y-94314285D02*
X124680952Y-94542857D01*
X124680952Y-94428571D02*
X124280952Y-94428571D01*
X124338095Y-94466666D01*
X124376190Y-94504761D01*
X124395238Y-94542857D01*
D10*
X124358571Y-101014285D02*
X124406190Y-100871428D01*
X124453809Y-100823809D01*
X124549047Y-100776190D01*
X124691904Y-100776190D01*
X124787142Y-100823809D01*
X124834761Y-100871428D01*
X124882380Y-100966666D01*
X124882380Y-101347619D01*
X123882380Y-101347619D01*
X123882380Y-101014285D01*
X123930000Y-100919047D01*
X123977619Y-100871428D01*
X124072857Y-100823809D01*
X124168095Y-100823809D01*
X124263333Y-100871428D01*
X124310952Y-100919047D01*
X124358571Y-101014285D01*
X124358571Y-101347619D01*
X124882380Y-99871428D02*
X124882380Y-100347619D01*
X123882380Y-100347619D01*
X124882380Y-99538095D02*
X123882380Y-99538095D01*
X124596666Y-99204761D01*
X123882380Y-98871428D01*
X124882380Y-98871428D01*
X124882380Y-97871428D02*
X124882380Y-98442857D01*
X124882380Y-98157142D02*
X123882380Y-98157142D01*
X124025238Y-98252380D01*
X124120476Y-98347619D01*
X124168095Y-98442857D01*
X124310952Y-97300000D02*
X124263333Y-97395238D01*
X124215714Y-97442857D01*
X124120476Y-97490476D01*
X124072857Y-97490476D01*
X123977619Y-97442857D01*
X123930000Y-97395238D01*
X123882380Y-97300000D01*
X123882380Y-97109523D01*
X123930000Y-97014285D01*
X123977619Y-96966666D01*
X124072857Y-96919047D01*
X124120476Y-96919047D01*
X124215714Y-96966666D01*
X124263333Y-97014285D01*
X124310952Y-97109523D01*
X124310952Y-97300000D01*
X124358571Y-97395238D01*
X124406190Y-97442857D01*
X124501428Y-97490476D01*
X124691904Y-97490476D01*
X124787142Y-97442857D01*
X124834761Y-97395238D01*
X124882380Y-97300000D01*
X124882380Y-97109523D01*
X124834761Y-97014285D01*
X124787142Y-96966666D01*
X124691904Y-96919047D01*
X124501428Y-96919047D01*
X124406190Y-96966666D01*
X124358571Y-97014285D01*
X124310952Y-97109523D01*
X124882380Y-96490476D02*
X123882380Y-96490476D01*
X124882380Y-95919047D02*
X124310952Y-96347619D01*
X123882380Y-95919047D02*
X124453809Y-96490476D01*
X123930000Y-94966666D02*
X123882380Y-95061904D01*
X123882380Y-95204761D01*
X123930000Y-95347619D01*
X124025238Y-95442857D01*
X124120476Y-95490476D01*
X124310952Y-95538095D01*
X124453809Y-95538095D01*
X124644285Y-95490476D01*
X124739523Y-95442857D01*
X124834761Y-95347619D01*
X124882380Y-95204761D01*
X124882380Y-95109523D01*
X124834761Y-94966666D01*
X124787142Y-94919047D01*
X124453809Y-94919047D01*
X124453809Y-95109523D01*
X124882380Y-93966666D02*
X124882380Y-94538095D01*
X124882380Y-94252380D02*
X123882380Y-94252380D01*
X124025238Y-94347619D01*
X124120476Y-94442857D01*
X124168095Y-94538095D01*
X123882380Y-93347619D02*
X123882380Y-93252380D01*
X123930000Y-93157142D01*
X123977619Y-93109523D01*
X124072857Y-93061904D01*
X124263333Y-93014285D01*
X124501428Y-93014285D01*
X124691904Y-93061904D01*
X124787142Y-93109523D01*
X124834761Y-93157142D01*
X124882380Y-93252380D01*
X124882380Y-93347619D01*
X124834761Y-93442857D01*
X124787142Y-93490476D01*
X124691904Y-93538095D01*
X124501428Y-93585714D01*
X124263333Y-93585714D01*
X124072857Y-93538095D01*
X123977619Y-93490476D01*
X123930000Y-93442857D01*
X123882380Y-93347619D01*
X123977619Y-92633333D02*
X123930000Y-92585714D01*
X123882380Y-92490476D01*
X123882380Y-92252380D01*
X123930000Y-92157142D01*
X123977619Y-92109523D01*
X124072857Y-92061904D01*
X124168095Y-92061904D01*
X124310952Y-92109523D01*
X124882380Y-92680952D01*
X124882380Y-92061904D01*
X124834761Y-91680952D02*
X124882380Y-91538095D01*
X124882380Y-91300000D01*
X124834761Y-91204761D01*
X124787142Y-91157142D01*
X124691904Y-91109523D01*
X124596666Y-91109523D01*
X124501428Y-91157142D01*
X124453809Y-91204761D01*
X124406190Y-91300000D01*
X124358571Y-91490476D01*
X124310952Y-91585714D01*
X124263333Y-91633333D01*
X124168095Y-91680952D01*
X124072857Y-91680952D01*
X123977619Y-91633333D01*
X123930000Y-91585714D01*
X123882380Y-91490476D01*
X123882380Y-91252380D01*
X123930000Y-91109523D01*
X123882380Y-90776190D02*
X123882380Y-90109523D01*
X124882380Y-90776190D01*
X124882380Y-90109523D01*
X124882380Y-89204761D02*
X124882380Y-89776190D01*
X124882380Y-89490476D02*
X123882380Y-89490476D01*
X124025238Y-89585714D01*
X124120476Y-89680952D01*
X124168095Y-89776190D01*
X124882380Y-88776190D02*
X123882380Y-88776190D01*
X123882380Y-88538095D01*
X123930000Y-88395238D01*
X124025238Y-88300000D01*
X124120476Y-88252380D01*
X124310952Y-88204761D01*
X124453809Y-88204761D01*
X124644285Y-88252380D01*
X124739523Y-88300000D01*
X124834761Y-88395238D01*
X124882380Y-88538095D01*
X124882380Y-88776190D01*
D13*
X122971428Y-95133333D02*
X122971428Y-95266666D01*
X123180952Y-95266666D02*
X122780952Y-95266666D01*
X122780952Y-95076190D01*
X122971428Y-94790476D02*
X122990476Y-94733333D01*
X123009523Y-94714285D01*
X123047619Y-94695238D01*
X123104761Y-94695238D01*
X123142857Y-94714285D01*
X123161904Y-94733333D01*
X123180952Y-94771428D01*
X123180952Y-94923809D01*
X122780952Y-94923809D01*
X122780952Y-94790476D01*
X122800000Y-94752380D01*
X122819047Y-94733333D01*
X122857142Y-94714285D01*
X122895238Y-94714285D01*
X122933333Y-94733333D01*
X122952380Y-94752380D01*
X122971428Y-94790476D01*
X122971428Y-94923809D01*
X122819047Y-94542857D02*
X122800000Y-94523809D01*
X122780952Y-94485714D01*
X122780952Y-94390476D01*
X122800000Y-94352380D01*
X122819047Y-94333333D01*
X122857142Y-94314285D01*
X122895238Y-94314285D01*
X122952380Y-94333333D01*
X123180952Y-94561904D01*
X123180952Y-94314285D01*
D10*
X132415714Y-106200000D02*
X133082380Y-106200000D01*
X132034761Y-106438095D02*
X132749047Y-106676190D01*
X132749047Y-106057142D01*
X133082380Y-105628571D02*
X133082380Y-105438095D01*
X133034761Y-105342857D01*
X132987142Y-105295238D01*
X132844285Y-105200000D01*
X132653809Y-105152380D01*
X132272857Y-105152380D01*
X132177619Y-105200000D01*
X132130000Y-105247619D01*
X132082380Y-105342857D01*
X132082380Y-105533333D01*
X132130000Y-105628571D01*
X132177619Y-105676190D01*
X132272857Y-105723809D01*
X132510952Y-105723809D01*
X132606190Y-105676190D01*
X132653809Y-105628571D01*
X132701428Y-105533333D01*
X132701428Y-105342857D01*
X132653809Y-105247619D01*
X132606190Y-105200000D01*
X132510952Y-105152380D01*
X132987142Y-104723809D02*
X133034761Y-104676190D01*
X133082380Y-104723809D01*
X133034761Y-104771428D01*
X132987142Y-104723809D01*
X133082380Y-104723809D01*
X133082380Y-104200000D02*
X133082380Y-104009523D01*
X133034761Y-103914285D01*
X132987142Y-103866666D01*
X132844285Y-103771428D01*
X132653809Y-103723809D01*
X132272857Y-103723809D01*
X132177619Y-103771428D01*
X132130000Y-103819047D01*
X132082380Y-103914285D01*
X132082380Y-104104761D01*
X132130000Y-104200000D01*
X132177619Y-104247619D01*
X132272857Y-104295238D01*
X132510952Y-104295238D01*
X132606190Y-104247619D01*
X132653809Y-104200000D01*
X132701428Y-104104761D01*
X132701428Y-103914285D01*
X132653809Y-103819047D01*
X132606190Y-103771428D01*
X132510952Y-103723809D01*
D13*
X131380952Y-105266666D02*
X131190476Y-105400000D01*
X131380952Y-105495238D02*
X130980952Y-105495238D01*
X130980952Y-105342857D01*
X131000000Y-105304761D01*
X131019047Y-105285714D01*
X131057142Y-105266666D01*
X131114285Y-105266666D01*
X131152380Y-105285714D01*
X131171428Y-105304761D01*
X131190476Y-105342857D01*
X131190476Y-105495238D01*
X131380952Y-104885714D02*
X131380952Y-105114285D01*
X131380952Y-105000000D02*
X130980952Y-105000000D01*
X131038095Y-105038095D01*
X131076190Y-105076190D01*
X131095238Y-105114285D01*
D10*
X133082380Y-108590476D02*
X133082380Y-109161904D01*
X133082380Y-108876190D02*
X132082380Y-108876190D01*
X132225238Y-108971428D01*
X132320476Y-109066666D01*
X132368095Y-109161904D01*
X132082380Y-107971428D02*
X132082380Y-107876190D01*
X132130000Y-107780952D01*
X132177619Y-107733333D01*
X132272857Y-107685714D01*
X132463333Y-107638095D01*
X132701428Y-107638095D01*
X132891904Y-107685714D01*
X132987142Y-107733333D01*
X133034761Y-107780952D01*
X133082380Y-107876190D01*
X133082380Y-107971428D01*
X133034761Y-108066666D01*
X132987142Y-108114285D01*
X132891904Y-108161904D01*
X132701428Y-108209523D01*
X132463333Y-108209523D01*
X132272857Y-108161904D01*
X132177619Y-108114285D01*
X132130000Y-108066666D01*
X132082380Y-107971428D01*
D13*
X131380952Y-108466666D02*
X131190476Y-108600000D01*
X131380952Y-108695238D02*
X130980952Y-108695238D01*
X130980952Y-108542857D01*
X131000000Y-108504761D01*
X131019047Y-108485714D01*
X131057142Y-108466666D01*
X131114285Y-108466666D01*
X131152380Y-108485714D01*
X131171428Y-108504761D01*
X131190476Y-108542857D01*
X131190476Y-108695238D01*
X131114285Y-108123809D02*
X131380952Y-108123809D01*
X130961904Y-108219047D02*
X131247619Y-108314285D01*
X131247619Y-108066666D01*
D10*
X134652380Y-113619047D02*
X134652380Y-114190476D01*
X134652380Y-113904761D02*
X133652380Y-113904761D01*
X133795238Y-114000000D01*
X133890476Y-114095238D01*
X133938095Y-114190476D01*
X134652380Y-113190476D02*
X133652380Y-113190476D01*
X134271428Y-113095238D02*
X134652380Y-112809523D01*
X133985714Y-112809523D02*
X134366666Y-113190476D01*
D16*
X132089285Y-114017857D02*
X131732142Y-114267857D01*
X132089285Y-114446428D02*
X131339285Y-114446428D01*
X131339285Y-114160714D01*
X131375000Y-114089285D01*
X131410714Y-114053571D01*
X131482142Y-114017857D01*
X131589285Y-114017857D01*
X131660714Y-114053571D01*
X131696428Y-114089285D01*
X131732142Y-114160714D01*
X131732142Y-114446428D01*
X132089285Y-113696428D02*
X131339285Y-113696428D01*
X132089285Y-113267857D01*
X131339285Y-113267857D01*
X132089285Y-112517857D02*
X132089285Y-112946428D01*
X132089285Y-112732142D02*
X131339285Y-112732142D01*
X131446428Y-112803571D01*
X131517857Y-112875000D01*
X131553571Y-112946428D01*
D10*
X133028571Y-95752380D02*
X132552380Y-95752380D01*
X132552380Y-94752380D01*
X133219047Y-94752380D02*
X133790476Y-94752380D01*
X133504761Y-95752380D02*
X133504761Y-94752380D01*
X134647619Y-95752380D02*
X134076190Y-95752380D01*
X134361904Y-95752380D02*
X134361904Y-94752380D01*
X134266666Y-94895238D01*
X134171428Y-94990476D01*
X134076190Y-95038095D01*
X134980952Y-94752380D02*
X135647619Y-94752380D01*
X135219047Y-95752380D01*
X136457142Y-94752380D02*
X136266666Y-94752380D01*
X136171428Y-94800000D01*
X136123809Y-94847619D01*
X136028571Y-94990476D01*
X135980952Y-95180952D01*
X135980952Y-95561904D01*
X136028571Y-95657142D01*
X136076190Y-95704761D01*
X136171428Y-95752380D01*
X136361904Y-95752380D01*
X136457142Y-95704761D01*
X136504761Y-95657142D01*
X136552380Y-95561904D01*
X136552380Y-95323809D01*
X136504761Y-95228571D01*
X136457142Y-95180952D01*
X136361904Y-95133333D01*
X136171428Y-95133333D01*
X136076190Y-95180952D01*
X136028571Y-95228571D01*
X135980952Y-95323809D01*
X137504761Y-95752380D02*
X136933333Y-95752380D01*
X137219047Y-95752380D02*
X137219047Y-94752380D01*
X137123809Y-94895238D01*
X137028571Y-94990476D01*
X136933333Y-95038095D01*
X137933333Y-95371428D02*
X138695238Y-95371428D01*
X139647619Y-94752380D02*
X139171428Y-94752380D01*
X139123809Y-95228571D01*
X139171428Y-95180952D01*
X139266666Y-95133333D01*
X139504761Y-95133333D01*
X139600000Y-95180952D01*
X139647619Y-95228571D01*
X139695238Y-95323809D01*
X139695238Y-95561904D01*
X139647619Y-95657142D01*
X139600000Y-95704761D01*
X139504761Y-95752380D01*
X139266666Y-95752380D01*
X139171428Y-95704761D01*
X139123809Y-95657142D01*
D11*
X135826190Y-93180952D02*
X136230952Y-93180952D01*
X136278571Y-93157142D01*
X136302380Y-93133333D01*
X136326190Y-93085714D01*
X136326190Y-92990476D01*
X136302380Y-92942857D01*
X136278571Y-92919047D01*
X136230952Y-92895238D01*
X135826190Y-92895238D01*
X135873809Y-92680952D02*
X135850000Y-92657142D01*
X135826190Y-92609523D01*
X135826190Y-92490476D01*
X135850000Y-92442857D01*
X135873809Y-92419047D01*
X135921428Y-92395238D01*
X135969047Y-92395238D01*
X136040476Y-92419047D01*
X136326190Y-92704761D01*
X136326190Y-92395238D01*
D10*
X141202380Y-110471428D02*
X141202380Y-110947619D01*
X140202380Y-110947619D01*
X140202380Y-110280952D02*
X140202380Y-109709523D01*
X141202380Y-109995238D02*
X140202380Y-109995238D01*
X141202380Y-108852380D02*
X141202380Y-109423809D01*
X141202380Y-109138095D02*
X140202380Y-109138095D01*
X140345238Y-109233333D01*
X140440476Y-109328571D01*
X140488095Y-109423809D01*
X141202380Y-108376190D02*
X141202380Y-108185714D01*
X141154761Y-108090476D01*
X141107142Y-108042857D01*
X140964285Y-107947619D01*
X140773809Y-107900000D01*
X140392857Y-107900000D01*
X140297619Y-107947619D01*
X140250000Y-107995238D01*
X140202380Y-108090476D01*
X140202380Y-108280952D01*
X140250000Y-108376190D01*
X140297619Y-108423809D01*
X140392857Y-108471428D01*
X140630952Y-108471428D01*
X140726190Y-108423809D01*
X140773809Y-108376190D01*
X140821428Y-108280952D01*
X140821428Y-108090476D01*
X140773809Y-107995238D01*
X140726190Y-107947619D01*
X140630952Y-107900000D01*
X140202380Y-107042857D02*
X140202380Y-107233333D01*
X140250000Y-107328571D01*
X140297619Y-107376190D01*
X140440476Y-107471428D01*
X140630952Y-107519047D01*
X141011904Y-107519047D01*
X141107142Y-107471428D01*
X141154761Y-107423809D01*
X141202380Y-107328571D01*
X141202380Y-107138095D01*
X141154761Y-107042857D01*
X141107142Y-106995238D01*
X141011904Y-106947619D01*
X140773809Y-106947619D01*
X140678571Y-106995238D01*
X140630952Y-107042857D01*
X140583333Y-107138095D01*
X140583333Y-107328571D01*
X140630952Y-107423809D01*
X140678571Y-107471428D01*
X140773809Y-107519047D01*
X140535714Y-106090476D02*
X141202380Y-106090476D01*
X140154761Y-106328571D02*
X140869047Y-106566666D01*
X140869047Y-105947619D01*
X140821428Y-105566666D02*
X140821428Y-104804761D01*
X140202380Y-103852380D02*
X140202380Y-104328571D01*
X140678571Y-104376190D01*
X140630952Y-104328571D01*
X140583333Y-104233333D01*
X140583333Y-103995238D01*
X140630952Y-103900000D01*
X140678571Y-103852380D01*
X140773809Y-103804761D01*
X141011904Y-103804761D01*
X141107142Y-103852380D01*
X141154761Y-103900000D01*
X141202380Y-103995238D01*
X141202380Y-104233333D01*
X141154761Y-104328571D01*
X141107142Y-104376190D01*
D11*
X142869047Y-107126190D02*
X142869047Y-107530952D01*
X142892857Y-107578571D01*
X142916666Y-107602380D01*
X142964285Y-107626190D01*
X143059523Y-107626190D01*
X143107142Y-107602380D01*
X143130952Y-107578571D01*
X143154761Y-107530952D01*
X143154761Y-107126190D01*
X143345238Y-107126190D02*
X143654761Y-107126190D01*
X143488095Y-107316666D01*
X143559523Y-107316666D01*
X143607142Y-107340476D01*
X143630952Y-107364285D01*
X143654761Y-107411904D01*
X143654761Y-107530952D01*
X143630952Y-107578571D01*
X143607142Y-107602380D01*
X143559523Y-107626190D01*
X143416666Y-107626190D01*
X143369047Y-107602380D01*
X143345238Y-107578571D01*
D10*
X138616666Y-119166666D02*
X138616666Y-118690476D01*
X138902380Y-119261904D02*
X137902380Y-118928571D01*
X138902380Y-118595238D01*
X138902380Y-118261904D02*
X137902380Y-118261904D01*
X137902380Y-118023809D01*
X137950000Y-117880952D01*
X138045238Y-117785714D01*
X138140476Y-117738095D01*
X138330952Y-117690476D01*
X138473809Y-117690476D01*
X138664285Y-117738095D01*
X138759523Y-117785714D01*
X138854761Y-117880952D01*
X138902380Y-118023809D01*
X138902380Y-118261904D01*
X138616666Y-117309523D02*
X138616666Y-116833333D01*
X138902380Y-117404761D02*
X137902380Y-117071428D01*
X138902380Y-116738095D01*
X138235714Y-115976190D02*
X138902380Y-115976190D01*
X137854761Y-116214285D02*
X138569047Y-116452380D01*
X138569047Y-115833333D01*
X138330952Y-115309523D02*
X138283333Y-115404761D01*
X138235714Y-115452380D01*
X138140476Y-115500000D01*
X138092857Y-115500000D01*
X137997619Y-115452380D01*
X137950000Y-115404761D01*
X137902380Y-115309523D01*
X137902380Y-115119047D01*
X137950000Y-115023809D01*
X137997619Y-114976190D01*
X138092857Y-114928571D01*
X138140476Y-114928571D01*
X138235714Y-114976190D01*
X138283333Y-115023809D01*
X138330952Y-115119047D01*
X138330952Y-115309523D01*
X138378571Y-115404761D01*
X138426190Y-115452380D01*
X138521428Y-115500000D01*
X138711904Y-115500000D01*
X138807142Y-115452380D01*
X138854761Y-115404761D01*
X138902380Y-115309523D01*
X138902380Y-115119047D01*
X138854761Y-115023809D01*
X138807142Y-114976190D01*
X138711904Y-114928571D01*
X138521428Y-114928571D01*
X138426190Y-114976190D01*
X138378571Y-115023809D01*
X138330952Y-115119047D01*
X137902380Y-114309523D02*
X137902380Y-114214285D01*
X137950000Y-114119047D01*
X137997619Y-114071428D01*
X138092857Y-114023809D01*
X138283333Y-113976190D01*
X138521428Y-113976190D01*
X138711904Y-114023809D01*
X138807142Y-114071428D01*
X138854761Y-114119047D01*
X138902380Y-114214285D01*
X138902380Y-114309523D01*
X138854761Y-114404761D01*
X138807142Y-114452380D01*
X138711904Y-114500000D01*
X138521428Y-114547619D01*
X138283333Y-114547619D01*
X138092857Y-114500000D01*
X137997619Y-114452380D01*
X137950000Y-114404761D01*
X137902380Y-114309523D01*
X137902380Y-113642857D02*
X137902380Y-112976190D01*
X138902380Y-113404761D01*
X138521428Y-112595238D02*
X138521428Y-111833333D01*
X137997619Y-111404761D02*
X137950000Y-111357142D01*
X137902380Y-111261904D01*
X137902380Y-111023809D01*
X137950000Y-110928571D01*
X137997619Y-110880952D01*
X138092857Y-110833333D01*
X138188095Y-110833333D01*
X138330952Y-110880952D01*
X138902380Y-111452380D01*
X138902380Y-110833333D01*
X138616666Y-110452380D02*
X138616666Y-109976190D01*
X138902380Y-110547619D02*
X137902380Y-110214285D01*
X138902380Y-109880952D01*
X138902380Y-108976190D02*
X138426190Y-109309523D01*
X138902380Y-109547619D02*
X137902380Y-109547619D01*
X137902380Y-109166666D01*
X137950000Y-109071428D01*
X137997619Y-109023809D01*
X138092857Y-108976190D01*
X138235714Y-108976190D01*
X138330952Y-109023809D01*
X138378571Y-109071428D01*
X138426190Y-109166666D01*
X138426190Y-109547619D01*
X138902380Y-108547619D02*
X137902380Y-108547619D01*
X138616666Y-108214285D01*
X137902380Y-107880952D01*
X138902380Y-107880952D01*
D16*
X135589285Y-114071428D02*
X136196428Y-114071428D01*
X136267857Y-114035714D01*
X136303571Y-114000000D01*
X136339285Y-113928571D01*
X136339285Y-113785714D01*
X136303571Y-113714285D01*
X136267857Y-113678571D01*
X136196428Y-113642857D01*
X135589285Y-113642857D01*
X136339285Y-112892857D02*
X136339285Y-113321428D01*
X136339285Y-113107142D02*
X135589285Y-113107142D01*
X135696428Y-113178571D01*
X135767857Y-113250000D01*
X135803571Y-113321428D01*
D17*
X149750000Y-92771428D02*
X149750000Y-93200000D01*
X149721428Y-93285714D01*
X149664285Y-93342857D01*
X149578571Y-93371428D01*
X149521428Y-93371428D01*
X150321428Y-92771428D02*
X150035714Y-92771428D01*
X150007142Y-93057142D01*
X150035714Y-93028571D01*
X150092857Y-93000000D01*
X150235714Y-93000000D01*
X150292857Y-93028571D01*
X150321428Y-93057142D01*
X150350000Y-93114285D01*
X150350000Y-93257142D01*
X150321428Y-93314285D01*
X150292857Y-93342857D01*
X150235714Y-93371428D01*
X150092857Y-93371428D01*
X150035714Y-93342857D01*
X150007142Y-93314285D01*
X155476600Y-92800528D02*
X155476600Y-93229100D01*
X155448028Y-93314814D01*
X155390885Y-93371957D01*
X155305171Y-93400528D01*
X155248028Y-93400528D01*
X156019457Y-92800528D02*
X155905171Y-92800528D01*
X155848028Y-92829100D01*
X155819457Y-92857671D01*
X155762314Y-92943385D01*
X155733742Y-93057671D01*
X155733742Y-93286242D01*
X155762314Y-93343385D01*
X155790885Y-93371957D01*
X155848028Y-93400528D01*
X155962314Y-93400528D01*
X156019457Y-93371957D01*
X156048028Y-93343385D01*
X156076600Y-93286242D01*
X156076600Y-93143385D01*
X156048028Y-93086242D01*
X156019457Y-93057671D01*
X155962314Y-93029100D01*
X155848028Y-93029100D01*
X155790885Y-93057671D01*
X155762314Y-93086242D01*
X155733742Y-93143385D01*
D10*
X139322380Y-117314285D02*
X138322380Y-117314285D01*
X138322380Y-117076190D01*
X138370000Y-116933333D01*
X138465238Y-116838095D01*
X138560476Y-116790476D01*
X138750952Y-116742857D01*
X138893809Y-116742857D01*
X139084285Y-116790476D01*
X139179523Y-116838095D01*
X139274761Y-116933333D01*
X139322380Y-117076190D01*
X139322380Y-117314285D01*
X139322380Y-116314285D02*
X138322380Y-116314285D01*
X139322380Y-115742857D01*
X138322380Y-115742857D01*
X138798571Y-114933333D02*
X138798571Y-115266666D01*
X139322380Y-115266666D02*
X138322380Y-115266666D01*
X138322380Y-114790476D01*
D13*
X140442857Y-116166666D02*
X140461904Y-116185714D01*
X140480952Y-116242857D01*
X140480952Y-116280952D01*
X140461904Y-116338095D01*
X140423809Y-116376190D01*
X140385714Y-116395238D01*
X140309523Y-116414285D01*
X140252380Y-116414285D01*
X140176190Y-116395238D01*
X140138095Y-116376190D01*
X140100000Y-116338095D01*
X140080952Y-116280952D01*
X140080952Y-116242857D01*
X140100000Y-116185714D01*
X140119047Y-116166666D01*
X140080952Y-115804761D02*
X140080952Y-115995238D01*
X140271428Y-116014285D01*
X140252380Y-115995238D01*
X140233333Y-115957142D01*
X140233333Y-115861904D01*
X140252380Y-115823809D01*
X140271428Y-115804761D01*
X140309523Y-115785714D01*
X140404761Y-115785714D01*
X140442857Y-115804761D01*
X140461904Y-115823809D01*
X140480952Y-115861904D01*
X140480952Y-115957142D01*
X140461904Y-115995238D01*
X140442857Y-116014285D01*
D10*
X120757142Y-103022380D02*
X120185714Y-103022380D01*
X120471428Y-103022380D02*
X120471428Y-102022380D01*
X120376190Y-102165238D01*
X120280952Y-102260476D01*
X120185714Y-102308095D01*
X121376190Y-102022380D02*
X121471428Y-102022380D01*
X121566666Y-102070000D01*
X121614285Y-102117619D01*
X121661904Y-102212857D01*
X121709523Y-102403333D01*
X121709523Y-102641428D01*
X121661904Y-102831904D01*
X121614285Y-102927142D01*
X121566666Y-102974761D01*
X121471428Y-103022380D01*
X121376190Y-103022380D01*
X121280952Y-102974761D01*
X121233333Y-102927142D01*
X121185714Y-102831904D01*
X121138095Y-102641428D01*
X121138095Y-102403333D01*
X121185714Y-102212857D01*
X121233333Y-102117619D01*
X121280952Y-102070000D01*
X121376190Y-102022380D01*
X122138095Y-102355714D02*
X122138095Y-103022380D01*
X122138095Y-102450952D02*
X122185714Y-102403333D01*
X122280952Y-102355714D01*
X122423809Y-102355714D01*
X122519047Y-102403333D01*
X122566666Y-102498571D01*
X122566666Y-103022380D01*
D13*
X121333333Y-104142857D02*
X121314285Y-104161904D01*
X121257142Y-104180952D01*
X121219047Y-104180952D01*
X121161904Y-104161904D01*
X121123809Y-104123809D01*
X121104761Y-104085714D01*
X121085714Y-104009523D01*
X121085714Y-103952380D01*
X121104761Y-103876190D01*
X121123809Y-103838095D01*
X121161904Y-103800000D01*
X121219047Y-103780952D01*
X121257142Y-103780952D01*
X121314285Y-103800000D01*
X121333333Y-103819047D01*
X121676190Y-103780952D02*
X121600000Y-103780952D01*
X121561904Y-103800000D01*
X121542857Y-103819047D01*
X121504761Y-103876190D01*
X121485714Y-103952380D01*
X121485714Y-104104761D01*
X121504761Y-104142857D01*
X121523809Y-104161904D01*
X121561904Y-104180952D01*
X121638095Y-104180952D01*
X121676190Y-104161904D01*
X121695238Y-104142857D01*
X121714285Y-104104761D01*
X121714285Y-104009523D01*
X121695238Y-103971428D01*
X121676190Y-103952380D01*
X121638095Y-103933333D01*
X121561904Y-103933333D01*
X121523809Y-103952380D01*
X121504761Y-103971428D01*
X121485714Y-104009523D01*
D10*
X143680952Y-115922380D02*
X143109523Y-115922380D01*
X143395238Y-115922380D02*
X143395238Y-114922380D01*
X143300000Y-115065238D01*
X143204761Y-115160476D01*
X143109523Y-115208095D01*
X144109523Y-115922380D02*
X144109523Y-114922380D01*
X144204761Y-115541428D02*
X144490476Y-115922380D01*
X144490476Y-115255714D02*
X144109523Y-115636666D01*
D13*
X143733333Y-117080952D02*
X143600000Y-116890476D01*
X143504761Y-117080952D02*
X143504761Y-116680952D01*
X143657142Y-116680952D01*
X143695238Y-116700000D01*
X143714285Y-116719047D01*
X143733333Y-116757142D01*
X143733333Y-116814285D01*
X143714285Y-116852380D01*
X143695238Y-116871428D01*
X143657142Y-116890476D01*
X143504761Y-116890476D01*
X144076190Y-116680952D02*
X144000000Y-116680952D01*
X143961904Y-116700000D01*
X143942857Y-116719047D01*
X143904761Y-116776190D01*
X143885714Y-116852380D01*
X143885714Y-117004761D01*
X143904761Y-117042857D01*
X143923809Y-117061904D01*
X143961904Y-117080952D01*
X144038095Y-117080952D01*
X144076190Y-117061904D01*
X144095238Y-117042857D01*
X144114285Y-117004761D01*
X144114285Y-116909523D01*
X144095238Y-116871428D01*
X144076190Y-116852380D01*
X144038095Y-116833333D01*
X143961904Y-116833333D01*
X143923809Y-116852380D01*
X143904761Y-116871428D01*
X143885714Y-116909523D01*
D10*
X124276190Y-102355714D02*
X124276190Y-103022380D01*
X124038095Y-101974761D02*
X123800000Y-102689047D01*
X124419047Y-102689047D01*
X124800000Y-102927142D02*
X124847619Y-102974761D01*
X124800000Y-103022380D01*
X124752380Y-102974761D01*
X124800000Y-102927142D01*
X124800000Y-103022380D01*
X125180952Y-102022380D02*
X125847619Y-102022380D01*
X125419047Y-103022380D01*
D13*
X124733333Y-104180952D02*
X124600000Y-103990476D01*
X124504761Y-104180952D02*
X124504761Y-103780952D01*
X124657142Y-103780952D01*
X124695238Y-103800000D01*
X124714285Y-103819047D01*
X124733333Y-103857142D01*
X124733333Y-103914285D01*
X124714285Y-103952380D01*
X124695238Y-103971428D01*
X124657142Y-103990476D01*
X124504761Y-103990476D01*
X124923809Y-104180952D02*
X125000000Y-104180952D01*
X125038095Y-104161904D01*
X125057142Y-104142857D01*
X125095238Y-104085714D01*
X125114285Y-104009523D01*
X125114285Y-103857142D01*
X125095238Y-103819047D01*
X125076190Y-103800000D01*
X125038095Y-103780952D01*
X124961904Y-103780952D01*
X124923809Y-103800000D01*
X124904761Y-103819047D01*
X124885714Y-103857142D01*
X124885714Y-103952380D01*
X124904761Y-103990476D01*
X124923809Y-104009523D01*
X124961904Y-104028571D01*
X125038095Y-104028571D01*
X125076190Y-104009523D01*
X125095238Y-103990476D01*
X125114285Y-103952380D01*
D18*
X110480000Y-102600000D02*
X110480000Y-104000000D01*
X113520000Y-104000000D02*
X110480000Y-104000000D01*
X112950000Y-102600000D02*
X113520000Y-103150000D01*
X113520000Y-103150000D02*
X113520000Y-104000000D01*
X112950000Y-102600000D02*
X110500000Y-102600000D01*
X113110000Y-113060000D02*
X113110000Y-108480000D01*
X118060000Y-113060000D02*
X113110000Y-113060000D01*
X118060000Y-108480000D02*
X118060000Y-113060000D01*
X113110000Y-108480000D02*
X118060000Y-108480000D01*
X118060000Y-109500000D02*
X120980000Y-109500000D01*
X118060000Y-110770000D02*
X120980000Y-110770000D01*
X118060000Y-112040000D02*
X120980000Y-112040000D01*
X116600000Y-91080000D02*
X116600000Y-94120000D01*
X116600000Y-91080000D02*
X118000000Y-91080000D01*
X116600000Y-94120000D02*
X118000000Y-94120000D01*
X118000000Y-91080000D02*
X118000000Y-94120000D01*
X117450000Y-91950000D02*
X117450000Y-92350000D01*
X117450000Y-92150000D02*
X117700000Y-92150000D01*
X117450000Y-92150000D02*
X117150000Y-91950000D01*
X117150000Y-91950000D02*
X117150000Y-92350000D01*
X117150000Y-92350000D02*
X117450000Y-92150000D01*
X117150000Y-92150000D02*
X116900000Y-92150000D01*
X107980000Y-91800000D02*
X107980000Y-93200000D01*
X111020000Y-93200000D02*
X107980000Y-93200000D01*
X110450000Y-91800000D02*
X111020000Y-92350000D01*
X111020000Y-92350000D02*
X111020000Y-93200000D01*
X110450000Y-91800000D02*
X108000000Y-91800000D01*
X95600000Y-94600000D02*
X98400000Y-94600000D01*
X98400000Y-94600000D02*
X98400000Y-96400000D01*
X98400000Y-96400000D02*
X95600000Y-96400000D01*
X95600000Y-96400000D02*
X95600000Y-94600000D01*
X96250000Y-95500000D02*
X96650000Y-95500000D01*
X96650000Y-95500000D02*
X96650000Y-94950000D01*
X96650000Y-95500000D02*
X96650000Y-96050000D01*
X96650000Y-95500000D02*
X97250000Y-95100000D01*
X97250000Y-95100000D02*
X97250000Y-95900000D01*
X97250000Y-95900000D02*
X96650000Y-95500000D01*
X97250000Y-95500000D02*
X97750000Y-95500000D01*
X142150000Y-113255000D02*
X145350000Y-113255000D01*
X142150000Y-115745000D02*
X142150000Y-113255000D01*
X145350000Y-115745000D02*
X142150000Y-115745000D01*
X145350000Y-113255000D02*
X145350000Y-115745000D01*
X114587500Y-106700000D02*
X114587500Y-105100000D01*
X115412500Y-106700000D02*
X114587500Y-106700000D01*
X115412500Y-105100000D02*
X115412500Y-106700000D01*
X114587500Y-105100000D02*
X115412500Y-105100000D01*
X119112500Y-105100000D02*
X119112500Y-106700000D01*
X118287500Y-105100000D02*
X119112500Y-105100000D01*
X118287500Y-106700000D02*
X118287500Y-105100000D01*
X119112500Y-106700000D02*
X118287500Y-106700000D01*
X113412500Y-91700000D02*
X113412500Y-93300000D01*
X112587500Y-91700000D02*
X113412500Y-91700000D01*
X112587500Y-93300000D02*
X112587500Y-91700000D01*
X113412500Y-93300000D02*
X112587500Y-93300000D01*
X91420000Y-106590000D02*
X111560000Y-106590000D01*
X91420000Y-116590000D02*
X91420000Y-106590000D01*
X111560000Y-116590000D02*
X91420000Y-116590000D01*
X111560000Y-106590000D02*
X111560000Y-116590000D01*
X92600000Y-114130000D02*
X92600000Y-109050000D01*
D10*
X125500000Y-115000000D02*
X126000000Y-115000000D01*
X124000000Y-115000000D02*
X124500000Y-115000000D01*
X124500000Y-116900000D02*
X124500000Y-113100000D01*
X125500000Y-113100000D02*
X125500000Y-116900000D01*
X124000000Y-113750000D02*
X124000000Y-116250000D01*
X124000000Y-116250000D02*
X124500000Y-116250000D01*
X124500000Y-116250000D02*
X124500000Y-116750000D01*
X124500000Y-116900000D02*
X125500000Y-116900000D01*
X125500000Y-116750000D02*
X125500000Y-116250000D01*
X125500000Y-116250000D02*
X126000000Y-116250000D01*
X126000000Y-116250000D02*
X126000000Y-113750000D01*
X126000000Y-113750000D02*
X125500000Y-113750000D01*
X125500000Y-113750000D02*
X125500000Y-113250000D01*
X125500000Y-113100000D02*
X124500000Y-113100000D01*
X124500000Y-113250000D02*
X124500000Y-113750000D01*
X124500000Y-113750000D02*
X124000000Y-113750000D01*
D18*
X97500000Y-102000000D02*
G75*
G03*
X97500000Y-102000000I-2500000J0D01*
G01*
X96087500Y-99866395D02*
X96087500Y-100366395D01*
X96337500Y-100116395D02*
X95837500Y-100116395D01*
X102912500Y-104800000D02*
X102087500Y-104800000D01*
X102087500Y-104800000D02*
X102087500Y-103200000D01*
X102087500Y-103200000D02*
X102912500Y-103200000D01*
X102912500Y-103200000D02*
X102912500Y-104800000D01*
X126400000Y-96000000D02*
X126400000Y-95200000D01*
X126400000Y-95200000D02*
X128000000Y-95200000D01*
X128000000Y-95200000D02*
X128000000Y-96000000D01*
X128000000Y-96000000D02*
X126400000Y-96000000D01*
X119800000Y-95200000D02*
X121400000Y-95200000D01*
X119800000Y-96000000D02*
X119800000Y-95200000D01*
X121400000Y-96000000D02*
X119800000Y-96000000D01*
X121400000Y-95200000D02*
X121400000Y-96000000D01*
X129400000Y-112700000D02*
X129400000Y-114300000D01*
X128600000Y-112700000D02*
X129400000Y-112700000D01*
X128600000Y-114300000D02*
X128600000Y-112700000D01*
X129400000Y-114300000D02*
X128600000Y-114300000D01*
X131275000Y-93750000D02*
X131275000Y-91750000D01*
X132525000Y-93750000D02*
X131275000Y-93750000D01*
X132525000Y-91750000D02*
X132525000Y-93750000D01*
X131275000Y-91750000D02*
X132525000Y-91750000D01*
X139050000Y-93400000D02*
X139050000Y-91800000D01*
X139850000Y-93400000D02*
X139050000Y-93400000D01*
X139850000Y-91800000D02*
X139850000Y-93400000D01*
X139050000Y-91800000D02*
X139850000Y-91800000D01*
X141075000Y-91800000D02*
X142325000Y-91800000D01*
X142325000Y-91800000D02*
X142325000Y-93800000D01*
X142325000Y-93800000D02*
X141075000Y-93800000D01*
X141075000Y-93800000D02*
X141075000Y-91800000D01*
X144250000Y-104525000D02*
X142250000Y-104525000D01*
X144250000Y-103275000D02*
X144250000Y-104525000D01*
X142250000Y-103275000D02*
X144250000Y-103275000D01*
X142250000Y-104525000D02*
X142250000Y-103275000D01*
X140900000Y-108950000D02*
X140100000Y-108950000D01*
X140100000Y-108950000D02*
X140100000Y-107350000D01*
X140100000Y-107350000D02*
X140900000Y-107350000D01*
X140900000Y-107350000D02*
X140900000Y-108950000D01*
X144300000Y-110375000D02*
X144300000Y-111625000D01*
X144300000Y-111625000D02*
X142300000Y-111625000D01*
X142300000Y-111625000D02*
X142300000Y-110375000D01*
X142300000Y-110375000D02*
X144300000Y-110375000D01*
X124900000Y-94000000D02*
X124900000Y-95600000D01*
X124100000Y-94000000D02*
X124900000Y-94000000D01*
X124100000Y-95600000D02*
X124100000Y-94000000D01*
X124900000Y-95600000D02*
X124100000Y-95600000D01*
X123400000Y-95600000D02*
X122600000Y-95600000D01*
X122600000Y-95600000D02*
X122600000Y-94000000D01*
X122600000Y-94000000D02*
X123400000Y-94000000D01*
X123400000Y-94000000D02*
X123400000Y-95600000D01*
X131612500Y-104400000D02*
X131612500Y-106000000D01*
X130787500Y-104400000D02*
X131612500Y-104400000D01*
X130787500Y-106000000D02*
X130787500Y-104400000D01*
X131612500Y-106000000D02*
X130787500Y-106000000D01*
X131612500Y-107600000D02*
X131612500Y-109200000D01*
X130787500Y-107600000D02*
X131612500Y-107600000D01*
X130787500Y-109200000D02*
X130787500Y-107600000D01*
X131612500Y-109200000D02*
X130787500Y-109200000D01*
X131000000Y-115000000D02*
X130250000Y-114250000D01*
X133250000Y-115000000D02*
X131000000Y-115000000D01*
X133250000Y-112000000D02*
X133250000Y-115000000D01*
X130250000Y-112000000D02*
X133250000Y-112000000D01*
X130250000Y-114250000D02*
X130250000Y-112000000D01*
X136980000Y-91350000D02*
X136980000Y-94250000D01*
X136980000Y-94250000D02*
X135220000Y-94250000D01*
X135220000Y-91800000D02*
X135220000Y-94250000D01*
X136980000Y-91350000D02*
X135670000Y-91350000D01*
X135220000Y-91800000D02*
X135670000Y-91350000D01*
X144250000Y-106520000D02*
X144700000Y-106970000D01*
X144700000Y-108280000D02*
X144700000Y-106970000D01*
X144250000Y-106520000D02*
X141800000Y-106520000D01*
X141800000Y-108280000D02*
X141800000Y-106520000D01*
X144700000Y-108280000D02*
X141800000Y-108280000D01*
X134500000Y-114250000D02*
X134500000Y-112000000D01*
X134500000Y-112000000D02*
X137500000Y-112000000D01*
X137500000Y-112000000D02*
X137500000Y-115000000D01*
X137500000Y-115000000D02*
X135250000Y-115000000D01*
X135250000Y-115000000D02*
X134500000Y-114250000D01*
D10*
X151300000Y-92600000D02*
X151300000Y-93600000D01*
X148600000Y-93600000D02*
X151300000Y-93600000D01*
X148600000Y-93600000D02*
X148600000Y-92600000D01*
X151300000Y-92600000D02*
X148600000Y-92600000D01*
X154326600Y-93629100D02*
X157026600Y-93629100D01*
X157026600Y-92629100D02*
X157026600Y-93629100D01*
X157026600Y-92629100D02*
X154326600Y-92629100D01*
X154326600Y-93629100D02*
X154326600Y-92629100D01*
D18*
X139900000Y-115300000D02*
X140700000Y-115300000D01*
X140700000Y-115300000D02*
X140700000Y-116900000D01*
X140700000Y-116900000D02*
X139900000Y-116900000D01*
X139900000Y-116900000D02*
X139900000Y-115300000D01*
X122200000Y-103600000D02*
X122200000Y-104400000D01*
X122200000Y-104400000D02*
X120600000Y-104400000D01*
X120600000Y-104400000D02*
X120600000Y-103600000D01*
X120600000Y-103600000D02*
X122200000Y-103600000D01*
X144600000Y-116487500D02*
X144600000Y-117312500D01*
X144600000Y-117312500D02*
X143000000Y-117312500D01*
X143000000Y-117312500D02*
X143000000Y-116487500D01*
X143000000Y-116487500D02*
X144600000Y-116487500D01*
X125600000Y-103587500D02*
X125600000Y-104412500D01*
X125600000Y-104412500D02*
X124000000Y-104412500D01*
X124000000Y-104412500D02*
X124000000Y-103587500D01*
X124000000Y-103587500D02*
X125600000Y-103587500D01*
M02*
