G04 #@! TF.GenerationSoftware,KiCad,Pcbnew,(5.1.9)-1*
G04 #@! TF.CreationDate,2021-10-09T16:27:14+02:00*
G04 #@! TF.ProjectId,DgDrive_DVI,44674472-6976-4655-9f44-56492e6b6963,1.5*
G04 #@! TF.SameCoordinates,Original*
G04 #@! TF.FileFunction,Copper,L1,Top*
G04 #@! TF.FilePolarity,Positive*
%FSLAX46Y46*%
G04 Gerber Fmt 4.6, Leading zero omitted, Abs format (unit mm)*
G04 Created by KiCad (PCBNEW (5.1.9)-1) date 2021-10-09 16:27:14*
%MOMM*%
%LPD*%
G01*
G04 APERTURE LIST*
G04 #@! TA.AperFunction,SMDPad,CuDef*
%ADD10R,0.800000X0.900000*%
G04 #@! TD*
G04 #@! TA.AperFunction,ComponentPad*
%ADD11R,1.500000X1.050000*%
G04 #@! TD*
G04 #@! TA.AperFunction,ComponentPad*
%ADD12O,1.500000X1.050000*%
G04 #@! TD*
G04 #@! TA.AperFunction,ComponentPad*
%ADD13C,1.800000*%
G04 #@! TD*
G04 #@! TA.AperFunction,ComponentPad*
%ADD14R,1.800000X1.800000*%
G04 #@! TD*
G04 #@! TA.AperFunction,ComponentPad*
%ADD15C,2.250000*%
G04 #@! TD*
G04 #@! TA.AperFunction,ComponentPad*
%ADD16C,2.050000*%
G04 #@! TD*
G04 #@! TA.AperFunction,SMDPad,CuDef*
%ADD17R,0.900000X0.800000*%
G04 #@! TD*
G04 #@! TA.AperFunction,SMDPad,CuDef*
%ADD18R,0.900000X1.200000*%
G04 #@! TD*
G04 #@! TA.AperFunction,ComponentPad*
%ADD19C,2.000000*%
G04 #@! TD*
G04 #@! TA.AperFunction,ComponentPad*
%ADD20C,1.300000*%
G04 #@! TD*
G04 #@! TA.AperFunction,ComponentPad*
%ADD21C,4.200000*%
G04 #@! TD*
G04 #@! TA.AperFunction,ComponentPad*
%ADD22C,2.499360*%
G04 #@! TD*
G04 #@! TA.AperFunction,SMDPad,CuDef*
%ADD23R,2.000000X3.800000*%
G04 #@! TD*
G04 #@! TA.AperFunction,ComponentPad*
%ADD24R,1.600000X1.600000*%
G04 #@! TD*
G04 #@! TA.AperFunction,ComponentPad*
%ADD25C,1.600000*%
G04 #@! TD*
G04 #@! TA.AperFunction,SMDPad,CuDef*
%ADD26R,1.220000X0.650000*%
G04 #@! TD*
G04 #@! TA.AperFunction,SMDPad,CuDef*
%ADD27R,0.650000X1.220000*%
G04 #@! TD*
G04 #@! TA.AperFunction,SMDPad,CuDef*
%ADD28C,0.100000*%
G04 #@! TD*
G04 #@! TA.AperFunction,ViaPad*
%ADD29C,0.600000*%
G04 #@! TD*
G04 #@! TA.AperFunction,Conductor*
%ADD30C,0.500000*%
G04 #@! TD*
G04 #@! TA.AperFunction,Conductor*
%ADD31C,0.250000*%
G04 #@! TD*
G04 #@! TA.AperFunction,Conductor*
%ADD32C,1.000000*%
G04 #@! TD*
G04 #@! TA.AperFunction,Conductor*
%ADD33C,0.200000*%
G04 #@! TD*
G04 #@! TA.AperFunction,Conductor*
%ADD34C,0.254000*%
G04 #@! TD*
G04 #@! TA.AperFunction,Conductor*
%ADD35C,0.100000*%
G04 #@! TD*
G04 APERTURE END LIST*
G04 #@! TA.AperFunction,SMDPad,CuDef*
G36*
G01*
X133550000Y-106500000D02*
X137650000Y-106500000D01*
G75*
G02*
X137950000Y-106800000I0J-300000D01*
G01*
X137950000Y-107400000D01*
G75*
G02*
X137650000Y-107700000I-300000J0D01*
G01*
X133550000Y-107700000D01*
G75*
G02*
X133250000Y-107400000I0J300000D01*
G01*
X133250000Y-106800000D01*
G75*
G02*
X133550000Y-106500000I300000J0D01*
G01*
G37*
G04 #@! TD.AperFunction*
G04 #@! TA.AperFunction,SMDPad,CuDef*
G36*
G01*
X133550000Y-103200000D02*
X137650000Y-103200000D01*
G75*
G02*
X137950000Y-103500000I0J-300000D01*
G01*
X137950000Y-104100000D01*
G75*
G02*
X137650000Y-104400000I-300000J0D01*
G01*
X133550000Y-104400000D01*
G75*
G02*
X133250000Y-104100000I0J300000D01*
G01*
X133250000Y-103500000D01*
G75*
G02*
X133550000Y-103200000I300000J0D01*
G01*
G37*
G04 #@! TD.AperFunction*
D10*
X112000000Y-104300000D03*
X111050000Y-102300000D03*
X112950000Y-102300000D03*
D11*
X122000000Y-109500000D03*
D12*
X122000000Y-112040000D03*
X122000000Y-110770000D03*
D13*
X102362000Y-100000000D03*
D14*
X99822000Y-100000000D03*
D15*
X148960000Y-109960000D03*
X148960000Y-115040000D03*
X154040000Y-115040000D03*
X154040000Y-109960000D03*
D16*
X151500000Y-112500000D03*
D15*
X148960000Y-96960000D03*
X148960000Y-102040000D03*
X154040000Y-102040000D03*
X154040000Y-96960000D03*
D16*
X151500000Y-99500000D03*
D17*
X118300000Y-92600000D03*
X116300000Y-93550000D03*
X116300000Y-91650000D03*
D10*
X109500000Y-93500000D03*
X108550000Y-91500000D03*
X110450000Y-91500000D03*
D18*
X98650000Y-95500000D03*
X95350000Y-95500000D03*
G04 #@! TA.AperFunction,SMDPad,CuDef*
G36*
G01*
X142850000Y-113424997D02*
X142850000Y-115575003D01*
G75*
G02*
X142600003Y-115825000I-249997J0D01*
G01*
X141974997Y-115825000D01*
G75*
G02*
X141725000Y-115575003I0J249997D01*
G01*
X141725000Y-113424997D01*
G75*
G02*
X141974997Y-113175000I249997J0D01*
G01*
X142600003Y-113175000D01*
G75*
G02*
X142850000Y-113424997I0J-249997D01*
G01*
G37*
G04 #@! TD.AperFunction*
G04 #@! TA.AperFunction,SMDPad,CuDef*
G36*
G01*
X145775000Y-113424997D02*
X145775000Y-115575003D01*
G75*
G02*
X145525003Y-115825000I-249997J0D01*
G01*
X144899997Y-115825000D01*
G75*
G02*
X144650000Y-115575003I0J249997D01*
G01*
X144650000Y-113424997D01*
G75*
G02*
X144899997Y-113175000I249997J0D01*
G01*
X145525003Y-113175000D01*
G75*
G02*
X145775000Y-113424997I0J-249997D01*
G01*
G37*
G04 #@! TD.AperFunction*
G04 #@! TA.AperFunction,SMDPad,CuDef*
G36*
G01*
X114725000Y-106325000D02*
X115275000Y-106325000D01*
G75*
G02*
X115475000Y-106525000I0J-200000D01*
G01*
X115475000Y-106925000D01*
G75*
G02*
X115275000Y-107125000I-200000J0D01*
G01*
X114725000Y-107125000D01*
G75*
G02*
X114525000Y-106925000I0J200000D01*
G01*
X114525000Y-106525000D01*
G75*
G02*
X114725000Y-106325000I200000J0D01*
G01*
G37*
G04 #@! TD.AperFunction*
G04 #@! TA.AperFunction,SMDPad,CuDef*
G36*
G01*
X114725000Y-104675000D02*
X115275000Y-104675000D01*
G75*
G02*
X115475000Y-104875000I0J-200000D01*
G01*
X115475000Y-105275000D01*
G75*
G02*
X115275000Y-105475000I-200000J0D01*
G01*
X114725000Y-105475000D01*
G75*
G02*
X114525000Y-105275000I0J200000D01*
G01*
X114525000Y-104875000D01*
G75*
G02*
X114725000Y-104675000I200000J0D01*
G01*
G37*
G04 #@! TD.AperFunction*
G04 #@! TA.AperFunction,SMDPad,CuDef*
G36*
G01*
X118975000Y-105475000D02*
X118425000Y-105475000D01*
G75*
G02*
X118225000Y-105275000I0J200000D01*
G01*
X118225000Y-104875000D01*
G75*
G02*
X118425000Y-104675000I200000J0D01*
G01*
X118975000Y-104675000D01*
G75*
G02*
X119175000Y-104875000I0J-200000D01*
G01*
X119175000Y-105275000D01*
G75*
G02*
X118975000Y-105475000I-200000J0D01*
G01*
G37*
G04 #@! TD.AperFunction*
G04 #@! TA.AperFunction,SMDPad,CuDef*
G36*
G01*
X118975000Y-107125000D02*
X118425000Y-107125000D01*
G75*
G02*
X118225000Y-106925000I0J200000D01*
G01*
X118225000Y-106525000D01*
G75*
G02*
X118425000Y-106325000I200000J0D01*
G01*
X118975000Y-106325000D01*
G75*
G02*
X119175000Y-106525000I0J-200000D01*
G01*
X119175000Y-106925000D01*
G75*
G02*
X118975000Y-107125000I-200000J0D01*
G01*
G37*
G04 #@! TD.AperFunction*
G04 #@! TA.AperFunction,SMDPad,CuDef*
G36*
G01*
X113275000Y-92075000D02*
X112725000Y-92075000D01*
G75*
G02*
X112525000Y-91875000I0J200000D01*
G01*
X112525000Y-91475000D01*
G75*
G02*
X112725000Y-91275000I200000J0D01*
G01*
X113275000Y-91275000D01*
G75*
G02*
X113475000Y-91475000I0J-200000D01*
G01*
X113475000Y-91875000D01*
G75*
G02*
X113275000Y-92075000I-200000J0D01*
G01*
G37*
G04 #@! TD.AperFunction*
G04 #@! TA.AperFunction,SMDPad,CuDef*
G36*
G01*
X113275000Y-93725000D02*
X112725000Y-93725000D01*
G75*
G02*
X112525000Y-93525000I0J200000D01*
G01*
X112525000Y-93125000D01*
G75*
G02*
X112725000Y-92925000I200000J0D01*
G01*
X113275000Y-92925000D01*
G75*
G02*
X113475000Y-93125000I0J-200000D01*
G01*
X113475000Y-93525000D01*
G75*
G02*
X113275000Y-93725000I-200000J0D01*
G01*
G37*
G04 #@! TD.AperFunction*
D19*
X110380000Y-107780000D03*
X105300000Y-107780000D03*
X100220000Y-107780000D03*
X92600000Y-107780000D03*
X110380000Y-115400000D03*
X105300000Y-115400000D03*
X92600000Y-115400000D03*
X100220000Y-115400000D03*
D20*
X116240000Y-102018000D03*
X116240000Y-96938000D03*
X114970000Y-100748000D03*
X117510000Y-100748000D03*
X117510000Y-98208000D03*
X114970000Y-98208000D03*
X120685000Y-97595000D03*
X120685000Y-101405000D03*
X122590000Y-101405000D03*
X124495000Y-101405000D03*
X126400000Y-101405000D03*
X128305000Y-101405000D03*
X130210000Y-101405000D03*
X132115000Y-101405000D03*
X134020000Y-101405000D03*
X120685000Y-99500000D03*
X122590000Y-99500000D03*
X124495000Y-99500000D03*
X126400000Y-99500000D03*
X128305000Y-99500000D03*
X130210000Y-99500000D03*
X132115000Y-99500000D03*
D21*
X140750000Y-99500000D03*
D20*
X124495000Y-97595000D03*
X122590000Y-97595000D03*
X134020000Y-99500000D03*
X126400000Y-97595000D03*
X128305000Y-97595000D03*
X134020000Y-97595000D03*
X132115000Y-97595000D03*
X130210000Y-97595000D03*
D21*
X108240000Y-99500000D03*
D22*
X119500000Y-115500000D03*
X149950000Y-93100000D03*
X153600000Y-93100000D03*
D23*
X125000000Y-115000000D03*
D24*
X95000000Y-101000000D03*
D25*
X95000000Y-103000000D03*
G04 #@! TA.AperFunction,SMDPad,CuDef*
G36*
G01*
X102775000Y-105225000D02*
X102225000Y-105225000D01*
G75*
G02*
X102025000Y-105025000I0J200000D01*
G01*
X102025000Y-104625000D01*
G75*
G02*
X102225000Y-104425000I200000J0D01*
G01*
X102775000Y-104425000D01*
G75*
G02*
X102975000Y-104625000I0J-200000D01*
G01*
X102975000Y-105025000D01*
G75*
G02*
X102775000Y-105225000I-200000J0D01*
G01*
G37*
G04 #@! TD.AperFunction*
G04 #@! TA.AperFunction,SMDPad,CuDef*
G36*
G01*
X102775000Y-103575000D02*
X102225000Y-103575000D01*
G75*
G02*
X102025000Y-103375000I0J200000D01*
G01*
X102025000Y-102975000D01*
G75*
G02*
X102225000Y-102775000I200000J0D01*
G01*
X102775000Y-102775000D01*
G75*
G02*
X102975000Y-102975000I0J-200000D01*
G01*
X102975000Y-103375000D01*
G75*
G02*
X102775000Y-103575000I-200000J0D01*
G01*
G37*
G04 #@! TD.AperFunction*
G04 #@! TA.AperFunction,SMDPad,CuDef*
G36*
G01*
X127525000Y-95850000D02*
X127525000Y-95350000D01*
G75*
G02*
X127750000Y-95125000I225000J0D01*
G01*
X128200000Y-95125000D01*
G75*
G02*
X128425000Y-95350000I0J-225000D01*
G01*
X128425000Y-95850000D01*
G75*
G02*
X128200000Y-96075000I-225000J0D01*
G01*
X127750000Y-96075000D01*
G75*
G02*
X127525000Y-95850000I0J225000D01*
G01*
G37*
G04 #@! TD.AperFunction*
G04 #@! TA.AperFunction,SMDPad,CuDef*
G36*
G01*
X125975000Y-95850000D02*
X125975000Y-95350000D01*
G75*
G02*
X126200000Y-95125000I225000J0D01*
G01*
X126650000Y-95125000D01*
G75*
G02*
X126875000Y-95350000I0J-225000D01*
G01*
X126875000Y-95850000D01*
G75*
G02*
X126650000Y-96075000I-225000J0D01*
G01*
X126200000Y-96075000D01*
G75*
G02*
X125975000Y-95850000I0J225000D01*
G01*
G37*
G04 #@! TD.AperFunction*
G04 #@! TA.AperFunction,SMDPad,CuDef*
G36*
G01*
X121825000Y-95350000D02*
X121825000Y-95850000D01*
G75*
G02*
X121600000Y-96075000I-225000J0D01*
G01*
X121150000Y-96075000D01*
G75*
G02*
X120925000Y-95850000I0J225000D01*
G01*
X120925000Y-95350000D01*
G75*
G02*
X121150000Y-95125000I225000J0D01*
G01*
X121600000Y-95125000D01*
G75*
G02*
X121825000Y-95350000I0J-225000D01*
G01*
G37*
G04 #@! TD.AperFunction*
G04 #@! TA.AperFunction,SMDPad,CuDef*
G36*
G01*
X120275000Y-95350000D02*
X120275000Y-95850000D01*
G75*
G02*
X120050000Y-96075000I-225000J0D01*
G01*
X119600000Y-96075000D01*
G75*
G02*
X119375000Y-95850000I0J225000D01*
G01*
X119375000Y-95350000D01*
G75*
G02*
X119600000Y-95125000I225000J0D01*
G01*
X120050000Y-95125000D01*
G75*
G02*
X120275000Y-95350000I0J-225000D01*
G01*
G37*
G04 #@! TD.AperFunction*
G04 #@! TA.AperFunction,SMDPad,CuDef*
G36*
G01*
X129250000Y-114725000D02*
X128750000Y-114725000D01*
G75*
G02*
X128525000Y-114500000I0J225000D01*
G01*
X128525000Y-114050000D01*
G75*
G02*
X128750000Y-113825000I225000J0D01*
G01*
X129250000Y-113825000D01*
G75*
G02*
X129475000Y-114050000I0J-225000D01*
G01*
X129475000Y-114500000D01*
G75*
G02*
X129250000Y-114725000I-225000J0D01*
G01*
G37*
G04 #@! TD.AperFunction*
G04 #@! TA.AperFunction,SMDPad,CuDef*
G36*
G01*
X129250000Y-113175000D02*
X128750000Y-113175000D01*
G75*
G02*
X128525000Y-112950000I0J225000D01*
G01*
X128525000Y-112500000D01*
G75*
G02*
X128750000Y-112275000I225000J0D01*
G01*
X129250000Y-112275000D01*
G75*
G02*
X129475000Y-112500000I0J-225000D01*
G01*
X129475000Y-112950000D01*
G75*
G02*
X129250000Y-113175000I-225000J0D01*
G01*
G37*
G04 #@! TD.AperFunction*
G04 #@! TA.AperFunction,SMDPad,CuDef*
G36*
G01*
X131425000Y-91300000D02*
X132375000Y-91300000D01*
G75*
G02*
X132625000Y-91550000I0J-250000D01*
G01*
X132625000Y-92050000D01*
G75*
G02*
X132375000Y-92300000I-250000J0D01*
G01*
X131425000Y-92300000D01*
G75*
G02*
X131175000Y-92050000I0J250000D01*
G01*
X131175000Y-91550000D01*
G75*
G02*
X131425000Y-91300000I250000J0D01*
G01*
G37*
G04 #@! TD.AperFunction*
G04 #@! TA.AperFunction,SMDPad,CuDef*
G36*
G01*
X131425000Y-93200000D02*
X132375000Y-93200000D01*
G75*
G02*
X132625000Y-93450000I0J-250000D01*
G01*
X132625000Y-93950000D01*
G75*
G02*
X132375000Y-94200000I-250000J0D01*
G01*
X131425000Y-94200000D01*
G75*
G02*
X131175000Y-93950000I0J250000D01*
G01*
X131175000Y-93450000D01*
G75*
G02*
X131425000Y-93200000I250000J0D01*
G01*
G37*
G04 #@! TD.AperFunction*
G04 #@! TA.AperFunction,SMDPad,CuDef*
G36*
G01*
X139200000Y-91375000D02*
X139700000Y-91375000D01*
G75*
G02*
X139925000Y-91600000I0J-225000D01*
G01*
X139925000Y-92050000D01*
G75*
G02*
X139700000Y-92275000I-225000J0D01*
G01*
X139200000Y-92275000D01*
G75*
G02*
X138975000Y-92050000I0J225000D01*
G01*
X138975000Y-91600000D01*
G75*
G02*
X139200000Y-91375000I225000J0D01*
G01*
G37*
G04 #@! TD.AperFunction*
G04 #@! TA.AperFunction,SMDPad,CuDef*
G36*
G01*
X139200000Y-92925000D02*
X139700000Y-92925000D01*
G75*
G02*
X139925000Y-93150000I0J-225000D01*
G01*
X139925000Y-93600000D01*
G75*
G02*
X139700000Y-93825000I-225000J0D01*
G01*
X139200000Y-93825000D01*
G75*
G02*
X138975000Y-93600000I0J225000D01*
G01*
X138975000Y-93150000D01*
G75*
G02*
X139200000Y-92925000I225000J0D01*
G01*
G37*
G04 #@! TD.AperFunction*
G04 #@! TA.AperFunction,SMDPad,CuDef*
G36*
G01*
X141225000Y-93250000D02*
X142175000Y-93250000D01*
G75*
G02*
X142425000Y-93500000I0J-250000D01*
G01*
X142425000Y-94000000D01*
G75*
G02*
X142175000Y-94250000I-250000J0D01*
G01*
X141225000Y-94250000D01*
G75*
G02*
X140975000Y-94000000I0J250000D01*
G01*
X140975000Y-93500000D01*
G75*
G02*
X141225000Y-93250000I250000J0D01*
G01*
G37*
G04 #@! TD.AperFunction*
G04 #@! TA.AperFunction,SMDPad,CuDef*
G36*
G01*
X141225000Y-91350000D02*
X142175000Y-91350000D01*
G75*
G02*
X142425000Y-91600000I0J-250000D01*
G01*
X142425000Y-92100000D01*
G75*
G02*
X142175000Y-92350000I-250000J0D01*
G01*
X141225000Y-92350000D01*
G75*
G02*
X140975000Y-92100000I0J250000D01*
G01*
X140975000Y-91600000D01*
G75*
G02*
X141225000Y-91350000I250000J0D01*
G01*
G37*
G04 #@! TD.AperFunction*
G04 #@! TA.AperFunction,SMDPad,CuDef*
G36*
G01*
X141800000Y-104375000D02*
X141800000Y-103425000D01*
G75*
G02*
X142050000Y-103175000I250000J0D01*
G01*
X142550000Y-103175000D01*
G75*
G02*
X142800000Y-103425000I0J-250000D01*
G01*
X142800000Y-104375000D01*
G75*
G02*
X142550000Y-104625000I-250000J0D01*
G01*
X142050000Y-104625000D01*
G75*
G02*
X141800000Y-104375000I0J250000D01*
G01*
G37*
G04 #@! TD.AperFunction*
G04 #@! TA.AperFunction,SMDPad,CuDef*
G36*
G01*
X143700000Y-104375000D02*
X143700000Y-103425000D01*
G75*
G02*
X143950000Y-103175000I250000J0D01*
G01*
X144450000Y-103175000D01*
G75*
G02*
X144700000Y-103425000I0J-250000D01*
G01*
X144700000Y-104375000D01*
G75*
G02*
X144450000Y-104625000I-250000J0D01*
G01*
X143950000Y-104625000D01*
G75*
G02*
X143700000Y-104375000I0J250000D01*
G01*
G37*
G04 #@! TD.AperFunction*
G04 #@! TA.AperFunction,SMDPad,CuDef*
G36*
G01*
X140750000Y-107825000D02*
X140250000Y-107825000D01*
G75*
G02*
X140025000Y-107600000I0J225000D01*
G01*
X140025000Y-107150000D01*
G75*
G02*
X140250000Y-106925000I225000J0D01*
G01*
X140750000Y-106925000D01*
G75*
G02*
X140975000Y-107150000I0J-225000D01*
G01*
X140975000Y-107600000D01*
G75*
G02*
X140750000Y-107825000I-225000J0D01*
G01*
G37*
G04 #@! TD.AperFunction*
G04 #@! TA.AperFunction,SMDPad,CuDef*
G36*
G01*
X140750000Y-109375000D02*
X140250000Y-109375000D01*
G75*
G02*
X140025000Y-109150000I0J225000D01*
G01*
X140025000Y-108700000D01*
G75*
G02*
X140250000Y-108475000I225000J0D01*
G01*
X140750000Y-108475000D01*
G75*
G02*
X140975000Y-108700000I0J-225000D01*
G01*
X140975000Y-109150000D01*
G75*
G02*
X140750000Y-109375000I-225000J0D01*
G01*
G37*
G04 #@! TD.AperFunction*
G04 #@! TA.AperFunction,SMDPad,CuDef*
G36*
G01*
X142850000Y-110525000D02*
X142850000Y-111475000D01*
G75*
G02*
X142600000Y-111725000I-250000J0D01*
G01*
X142100000Y-111725000D01*
G75*
G02*
X141850000Y-111475000I0J250000D01*
G01*
X141850000Y-110525000D01*
G75*
G02*
X142100000Y-110275000I250000J0D01*
G01*
X142600000Y-110275000D01*
G75*
G02*
X142850000Y-110525000I0J-250000D01*
G01*
G37*
G04 #@! TD.AperFunction*
G04 #@! TA.AperFunction,SMDPad,CuDef*
G36*
G01*
X144750000Y-110525000D02*
X144750000Y-111475000D01*
G75*
G02*
X144500000Y-111725000I-250000J0D01*
G01*
X144000000Y-111725000D01*
G75*
G02*
X143750000Y-111475000I0J250000D01*
G01*
X143750000Y-110525000D01*
G75*
G02*
X144000000Y-110275000I250000J0D01*
G01*
X144500000Y-110275000D01*
G75*
G02*
X144750000Y-110525000I0J-250000D01*
G01*
G37*
G04 #@! TD.AperFunction*
G04 #@! TA.AperFunction,SMDPad,CuDef*
G36*
G01*
X124756250Y-96025000D02*
X124243750Y-96025000D01*
G75*
G02*
X124025000Y-95806250I0J218750D01*
G01*
X124025000Y-95368750D01*
G75*
G02*
X124243750Y-95150000I218750J0D01*
G01*
X124756250Y-95150000D01*
G75*
G02*
X124975000Y-95368750I0J-218750D01*
G01*
X124975000Y-95806250D01*
G75*
G02*
X124756250Y-96025000I-218750J0D01*
G01*
G37*
G04 #@! TD.AperFunction*
G04 #@! TA.AperFunction,SMDPad,CuDef*
G36*
G01*
X124756250Y-94450000D02*
X124243750Y-94450000D01*
G75*
G02*
X124025000Y-94231250I0J218750D01*
G01*
X124025000Y-93793750D01*
G75*
G02*
X124243750Y-93575000I218750J0D01*
G01*
X124756250Y-93575000D01*
G75*
G02*
X124975000Y-93793750I0J-218750D01*
G01*
X124975000Y-94231250D01*
G75*
G02*
X124756250Y-94450000I-218750J0D01*
G01*
G37*
G04 #@! TD.AperFunction*
G04 #@! TA.AperFunction,SMDPad,CuDef*
G36*
G01*
X123256250Y-94450000D02*
X122743750Y-94450000D01*
G75*
G02*
X122525000Y-94231250I0J218750D01*
G01*
X122525000Y-93793750D01*
G75*
G02*
X122743750Y-93575000I218750J0D01*
G01*
X123256250Y-93575000D01*
G75*
G02*
X123475000Y-93793750I0J-218750D01*
G01*
X123475000Y-94231250D01*
G75*
G02*
X123256250Y-94450000I-218750J0D01*
G01*
G37*
G04 #@! TD.AperFunction*
G04 #@! TA.AperFunction,SMDPad,CuDef*
G36*
G01*
X123256250Y-96025000D02*
X122743750Y-96025000D01*
G75*
G02*
X122525000Y-95806250I0J218750D01*
G01*
X122525000Y-95368750D01*
G75*
G02*
X122743750Y-95150000I218750J0D01*
G01*
X123256250Y-95150000D01*
G75*
G02*
X123475000Y-95368750I0J-218750D01*
G01*
X123475000Y-95806250D01*
G75*
G02*
X123256250Y-96025000I-218750J0D01*
G01*
G37*
G04 #@! TD.AperFunction*
G04 #@! TA.AperFunction,SMDPad,CuDef*
G36*
G01*
X131475000Y-106425000D02*
X130925000Y-106425000D01*
G75*
G02*
X130725000Y-106225000I0J200000D01*
G01*
X130725000Y-105825000D01*
G75*
G02*
X130925000Y-105625000I200000J0D01*
G01*
X131475000Y-105625000D01*
G75*
G02*
X131675000Y-105825000I0J-200000D01*
G01*
X131675000Y-106225000D01*
G75*
G02*
X131475000Y-106425000I-200000J0D01*
G01*
G37*
G04 #@! TD.AperFunction*
G04 #@! TA.AperFunction,SMDPad,CuDef*
G36*
G01*
X131475000Y-104775000D02*
X130925000Y-104775000D01*
G75*
G02*
X130725000Y-104575000I0J200000D01*
G01*
X130725000Y-104175000D01*
G75*
G02*
X130925000Y-103975000I200000J0D01*
G01*
X131475000Y-103975000D01*
G75*
G02*
X131675000Y-104175000I0J-200000D01*
G01*
X131675000Y-104575000D01*
G75*
G02*
X131475000Y-104775000I-200000J0D01*
G01*
G37*
G04 #@! TD.AperFunction*
G04 #@! TA.AperFunction,SMDPad,CuDef*
G36*
G01*
X131475000Y-109625000D02*
X130925000Y-109625000D01*
G75*
G02*
X130725000Y-109425000I0J200000D01*
G01*
X130725000Y-109025000D01*
G75*
G02*
X130925000Y-108825000I200000J0D01*
G01*
X131475000Y-108825000D01*
G75*
G02*
X131675000Y-109025000I0J-200000D01*
G01*
X131675000Y-109425000D01*
G75*
G02*
X131475000Y-109625000I-200000J0D01*
G01*
G37*
G04 #@! TD.AperFunction*
G04 #@! TA.AperFunction,SMDPad,CuDef*
G36*
G01*
X131475000Y-107975000D02*
X130925000Y-107975000D01*
G75*
G02*
X130725000Y-107775000I0J200000D01*
G01*
X130725000Y-107375000D01*
G75*
G02*
X130925000Y-107175000I200000J0D01*
G01*
X131475000Y-107175000D01*
G75*
G02*
X131675000Y-107375000I0J-200000D01*
G01*
X131675000Y-107775000D01*
G75*
G02*
X131475000Y-107975000I-200000J0D01*
G01*
G37*
G04 #@! TD.AperFunction*
G04 #@! TA.AperFunction,SMDPad,CuDef*
G36*
G01*
X130875000Y-116425000D02*
X130675000Y-116425000D01*
G75*
G02*
X130575000Y-116325000I0J100000D01*
G01*
X130575000Y-114900000D01*
G75*
G02*
X130675000Y-114800000I100000J0D01*
G01*
X130875000Y-114800000D01*
G75*
G02*
X130975000Y-114900000I0J-100000D01*
G01*
X130975000Y-116325000D01*
G75*
G02*
X130875000Y-116425000I-100000J0D01*
G01*
G37*
G04 #@! TD.AperFunction*
G04 #@! TA.AperFunction,SMDPad,CuDef*
G36*
G01*
X131525000Y-116425000D02*
X131325000Y-116425000D01*
G75*
G02*
X131225000Y-116325000I0J100000D01*
G01*
X131225000Y-114900000D01*
G75*
G02*
X131325000Y-114800000I100000J0D01*
G01*
X131525000Y-114800000D01*
G75*
G02*
X131625000Y-114900000I0J-100000D01*
G01*
X131625000Y-116325000D01*
G75*
G02*
X131525000Y-116425000I-100000J0D01*
G01*
G37*
G04 #@! TD.AperFunction*
G04 #@! TA.AperFunction,SMDPad,CuDef*
G36*
G01*
X132175000Y-116425000D02*
X131975000Y-116425000D01*
G75*
G02*
X131875000Y-116325000I0J100000D01*
G01*
X131875000Y-114900000D01*
G75*
G02*
X131975000Y-114800000I100000J0D01*
G01*
X132175000Y-114800000D01*
G75*
G02*
X132275000Y-114900000I0J-100000D01*
G01*
X132275000Y-116325000D01*
G75*
G02*
X132175000Y-116425000I-100000J0D01*
G01*
G37*
G04 #@! TD.AperFunction*
G04 #@! TA.AperFunction,SMDPad,CuDef*
G36*
G01*
X132825000Y-116425000D02*
X132625000Y-116425000D01*
G75*
G02*
X132525000Y-116325000I0J100000D01*
G01*
X132525000Y-114900000D01*
G75*
G02*
X132625000Y-114800000I100000J0D01*
G01*
X132825000Y-114800000D01*
G75*
G02*
X132925000Y-114900000I0J-100000D01*
G01*
X132925000Y-116325000D01*
G75*
G02*
X132825000Y-116425000I-100000J0D01*
G01*
G37*
G04 #@! TD.AperFunction*
G04 #@! TA.AperFunction,SMDPad,CuDef*
G36*
G01*
X132825000Y-112200000D02*
X132625000Y-112200000D01*
G75*
G02*
X132525000Y-112100000I0J100000D01*
G01*
X132525000Y-110675000D01*
G75*
G02*
X132625000Y-110575000I100000J0D01*
G01*
X132825000Y-110575000D01*
G75*
G02*
X132925000Y-110675000I0J-100000D01*
G01*
X132925000Y-112100000D01*
G75*
G02*
X132825000Y-112200000I-100000J0D01*
G01*
G37*
G04 #@! TD.AperFunction*
G04 #@! TA.AperFunction,SMDPad,CuDef*
G36*
G01*
X132175000Y-112200000D02*
X131975000Y-112200000D01*
G75*
G02*
X131875000Y-112100000I0J100000D01*
G01*
X131875000Y-110675000D01*
G75*
G02*
X131975000Y-110575000I100000J0D01*
G01*
X132175000Y-110575000D01*
G75*
G02*
X132275000Y-110675000I0J-100000D01*
G01*
X132275000Y-112100000D01*
G75*
G02*
X132175000Y-112200000I-100000J0D01*
G01*
G37*
G04 #@! TD.AperFunction*
G04 #@! TA.AperFunction,SMDPad,CuDef*
G36*
G01*
X131525000Y-112200000D02*
X131325000Y-112200000D01*
G75*
G02*
X131225000Y-112100000I0J100000D01*
G01*
X131225000Y-110675000D01*
G75*
G02*
X131325000Y-110575000I100000J0D01*
G01*
X131525000Y-110575000D01*
G75*
G02*
X131625000Y-110675000I0J-100000D01*
G01*
X131625000Y-112100000D01*
G75*
G02*
X131525000Y-112200000I-100000J0D01*
G01*
G37*
G04 #@! TD.AperFunction*
G04 #@! TA.AperFunction,SMDPad,CuDef*
G36*
G01*
X130875000Y-112200000D02*
X130675000Y-112200000D01*
G75*
G02*
X130575000Y-112100000I0J100000D01*
G01*
X130575000Y-110675000D01*
G75*
G02*
X130675000Y-110575000I100000J0D01*
G01*
X130875000Y-110575000D01*
G75*
G02*
X130975000Y-110675000I0J-100000D01*
G01*
X130975000Y-112100000D01*
G75*
G02*
X130875000Y-112200000I-100000J0D01*
G01*
G37*
G04 #@! TD.AperFunction*
D26*
X134790000Y-91850000D03*
X134790000Y-92800000D03*
X134790000Y-93750000D03*
X137410000Y-93750000D03*
X137410000Y-91850000D03*
D27*
X144200000Y-108710000D03*
X142300000Y-108710000D03*
X142300000Y-106090000D03*
X143250000Y-106090000D03*
X144200000Y-106090000D03*
G04 #@! TA.AperFunction,SMDPad,CuDef*
G36*
G01*
X135125000Y-116425000D02*
X134925000Y-116425000D01*
G75*
G02*
X134825000Y-116325000I0J100000D01*
G01*
X134825000Y-114900000D01*
G75*
G02*
X134925000Y-114800000I100000J0D01*
G01*
X135125000Y-114800000D01*
G75*
G02*
X135225000Y-114900000I0J-100000D01*
G01*
X135225000Y-116325000D01*
G75*
G02*
X135125000Y-116425000I-100000J0D01*
G01*
G37*
G04 #@! TD.AperFunction*
G04 #@! TA.AperFunction,SMDPad,CuDef*
G36*
G01*
X135775000Y-116425000D02*
X135575000Y-116425000D01*
G75*
G02*
X135475000Y-116325000I0J100000D01*
G01*
X135475000Y-114900000D01*
G75*
G02*
X135575000Y-114800000I100000J0D01*
G01*
X135775000Y-114800000D01*
G75*
G02*
X135875000Y-114900000I0J-100000D01*
G01*
X135875000Y-116325000D01*
G75*
G02*
X135775000Y-116425000I-100000J0D01*
G01*
G37*
G04 #@! TD.AperFunction*
G04 #@! TA.AperFunction,SMDPad,CuDef*
G36*
G01*
X136425000Y-116425000D02*
X136225000Y-116425000D01*
G75*
G02*
X136125000Y-116325000I0J100000D01*
G01*
X136125000Y-114900000D01*
G75*
G02*
X136225000Y-114800000I100000J0D01*
G01*
X136425000Y-114800000D01*
G75*
G02*
X136525000Y-114900000I0J-100000D01*
G01*
X136525000Y-116325000D01*
G75*
G02*
X136425000Y-116425000I-100000J0D01*
G01*
G37*
G04 #@! TD.AperFunction*
G04 #@! TA.AperFunction,SMDPad,CuDef*
G36*
G01*
X137075000Y-116425000D02*
X136875000Y-116425000D01*
G75*
G02*
X136775000Y-116325000I0J100000D01*
G01*
X136775000Y-114900000D01*
G75*
G02*
X136875000Y-114800000I100000J0D01*
G01*
X137075000Y-114800000D01*
G75*
G02*
X137175000Y-114900000I0J-100000D01*
G01*
X137175000Y-116325000D01*
G75*
G02*
X137075000Y-116425000I-100000J0D01*
G01*
G37*
G04 #@! TD.AperFunction*
G04 #@! TA.AperFunction,SMDPad,CuDef*
G36*
G01*
X137075000Y-112200000D02*
X136875000Y-112200000D01*
G75*
G02*
X136775000Y-112100000I0J100000D01*
G01*
X136775000Y-110675000D01*
G75*
G02*
X136875000Y-110575000I100000J0D01*
G01*
X137075000Y-110575000D01*
G75*
G02*
X137175000Y-110675000I0J-100000D01*
G01*
X137175000Y-112100000D01*
G75*
G02*
X137075000Y-112200000I-100000J0D01*
G01*
G37*
G04 #@! TD.AperFunction*
G04 #@! TA.AperFunction,SMDPad,CuDef*
G36*
G01*
X136425000Y-112200000D02*
X136225000Y-112200000D01*
G75*
G02*
X136125000Y-112100000I0J100000D01*
G01*
X136125000Y-110675000D01*
G75*
G02*
X136225000Y-110575000I100000J0D01*
G01*
X136425000Y-110575000D01*
G75*
G02*
X136525000Y-110675000I0J-100000D01*
G01*
X136525000Y-112100000D01*
G75*
G02*
X136425000Y-112200000I-100000J0D01*
G01*
G37*
G04 #@! TD.AperFunction*
G04 #@! TA.AperFunction,SMDPad,CuDef*
G36*
G01*
X135775000Y-112200000D02*
X135575000Y-112200000D01*
G75*
G02*
X135475000Y-112100000I0J100000D01*
G01*
X135475000Y-110675000D01*
G75*
G02*
X135575000Y-110575000I100000J0D01*
G01*
X135775000Y-110575000D01*
G75*
G02*
X135875000Y-110675000I0J-100000D01*
G01*
X135875000Y-112100000D01*
G75*
G02*
X135775000Y-112200000I-100000J0D01*
G01*
G37*
G04 #@! TD.AperFunction*
G04 #@! TA.AperFunction,SMDPad,CuDef*
G36*
G01*
X135125000Y-112200000D02*
X134925000Y-112200000D01*
G75*
G02*
X134825000Y-112100000I0J100000D01*
G01*
X134825000Y-110675000D01*
G75*
G02*
X134925000Y-110575000I100000J0D01*
G01*
X135125000Y-110575000D01*
G75*
G02*
X135225000Y-110675000I0J-100000D01*
G01*
X135225000Y-112100000D01*
G75*
G02*
X135125000Y-112200000I-100000J0D01*
G01*
G37*
G04 #@! TD.AperFunction*
G04 #@! TA.AperFunction,SMDPad,CuDef*
D28*
G36*
X125750000Y-107849398D02*
G01*
X125725466Y-107849398D01*
X125676635Y-107844588D01*
X125628510Y-107835016D01*
X125581555Y-107820772D01*
X125536222Y-107801995D01*
X125492949Y-107778864D01*
X125452150Y-107751604D01*
X125414221Y-107720476D01*
X125379524Y-107685779D01*
X125348396Y-107647850D01*
X125321136Y-107607051D01*
X125298005Y-107563778D01*
X125279228Y-107518445D01*
X125264984Y-107471490D01*
X125255412Y-107423365D01*
X125250602Y-107374534D01*
X125250602Y-107350000D01*
X125250000Y-107350000D01*
X125250000Y-106850000D01*
X125250602Y-106850000D01*
X125250602Y-106825466D01*
X125255412Y-106776635D01*
X125264984Y-106728510D01*
X125279228Y-106681555D01*
X125298005Y-106636222D01*
X125321136Y-106592949D01*
X125348396Y-106552150D01*
X125379524Y-106514221D01*
X125414221Y-106479524D01*
X125452150Y-106448396D01*
X125492949Y-106421136D01*
X125536222Y-106398005D01*
X125581555Y-106379228D01*
X125628510Y-106364984D01*
X125676635Y-106355412D01*
X125725466Y-106350602D01*
X125750000Y-106350602D01*
X125750000Y-106350000D01*
X126250000Y-106350000D01*
X126250000Y-107850000D01*
X125750000Y-107850000D01*
X125750000Y-107849398D01*
G37*
G04 #@! TD.AperFunction*
G04 #@! TA.AperFunction,SMDPad,CuDef*
G36*
X126550000Y-106350000D02*
G01*
X127050000Y-106350000D01*
X127050000Y-106350602D01*
X127074534Y-106350602D01*
X127123365Y-106355412D01*
X127171490Y-106364984D01*
X127218445Y-106379228D01*
X127263778Y-106398005D01*
X127307051Y-106421136D01*
X127347850Y-106448396D01*
X127385779Y-106479524D01*
X127420476Y-106514221D01*
X127451604Y-106552150D01*
X127478864Y-106592949D01*
X127501995Y-106636222D01*
X127520772Y-106681555D01*
X127535016Y-106728510D01*
X127544588Y-106776635D01*
X127549398Y-106825466D01*
X127549398Y-106850000D01*
X127550000Y-106850000D01*
X127550000Y-107350000D01*
X127549398Y-107350000D01*
X127549398Y-107374534D01*
X127544588Y-107423365D01*
X127535016Y-107471490D01*
X127520772Y-107518445D01*
X127501995Y-107563778D01*
X127478864Y-107607051D01*
X127451604Y-107647850D01*
X127420476Y-107685779D01*
X127385779Y-107720476D01*
X127347850Y-107751604D01*
X127307051Y-107778864D01*
X127263778Y-107801995D01*
X127218445Y-107820772D01*
X127171490Y-107835016D01*
X127123365Y-107844588D01*
X127074534Y-107849398D01*
X127050000Y-107849398D01*
X127050000Y-107850000D01*
X126550000Y-107850000D01*
X126550000Y-106350000D01*
G37*
G04 #@! TD.AperFunction*
D29*
X133450001Y-93349999D03*
X133450001Y-94399967D03*
X133450000Y-95350000D03*
X134450000Y-95350000D03*
X135450000Y-95350000D03*
X132450000Y-95350000D03*
X131450000Y-95350000D03*
X131400000Y-114100000D03*
X140750000Y-111000000D03*
X141000000Y-114500000D03*
X145350002Y-103900000D03*
X145800000Y-105700000D03*
X145800000Y-106700000D03*
X145800000Y-107700000D03*
X145800000Y-108700000D03*
X145800000Y-109700000D03*
X145800000Y-110700000D03*
X145800000Y-111700000D03*
X136450000Y-95350000D03*
X137450000Y-95350000D03*
X138450000Y-95350000D03*
X139450000Y-95350000D03*
X140450000Y-95350000D03*
X141450000Y-95350000D03*
X142450000Y-95350000D03*
X130450000Y-95350000D03*
X129450000Y-95350000D03*
X120300000Y-96300000D03*
X113200000Y-104350000D03*
X121000000Y-106000000D03*
X122500000Y-106000000D03*
X124000000Y-106000000D03*
X121000000Y-107000000D03*
X122500000Y-107000000D03*
X124000000Y-107000000D03*
X121000000Y-108000000D03*
X122500000Y-108000000D03*
X124000000Y-108000000D03*
X133950000Y-111350000D03*
X138400000Y-111350000D03*
X125850000Y-94000000D03*
X117400000Y-95300000D03*
X137750000Y-98750000D03*
X136750000Y-98750000D03*
X137750000Y-99750000D03*
X136750000Y-99750000D03*
X137750000Y-100750000D03*
X136750000Y-100750000D03*
X137750000Y-101750000D03*
X136750000Y-101750000D03*
X133600000Y-108900000D03*
X133600000Y-105800000D03*
X134600000Y-105800000D03*
X135600000Y-105800000D03*
X136600000Y-105800000D03*
X137600000Y-105800000D03*
X138600000Y-105800000D03*
X134600000Y-108900000D03*
X135600000Y-108900000D03*
X136600000Y-108900000D03*
X137600000Y-108900000D03*
X138600000Y-108900000D03*
X138700000Y-107300000D03*
D30*
X95000000Y-113000000D02*
X92600000Y-115400000D01*
X95000000Y-103000000D02*
X95000000Y-113000000D01*
X95000000Y-101000000D02*
X95000000Y-98200000D01*
X95350000Y-97850000D02*
X95350000Y-95500000D01*
X95000000Y-98200000D02*
X95350000Y-97850000D01*
X95350000Y-95500000D02*
X95350000Y-94050000D01*
X95900000Y-93500000D02*
X109500000Y-93500000D01*
X95350000Y-94050000D02*
X95900000Y-93500000D01*
D31*
X106600000Y-104000000D02*
X110380000Y-107780000D01*
X100000000Y-104000000D02*
X106600000Y-104000000D01*
X97000000Y-101000000D02*
X100000000Y-104000000D01*
X95000000Y-101000000D02*
X97000000Y-101000000D01*
X111800000Y-93500000D02*
X109500000Y-93500000D01*
X112050000Y-93250000D02*
X111800000Y-93500000D01*
X113000000Y-93250000D02*
X112050000Y-93250000D01*
X116300000Y-91650000D02*
X115250000Y-91650000D01*
X115250000Y-91650000D02*
X114200000Y-90600000D01*
X109450000Y-90600000D02*
X108550000Y-91500000D01*
X114200000Y-90600000D02*
X109450000Y-90600000D01*
D30*
X92600000Y-94100000D02*
X92600000Y-107780000D01*
X95200000Y-91500000D02*
X92600000Y-94100000D01*
X108550000Y-91500000D02*
X95200000Y-91500000D01*
D32*
X122000000Y-110770000D02*
X122000000Y-112040000D01*
D31*
X125500000Y-114100000D02*
X124200000Y-115400000D01*
D32*
X122000000Y-112040000D02*
X122000000Y-114250000D01*
X122750000Y-115000000D02*
X125000000Y-115000000D01*
X122000000Y-114250000D02*
X122750000Y-115000000D01*
D31*
X125550000Y-114450000D02*
X125000000Y-115000000D01*
D32*
X120970000Y-110770000D02*
X119370000Y-110770000D01*
X122000000Y-110770000D02*
X120970000Y-110770000D01*
D31*
X120500000Y-110300000D02*
X120970000Y-110770000D01*
D33*
X119100000Y-110500000D02*
X119370000Y-110770000D01*
D32*
X105220001Y-110399999D02*
X100220000Y-115400000D01*
X119370000Y-110770000D02*
X118999999Y-110399999D01*
D33*
X115000000Y-110249998D02*
X114849999Y-110399999D01*
X115000000Y-106725000D02*
X115000000Y-110249998D01*
D32*
X114849999Y-110399999D02*
X105220001Y-110399999D01*
X118999999Y-110399999D02*
X114849999Y-110399999D01*
X127200000Y-109000000D02*
X127200000Y-103600000D01*
X127200000Y-103600000D02*
X127000000Y-103400000D01*
X125000000Y-111200000D02*
X127200000Y-109000000D01*
X125000000Y-115000000D02*
X125000000Y-111200000D01*
D30*
X102500000Y-103250000D02*
X102500000Y-101600000D01*
X102500000Y-101600000D02*
X102362000Y-101462000D01*
X102362000Y-101462000D02*
X102362000Y-99500000D01*
X141700000Y-93750000D02*
X141700000Y-95050000D01*
X134000000Y-92800000D02*
X133450001Y-93349999D01*
X134790000Y-92800000D02*
X134000000Y-92800000D01*
X133100000Y-93700000D02*
X133450001Y-93349999D01*
X131900000Y-93700000D02*
X133100000Y-93700000D01*
X133450001Y-93349999D02*
X133450001Y-94399967D01*
X133450001Y-95349999D02*
X133450000Y-95350000D01*
X133450001Y-94399967D02*
X133450001Y-95349999D01*
X131450000Y-95350000D02*
X132450000Y-95350000D01*
X132450000Y-95350000D02*
X135450000Y-95350000D01*
X127975000Y-95600000D02*
X130400000Y-95600000D01*
X130650000Y-95350000D02*
X131450000Y-95350000D01*
X130400000Y-95600000D02*
X130650000Y-95350000D01*
D33*
X131425000Y-114125000D02*
X131400000Y-114100000D01*
X131425000Y-115612500D02*
X131425000Y-114125000D01*
D30*
X142350000Y-111000000D02*
X140750000Y-111000000D01*
X144200000Y-106090000D02*
X144200000Y-103900000D01*
X142287500Y-114500000D02*
X141000000Y-114500000D01*
X144200000Y-103900000D02*
X145350002Y-103900000D01*
D31*
X119825000Y-95825000D02*
X119825000Y-95600000D01*
X120300000Y-96300000D02*
X119825000Y-95825000D01*
X112050000Y-104350000D02*
X113200000Y-104350000D01*
X118300000Y-95205000D02*
X118300000Y-95000000D01*
X118300000Y-95000000D02*
X118300000Y-92600000D01*
X118300000Y-92600000D02*
X118300000Y-96600000D01*
X119100000Y-98900000D02*
X119700000Y-99500000D01*
X119700000Y-99500000D02*
X120685000Y-99500000D01*
X119100000Y-97400000D02*
X119100000Y-98900000D01*
X118300000Y-96600000D02*
X119100000Y-97400000D01*
X110450000Y-91500000D02*
X111800000Y-91500000D01*
X112050000Y-91750000D02*
X113000000Y-91750000D01*
X111800000Y-91500000D02*
X112050000Y-91750000D01*
X113000000Y-91750000D02*
X114150000Y-91750000D01*
X115000000Y-92600000D02*
X118300000Y-92600000D01*
X114150000Y-91750000D02*
X115000000Y-92600000D01*
D30*
X102500000Y-105500000D02*
X100220000Y-107780000D01*
X102500000Y-104750000D02*
X102500000Y-105500000D01*
D31*
X123000000Y-96100000D02*
X123000000Y-95587500D01*
X124495000Y-97595000D02*
X123000000Y-96100000D01*
X121387500Y-95587500D02*
X121375000Y-95600000D01*
X123000000Y-95587500D02*
X121387500Y-95587500D01*
D33*
X145212500Y-114500000D02*
X145212500Y-116487500D01*
X145212500Y-116487500D02*
X144800000Y-116900000D01*
X144800000Y-116900000D02*
X136550000Y-116900000D01*
X136325000Y-116675000D02*
X136325000Y-115650000D01*
X136550000Y-116900000D02*
X136325000Y-116675000D01*
D30*
X145212500Y-114500000D02*
X145850000Y-114500000D01*
X147850000Y-112500000D02*
X151500000Y-112500000D01*
X145850000Y-114500000D02*
X147850000Y-112500000D01*
X151500000Y-94300000D02*
X150200000Y-93000000D01*
X151500000Y-99500000D02*
X151500000Y-94300000D01*
D33*
X122590000Y-101405000D02*
X122295000Y-101405000D01*
X121141001Y-102355001D02*
X121148001Y-102348001D01*
X121344999Y-102355001D02*
X121141001Y-102355001D01*
X122295000Y-101405000D02*
X121344999Y-102355001D01*
X120894999Y-102355001D02*
X121141001Y-102355001D01*
X120744999Y-102355001D02*
X120894999Y-102355001D01*
X120644999Y-102355001D02*
X120744999Y-102355001D01*
X120344999Y-102355001D02*
X120744999Y-102355001D01*
X118700000Y-104000000D02*
X120344999Y-102355001D01*
X118700000Y-105075000D02*
X118700000Y-104000000D01*
D31*
X120685000Y-101405000D02*
X120500000Y-101590000D01*
D33*
X119045000Y-101405000D02*
X120685000Y-101405000D01*
X116800000Y-103650000D02*
X119045000Y-101405000D01*
X115500000Y-103650000D02*
X116800000Y-103650000D01*
X115000000Y-104150000D02*
X115500000Y-103650000D01*
X115000000Y-105075000D02*
X115000000Y-104150000D01*
X124495000Y-99500000D02*
X124500000Y-99500000D01*
X124500000Y-99500000D02*
X125450000Y-98550000D01*
X125450000Y-98550000D02*
X125450000Y-97000000D01*
X124500000Y-96050000D02*
X124500000Y-95587500D01*
X125450000Y-97000000D02*
X124500000Y-96050000D01*
D31*
X124512500Y-95600000D02*
X124500000Y-95587500D01*
X126425000Y-95600000D02*
X124512500Y-95600000D01*
D33*
X132075000Y-114125000D02*
X132075000Y-115612500D01*
X132575000Y-114275000D02*
X132725000Y-114425000D01*
X132725000Y-114425000D02*
X132725000Y-115612500D01*
X132575000Y-114275000D02*
X134825000Y-114275000D01*
X135675000Y-113425000D02*
X135675000Y-111387500D01*
X134825000Y-114275000D02*
X135675000Y-113425000D01*
X132125000Y-114275000D02*
X132575000Y-114275000D01*
X132100000Y-114250000D02*
X132125000Y-114275000D01*
X132100000Y-113800000D02*
X132100000Y-114250000D01*
X131800000Y-113500000D02*
X132100000Y-113800000D01*
X129775000Y-113500000D02*
X131800000Y-113500000D01*
X129000000Y-114275000D02*
X129775000Y-113500000D01*
X129000000Y-112725000D02*
X131125000Y-112725000D01*
X131425000Y-112425000D02*
X131425000Y-111387500D01*
X131125000Y-112725000D02*
X131425000Y-112425000D01*
X131125000Y-112725000D02*
X132625000Y-112725000D01*
X132725000Y-112625000D02*
X132725000Y-111387500D01*
X132625000Y-112725000D02*
X132725000Y-112625000D01*
X136325000Y-110375000D02*
X136325000Y-111350000D01*
X136000000Y-110050000D02*
X136325000Y-110375000D01*
X133165698Y-110050000D02*
X136000000Y-110050000D01*
X132725000Y-110490698D02*
X133165698Y-110050000D01*
X132725000Y-111387500D02*
X132725000Y-110490698D01*
D30*
X139425000Y-91850000D02*
X139450000Y-91825000D01*
X137410000Y-91850000D02*
X139425000Y-91850000D01*
X141675000Y-91825000D02*
X141700000Y-91850000D01*
X139450000Y-91825000D02*
X141675000Y-91825000D01*
D31*
X133987500Y-111387500D02*
X133950000Y-111350000D01*
X135025000Y-111387500D02*
X133987500Y-111387500D01*
X143200000Y-91850000D02*
X141700000Y-91850000D01*
X144450000Y-93100000D02*
X143200000Y-91850000D01*
X144450000Y-100900000D02*
X144450000Y-93100000D01*
X143300000Y-102050000D02*
X144450000Y-100900000D01*
X139600000Y-103600000D02*
X141150000Y-102050000D01*
X139600000Y-110150000D02*
X139600000Y-103600000D01*
X141150000Y-102050000D02*
X143300000Y-102050000D01*
X138400000Y-111350000D02*
X139600000Y-110150000D01*
D30*
X144200000Y-110950000D02*
X144250000Y-111000000D01*
X144200000Y-110000000D02*
X144200000Y-110950000D01*
X144200000Y-108710000D02*
X144200000Y-110000000D01*
D33*
X144000000Y-109800000D02*
X144200000Y-110000000D01*
X140850000Y-109800000D02*
X144000000Y-109800000D01*
X140500000Y-109450000D02*
X140850000Y-109800000D01*
X140500000Y-108925000D02*
X140500000Y-109450000D01*
D31*
X138375000Y-115650000D02*
X138750000Y-115275000D01*
X136975000Y-115650000D02*
X138375000Y-115650000D01*
X138750000Y-115275000D02*
X140050000Y-113975000D01*
X140050000Y-113975000D02*
X140050000Y-110250000D01*
X140500000Y-109800000D02*
X140500000Y-108925000D01*
X140050000Y-110250000D02*
X140500000Y-109800000D01*
D30*
X128950000Y-91800000D02*
X132550000Y-91800000D01*
X126737500Y-94012500D02*
X128950000Y-91800000D01*
X132600000Y-91850000D02*
X132550000Y-91800000D01*
X134790000Y-91850000D02*
X132600000Y-91850000D01*
D31*
X135700000Y-91850000D02*
X134790000Y-91850000D01*
X136100000Y-92250000D02*
X135700000Y-91850000D01*
X136100000Y-93350000D02*
X136100000Y-92250000D01*
X135700000Y-93750000D02*
X136100000Y-93350000D01*
X134790000Y-93750000D02*
X135700000Y-93750000D01*
X125412500Y-94012500D02*
X125837500Y-94012500D01*
X125837500Y-94012500D02*
X125850000Y-94000000D01*
D30*
X125412500Y-94012500D02*
X126737500Y-94012500D01*
X124500000Y-94012500D02*
X125412500Y-94012500D01*
D31*
X98650000Y-95500000D02*
X100700000Y-95500000D01*
X100700000Y-95500000D02*
X100900000Y-95300000D01*
X117400000Y-95300000D02*
X100900000Y-95300000D01*
D33*
X137410000Y-93750000D02*
X138250000Y-93750000D01*
X138625000Y-93375000D02*
X139450000Y-93375000D01*
X138250000Y-93750000D02*
X138625000Y-93375000D01*
X142300000Y-108710000D02*
X142300000Y-107550000D01*
X142300000Y-107550000D02*
X142450000Y-107400000D01*
X142450000Y-107400000D02*
X143000000Y-107400000D01*
X143250000Y-107150000D02*
X143250000Y-106090000D01*
X143000000Y-107400000D02*
X143250000Y-107150000D01*
D30*
X143250000Y-104850000D02*
X143250000Y-106090000D01*
X142300000Y-103900000D02*
X143250000Y-104850000D01*
D31*
X145000000Y-100986410D02*
X143486401Y-102500009D01*
X142961400Y-90974990D02*
X145000000Y-93013590D01*
X142300000Y-102750000D02*
X142300000Y-103900000D01*
X124625010Y-90974990D02*
X142961400Y-90974990D01*
X142549990Y-102500010D02*
X142300000Y-102750000D01*
X123000000Y-92600000D02*
X124625010Y-90974990D01*
X143486401Y-102500009D02*
X142549990Y-102500010D01*
X145000000Y-93013590D02*
X145000000Y-100986410D01*
X123000000Y-94012500D02*
X123000000Y-92600000D01*
D33*
X142300000Y-106090000D02*
X140860000Y-106090000D01*
X140500000Y-106450000D02*
X140500000Y-107375000D01*
X140860000Y-106090000D02*
X140500000Y-106450000D01*
D32*
X116600000Y-112600000D02*
X119500000Y-115500000D01*
X108100000Y-112600000D02*
X116600000Y-112600000D01*
X105300000Y-115400000D02*
X108100000Y-112600000D01*
D33*
X119700000Y-109500000D02*
X122000000Y-109500000D01*
X118700000Y-108500000D02*
X119700000Y-109500000D01*
X118700000Y-106725000D02*
X118700000Y-108500000D01*
X132450000Y-110200000D02*
X132075000Y-110575000D01*
X132075000Y-110575000D02*
X132075000Y-111387500D01*
X133000000Y-109650000D02*
X132450000Y-110200000D01*
X136600000Y-109650000D02*
X133000000Y-109650000D01*
X136975000Y-110025000D02*
X136600000Y-109650000D01*
X136975000Y-111350000D02*
X136975000Y-110025000D01*
X133000000Y-109650000D02*
X132650000Y-109650000D01*
X131200000Y-109225000D02*
X131200000Y-109500000D01*
X130775000Y-109925000D02*
X130775000Y-110475000D01*
X131200000Y-109500000D02*
X130775000Y-109925000D01*
X130775000Y-110475000D02*
X130775000Y-111387500D01*
X130775000Y-110325000D02*
X130775000Y-110475000D01*
X131200000Y-109225000D02*
X131725000Y-109225000D01*
X132150000Y-109650000D02*
X132650000Y-109650000D01*
X131725000Y-109225000D02*
X132150000Y-109650000D01*
X130775000Y-115612500D02*
X130775000Y-116575000D01*
X130775000Y-116575000D02*
X131200000Y-117000000D01*
X131200000Y-117000000D02*
X134800000Y-117000000D01*
X135025000Y-116775000D02*
X135025000Y-115650000D01*
X134800000Y-117000000D02*
X135025000Y-116775000D01*
X134800000Y-117000000D02*
X135550000Y-117000000D01*
X135675000Y-116875000D02*
X135675000Y-115650000D01*
X135550000Y-117000000D02*
X135675000Y-116875000D01*
X121638060Y-98546940D02*
X121940001Y-98244999D01*
X112950000Y-102950000D02*
X113000000Y-103000000D01*
X121638060Y-100111940D02*
X121638060Y-98546940D01*
X121940001Y-98244999D02*
X122590000Y-97595000D01*
X121300000Y-100450000D02*
X121638060Y-100111940D01*
X119434300Y-100450000D02*
X121300000Y-100450000D01*
X113000000Y-103000000D02*
X116884300Y-103000000D01*
X116884300Y-103000000D02*
X119434300Y-100450000D01*
X112950000Y-102300000D02*
X112950000Y-102950000D01*
D34*
X158148000Y-104373000D02*
X146802606Y-104373000D01*
X146627000Y-104197394D01*
X146627000Y-103264531D01*
X147915074Y-103264531D01*
X148025921Y-103541714D01*
X148336840Y-103695089D01*
X148671705Y-103784860D01*
X149017650Y-103807576D01*
X149361380Y-103762366D01*
X149689685Y-103650966D01*
X149894079Y-103541714D01*
X150004926Y-103264531D01*
X152995074Y-103264531D01*
X153105921Y-103541714D01*
X153416840Y-103695089D01*
X153751705Y-103784860D01*
X154097650Y-103807576D01*
X154441380Y-103762366D01*
X154769685Y-103650966D01*
X154974079Y-103541714D01*
X155084926Y-103264531D01*
X154040000Y-102219605D01*
X152995074Y-103264531D01*
X150004926Y-103264531D01*
X148960000Y-102219605D01*
X147915074Y-103264531D01*
X146627000Y-103264531D01*
X146627000Y-102097650D01*
X147192424Y-102097650D01*
X147237634Y-102441380D01*
X147349034Y-102769685D01*
X147458286Y-102974079D01*
X147735469Y-103084926D01*
X148780395Y-102040000D01*
X147735469Y-100995074D01*
X147458286Y-101105921D01*
X147304911Y-101416840D01*
X147215140Y-101751705D01*
X147192424Y-102097650D01*
X146627000Y-102097650D01*
X146627000Y-97017650D01*
X147192424Y-97017650D01*
X147237634Y-97361380D01*
X147349034Y-97689685D01*
X147458286Y-97894079D01*
X147735469Y-98004926D01*
X148780395Y-96960000D01*
X147735469Y-95915074D01*
X147458286Y-96025921D01*
X147304911Y-96336840D01*
X147215140Y-96671705D01*
X147192424Y-97017650D01*
X146627000Y-97017650D01*
X146627000Y-95735469D01*
X147915074Y-95735469D01*
X148960000Y-96780395D01*
X150004926Y-95735469D01*
X149894079Y-95458286D01*
X149583160Y-95304911D01*
X149248295Y-95215140D01*
X148902350Y-95192424D01*
X148558620Y-95237634D01*
X148230315Y-95349034D01*
X148025921Y-95458286D01*
X147915074Y-95735469D01*
X146627000Y-95735469D01*
X146627000Y-92895465D01*
X147873320Y-92895465D01*
X147873320Y-93304535D01*
X147953126Y-93705745D01*
X148109670Y-94083677D01*
X148336937Y-94423806D01*
X148626194Y-94713063D01*
X148966323Y-94940330D01*
X149344255Y-95096874D01*
X149745465Y-95176680D01*
X150154535Y-95176680D01*
X150423001Y-95123279D01*
X150423001Y-96010439D01*
X150184531Y-95915074D01*
X149139605Y-96960000D01*
X149153748Y-96974143D01*
X148974143Y-97153748D01*
X148960000Y-97139605D01*
X147915074Y-98184531D01*
X148025921Y-98461714D01*
X148336840Y-98615089D01*
X148671705Y-98704860D01*
X149017650Y-98727576D01*
X149361380Y-98682366D01*
X149689685Y-98570966D01*
X149894079Y-98461714D01*
X150004925Y-98184533D01*
X150100635Y-98280243D01*
X150061458Y-98319419D01*
X149858779Y-98622749D01*
X149719171Y-98959792D01*
X149648000Y-99317594D01*
X149648000Y-99682406D01*
X149719171Y-100040208D01*
X149858779Y-100377251D01*
X150061458Y-100680581D01*
X150100635Y-100719758D01*
X150004925Y-100815467D01*
X149894079Y-100538286D01*
X149583160Y-100384911D01*
X149248295Y-100295140D01*
X148902350Y-100272424D01*
X148558620Y-100317634D01*
X148230315Y-100429034D01*
X148025921Y-100538286D01*
X147915074Y-100815469D01*
X148960000Y-101860395D01*
X148974143Y-101846253D01*
X149153748Y-102025858D01*
X149139605Y-102040000D01*
X150184531Y-103084926D01*
X150461714Y-102974079D01*
X150615089Y-102663160D01*
X150704860Y-102328295D01*
X150727576Y-101982350D01*
X150682366Y-101638620D01*
X150570966Y-101310315D01*
X150461714Y-101105921D01*
X150184533Y-100995075D01*
X150280243Y-100899366D01*
X150319419Y-100938542D01*
X150622749Y-101141221D01*
X150959792Y-101280829D01*
X151317594Y-101352000D01*
X151682406Y-101352000D01*
X152040208Y-101280829D01*
X152377251Y-101141221D01*
X152680581Y-100938542D01*
X152719758Y-100899366D01*
X152815467Y-100995075D01*
X152538286Y-101105921D01*
X152384911Y-101416840D01*
X152295140Y-101751705D01*
X152272424Y-102097650D01*
X152317634Y-102441380D01*
X152429034Y-102769685D01*
X152538286Y-102974079D01*
X152815469Y-103084926D01*
X153860395Y-102040000D01*
X154219605Y-102040000D01*
X155264531Y-103084926D01*
X155541714Y-102974079D01*
X155695089Y-102663160D01*
X155784860Y-102328295D01*
X155807576Y-101982350D01*
X155762366Y-101638620D01*
X155650966Y-101310315D01*
X155541714Y-101105921D01*
X155264531Y-100995074D01*
X154219605Y-102040000D01*
X153860395Y-102040000D01*
X153846253Y-102025858D01*
X154025858Y-101846253D01*
X154040000Y-101860395D01*
X155084926Y-100815469D01*
X154974079Y-100538286D01*
X154663160Y-100384911D01*
X154328295Y-100295140D01*
X153982350Y-100272424D01*
X153638620Y-100317634D01*
X153310315Y-100429034D01*
X153105921Y-100538286D01*
X152995075Y-100815467D01*
X152899366Y-100719758D01*
X152938542Y-100680581D01*
X153141221Y-100377251D01*
X153280829Y-100040208D01*
X153352000Y-99682406D01*
X153352000Y-99317594D01*
X153280829Y-98959792D01*
X153141221Y-98622749D01*
X152938542Y-98319419D01*
X152899366Y-98280243D01*
X152995075Y-98184533D01*
X153105921Y-98461714D01*
X153416840Y-98615089D01*
X153751705Y-98704860D01*
X154097650Y-98727576D01*
X154441380Y-98682366D01*
X154769685Y-98570966D01*
X154974079Y-98461714D01*
X155084926Y-98184531D01*
X154040000Y-97139605D01*
X154025858Y-97153748D01*
X153846253Y-96974143D01*
X153860395Y-96960000D01*
X154219605Y-96960000D01*
X155264531Y-98004926D01*
X155541714Y-97894079D01*
X155695089Y-97583160D01*
X155784860Y-97248295D01*
X155807576Y-96902350D01*
X155762366Y-96558620D01*
X155650966Y-96230315D01*
X155541714Y-96025921D01*
X155264531Y-95915074D01*
X154219605Y-96960000D01*
X153860395Y-96960000D01*
X152815469Y-95915074D01*
X152577000Y-96010439D01*
X152577000Y-95735469D01*
X152995074Y-95735469D01*
X154040000Y-96780395D01*
X155084926Y-95735469D01*
X154974079Y-95458286D01*
X154663160Y-95304911D01*
X154328295Y-95215140D01*
X153982350Y-95192424D01*
X153638620Y-95237634D01*
X153310315Y-95349034D01*
X153105921Y-95458286D01*
X152995074Y-95735469D01*
X152577000Y-95735469D01*
X152577000Y-94668525D01*
X152592104Y-94703315D01*
X152924262Y-94869139D01*
X153282387Y-94966975D01*
X153652719Y-94993065D01*
X154021025Y-94946405D01*
X154373151Y-94828789D01*
X154607896Y-94703315D01*
X154733771Y-94413377D01*
X153600000Y-93279605D01*
X153585858Y-93293748D01*
X153406252Y-93114142D01*
X153420395Y-93100000D01*
X153779605Y-93100000D01*
X154913377Y-94233771D01*
X155203315Y-94107896D01*
X155369139Y-93775738D01*
X155466975Y-93417613D01*
X155493065Y-93047281D01*
X155446405Y-92678975D01*
X155328789Y-92326849D01*
X155203315Y-92092104D01*
X154913377Y-91966229D01*
X153779605Y-93100000D01*
X153420395Y-93100000D01*
X152286623Y-91966229D01*
X151996685Y-92092104D01*
X151878421Y-92328995D01*
X151790330Y-92116323D01*
X151570032Y-91786623D01*
X152466229Y-91786623D01*
X153600000Y-92920395D01*
X154733771Y-91786623D01*
X154607896Y-91496685D01*
X154275738Y-91330861D01*
X153917613Y-91233025D01*
X153547281Y-91206935D01*
X153178975Y-91253595D01*
X152826849Y-91371211D01*
X152592104Y-91496685D01*
X152466229Y-91786623D01*
X151570032Y-91786623D01*
X151563063Y-91776194D01*
X151273806Y-91486937D01*
X150933677Y-91259670D01*
X150555745Y-91103126D01*
X150154535Y-91023320D01*
X149745465Y-91023320D01*
X149344255Y-91103126D01*
X148966323Y-91259670D01*
X148626194Y-91486937D01*
X148336937Y-91776194D01*
X148109670Y-92116323D01*
X147953126Y-92494255D01*
X147873320Y-92895465D01*
X146627000Y-92895465D01*
X146627000Y-90852000D01*
X158148000Y-90852000D01*
X158148000Y-104373000D01*
G04 #@! TA.AperFunction,Conductor*
D35*
G36*
X158148000Y-104373000D02*
G01*
X146802606Y-104373000D01*
X146627000Y-104197394D01*
X146627000Y-103264531D01*
X147915074Y-103264531D01*
X148025921Y-103541714D01*
X148336840Y-103695089D01*
X148671705Y-103784860D01*
X149017650Y-103807576D01*
X149361380Y-103762366D01*
X149689685Y-103650966D01*
X149894079Y-103541714D01*
X150004926Y-103264531D01*
X152995074Y-103264531D01*
X153105921Y-103541714D01*
X153416840Y-103695089D01*
X153751705Y-103784860D01*
X154097650Y-103807576D01*
X154441380Y-103762366D01*
X154769685Y-103650966D01*
X154974079Y-103541714D01*
X155084926Y-103264531D01*
X154040000Y-102219605D01*
X152995074Y-103264531D01*
X150004926Y-103264531D01*
X148960000Y-102219605D01*
X147915074Y-103264531D01*
X146627000Y-103264531D01*
X146627000Y-102097650D01*
X147192424Y-102097650D01*
X147237634Y-102441380D01*
X147349034Y-102769685D01*
X147458286Y-102974079D01*
X147735469Y-103084926D01*
X148780395Y-102040000D01*
X147735469Y-100995074D01*
X147458286Y-101105921D01*
X147304911Y-101416840D01*
X147215140Y-101751705D01*
X147192424Y-102097650D01*
X146627000Y-102097650D01*
X146627000Y-97017650D01*
X147192424Y-97017650D01*
X147237634Y-97361380D01*
X147349034Y-97689685D01*
X147458286Y-97894079D01*
X147735469Y-98004926D01*
X148780395Y-96960000D01*
X147735469Y-95915074D01*
X147458286Y-96025921D01*
X147304911Y-96336840D01*
X147215140Y-96671705D01*
X147192424Y-97017650D01*
X146627000Y-97017650D01*
X146627000Y-95735469D01*
X147915074Y-95735469D01*
X148960000Y-96780395D01*
X150004926Y-95735469D01*
X149894079Y-95458286D01*
X149583160Y-95304911D01*
X149248295Y-95215140D01*
X148902350Y-95192424D01*
X148558620Y-95237634D01*
X148230315Y-95349034D01*
X148025921Y-95458286D01*
X147915074Y-95735469D01*
X146627000Y-95735469D01*
X146627000Y-92895465D01*
X147873320Y-92895465D01*
X147873320Y-93304535D01*
X147953126Y-93705745D01*
X148109670Y-94083677D01*
X148336937Y-94423806D01*
X148626194Y-94713063D01*
X148966323Y-94940330D01*
X149344255Y-95096874D01*
X149745465Y-95176680D01*
X150154535Y-95176680D01*
X150423001Y-95123279D01*
X150423001Y-96010439D01*
X150184531Y-95915074D01*
X149139605Y-96960000D01*
X149153748Y-96974143D01*
X148974143Y-97153748D01*
X148960000Y-97139605D01*
X147915074Y-98184531D01*
X148025921Y-98461714D01*
X148336840Y-98615089D01*
X148671705Y-98704860D01*
X149017650Y-98727576D01*
X149361380Y-98682366D01*
X149689685Y-98570966D01*
X149894079Y-98461714D01*
X150004925Y-98184533D01*
X150100635Y-98280243D01*
X150061458Y-98319419D01*
X149858779Y-98622749D01*
X149719171Y-98959792D01*
X149648000Y-99317594D01*
X149648000Y-99682406D01*
X149719171Y-100040208D01*
X149858779Y-100377251D01*
X150061458Y-100680581D01*
X150100635Y-100719758D01*
X150004925Y-100815467D01*
X149894079Y-100538286D01*
X149583160Y-100384911D01*
X149248295Y-100295140D01*
X148902350Y-100272424D01*
X148558620Y-100317634D01*
X148230315Y-100429034D01*
X148025921Y-100538286D01*
X147915074Y-100815469D01*
X148960000Y-101860395D01*
X148974143Y-101846253D01*
X149153748Y-102025858D01*
X149139605Y-102040000D01*
X150184531Y-103084926D01*
X150461714Y-102974079D01*
X150615089Y-102663160D01*
X150704860Y-102328295D01*
X150727576Y-101982350D01*
X150682366Y-101638620D01*
X150570966Y-101310315D01*
X150461714Y-101105921D01*
X150184533Y-100995075D01*
X150280243Y-100899366D01*
X150319419Y-100938542D01*
X150622749Y-101141221D01*
X150959792Y-101280829D01*
X151317594Y-101352000D01*
X151682406Y-101352000D01*
X152040208Y-101280829D01*
X152377251Y-101141221D01*
X152680581Y-100938542D01*
X152719758Y-100899366D01*
X152815467Y-100995075D01*
X152538286Y-101105921D01*
X152384911Y-101416840D01*
X152295140Y-101751705D01*
X152272424Y-102097650D01*
X152317634Y-102441380D01*
X152429034Y-102769685D01*
X152538286Y-102974079D01*
X152815469Y-103084926D01*
X153860395Y-102040000D01*
X154219605Y-102040000D01*
X155264531Y-103084926D01*
X155541714Y-102974079D01*
X155695089Y-102663160D01*
X155784860Y-102328295D01*
X155807576Y-101982350D01*
X155762366Y-101638620D01*
X155650966Y-101310315D01*
X155541714Y-101105921D01*
X155264531Y-100995074D01*
X154219605Y-102040000D01*
X153860395Y-102040000D01*
X153846253Y-102025858D01*
X154025858Y-101846253D01*
X154040000Y-101860395D01*
X155084926Y-100815469D01*
X154974079Y-100538286D01*
X154663160Y-100384911D01*
X154328295Y-100295140D01*
X153982350Y-100272424D01*
X153638620Y-100317634D01*
X153310315Y-100429034D01*
X153105921Y-100538286D01*
X152995075Y-100815467D01*
X152899366Y-100719758D01*
X152938542Y-100680581D01*
X153141221Y-100377251D01*
X153280829Y-100040208D01*
X153352000Y-99682406D01*
X153352000Y-99317594D01*
X153280829Y-98959792D01*
X153141221Y-98622749D01*
X152938542Y-98319419D01*
X152899366Y-98280243D01*
X152995075Y-98184533D01*
X153105921Y-98461714D01*
X153416840Y-98615089D01*
X153751705Y-98704860D01*
X154097650Y-98727576D01*
X154441380Y-98682366D01*
X154769685Y-98570966D01*
X154974079Y-98461714D01*
X155084926Y-98184531D01*
X154040000Y-97139605D01*
X154025858Y-97153748D01*
X153846253Y-96974143D01*
X153860395Y-96960000D01*
X154219605Y-96960000D01*
X155264531Y-98004926D01*
X155541714Y-97894079D01*
X155695089Y-97583160D01*
X155784860Y-97248295D01*
X155807576Y-96902350D01*
X155762366Y-96558620D01*
X155650966Y-96230315D01*
X155541714Y-96025921D01*
X155264531Y-95915074D01*
X154219605Y-96960000D01*
X153860395Y-96960000D01*
X152815469Y-95915074D01*
X152577000Y-96010439D01*
X152577000Y-95735469D01*
X152995074Y-95735469D01*
X154040000Y-96780395D01*
X155084926Y-95735469D01*
X154974079Y-95458286D01*
X154663160Y-95304911D01*
X154328295Y-95215140D01*
X153982350Y-95192424D01*
X153638620Y-95237634D01*
X153310315Y-95349034D01*
X153105921Y-95458286D01*
X152995074Y-95735469D01*
X152577000Y-95735469D01*
X152577000Y-94668525D01*
X152592104Y-94703315D01*
X152924262Y-94869139D01*
X153282387Y-94966975D01*
X153652719Y-94993065D01*
X154021025Y-94946405D01*
X154373151Y-94828789D01*
X154607896Y-94703315D01*
X154733771Y-94413377D01*
X153600000Y-93279605D01*
X153585858Y-93293748D01*
X153406252Y-93114142D01*
X153420395Y-93100000D01*
X153779605Y-93100000D01*
X154913377Y-94233771D01*
X155203315Y-94107896D01*
X155369139Y-93775738D01*
X155466975Y-93417613D01*
X155493065Y-93047281D01*
X155446405Y-92678975D01*
X155328789Y-92326849D01*
X155203315Y-92092104D01*
X154913377Y-91966229D01*
X153779605Y-93100000D01*
X153420395Y-93100000D01*
X152286623Y-91966229D01*
X151996685Y-92092104D01*
X151878421Y-92328995D01*
X151790330Y-92116323D01*
X151570032Y-91786623D01*
X152466229Y-91786623D01*
X153600000Y-92920395D01*
X154733771Y-91786623D01*
X154607896Y-91496685D01*
X154275738Y-91330861D01*
X153917613Y-91233025D01*
X153547281Y-91206935D01*
X153178975Y-91253595D01*
X152826849Y-91371211D01*
X152592104Y-91496685D01*
X152466229Y-91786623D01*
X151570032Y-91786623D01*
X151563063Y-91776194D01*
X151273806Y-91486937D01*
X150933677Y-91259670D01*
X150555745Y-91103126D01*
X150154535Y-91023320D01*
X149745465Y-91023320D01*
X149344255Y-91103126D01*
X148966323Y-91259670D01*
X148626194Y-91486937D01*
X148336937Y-91776194D01*
X148109670Y-92116323D01*
X147953126Y-92494255D01*
X147873320Y-92895465D01*
X146627000Y-92895465D01*
X146627000Y-90852000D01*
X158148000Y-90852000D01*
X158148000Y-104373000D01*
G37*
G04 #@! TD.AperFunction*
D34*
X155873000Y-108302606D02*
X155873000Y-116697394D01*
X155697394Y-116873000D01*
X147302606Y-116873000D01*
X147127000Y-116697394D01*
X147127000Y-116264531D01*
X147915074Y-116264531D01*
X148025921Y-116541714D01*
X148336840Y-116695089D01*
X148671705Y-116784860D01*
X149017650Y-116807576D01*
X149361380Y-116762366D01*
X149689685Y-116650966D01*
X149894079Y-116541714D01*
X150004926Y-116264531D01*
X152995074Y-116264531D01*
X153105921Y-116541714D01*
X153416840Y-116695089D01*
X153751705Y-116784860D01*
X154097650Y-116807576D01*
X154441380Y-116762366D01*
X154769685Y-116650966D01*
X154974079Y-116541714D01*
X155084926Y-116264531D01*
X154040000Y-115219605D01*
X152995074Y-116264531D01*
X150004926Y-116264531D01*
X148960000Y-115219605D01*
X147915074Y-116264531D01*
X147127000Y-116264531D01*
X147127000Y-114474578D01*
X147421903Y-114179675D01*
X147304911Y-114416840D01*
X147215140Y-114751705D01*
X147192424Y-115097650D01*
X147237634Y-115441380D01*
X147349034Y-115769685D01*
X147458286Y-115974079D01*
X147735469Y-116084926D01*
X148780395Y-115040000D01*
X149139605Y-115040000D01*
X150184531Y-116084926D01*
X150461714Y-115974079D01*
X150615089Y-115663160D01*
X150704860Y-115328295D01*
X150720004Y-115097650D01*
X152272424Y-115097650D01*
X152317634Y-115441380D01*
X152429034Y-115769685D01*
X152538286Y-115974079D01*
X152815469Y-116084926D01*
X153860395Y-115040000D01*
X154219605Y-115040000D01*
X155264531Y-116084926D01*
X155541714Y-115974079D01*
X155695089Y-115663160D01*
X155784860Y-115328295D01*
X155807576Y-114982350D01*
X155762366Y-114638620D01*
X155650966Y-114310315D01*
X155541714Y-114105921D01*
X155264531Y-113995074D01*
X154219605Y-115040000D01*
X153860395Y-115040000D01*
X152815469Y-113995074D01*
X152538286Y-114105921D01*
X152384911Y-114416840D01*
X152295140Y-114751705D01*
X152272424Y-115097650D01*
X150720004Y-115097650D01*
X150727576Y-114982350D01*
X150682366Y-114638620D01*
X150570966Y-114310315D01*
X150461714Y-114105921D01*
X150184531Y-113995074D01*
X149139605Y-115040000D01*
X148780395Y-115040000D01*
X148766253Y-115025858D01*
X148945858Y-114846253D01*
X148960000Y-114860395D01*
X150004926Y-113815469D01*
X149894079Y-113538286D01*
X149583340Y-113385000D01*
X150094873Y-113385000D01*
X150210594Y-113558188D01*
X150441812Y-113789406D01*
X150713695Y-113971073D01*
X151015796Y-114096207D01*
X151336504Y-114160000D01*
X151663496Y-114160000D01*
X151984204Y-114096207D01*
X152286305Y-113971073D01*
X152519182Y-113815469D01*
X152995074Y-113815469D01*
X154040000Y-114860395D01*
X155084926Y-113815469D01*
X154974079Y-113538286D01*
X154663160Y-113384911D01*
X154328295Y-113295140D01*
X153982350Y-113272424D01*
X153638620Y-113317634D01*
X153310315Y-113429034D01*
X153105921Y-113538286D01*
X152995074Y-113815469D01*
X152519182Y-113815469D01*
X152558188Y-113789406D01*
X152789406Y-113558188D01*
X152971073Y-113286305D01*
X153096207Y-112984204D01*
X153160000Y-112663496D01*
X153160000Y-112336504D01*
X153096207Y-112015796D01*
X152971073Y-111713695D01*
X152789406Y-111441812D01*
X152558188Y-111210594D01*
X152519183Y-111184531D01*
X152995074Y-111184531D01*
X153105921Y-111461714D01*
X153416840Y-111615089D01*
X153751705Y-111704860D01*
X154097650Y-111727576D01*
X154441380Y-111682366D01*
X154769685Y-111570966D01*
X154974079Y-111461714D01*
X155084926Y-111184531D01*
X154040000Y-110139605D01*
X152995074Y-111184531D01*
X152519183Y-111184531D01*
X152286305Y-111028927D01*
X151984204Y-110903793D01*
X151663496Y-110840000D01*
X151336504Y-110840000D01*
X151015796Y-110903793D01*
X150713695Y-111028927D01*
X150441812Y-111210594D01*
X150210594Y-111441812D01*
X150094873Y-111615000D01*
X149559913Y-111615000D01*
X149689685Y-111570966D01*
X149894079Y-111461714D01*
X150004926Y-111184531D01*
X148960000Y-110139605D01*
X147915074Y-111184531D01*
X148025921Y-111461714D01*
X148336660Y-111615000D01*
X147893465Y-111615000D01*
X147849999Y-111610719D01*
X147806533Y-111615000D01*
X147806523Y-111615000D01*
X147676510Y-111627805D01*
X147509687Y-111678411D01*
X147355941Y-111760589D01*
X147355939Y-111760590D01*
X147355940Y-111760590D01*
X147254953Y-111843468D01*
X147254951Y-111843470D01*
X147221183Y-111871183D01*
X147193470Y-111904951D01*
X147127000Y-111971421D01*
X147127000Y-110017650D01*
X147192424Y-110017650D01*
X147237634Y-110361380D01*
X147349034Y-110689685D01*
X147458286Y-110894079D01*
X147735469Y-111004926D01*
X148780395Y-109960000D01*
X149139605Y-109960000D01*
X150184531Y-111004926D01*
X150461714Y-110894079D01*
X150615089Y-110583160D01*
X150704860Y-110248295D01*
X150720004Y-110017650D01*
X152272424Y-110017650D01*
X152317634Y-110361380D01*
X152429034Y-110689685D01*
X152538286Y-110894079D01*
X152815469Y-111004926D01*
X153860395Y-109960000D01*
X154219605Y-109960000D01*
X155264531Y-111004926D01*
X155541714Y-110894079D01*
X155695089Y-110583160D01*
X155784860Y-110248295D01*
X155807576Y-109902350D01*
X155762366Y-109558620D01*
X155650966Y-109230315D01*
X155541714Y-109025921D01*
X155264531Y-108915074D01*
X154219605Y-109960000D01*
X153860395Y-109960000D01*
X152815469Y-108915074D01*
X152538286Y-109025921D01*
X152384911Y-109336840D01*
X152295140Y-109671705D01*
X152272424Y-110017650D01*
X150720004Y-110017650D01*
X150727576Y-109902350D01*
X150682366Y-109558620D01*
X150570966Y-109230315D01*
X150461714Y-109025921D01*
X150184531Y-108915074D01*
X149139605Y-109960000D01*
X148780395Y-109960000D01*
X147735469Y-108915074D01*
X147458286Y-109025921D01*
X147304911Y-109336840D01*
X147215140Y-109671705D01*
X147192424Y-110017650D01*
X147127000Y-110017650D01*
X147127000Y-108735469D01*
X147915074Y-108735469D01*
X148960000Y-109780395D01*
X150004926Y-108735469D01*
X152995074Y-108735469D01*
X154040000Y-109780395D01*
X155084926Y-108735469D01*
X154974079Y-108458286D01*
X154663160Y-108304911D01*
X154328295Y-108215140D01*
X153982350Y-108192424D01*
X153638620Y-108237634D01*
X153310315Y-108349034D01*
X153105921Y-108458286D01*
X152995074Y-108735469D01*
X150004926Y-108735469D01*
X149894079Y-108458286D01*
X149583160Y-108304911D01*
X149248295Y-108215140D01*
X148902350Y-108192424D01*
X148558620Y-108237634D01*
X148230315Y-108349034D01*
X148025921Y-108458286D01*
X147915074Y-108735469D01*
X147127000Y-108735469D01*
X147127000Y-108302606D01*
X147302606Y-108127000D01*
X155697394Y-108127000D01*
X155873000Y-108302606D01*
G04 #@! TA.AperFunction,Conductor*
D35*
G36*
X155873000Y-108302606D02*
G01*
X155873000Y-116697394D01*
X155697394Y-116873000D01*
X147302606Y-116873000D01*
X147127000Y-116697394D01*
X147127000Y-116264531D01*
X147915074Y-116264531D01*
X148025921Y-116541714D01*
X148336840Y-116695089D01*
X148671705Y-116784860D01*
X149017650Y-116807576D01*
X149361380Y-116762366D01*
X149689685Y-116650966D01*
X149894079Y-116541714D01*
X150004926Y-116264531D01*
X152995074Y-116264531D01*
X153105921Y-116541714D01*
X153416840Y-116695089D01*
X153751705Y-116784860D01*
X154097650Y-116807576D01*
X154441380Y-116762366D01*
X154769685Y-116650966D01*
X154974079Y-116541714D01*
X155084926Y-116264531D01*
X154040000Y-115219605D01*
X152995074Y-116264531D01*
X150004926Y-116264531D01*
X148960000Y-115219605D01*
X147915074Y-116264531D01*
X147127000Y-116264531D01*
X147127000Y-114474578D01*
X147421903Y-114179675D01*
X147304911Y-114416840D01*
X147215140Y-114751705D01*
X147192424Y-115097650D01*
X147237634Y-115441380D01*
X147349034Y-115769685D01*
X147458286Y-115974079D01*
X147735469Y-116084926D01*
X148780395Y-115040000D01*
X149139605Y-115040000D01*
X150184531Y-116084926D01*
X150461714Y-115974079D01*
X150615089Y-115663160D01*
X150704860Y-115328295D01*
X150720004Y-115097650D01*
X152272424Y-115097650D01*
X152317634Y-115441380D01*
X152429034Y-115769685D01*
X152538286Y-115974079D01*
X152815469Y-116084926D01*
X153860395Y-115040000D01*
X154219605Y-115040000D01*
X155264531Y-116084926D01*
X155541714Y-115974079D01*
X155695089Y-115663160D01*
X155784860Y-115328295D01*
X155807576Y-114982350D01*
X155762366Y-114638620D01*
X155650966Y-114310315D01*
X155541714Y-114105921D01*
X155264531Y-113995074D01*
X154219605Y-115040000D01*
X153860395Y-115040000D01*
X152815469Y-113995074D01*
X152538286Y-114105921D01*
X152384911Y-114416840D01*
X152295140Y-114751705D01*
X152272424Y-115097650D01*
X150720004Y-115097650D01*
X150727576Y-114982350D01*
X150682366Y-114638620D01*
X150570966Y-114310315D01*
X150461714Y-114105921D01*
X150184531Y-113995074D01*
X149139605Y-115040000D01*
X148780395Y-115040000D01*
X148766253Y-115025858D01*
X148945858Y-114846253D01*
X148960000Y-114860395D01*
X150004926Y-113815469D01*
X149894079Y-113538286D01*
X149583340Y-113385000D01*
X150094873Y-113385000D01*
X150210594Y-113558188D01*
X150441812Y-113789406D01*
X150713695Y-113971073D01*
X151015796Y-114096207D01*
X151336504Y-114160000D01*
X151663496Y-114160000D01*
X151984204Y-114096207D01*
X152286305Y-113971073D01*
X152519182Y-113815469D01*
X152995074Y-113815469D01*
X154040000Y-114860395D01*
X155084926Y-113815469D01*
X154974079Y-113538286D01*
X154663160Y-113384911D01*
X154328295Y-113295140D01*
X153982350Y-113272424D01*
X153638620Y-113317634D01*
X153310315Y-113429034D01*
X153105921Y-113538286D01*
X152995074Y-113815469D01*
X152519182Y-113815469D01*
X152558188Y-113789406D01*
X152789406Y-113558188D01*
X152971073Y-113286305D01*
X153096207Y-112984204D01*
X153160000Y-112663496D01*
X153160000Y-112336504D01*
X153096207Y-112015796D01*
X152971073Y-111713695D01*
X152789406Y-111441812D01*
X152558188Y-111210594D01*
X152519183Y-111184531D01*
X152995074Y-111184531D01*
X153105921Y-111461714D01*
X153416840Y-111615089D01*
X153751705Y-111704860D01*
X154097650Y-111727576D01*
X154441380Y-111682366D01*
X154769685Y-111570966D01*
X154974079Y-111461714D01*
X155084926Y-111184531D01*
X154040000Y-110139605D01*
X152995074Y-111184531D01*
X152519183Y-111184531D01*
X152286305Y-111028927D01*
X151984204Y-110903793D01*
X151663496Y-110840000D01*
X151336504Y-110840000D01*
X151015796Y-110903793D01*
X150713695Y-111028927D01*
X150441812Y-111210594D01*
X150210594Y-111441812D01*
X150094873Y-111615000D01*
X149559913Y-111615000D01*
X149689685Y-111570966D01*
X149894079Y-111461714D01*
X150004926Y-111184531D01*
X148960000Y-110139605D01*
X147915074Y-111184531D01*
X148025921Y-111461714D01*
X148336660Y-111615000D01*
X147893465Y-111615000D01*
X147849999Y-111610719D01*
X147806533Y-111615000D01*
X147806523Y-111615000D01*
X147676510Y-111627805D01*
X147509687Y-111678411D01*
X147355941Y-111760589D01*
X147355939Y-111760590D01*
X147355940Y-111760590D01*
X147254953Y-111843468D01*
X147254951Y-111843470D01*
X147221183Y-111871183D01*
X147193470Y-111904951D01*
X147127000Y-111971421D01*
X147127000Y-110017650D01*
X147192424Y-110017650D01*
X147237634Y-110361380D01*
X147349034Y-110689685D01*
X147458286Y-110894079D01*
X147735469Y-111004926D01*
X148780395Y-109960000D01*
X149139605Y-109960000D01*
X150184531Y-111004926D01*
X150461714Y-110894079D01*
X150615089Y-110583160D01*
X150704860Y-110248295D01*
X150720004Y-110017650D01*
X152272424Y-110017650D01*
X152317634Y-110361380D01*
X152429034Y-110689685D01*
X152538286Y-110894079D01*
X152815469Y-111004926D01*
X153860395Y-109960000D01*
X154219605Y-109960000D01*
X155264531Y-111004926D01*
X155541714Y-110894079D01*
X155695089Y-110583160D01*
X155784860Y-110248295D01*
X155807576Y-109902350D01*
X155762366Y-109558620D01*
X155650966Y-109230315D01*
X155541714Y-109025921D01*
X155264531Y-108915074D01*
X154219605Y-109960000D01*
X153860395Y-109960000D01*
X152815469Y-108915074D01*
X152538286Y-109025921D01*
X152384911Y-109336840D01*
X152295140Y-109671705D01*
X152272424Y-110017650D01*
X150720004Y-110017650D01*
X150727576Y-109902350D01*
X150682366Y-109558620D01*
X150570966Y-109230315D01*
X150461714Y-109025921D01*
X150184531Y-108915074D01*
X149139605Y-109960000D01*
X148780395Y-109960000D01*
X147735469Y-108915074D01*
X147458286Y-109025921D01*
X147304911Y-109336840D01*
X147215140Y-109671705D01*
X147192424Y-110017650D01*
X147127000Y-110017650D01*
X147127000Y-108735469D01*
X147915074Y-108735469D01*
X148960000Y-109780395D01*
X150004926Y-108735469D01*
X152995074Y-108735469D01*
X154040000Y-109780395D01*
X155084926Y-108735469D01*
X154974079Y-108458286D01*
X154663160Y-108304911D01*
X154328295Y-108215140D01*
X153982350Y-108192424D01*
X153638620Y-108237634D01*
X153310315Y-108349034D01*
X153105921Y-108458286D01*
X152995074Y-108735469D01*
X150004926Y-108735469D01*
X149894079Y-108458286D01*
X149583160Y-108304911D01*
X149248295Y-108215140D01*
X148902350Y-108192424D01*
X148558620Y-108237634D01*
X148230315Y-108349034D01*
X148025921Y-108458286D01*
X147915074Y-108735469D01*
X147127000Y-108735469D01*
X147127000Y-108302606D01*
X147302606Y-108127000D01*
X155697394Y-108127000D01*
X155873000Y-108302606D01*
G37*
G04 #@! TD.AperFunction*
D34*
X130585498Y-92955820D02*
X130549188Y-93075518D01*
X130536928Y-93200000D01*
X130540000Y-93414250D01*
X130698750Y-93573000D01*
X131773000Y-93573000D01*
X131773000Y-93553000D01*
X132027000Y-93553000D01*
X132027000Y-93573000D01*
X133101250Y-93573000D01*
X133260000Y-93414250D01*
X133263072Y-93200000D01*
X133250812Y-93075518D01*
X133214502Y-92955820D01*
X133199097Y-92927000D01*
X133518856Y-92927000D01*
X133489048Y-92963321D01*
X133412255Y-93106990D01*
X133364966Y-93262880D01*
X133348999Y-93425000D01*
X133348999Y-94075000D01*
X133364966Y-94237120D01*
X133412255Y-94393010D01*
X133489048Y-94536679D01*
X133592394Y-94662606D01*
X133718321Y-94765952D01*
X133861990Y-94842745D01*
X134017880Y-94890034D01*
X134180000Y-94906001D01*
X135400000Y-94906001D01*
X135562120Y-94890034D01*
X135718010Y-94842745D01*
X135861679Y-94765952D01*
X135987606Y-94662606D01*
X135993084Y-94655931D01*
X136066077Y-94633789D01*
X136151342Y-94588214D01*
X136212394Y-94662606D01*
X136338321Y-94765952D01*
X136481990Y-94842745D01*
X136637880Y-94890034D01*
X136800000Y-94906001D01*
X138020000Y-94906001D01*
X138182120Y-94890034D01*
X138338010Y-94842745D01*
X138481679Y-94765952D01*
X138607606Y-94662606D01*
X138684562Y-94568836D01*
X138733879Y-94542475D01*
X138795886Y-94575618D01*
X138993984Y-94635710D01*
X139200000Y-94656001D01*
X139700000Y-94656001D01*
X139906016Y-94635710D01*
X140104114Y-94575618D01*
X140286683Y-94478033D01*
X140361879Y-94416320D01*
X140385498Y-94494180D01*
X140444463Y-94604494D01*
X140523815Y-94701185D01*
X140620506Y-94780537D01*
X140730820Y-94839502D01*
X140850518Y-94875812D01*
X140975000Y-94888072D01*
X141414250Y-94885000D01*
X141573000Y-94726250D01*
X141573000Y-93877000D01*
X141827000Y-93877000D01*
X141827000Y-94726250D01*
X141985750Y-94885000D01*
X142425000Y-94888072D01*
X142549482Y-94875812D01*
X142669180Y-94839502D01*
X142779494Y-94780537D01*
X142876185Y-94701185D01*
X142955537Y-94604494D01*
X143014502Y-94494180D01*
X143050812Y-94374482D01*
X143063072Y-94250000D01*
X143060000Y-94035750D01*
X142901250Y-93877000D01*
X141827000Y-93877000D01*
X141573000Y-93877000D01*
X141553000Y-93877000D01*
X141553000Y-93623000D01*
X141573000Y-93623000D01*
X141573000Y-93603000D01*
X141827000Y-93603000D01*
X141827000Y-93623000D01*
X142901250Y-93623000D01*
X143060000Y-93464250D01*
X143063072Y-93250000D01*
X143050812Y-93125518D01*
X143016685Y-93013015D01*
X143473000Y-93469331D01*
X143473000Y-96197394D01*
X143297394Y-96373000D01*
X134849678Y-96373000D01*
X134719622Y-96286099D01*
X134450825Y-96174760D01*
X134165472Y-96118000D01*
X133874528Y-96118000D01*
X133589175Y-96174760D01*
X133320378Y-96286099D01*
X133190322Y-96373000D01*
X132944678Y-96373000D01*
X132814622Y-96286099D01*
X132545825Y-96174760D01*
X132260472Y-96118000D01*
X131969528Y-96118000D01*
X131684175Y-96174760D01*
X131415378Y-96286099D01*
X131285322Y-96373000D01*
X131039678Y-96373000D01*
X130909622Y-96286099D01*
X130640825Y-96174760D01*
X130355472Y-96118000D01*
X130064528Y-96118000D01*
X129779175Y-96174760D01*
X129510378Y-96286099D01*
X129380322Y-96373000D01*
X129134679Y-96373000D01*
X129021181Y-96297163D01*
X129050812Y-96199482D01*
X129063072Y-96075000D01*
X129060000Y-95885750D01*
X128901250Y-95727000D01*
X128102000Y-95727000D01*
X128102000Y-95747000D01*
X127848000Y-95747000D01*
X127848000Y-95727000D01*
X127828000Y-95727000D01*
X127828000Y-95473000D01*
X127848000Y-95473000D01*
X127848000Y-94648750D01*
X128102000Y-94648750D01*
X128102000Y-95473000D01*
X128901250Y-95473000D01*
X129060000Y-95314250D01*
X129063072Y-95125000D01*
X129050812Y-95000518D01*
X129014502Y-94880820D01*
X128955537Y-94770506D01*
X128876185Y-94673815D01*
X128779494Y-94594463D01*
X128669180Y-94535498D01*
X128549482Y-94499188D01*
X128425000Y-94486928D01*
X128260750Y-94490000D01*
X128102000Y-94648750D01*
X127848000Y-94648750D01*
X127736179Y-94536929D01*
X128073108Y-94200000D01*
X130536928Y-94200000D01*
X130549188Y-94324482D01*
X130585498Y-94444180D01*
X130644463Y-94554494D01*
X130723815Y-94651185D01*
X130820506Y-94730537D01*
X130930820Y-94789502D01*
X131050518Y-94825812D01*
X131175000Y-94838072D01*
X131614250Y-94835000D01*
X131773000Y-94676250D01*
X131773000Y-93827000D01*
X132027000Y-93827000D01*
X132027000Y-94676250D01*
X132185750Y-94835000D01*
X132625000Y-94838072D01*
X132749482Y-94825812D01*
X132869180Y-94789502D01*
X132979494Y-94730537D01*
X133076185Y-94651185D01*
X133155537Y-94554494D01*
X133214502Y-94444180D01*
X133250812Y-94324482D01*
X133263072Y-94200000D01*
X133260000Y-93985750D01*
X133101250Y-93827000D01*
X132027000Y-93827000D01*
X131773000Y-93827000D01*
X130698750Y-93827000D01*
X130540000Y-93985750D01*
X130536928Y-94200000D01*
X128073108Y-94200000D01*
X129396108Y-92877000D01*
X130627629Y-92877000D01*
X130585498Y-92955820D01*
G04 #@! TA.AperFunction,Conductor*
D35*
G36*
X130585498Y-92955820D02*
G01*
X130549188Y-93075518D01*
X130536928Y-93200000D01*
X130540000Y-93414250D01*
X130698750Y-93573000D01*
X131773000Y-93573000D01*
X131773000Y-93553000D01*
X132027000Y-93553000D01*
X132027000Y-93573000D01*
X133101250Y-93573000D01*
X133260000Y-93414250D01*
X133263072Y-93200000D01*
X133250812Y-93075518D01*
X133214502Y-92955820D01*
X133199097Y-92927000D01*
X133518856Y-92927000D01*
X133489048Y-92963321D01*
X133412255Y-93106990D01*
X133364966Y-93262880D01*
X133348999Y-93425000D01*
X133348999Y-94075000D01*
X133364966Y-94237120D01*
X133412255Y-94393010D01*
X133489048Y-94536679D01*
X133592394Y-94662606D01*
X133718321Y-94765952D01*
X133861990Y-94842745D01*
X134017880Y-94890034D01*
X134180000Y-94906001D01*
X135400000Y-94906001D01*
X135562120Y-94890034D01*
X135718010Y-94842745D01*
X135861679Y-94765952D01*
X135987606Y-94662606D01*
X135993084Y-94655931D01*
X136066077Y-94633789D01*
X136151342Y-94588214D01*
X136212394Y-94662606D01*
X136338321Y-94765952D01*
X136481990Y-94842745D01*
X136637880Y-94890034D01*
X136800000Y-94906001D01*
X138020000Y-94906001D01*
X138182120Y-94890034D01*
X138338010Y-94842745D01*
X138481679Y-94765952D01*
X138607606Y-94662606D01*
X138684562Y-94568836D01*
X138733879Y-94542475D01*
X138795886Y-94575618D01*
X138993984Y-94635710D01*
X139200000Y-94656001D01*
X139700000Y-94656001D01*
X139906016Y-94635710D01*
X140104114Y-94575618D01*
X140286683Y-94478033D01*
X140361879Y-94416320D01*
X140385498Y-94494180D01*
X140444463Y-94604494D01*
X140523815Y-94701185D01*
X140620506Y-94780537D01*
X140730820Y-94839502D01*
X140850518Y-94875812D01*
X140975000Y-94888072D01*
X141414250Y-94885000D01*
X141573000Y-94726250D01*
X141573000Y-93877000D01*
X141827000Y-93877000D01*
X141827000Y-94726250D01*
X141985750Y-94885000D01*
X142425000Y-94888072D01*
X142549482Y-94875812D01*
X142669180Y-94839502D01*
X142779494Y-94780537D01*
X142876185Y-94701185D01*
X142955537Y-94604494D01*
X143014502Y-94494180D01*
X143050812Y-94374482D01*
X143063072Y-94250000D01*
X143060000Y-94035750D01*
X142901250Y-93877000D01*
X141827000Y-93877000D01*
X141573000Y-93877000D01*
X141553000Y-93877000D01*
X141553000Y-93623000D01*
X141573000Y-93623000D01*
X141573000Y-93603000D01*
X141827000Y-93603000D01*
X141827000Y-93623000D01*
X142901250Y-93623000D01*
X143060000Y-93464250D01*
X143063072Y-93250000D01*
X143050812Y-93125518D01*
X143016685Y-93013015D01*
X143473000Y-93469331D01*
X143473000Y-96197394D01*
X143297394Y-96373000D01*
X134849678Y-96373000D01*
X134719622Y-96286099D01*
X134450825Y-96174760D01*
X134165472Y-96118000D01*
X133874528Y-96118000D01*
X133589175Y-96174760D01*
X133320378Y-96286099D01*
X133190322Y-96373000D01*
X132944678Y-96373000D01*
X132814622Y-96286099D01*
X132545825Y-96174760D01*
X132260472Y-96118000D01*
X131969528Y-96118000D01*
X131684175Y-96174760D01*
X131415378Y-96286099D01*
X131285322Y-96373000D01*
X131039678Y-96373000D01*
X130909622Y-96286099D01*
X130640825Y-96174760D01*
X130355472Y-96118000D01*
X130064528Y-96118000D01*
X129779175Y-96174760D01*
X129510378Y-96286099D01*
X129380322Y-96373000D01*
X129134679Y-96373000D01*
X129021181Y-96297163D01*
X129050812Y-96199482D01*
X129063072Y-96075000D01*
X129060000Y-95885750D01*
X128901250Y-95727000D01*
X128102000Y-95727000D01*
X128102000Y-95747000D01*
X127848000Y-95747000D01*
X127848000Y-95727000D01*
X127828000Y-95727000D01*
X127828000Y-95473000D01*
X127848000Y-95473000D01*
X127848000Y-94648750D01*
X128102000Y-94648750D01*
X128102000Y-95473000D01*
X128901250Y-95473000D01*
X129060000Y-95314250D01*
X129063072Y-95125000D01*
X129050812Y-95000518D01*
X129014502Y-94880820D01*
X128955537Y-94770506D01*
X128876185Y-94673815D01*
X128779494Y-94594463D01*
X128669180Y-94535498D01*
X128549482Y-94499188D01*
X128425000Y-94486928D01*
X128260750Y-94490000D01*
X128102000Y-94648750D01*
X127848000Y-94648750D01*
X127736179Y-94536929D01*
X128073108Y-94200000D01*
X130536928Y-94200000D01*
X130549188Y-94324482D01*
X130585498Y-94444180D01*
X130644463Y-94554494D01*
X130723815Y-94651185D01*
X130820506Y-94730537D01*
X130930820Y-94789502D01*
X131050518Y-94825812D01*
X131175000Y-94838072D01*
X131614250Y-94835000D01*
X131773000Y-94676250D01*
X131773000Y-93827000D01*
X132027000Y-93827000D01*
X132027000Y-94676250D01*
X132185750Y-94835000D01*
X132625000Y-94838072D01*
X132749482Y-94825812D01*
X132869180Y-94789502D01*
X132979494Y-94730537D01*
X133076185Y-94651185D01*
X133155537Y-94554494D01*
X133214502Y-94444180D01*
X133250812Y-94324482D01*
X133263072Y-94200000D01*
X133260000Y-93985750D01*
X133101250Y-93827000D01*
X132027000Y-93827000D01*
X131773000Y-93827000D01*
X130698750Y-93827000D01*
X130540000Y-93985750D01*
X130536928Y-94200000D01*
X128073108Y-94200000D01*
X129396108Y-92877000D01*
X130627629Y-92877000D01*
X130585498Y-92955820D01*
G37*
G04 #@! TD.AperFunction*
D33*
X138156605Y-98542243D02*
X138194520Y-101651252D01*
X138196680Y-101670737D01*
X138202599Y-101689425D01*
X138212050Y-101706600D01*
X138224235Y-101721173D01*
X138679392Y-102170814D01*
X139100000Y-102591422D01*
X139100000Y-104458578D01*
X138658578Y-104900000D01*
X138299145Y-104900000D01*
X138382001Y-104832001D01*
X138457980Y-104739421D01*
X138514437Y-104633797D01*
X138549203Y-104519189D01*
X138560942Y-104400000D01*
X138558000Y-104106000D01*
X138406000Y-103954000D01*
X135754000Y-103954000D01*
X135754000Y-103974000D01*
X135446000Y-103974000D01*
X135446000Y-103954000D01*
X132794000Y-103954000D01*
X132642000Y-104106000D01*
X132639058Y-104400000D01*
X132650797Y-104519189D01*
X132685563Y-104633797D01*
X132742020Y-104739421D01*
X132817999Y-104832001D01*
X132900855Y-104900000D01*
X132272440Y-104900000D01*
X132274203Y-104894189D01*
X132285942Y-104775000D01*
X132283000Y-104681000D01*
X132131000Y-104529000D01*
X131354000Y-104529000D01*
X131354000Y-104549000D01*
X131046000Y-104549000D01*
X131046000Y-104529000D01*
X130269000Y-104529000D01*
X130117000Y-104681000D01*
X130114130Y-104772708D01*
X129800000Y-104458578D01*
X129800000Y-103975000D01*
X130114058Y-103975000D01*
X130117000Y-104069000D01*
X130269000Y-104221000D01*
X131046000Y-104221000D01*
X131046000Y-103519000D01*
X131354000Y-103519000D01*
X131354000Y-104221000D01*
X132131000Y-104221000D01*
X132283000Y-104069000D01*
X132285942Y-103975000D01*
X132274203Y-103855811D01*
X132239437Y-103741203D01*
X132182980Y-103635579D01*
X132107001Y-103542999D01*
X132014421Y-103467020D01*
X131908797Y-103410563D01*
X131794189Y-103375797D01*
X131675000Y-103364058D01*
X131506000Y-103367000D01*
X131354000Y-103519000D01*
X131046000Y-103519000D01*
X130894000Y-103367000D01*
X130725000Y-103364058D01*
X130605811Y-103375797D01*
X130491203Y-103410563D01*
X130385579Y-103467020D01*
X130292999Y-103542999D01*
X130217020Y-103635579D01*
X130160563Y-103741203D01*
X130125797Y-103855811D01*
X130114058Y-103975000D01*
X129800000Y-103975000D01*
X129800000Y-103200000D01*
X132639058Y-103200000D01*
X132642000Y-103494000D01*
X132794000Y-103646000D01*
X135446000Y-103646000D01*
X135446000Y-102744000D01*
X135754000Y-102744000D01*
X135754000Y-103646000D01*
X138406000Y-103646000D01*
X138558000Y-103494000D01*
X138560942Y-103200000D01*
X138549203Y-103080811D01*
X138514437Y-102966203D01*
X138457980Y-102860579D01*
X138382001Y-102767999D01*
X138289421Y-102692020D01*
X138183797Y-102635563D01*
X138069189Y-102600797D01*
X137950000Y-102589058D01*
X135906000Y-102592000D01*
X135754000Y-102744000D01*
X135446000Y-102744000D01*
X135294000Y-102592000D01*
X133250000Y-102589058D01*
X133130811Y-102600797D01*
X133016203Y-102635563D01*
X132910579Y-102692020D01*
X132817999Y-102767999D01*
X132742020Y-102860579D01*
X132685563Y-102966203D01*
X132650797Y-103080811D01*
X132639058Y-103200000D01*
X129800000Y-103200000D01*
X129800000Y-102990715D01*
X130242975Y-102536893D01*
X135402565Y-102412064D01*
X135422022Y-102409671D01*
X135440638Y-102403528D01*
X135457698Y-102393872D01*
X135471707Y-102381943D01*
X135971561Y-101869850D01*
X135983813Y-101854547D01*
X135992844Y-101837148D01*
X135998307Y-101818321D01*
X136000000Y-101800000D01*
X136000000Y-98541422D01*
X136441422Y-98100000D01*
X137708936Y-98100000D01*
X138156605Y-98542243D01*
G04 #@! TA.AperFunction,Conductor*
D35*
G36*
X138156605Y-98542243D02*
G01*
X138194520Y-101651252D01*
X138196680Y-101670737D01*
X138202599Y-101689425D01*
X138212050Y-101706600D01*
X138224235Y-101721173D01*
X138679392Y-102170814D01*
X139100000Y-102591422D01*
X139100000Y-104458578D01*
X138658578Y-104900000D01*
X138299145Y-104900000D01*
X138382001Y-104832001D01*
X138457980Y-104739421D01*
X138514437Y-104633797D01*
X138549203Y-104519189D01*
X138560942Y-104400000D01*
X138558000Y-104106000D01*
X138406000Y-103954000D01*
X135754000Y-103954000D01*
X135754000Y-103974000D01*
X135446000Y-103974000D01*
X135446000Y-103954000D01*
X132794000Y-103954000D01*
X132642000Y-104106000D01*
X132639058Y-104400000D01*
X132650797Y-104519189D01*
X132685563Y-104633797D01*
X132742020Y-104739421D01*
X132817999Y-104832001D01*
X132900855Y-104900000D01*
X132272440Y-104900000D01*
X132274203Y-104894189D01*
X132285942Y-104775000D01*
X132283000Y-104681000D01*
X132131000Y-104529000D01*
X131354000Y-104529000D01*
X131354000Y-104549000D01*
X131046000Y-104549000D01*
X131046000Y-104529000D01*
X130269000Y-104529000D01*
X130117000Y-104681000D01*
X130114130Y-104772708D01*
X129800000Y-104458578D01*
X129800000Y-103975000D01*
X130114058Y-103975000D01*
X130117000Y-104069000D01*
X130269000Y-104221000D01*
X131046000Y-104221000D01*
X131046000Y-103519000D01*
X131354000Y-103519000D01*
X131354000Y-104221000D01*
X132131000Y-104221000D01*
X132283000Y-104069000D01*
X132285942Y-103975000D01*
X132274203Y-103855811D01*
X132239437Y-103741203D01*
X132182980Y-103635579D01*
X132107001Y-103542999D01*
X132014421Y-103467020D01*
X131908797Y-103410563D01*
X131794189Y-103375797D01*
X131675000Y-103364058D01*
X131506000Y-103367000D01*
X131354000Y-103519000D01*
X131046000Y-103519000D01*
X130894000Y-103367000D01*
X130725000Y-103364058D01*
X130605811Y-103375797D01*
X130491203Y-103410563D01*
X130385579Y-103467020D01*
X130292999Y-103542999D01*
X130217020Y-103635579D01*
X130160563Y-103741203D01*
X130125797Y-103855811D01*
X130114058Y-103975000D01*
X129800000Y-103975000D01*
X129800000Y-103200000D01*
X132639058Y-103200000D01*
X132642000Y-103494000D01*
X132794000Y-103646000D01*
X135446000Y-103646000D01*
X135446000Y-102744000D01*
X135754000Y-102744000D01*
X135754000Y-103646000D01*
X138406000Y-103646000D01*
X138558000Y-103494000D01*
X138560942Y-103200000D01*
X138549203Y-103080811D01*
X138514437Y-102966203D01*
X138457980Y-102860579D01*
X138382001Y-102767999D01*
X138289421Y-102692020D01*
X138183797Y-102635563D01*
X138069189Y-102600797D01*
X137950000Y-102589058D01*
X135906000Y-102592000D01*
X135754000Y-102744000D01*
X135446000Y-102744000D01*
X135294000Y-102592000D01*
X133250000Y-102589058D01*
X133130811Y-102600797D01*
X133016203Y-102635563D01*
X132910579Y-102692020D01*
X132817999Y-102767999D01*
X132742020Y-102860579D01*
X132685563Y-102966203D01*
X132650797Y-103080811D01*
X132639058Y-103200000D01*
X129800000Y-103200000D01*
X129800000Y-102990715D01*
X130242975Y-102536893D01*
X135402565Y-102412064D01*
X135422022Y-102409671D01*
X135440638Y-102403528D01*
X135457698Y-102393872D01*
X135471707Y-102381943D01*
X135971561Y-101869850D01*
X135983813Y-101854547D01*
X135992844Y-101837148D01*
X135998307Y-101818321D01*
X136000000Y-101800000D01*
X136000000Y-98541422D01*
X136441422Y-98100000D01*
X137708936Y-98100000D01*
X138156605Y-98542243D01*
G37*
G04 #@! TD.AperFunction*
D33*
X139100000Y-105941422D02*
X139100000Y-108858578D01*
X138658578Y-109300000D01*
X136793738Y-109300000D01*
X136753814Y-109278660D01*
X136678414Y-109255788D01*
X136619647Y-109250000D01*
X136619646Y-109250000D01*
X136600000Y-109248065D01*
X136580354Y-109250000D01*
X133019635Y-109250000D01*
X132999999Y-109248066D01*
X132980363Y-109250000D01*
X132591422Y-109250000D01*
X132200000Y-108858578D01*
X132200000Y-108800000D01*
X132198079Y-108780491D01*
X132192388Y-108761732D01*
X132183147Y-108744443D01*
X132170711Y-108729289D01*
X131955758Y-108514336D01*
X132014421Y-108482980D01*
X132107001Y-108407001D01*
X132182980Y-108314421D01*
X132239437Y-108208797D01*
X132274203Y-108094189D01*
X132285942Y-107975000D01*
X132283000Y-107881000D01*
X132131000Y-107729000D01*
X131354000Y-107729000D01*
X131354000Y-107749000D01*
X131046000Y-107749000D01*
X131046000Y-107729000D01*
X130269000Y-107729000D01*
X130117000Y-107881000D01*
X130114058Y-107975000D01*
X130124725Y-108083303D01*
X129800000Y-107758578D01*
X129800000Y-107700000D01*
X132639058Y-107700000D01*
X132650797Y-107819189D01*
X132685563Y-107933797D01*
X132742020Y-108039421D01*
X132817999Y-108132001D01*
X132910579Y-108207980D01*
X133016203Y-108264437D01*
X133130811Y-108299203D01*
X133250000Y-108310942D01*
X135294000Y-108308000D01*
X135446000Y-108156000D01*
X135446000Y-107254000D01*
X135754000Y-107254000D01*
X135754000Y-108156000D01*
X135906000Y-108308000D01*
X137950000Y-108310942D01*
X138069189Y-108299203D01*
X138183797Y-108264437D01*
X138289421Y-108207980D01*
X138382001Y-108132001D01*
X138457980Y-108039421D01*
X138514437Y-107933797D01*
X138549203Y-107819189D01*
X138560942Y-107700000D01*
X138558000Y-107406000D01*
X138406000Y-107254000D01*
X135754000Y-107254000D01*
X135446000Y-107254000D01*
X132794000Y-107254000D01*
X132642000Y-107406000D01*
X132639058Y-107700000D01*
X129800000Y-107700000D01*
X129800000Y-106425000D01*
X130114058Y-106425000D01*
X130125797Y-106544189D01*
X130160563Y-106658797D01*
X130217020Y-106764421D01*
X130246219Y-106800000D01*
X130217020Y-106835579D01*
X130160563Y-106941203D01*
X130125797Y-107055811D01*
X130114058Y-107175000D01*
X130117000Y-107269000D01*
X130269000Y-107421000D01*
X131046000Y-107421000D01*
X131046000Y-106179000D01*
X131354000Y-106179000D01*
X131354000Y-107421000D01*
X132131000Y-107421000D01*
X132283000Y-107269000D01*
X132285942Y-107175000D01*
X132274203Y-107055811D01*
X132239437Y-106941203D01*
X132182980Y-106835579D01*
X132153781Y-106800000D01*
X132182980Y-106764421D01*
X132239437Y-106658797D01*
X132274203Y-106544189D01*
X132278555Y-106500000D01*
X132639058Y-106500000D01*
X132642000Y-106794000D01*
X132794000Y-106946000D01*
X135446000Y-106946000D01*
X135446000Y-106044000D01*
X135754000Y-106044000D01*
X135754000Y-106946000D01*
X138406000Y-106946000D01*
X138558000Y-106794000D01*
X138560942Y-106500000D01*
X138549203Y-106380811D01*
X138514437Y-106266203D01*
X138457980Y-106160579D01*
X138382001Y-106067999D01*
X138289421Y-105992020D01*
X138183797Y-105935563D01*
X138069189Y-105900797D01*
X137950000Y-105889058D01*
X135906000Y-105892000D01*
X135754000Y-106044000D01*
X135446000Y-106044000D01*
X135294000Y-105892000D01*
X133250000Y-105889058D01*
X133130811Y-105900797D01*
X133016203Y-105935563D01*
X132910579Y-105992020D01*
X132817999Y-106067999D01*
X132742020Y-106160579D01*
X132685563Y-106266203D01*
X132650797Y-106380811D01*
X132639058Y-106500000D01*
X132278555Y-106500000D01*
X132285942Y-106425000D01*
X132283000Y-106331000D01*
X132131000Y-106179000D01*
X131354000Y-106179000D01*
X131046000Y-106179000D01*
X130269000Y-106179000D01*
X130117000Y-106331000D01*
X130114058Y-106425000D01*
X129800000Y-106425000D01*
X129800000Y-105941422D01*
X130114130Y-105627292D01*
X130117000Y-105719000D01*
X130269000Y-105871000D01*
X131046000Y-105871000D01*
X131046000Y-105851000D01*
X131354000Y-105851000D01*
X131354000Y-105871000D01*
X132131000Y-105871000D01*
X132283000Y-105719000D01*
X132285942Y-105625000D01*
X132274203Y-105505811D01*
X132272440Y-105500000D01*
X138658578Y-105500000D01*
X139100000Y-105941422D01*
G04 #@! TA.AperFunction,Conductor*
D35*
G36*
X139100000Y-105941422D02*
G01*
X139100000Y-108858578D01*
X138658578Y-109300000D01*
X136793738Y-109300000D01*
X136753814Y-109278660D01*
X136678414Y-109255788D01*
X136619647Y-109250000D01*
X136619646Y-109250000D01*
X136600000Y-109248065D01*
X136580354Y-109250000D01*
X133019635Y-109250000D01*
X132999999Y-109248066D01*
X132980363Y-109250000D01*
X132591422Y-109250000D01*
X132200000Y-108858578D01*
X132200000Y-108800000D01*
X132198079Y-108780491D01*
X132192388Y-108761732D01*
X132183147Y-108744443D01*
X132170711Y-108729289D01*
X131955758Y-108514336D01*
X132014421Y-108482980D01*
X132107001Y-108407001D01*
X132182980Y-108314421D01*
X132239437Y-108208797D01*
X132274203Y-108094189D01*
X132285942Y-107975000D01*
X132283000Y-107881000D01*
X132131000Y-107729000D01*
X131354000Y-107729000D01*
X131354000Y-107749000D01*
X131046000Y-107749000D01*
X131046000Y-107729000D01*
X130269000Y-107729000D01*
X130117000Y-107881000D01*
X130114058Y-107975000D01*
X130124725Y-108083303D01*
X129800000Y-107758578D01*
X129800000Y-107700000D01*
X132639058Y-107700000D01*
X132650797Y-107819189D01*
X132685563Y-107933797D01*
X132742020Y-108039421D01*
X132817999Y-108132001D01*
X132910579Y-108207980D01*
X133016203Y-108264437D01*
X133130811Y-108299203D01*
X133250000Y-108310942D01*
X135294000Y-108308000D01*
X135446000Y-108156000D01*
X135446000Y-107254000D01*
X135754000Y-107254000D01*
X135754000Y-108156000D01*
X135906000Y-108308000D01*
X137950000Y-108310942D01*
X138069189Y-108299203D01*
X138183797Y-108264437D01*
X138289421Y-108207980D01*
X138382001Y-108132001D01*
X138457980Y-108039421D01*
X138514437Y-107933797D01*
X138549203Y-107819189D01*
X138560942Y-107700000D01*
X138558000Y-107406000D01*
X138406000Y-107254000D01*
X135754000Y-107254000D01*
X135446000Y-107254000D01*
X132794000Y-107254000D01*
X132642000Y-107406000D01*
X132639058Y-107700000D01*
X129800000Y-107700000D01*
X129800000Y-106425000D01*
X130114058Y-106425000D01*
X130125797Y-106544189D01*
X130160563Y-106658797D01*
X130217020Y-106764421D01*
X130246219Y-106800000D01*
X130217020Y-106835579D01*
X130160563Y-106941203D01*
X130125797Y-107055811D01*
X130114058Y-107175000D01*
X130117000Y-107269000D01*
X130269000Y-107421000D01*
X131046000Y-107421000D01*
X131046000Y-106179000D01*
X131354000Y-106179000D01*
X131354000Y-107421000D01*
X132131000Y-107421000D01*
X132283000Y-107269000D01*
X132285942Y-107175000D01*
X132274203Y-107055811D01*
X132239437Y-106941203D01*
X132182980Y-106835579D01*
X132153781Y-106800000D01*
X132182980Y-106764421D01*
X132239437Y-106658797D01*
X132274203Y-106544189D01*
X132278555Y-106500000D01*
X132639058Y-106500000D01*
X132642000Y-106794000D01*
X132794000Y-106946000D01*
X135446000Y-106946000D01*
X135446000Y-106044000D01*
X135754000Y-106044000D01*
X135754000Y-106946000D01*
X138406000Y-106946000D01*
X138558000Y-106794000D01*
X138560942Y-106500000D01*
X138549203Y-106380811D01*
X138514437Y-106266203D01*
X138457980Y-106160579D01*
X138382001Y-106067999D01*
X138289421Y-105992020D01*
X138183797Y-105935563D01*
X138069189Y-105900797D01*
X137950000Y-105889058D01*
X135906000Y-105892000D01*
X135754000Y-106044000D01*
X135446000Y-106044000D01*
X135294000Y-105892000D01*
X133250000Y-105889058D01*
X133130811Y-105900797D01*
X133016203Y-105935563D01*
X132910579Y-105992020D01*
X132817999Y-106067999D01*
X132742020Y-106160579D01*
X132685563Y-106266203D01*
X132650797Y-106380811D01*
X132639058Y-106500000D01*
X132278555Y-106500000D01*
X132285942Y-106425000D01*
X132283000Y-106331000D01*
X132131000Y-106179000D01*
X131354000Y-106179000D01*
X131046000Y-106179000D01*
X130269000Y-106179000D01*
X130117000Y-106331000D01*
X130114058Y-106425000D01*
X129800000Y-106425000D01*
X129800000Y-105941422D01*
X130114130Y-105627292D01*
X130117000Y-105719000D01*
X130269000Y-105871000D01*
X131046000Y-105871000D01*
X131046000Y-105851000D01*
X131354000Y-105851000D01*
X131354000Y-105871000D01*
X132131000Y-105871000D01*
X132283000Y-105719000D01*
X132285942Y-105625000D01*
X132274203Y-105505811D01*
X132272440Y-105500000D01*
X138658578Y-105500000D01*
X139100000Y-105941422D01*
G37*
G04 #@! TD.AperFunction*
D34*
X145673000Y-102552606D02*
X145673000Y-104800000D01*
X145675440Y-104824776D01*
X145682667Y-104848601D01*
X145694403Y-104870557D01*
X145710197Y-104889803D01*
X146010197Y-105189803D01*
X146010806Y-105190407D01*
X146277770Y-105453788D01*
X146365538Y-111948658D01*
X145946892Y-112373000D01*
X140502000Y-112373000D01*
X140502000Y-111725000D01*
X141211928Y-111725000D01*
X141224188Y-111849482D01*
X141260498Y-111969180D01*
X141319463Y-112079494D01*
X141398815Y-112176185D01*
X141495506Y-112255537D01*
X141605820Y-112314502D01*
X141725518Y-112350812D01*
X141850000Y-112363072D01*
X142064250Y-112360000D01*
X142223000Y-112201250D01*
X142223000Y-111127000D01*
X141373750Y-111127000D01*
X141215000Y-111285750D01*
X141211928Y-111725000D01*
X140502000Y-111725000D01*
X140502000Y-110437224D01*
X140729549Y-110209675D01*
X140766293Y-110220822D01*
X140829022Y-110227000D01*
X140829033Y-110227000D01*
X140850000Y-110229065D01*
X140870967Y-110227000D01*
X141216655Y-110227000D01*
X141211928Y-110275000D01*
X141215000Y-110714250D01*
X141373750Y-110873000D01*
X142223000Y-110873000D01*
X142223000Y-110853000D01*
X142477000Y-110853000D01*
X142477000Y-110873000D01*
X142497000Y-110873000D01*
X142497000Y-111127000D01*
X142477000Y-111127000D01*
X142477000Y-112201250D01*
X142635750Y-112360000D01*
X142850000Y-112363072D01*
X142974482Y-112350812D01*
X143094180Y-112314502D01*
X143204494Y-112255537D01*
X143301185Y-112176185D01*
X143380537Y-112079494D01*
X143439502Y-111969180D01*
X143475812Y-111849482D01*
X143486931Y-111736583D01*
X143518927Y-111796443D01*
X143590881Y-111884119D01*
X143678557Y-111956073D01*
X143778586Y-112009540D01*
X143887124Y-112042465D01*
X144000000Y-112053582D01*
X144500000Y-112053582D01*
X144612876Y-112042465D01*
X144721414Y-112009540D01*
X144821443Y-111956073D01*
X144909119Y-111884119D01*
X144981073Y-111796443D01*
X145034540Y-111696414D01*
X145067465Y-111587876D01*
X145078582Y-111475000D01*
X145078582Y-110525000D01*
X145067465Y-110412124D01*
X145034540Y-110303586D01*
X144981073Y-110203557D01*
X144909119Y-110115881D01*
X144821443Y-110043927D01*
X144777000Y-110020172D01*
X144777000Y-109528390D01*
X144798206Y-109502550D01*
X144828570Y-109445743D01*
X144847268Y-109384103D01*
X144853582Y-109320000D01*
X144853582Y-108100000D01*
X144847268Y-108035897D01*
X144828570Y-107974257D01*
X144798206Y-107917450D01*
X144757343Y-107867657D01*
X144707550Y-107826794D01*
X144650743Y-107796430D01*
X144589103Y-107777732D01*
X144525000Y-107771418D01*
X143875000Y-107771418D01*
X143810897Y-107777732D01*
X143749257Y-107796430D01*
X143692450Y-107826794D01*
X143642657Y-107867657D01*
X143601794Y-107917450D01*
X143571430Y-107974257D01*
X143552732Y-108035897D01*
X143546418Y-108100000D01*
X143546418Y-109320000D01*
X143551638Y-109373000D01*
X142948362Y-109373000D01*
X142953582Y-109320000D01*
X142953582Y-108100000D01*
X142947268Y-108035897D01*
X142928570Y-107974257D01*
X142898206Y-107917450D01*
X142857343Y-107867657D01*
X142807801Y-107827000D01*
X142979033Y-107827000D01*
X143000000Y-107829065D01*
X143020967Y-107827000D01*
X143020978Y-107827000D01*
X143083707Y-107820822D01*
X143164196Y-107796405D01*
X143238376Y-107756755D01*
X143303395Y-107703395D01*
X143316768Y-107687100D01*
X143537106Y-107466763D01*
X143553395Y-107453395D01*
X143566764Y-107437105D01*
X143566768Y-107437101D01*
X143606755Y-107388377D01*
X143640196Y-107325812D01*
X143646405Y-107314196D01*
X143651952Y-107295912D01*
X143750518Y-107325812D01*
X143875000Y-107338072D01*
X143914250Y-107335000D01*
X144073000Y-107176250D01*
X144073000Y-106217000D01*
X144327000Y-106217000D01*
X144327000Y-107176250D01*
X144485750Y-107335000D01*
X144525000Y-107338072D01*
X144649482Y-107325812D01*
X144769180Y-107289502D01*
X144879494Y-107230537D01*
X144976185Y-107151185D01*
X145055537Y-107054494D01*
X145114502Y-106944180D01*
X145150812Y-106824482D01*
X145163072Y-106700000D01*
X145160000Y-106375750D01*
X145001250Y-106217000D01*
X144327000Y-106217000D01*
X144073000Y-106217000D01*
X144053000Y-106217000D01*
X144053000Y-105963000D01*
X144073000Y-105963000D01*
X144073000Y-104027000D01*
X144327000Y-104027000D01*
X144327000Y-105963000D01*
X145001250Y-105963000D01*
X145160000Y-105804250D01*
X145163072Y-105480000D01*
X145150812Y-105355518D01*
X145114502Y-105235820D01*
X145066377Y-105145785D01*
X145151185Y-105076185D01*
X145230537Y-104979494D01*
X145289502Y-104869180D01*
X145325812Y-104749482D01*
X145338072Y-104625000D01*
X145335000Y-104185750D01*
X145176250Y-104027000D01*
X144327000Y-104027000D01*
X144073000Y-104027000D01*
X144053000Y-104027000D01*
X144053000Y-103773000D01*
X144073000Y-103773000D01*
X144073000Y-102698750D01*
X144327000Y-102698750D01*
X144327000Y-103773000D01*
X145176250Y-103773000D01*
X145335000Y-103614250D01*
X145338072Y-103175000D01*
X145325812Y-103050518D01*
X145289502Y-102930820D01*
X145230537Y-102820506D01*
X145151185Y-102723815D01*
X145054494Y-102644463D01*
X144944180Y-102585498D01*
X144824482Y-102549188D01*
X144700000Y-102536928D01*
X144485750Y-102540000D01*
X144327000Y-102698750D01*
X144073000Y-102698750D01*
X143999942Y-102625692D01*
X144498634Y-102127000D01*
X145247394Y-102127000D01*
X145673000Y-102552606D01*
G04 #@! TA.AperFunction,Conductor*
D35*
G36*
X145673000Y-102552606D02*
G01*
X145673000Y-104800000D01*
X145675440Y-104824776D01*
X145682667Y-104848601D01*
X145694403Y-104870557D01*
X145710197Y-104889803D01*
X146010197Y-105189803D01*
X146010806Y-105190407D01*
X146277770Y-105453788D01*
X146365538Y-111948658D01*
X145946892Y-112373000D01*
X140502000Y-112373000D01*
X140502000Y-111725000D01*
X141211928Y-111725000D01*
X141224188Y-111849482D01*
X141260498Y-111969180D01*
X141319463Y-112079494D01*
X141398815Y-112176185D01*
X141495506Y-112255537D01*
X141605820Y-112314502D01*
X141725518Y-112350812D01*
X141850000Y-112363072D01*
X142064250Y-112360000D01*
X142223000Y-112201250D01*
X142223000Y-111127000D01*
X141373750Y-111127000D01*
X141215000Y-111285750D01*
X141211928Y-111725000D01*
X140502000Y-111725000D01*
X140502000Y-110437224D01*
X140729549Y-110209675D01*
X140766293Y-110220822D01*
X140829022Y-110227000D01*
X140829033Y-110227000D01*
X140850000Y-110229065D01*
X140870967Y-110227000D01*
X141216655Y-110227000D01*
X141211928Y-110275000D01*
X141215000Y-110714250D01*
X141373750Y-110873000D01*
X142223000Y-110873000D01*
X142223000Y-110853000D01*
X142477000Y-110853000D01*
X142477000Y-110873000D01*
X142497000Y-110873000D01*
X142497000Y-111127000D01*
X142477000Y-111127000D01*
X142477000Y-112201250D01*
X142635750Y-112360000D01*
X142850000Y-112363072D01*
X142974482Y-112350812D01*
X143094180Y-112314502D01*
X143204494Y-112255537D01*
X143301185Y-112176185D01*
X143380537Y-112079494D01*
X143439502Y-111969180D01*
X143475812Y-111849482D01*
X143486931Y-111736583D01*
X143518927Y-111796443D01*
X143590881Y-111884119D01*
X143678557Y-111956073D01*
X143778586Y-112009540D01*
X143887124Y-112042465D01*
X144000000Y-112053582D01*
X144500000Y-112053582D01*
X144612876Y-112042465D01*
X144721414Y-112009540D01*
X144821443Y-111956073D01*
X144909119Y-111884119D01*
X144981073Y-111796443D01*
X145034540Y-111696414D01*
X145067465Y-111587876D01*
X145078582Y-111475000D01*
X145078582Y-110525000D01*
X145067465Y-110412124D01*
X145034540Y-110303586D01*
X144981073Y-110203557D01*
X144909119Y-110115881D01*
X144821443Y-110043927D01*
X144777000Y-110020172D01*
X144777000Y-109528390D01*
X144798206Y-109502550D01*
X144828570Y-109445743D01*
X144847268Y-109384103D01*
X144853582Y-109320000D01*
X144853582Y-108100000D01*
X144847268Y-108035897D01*
X144828570Y-107974257D01*
X144798206Y-107917450D01*
X144757343Y-107867657D01*
X144707550Y-107826794D01*
X144650743Y-107796430D01*
X144589103Y-107777732D01*
X144525000Y-107771418D01*
X143875000Y-107771418D01*
X143810897Y-107777732D01*
X143749257Y-107796430D01*
X143692450Y-107826794D01*
X143642657Y-107867657D01*
X143601794Y-107917450D01*
X143571430Y-107974257D01*
X143552732Y-108035897D01*
X143546418Y-108100000D01*
X143546418Y-109320000D01*
X143551638Y-109373000D01*
X142948362Y-109373000D01*
X142953582Y-109320000D01*
X142953582Y-108100000D01*
X142947268Y-108035897D01*
X142928570Y-107974257D01*
X142898206Y-107917450D01*
X142857343Y-107867657D01*
X142807801Y-107827000D01*
X142979033Y-107827000D01*
X143000000Y-107829065D01*
X143020967Y-107827000D01*
X143020978Y-107827000D01*
X143083707Y-107820822D01*
X143164196Y-107796405D01*
X143238376Y-107756755D01*
X143303395Y-107703395D01*
X143316768Y-107687100D01*
X143537106Y-107466763D01*
X143553395Y-107453395D01*
X143566764Y-107437105D01*
X143566768Y-107437101D01*
X143606755Y-107388377D01*
X143640196Y-107325812D01*
X143646405Y-107314196D01*
X143651952Y-107295912D01*
X143750518Y-107325812D01*
X143875000Y-107338072D01*
X143914250Y-107335000D01*
X144073000Y-107176250D01*
X144073000Y-106217000D01*
X144327000Y-106217000D01*
X144327000Y-107176250D01*
X144485750Y-107335000D01*
X144525000Y-107338072D01*
X144649482Y-107325812D01*
X144769180Y-107289502D01*
X144879494Y-107230537D01*
X144976185Y-107151185D01*
X145055537Y-107054494D01*
X145114502Y-106944180D01*
X145150812Y-106824482D01*
X145163072Y-106700000D01*
X145160000Y-106375750D01*
X145001250Y-106217000D01*
X144327000Y-106217000D01*
X144073000Y-106217000D01*
X144053000Y-106217000D01*
X144053000Y-105963000D01*
X144073000Y-105963000D01*
X144073000Y-104027000D01*
X144327000Y-104027000D01*
X144327000Y-105963000D01*
X145001250Y-105963000D01*
X145160000Y-105804250D01*
X145163072Y-105480000D01*
X145150812Y-105355518D01*
X145114502Y-105235820D01*
X145066377Y-105145785D01*
X145151185Y-105076185D01*
X145230537Y-104979494D01*
X145289502Y-104869180D01*
X145325812Y-104749482D01*
X145338072Y-104625000D01*
X145335000Y-104185750D01*
X145176250Y-104027000D01*
X144327000Y-104027000D01*
X144073000Y-104027000D01*
X144053000Y-104027000D01*
X144053000Y-103773000D01*
X144073000Y-103773000D01*
X144073000Y-102698750D01*
X144327000Y-102698750D01*
X144327000Y-103773000D01*
X145176250Y-103773000D01*
X145335000Y-103614250D01*
X145338072Y-103175000D01*
X145325812Y-103050518D01*
X145289502Y-102930820D01*
X145230537Y-102820506D01*
X145151185Y-102723815D01*
X145054494Y-102644463D01*
X144944180Y-102585498D01*
X144824482Y-102549188D01*
X144700000Y-102536928D01*
X144485750Y-102540000D01*
X144327000Y-102698750D01*
X144073000Y-102698750D01*
X143999942Y-102625692D01*
X144498634Y-102127000D01*
X145247394Y-102127000D01*
X145673000Y-102552606D01*
G37*
G04 #@! TD.AperFunction*
D33*
X127567087Y-98200590D02*
X127699410Y-98332913D01*
X127750049Y-98366749D01*
X127726256Y-98376180D01*
X127692112Y-98394431D01*
X127635106Y-98612317D01*
X128305000Y-99282211D01*
X128974894Y-98612317D01*
X128917888Y-98394431D01*
X128857554Y-98368350D01*
X128910590Y-98332913D01*
X129042913Y-98200590D01*
X129110125Y-98100000D01*
X129404875Y-98100000D01*
X129472087Y-98200590D01*
X129604410Y-98332913D01*
X129760006Y-98436879D01*
X129932895Y-98508492D01*
X130116433Y-98545000D01*
X130303567Y-98545000D01*
X130487105Y-98508492D01*
X130659994Y-98436879D01*
X130815590Y-98332913D01*
X130947913Y-98200590D01*
X131015125Y-98100000D01*
X131309875Y-98100000D01*
X131377087Y-98200590D01*
X131509410Y-98332913D01*
X131665006Y-98436879D01*
X131837895Y-98508492D01*
X132021433Y-98545000D01*
X132208567Y-98545000D01*
X132392105Y-98508492D01*
X132564994Y-98436879D01*
X132720590Y-98332913D01*
X132852913Y-98200590D01*
X132920125Y-98100000D01*
X133214875Y-98100000D01*
X133282087Y-98200590D01*
X133414410Y-98332913D01*
X133465049Y-98366749D01*
X133441256Y-98376180D01*
X133407112Y-98394431D01*
X133350106Y-98612317D01*
X134020000Y-99282211D01*
X134689894Y-98612317D01*
X134632888Y-98394431D01*
X134572554Y-98368350D01*
X134625590Y-98332913D01*
X134757913Y-98200590D01*
X134825125Y-98100000D01*
X134858578Y-98100000D01*
X135300000Y-98541422D01*
X135300000Y-101258578D01*
X134947650Y-101610928D01*
X134970000Y-101498567D01*
X134970000Y-101311433D01*
X134933492Y-101127895D01*
X134861879Y-100955006D01*
X134757913Y-100799410D01*
X134625590Y-100667087D01*
X134574951Y-100633251D01*
X134598744Y-100623820D01*
X134632888Y-100605569D01*
X134689894Y-100387683D01*
X134020000Y-99717789D01*
X133350106Y-100387683D01*
X133407112Y-100605569D01*
X133467446Y-100631650D01*
X133414410Y-100667087D01*
X133282087Y-100799410D01*
X133178121Y-100955006D01*
X133106508Y-101127895D01*
X133070000Y-101311433D01*
X133070000Y-101498567D01*
X133106508Y-101682105D01*
X133113920Y-101700000D01*
X133021080Y-101700000D01*
X133028492Y-101682105D01*
X133065000Y-101498567D01*
X133065000Y-101311433D01*
X133028492Y-101127895D01*
X132956879Y-100955006D01*
X132852913Y-100799410D01*
X132720590Y-100667087D01*
X132564994Y-100563121D01*
X132392105Y-100491508D01*
X132208567Y-100455000D01*
X132021433Y-100455000D01*
X131837895Y-100491508D01*
X131665006Y-100563121D01*
X131509410Y-100667087D01*
X131377087Y-100799410D01*
X131273121Y-100955006D01*
X131201508Y-101127895D01*
X131165000Y-101311433D01*
X131165000Y-101498567D01*
X131201508Y-101682105D01*
X131208920Y-101700000D01*
X131116080Y-101700000D01*
X131123492Y-101682105D01*
X131160000Y-101498567D01*
X131160000Y-101311433D01*
X131123492Y-101127895D01*
X131051879Y-100955006D01*
X130947913Y-100799410D01*
X130815590Y-100667087D01*
X130659994Y-100563121D01*
X130487105Y-100491508D01*
X130303567Y-100455000D01*
X130116433Y-100455000D01*
X129932895Y-100491508D01*
X129760006Y-100563121D01*
X129604410Y-100667087D01*
X129472087Y-100799410D01*
X129368121Y-100955006D01*
X129296508Y-101127895D01*
X129260000Y-101311433D01*
X129260000Y-101498567D01*
X129296508Y-101682105D01*
X129368121Y-101854994D01*
X129422380Y-101936198D01*
X129129289Y-102229289D01*
X129116853Y-102244443D01*
X129107612Y-102261732D01*
X129101921Y-102280491D01*
X129100000Y-102300000D01*
X129100000Y-104459188D01*
X128657222Y-104911286D01*
X125539832Y-104976233D01*
X125100000Y-104545468D01*
X125100000Y-102143307D01*
X125100590Y-102142913D01*
X125232913Y-102010590D01*
X125336879Y-101854994D01*
X125408492Y-101682105D01*
X125445000Y-101498567D01*
X125445000Y-101311433D01*
X125450000Y-101311433D01*
X125450000Y-101498567D01*
X125486508Y-101682105D01*
X125558121Y-101854994D01*
X125662087Y-102010590D01*
X125794410Y-102142913D01*
X125950006Y-102246879D01*
X126122895Y-102318492D01*
X126306433Y-102355000D01*
X126493567Y-102355000D01*
X126677105Y-102318492D01*
X126849994Y-102246879D01*
X127005590Y-102142913D01*
X127137913Y-102010590D01*
X127241879Y-101854994D01*
X127313492Y-101682105D01*
X127350000Y-101498567D01*
X127350000Y-101311433D01*
X127355000Y-101311433D01*
X127355000Y-101498567D01*
X127391508Y-101682105D01*
X127463121Y-101854994D01*
X127567087Y-102010590D01*
X127699410Y-102142913D01*
X127855006Y-102246879D01*
X128027895Y-102318492D01*
X128211433Y-102355000D01*
X128398567Y-102355000D01*
X128582105Y-102318492D01*
X128754994Y-102246879D01*
X128910590Y-102142913D01*
X129042913Y-102010590D01*
X129146879Y-101854994D01*
X129218492Y-101682105D01*
X129255000Y-101498567D01*
X129255000Y-101311433D01*
X129218492Y-101127895D01*
X129146879Y-100955006D01*
X129042913Y-100799410D01*
X128910590Y-100667087D01*
X128859951Y-100633251D01*
X128883744Y-100623820D01*
X128917888Y-100605569D01*
X128974894Y-100387683D01*
X128305000Y-99717789D01*
X127635106Y-100387683D01*
X127692112Y-100605569D01*
X127752446Y-100631650D01*
X127699410Y-100667087D01*
X127567087Y-100799410D01*
X127463121Y-100955006D01*
X127391508Y-101127895D01*
X127355000Y-101311433D01*
X127350000Y-101311433D01*
X127313492Y-101127895D01*
X127241879Y-100955006D01*
X127137913Y-100799410D01*
X127005590Y-100667087D01*
X126849994Y-100563121D01*
X126677105Y-100491508D01*
X126493567Y-100455000D01*
X126306433Y-100455000D01*
X126122895Y-100491508D01*
X125950006Y-100563121D01*
X125794410Y-100667087D01*
X125662087Y-100799410D01*
X125558121Y-100955006D01*
X125486508Y-101127895D01*
X125450000Y-101311433D01*
X125445000Y-101311433D01*
X125408492Y-101127895D01*
X125336879Y-100955006D01*
X125232913Y-100799410D01*
X125100590Y-100667087D01*
X125100000Y-100666693D01*
X125100000Y-100238307D01*
X125100590Y-100237913D01*
X125232913Y-100105590D01*
X125336879Y-99949994D01*
X125408492Y-99777105D01*
X125445000Y-99593567D01*
X125445000Y-99406433D01*
X125415511Y-99258180D01*
X125438328Y-99203094D01*
X125534578Y-99106844D01*
X125486508Y-99222895D01*
X125450000Y-99406433D01*
X125450000Y-99593567D01*
X125486508Y-99777105D01*
X125558121Y-99949994D01*
X125662087Y-100105590D01*
X125794410Y-100237913D01*
X125950006Y-100341879D01*
X126122895Y-100413492D01*
X126306433Y-100450000D01*
X126493567Y-100450000D01*
X126677105Y-100413492D01*
X126849994Y-100341879D01*
X127005590Y-100237913D01*
X127137913Y-100105590D01*
X127171749Y-100054951D01*
X127181180Y-100078744D01*
X127199431Y-100112888D01*
X127417317Y-100169894D01*
X128087211Y-99500000D01*
X128522789Y-99500000D01*
X129192683Y-100169894D01*
X129410569Y-100112888D01*
X129436650Y-100052554D01*
X129472087Y-100105590D01*
X129604410Y-100237913D01*
X129760006Y-100341879D01*
X129932895Y-100413492D01*
X130116433Y-100450000D01*
X130303567Y-100450000D01*
X130487105Y-100413492D01*
X130659994Y-100341879D01*
X130815590Y-100237913D01*
X130947913Y-100105590D01*
X131051879Y-99949994D01*
X131123492Y-99777105D01*
X131160000Y-99593567D01*
X131160000Y-99406433D01*
X131165000Y-99406433D01*
X131165000Y-99593567D01*
X131201508Y-99777105D01*
X131273121Y-99949994D01*
X131377087Y-100105590D01*
X131509410Y-100237913D01*
X131665006Y-100341879D01*
X131837895Y-100413492D01*
X132021433Y-100450000D01*
X132208567Y-100450000D01*
X132392105Y-100413492D01*
X132564994Y-100341879D01*
X132720590Y-100237913D01*
X132852913Y-100105590D01*
X132886749Y-100054951D01*
X132896180Y-100078744D01*
X132914431Y-100112888D01*
X133132317Y-100169894D01*
X133802211Y-99500000D01*
X134237789Y-99500000D01*
X134907683Y-100169894D01*
X135125569Y-100112888D01*
X135223895Y-99885426D01*
X135275955Y-99643152D01*
X135279750Y-99395376D01*
X135235134Y-99151622D01*
X135143820Y-98921256D01*
X135125569Y-98887112D01*
X134907683Y-98830106D01*
X134237789Y-99500000D01*
X133802211Y-99500000D01*
X133132317Y-98830106D01*
X132914431Y-98887112D01*
X132888350Y-98947446D01*
X132852913Y-98894410D01*
X132720590Y-98762087D01*
X132564994Y-98658121D01*
X132392105Y-98586508D01*
X132208567Y-98550000D01*
X132021433Y-98550000D01*
X131837895Y-98586508D01*
X131665006Y-98658121D01*
X131509410Y-98762087D01*
X131377087Y-98894410D01*
X131273121Y-99050006D01*
X131201508Y-99222895D01*
X131165000Y-99406433D01*
X131160000Y-99406433D01*
X131123492Y-99222895D01*
X131051879Y-99050006D01*
X130947913Y-98894410D01*
X130815590Y-98762087D01*
X130659994Y-98658121D01*
X130487105Y-98586508D01*
X130303567Y-98550000D01*
X130116433Y-98550000D01*
X129932895Y-98586508D01*
X129760006Y-98658121D01*
X129604410Y-98762087D01*
X129472087Y-98894410D01*
X129438251Y-98945049D01*
X129428820Y-98921256D01*
X129410569Y-98887112D01*
X129192683Y-98830106D01*
X128522789Y-99500000D01*
X128087211Y-99500000D01*
X127417317Y-98830106D01*
X127199431Y-98887112D01*
X127173350Y-98947446D01*
X127137913Y-98894410D01*
X127005590Y-98762087D01*
X126849994Y-98658121D01*
X126677105Y-98586508D01*
X126493567Y-98550000D01*
X126306433Y-98550000D01*
X126122895Y-98586508D01*
X126006844Y-98634578D01*
X126131265Y-98510157D01*
X126306433Y-98545000D01*
X126493567Y-98545000D01*
X126677105Y-98508492D01*
X126849994Y-98436879D01*
X127005590Y-98332913D01*
X127137913Y-98200590D01*
X127205125Y-98100000D01*
X127499875Y-98100000D01*
X127567087Y-98200590D01*
G04 #@! TA.AperFunction,Conductor*
D35*
G36*
X127567087Y-98200590D02*
G01*
X127699410Y-98332913D01*
X127750049Y-98366749D01*
X127726256Y-98376180D01*
X127692112Y-98394431D01*
X127635106Y-98612317D01*
X128305000Y-99282211D01*
X128974894Y-98612317D01*
X128917888Y-98394431D01*
X128857554Y-98368350D01*
X128910590Y-98332913D01*
X129042913Y-98200590D01*
X129110125Y-98100000D01*
X129404875Y-98100000D01*
X129472087Y-98200590D01*
X129604410Y-98332913D01*
X129760006Y-98436879D01*
X129932895Y-98508492D01*
X130116433Y-98545000D01*
X130303567Y-98545000D01*
X130487105Y-98508492D01*
X130659994Y-98436879D01*
X130815590Y-98332913D01*
X130947913Y-98200590D01*
X131015125Y-98100000D01*
X131309875Y-98100000D01*
X131377087Y-98200590D01*
X131509410Y-98332913D01*
X131665006Y-98436879D01*
X131837895Y-98508492D01*
X132021433Y-98545000D01*
X132208567Y-98545000D01*
X132392105Y-98508492D01*
X132564994Y-98436879D01*
X132720590Y-98332913D01*
X132852913Y-98200590D01*
X132920125Y-98100000D01*
X133214875Y-98100000D01*
X133282087Y-98200590D01*
X133414410Y-98332913D01*
X133465049Y-98366749D01*
X133441256Y-98376180D01*
X133407112Y-98394431D01*
X133350106Y-98612317D01*
X134020000Y-99282211D01*
X134689894Y-98612317D01*
X134632888Y-98394431D01*
X134572554Y-98368350D01*
X134625590Y-98332913D01*
X134757913Y-98200590D01*
X134825125Y-98100000D01*
X134858578Y-98100000D01*
X135300000Y-98541422D01*
X135300000Y-101258578D01*
X134947650Y-101610928D01*
X134970000Y-101498567D01*
X134970000Y-101311433D01*
X134933492Y-101127895D01*
X134861879Y-100955006D01*
X134757913Y-100799410D01*
X134625590Y-100667087D01*
X134574951Y-100633251D01*
X134598744Y-100623820D01*
X134632888Y-100605569D01*
X134689894Y-100387683D01*
X134020000Y-99717789D01*
X133350106Y-100387683D01*
X133407112Y-100605569D01*
X133467446Y-100631650D01*
X133414410Y-100667087D01*
X133282087Y-100799410D01*
X133178121Y-100955006D01*
X133106508Y-101127895D01*
X133070000Y-101311433D01*
X133070000Y-101498567D01*
X133106508Y-101682105D01*
X133113920Y-101700000D01*
X133021080Y-101700000D01*
X133028492Y-101682105D01*
X133065000Y-101498567D01*
X133065000Y-101311433D01*
X133028492Y-101127895D01*
X132956879Y-100955006D01*
X132852913Y-100799410D01*
X132720590Y-100667087D01*
X132564994Y-100563121D01*
X132392105Y-100491508D01*
X132208567Y-100455000D01*
X132021433Y-100455000D01*
X131837895Y-100491508D01*
X131665006Y-100563121D01*
X131509410Y-100667087D01*
X131377087Y-100799410D01*
X131273121Y-100955006D01*
X131201508Y-101127895D01*
X131165000Y-101311433D01*
X131165000Y-101498567D01*
X131201508Y-101682105D01*
X131208920Y-101700000D01*
X131116080Y-101700000D01*
X131123492Y-101682105D01*
X131160000Y-101498567D01*
X131160000Y-101311433D01*
X131123492Y-101127895D01*
X131051879Y-100955006D01*
X130947913Y-100799410D01*
X130815590Y-100667087D01*
X130659994Y-100563121D01*
X130487105Y-100491508D01*
X130303567Y-100455000D01*
X130116433Y-100455000D01*
X129932895Y-100491508D01*
X129760006Y-100563121D01*
X129604410Y-100667087D01*
X129472087Y-100799410D01*
X129368121Y-100955006D01*
X129296508Y-101127895D01*
X129260000Y-101311433D01*
X129260000Y-101498567D01*
X129296508Y-101682105D01*
X129368121Y-101854994D01*
X129422380Y-101936198D01*
X129129289Y-102229289D01*
X129116853Y-102244443D01*
X129107612Y-102261732D01*
X129101921Y-102280491D01*
X129100000Y-102300000D01*
X129100000Y-104459188D01*
X128657222Y-104911286D01*
X125539832Y-104976233D01*
X125100000Y-104545468D01*
X125100000Y-102143307D01*
X125100590Y-102142913D01*
X125232913Y-102010590D01*
X125336879Y-101854994D01*
X125408492Y-101682105D01*
X125445000Y-101498567D01*
X125445000Y-101311433D01*
X125450000Y-101311433D01*
X125450000Y-101498567D01*
X125486508Y-101682105D01*
X125558121Y-101854994D01*
X125662087Y-102010590D01*
X125794410Y-102142913D01*
X125950006Y-102246879D01*
X126122895Y-102318492D01*
X126306433Y-102355000D01*
X126493567Y-102355000D01*
X126677105Y-102318492D01*
X126849994Y-102246879D01*
X127005590Y-102142913D01*
X127137913Y-102010590D01*
X127241879Y-101854994D01*
X127313492Y-101682105D01*
X127350000Y-101498567D01*
X127350000Y-101311433D01*
X127355000Y-101311433D01*
X127355000Y-101498567D01*
X127391508Y-101682105D01*
X127463121Y-101854994D01*
X127567087Y-102010590D01*
X127699410Y-102142913D01*
X127855006Y-102246879D01*
X128027895Y-102318492D01*
X128211433Y-102355000D01*
X128398567Y-102355000D01*
X128582105Y-102318492D01*
X128754994Y-102246879D01*
X128910590Y-102142913D01*
X129042913Y-102010590D01*
X129146879Y-101854994D01*
X129218492Y-101682105D01*
X129255000Y-101498567D01*
X129255000Y-101311433D01*
X129218492Y-101127895D01*
X129146879Y-100955006D01*
X129042913Y-100799410D01*
X128910590Y-100667087D01*
X128859951Y-100633251D01*
X128883744Y-100623820D01*
X128917888Y-100605569D01*
X128974894Y-100387683D01*
X128305000Y-99717789D01*
X127635106Y-100387683D01*
X127692112Y-100605569D01*
X127752446Y-100631650D01*
X127699410Y-100667087D01*
X127567087Y-100799410D01*
X127463121Y-100955006D01*
X127391508Y-101127895D01*
X127355000Y-101311433D01*
X127350000Y-101311433D01*
X127313492Y-101127895D01*
X127241879Y-100955006D01*
X127137913Y-100799410D01*
X127005590Y-100667087D01*
X126849994Y-100563121D01*
X126677105Y-100491508D01*
X126493567Y-100455000D01*
X126306433Y-100455000D01*
X126122895Y-100491508D01*
X125950006Y-100563121D01*
X125794410Y-100667087D01*
X125662087Y-100799410D01*
X125558121Y-100955006D01*
X125486508Y-101127895D01*
X125450000Y-101311433D01*
X125445000Y-101311433D01*
X125408492Y-101127895D01*
X125336879Y-100955006D01*
X125232913Y-100799410D01*
X125100590Y-100667087D01*
X125100000Y-100666693D01*
X125100000Y-100238307D01*
X125100590Y-100237913D01*
X125232913Y-100105590D01*
X125336879Y-99949994D01*
X125408492Y-99777105D01*
X125445000Y-99593567D01*
X125445000Y-99406433D01*
X125415511Y-99258180D01*
X125438328Y-99203094D01*
X125534578Y-99106844D01*
X125486508Y-99222895D01*
X125450000Y-99406433D01*
X125450000Y-99593567D01*
X125486508Y-99777105D01*
X125558121Y-99949994D01*
X125662087Y-100105590D01*
X125794410Y-100237913D01*
X125950006Y-100341879D01*
X126122895Y-100413492D01*
X126306433Y-100450000D01*
X126493567Y-100450000D01*
X126677105Y-100413492D01*
X126849994Y-100341879D01*
X127005590Y-100237913D01*
X127137913Y-100105590D01*
X127171749Y-100054951D01*
X127181180Y-100078744D01*
X127199431Y-100112888D01*
X127417317Y-100169894D01*
X128087211Y-99500000D01*
X128522789Y-99500000D01*
X129192683Y-100169894D01*
X129410569Y-100112888D01*
X129436650Y-100052554D01*
X129472087Y-100105590D01*
X129604410Y-100237913D01*
X129760006Y-100341879D01*
X129932895Y-100413492D01*
X130116433Y-100450000D01*
X130303567Y-100450000D01*
X130487105Y-100413492D01*
X130659994Y-100341879D01*
X130815590Y-100237913D01*
X130947913Y-100105590D01*
X131051879Y-99949994D01*
X131123492Y-99777105D01*
X131160000Y-99593567D01*
X131160000Y-99406433D01*
X131165000Y-99406433D01*
X131165000Y-99593567D01*
X131201508Y-99777105D01*
X131273121Y-99949994D01*
X131377087Y-100105590D01*
X131509410Y-100237913D01*
X131665006Y-100341879D01*
X131837895Y-100413492D01*
X132021433Y-100450000D01*
X132208567Y-100450000D01*
X132392105Y-100413492D01*
X132564994Y-100341879D01*
X132720590Y-100237913D01*
X132852913Y-100105590D01*
X132886749Y-100054951D01*
X132896180Y-100078744D01*
X132914431Y-100112888D01*
X133132317Y-100169894D01*
X133802211Y-99500000D01*
X134237789Y-99500000D01*
X134907683Y-100169894D01*
X135125569Y-100112888D01*
X135223895Y-99885426D01*
X135275955Y-99643152D01*
X135279750Y-99395376D01*
X135235134Y-99151622D01*
X135143820Y-98921256D01*
X135125569Y-98887112D01*
X134907683Y-98830106D01*
X134237789Y-99500000D01*
X133802211Y-99500000D01*
X133132317Y-98830106D01*
X132914431Y-98887112D01*
X132888350Y-98947446D01*
X132852913Y-98894410D01*
X132720590Y-98762087D01*
X132564994Y-98658121D01*
X132392105Y-98586508D01*
X132208567Y-98550000D01*
X132021433Y-98550000D01*
X131837895Y-98586508D01*
X131665006Y-98658121D01*
X131509410Y-98762087D01*
X131377087Y-98894410D01*
X131273121Y-99050006D01*
X131201508Y-99222895D01*
X131165000Y-99406433D01*
X131160000Y-99406433D01*
X131123492Y-99222895D01*
X131051879Y-99050006D01*
X130947913Y-98894410D01*
X130815590Y-98762087D01*
X130659994Y-98658121D01*
X130487105Y-98586508D01*
X130303567Y-98550000D01*
X130116433Y-98550000D01*
X129932895Y-98586508D01*
X129760006Y-98658121D01*
X129604410Y-98762087D01*
X129472087Y-98894410D01*
X129438251Y-98945049D01*
X129428820Y-98921256D01*
X129410569Y-98887112D01*
X129192683Y-98830106D01*
X128522789Y-99500000D01*
X128087211Y-99500000D01*
X127417317Y-98830106D01*
X127199431Y-98887112D01*
X127173350Y-98947446D01*
X127137913Y-98894410D01*
X127005590Y-98762087D01*
X126849994Y-98658121D01*
X126677105Y-98586508D01*
X126493567Y-98550000D01*
X126306433Y-98550000D01*
X126122895Y-98586508D01*
X126006844Y-98634578D01*
X126131265Y-98510157D01*
X126306433Y-98545000D01*
X126493567Y-98545000D01*
X126677105Y-98508492D01*
X126849994Y-98436879D01*
X127005590Y-98332913D01*
X127137913Y-98200590D01*
X127205125Y-98100000D01*
X127499875Y-98100000D01*
X127567087Y-98200590D01*
G37*
G04 #@! TD.AperFunction*
D33*
X125758376Y-105641278D02*
X126216160Y-106092825D01*
X126248548Y-107177832D01*
X126248548Y-107850000D01*
X126254340Y-107908810D01*
X126271495Y-107965361D01*
X126272089Y-107966473D01*
X126283864Y-108360927D01*
X125857701Y-108800000D01*
X122994473Y-108800000D01*
X122963158Y-108761842D01*
X122917477Y-108724353D01*
X122865360Y-108696496D01*
X122808810Y-108679341D01*
X122750000Y-108673549D01*
X121250000Y-108673549D01*
X121191190Y-108679341D01*
X121134640Y-108696496D01*
X121082523Y-108724353D01*
X121036842Y-108761842D01*
X121005527Y-108800000D01*
X120641422Y-108800000D01*
X120200000Y-108358578D01*
X120200000Y-105991895D01*
X120640212Y-105558726D01*
X125758376Y-105641278D01*
G04 #@! TA.AperFunction,Conductor*
D35*
G36*
X125758376Y-105641278D02*
G01*
X126216160Y-106092825D01*
X126248548Y-107177832D01*
X126248548Y-107850000D01*
X126254340Y-107908810D01*
X126271495Y-107965361D01*
X126272089Y-107966473D01*
X126283864Y-108360927D01*
X125857701Y-108800000D01*
X122994473Y-108800000D01*
X122963158Y-108761842D01*
X122917477Y-108724353D01*
X122865360Y-108696496D01*
X122808810Y-108679341D01*
X122750000Y-108673549D01*
X121250000Y-108673549D01*
X121191190Y-108679341D01*
X121134640Y-108696496D01*
X121082523Y-108724353D01*
X121036842Y-108761842D01*
X121005527Y-108800000D01*
X120641422Y-108800000D01*
X120200000Y-108358578D01*
X120200000Y-105991895D01*
X120640212Y-105558726D01*
X125758376Y-105641278D01*
G37*
G04 #@! TD.AperFunction*
M02*
