G04 #@! TF.GenerationSoftware,KiCad,Pcbnew,(5.1.10)-1*
G04 #@! TF.CreationDate,2021-11-02T15:20:16+01:00*
G04 #@! TF.ProjectId,DgDrive_DVI,44674472-6976-4655-9f44-56492e6b6963,1.6*
G04 #@! TF.SameCoordinates,Original*
G04 #@! TF.FileFunction,Legend,Bot*
G04 #@! TF.FilePolarity,Positive*
%FSLAX46Y46*%
G04 Gerber Fmt 4.6, Leading zero omitted, Abs format (unit mm)*
G04 Created by KiCad (PCBNEW (5.1.10)-1) date 2021-11-02 15:20:16*
%MOMM*%
%LPD*%
G01*
G04 APERTURE LIST*
%ADD10C,0.150000*%
%ADD11C,0.120000*%
%ADD12C,0.250000*%
%ADD13C,0.300000*%
G04 APERTURE END LIST*
D10*
X145788214Y-112752380D02*
X146264404Y-112752380D01*
X146264404Y-111752380D01*
X145026309Y-112752380D02*
X145026309Y-112228571D01*
X145073928Y-112133333D01*
X145169166Y-112085714D01*
X145359642Y-112085714D01*
X145454880Y-112133333D01*
X145026309Y-112704761D02*
X145121547Y-112752380D01*
X145359642Y-112752380D01*
X145454880Y-112704761D01*
X145502500Y-112609523D01*
X145502500Y-112514285D01*
X145454880Y-112419047D01*
X145359642Y-112371428D01*
X145121547Y-112371428D01*
X145026309Y-112323809D01*
X144597738Y-112704761D02*
X144502500Y-112752380D01*
X144312023Y-112752380D01*
X144216785Y-112704761D01*
X144169166Y-112609523D01*
X144169166Y-112561904D01*
X144216785Y-112466666D01*
X144312023Y-112419047D01*
X144454880Y-112419047D01*
X144550119Y-112371428D01*
X144597738Y-112276190D01*
X144597738Y-112228571D01*
X144550119Y-112133333D01*
X144454880Y-112085714D01*
X144312023Y-112085714D01*
X144216785Y-112133333D01*
X143359642Y-112704761D02*
X143454880Y-112752380D01*
X143645357Y-112752380D01*
X143740595Y-112704761D01*
X143788214Y-112609523D01*
X143788214Y-112228571D01*
X143740595Y-112133333D01*
X143645357Y-112085714D01*
X143454880Y-112085714D01*
X143359642Y-112133333D01*
X143312023Y-112228571D01*
X143312023Y-112323809D01*
X143788214Y-112419047D01*
X142883452Y-112752380D02*
X142883452Y-112085714D01*
X142883452Y-112276190D02*
X142835833Y-112180952D01*
X142788214Y-112133333D01*
X142692976Y-112085714D01*
X142597738Y-112085714D01*
X141931071Y-112228571D02*
X141788214Y-112276190D01*
X141740595Y-112323809D01*
X141692976Y-112419047D01*
X141692976Y-112561904D01*
X141740595Y-112657142D01*
X141788214Y-112704761D01*
X141883452Y-112752380D01*
X142264404Y-112752380D01*
X142264404Y-111752380D01*
X141931071Y-111752380D01*
X141835833Y-111800000D01*
X141788214Y-111847619D01*
X141740595Y-111942857D01*
X141740595Y-112038095D01*
X141788214Y-112133333D01*
X141835833Y-112180952D01*
X141931071Y-112228571D01*
X142264404Y-112228571D01*
X140835833Y-112752380D02*
X140835833Y-112228571D01*
X140883452Y-112133333D01*
X140978690Y-112085714D01*
X141169166Y-112085714D01*
X141264404Y-112133333D01*
X140835833Y-112704761D02*
X140931071Y-112752380D01*
X141169166Y-112752380D01*
X141264404Y-112704761D01*
X141312023Y-112609523D01*
X141312023Y-112514285D01*
X141264404Y-112419047D01*
X141169166Y-112371428D01*
X140931071Y-112371428D01*
X140835833Y-112323809D01*
X139931071Y-112704761D02*
X140026309Y-112752380D01*
X140216785Y-112752380D01*
X140312023Y-112704761D01*
X140359642Y-112657142D01*
X140407261Y-112561904D01*
X140407261Y-112276190D01*
X140359642Y-112180952D01*
X140312023Y-112133333D01*
X140216785Y-112085714D01*
X140026309Y-112085714D01*
X139931071Y-112133333D01*
X139502500Y-112752380D02*
X139502500Y-111752380D01*
X139407261Y-112371428D02*
X139121547Y-112752380D01*
X139121547Y-112085714D02*
X139502500Y-112466666D01*
X138692976Y-112085714D02*
X138692976Y-113085714D01*
X138692976Y-112133333D02*
X138597738Y-112085714D01*
X138407261Y-112085714D01*
X138312023Y-112133333D01*
X138264404Y-112180952D01*
X138216785Y-112276190D01*
X138216785Y-112561904D01*
X138264404Y-112657142D01*
X138312023Y-112704761D01*
X138407261Y-112752380D01*
X138597738Y-112752380D01*
X138692976Y-112704761D01*
X137645357Y-112752380D02*
X137740595Y-112704761D01*
X137788214Y-112609523D01*
X137788214Y-111752380D01*
X136835833Y-112752380D02*
X136835833Y-112228571D01*
X136883452Y-112133333D01*
X136978690Y-112085714D01*
X137169166Y-112085714D01*
X137264404Y-112133333D01*
X136835833Y-112704761D02*
X136931071Y-112752380D01*
X137169166Y-112752380D01*
X137264404Y-112704761D01*
X137312023Y-112609523D01*
X137312023Y-112514285D01*
X137264404Y-112419047D01*
X137169166Y-112371428D01*
X136931071Y-112371428D01*
X136835833Y-112323809D01*
X136359642Y-112085714D02*
X136359642Y-112752380D01*
X136359642Y-112180952D02*
X136312023Y-112133333D01*
X136216785Y-112085714D01*
X136073928Y-112085714D01*
X135978690Y-112133333D01*
X135931071Y-112228571D01*
X135931071Y-112752380D01*
X135073928Y-112704761D02*
X135169166Y-112752380D01*
X135359642Y-112752380D01*
X135454880Y-112704761D01*
X135502500Y-112609523D01*
X135502500Y-112228571D01*
X135454880Y-112133333D01*
X135359642Y-112085714D01*
X135169166Y-112085714D01*
X135073928Y-112133333D01*
X135026309Y-112228571D01*
X135026309Y-112323809D01*
X135502500Y-112419047D01*
X146264404Y-114402380D02*
X146264404Y-113402380D01*
X146026309Y-113402380D01*
X145883452Y-113450000D01*
X145788214Y-113545238D01*
X145740595Y-113640476D01*
X145692976Y-113830952D01*
X145692976Y-113973809D01*
X145740595Y-114164285D01*
X145788214Y-114259523D01*
X145883452Y-114354761D01*
X146026309Y-114402380D01*
X146264404Y-114402380D01*
X145264404Y-114402380D02*
X145264404Y-113735714D01*
X145264404Y-113402380D02*
X145312023Y-113450000D01*
X145264404Y-113497619D01*
X145216785Y-113450000D01*
X145264404Y-113402380D01*
X145264404Y-113497619D01*
X144645357Y-114402380D02*
X144740595Y-114354761D01*
X144788214Y-114307142D01*
X144835833Y-114211904D01*
X144835833Y-113926190D01*
X144788214Y-113830952D01*
X144740595Y-113783333D01*
X144645357Y-113735714D01*
X144502500Y-113735714D01*
X144407261Y-113783333D01*
X144359642Y-113830952D01*
X144312023Y-113926190D01*
X144312023Y-114211904D01*
X144359642Y-114307142D01*
X144407261Y-114354761D01*
X144502500Y-114402380D01*
X144645357Y-114402380D01*
X143454880Y-114402380D02*
X143454880Y-113402380D01*
X143454880Y-114354761D02*
X143550119Y-114402380D01*
X143740595Y-114402380D01*
X143835833Y-114354761D01*
X143883452Y-114307142D01*
X143931071Y-114211904D01*
X143931071Y-113926190D01*
X143883452Y-113830952D01*
X143835833Y-113783333D01*
X143740595Y-113735714D01*
X143550119Y-113735714D01*
X143454880Y-113783333D01*
X142597738Y-114354761D02*
X142692976Y-114402380D01*
X142883452Y-114402380D01*
X142978690Y-114354761D01*
X143026309Y-114259523D01*
X143026309Y-113878571D01*
X142978690Y-113783333D01*
X142883452Y-113735714D01*
X142692976Y-113735714D01*
X142597738Y-113783333D01*
X142550119Y-113878571D01*
X142550119Y-113973809D01*
X143026309Y-114069047D01*
X141359642Y-114402380D02*
X141359642Y-113402380D01*
X141121547Y-113402380D01*
X140978690Y-113450000D01*
X140883452Y-113545238D01*
X140835833Y-113640476D01*
X140788214Y-113830952D01*
X140788214Y-113973809D01*
X140835833Y-114164285D01*
X140883452Y-114259523D01*
X140978690Y-114354761D01*
X141121547Y-114402380D01*
X141359642Y-114402380D01*
X140502500Y-113402380D02*
X140169166Y-114402380D01*
X139835833Y-113402380D01*
X139502500Y-114402380D02*
X139502500Y-113402380D01*
X145740595Y-116052380D02*
X146312023Y-116052380D01*
X146026309Y-116052380D02*
X146026309Y-115052380D01*
X146121547Y-115195238D01*
X146216785Y-115290476D01*
X146312023Y-115338095D01*
X144788214Y-116052380D02*
X145359642Y-116052380D01*
X145073928Y-116052380D02*
X145073928Y-115052380D01*
X145169166Y-115195238D01*
X145264404Y-115290476D01*
X145359642Y-115338095D01*
X143645357Y-115004761D02*
X144502500Y-116290476D01*
X143359642Y-115147619D02*
X143312023Y-115100000D01*
X143216785Y-115052380D01*
X142978690Y-115052380D01*
X142883452Y-115100000D01*
X142835833Y-115147619D01*
X142788214Y-115242857D01*
X142788214Y-115338095D01*
X142835833Y-115480952D01*
X143407261Y-116052380D01*
X142788214Y-116052380D01*
X142169166Y-115052380D02*
X142073928Y-115052380D01*
X141978690Y-115100000D01*
X141931071Y-115147619D01*
X141883452Y-115242857D01*
X141835833Y-115433333D01*
X141835833Y-115671428D01*
X141883452Y-115861904D01*
X141931071Y-115957142D01*
X141978690Y-116004761D01*
X142073928Y-116052380D01*
X142169166Y-116052380D01*
X142264404Y-116004761D01*
X142312023Y-115957142D01*
X142359642Y-115861904D01*
X142407261Y-115671428D01*
X142407261Y-115433333D01*
X142359642Y-115242857D01*
X142312023Y-115147619D01*
X142264404Y-115100000D01*
X142169166Y-115052380D01*
X141454880Y-115147619D02*
X141407261Y-115100000D01*
X141312023Y-115052380D01*
X141073928Y-115052380D01*
X140978690Y-115100000D01*
X140931071Y-115147619D01*
X140883452Y-115242857D01*
X140883452Y-115338095D01*
X140931071Y-115480952D01*
X141502500Y-116052380D01*
X140883452Y-116052380D01*
X139931071Y-116052380D02*
X140502500Y-116052380D01*
X140216785Y-116052380D02*
X140216785Y-115052380D01*
X140312023Y-115195238D01*
X140407261Y-115290476D01*
X140502500Y-115338095D01*
X138169166Y-116052380D02*
X138502500Y-115576190D01*
X138740595Y-116052380D02*
X138740595Y-115052380D01*
X138359642Y-115052380D01*
X138264404Y-115100000D01*
X138216785Y-115147619D01*
X138169166Y-115242857D01*
X138169166Y-115385714D01*
X138216785Y-115480952D01*
X138264404Y-115528571D01*
X138359642Y-115576190D01*
X138740595Y-115576190D01*
X137359642Y-116004761D02*
X137454880Y-116052380D01*
X137645357Y-116052380D01*
X137740595Y-116004761D01*
X137788214Y-115909523D01*
X137788214Y-115528571D01*
X137740595Y-115433333D01*
X137645357Y-115385714D01*
X137454880Y-115385714D01*
X137359642Y-115433333D01*
X137312023Y-115528571D01*
X137312023Y-115623809D01*
X137788214Y-115719047D01*
X136978690Y-115385714D02*
X136740595Y-116052380D01*
X136502500Y-115385714D01*
X134835833Y-116052380D02*
X135407261Y-116052380D01*
X135121547Y-116052380D02*
X135121547Y-115052380D01*
X135216785Y-115195238D01*
X135312023Y-115290476D01*
X135407261Y-115338095D01*
X134407261Y-115957142D02*
X134359642Y-116004761D01*
X134407261Y-116052380D01*
X134454880Y-116004761D01*
X134407261Y-115957142D01*
X134407261Y-116052380D01*
X133502500Y-115052380D02*
X133692976Y-115052380D01*
X133788214Y-115100000D01*
X133835833Y-115147619D01*
X133931071Y-115290476D01*
X133978690Y-115480952D01*
X133978690Y-115861904D01*
X133931071Y-115957142D01*
X133883452Y-116004761D01*
X133788214Y-116052380D01*
X133597738Y-116052380D01*
X133502500Y-116004761D01*
X133454880Y-115957142D01*
X133407261Y-115861904D01*
X133407261Y-115623809D01*
X133454880Y-115528571D01*
X133502500Y-115480952D01*
X133597738Y-115433333D01*
X133788214Y-115433333D01*
X133883452Y-115480952D01*
X133931071Y-115528571D01*
X133978690Y-115623809D01*
D11*
X99532000Y-98920000D02*
X99532000Y-98764000D01*
X99532000Y-101236000D02*
X99532000Y-101080000D01*
X102133130Y-98920163D02*
G75*
G03*
X100051039Y-98920000I-1041130J-1079837D01*
G01*
X102133130Y-101079837D02*
G75*
G02*
X100051039Y-101080000I-1041130J1079837D01*
G01*
X102764335Y-98921392D02*
G75*
G03*
X99532000Y-98764484I-1672335J-1078608D01*
G01*
X102764335Y-101078608D02*
G75*
G02*
X99532000Y-101235516I-1672335J1078608D01*
G01*
X150050000Y-115855000D02*
X152950000Y-115855000D01*
X150050000Y-109145000D02*
X152950000Y-109145000D01*
X154855000Y-113950000D02*
X154855000Y-111050000D01*
X148145000Y-113950000D02*
X148145000Y-111050000D01*
X150050000Y-102855000D02*
X152950000Y-102855000D01*
X150050000Y-96145000D02*
X152950000Y-96145000D01*
X154855000Y-100950000D02*
X154855000Y-98050000D01*
X148145000Y-100950000D02*
X148145000Y-98050000D01*
D12*
X144325000Y-108700000D02*
G75*
G03*
X144325000Y-108700000I-125000J0D01*
G01*
X145325000Y-108700000D02*
G75*
G03*
X145325000Y-108700000I-125000J0D01*
G01*
X146325000Y-108700000D02*
G75*
G03*
X146325000Y-108700000I-125000J0D01*
G01*
X146325000Y-109700000D02*
G75*
G03*
X146325000Y-109700000I-125000J0D01*
G01*
X145325000Y-109700000D02*
G75*
G03*
X145325000Y-109700000I-125000J0D01*
G01*
X144325000Y-109700000D02*
G75*
G03*
X144325000Y-109700000I-125000J0D01*
G01*
X145325000Y-110700000D02*
G75*
G03*
X145325000Y-110700000I-125000J0D01*
G01*
X144325000Y-110700000D02*
G75*
G03*
X144325000Y-110700000I-125000J0D01*
G01*
X146325000Y-110700000D02*
G75*
G03*
X146325000Y-110700000I-125000J0D01*
G01*
D11*
X141910000Y-104500000D02*
X107080000Y-104500000D01*
X141910000Y-94500000D02*
X107080000Y-94500000D01*
X111922000Y-94500000D02*
X111922000Y-104455000D01*
X137068000Y-94500000D02*
X137068000Y-104455000D01*
X105880000Y-95700000D02*
X105880000Y-103300000D01*
X143110000Y-95700000D02*
X143110000Y-103300000D01*
X143110000Y-103300000D02*
G75*
G02*
X141910000Y-104500000I-1200000J0D01*
G01*
X141910000Y-94500000D02*
G75*
G02*
X143110000Y-95700000I0J-1200000D01*
G01*
X107080000Y-104500000D02*
G75*
G02*
X105880000Y-103300000I0J1200000D01*
G01*
X105880000Y-95700000D02*
G75*
G02*
X107080000Y-94500000I1200000J0D01*
G01*
D10*
X101830095Y-103412380D02*
X101830095Y-102412380D01*
X101592000Y-102412380D01*
X101449142Y-102460000D01*
X101353904Y-102555238D01*
X101306285Y-102650476D01*
X101258666Y-102840952D01*
X101258666Y-102983809D01*
X101306285Y-103174285D01*
X101353904Y-103269523D01*
X101449142Y-103364761D01*
X101592000Y-103412380D01*
X101830095Y-103412380D01*
X100401523Y-102745714D02*
X100401523Y-103412380D01*
X100639619Y-102364761D02*
X100877714Y-103079047D01*
X100258666Y-103079047D01*
X156857142Y-109404761D02*
X156904761Y-109357142D01*
X156952380Y-109214285D01*
X156952380Y-109119047D01*
X156904761Y-108976190D01*
X156809523Y-108880952D01*
X156714285Y-108833333D01*
X156523809Y-108785714D01*
X156380952Y-108785714D01*
X156190476Y-108833333D01*
X156095238Y-108880952D01*
X156000000Y-108976190D01*
X155952380Y-109119047D01*
X155952380Y-109214285D01*
X156000000Y-109357142D01*
X156047619Y-109404761D01*
X156285714Y-110261904D02*
X156952380Y-110261904D01*
X156285714Y-109833333D02*
X156809523Y-109833333D01*
X156904761Y-109880952D01*
X156952380Y-109976190D01*
X156952380Y-110119047D01*
X156904761Y-110214285D01*
X156857142Y-110261904D01*
X156952380Y-110738095D02*
X156285714Y-110738095D01*
X156476190Y-110738095D02*
X156380952Y-110785714D01*
X156333333Y-110833333D01*
X156285714Y-110928571D01*
X156285714Y-111023809D01*
X156952380Y-111357142D02*
X156285714Y-111357142D01*
X156476190Y-111357142D02*
X156380952Y-111404761D01*
X156333333Y-111452380D01*
X156285714Y-111547619D01*
X156285714Y-111642857D01*
X156857142Y-111976190D02*
X156904761Y-112023809D01*
X156952380Y-111976190D01*
X156904761Y-111928571D01*
X156857142Y-111976190D01*
X156952380Y-111976190D01*
X156952380Y-113214285D02*
X155952380Y-113214285D01*
X156666666Y-113547619D01*
X155952380Y-113880952D01*
X156952380Y-113880952D01*
X156952380Y-114500000D02*
X156904761Y-114404761D01*
X156857142Y-114357142D01*
X156761904Y-114309523D01*
X156476190Y-114309523D01*
X156380952Y-114357142D01*
X156333333Y-114404761D01*
X156285714Y-114500000D01*
X156285714Y-114642857D01*
X156333333Y-114738095D01*
X156380952Y-114785714D01*
X156476190Y-114833333D01*
X156761904Y-114833333D01*
X156857142Y-114785714D01*
X156904761Y-114738095D01*
X156952380Y-114642857D01*
X156952380Y-114500000D01*
X156952380Y-115690476D02*
X155952380Y-115690476D01*
X156904761Y-115690476D02*
X156952380Y-115595238D01*
X156952380Y-115404761D01*
X156904761Y-115309523D01*
X156857142Y-115261904D01*
X156761904Y-115214285D01*
X156476190Y-115214285D01*
X156380952Y-115261904D01*
X156333333Y-115309523D01*
X156285714Y-115404761D01*
X156285714Y-115595238D01*
X156333333Y-115690476D01*
X156857142Y-116166666D02*
X156904761Y-116214285D01*
X156952380Y-116166666D01*
X156904761Y-116119047D01*
X156857142Y-116166666D01*
X156952380Y-116166666D01*
X156952380Y-96642857D02*
X155952380Y-96642857D01*
X155952380Y-97023809D01*
X156000000Y-97119047D01*
X156047619Y-97166666D01*
X156142857Y-97214285D01*
X156285714Y-97214285D01*
X156380952Y-97166666D01*
X156428571Y-97119047D01*
X156476190Y-97023809D01*
X156476190Y-96642857D01*
X156952380Y-97642857D02*
X156285714Y-97642857D01*
X155952380Y-97642857D02*
X156000000Y-97595238D01*
X156047619Y-97642857D01*
X156000000Y-97690476D01*
X155952380Y-97642857D01*
X156047619Y-97642857D01*
X156904761Y-98500000D02*
X156952380Y-98404761D01*
X156952380Y-98214285D01*
X156904761Y-98119047D01*
X156809523Y-98071428D01*
X156428571Y-98071428D01*
X156333333Y-98119047D01*
X156285714Y-98214285D01*
X156285714Y-98404761D01*
X156333333Y-98500000D01*
X156428571Y-98547619D01*
X156523809Y-98547619D01*
X156619047Y-98071428D01*
X156285714Y-98880952D02*
X156285714Y-99404761D01*
X156952380Y-98880952D01*
X156952380Y-99404761D01*
X156952380Y-99928571D02*
X156904761Y-99833333D01*
X156857142Y-99785714D01*
X156761904Y-99738095D01*
X156476190Y-99738095D01*
X156380952Y-99785714D01*
X156333333Y-99833333D01*
X156285714Y-99928571D01*
X156285714Y-100071428D01*
X156333333Y-100166666D01*
X156380952Y-100214285D01*
X156476190Y-100261904D01*
X156761904Y-100261904D01*
X156857142Y-100214285D01*
X156904761Y-100166666D01*
X156952380Y-100071428D01*
X156952380Y-99928571D01*
X157047619Y-100452380D02*
X157047619Y-101214285D01*
X156952380Y-101452380D02*
X155952380Y-101452380D01*
X156285714Y-101928571D02*
X156952380Y-101928571D01*
X156380952Y-101928571D02*
X156333333Y-101976190D01*
X156285714Y-102071428D01*
X156285714Y-102214285D01*
X156333333Y-102309523D01*
X156428571Y-102357142D01*
X156952380Y-102357142D01*
D13*
X143276190Y-110066666D02*
X142228571Y-110066666D01*
X143485714Y-110695238D02*
X142752380Y-108495238D01*
X142019047Y-110695238D01*
X141285714Y-110695238D02*
X141285714Y-108495238D01*
X140447619Y-108495238D01*
X140238095Y-108600000D01*
X140133333Y-108704761D01*
X140028571Y-108914285D01*
X140028571Y-109228571D01*
X140133333Y-109438095D01*
X140238095Y-109542857D01*
X140447619Y-109647619D01*
X141285714Y-109647619D01*
X137619047Y-110904761D02*
X137828571Y-110800000D01*
X138038095Y-110590476D01*
X138352380Y-110276190D01*
X138561904Y-110171428D01*
X138771428Y-110171428D01*
X138666666Y-110695238D02*
X138876190Y-110590476D01*
X139085714Y-110380952D01*
X139190476Y-109961904D01*
X139190476Y-109228571D01*
X139085714Y-108809523D01*
X138876190Y-108600000D01*
X138666666Y-108495238D01*
X138247619Y-108495238D01*
X138038095Y-108600000D01*
X137828571Y-108809523D01*
X137723809Y-109228571D01*
X137723809Y-109961904D01*
X137828571Y-110380952D01*
X138038095Y-110590476D01*
X138247619Y-110695238D01*
X138666666Y-110695238D01*
D10*
X114028333Y-92952380D02*
X114028333Y-93666666D01*
X114075952Y-93809523D01*
X114171190Y-93904761D01*
X114314047Y-93952380D01*
X114409285Y-93952380D01*
X113599761Y-93047619D02*
X113552142Y-93000000D01*
X113456904Y-92952380D01*
X113218809Y-92952380D01*
X113123571Y-93000000D01*
X113075952Y-93047619D01*
X113028333Y-93142857D01*
X113028333Y-93238095D01*
X113075952Y-93380952D01*
X113647380Y-93952380D01*
X113028333Y-93952380D01*
X130066428Y-94167380D02*
X130066428Y-93167380D01*
X129828333Y-93167380D01*
X129685476Y-93215000D01*
X129590238Y-93310238D01*
X129542619Y-93405476D01*
X129495000Y-93595952D01*
X129495000Y-93738809D01*
X129542619Y-93929285D01*
X129590238Y-94024523D01*
X129685476Y-94119761D01*
X129828333Y-94167380D01*
X130066428Y-94167380D01*
X129209285Y-93167380D02*
X128875952Y-94167380D01*
X128542619Y-93167380D01*
X128209285Y-94167380D02*
X128209285Y-93167380D01*
X127733095Y-93786428D02*
X126971190Y-93786428D01*
X126495000Y-94167380D02*
X126495000Y-93167380D01*
X125256904Y-94167380D02*
X125256904Y-93167380D01*
X125018809Y-93167380D01*
X124875952Y-93215000D01*
X124780714Y-93310238D01*
X124733095Y-93405476D01*
X124685476Y-93595952D01*
X124685476Y-93738809D01*
X124733095Y-93929285D01*
X124780714Y-94024523D01*
X124875952Y-94119761D01*
X125018809Y-94167380D01*
X125256904Y-94167380D01*
X123828333Y-93500714D02*
X123828333Y-94167380D01*
X124256904Y-93500714D02*
X124256904Y-94024523D01*
X124209285Y-94119761D01*
X124114047Y-94167380D01*
X123971190Y-94167380D01*
X123875952Y-94119761D01*
X123828333Y-94072142D01*
X122923571Y-94167380D02*
X122923571Y-93643571D01*
X122971190Y-93548333D01*
X123066428Y-93500714D01*
X123256904Y-93500714D01*
X123352142Y-93548333D01*
X122923571Y-94119761D02*
X123018809Y-94167380D01*
X123256904Y-94167380D01*
X123352142Y-94119761D01*
X123399761Y-94024523D01*
X123399761Y-93929285D01*
X123352142Y-93834047D01*
X123256904Y-93786428D01*
X123018809Y-93786428D01*
X122923571Y-93738809D01*
X122304523Y-94167380D02*
X122399761Y-94119761D01*
X122447380Y-94024523D01*
X122447380Y-93167380D01*
X121018809Y-94167380D02*
X121114047Y-94119761D01*
X121161666Y-94024523D01*
X121161666Y-93167380D01*
X120637857Y-94167380D02*
X120637857Y-93500714D01*
X120637857Y-93167380D02*
X120685476Y-93215000D01*
X120637857Y-93262619D01*
X120590238Y-93215000D01*
X120637857Y-93167380D01*
X120637857Y-93262619D01*
X120161666Y-93500714D02*
X120161666Y-94167380D01*
X120161666Y-93595952D02*
X120114047Y-93548333D01*
X120018809Y-93500714D01*
X119875952Y-93500714D01*
X119780714Y-93548333D01*
X119733095Y-93643571D01*
X119733095Y-94167380D01*
X119256904Y-94167380D02*
X119256904Y-93167380D01*
X119161666Y-93786428D02*
X118875952Y-94167380D01*
X118875952Y-93500714D02*
X119256904Y-93881666D01*
M02*
