G04 #@! TF.GenerationSoftware,KiCad,Pcbnew,(6.0.1)*
G04 #@! TF.CreationDate,2022-01-25T14:47:38+01:00*
G04 #@! TF.ProjectId,DgDrive_DVI,44674472-6976-4655-9f44-56492e6b6963,1.7*
G04 #@! TF.SameCoordinates,Original*
G04 #@! TF.FileFunction,Copper,L1,Top*
G04 #@! TF.FilePolarity,Positive*
%FSLAX46Y46*%
G04 Gerber Fmt 4.6, Leading zero omitted, Abs format (unit mm)*
G04 Created by KiCad (PCBNEW (6.0.1)) date 2022-01-25 14:47:38*
%MOMM*%
%LPD*%
G01*
G04 APERTURE LIST*
G04 Aperture macros list*
%AMRoundRect*
0 Rectangle with rounded corners*
0 $1 Rounding radius*
0 $2 $3 $4 $5 $6 $7 $8 $9 X,Y pos of 4 corners*
0 Add a 4 corners polygon primitive as box body*
4,1,4,$2,$3,$4,$5,$6,$7,$8,$9,$2,$3,0*
0 Add four circle primitives for the rounded corners*
1,1,$1+$1,$2,$3*
1,1,$1+$1,$4,$5*
1,1,$1+$1,$6,$7*
1,1,$1+$1,$8,$9*
0 Add four rect primitives between the rounded corners*
20,1,$1+$1,$2,$3,$4,$5,0*
20,1,$1+$1,$4,$5,$6,$7,0*
20,1,$1+$1,$6,$7,$8,$9,0*
20,1,$1+$1,$8,$9,$2,$3,0*%
%AMFreePoly0*
4,1,20,0.000000,0.744959,0.073905,0.744508,0.209726,0.703889,0.328688,0.626782,0.421226,0.519385,0.479903,0.390333,0.500000,0.250000,0.500000,-0.250000,0.499851,-0.262216,0.476331,-0.402017,0.414519,-0.529596,0.319384,-0.634700,0.198574,-0.708877,0.061801,-0.746166,0.000000,-0.745033,0.000000,-0.750000,-0.500000,-0.750000,-0.500000,0.750000,0.000000,0.750000,0.000000,0.744959,
0.000000,0.744959,$1*%
%AMFreePoly1*
4,1,22,0.500000,-0.750000,0.000000,-0.750000,0.000000,-0.745033,-0.079941,-0.743568,-0.215256,-0.701293,-0.333266,-0.622738,-0.424486,-0.514219,-0.481581,-0.384460,-0.499164,-0.250000,-0.500000,-0.250000,-0.500000,0.250000,-0.499164,0.250000,-0.499963,0.256109,-0.478152,0.396186,-0.417904,0.524511,-0.324060,0.630769,-0.204165,0.706417,-0.067858,0.745374,0.000000,0.744959,0.000000,0.750000,
0.500000,0.750000,0.500000,-0.750000,0.500000,-0.750000,$1*%
G04 Aperture macros list end*
G04 #@! TA.AperFunction,SMDPad,CuDef*
%ADD10RoundRect,0.300000X-2.050000X0.300000X-2.050000X-0.300000X2.050000X-0.300000X2.050000X0.300000X0*%
G04 #@! TD*
G04 #@! TA.AperFunction,SMDPad,CuDef*
%ADD11R,0.800000X0.900000*%
G04 #@! TD*
G04 #@! TA.AperFunction,ComponentPad*
%ADD12R,1.500000X1.050000*%
G04 #@! TD*
G04 #@! TA.AperFunction,ComponentPad*
%ADD13O,1.500000X1.050000*%
G04 #@! TD*
G04 #@! TA.AperFunction,ComponentPad*
%ADD14C,1.800000*%
G04 #@! TD*
G04 #@! TA.AperFunction,ComponentPad*
%ADD15R,1.800000X1.800000*%
G04 #@! TD*
G04 #@! TA.AperFunction,ComponentPad*
%ADD16C,2.250000*%
G04 #@! TD*
G04 #@! TA.AperFunction,ComponentPad*
%ADD17C,2.050000*%
G04 #@! TD*
G04 #@! TA.AperFunction,SMDPad,CuDef*
%ADD18R,0.900000X0.800000*%
G04 #@! TD*
G04 #@! TA.AperFunction,SMDPad,CuDef*
%ADD19R,0.900000X1.200000*%
G04 #@! TD*
G04 #@! TA.AperFunction,SMDPad,CuDef*
%ADD20RoundRect,0.249997X0.312503X1.075003X-0.312503X1.075003X-0.312503X-1.075003X0.312503X-1.075003X0*%
G04 #@! TD*
G04 #@! TA.AperFunction,SMDPad,CuDef*
%ADD21RoundRect,0.200000X-0.275000X0.200000X-0.275000X-0.200000X0.275000X-0.200000X0.275000X0.200000X0*%
G04 #@! TD*
G04 #@! TA.AperFunction,SMDPad,CuDef*
%ADD22RoundRect,0.200000X0.275000X-0.200000X0.275000X0.200000X-0.275000X0.200000X-0.275000X-0.200000X0*%
G04 #@! TD*
G04 #@! TA.AperFunction,ComponentPad*
%ADD23C,2.000000*%
G04 #@! TD*
G04 #@! TA.AperFunction,ComponentPad*
%ADD24C,1.300000*%
G04 #@! TD*
G04 #@! TA.AperFunction,ComponentPad*
%ADD25C,4.200000*%
G04 #@! TD*
G04 #@! TA.AperFunction,ComponentPad*
%ADD26C,2.499360*%
G04 #@! TD*
G04 #@! TA.AperFunction,SMDPad,CuDef*
%ADD27R,2.000000X3.800000*%
G04 #@! TD*
G04 #@! TA.AperFunction,ComponentPad*
%ADD28R,1.600000X1.600000*%
G04 #@! TD*
G04 #@! TA.AperFunction,ComponentPad*
%ADD29C,1.600000*%
G04 #@! TD*
G04 #@! TA.AperFunction,SMDPad,CuDef*
%ADD30RoundRect,0.225000X-0.225000X-0.250000X0.225000X-0.250000X0.225000X0.250000X-0.225000X0.250000X0*%
G04 #@! TD*
G04 #@! TA.AperFunction,SMDPad,CuDef*
%ADD31RoundRect,0.225000X0.225000X0.250000X-0.225000X0.250000X-0.225000X-0.250000X0.225000X-0.250000X0*%
G04 #@! TD*
G04 #@! TA.AperFunction,SMDPad,CuDef*
%ADD32RoundRect,0.225000X0.250000X-0.225000X0.250000X0.225000X-0.250000X0.225000X-0.250000X-0.225000X0*%
G04 #@! TD*
G04 #@! TA.AperFunction,SMDPad,CuDef*
%ADD33RoundRect,0.250000X-0.475000X0.250000X-0.475000X-0.250000X0.475000X-0.250000X0.475000X0.250000X0*%
G04 #@! TD*
G04 #@! TA.AperFunction,SMDPad,CuDef*
%ADD34RoundRect,0.225000X-0.250000X0.225000X-0.250000X-0.225000X0.250000X-0.225000X0.250000X0.225000X0*%
G04 #@! TD*
G04 #@! TA.AperFunction,SMDPad,CuDef*
%ADD35RoundRect,0.250000X-0.250000X-0.475000X0.250000X-0.475000X0.250000X0.475000X-0.250000X0.475000X0*%
G04 #@! TD*
G04 #@! TA.AperFunction,SMDPad,CuDef*
%ADD36RoundRect,0.250000X0.250000X0.475000X-0.250000X0.475000X-0.250000X-0.475000X0.250000X-0.475000X0*%
G04 #@! TD*
G04 #@! TA.AperFunction,SMDPad,CuDef*
%ADD37RoundRect,0.218750X0.256250X-0.218750X0.256250X0.218750X-0.256250X0.218750X-0.256250X-0.218750X0*%
G04 #@! TD*
G04 #@! TA.AperFunction,SMDPad,CuDef*
%ADD38RoundRect,0.100000X0.100000X-0.712500X0.100000X0.712500X-0.100000X0.712500X-0.100000X-0.712500X0*%
G04 #@! TD*
G04 #@! TA.AperFunction,SMDPad,CuDef*
%ADD39R,1.220000X0.650000*%
G04 #@! TD*
G04 #@! TA.AperFunction,SMDPad,CuDef*
%ADD40R,0.650000X1.220000*%
G04 #@! TD*
G04 #@! TA.AperFunction,SMDPad,CuDef*
%ADD41FreePoly0,180.000000*%
G04 #@! TD*
G04 #@! TA.AperFunction,SMDPad,CuDef*
%ADD42FreePoly1,180.000000*%
G04 #@! TD*
G04 #@! TA.AperFunction,SMDPad,CuDef*
%ADD43R,3.400000X1.800000*%
G04 #@! TD*
G04 #@! TA.AperFunction,SMDPad,CuDef*
%ADD44RoundRect,0.200000X0.200000X0.275000X-0.200000X0.275000X-0.200000X-0.275000X0.200000X-0.275000X0*%
G04 #@! TD*
G04 #@! TA.AperFunction,ViaPad*
%ADD45C,0.600000*%
G04 #@! TD*
G04 #@! TA.AperFunction,Conductor*
%ADD46C,0.200000*%
G04 #@! TD*
G04 #@! TA.AperFunction,Conductor*
%ADD47C,0.500000*%
G04 #@! TD*
G04 #@! TA.AperFunction,Conductor*
%ADD48C,0.250000*%
G04 #@! TD*
G04 #@! TA.AperFunction,Conductor*
%ADD49C,1.000000*%
G04 #@! TD*
G04 APERTURE END LIST*
D10*
X135600000Y-107100000D03*
X135600000Y-103800000D03*
D11*
X112000000Y-104300000D03*
X111050000Y-102300000D03*
X112950000Y-102300000D03*
D12*
X122000000Y-109500000D03*
D13*
X122000000Y-112040000D03*
X122000000Y-110770000D03*
D14*
X102362000Y-100000000D03*
D15*
X99822000Y-100000000D03*
D16*
X148960000Y-109960000D03*
X148960000Y-115040000D03*
X154040000Y-115040000D03*
X154040000Y-109960000D03*
D17*
X151500000Y-112500000D03*
D16*
X148960000Y-96960000D03*
X148960000Y-102040000D03*
X154040000Y-102040000D03*
X154040000Y-96960000D03*
D17*
X151500000Y-99500000D03*
D18*
X118300000Y-92600000D03*
X116300000Y-93550000D03*
X116300000Y-91650000D03*
D11*
X109500000Y-93500000D03*
X108550000Y-91500000D03*
X110450000Y-91500000D03*
D19*
X98650000Y-95500000D03*
X95350000Y-95500000D03*
D20*
X142287500Y-114500000D03*
X145212500Y-114500000D03*
D21*
X115000000Y-106725000D03*
X115000000Y-105075000D03*
D22*
X118700000Y-105075000D03*
X118700000Y-106725000D03*
X113000000Y-91675000D03*
X113000000Y-93325000D03*
D23*
X110380000Y-107780000D03*
X105300000Y-107780000D03*
X100220000Y-107780000D03*
X92600000Y-107780000D03*
X110380000Y-115400000D03*
X105300000Y-115400000D03*
X92600000Y-115400000D03*
X100220000Y-115400000D03*
D24*
X116240000Y-102018000D03*
X116240000Y-96938000D03*
X114970000Y-100748000D03*
X117510000Y-100748000D03*
X117510000Y-98208000D03*
X114970000Y-98208000D03*
X120685000Y-97595000D03*
X120685000Y-101405000D03*
X122590000Y-101405000D03*
X124495000Y-101405000D03*
X126400000Y-101405000D03*
X128305000Y-101405000D03*
X130210000Y-101405000D03*
X132115000Y-101405000D03*
X134020000Y-101405000D03*
X120685000Y-99500000D03*
X122590000Y-99500000D03*
X124495000Y-99500000D03*
X126400000Y-99500000D03*
X128305000Y-99500000D03*
X130210000Y-99500000D03*
X132115000Y-99500000D03*
D25*
X140750000Y-99500000D03*
D24*
X124495000Y-97595000D03*
X122590000Y-97595000D03*
X134020000Y-99500000D03*
X126400000Y-97595000D03*
X128305000Y-97595000D03*
X134020000Y-97595000D03*
X132115000Y-97595000D03*
X130210000Y-97595000D03*
D25*
X108240000Y-99500000D03*
D26*
X119500000Y-115500000D03*
D27*
X125000000Y-115000000D03*
D28*
X95000000Y-101000000D03*
D29*
X95000000Y-103000000D03*
D22*
X102500000Y-104825000D03*
X102500000Y-103175000D03*
D30*
X127975000Y-95600000D03*
X126425000Y-95600000D03*
D31*
X121375000Y-95600000D03*
X119825000Y-95600000D03*
D32*
X129000000Y-114275000D03*
X129000000Y-112725000D03*
D33*
X131900000Y-91800000D03*
X131900000Y-93700000D03*
D34*
X139450000Y-91825000D03*
X139450000Y-93375000D03*
D33*
X141700000Y-93750000D03*
X141700000Y-91850000D03*
D35*
X142300000Y-103900000D03*
X144200000Y-103900000D03*
D32*
X140500000Y-107375000D03*
X140500000Y-108925000D03*
D36*
X142350000Y-111000000D03*
X144250000Y-111000000D03*
D37*
X124500000Y-95587500D03*
X124500000Y-94012500D03*
X123000000Y-94012500D03*
X123000000Y-95587500D03*
D22*
X131200000Y-106025000D03*
X131200000Y-104375000D03*
X131200000Y-109225000D03*
X131200000Y-107575000D03*
D38*
X130775000Y-115612500D03*
X131425000Y-115612500D03*
X132075000Y-115612500D03*
X132725000Y-115612500D03*
X132725000Y-111387500D03*
X132075000Y-111387500D03*
X131425000Y-111387500D03*
X130775000Y-111387500D03*
D39*
X134790000Y-91850000D03*
X134790000Y-92800000D03*
X134790000Y-93750000D03*
X137410000Y-93750000D03*
X137410000Y-91850000D03*
D40*
X144200000Y-108710000D03*
X142300000Y-108710000D03*
X142300000Y-106090000D03*
X143250000Y-106090000D03*
X144200000Y-106090000D03*
D38*
X135025000Y-115612500D03*
X135675000Y-115612500D03*
X136325000Y-115612500D03*
X136975000Y-115612500D03*
X136975000Y-111387500D03*
X136325000Y-111387500D03*
X135675000Y-111387500D03*
X135025000Y-111387500D03*
D41*
X125750000Y-107100000D03*
D42*
X127050000Y-107100000D03*
D43*
X149950000Y-93100000D03*
X155676600Y-93129100D03*
D34*
X140300000Y-115325000D03*
X140300000Y-116875000D03*
D31*
X122175000Y-104000000D03*
X120625000Y-104000000D03*
D44*
X144625000Y-116900000D03*
X142975000Y-116900000D03*
X125625000Y-104000000D03*
X123975000Y-104000000D03*
D45*
X133450001Y-93349999D03*
X133450001Y-94399967D03*
X133450000Y-95350000D03*
X134450000Y-95350000D03*
X135450000Y-95350000D03*
X132450000Y-95350000D03*
X131450000Y-95350000D03*
X131400000Y-114100000D03*
X140750000Y-111000000D03*
X145350002Y-103900000D03*
X145800000Y-105700000D03*
X145800000Y-106700000D03*
X145800000Y-107700000D03*
X145800000Y-108700000D03*
X145800000Y-109700000D03*
X145800000Y-110700000D03*
X145800000Y-111700000D03*
X136450000Y-95350000D03*
X137450000Y-95350000D03*
X138450000Y-95350000D03*
X139450000Y-95350000D03*
X140450000Y-95350000D03*
X141450000Y-95350000D03*
X142450000Y-95350000D03*
X130450000Y-95350000D03*
X129450000Y-95350000D03*
X120300000Y-96300000D03*
X113200000Y-104350000D03*
X121000000Y-106000000D03*
X122500000Y-106000000D03*
X124000000Y-106000000D03*
X121000000Y-107000000D03*
X122500000Y-107000000D03*
X124000000Y-107000000D03*
X121000000Y-108000000D03*
X122500000Y-108000000D03*
X124000000Y-108000000D03*
X140900000Y-114000000D03*
X133950000Y-111350000D03*
X138400000Y-111350000D03*
X125850000Y-94000000D03*
X117400000Y-95300000D03*
X133600000Y-108900000D03*
X133600000Y-105800000D03*
X134600000Y-105800000D03*
X135600000Y-105800000D03*
X136600000Y-105800000D03*
X137600000Y-105800000D03*
X138600000Y-105800000D03*
X134600000Y-108900000D03*
X135600000Y-108900000D03*
X136600000Y-108900000D03*
X137600000Y-108900000D03*
X138600000Y-108900000D03*
X138700000Y-107300000D03*
X137750000Y-98750000D03*
X136750000Y-98750000D03*
X137750000Y-99750000D03*
X136750000Y-99750000D03*
X137750000Y-100750000D03*
X136750000Y-100750000D03*
X137750000Y-101750000D03*
X136750000Y-101750000D03*
D46*
X130800000Y-109950000D02*
X130800000Y-111000000D01*
X130775000Y-109925000D02*
X130800000Y-109950000D01*
X121344509Y-102354511D02*
X120400000Y-102354511D01*
X121344999Y-102355001D02*
X121344509Y-102354511D01*
D47*
X95000000Y-113000000D02*
X92600000Y-115400000D01*
X95000000Y-103000000D02*
X95000000Y-113000000D01*
X95000000Y-101000000D02*
X95000000Y-98200000D01*
X95350000Y-97850000D02*
X95350000Y-95500000D01*
X95000000Y-98200000D02*
X95350000Y-97850000D01*
X95350000Y-95500000D02*
X95350000Y-94050000D01*
X95900000Y-93500000D02*
X109500000Y-93500000D01*
X95350000Y-94050000D02*
X95900000Y-93500000D01*
D48*
X106600000Y-104000000D02*
X110380000Y-107780000D01*
X100000000Y-104000000D02*
X106600000Y-104000000D01*
X97000000Y-101000000D02*
X100000000Y-104000000D01*
X95000000Y-101000000D02*
X97000000Y-101000000D01*
X111800000Y-93500000D02*
X109500000Y-93500000D01*
X112050000Y-93250000D02*
X111800000Y-93500000D01*
X113000000Y-93250000D02*
X112050000Y-93250000D01*
X116300000Y-91650000D02*
X115250000Y-91650000D01*
X115250000Y-91650000D02*
X114200000Y-90600000D01*
X109450000Y-90600000D02*
X108550000Y-91500000D01*
X114200000Y-90600000D02*
X109450000Y-90600000D01*
D47*
X92600000Y-94100000D02*
X92600000Y-107780000D01*
X95200000Y-91500000D02*
X92600000Y-94100000D01*
X108550000Y-91500000D02*
X95200000Y-91500000D01*
D49*
X122000000Y-110770000D02*
X122000000Y-112040000D01*
D48*
X125500000Y-114100000D02*
X124200000Y-115400000D01*
D49*
X122000000Y-112040000D02*
X122000000Y-114250000D01*
X122750000Y-115000000D02*
X125000000Y-115000000D01*
X122000000Y-114250000D02*
X122750000Y-115000000D01*
D48*
X125550000Y-114450000D02*
X125000000Y-115000000D01*
D49*
X120970000Y-110770000D02*
X119370000Y-110770000D01*
X122000000Y-110770000D02*
X120970000Y-110770000D01*
D46*
X119100000Y-110500000D02*
X119370000Y-110770000D01*
D49*
X105220001Y-110399999D02*
X100220000Y-115400000D01*
X119370000Y-110770000D02*
X118999999Y-110399999D01*
D46*
X115000000Y-110249998D02*
X114849999Y-110399999D01*
X115000000Y-106725000D02*
X115000000Y-110249998D01*
D49*
X114849999Y-110399999D02*
X105220001Y-110399999D01*
X118999999Y-110399999D02*
X114849999Y-110399999D01*
X127050000Y-107100000D02*
X127050000Y-104450000D01*
X127050000Y-104450000D02*
X127000000Y-104400000D01*
X127000000Y-104400000D02*
X127000000Y-103900000D01*
X127100000Y-107150000D02*
X127050000Y-107100000D01*
X127100000Y-112300000D02*
X127100000Y-107150000D01*
X125000000Y-114400000D02*
X127100000Y-112300000D01*
X125000000Y-115000000D02*
X125000000Y-114400000D01*
D47*
X102500000Y-103250000D02*
X102500000Y-101600000D01*
X102500000Y-101600000D02*
X102362000Y-101462000D01*
X102362000Y-101462000D02*
X102362000Y-99500000D01*
X141700000Y-93750000D02*
X141700000Y-95050000D01*
X134000000Y-92800000D02*
X133450001Y-93349999D01*
X134790000Y-92800000D02*
X134000000Y-92800000D01*
X133100000Y-93700000D02*
X133450001Y-93349999D01*
X131900000Y-93700000D02*
X133100000Y-93700000D01*
X133450001Y-93349999D02*
X133450001Y-94399967D01*
X133450001Y-95349999D02*
X133450000Y-95350000D01*
X133450001Y-94399967D02*
X133450001Y-95349999D01*
X131450000Y-95350000D02*
X132450000Y-95350000D01*
X132450000Y-95350000D02*
X135450000Y-95350000D01*
X127975000Y-95600000D02*
X130400000Y-95600000D01*
X130650000Y-95350000D02*
X131450000Y-95350000D01*
X130400000Y-95600000D02*
X130650000Y-95350000D01*
D46*
X131425000Y-114125000D02*
X131400000Y-114100000D01*
X131425000Y-115612500D02*
X131425000Y-114125000D01*
D47*
X142350000Y-111000000D02*
X140750000Y-111000000D01*
X144200000Y-106090000D02*
X144200000Y-103900000D01*
X144200000Y-103900000D02*
X145350002Y-103900000D01*
D48*
X119825000Y-95825000D02*
X119825000Y-95600000D01*
X120300000Y-96300000D02*
X119825000Y-95825000D01*
X112050000Y-104350000D02*
X113200000Y-104350000D01*
D47*
X141400000Y-114500000D02*
X140900000Y-114000000D01*
X142287500Y-114500000D02*
X141400000Y-114500000D01*
D46*
X140300000Y-114600000D02*
X140900000Y-114000000D01*
X140300000Y-115325000D02*
X140300000Y-114600000D01*
D47*
X120925000Y-105925000D02*
X121000000Y-106000000D01*
X120625000Y-105625000D02*
X121000000Y-106000000D01*
X120625000Y-104000000D02*
X120625000Y-105625000D01*
D48*
X118300000Y-95205000D02*
X118300000Y-95000000D01*
X118300000Y-95000000D02*
X118300000Y-92600000D01*
X118300000Y-92600000D02*
X118300000Y-96600000D01*
X119100000Y-98900000D02*
X119700000Y-99500000D01*
X119700000Y-99500000D02*
X120685000Y-99500000D01*
X119100000Y-97400000D02*
X119100000Y-98900000D01*
X118300000Y-96600000D02*
X119100000Y-97400000D01*
X110450000Y-91500000D02*
X111800000Y-91500000D01*
X112050000Y-91750000D02*
X113000000Y-91750000D01*
X111800000Y-91500000D02*
X112050000Y-91750000D01*
X113000000Y-91750000D02*
X114150000Y-91750000D01*
X115000000Y-92600000D02*
X118300000Y-92600000D01*
X114150000Y-91750000D02*
X115000000Y-92600000D01*
D47*
X102500000Y-105500000D02*
X100220000Y-107780000D01*
X102500000Y-104750000D02*
X102500000Y-105500000D01*
D48*
X123000000Y-96100000D02*
X123000000Y-95587500D01*
X124495000Y-97595000D02*
X123000000Y-96100000D01*
X121387500Y-95587500D02*
X121375000Y-95600000D01*
X123000000Y-95587500D02*
X121387500Y-95587500D01*
D47*
X145212500Y-114500000D02*
X145850000Y-114500000D01*
X147850000Y-112500000D02*
X151500000Y-112500000D01*
X145850000Y-114500000D02*
X147850000Y-112500000D01*
D46*
X144900000Y-116800000D02*
X145212500Y-116487500D01*
X145212500Y-114500000D02*
X145212500Y-116487500D01*
D47*
X151500000Y-94300000D02*
X150200000Y-93000000D01*
X151500000Y-99500000D02*
X151500000Y-94300000D01*
D46*
X122590000Y-101405000D02*
X122295000Y-101405000D01*
X122295000Y-101405000D02*
X121344999Y-102355001D01*
X118700000Y-104000000D02*
X120344999Y-102355001D01*
X118700000Y-105075000D02*
X118700000Y-104000000D01*
X119045000Y-101405000D02*
X120685000Y-101405000D01*
X116800000Y-103650000D02*
X119045000Y-101405000D01*
X115500000Y-103650000D02*
X116800000Y-103650000D01*
X115000000Y-104150000D02*
X115500000Y-103650000D01*
X115000000Y-105075000D02*
X115000000Y-104150000D01*
X124495000Y-99500000D02*
X124500000Y-99500000D01*
X124500000Y-99500000D02*
X125450000Y-98550000D01*
X125450000Y-98550000D02*
X125450000Y-97000000D01*
X124500000Y-96050000D02*
X124500000Y-95587500D01*
X125450000Y-97000000D02*
X124500000Y-96050000D01*
D48*
X124512500Y-95600000D02*
X124500000Y-95587500D01*
X126425000Y-95600000D02*
X124512500Y-95600000D01*
D46*
X132075000Y-114125000D02*
X132075000Y-115612500D01*
X132575000Y-114275000D02*
X132725000Y-114425000D01*
X132725000Y-114425000D02*
X132725000Y-115612500D01*
X132575000Y-114275000D02*
X134825000Y-114275000D01*
X135675000Y-113425000D02*
X135675000Y-111387500D01*
X134825000Y-114275000D02*
X135675000Y-113425000D01*
X132125000Y-114275000D02*
X132575000Y-114275000D01*
X132100000Y-114250000D02*
X132125000Y-114275000D01*
X132100000Y-113800000D02*
X132100000Y-114250000D01*
X131800000Y-113500000D02*
X132100000Y-113800000D01*
X129775000Y-113500000D02*
X131800000Y-113500000D01*
X129000000Y-114275000D02*
X129775000Y-113500000D01*
X129000000Y-112725000D02*
X131125000Y-112725000D01*
X131425000Y-112425000D02*
X131425000Y-111387500D01*
X131125000Y-112725000D02*
X131425000Y-112425000D01*
X131125000Y-112725000D02*
X132625000Y-112725000D01*
X132725000Y-112625000D02*
X132725000Y-111387500D01*
X132625000Y-112725000D02*
X132725000Y-112625000D01*
X136325000Y-110375000D02*
X136325000Y-111350000D01*
X136000000Y-110050000D02*
X136325000Y-110375000D01*
X133165698Y-110050000D02*
X136000000Y-110050000D01*
X132725000Y-110490698D02*
X133165698Y-110050000D01*
X132725000Y-111387500D02*
X132725000Y-110490698D01*
D47*
X139425000Y-91850000D02*
X139450000Y-91825000D01*
X137410000Y-91850000D02*
X139425000Y-91850000D01*
X141675000Y-91825000D02*
X141700000Y-91850000D01*
X139450000Y-91825000D02*
X141675000Y-91825000D01*
D48*
X133987500Y-111387500D02*
X133950000Y-111350000D01*
X135025000Y-111387500D02*
X133987500Y-111387500D01*
X143200000Y-91850000D02*
X141700000Y-91850000D01*
X144450000Y-93100000D02*
X143200000Y-91850000D01*
X144450000Y-100900000D02*
X144450000Y-93100000D01*
X143300000Y-102050000D02*
X144450000Y-100900000D01*
X139600000Y-103600000D02*
X141150000Y-102050000D01*
X139600000Y-110150000D02*
X139600000Y-103600000D01*
X141150000Y-102050000D02*
X143300000Y-102050000D01*
X138400000Y-111350000D02*
X139600000Y-110150000D01*
D47*
X144200000Y-110950000D02*
X144250000Y-111000000D01*
X144200000Y-110000000D02*
X144200000Y-110950000D01*
X144200000Y-108710000D02*
X144200000Y-110000000D01*
D46*
X144000000Y-109800000D02*
X144200000Y-110000000D01*
X140850000Y-109800000D02*
X144000000Y-109800000D01*
X140500000Y-109450000D02*
X140850000Y-109800000D01*
X140500000Y-108925000D02*
X140500000Y-109450000D01*
D48*
X138375000Y-115650000D02*
X138750000Y-115275000D01*
X136975000Y-115650000D02*
X138375000Y-115650000D01*
X138750000Y-115275000D02*
X140050000Y-113975000D01*
X140050000Y-113975000D02*
X140050000Y-110250000D01*
X140500000Y-109800000D02*
X140500000Y-108925000D01*
X140050000Y-110250000D02*
X140500000Y-109800000D01*
D47*
X128950000Y-91800000D02*
X132550000Y-91800000D01*
X126737500Y-94012500D02*
X128950000Y-91800000D01*
X132600000Y-91850000D02*
X132550000Y-91800000D01*
X134790000Y-91850000D02*
X132600000Y-91850000D01*
D48*
X135700000Y-91850000D02*
X134790000Y-91850000D01*
X136100000Y-92250000D02*
X135700000Y-91850000D01*
X136100000Y-93350000D02*
X136100000Y-92250000D01*
X135700000Y-93750000D02*
X136100000Y-93350000D01*
X134790000Y-93750000D02*
X135700000Y-93750000D01*
X125412500Y-94012500D02*
X125837500Y-94012500D01*
X125837500Y-94012500D02*
X125850000Y-94000000D01*
D47*
X125412500Y-94012500D02*
X126737500Y-94012500D01*
X124500000Y-94012500D02*
X125412500Y-94012500D01*
D48*
X98650000Y-95500000D02*
X100700000Y-95500000D01*
X100700000Y-95500000D02*
X100900000Y-95300000D01*
X117400000Y-95300000D02*
X100900000Y-95300000D01*
D46*
X137410000Y-93750000D02*
X138250000Y-93750000D01*
X138625000Y-93375000D02*
X139450000Y-93375000D01*
X138250000Y-93750000D02*
X138625000Y-93375000D01*
X142300000Y-108710000D02*
X142300000Y-107550000D01*
X142300000Y-107550000D02*
X142450000Y-107400000D01*
X142450000Y-107400000D02*
X143000000Y-107400000D01*
X143250000Y-107150000D02*
X143250000Y-106090000D01*
X143000000Y-107400000D02*
X143250000Y-107150000D01*
D47*
X143250000Y-104850000D02*
X143250000Y-106090000D01*
X142300000Y-103900000D02*
X143250000Y-104850000D01*
D48*
X145000000Y-100986410D02*
X143486401Y-102500009D01*
X142961400Y-90974990D02*
X145000000Y-93013590D01*
X142300000Y-102750000D02*
X142300000Y-103900000D01*
X124625010Y-90974990D02*
X142961400Y-90974990D01*
X142549990Y-102500010D02*
X142300000Y-102750000D01*
X123000000Y-92600000D02*
X124625010Y-90974990D01*
X143486401Y-102500009D02*
X142549990Y-102500010D01*
X145000000Y-93013590D02*
X145000000Y-100986410D01*
X123000000Y-94012500D02*
X123000000Y-92600000D01*
D46*
X142300000Y-106090000D02*
X140860000Y-106090000D01*
X140500000Y-106450000D02*
X140500000Y-107375000D01*
X140860000Y-106090000D02*
X140500000Y-106450000D01*
D49*
X116600000Y-112600000D02*
X119500000Y-115500000D01*
X108100000Y-112600000D02*
X116600000Y-112600000D01*
X105300000Y-115400000D02*
X108100000Y-112600000D01*
D46*
X119700000Y-109500000D02*
X122000000Y-109500000D01*
X118700000Y-108500000D02*
X119700000Y-109500000D01*
X118700000Y-106725000D02*
X118700000Y-108500000D01*
X132450000Y-110200000D02*
X132075000Y-110575000D01*
X132075000Y-110575000D02*
X132075000Y-111387500D01*
X133000000Y-109650000D02*
X132450000Y-110200000D01*
X136600000Y-109650000D02*
X133000000Y-109650000D01*
X136975000Y-110025000D02*
X136600000Y-109650000D01*
X136975000Y-111350000D02*
X136975000Y-110025000D01*
X133000000Y-109650000D02*
X132650000Y-109650000D01*
X131200000Y-109225000D02*
X131200000Y-109500000D01*
X131200000Y-109500000D02*
X130775000Y-109925000D01*
X131200000Y-109225000D02*
X131725000Y-109225000D01*
X132150000Y-109650000D02*
X132650000Y-109650000D01*
X131725000Y-109225000D02*
X132150000Y-109650000D01*
X130775000Y-115612500D02*
X130775000Y-116575000D01*
X130775000Y-116575000D02*
X131200000Y-117000000D01*
X131200000Y-117000000D02*
X134800000Y-117000000D01*
X135025000Y-116775000D02*
X135025000Y-115650000D01*
X134800000Y-117000000D02*
X135025000Y-116775000D01*
X134800000Y-117000000D02*
X135550000Y-117000000D01*
X135675000Y-116875000D02*
X135675000Y-115650000D01*
X135550000Y-117000000D02*
X135675000Y-116875000D01*
X121638060Y-98546940D02*
X121940001Y-98244999D01*
X112950000Y-102950000D02*
X113000000Y-103000000D01*
X121638060Y-100111940D02*
X121638060Y-98546940D01*
X121940001Y-98244999D02*
X122590000Y-97595000D01*
X121300000Y-100450000D02*
X121638060Y-100111940D01*
X119434300Y-100450000D02*
X121300000Y-100450000D01*
X113000000Y-103000000D02*
X116884300Y-103000000D01*
X116884300Y-103000000D02*
X119434300Y-100450000D01*
X112950000Y-102300000D02*
X112950000Y-102950000D01*
X136325000Y-116425000D02*
X136325000Y-115612500D01*
X136775000Y-116875000D02*
X136325000Y-116425000D01*
X140300000Y-116875000D02*
X136775000Y-116875000D01*
X142950000Y-116875000D02*
X142975000Y-116900000D01*
X140300000Y-116875000D02*
X142950000Y-116875000D01*
D47*
X122175000Y-104000000D02*
X123800000Y-104000000D01*
G04 #@! TA.AperFunction,Conductor*
G36*
X158242121Y-90720002D02*
G01*
X158288614Y-90773658D01*
X158300000Y-90826000D01*
X158300000Y-104374000D01*
X158279998Y-104442121D01*
X158226342Y-104488614D01*
X158174000Y-104500000D01*
X146802190Y-104500000D01*
X146734069Y-104479998D01*
X146713095Y-104463095D01*
X146536905Y-104286905D01*
X146502879Y-104224593D01*
X146500000Y-104197810D01*
X146500000Y-103364471D01*
X148000884Y-103364471D01*
X148004570Y-103369740D01*
X148212121Y-103496927D01*
X148220915Y-103501408D01*
X148449242Y-103595984D01*
X148458627Y-103599033D01*
X148698940Y-103656728D01*
X148708687Y-103658271D01*
X148955070Y-103677662D01*
X148964930Y-103677662D01*
X149211313Y-103658271D01*
X149221060Y-103656728D01*
X149461373Y-103599033D01*
X149470758Y-103595984D01*
X149699085Y-103501408D01*
X149707879Y-103496927D01*
X149913928Y-103370660D01*
X149917968Y-103364471D01*
X153080884Y-103364471D01*
X153084570Y-103369740D01*
X153292121Y-103496927D01*
X153300915Y-103501408D01*
X153529242Y-103595984D01*
X153538627Y-103599033D01*
X153778940Y-103656728D01*
X153788687Y-103658271D01*
X154035070Y-103677662D01*
X154044930Y-103677662D01*
X154291313Y-103658271D01*
X154301060Y-103656728D01*
X154541373Y-103599033D01*
X154550758Y-103595984D01*
X154779085Y-103501408D01*
X154787879Y-103496927D01*
X154993928Y-103370660D01*
X154999190Y-103362599D01*
X154993183Y-103352393D01*
X154052812Y-102412022D01*
X154038868Y-102404408D01*
X154037035Y-102404539D01*
X154030420Y-102408790D01*
X153088276Y-103350934D01*
X153080884Y-103364471D01*
X149917968Y-103364471D01*
X149919190Y-103362599D01*
X149913183Y-103352393D01*
X148972812Y-102412022D01*
X148958868Y-102404408D01*
X148957035Y-102404539D01*
X148950420Y-102408790D01*
X148008276Y-103350934D01*
X148000884Y-103364471D01*
X146500000Y-103364471D01*
X146500000Y-102044930D01*
X147322338Y-102044930D01*
X147341729Y-102291313D01*
X147343272Y-102301060D01*
X147400967Y-102541373D01*
X147404016Y-102550758D01*
X147498592Y-102779085D01*
X147503073Y-102787879D01*
X147629340Y-102993928D01*
X147637401Y-102999190D01*
X147647607Y-102993183D01*
X148587978Y-102052812D01*
X148595592Y-102038868D01*
X148595461Y-102037035D01*
X148591210Y-102030420D01*
X147649066Y-101088276D01*
X147635529Y-101080884D01*
X147630260Y-101084570D01*
X147503073Y-101292121D01*
X147498592Y-101300915D01*
X147404016Y-101529242D01*
X147400967Y-101538627D01*
X147343272Y-101778940D01*
X147341729Y-101788687D01*
X147322338Y-102035070D01*
X147322338Y-102044930D01*
X146500000Y-102044930D01*
X146500000Y-96964930D01*
X147322338Y-96964930D01*
X147341729Y-97211313D01*
X147343272Y-97221060D01*
X147400967Y-97461373D01*
X147404016Y-97470758D01*
X147498592Y-97699085D01*
X147503073Y-97707879D01*
X147629340Y-97913928D01*
X147637401Y-97919190D01*
X147647607Y-97913183D01*
X148587978Y-96972812D01*
X148595592Y-96958868D01*
X148595461Y-96957035D01*
X148591210Y-96950420D01*
X147649066Y-96008276D01*
X147635529Y-96000884D01*
X147630260Y-96004570D01*
X147503073Y-96212121D01*
X147498592Y-96220915D01*
X147404016Y-96449242D01*
X147400967Y-96458627D01*
X147343272Y-96698940D01*
X147341729Y-96708687D01*
X147322338Y-96955070D01*
X147322338Y-96964930D01*
X146500000Y-96964930D01*
X146500000Y-95637401D01*
X148000810Y-95637401D01*
X148006817Y-95647607D01*
X148947188Y-96587978D01*
X148961132Y-96595592D01*
X148962965Y-96595461D01*
X148969580Y-96591210D01*
X149911724Y-95649066D01*
X149919116Y-95635529D01*
X149915430Y-95630260D01*
X149707879Y-95503073D01*
X149699085Y-95498592D01*
X149470758Y-95404016D01*
X149461373Y-95400967D01*
X149221060Y-95343272D01*
X149211313Y-95341729D01*
X148964930Y-95322338D01*
X148955070Y-95322338D01*
X148708687Y-95341729D01*
X148698940Y-95343272D01*
X148458627Y-95400967D01*
X148449242Y-95404016D01*
X148220915Y-95498592D01*
X148212121Y-95503073D01*
X148006072Y-95629340D01*
X148000810Y-95637401D01*
X146500000Y-95637401D01*
X146500000Y-92144007D01*
X147549500Y-92144007D01*
X147549501Y-94055992D01*
X147556171Y-94128594D01*
X147558170Y-94134972D01*
X147558170Y-94134973D01*
X147604481Y-94282749D01*
X147606873Y-94290383D01*
X147694703Y-94435408D01*
X147814592Y-94555297D01*
X147959617Y-94643127D01*
X147966864Y-94645398D01*
X147966866Y-94645399D01*
X148032106Y-94665844D01*
X148121406Y-94693829D01*
X148194007Y-94700500D01*
X148246965Y-94700500D01*
X150423500Y-94700499D01*
X150491621Y-94720501D01*
X150538114Y-94774157D01*
X150549500Y-94826499D01*
X150549500Y-95981697D01*
X150529498Y-96049818D01*
X150475842Y-96096311D01*
X150405568Y-96106415D01*
X150340988Y-96076921D01*
X150316067Y-96047532D01*
X150290660Y-96006072D01*
X150282599Y-96000810D01*
X150272393Y-96006817D01*
X148008276Y-98270934D01*
X148000884Y-98284471D01*
X148004570Y-98289740D01*
X148212121Y-98416927D01*
X148220915Y-98421408D01*
X148449242Y-98515984D01*
X148458627Y-98519033D01*
X148698940Y-98576728D01*
X148708687Y-98578271D01*
X148955070Y-98597662D01*
X148964930Y-98597662D01*
X149211313Y-98578271D01*
X149221060Y-98576728D01*
X149461373Y-98519033D01*
X149470758Y-98515984D01*
X149699085Y-98421408D01*
X149707879Y-98416927D01*
X149918608Y-98287792D01*
X149926588Y-98281994D01*
X149984000Y-98232960D01*
X150048789Y-98203929D01*
X150118989Y-98214534D01*
X150172312Y-98261409D01*
X150191827Y-98329671D01*
X150171339Y-98397647D01*
X150162706Y-98409338D01*
X150091305Y-98495188D01*
X149958258Y-98714443D01*
X149859080Y-98950956D01*
X149795950Y-99199530D01*
X149770255Y-99454705D01*
X149770479Y-99459371D01*
X149770479Y-99459376D01*
X149776045Y-99575251D01*
X149782560Y-99710875D01*
X149832594Y-99962413D01*
X149919258Y-100203792D01*
X150040648Y-100429710D01*
X150043447Y-100433459D01*
X150043450Y-100433463D01*
X150161031Y-100590925D01*
X150185763Y-100657474D01*
X150170588Y-100726830D01*
X150120326Y-100776973D01*
X150050934Y-100791981D01*
X149984444Y-100767091D01*
X149978242Y-100762123D01*
X149926589Y-100718006D01*
X149918608Y-100712208D01*
X149707879Y-100583073D01*
X149699085Y-100578592D01*
X149470758Y-100484016D01*
X149461373Y-100480967D01*
X149221060Y-100423272D01*
X149211313Y-100421729D01*
X148964930Y-100402338D01*
X148955070Y-100402338D01*
X148708687Y-100421729D01*
X148698940Y-100423272D01*
X148458627Y-100480967D01*
X148449242Y-100484016D01*
X148220915Y-100578592D01*
X148212121Y-100583073D01*
X148006072Y-100709340D01*
X148000810Y-100717401D01*
X148006817Y-100727607D01*
X150270934Y-102991724D01*
X150284471Y-102999116D01*
X150289740Y-102995430D01*
X150416927Y-102787879D01*
X150421408Y-102779085D01*
X150515984Y-102550758D01*
X150519033Y-102541373D01*
X150576728Y-102301060D01*
X150578271Y-102291313D01*
X150597662Y-102044930D01*
X150597662Y-102035070D01*
X150578271Y-101788687D01*
X150576728Y-101778940D01*
X150519033Y-101538627D01*
X150515984Y-101529242D01*
X150421408Y-101300915D01*
X150416927Y-101292121D01*
X150287792Y-101081392D01*
X150282000Y-101073419D01*
X150239879Y-101024103D01*
X150210848Y-100959314D01*
X150221453Y-100889114D01*
X150268327Y-100835791D01*
X150336589Y-100816275D01*
X150410195Y-100840660D01*
X150541093Y-100936638D01*
X150583061Y-100967410D01*
X150587196Y-100969586D01*
X150587200Y-100969588D01*
X150653603Y-101004524D01*
X150810029Y-101086824D01*
X151052156Y-101171378D01*
X151056749Y-101172250D01*
X151299531Y-101218344D01*
X151299534Y-101218344D01*
X151304120Y-101219215D01*
X151432254Y-101224250D01*
X151555720Y-101229101D01*
X151555726Y-101229101D01*
X151560388Y-101229284D01*
X151660279Y-101218344D01*
X151810676Y-101201873D01*
X151810681Y-101201872D01*
X151815329Y-101201363D01*
X151925909Y-101172250D01*
X152058820Y-101137258D01*
X152058823Y-101137257D01*
X152063343Y-101136067D01*
X152174580Y-101088276D01*
X152294687Y-101036674D01*
X152294689Y-101036673D01*
X152298981Y-101034829D01*
X152457656Y-100936638D01*
X152513094Y-100902332D01*
X152513098Y-100902329D01*
X152517067Y-100899873D01*
X152588947Y-100839022D01*
X152653863Y-100810273D01*
X152724016Y-100821185D01*
X152777133Y-100868292D01*
X152796351Y-100936638D01*
X152775566Y-101004524D01*
X152766170Y-101017020D01*
X152718001Y-101073419D01*
X152712208Y-101081392D01*
X152583073Y-101292121D01*
X152578592Y-101300915D01*
X152484016Y-101529242D01*
X152480967Y-101538627D01*
X152423272Y-101778940D01*
X152421729Y-101788687D01*
X152402338Y-102035070D01*
X152402338Y-102044930D01*
X152421729Y-102291313D01*
X152423272Y-102301060D01*
X152480967Y-102541373D01*
X152484016Y-102550758D01*
X152578592Y-102779085D01*
X152583073Y-102787879D01*
X152709340Y-102993928D01*
X152717401Y-102999190D01*
X152727607Y-102993183D01*
X153679658Y-102041132D01*
X154404408Y-102041132D01*
X154404539Y-102042965D01*
X154408790Y-102049580D01*
X155350934Y-102991724D01*
X155364471Y-102999116D01*
X155369740Y-102995430D01*
X155496927Y-102787879D01*
X155501408Y-102779085D01*
X155595984Y-102550758D01*
X155599033Y-102541373D01*
X155656728Y-102301060D01*
X155658271Y-102291313D01*
X155677662Y-102044930D01*
X155677662Y-102035070D01*
X155658271Y-101788687D01*
X155656728Y-101778940D01*
X155599033Y-101538627D01*
X155595984Y-101529242D01*
X155501408Y-101300915D01*
X155496927Y-101292121D01*
X155370660Y-101086072D01*
X155362599Y-101080810D01*
X155352393Y-101086817D01*
X154412022Y-102027188D01*
X154404408Y-102041132D01*
X153679658Y-102041132D01*
X154991724Y-100729066D01*
X154999116Y-100715529D01*
X154995430Y-100710260D01*
X154787879Y-100583073D01*
X154779085Y-100578592D01*
X154550758Y-100484016D01*
X154541373Y-100480967D01*
X154301060Y-100423272D01*
X154291313Y-100421729D01*
X154044930Y-100402338D01*
X154035070Y-100402338D01*
X153788687Y-100421729D01*
X153778940Y-100423272D01*
X153538627Y-100480967D01*
X153529242Y-100484016D01*
X153300915Y-100578592D01*
X153292121Y-100583073D01*
X153081392Y-100712208D01*
X153073412Y-100718006D01*
X153021661Y-100762206D01*
X152956872Y-100791238D01*
X152886672Y-100780634D01*
X152833349Y-100733759D01*
X152813833Y-100665498D01*
X152834320Y-100597521D01*
X152845097Y-100583320D01*
X152878828Y-100544856D01*
X152881909Y-100541343D01*
X152920745Y-100480967D01*
X153018126Y-100329571D01*
X153020651Y-100325646D01*
X153125986Y-100091810D01*
X153195601Y-99844974D01*
X153227967Y-99590559D01*
X153230338Y-99500000D01*
X153211332Y-99244240D01*
X153154730Y-98994098D01*
X153061778Y-98755070D01*
X153041025Y-98718759D01*
X152971811Y-98597662D01*
X152934515Y-98532407D01*
X152931623Y-98528739D01*
X152931620Y-98528734D01*
X152847010Y-98421408D01*
X152836002Y-98407445D01*
X152809538Y-98341567D01*
X152822891Y-98271837D01*
X152871823Y-98220396D01*
X152940798Y-98203576D01*
X153007918Y-98226716D01*
X153016783Y-98233629D01*
X153073412Y-98281994D01*
X153081392Y-98287792D01*
X153292121Y-98416927D01*
X153300915Y-98421408D01*
X153529242Y-98515984D01*
X153538627Y-98519033D01*
X153778940Y-98576728D01*
X153788687Y-98578271D01*
X154035070Y-98597662D01*
X154044930Y-98597662D01*
X154291313Y-98578271D01*
X154301060Y-98576728D01*
X154541373Y-98519033D01*
X154550758Y-98515984D01*
X154779085Y-98421408D01*
X154787879Y-98416927D01*
X154993928Y-98290660D01*
X154999190Y-98282599D01*
X154993183Y-98272393D01*
X153681922Y-96961132D01*
X154404408Y-96961132D01*
X154404539Y-96962965D01*
X154408790Y-96969580D01*
X155350934Y-97911724D01*
X155364471Y-97919116D01*
X155369740Y-97915430D01*
X155496927Y-97707879D01*
X155501408Y-97699085D01*
X155595984Y-97470758D01*
X155599033Y-97461373D01*
X155656728Y-97221060D01*
X155658271Y-97211313D01*
X155677662Y-96964930D01*
X155677662Y-96955070D01*
X155658271Y-96708687D01*
X155656728Y-96698940D01*
X155599033Y-96458627D01*
X155595984Y-96449242D01*
X155501408Y-96220915D01*
X155496927Y-96212121D01*
X155370660Y-96006072D01*
X155362599Y-96000810D01*
X155352393Y-96006817D01*
X154412022Y-96947188D01*
X154404408Y-96961132D01*
X153681922Y-96961132D01*
X152729066Y-96008276D01*
X152715529Y-96000884D01*
X152710260Y-96004570D01*
X152683933Y-96047532D01*
X152631285Y-96095163D01*
X152561244Y-96106770D01*
X152496046Y-96078667D01*
X152456392Y-96019776D01*
X152450500Y-95981697D01*
X152450500Y-95637401D01*
X153080810Y-95637401D01*
X153086817Y-95647607D01*
X154027188Y-96587978D01*
X154041132Y-96595592D01*
X154042965Y-96595461D01*
X154049580Y-96591210D01*
X154991724Y-95649066D01*
X154999116Y-95635529D01*
X154995430Y-95630260D01*
X154787879Y-95503073D01*
X154779085Y-95498592D01*
X154550758Y-95404016D01*
X154541373Y-95400967D01*
X154301060Y-95343272D01*
X154291313Y-95341729D01*
X154044930Y-95322338D01*
X154035070Y-95322338D01*
X153788687Y-95341729D01*
X153778940Y-95343272D01*
X153538627Y-95400967D01*
X153529242Y-95404016D01*
X153300915Y-95498592D01*
X153292121Y-95503073D01*
X153086072Y-95629340D01*
X153080810Y-95637401D01*
X152450500Y-95637401D01*
X152450500Y-94315452D01*
X152450549Y-94311934D01*
X152452659Y-94236410D01*
X152452659Y-94236407D01*
X152452837Y-94230028D01*
X152442924Y-94173807D01*
X152441655Y-94164662D01*
X152436533Y-94114236D01*
X152436532Y-94114232D01*
X152435888Y-94107890D01*
X152427832Y-94082184D01*
X152425781Y-94073769D01*
X153468601Y-94073769D01*
X153468971Y-94080590D01*
X153474495Y-94131452D01*
X153478121Y-94146704D01*
X153523276Y-94267154D01*
X153531814Y-94282749D01*
X153608315Y-94384824D01*
X153620876Y-94397385D01*
X153722951Y-94473886D01*
X153738546Y-94482424D01*
X153858994Y-94527578D01*
X153874249Y-94531205D01*
X153925114Y-94536731D01*
X153931928Y-94537100D01*
X155404485Y-94537100D01*
X155419724Y-94532625D01*
X155420929Y-94531235D01*
X155422600Y-94523552D01*
X155422600Y-94518984D01*
X155930600Y-94518984D01*
X155935075Y-94534223D01*
X155936465Y-94535428D01*
X155944148Y-94537099D01*
X157421269Y-94537099D01*
X157428090Y-94536729D01*
X157478952Y-94531205D01*
X157494204Y-94527579D01*
X157614654Y-94482424D01*
X157630249Y-94473886D01*
X157732324Y-94397385D01*
X157744885Y-94384824D01*
X157821386Y-94282749D01*
X157829924Y-94267154D01*
X157875078Y-94146706D01*
X157878705Y-94131451D01*
X157884231Y-94080586D01*
X157884600Y-94073772D01*
X157884600Y-93401215D01*
X157880125Y-93385976D01*
X157878735Y-93384771D01*
X157871052Y-93383100D01*
X155948715Y-93383100D01*
X155933476Y-93387575D01*
X155932271Y-93388965D01*
X155930600Y-93396648D01*
X155930600Y-94518984D01*
X155422600Y-94518984D01*
X155422600Y-93401215D01*
X155418125Y-93385976D01*
X155416735Y-93384771D01*
X155409052Y-93383100D01*
X153486716Y-93383100D01*
X153471477Y-93387575D01*
X153470272Y-93388965D01*
X153468601Y-93396648D01*
X153468601Y-94073769D01*
X152425781Y-94073769D01*
X152423982Y-94066389D01*
X152420413Y-94046147D01*
X152419305Y-94039863D01*
X152398294Y-93986794D01*
X152395212Y-93978091D01*
X152380053Y-93929720D01*
X152378144Y-93923627D01*
X152366297Y-93902254D01*
X152350500Y-93841169D01*
X152350499Y-92856985D01*
X153468600Y-92856985D01*
X153473075Y-92872224D01*
X153474465Y-92873429D01*
X153482148Y-92875100D01*
X155404485Y-92875100D01*
X155419724Y-92870625D01*
X155420929Y-92869235D01*
X155422600Y-92861552D01*
X155422600Y-92856985D01*
X155930600Y-92856985D01*
X155935075Y-92872224D01*
X155936465Y-92873429D01*
X155944148Y-92875100D01*
X157866484Y-92875100D01*
X157881723Y-92870625D01*
X157882928Y-92869235D01*
X157884599Y-92861552D01*
X157884599Y-92184431D01*
X157884229Y-92177610D01*
X157878705Y-92126748D01*
X157875079Y-92111496D01*
X157829924Y-91991046D01*
X157821386Y-91975451D01*
X157744885Y-91873376D01*
X157732324Y-91860815D01*
X157630249Y-91784314D01*
X157614654Y-91775776D01*
X157494206Y-91730622D01*
X157478951Y-91726995D01*
X157428086Y-91721469D01*
X157421272Y-91721100D01*
X155948715Y-91721100D01*
X155933476Y-91725575D01*
X155932271Y-91726965D01*
X155930600Y-91734648D01*
X155930600Y-92856985D01*
X155422600Y-92856985D01*
X155422600Y-91739216D01*
X155418125Y-91723977D01*
X155416735Y-91722772D01*
X155409052Y-91721101D01*
X153931931Y-91721101D01*
X153925110Y-91721471D01*
X153874248Y-91726995D01*
X153858996Y-91730621D01*
X153738546Y-91775776D01*
X153722951Y-91784314D01*
X153620876Y-91860815D01*
X153608315Y-91873376D01*
X153531814Y-91975451D01*
X153523276Y-91991046D01*
X153478122Y-92111494D01*
X153474495Y-92126749D01*
X153468969Y-92177614D01*
X153468600Y-92184428D01*
X153468600Y-92856985D01*
X152350499Y-92856985D01*
X152350499Y-92146891D01*
X152350499Y-92144008D01*
X152350234Y-92141116D01*
X152344440Y-92078060D01*
X152343829Y-92071406D01*
X152293127Y-91909617D01*
X152205297Y-91764592D01*
X152085408Y-91644703D01*
X151940383Y-91556873D01*
X151933136Y-91554602D01*
X151933134Y-91554601D01*
X151867894Y-91534156D01*
X151778594Y-91506171D01*
X151705993Y-91499500D01*
X151703095Y-91499500D01*
X149945444Y-91499501D01*
X148194008Y-91499501D01*
X148191150Y-91499764D01*
X148191141Y-91499764D01*
X148155757Y-91503015D01*
X148121406Y-91506171D01*
X148115028Y-91508170D01*
X148115027Y-91508170D01*
X147966866Y-91554601D01*
X147966864Y-91554602D01*
X147959617Y-91556873D01*
X147814592Y-91644703D01*
X147694703Y-91764592D01*
X147606873Y-91909617D01*
X147556171Y-92071406D01*
X147549500Y-92144007D01*
X146500000Y-92144007D01*
X146500000Y-90826000D01*
X146520002Y-90757879D01*
X146573658Y-90711386D01*
X146626000Y-90700000D01*
X158174000Y-90700000D01*
X158242121Y-90720002D01*
G37*
G04 #@! TD.AperFunction*
G04 #@! TA.AperFunction,Conductor*
G36*
X155765931Y-108020002D02*
G01*
X155786905Y-108036905D01*
X155963095Y-108213095D01*
X155997121Y-108275407D01*
X156000000Y-108302190D01*
X156000000Y-116697810D01*
X155979998Y-116765931D01*
X155963095Y-116786905D01*
X155786905Y-116963095D01*
X155724593Y-116997121D01*
X155697810Y-117000000D01*
X147302190Y-117000000D01*
X147234069Y-116979998D01*
X147213095Y-116963095D01*
X147036905Y-116786905D01*
X147002879Y-116724593D01*
X147000000Y-116697810D01*
X147000000Y-116364471D01*
X148000884Y-116364471D01*
X148004570Y-116369740D01*
X148212121Y-116496927D01*
X148220915Y-116501408D01*
X148449242Y-116595984D01*
X148458627Y-116599033D01*
X148698940Y-116656728D01*
X148708687Y-116658271D01*
X148955070Y-116677662D01*
X148964930Y-116677662D01*
X149211313Y-116658271D01*
X149221060Y-116656728D01*
X149461373Y-116599033D01*
X149470758Y-116595984D01*
X149699085Y-116501408D01*
X149707879Y-116496927D01*
X149913928Y-116370660D01*
X149917968Y-116364471D01*
X153080884Y-116364471D01*
X153084570Y-116369740D01*
X153292121Y-116496927D01*
X153300915Y-116501408D01*
X153529242Y-116595984D01*
X153538627Y-116599033D01*
X153778940Y-116656728D01*
X153788687Y-116658271D01*
X154035070Y-116677662D01*
X154044930Y-116677662D01*
X154291313Y-116658271D01*
X154301060Y-116656728D01*
X154541373Y-116599033D01*
X154550758Y-116595984D01*
X154779085Y-116501408D01*
X154787879Y-116496927D01*
X154993928Y-116370660D01*
X154999190Y-116362599D01*
X154993183Y-116352393D01*
X154052812Y-115412022D01*
X154038868Y-115404408D01*
X154037035Y-115404539D01*
X154030420Y-115408790D01*
X153088276Y-116350934D01*
X153080884Y-116364471D01*
X149917968Y-116364471D01*
X149919190Y-116362599D01*
X149913183Y-116352393D01*
X148972812Y-115412022D01*
X148958868Y-115404408D01*
X148957035Y-115404539D01*
X148950420Y-115408790D01*
X148008276Y-116350934D01*
X148000884Y-116364471D01*
X147000000Y-116364471D01*
X147000000Y-114474871D01*
X147020002Y-114406750D01*
X147036905Y-114385776D01*
X147339868Y-114082813D01*
X147402180Y-114048787D01*
X147472995Y-114053852D01*
X147529831Y-114096399D01*
X147554642Y-114162919D01*
X147536396Y-114237743D01*
X147503073Y-114292121D01*
X147498592Y-114300915D01*
X147404016Y-114529242D01*
X147400967Y-114538627D01*
X147343272Y-114778940D01*
X147341729Y-114788687D01*
X147322338Y-115035070D01*
X147322338Y-115044930D01*
X147341729Y-115291313D01*
X147343272Y-115301060D01*
X147400967Y-115541373D01*
X147404016Y-115550758D01*
X147498592Y-115779085D01*
X147503073Y-115787879D01*
X147629340Y-115993928D01*
X147637401Y-115999190D01*
X147647607Y-115993183D01*
X148599658Y-115041132D01*
X149324408Y-115041132D01*
X149324539Y-115042965D01*
X149328790Y-115049580D01*
X150270934Y-115991724D01*
X150284471Y-115999116D01*
X150289740Y-115995430D01*
X150416927Y-115787879D01*
X150421408Y-115779085D01*
X150515984Y-115550758D01*
X150519033Y-115541373D01*
X150576728Y-115301060D01*
X150578271Y-115291313D01*
X150597662Y-115044930D01*
X152402338Y-115044930D01*
X152421729Y-115291313D01*
X152423272Y-115301060D01*
X152480967Y-115541373D01*
X152484016Y-115550758D01*
X152578592Y-115779085D01*
X152583073Y-115787879D01*
X152709340Y-115993928D01*
X152717401Y-115999190D01*
X152727607Y-115993183D01*
X153667978Y-115052812D01*
X153674356Y-115041132D01*
X154404408Y-115041132D01*
X154404539Y-115042965D01*
X154408790Y-115049580D01*
X155350934Y-115991724D01*
X155364471Y-115999116D01*
X155369740Y-115995430D01*
X155496927Y-115787879D01*
X155501408Y-115779085D01*
X155595984Y-115550758D01*
X155599033Y-115541373D01*
X155656728Y-115301060D01*
X155658271Y-115291313D01*
X155677662Y-115044930D01*
X155677662Y-115035070D01*
X155658271Y-114788687D01*
X155656728Y-114778940D01*
X155599033Y-114538627D01*
X155595984Y-114529242D01*
X155501408Y-114300915D01*
X155496927Y-114292121D01*
X155370660Y-114086072D01*
X155362599Y-114080810D01*
X155352393Y-114086817D01*
X154412022Y-115027188D01*
X154404408Y-115041132D01*
X153674356Y-115041132D01*
X153675592Y-115038868D01*
X153675461Y-115037035D01*
X153671210Y-115030420D01*
X152729066Y-114088276D01*
X152715529Y-114080884D01*
X152710260Y-114084570D01*
X152583073Y-114292121D01*
X152578592Y-114300915D01*
X152484016Y-114529242D01*
X152480967Y-114538627D01*
X152423272Y-114778940D01*
X152421729Y-114788687D01*
X152402338Y-115035070D01*
X152402338Y-115044930D01*
X150597662Y-115044930D01*
X150597662Y-115035070D01*
X150578271Y-114788687D01*
X150576728Y-114778940D01*
X150519033Y-114538627D01*
X150515984Y-114529242D01*
X150421408Y-114300915D01*
X150416927Y-114292121D01*
X150290660Y-114086072D01*
X150282599Y-114080810D01*
X150272393Y-114086817D01*
X149332022Y-115027188D01*
X149324408Y-115041132D01*
X148599658Y-115041132D01*
X149911724Y-113729066D01*
X149919116Y-113715529D01*
X149915430Y-113710260D01*
X149707879Y-113583073D01*
X149699085Y-113578592D01*
X149511541Y-113500909D01*
X149456260Y-113456361D01*
X149433839Y-113388997D01*
X149451397Y-113320206D01*
X149503359Y-113271828D01*
X149559759Y-113258500D01*
X150095714Y-113258500D01*
X150163835Y-113278502D01*
X150203147Y-113318665D01*
X150255536Y-113404156D01*
X150412299Y-113587701D01*
X150595844Y-113744464D01*
X150801653Y-113870584D01*
X150806223Y-113872477D01*
X150806227Y-113872479D01*
X151020084Y-113961061D01*
X151024657Y-113962955D01*
X151107039Y-113982733D01*
X151254553Y-114018149D01*
X151254559Y-114018150D01*
X151259366Y-114019304D01*
X151500000Y-114038242D01*
X151740634Y-114019304D01*
X151745441Y-114018150D01*
X151745447Y-114018149D01*
X151892961Y-113982733D01*
X151975343Y-113962955D01*
X151979916Y-113961061D01*
X152193773Y-113872479D01*
X152193777Y-113872477D01*
X152198347Y-113870584D01*
X152404156Y-113744464D01*
X152435843Y-113717401D01*
X153080810Y-113717401D01*
X153086817Y-113727607D01*
X154027188Y-114667978D01*
X154041132Y-114675592D01*
X154042965Y-114675461D01*
X154049580Y-114671210D01*
X154991724Y-113729066D01*
X154999116Y-113715529D01*
X154995430Y-113710260D01*
X154787879Y-113583073D01*
X154779085Y-113578592D01*
X154550758Y-113484016D01*
X154541373Y-113480967D01*
X154301060Y-113423272D01*
X154291313Y-113421729D01*
X154044930Y-113402338D01*
X154035070Y-113402338D01*
X153788687Y-113421729D01*
X153778940Y-113423272D01*
X153538627Y-113480967D01*
X153529242Y-113484016D01*
X153300915Y-113578592D01*
X153292121Y-113583073D01*
X153086072Y-113709340D01*
X153080810Y-113717401D01*
X152435843Y-113717401D01*
X152587701Y-113587701D01*
X152744464Y-113404156D01*
X152870584Y-113198347D01*
X152962955Y-112975343D01*
X152982733Y-112892961D01*
X153018149Y-112745447D01*
X153018150Y-112745441D01*
X153019304Y-112740634D01*
X153038242Y-112500000D01*
X153019304Y-112259366D01*
X153018150Y-112254559D01*
X153018149Y-112254553D01*
X152964110Y-112029469D01*
X152962955Y-112024657D01*
X152945335Y-111982118D01*
X152872479Y-111806227D01*
X152872477Y-111806223D01*
X152870584Y-111801653D01*
X152744464Y-111595844D01*
X152587701Y-111412299D01*
X152438034Y-111284471D01*
X153080884Y-111284471D01*
X153084570Y-111289740D01*
X153292121Y-111416927D01*
X153300915Y-111421408D01*
X153529242Y-111515984D01*
X153538627Y-111519033D01*
X153778940Y-111576728D01*
X153788687Y-111578271D01*
X154035070Y-111597662D01*
X154044930Y-111597662D01*
X154291313Y-111578271D01*
X154301060Y-111576728D01*
X154541373Y-111519033D01*
X154550758Y-111515984D01*
X154779085Y-111421408D01*
X154787879Y-111416927D01*
X154993928Y-111290660D01*
X154999190Y-111282599D01*
X154993183Y-111272393D01*
X154052812Y-110332022D01*
X154038868Y-110324408D01*
X154037035Y-110324539D01*
X154030420Y-110328790D01*
X153088276Y-111270934D01*
X153080884Y-111284471D01*
X152438034Y-111284471D01*
X152404156Y-111255536D01*
X152198347Y-111129416D01*
X152193777Y-111127523D01*
X152193773Y-111127521D01*
X151979916Y-111038939D01*
X151979914Y-111038938D01*
X151975343Y-111037045D01*
X151892961Y-111017267D01*
X151745447Y-110981851D01*
X151745441Y-110981850D01*
X151740634Y-110980696D01*
X151500000Y-110961758D01*
X151259366Y-110980696D01*
X151254559Y-110981850D01*
X151254553Y-110981851D01*
X151107039Y-111017267D01*
X151024657Y-111037045D01*
X151020086Y-111038938D01*
X151020084Y-111038939D01*
X150806227Y-111127521D01*
X150806223Y-111127523D01*
X150801653Y-111129416D01*
X150595844Y-111255536D01*
X150412299Y-111412299D01*
X150255536Y-111595844D01*
X150252954Y-111600058D01*
X150203147Y-111681335D01*
X150150499Y-111728966D01*
X150095714Y-111741500D01*
X149559759Y-111741500D01*
X149491638Y-111721498D01*
X149445145Y-111667842D01*
X149435041Y-111597568D01*
X149464535Y-111532988D01*
X149511541Y-111499091D01*
X149699085Y-111421408D01*
X149707879Y-111416927D01*
X149913928Y-111290660D01*
X149919190Y-111282599D01*
X149913183Y-111272393D01*
X148972812Y-110332022D01*
X148958868Y-110324408D01*
X148957035Y-110324539D01*
X148950420Y-110328790D01*
X148008276Y-111270934D01*
X148000884Y-111284471D01*
X148004570Y-111289740D01*
X148212121Y-111416927D01*
X148220915Y-111421408D01*
X148408459Y-111499091D01*
X148463740Y-111543639D01*
X148486161Y-111611003D01*
X148468603Y-111679794D01*
X148416641Y-111728172D01*
X148360241Y-111741500D01*
X147917069Y-111741500D01*
X147898121Y-111740067D01*
X147890780Y-111738950D01*
X147883883Y-111737901D01*
X147883881Y-111737901D01*
X147876651Y-111736801D01*
X147869359Y-111737394D01*
X147869356Y-111737394D01*
X147823982Y-111741085D01*
X147813767Y-111741500D01*
X147805707Y-111741500D01*
X147792417Y-111743049D01*
X147777493Y-111744789D01*
X147773118Y-111745222D01*
X147707661Y-111750546D01*
X147707658Y-111750547D01*
X147700363Y-111751140D01*
X147693399Y-111753396D01*
X147687440Y-111754587D01*
X147681585Y-111755971D01*
X147674319Y-111756818D01*
X147605673Y-111781735D01*
X147601545Y-111783152D01*
X147539064Y-111803393D01*
X147539062Y-111803394D01*
X147532101Y-111805649D01*
X147525846Y-111809445D01*
X147520372Y-111811951D01*
X147514942Y-111814670D01*
X147508063Y-111817167D01*
X147501943Y-111821180D01*
X147501942Y-111821180D01*
X147447024Y-111857186D01*
X147443320Y-111859523D01*
X147380893Y-111897405D01*
X147372516Y-111904803D01*
X147372492Y-111904776D01*
X147369500Y-111907429D01*
X147366267Y-111910132D01*
X147360148Y-111914144D01*
X147355116Y-111919456D01*
X147306872Y-111970383D01*
X147304494Y-111972825D01*
X147215095Y-112062224D01*
X147152783Y-112096250D01*
X147081968Y-112091185D01*
X147025132Y-112048638D01*
X147000321Y-111982118D01*
X147000000Y-111973129D01*
X147000000Y-109964930D01*
X147322338Y-109964930D01*
X147341729Y-110211313D01*
X147343272Y-110221060D01*
X147400967Y-110461373D01*
X147404016Y-110470758D01*
X147498592Y-110699085D01*
X147503073Y-110707879D01*
X147629340Y-110913928D01*
X147637401Y-110919190D01*
X147647607Y-110913183D01*
X148587978Y-109972812D01*
X148594356Y-109961132D01*
X149324408Y-109961132D01*
X149324539Y-109962965D01*
X149328790Y-109969580D01*
X150270934Y-110911724D01*
X150284471Y-110919116D01*
X150289740Y-110915430D01*
X150416927Y-110707879D01*
X150421408Y-110699085D01*
X150515984Y-110470758D01*
X150519033Y-110461373D01*
X150576728Y-110221060D01*
X150578271Y-110211313D01*
X150597662Y-109964930D01*
X152402338Y-109964930D01*
X152421729Y-110211313D01*
X152423272Y-110221060D01*
X152480967Y-110461373D01*
X152484016Y-110470758D01*
X152578592Y-110699085D01*
X152583073Y-110707879D01*
X152709340Y-110913928D01*
X152717401Y-110919190D01*
X152727607Y-110913183D01*
X153667978Y-109972812D01*
X153674356Y-109961132D01*
X154404408Y-109961132D01*
X154404539Y-109962965D01*
X154408790Y-109969580D01*
X155350934Y-110911724D01*
X155364471Y-110919116D01*
X155369740Y-110915430D01*
X155496927Y-110707879D01*
X155501408Y-110699085D01*
X155595984Y-110470758D01*
X155599033Y-110461373D01*
X155656728Y-110221060D01*
X155658271Y-110211313D01*
X155677662Y-109964930D01*
X155677662Y-109955070D01*
X155658271Y-109708687D01*
X155656728Y-109698940D01*
X155599033Y-109458627D01*
X155595984Y-109449242D01*
X155501408Y-109220915D01*
X155496927Y-109212121D01*
X155370660Y-109006072D01*
X155362599Y-109000810D01*
X155352393Y-109006817D01*
X154412022Y-109947188D01*
X154404408Y-109961132D01*
X153674356Y-109961132D01*
X153675592Y-109958868D01*
X153675461Y-109957035D01*
X153671210Y-109950420D01*
X152729066Y-109008276D01*
X152715529Y-109000884D01*
X152710260Y-109004570D01*
X152583073Y-109212121D01*
X152578592Y-109220915D01*
X152484016Y-109449242D01*
X152480967Y-109458627D01*
X152423272Y-109698940D01*
X152421729Y-109708687D01*
X152402338Y-109955070D01*
X152402338Y-109964930D01*
X150597662Y-109964930D01*
X150597662Y-109955070D01*
X150578271Y-109708687D01*
X150576728Y-109698940D01*
X150519033Y-109458627D01*
X150515984Y-109449242D01*
X150421408Y-109220915D01*
X150416927Y-109212121D01*
X150290660Y-109006072D01*
X150282599Y-109000810D01*
X150272393Y-109006817D01*
X149332022Y-109947188D01*
X149324408Y-109961132D01*
X148594356Y-109961132D01*
X148595592Y-109958868D01*
X148595461Y-109957035D01*
X148591210Y-109950420D01*
X147649066Y-109008276D01*
X147635529Y-109000884D01*
X147630260Y-109004570D01*
X147503073Y-109212121D01*
X147498592Y-109220915D01*
X147404016Y-109449242D01*
X147400967Y-109458627D01*
X147343272Y-109698940D01*
X147341729Y-109708687D01*
X147322338Y-109955070D01*
X147322338Y-109964930D01*
X147000000Y-109964930D01*
X147000000Y-108637401D01*
X148000810Y-108637401D01*
X148006817Y-108647607D01*
X148947188Y-109587978D01*
X148961132Y-109595592D01*
X148962965Y-109595461D01*
X148969580Y-109591210D01*
X149911724Y-108649066D01*
X149918094Y-108637401D01*
X153080810Y-108637401D01*
X153086817Y-108647607D01*
X154027188Y-109587978D01*
X154041132Y-109595592D01*
X154042965Y-109595461D01*
X154049580Y-109591210D01*
X154991724Y-108649066D01*
X154999116Y-108635529D01*
X154995430Y-108630260D01*
X154787879Y-108503073D01*
X154779085Y-108498592D01*
X154550758Y-108404016D01*
X154541373Y-108400967D01*
X154301060Y-108343272D01*
X154291313Y-108341729D01*
X154044930Y-108322338D01*
X154035070Y-108322338D01*
X153788687Y-108341729D01*
X153778940Y-108343272D01*
X153538627Y-108400967D01*
X153529242Y-108404016D01*
X153300915Y-108498592D01*
X153292121Y-108503073D01*
X153086072Y-108629340D01*
X153080810Y-108637401D01*
X149918094Y-108637401D01*
X149919116Y-108635529D01*
X149915430Y-108630260D01*
X149707879Y-108503073D01*
X149699085Y-108498592D01*
X149470758Y-108404016D01*
X149461373Y-108400967D01*
X149221060Y-108343272D01*
X149211313Y-108341729D01*
X148964930Y-108322338D01*
X148955070Y-108322338D01*
X148708687Y-108341729D01*
X148698940Y-108343272D01*
X148458627Y-108400967D01*
X148449242Y-108404016D01*
X148220915Y-108498592D01*
X148212121Y-108503073D01*
X148006072Y-108629340D01*
X148000810Y-108637401D01*
X147000000Y-108637401D01*
X147000000Y-108302190D01*
X147020002Y-108234069D01*
X147036905Y-108213095D01*
X147213095Y-108036905D01*
X147275407Y-108002879D01*
X147302190Y-108000000D01*
X155697810Y-108000000D01*
X155765931Y-108020002D01*
G37*
G04 #@! TD.AperFunction*
G04 #@! TA.AperFunction,Conductor*
G36*
X130803249Y-92770502D02*
G01*
X130814763Y-92778857D01*
X130822072Y-92784818D01*
X130862220Y-92843372D01*
X130864338Y-92914337D01*
X130835043Y-92965486D01*
X130835799Y-92966083D01*
X130831806Y-92971139D01*
X130831613Y-92971476D01*
X130831263Y-92971827D01*
X130822249Y-92983240D01*
X130737184Y-93121243D01*
X130731037Y-93134424D01*
X130679862Y-93288710D01*
X130676995Y-93302086D01*
X130667328Y-93396438D01*
X130667000Y-93402855D01*
X130667000Y-93427885D01*
X130671475Y-93443124D01*
X130672865Y-93444329D01*
X130680548Y-93446000D01*
X133114884Y-93446000D01*
X133130123Y-93441525D01*
X133131328Y-93440135D01*
X133132999Y-93432452D01*
X133132999Y-93402905D01*
X133132662Y-93396386D01*
X133122743Y-93300794D01*
X133119851Y-93287400D01*
X133068412Y-93133216D01*
X133062238Y-93120038D01*
X132983503Y-92992803D01*
X132964665Y-92924351D01*
X132985826Y-92856581D01*
X133040267Y-92811010D01*
X133090647Y-92800500D01*
X133515607Y-92800500D01*
X133583728Y-92820502D01*
X133630221Y-92874158D01*
X133640325Y-92944432D01*
X133623383Y-92991771D01*
X133609867Y-93014089D01*
X133536873Y-93134617D01*
X133534602Y-93141864D01*
X133534601Y-93141866D01*
X133525148Y-93172032D01*
X133486171Y-93296406D01*
X133479500Y-93369007D01*
X133479501Y-94130992D01*
X133479764Y-94133850D01*
X133479764Y-94133859D01*
X133482284Y-94161290D01*
X133486171Y-94203594D01*
X133536873Y-94365383D01*
X133624703Y-94510408D01*
X133744592Y-94630297D01*
X133889617Y-94718127D01*
X133896864Y-94720398D01*
X133896866Y-94720399D01*
X133945804Y-94735735D01*
X134051406Y-94768829D01*
X134124007Y-94775500D01*
X134126905Y-94775500D01*
X134791728Y-94775499D01*
X135455992Y-94775499D01*
X135458850Y-94775236D01*
X135458859Y-94775236D01*
X135494243Y-94771985D01*
X135528594Y-94768829D01*
X135563149Y-94758000D01*
X135683134Y-94720399D01*
X135683136Y-94720398D01*
X135690383Y-94718127D01*
X135835408Y-94630297D01*
X135895983Y-94569722D01*
X135941981Y-94540417D01*
X135971413Y-94529704D01*
X135974322Y-94528685D01*
X136007121Y-94517647D01*
X136048300Y-94503789D01*
X136054153Y-94500272D01*
X136056340Y-94499262D01*
X136056860Y-94499048D01*
X136057549Y-94498719D01*
X136058052Y-94498445D01*
X136060200Y-94497388D01*
X136066612Y-94495054D01*
X136081972Y-94485306D01*
X136150204Y-94465695D01*
X136218210Y-94486086D01*
X136244615Y-94510262D01*
X136244703Y-94510408D01*
X136364592Y-94630297D01*
X136509617Y-94718127D01*
X136516864Y-94720398D01*
X136516866Y-94720399D01*
X136565804Y-94735735D01*
X136671406Y-94768829D01*
X136744007Y-94775500D01*
X136746905Y-94775500D01*
X137411728Y-94775499D01*
X138075992Y-94775499D01*
X138078850Y-94775236D01*
X138078859Y-94775236D01*
X138114243Y-94771985D01*
X138148594Y-94768829D01*
X138183149Y-94758000D01*
X138303134Y-94720399D01*
X138303136Y-94720398D01*
X138310383Y-94718127D01*
X138455408Y-94630297D01*
X138575297Y-94510408D01*
X138579234Y-94503906D01*
X138583920Y-94497931D01*
X138584707Y-94498548D01*
X138619935Y-94462824D01*
X138626168Y-94458929D01*
X138639682Y-94451592D01*
X138669707Y-94437591D01*
X138672028Y-94435791D01*
X138739025Y-94417794D01*
X138793308Y-94431493D01*
X138860627Y-94465794D01*
X138860631Y-94465795D01*
X138866504Y-94468788D01*
X138872869Y-94470494D01*
X138872873Y-94470495D01*
X138928153Y-94485307D01*
X139054422Y-94519141D01*
X139060172Y-94519594D01*
X139060175Y-94519594D01*
X139132765Y-94525307D01*
X139132774Y-94525307D01*
X139135222Y-94525500D01*
X139764778Y-94525500D01*
X139767226Y-94525307D01*
X139767235Y-94525307D01*
X139839825Y-94519594D01*
X139839828Y-94519594D01*
X139845578Y-94519141D01*
X139971847Y-94485307D01*
X140027127Y-94470495D01*
X140027131Y-94470494D01*
X140033496Y-94468788D01*
X140039369Y-94465795D01*
X140039373Y-94465794D01*
X140200959Y-94383462D01*
X140200962Y-94383460D01*
X140206840Y-94380465D01*
X140338800Y-94273606D01*
X140404325Y-94246281D01*
X140474223Y-94258721D01*
X140526300Y-94306975D01*
X140532193Y-94318077D01*
X140537758Y-94329957D01*
X140623063Y-94467807D01*
X140632099Y-94479208D01*
X140746829Y-94593739D01*
X140758240Y-94602751D01*
X140896243Y-94687816D01*
X140909424Y-94693963D01*
X141063710Y-94745138D01*
X141077086Y-94748005D01*
X141171438Y-94757672D01*
X141177854Y-94758000D01*
X141427885Y-94758000D01*
X141443124Y-94753525D01*
X141444329Y-94752135D01*
X141446000Y-94744452D01*
X141446000Y-94739884D01*
X141954000Y-94739884D01*
X141958475Y-94755123D01*
X141959865Y-94756328D01*
X141967548Y-94757999D01*
X142222095Y-94757999D01*
X142228614Y-94757662D01*
X142324206Y-94747743D01*
X142337600Y-94744851D01*
X142491784Y-94693412D01*
X142504962Y-94687239D01*
X142642807Y-94601937D01*
X142654208Y-94592901D01*
X142768739Y-94478171D01*
X142777751Y-94466760D01*
X142862816Y-94328757D01*
X142868963Y-94315576D01*
X142920138Y-94161290D01*
X142923005Y-94147914D01*
X142932672Y-94053562D01*
X142933000Y-94047146D01*
X142933000Y-94022115D01*
X142928525Y-94006876D01*
X142927135Y-94005671D01*
X142919452Y-94004000D01*
X141972115Y-94004000D01*
X141956876Y-94008475D01*
X141955671Y-94009865D01*
X141954000Y-94017548D01*
X141954000Y-94739884D01*
X141446000Y-94739884D01*
X141446000Y-93622000D01*
X141466002Y-93553879D01*
X141519658Y-93507386D01*
X141572000Y-93496000D01*
X142914884Y-93496000D01*
X142930123Y-93491525D01*
X142931328Y-93490135D01*
X142932999Y-93482452D01*
X142932999Y-93452905D01*
X142932662Y-93446386D01*
X142922743Y-93350794D01*
X142919851Y-93337400D01*
X142868412Y-93183216D01*
X142862239Y-93170038D01*
X142776937Y-93032193D01*
X142763354Y-93015055D01*
X142764573Y-93014089D01*
X142734574Y-92959252D01*
X142739583Y-92888432D01*
X142778039Y-92834727D01*
X142821592Y-92799207D01*
X142887024Y-92771654D01*
X142956965Y-92783850D01*
X142990321Y-92807755D01*
X143365783Y-93183216D01*
X143563095Y-93380528D01*
X143597120Y-93442841D01*
X143600000Y-93469624D01*
X143600000Y-96197810D01*
X143579998Y-96265931D01*
X143563095Y-96286905D01*
X143386905Y-96463095D01*
X143324593Y-96497121D01*
X143297810Y-96500000D01*
X134850431Y-96500000D01*
X134778161Y-96477213D01*
X134745544Y-96454375D01*
X134697830Y-96420965D01*
X134692852Y-96418644D01*
X134692849Y-96418642D01*
X134488645Y-96323420D01*
X134488644Y-96323419D01*
X134483663Y-96321097D01*
X134478355Y-96319675D01*
X134478353Y-96319674D01*
X134260723Y-96261361D01*
X134260722Y-96261361D01*
X134255408Y-96259937D01*
X134020000Y-96239341D01*
X133784592Y-96259937D01*
X133779278Y-96261361D01*
X133779277Y-96261361D01*
X133561647Y-96319674D01*
X133561645Y-96319675D01*
X133556337Y-96321097D01*
X133551357Y-96323419D01*
X133551355Y-96323420D01*
X133347152Y-96418642D01*
X133347149Y-96418644D01*
X133342171Y-96420965D01*
X133282003Y-96463095D01*
X133261840Y-96477213D01*
X133189570Y-96500000D01*
X132945431Y-96500000D01*
X132873161Y-96477213D01*
X132840544Y-96454375D01*
X132792830Y-96420965D01*
X132787852Y-96418644D01*
X132787849Y-96418642D01*
X132583645Y-96323420D01*
X132583644Y-96323419D01*
X132578663Y-96321097D01*
X132573355Y-96319675D01*
X132573353Y-96319674D01*
X132355723Y-96261361D01*
X132355722Y-96261361D01*
X132350408Y-96259937D01*
X132115000Y-96239341D01*
X131879592Y-96259937D01*
X131874278Y-96261361D01*
X131874277Y-96261361D01*
X131656647Y-96319674D01*
X131656645Y-96319675D01*
X131651337Y-96321097D01*
X131646357Y-96323419D01*
X131646355Y-96323420D01*
X131442152Y-96418642D01*
X131442149Y-96418644D01*
X131437171Y-96420965D01*
X131377003Y-96463095D01*
X131356840Y-96477213D01*
X131284570Y-96500000D01*
X131040431Y-96500000D01*
X130968161Y-96477213D01*
X130935544Y-96454375D01*
X130887830Y-96420965D01*
X130882852Y-96418644D01*
X130882849Y-96418642D01*
X130678645Y-96323420D01*
X130678644Y-96323419D01*
X130673663Y-96321097D01*
X130668355Y-96319675D01*
X130668353Y-96319674D01*
X130450723Y-96261361D01*
X130450722Y-96261361D01*
X130445408Y-96259937D01*
X130210000Y-96239341D01*
X129974592Y-96259937D01*
X129969278Y-96261361D01*
X129969277Y-96261361D01*
X129751647Y-96319674D01*
X129751645Y-96319675D01*
X129746337Y-96321097D01*
X129741357Y-96323419D01*
X129741355Y-96323420D01*
X129537152Y-96418642D01*
X129537149Y-96418644D01*
X129532171Y-96420965D01*
X129472003Y-96463095D01*
X129451840Y-96477213D01*
X129379570Y-96500000D01*
X129135431Y-96500000D01*
X129063161Y-96477213D01*
X129030544Y-96454375D01*
X128982830Y-96420965D01*
X128977852Y-96418644D01*
X128977849Y-96418642D01*
X128898534Y-96381657D01*
X128845249Y-96334740D01*
X128825788Y-96266462D01*
X128844524Y-96201347D01*
X128865002Y-96168125D01*
X128871151Y-96154939D01*
X128920491Y-96006186D01*
X128923358Y-95992810D01*
X128932672Y-95901903D01*
X128933000Y-95895487D01*
X128933000Y-95872115D01*
X128928525Y-95856876D01*
X128927135Y-95855671D01*
X128919452Y-95854000D01*
X127847000Y-95854000D01*
X127778879Y-95833998D01*
X127732386Y-95780342D01*
X127721000Y-95728000D01*
X127721000Y-95327885D01*
X128229000Y-95327885D01*
X128233475Y-95343124D01*
X128234865Y-95344329D01*
X128242548Y-95346000D01*
X128914885Y-95346000D01*
X128930124Y-95341525D01*
X128931329Y-95340135D01*
X128933000Y-95332452D01*
X128933000Y-95304562D01*
X128932663Y-95298047D01*
X128923106Y-95205943D01*
X128920212Y-95192544D01*
X128870619Y-95043893D01*
X128864445Y-95030714D01*
X128782212Y-94897827D01*
X128773176Y-94886426D01*
X128662571Y-94776014D01*
X128651160Y-94767002D01*
X128518120Y-94684996D01*
X128504939Y-94678849D01*
X128356186Y-94629509D01*
X128342810Y-94626642D01*
X128251903Y-94617328D01*
X128246874Y-94617071D01*
X128231876Y-94621475D01*
X128230671Y-94622865D01*
X128229000Y-94630548D01*
X128229000Y-95327885D01*
X127721000Y-95327885D01*
X127721000Y-94635115D01*
X127716525Y-94619876D01*
X127690830Y-94597611D01*
X127691796Y-94596497D01*
X127681499Y-94590872D01*
X127647484Y-94528554D01*
X127652561Y-94457739D01*
X127681514Y-94412696D01*
X128097115Y-93997095D01*
X130667001Y-93997095D01*
X130667338Y-94003614D01*
X130677257Y-94099206D01*
X130680149Y-94112600D01*
X130731588Y-94266784D01*
X130737761Y-94279962D01*
X130823063Y-94417807D01*
X130832099Y-94429208D01*
X130946829Y-94543739D01*
X130958240Y-94552751D01*
X131096243Y-94637816D01*
X131109424Y-94643963D01*
X131263710Y-94695138D01*
X131277086Y-94698005D01*
X131371438Y-94707672D01*
X131377854Y-94708000D01*
X131627885Y-94708000D01*
X131643124Y-94703525D01*
X131644329Y-94702135D01*
X131646000Y-94694452D01*
X131646000Y-94689884D01*
X132154000Y-94689884D01*
X132158475Y-94705123D01*
X132159865Y-94706328D01*
X132167548Y-94707999D01*
X132422095Y-94707999D01*
X132428614Y-94707662D01*
X132524206Y-94697743D01*
X132537600Y-94694851D01*
X132691784Y-94643412D01*
X132704962Y-94637239D01*
X132842807Y-94551937D01*
X132854208Y-94542901D01*
X132968739Y-94428171D01*
X132977751Y-94416760D01*
X133062816Y-94278757D01*
X133068963Y-94265576D01*
X133120138Y-94111290D01*
X133123005Y-94097914D01*
X133132672Y-94003562D01*
X133133000Y-93997146D01*
X133133000Y-93972115D01*
X133128525Y-93956876D01*
X133127135Y-93955671D01*
X133119452Y-93954000D01*
X132172115Y-93954000D01*
X132156876Y-93958475D01*
X132155671Y-93959865D01*
X132154000Y-93967548D01*
X132154000Y-94689884D01*
X131646000Y-94689884D01*
X131646000Y-93972115D01*
X131641525Y-93956876D01*
X131640135Y-93955671D01*
X131632452Y-93954000D01*
X130685116Y-93954000D01*
X130669877Y-93958475D01*
X130668672Y-93959865D01*
X130667001Y-93967548D01*
X130667001Y-93997095D01*
X128097115Y-93997095D01*
X129306805Y-92787405D01*
X129369117Y-92753379D01*
X129395900Y-92750500D01*
X130735128Y-92750500D01*
X130803249Y-92770502D01*
G37*
G04 #@! TD.AperFunction*
G04 #@! TA.AperFunction,Conductor*
G36*
X137767538Y-98018907D02*
G01*
X137778919Y-98028568D01*
X138227176Y-98471392D01*
X138255285Y-98525737D01*
X138256593Y-98540610D01*
X138264329Y-99174978D01*
X138300000Y-102100000D01*
X138749999Y-102100000D01*
X138750099Y-102100099D01*
X139171004Y-102521004D01*
X139198781Y-102575521D01*
X139200000Y-102591008D01*
X139200000Y-104458992D01*
X139181093Y-104517183D01*
X139171004Y-104528996D01*
X138728996Y-104971004D01*
X138674479Y-104998781D01*
X138658992Y-105000000D01*
X138077109Y-105000000D01*
X138018918Y-104981093D01*
X137982954Y-104931593D01*
X137982954Y-104870407D01*
X138018918Y-104820907D01*
X138034021Y-104811868D01*
X138078308Y-104790459D01*
X138087616Y-104784597D01*
X138220625Y-104678417D01*
X138228417Y-104670625D01*
X138334597Y-104537616D01*
X138340459Y-104528308D01*
X138414541Y-104375062D01*
X138418191Y-104364698D01*
X138456782Y-104197537D01*
X138457936Y-104189481D01*
X138458000Y-104187249D01*
X138458000Y-104069680D01*
X138453878Y-104056995D01*
X138449757Y-104054000D01*
X132757681Y-104054000D01*
X132744996Y-104058122D01*
X132742001Y-104062243D01*
X132742001Y-104187257D01*
X132742065Y-104189471D01*
X132743220Y-104197545D01*
X132781809Y-104364698D01*
X132785459Y-104375062D01*
X132859541Y-104528308D01*
X132865403Y-104537616D01*
X132971583Y-104670625D01*
X132979375Y-104678417D01*
X133112384Y-104784597D01*
X133121692Y-104790459D01*
X133165979Y-104811868D01*
X133210140Y-104854217D01*
X133220975Y-104914436D01*
X133194345Y-104969522D01*
X133140423Y-104998435D01*
X133122891Y-105000000D01*
X132218172Y-105000000D01*
X132159981Y-104981093D01*
X132124017Y-104931593D01*
X132124017Y-104870407D01*
X132126098Y-104865028D01*
X132174687Y-104709979D01*
X132176737Y-104699743D01*
X132182062Y-104641794D01*
X132178878Y-104631995D01*
X132174757Y-104629000D01*
X130232681Y-104629000D01*
X130219996Y-104633122D01*
X130217462Y-104636609D01*
X130223263Y-104699744D01*
X130225312Y-104709978D01*
X130248704Y-104784621D01*
X130248063Y-104845803D01*
X130211583Y-104894924D01*
X130153197Y-104913221D01*
X130095208Y-104893705D01*
X130084230Y-104884230D01*
X129728996Y-104528996D01*
X129701219Y-104474479D01*
X129700000Y-104458992D01*
X129700000Y-104108206D01*
X130217938Y-104108206D01*
X130221122Y-104118005D01*
X130225243Y-104121000D01*
X130930320Y-104121000D01*
X130943005Y-104116878D01*
X130946000Y-104112757D01*
X130946000Y-104105320D01*
X131454000Y-104105320D01*
X131458122Y-104118005D01*
X131462243Y-104121000D01*
X132167319Y-104121000D01*
X132180004Y-104116878D01*
X132182538Y-104113391D01*
X132176737Y-104050256D01*
X132174688Y-104040022D01*
X132126798Y-103887203D01*
X132121921Y-103876403D01*
X132039333Y-103740035D01*
X132032024Y-103730712D01*
X131919288Y-103617976D01*
X131909965Y-103610667D01*
X131777297Y-103530320D01*
X132742000Y-103530320D01*
X132746122Y-103543005D01*
X132750243Y-103546000D01*
X135330320Y-103546000D01*
X135343005Y-103541878D01*
X135346000Y-103537757D01*
X135346000Y-103530320D01*
X135854000Y-103530320D01*
X135858122Y-103543005D01*
X135862243Y-103546000D01*
X138442319Y-103546000D01*
X138455004Y-103541878D01*
X138457999Y-103537757D01*
X138457999Y-103412743D01*
X138457935Y-103410529D01*
X138456780Y-103402455D01*
X138418191Y-103235302D01*
X138414541Y-103224938D01*
X138340459Y-103071692D01*
X138334597Y-103062384D01*
X138228417Y-102929375D01*
X138220625Y-102921583D01*
X138087616Y-102815403D01*
X138078308Y-102809541D01*
X137925062Y-102735459D01*
X137914698Y-102731809D01*
X137747537Y-102693218D01*
X137739481Y-102692064D01*
X137737249Y-102692000D01*
X135869680Y-102692000D01*
X135856995Y-102696122D01*
X135854000Y-102700243D01*
X135854000Y-103530320D01*
X135346000Y-103530320D01*
X135346000Y-102707681D01*
X135341878Y-102694996D01*
X135337757Y-102692001D01*
X133462743Y-102692001D01*
X133460529Y-102692065D01*
X133452455Y-102693220D01*
X133285302Y-102731809D01*
X133274938Y-102735459D01*
X133121692Y-102809541D01*
X133112384Y-102815403D01*
X132979375Y-102921583D01*
X132971583Y-102929375D01*
X132865403Y-103062384D01*
X132859541Y-103071692D01*
X132785459Y-103224938D01*
X132781809Y-103235302D01*
X132743218Y-103402463D01*
X132742064Y-103410519D01*
X132742000Y-103412751D01*
X132742000Y-103530320D01*
X131777297Y-103530320D01*
X131773597Y-103528079D01*
X131762797Y-103523202D01*
X131609979Y-103475313D01*
X131599743Y-103473263D01*
X131533837Y-103467207D01*
X131529328Y-103467000D01*
X131469680Y-103467000D01*
X131456995Y-103471122D01*
X131454000Y-103475243D01*
X131454000Y-104105320D01*
X130946000Y-104105320D01*
X130946000Y-103482681D01*
X130941878Y-103469996D01*
X130937757Y-103467001D01*
X130870673Y-103467001D01*
X130866163Y-103467208D01*
X130800256Y-103473263D01*
X130790022Y-103475312D01*
X130637203Y-103523202D01*
X130626403Y-103528079D01*
X130490035Y-103610667D01*
X130480712Y-103617976D01*
X130367976Y-103730712D01*
X130360667Y-103740035D01*
X130278079Y-103876403D01*
X130273202Y-103887203D01*
X130225313Y-104040021D01*
X130223263Y-104050257D01*
X130217938Y-104108206D01*
X129700000Y-104108206D01*
X129700000Y-102990308D01*
X129718907Y-102932117D01*
X129728155Y-102921156D01*
X130171699Y-102466751D01*
X130225876Y-102438316D01*
X130240149Y-102436932D01*
X132800000Y-102375000D01*
X135900000Y-102300000D01*
X135900000Y-98541008D01*
X135918907Y-98482817D01*
X135928996Y-98471004D01*
X136371004Y-98028996D01*
X136425521Y-98001219D01*
X136441008Y-98000000D01*
X137709347Y-98000000D01*
X137767538Y-98018907D01*
G37*
G04 #@! TD.AperFunction*
G04 #@! TA.AperFunction,Conductor*
G36*
X138717183Y-105418907D02*
G01*
X138728996Y-105428996D01*
X139171004Y-105871004D01*
X139198781Y-105925521D01*
X139200000Y-105941008D01*
X139200000Y-108858992D01*
X139181093Y-108917183D01*
X139171004Y-108928996D01*
X138728996Y-109371004D01*
X138674479Y-109398781D01*
X138658992Y-109400000D01*
X136802180Y-109400000D01*
X136764371Y-109389050D01*
X136763354Y-109391599D01*
X136752664Y-109387334D01*
X136733348Y-109377020D01*
X136731393Y-109375679D01*
X136731390Y-109375678D01*
X136723854Y-109370508D01*
X136697941Y-109364359D01*
X136684116Y-109359986D01*
X136665868Y-109352706D01*
X136665866Y-109352706D01*
X136659378Y-109350117D01*
X136653085Y-109349500D01*
X136646916Y-109349500D01*
X136624057Y-109346825D01*
X136623827Y-109346770D01*
X136623825Y-109346770D01*
X136614934Y-109344660D01*
X136587174Y-109348438D01*
X136586013Y-109348596D01*
X136572663Y-109349500D01*
X133053507Y-109349500D01*
X133049383Y-109349197D01*
X133044658Y-109347575D01*
X133003332Y-109349127D01*
X132995250Y-109349430D01*
X132991536Y-109349500D01*
X132590508Y-109349500D01*
X132532317Y-109330593D01*
X132520504Y-109320504D01*
X132128996Y-108928996D01*
X132101219Y-108874479D01*
X132100000Y-108858992D01*
X132100000Y-108300000D01*
X131951312Y-108300000D01*
X132032024Y-108219288D01*
X132039333Y-108209965D01*
X132121921Y-108073597D01*
X132126798Y-108062797D01*
X132174687Y-107909979D01*
X132176737Y-107899743D01*
X132182062Y-107841794D01*
X132178878Y-107831995D01*
X132174757Y-107829000D01*
X130232681Y-107829000D01*
X130219996Y-107833122D01*
X130217462Y-107836609D01*
X130223263Y-107899744D01*
X130225312Y-107909978D01*
X130273202Y-108062797D01*
X130278079Y-108073597D01*
X130321856Y-108145882D01*
X130335828Y-108205451D01*
X130312117Y-108261856D01*
X130259782Y-108293551D01*
X130198811Y-108288431D01*
X130167171Y-108267171D01*
X129728996Y-107828996D01*
X129701219Y-107774479D01*
X129700000Y-107758992D01*
X129700000Y-107487257D01*
X132742001Y-107487257D01*
X132742065Y-107489471D01*
X132743220Y-107497545D01*
X132781809Y-107664698D01*
X132785459Y-107675062D01*
X132859541Y-107828308D01*
X132865403Y-107837616D01*
X132971583Y-107970625D01*
X132979375Y-107978417D01*
X133112384Y-108084597D01*
X133121692Y-108090459D01*
X133274938Y-108164541D01*
X133285302Y-108168191D01*
X133452463Y-108206782D01*
X133460519Y-108207936D01*
X133462751Y-108208000D01*
X135330320Y-108208000D01*
X135343005Y-108203878D01*
X135346000Y-108199757D01*
X135346000Y-108192319D01*
X135854000Y-108192319D01*
X135858122Y-108205004D01*
X135862243Y-108207999D01*
X137737257Y-108207999D01*
X137739471Y-108207935D01*
X137747545Y-108206780D01*
X137914698Y-108168191D01*
X137925062Y-108164541D01*
X138078308Y-108090459D01*
X138087616Y-108084597D01*
X138220625Y-107978417D01*
X138228417Y-107970625D01*
X138334597Y-107837616D01*
X138340459Y-107828308D01*
X138414541Y-107675062D01*
X138418191Y-107664698D01*
X138456782Y-107497537D01*
X138457936Y-107489481D01*
X138458000Y-107487249D01*
X138458000Y-107369680D01*
X138453878Y-107356995D01*
X138449757Y-107354000D01*
X135869680Y-107354000D01*
X135856995Y-107358122D01*
X135854000Y-107362243D01*
X135854000Y-108192319D01*
X135346000Y-108192319D01*
X135346000Y-107369680D01*
X135341878Y-107356995D01*
X135337757Y-107354000D01*
X132757681Y-107354000D01*
X132744996Y-107358122D01*
X132742001Y-107362243D01*
X132742001Y-107487257D01*
X129700000Y-107487257D01*
X129700000Y-106286609D01*
X130217462Y-106286609D01*
X130223263Y-106349744D01*
X130225312Y-106359978D01*
X130273202Y-106512797D01*
X130278079Y-106523597D01*
X130360667Y-106659965D01*
X130367976Y-106669288D01*
X130428684Y-106729996D01*
X130456461Y-106784513D01*
X130446890Y-106844945D01*
X130428684Y-106870004D01*
X130367976Y-106930712D01*
X130360667Y-106940035D01*
X130278079Y-107076403D01*
X130273202Y-107087203D01*
X130225313Y-107240021D01*
X130223263Y-107250257D01*
X130217938Y-107308206D01*
X130221122Y-107318005D01*
X130225243Y-107321000D01*
X130930320Y-107321000D01*
X130943005Y-107316878D01*
X130946000Y-107312757D01*
X130946000Y-107305320D01*
X131454000Y-107305320D01*
X131458122Y-107318005D01*
X131462243Y-107321000D01*
X132167319Y-107321000D01*
X132180004Y-107316878D01*
X132182538Y-107313391D01*
X132176737Y-107250256D01*
X132174688Y-107240022D01*
X132126798Y-107087203D01*
X132121921Y-107076403D01*
X132039333Y-106940035D01*
X132032024Y-106930712D01*
X131971316Y-106870004D01*
X131951097Y-106830320D01*
X132742000Y-106830320D01*
X132746122Y-106843005D01*
X132750243Y-106846000D01*
X135330320Y-106846000D01*
X135343005Y-106841878D01*
X135346000Y-106837757D01*
X135346000Y-106830320D01*
X135854000Y-106830320D01*
X135858122Y-106843005D01*
X135862243Y-106846000D01*
X138442319Y-106846000D01*
X138455004Y-106841878D01*
X138457999Y-106837757D01*
X138457999Y-106712743D01*
X138457935Y-106710529D01*
X138456780Y-106702455D01*
X138418191Y-106535302D01*
X138414541Y-106524938D01*
X138340459Y-106371692D01*
X138334597Y-106362384D01*
X138228417Y-106229375D01*
X138220625Y-106221583D01*
X138087616Y-106115403D01*
X138078308Y-106109541D01*
X137925062Y-106035459D01*
X137914698Y-106031809D01*
X137747537Y-105993218D01*
X137739481Y-105992064D01*
X137737249Y-105992000D01*
X135869680Y-105992000D01*
X135856995Y-105996122D01*
X135854000Y-106000243D01*
X135854000Y-106830320D01*
X135346000Y-106830320D01*
X135346000Y-106007681D01*
X135341878Y-105994996D01*
X135337757Y-105992001D01*
X133462743Y-105992001D01*
X133460529Y-105992065D01*
X133452455Y-105993220D01*
X133285302Y-106031809D01*
X133274938Y-106035459D01*
X133121692Y-106109541D01*
X133112384Y-106115403D01*
X132979375Y-106221583D01*
X132971583Y-106229375D01*
X132865403Y-106362384D01*
X132859541Y-106371692D01*
X132785459Y-106524938D01*
X132781809Y-106535302D01*
X132743218Y-106702463D01*
X132742064Y-106710519D01*
X132742000Y-106712751D01*
X132742000Y-106830320D01*
X131951097Y-106830320D01*
X131943539Y-106815487D01*
X131953110Y-106755055D01*
X131971316Y-106729996D01*
X132032024Y-106669288D01*
X132039333Y-106659965D01*
X132121921Y-106523597D01*
X132126798Y-106512797D01*
X132174687Y-106359979D01*
X132176737Y-106349743D01*
X132182062Y-106291794D01*
X132178878Y-106281995D01*
X132174757Y-106279000D01*
X131469680Y-106279000D01*
X131456995Y-106283122D01*
X131454000Y-106287243D01*
X131454000Y-107305320D01*
X130946000Y-107305320D01*
X130946000Y-106294680D01*
X130941878Y-106281995D01*
X130937757Y-106279000D01*
X130232681Y-106279000D01*
X130219996Y-106283122D01*
X130217462Y-106286609D01*
X129700000Y-106286609D01*
X129700000Y-105941008D01*
X129718907Y-105882817D01*
X129728996Y-105871004D01*
X130084230Y-105515770D01*
X130138747Y-105487993D01*
X130199179Y-105497564D01*
X130242444Y-105540829D01*
X130252015Y-105601261D01*
X130248704Y-105615379D01*
X130225313Y-105690021D01*
X130223263Y-105700257D01*
X130217938Y-105758206D01*
X130221122Y-105768005D01*
X130225243Y-105771000D01*
X132167319Y-105771000D01*
X132180004Y-105766878D01*
X132182538Y-105763391D01*
X132176737Y-105700256D01*
X132174688Y-105690022D01*
X132125013Y-105531508D01*
X132126968Y-105530895D01*
X132121228Y-105478931D01*
X132151539Y-105425781D01*
X132207301Y-105400599D01*
X132218172Y-105400000D01*
X138658992Y-105400000D01*
X138717183Y-105418907D01*
G37*
G04 #@! TD.AperFunction*
G04 #@! TA.AperFunction,Conductor*
G36*
X145315931Y-102020002D02*
G01*
X145336905Y-102036905D01*
X145763095Y-102463095D01*
X145797121Y-102525407D01*
X145800000Y-102552190D01*
X145800000Y-105100000D01*
X146100000Y-105100000D01*
X146100288Y-105100284D01*
X146367255Y-105363668D01*
X146401701Y-105425749D01*
X146404752Y-105451660D01*
X146492532Y-111947359D01*
X146473453Y-112015744D01*
X146456239Y-112037553D01*
X146037005Y-112462491D01*
X145974925Y-112496937D01*
X145947310Y-112500000D01*
X140501500Y-112500000D01*
X140433379Y-112479998D01*
X140386886Y-112426342D01*
X140375500Y-112374000D01*
X140375500Y-111522095D01*
X141342001Y-111522095D01*
X141342338Y-111528614D01*
X141352257Y-111624206D01*
X141355149Y-111637600D01*
X141406588Y-111791784D01*
X141412761Y-111804962D01*
X141498063Y-111942807D01*
X141507099Y-111954208D01*
X141621829Y-112068739D01*
X141633240Y-112077751D01*
X141771243Y-112162816D01*
X141784424Y-112168963D01*
X141938710Y-112220138D01*
X141952086Y-112223005D01*
X142046438Y-112232672D01*
X142052854Y-112233000D01*
X142077885Y-112233000D01*
X142093124Y-112228525D01*
X142094329Y-112227135D01*
X142096000Y-112219452D01*
X142096000Y-111272115D01*
X142091525Y-111256876D01*
X142090135Y-111255671D01*
X142082452Y-111254000D01*
X141360116Y-111254000D01*
X141344877Y-111258475D01*
X141343672Y-111259865D01*
X141342001Y-111267548D01*
X141342001Y-111522095D01*
X140375500Y-111522095D01*
X140375500Y-110437016D01*
X140395502Y-110368895D01*
X140412405Y-110347921D01*
X140638876Y-110121450D01*
X140701188Y-110087424D01*
X140774660Y-110093515D01*
X140790622Y-110099883D01*
X140796915Y-110100500D01*
X140799997Y-110100500D01*
X140803067Y-110100650D01*
X140803056Y-110100866D01*
X140814431Y-110102198D01*
X140823745Y-110102653D01*
X140835066Y-110105340D01*
X140846595Y-110103771D01*
X140846596Y-110103771D01*
X140862173Y-110101651D01*
X140879164Y-110100500D01*
X141267623Y-110100500D01*
X141335744Y-110120502D01*
X141382237Y-110174158D01*
X141392341Y-110244432D01*
X141387216Y-110266168D01*
X141354862Y-110363710D01*
X141351995Y-110377086D01*
X141342328Y-110471438D01*
X141342000Y-110477855D01*
X141342000Y-110727885D01*
X141346475Y-110743124D01*
X141347865Y-110744329D01*
X141355548Y-110746000D01*
X142478000Y-110746000D01*
X142546121Y-110766002D01*
X142592614Y-110819658D01*
X142604000Y-110872000D01*
X142604000Y-112214884D01*
X142608475Y-112230123D01*
X142609865Y-112231328D01*
X142617548Y-112232999D01*
X142647095Y-112232999D01*
X142653614Y-112232662D01*
X142749206Y-112222743D01*
X142762600Y-112219851D01*
X142916784Y-112168412D01*
X142929962Y-112162239D01*
X143067807Y-112076937D01*
X143079208Y-112067901D01*
X143193739Y-111953171D01*
X143202751Y-111941760D01*
X143287816Y-111803757D01*
X143293963Y-111790576D01*
X143342611Y-111643908D01*
X143383042Y-111585549D01*
X143448606Y-111558312D01*
X143518488Y-111570846D01*
X143570500Y-111619170D01*
X143581087Y-111641828D01*
X143583222Y-111647908D01*
X143597366Y-111688184D01*
X143602958Y-111695754D01*
X143602959Y-111695757D01*
X143665335Y-111780206D01*
X143677850Y-111797150D01*
X143685421Y-111802742D01*
X143779243Y-111872041D01*
X143779246Y-111872042D01*
X143786816Y-111877634D01*
X143914631Y-111922519D01*
X143922277Y-111923242D01*
X143922278Y-111923242D01*
X143928248Y-111923806D01*
X143946166Y-111925500D01*
X144553834Y-111925500D01*
X144571752Y-111923806D01*
X144577722Y-111923242D01*
X144577723Y-111923242D01*
X144585369Y-111922519D01*
X144713184Y-111877634D01*
X144720754Y-111872042D01*
X144720757Y-111872041D01*
X144814579Y-111802742D01*
X144822150Y-111797150D01*
X144834665Y-111780206D01*
X144897041Y-111695757D01*
X144897042Y-111695754D01*
X144902634Y-111688184D01*
X144947519Y-111560369D01*
X144950500Y-111528834D01*
X144950500Y-110471166D01*
X144947519Y-110439631D01*
X144902634Y-110311816D01*
X144897042Y-110304246D01*
X144897041Y-110304243D01*
X144827742Y-110210421D01*
X144822150Y-110202850D01*
X144750500Y-110149928D01*
X144720758Y-110127960D01*
X144720757Y-110127959D01*
X144713184Y-110122366D01*
X144713337Y-110122159D01*
X144666699Y-110076706D01*
X144650500Y-110014903D01*
X144650500Y-109531288D01*
X144671735Y-109461285D01*
X144706974Y-109408547D01*
X144713867Y-109398231D01*
X144725500Y-109339748D01*
X144725500Y-108080252D01*
X144713867Y-108021769D01*
X144669552Y-107955448D01*
X144603231Y-107911133D01*
X144591062Y-107908712D01*
X144591061Y-107908712D01*
X144550816Y-107900707D01*
X144544748Y-107899500D01*
X143855252Y-107899500D01*
X143849184Y-107900707D01*
X143808939Y-107908712D01*
X143808938Y-107908712D01*
X143796769Y-107911133D01*
X143730448Y-107955448D01*
X143686133Y-108021769D01*
X143674500Y-108080252D01*
X143674500Y-109339748D01*
X143676325Y-109348922D01*
X143676176Y-109350582D01*
X143676314Y-109351979D01*
X143676049Y-109352005D01*
X143669995Y-109419635D01*
X143626439Y-109475702D01*
X143552745Y-109499500D01*
X142947255Y-109499500D01*
X142879134Y-109479498D01*
X142832641Y-109425842D01*
X142824035Y-109352013D01*
X142823686Y-109351979D01*
X142823844Y-109350373D01*
X142823675Y-109348922D01*
X142825500Y-109339748D01*
X142825500Y-108080252D01*
X142813867Y-108021769D01*
X142769552Y-107955448D01*
X142759239Y-107948557D01*
X142759237Y-107948555D01*
X142733361Y-107931265D01*
X142687833Y-107876788D01*
X142678986Y-107806344D01*
X142709627Y-107742301D01*
X142770029Y-107704989D01*
X142803363Y-107700500D01*
X142947634Y-107700500D01*
X142950307Y-107700696D01*
X142955342Y-107702425D01*
X142966964Y-107701989D01*
X142966966Y-107701989D01*
X143004255Y-107700589D01*
X143008981Y-107700500D01*
X143027948Y-107700500D01*
X143032683Y-107699618D01*
X143036209Y-107699390D01*
X143039949Y-107699249D01*
X143067208Y-107698226D01*
X143077893Y-107693636D01*
X143082493Y-107692599D01*
X143094214Y-107689038D01*
X143098617Y-107687339D01*
X143110053Y-107685209D01*
X143131041Y-107672272D01*
X143147411Y-107663769D01*
X143161888Y-107657549D01*
X143161892Y-107657547D01*
X143170063Y-107654036D01*
X143174949Y-107650022D01*
X143177134Y-107647837D01*
X143179397Y-107645785D01*
X143179542Y-107645945D01*
X143188549Y-107638825D01*
X143195444Y-107632573D01*
X143205348Y-107626468D01*
X143221906Y-107604693D01*
X143233107Y-107591864D01*
X143328057Y-107496915D01*
X143425460Y-107399512D01*
X143427486Y-107397763D01*
X143432269Y-107395425D01*
X143465585Y-107359510D01*
X143468841Y-107356131D01*
X143482248Y-107342724D01*
X143484978Y-107338745D01*
X143487286Y-107336116D01*
X143508401Y-107313354D01*
X143512712Y-107302547D01*
X143515238Y-107298552D01*
X143521001Y-107287758D01*
X143522912Y-107283446D01*
X143529492Y-107273854D01*
X143532178Y-107262536D01*
X143536891Y-107251900D01*
X143538692Y-107252698D01*
X143566728Y-107203574D01*
X143629669Y-107170727D01*
X143698362Y-107176348D01*
X143757394Y-107198478D01*
X143772649Y-107202105D01*
X143823514Y-107207631D01*
X143830328Y-107208000D01*
X143927885Y-107208000D01*
X143943124Y-107203525D01*
X143944329Y-107202135D01*
X143946000Y-107194452D01*
X143946000Y-107189884D01*
X144454000Y-107189884D01*
X144458475Y-107205123D01*
X144459865Y-107206328D01*
X144467548Y-107207999D01*
X144569669Y-107207999D01*
X144576490Y-107207629D01*
X144627352Y-107202105D01*
X144642604Y-107198479D01*
X144763054Y-107153324D01*
X144778649Y-107144786D01*
X144880724Y-107068285D01*
X144893285Y-107055724D01*
X144969786Y-106953649D01*
X144978324Y-106938054D01*
X145023478Y-106817606D01*
X145027105Y-106802351D01*
X145032631Y-106751486D01*
X145033000Y-106744672D01*
X145033000Y-106362115D01*
X145028525Y-106346876D01*
X145027135Y-106345671D01*
X145019452Y-106344000D01*
X144472115Y-106344000D01*
X144456876Y-106348475D01*
X144455671Y-106349865D01*
X144454000Y-106357548D01*
X144454000Y-107189884D01*
X143946000Y-107189884D01*
X143946000Y-105817885D01*
X144454000Y-105817885D01*
X144458475Y-105833124D01*
X144459865Y-105834329D01*
X144467548Y-105836000D01*
X145014884Y-105836000D01*
X145030123Y-105831525D01*
X145031328Y-105830135D01*
X145032999Y-105822452D01*
X145032999Y-105435331D01*
X145032629Y-105428510D01*
X145027105Y-105377648D01*
X145023479Y-105362396D01*
X144978324Y-105241946D01*
X144969786Y-105226352D01*
X144906697Y-105142172D01*
X144881849Y-105075666D01*
X144896902Y-105006283D01*
X144924484Y-104973531D01*
X144924035Y-104973083D01*
X145043739Y-104853171D01*
X145052751Y-104841760D01*
X145137816Y-104703757D01*
X145143963Y-104690576D01*
X145195138Y-104536290D01*
X145198005Y-104522914D01*
X145207672Y-104428562D01*
X145208000Y-104422146D01*
X145208000Y-104172115D01*
X145203525Y-104156876D01*
X145202135Y-104155671D01*
X145194452Y-104154000D01*
X144472115Y-104154000D01*
X144456876Y-104158475D01*
X144455671Y-104159865D01*
X144454000Y-104167548D01*
X144454000Y-105817885D01*
X143946000Y-105817885D01*
X143946000Y-103627885D01*
X144454000Y-103627885D01*
X144458475Y-103643124D01*
X144459865Y-103644329D01*
X144467548Y-103646000D01*
X145189884Y-103646000D01*
X145205123Y-103641525D01*
X145206328Y-103640135D01*
X145207999Y-103632452D01*
X145207999Y-103377905D01*
X145207662Y-103371386D01*
X145197743Y-103275794D01*
X145194851Y-103262400D01*
X145143412Y-103108216D01*
X145137239Y-103095038D01*
X145051937Y-102957193D01*
X145042901Y-102945792D01*
X144928171Y-102831261D01*
X144916760Y-102822249D01*
X144778757Y-102737184D01*
X144765576Y-102731037D01*
X144611290Y-102679862D01*
X144597914Y-102676995D01*
X144503562Y-102667328D01*
X144497145Y-102667000D01*
X144472115Y-102667000D01*
X144456876Y-102671475D01*
X144455671Y-102672865D01*
X144454000Y-102680548D01*
X144454000Y-103627885D01*
X143946000Y-103627885D01*
X143946000Y-102685116D01*
X143936285Y-102652031D01*
X143917198Y-102622330D01*
X143917198Y-102551333D01*
X143948999Y-102497737D01*
X144409831Y-102036905D01*
X144472143Y-102002879D01*
X144498926Y-102000000D01*
X145247810Y-102000000D01*
X145315931Y-102020002D01*
G37*
G04 #@! TD.AperFunction*
G04 #@! TA.AperFunction,Conductor*
G36*
X127557788Y-98018907D02*
G01*
X127585331Y-98049497D01*
X127613141Y-98097665D01*
X127732770Y-98230526D01*
X127809739Y-98286448D01*
X127845701Y-98335945D01*
X127845701Y-98397131D01*
X127809737Y-98446631D01*
X127802164Y-98451619D01*
X127698810Y-98513108D01*
X127690553Y-98522523D01*
X127695249Y-98531039D01*
X128293914Y-99129704D01*
X128305797Y-99135758D01*
X128310828Y-99134962D01*
X128913259Y-98532531D01*
X128919137Y-98520993D01*
X128913044Y-98514315D01*
X128836811Y-98466215D01*
X128828763Y-98462115D01*
X128821032Y-98459031D01*
X128773988Y-98419908D01*
X128758925Y-98360606D01*
X128781595Y-98303776D01*
X128799522Y-98286985D01*
X128873031Y-98233577D01*
X128873032Y-98233576D01*
X128877230Y-98230526D01*
X128996859Y-98097665D01*
X129024668Y-98049498D01*
X129070136Y-98008559D01*
X129110403Y-98000000D01*
X129404597Y-98000000D01*
X129462788Y-98018907D01*
X129490331Y-98049497D01*
X129518141Y-98097665D01*
X129637770Y-98230526D01*
X129782407Y-98335612D01*
X129838545Y-98360606D01*
X129940995Y-98406220D01*
X129940999Y-98406221D01*
X129945733Y-98408329D01*
X129950803Y-98409407D01*
X129950804Y-98409407D01*
X129957532Y-98410837D01*
X130120609Y-98445500D01*
X130299391Y-98445500D01*
X130462468Y-98410837D01*
X130469196Y-98409407D01*
X130469197Y-98409407D01*
X130474267Y-98408329D01*
X130479001Y-98406221D01*
X130479005Y-98406220D01*
X130581455Y-98360606D01*
X130637593Y-98335612D01*
X130782230Y-98230526D01*
X130901859Y-98097665D01*
X130929668Y-98049498D01*
X130975136Y-98008559D01*
X131015403Y-98000000D01*
X131309597Y-98000000D01*
X131367788Y-98018907D01*
X131395331Y-98049497D01*
X131423141Y-98097665D01*
X131542770Y-98230526D01*
X131687407Y-98335612D01*
X131743545Y-98360606D01*
X131845995Y-98406220D01*
X131845999Y-98406221D01*
X131850733Y-98408329D01*
X131855803Y-98409407D01*
X131855804Y-98409407D01*
X131862532Y-98410837D01*
X132025609Y-98445500D01*
X132204391Y-98445500D01*
X132367468Y-98410837D01*
X132374196Y-98409407D01*
X132374197Y-98409407D01*
X132379267Y-98408329D01*
X132384001Y-98406221D01*
X132384005Y-98406220D01*
X132486455Y-98360606D01*
X132542593Y-98335612D01*
X132687230Y-98230526D01*
X132806859Y-98097665D01*
X132834668Y-98049498D01*
X132880136Y-98008559D01*
X132920403Y-98000000D01*
X133214597Y-98000000D01*
X133272788Y-98018907D01*
X133300331Y-98049497D01*
X133328141Y-98097665D01*
X133447770Y-98230526D01*
X133524739Y-98286448D01*
X133560701Y-98335945D01*
X133560701Y-98397131D01*
X133524737Y-98446631D01*
X133517164Y-98451619D01*
X133413810Y-98513108D01*
X133405553Y-98522523D01*
X133410249Y-98531039D01*
X134008914Y-99129704D01*
X134020797Y-99135758D01*
X134025828Y-99134962D01*
X134628259Y-98532531D01*
X134634137Y-98520993D01*
X134628044Y-98514315D01*
X134551811Y-98466215D01*
X134543763Y-98462115D01*
X134536032Y-98459031D01*
X134488988Y-98419908D01*
X134473925Y-98360606D01*
X134496595Y-98303776D01*
X134514522Y-98286985D01*
X134588031Y-98233577D01*
X134588032Y-98233576D01*
X134592230Y-98230526D01*
X134711859Y-98097665D01*
X134739668Y-98049498D01*
X134785136Y-98008559D01*
X134825403Y-98000000D01*
X134858992Y-98000000D01*
X134917183Y-98018907D01*
X134928996Y-98028996D01*
X135371004Y-98471004D01*
X135398781Y-98525521D01*
X135400000Y-98541008D01*
X135400000Y-101258992D01*
X135381093Y-101317183D01*
X135371004Y-101328996D01*
X135021751Y-101678249D01*
X134967234Y-101706026D01*
X134906802Y-101696455D01*
X134863537Y-101653190D01*
X134854912Y-101587681D01*
X134856497Y-101582803D01*
X134875185Y-101405000D01*
X134856497Y-101227197D01*
X134854896Y-101222270D01*
X134854895Y-101222265D01*
X134802852Y-101062095D01*
X134802851Y-101062094D01*
X134801250Y-101057165D01*
X134711859Y-100902335D01*
X134592230Y-100769474D01*
X134513225Y-100712073D01*
X134477261Y-100662573D01*
X134477262Y-100601388D01*
X134513226Y-100551888D01*
X134523042Y-100545604D01*
X134626891Y-100487445D01*
X134635093Y-100478572D01*
X134630191Y-100469401D01*
X134031086Y-99870296D01*
X134019203Y-99864242D01*
X134014172Y-99865038D01*
X133411486Y-100467724D01*
X133405432Y-100479607D01*
X133405439Y-100479652D01*
X133410962Y-100485867D01*
X133461306Y-100519506D01*
X133469257Y-100523823D01*
X133508266Y-100540583D01*
X133554267Y-100580925D01*
X133567771Y-100640602D01*
X133543618Y-100696818D01*
X133527377Y-100711636D01*
X133447770Y-100769474D01*
X133444304Y-100773324D01*
X133444300Y-100773327D01*
X133336036Y-100893567D01*
X133328141Y-100902335D01*
X133238750Y-101057165D01*
X133237149Y-101062094D01*
X133237148Y-101062095D01*
X133185105Y-101222265D01*
X133185104Y-101222270D01*
X133183503Y-101227197D01*
X133182961Y-101232355D01*
X133165958Y-101394125D01*
X133161873Y-101403301D01*
X133165958Y-101415875D01*
X133183503Y-101582803D01*
X133185105Y-101587734D01*
X133185106Y-101587738D01*
X133211967Y-101670408D01*
X133211967Y-101731593D01*
X133176003Y-101781093D01*
X133117812Y-101800000D01*
X133017188Y-101800000D01*
X132958997Y-101781093D01*
X132923033Y-101731593D01*
X132923033Y-101670408D01*
X132949894Y-101587738D01*
X132949895Y-101587734D01*
X132951497Y-101582803D01*
X132969042Y-101415875D01*
X132973127Y-101406699D01*
X132969042Y-101394125D01*
X132952039Y-101232355D01*
X132951497Y-101227197D01*
X132949896Y-101222270D01*
X132949895Y-101222265D01*
X132897852Y-101062095D01*
X132897851Y-101062094D01*
X132896250Y-101057165D01*
X132806859Y-100902335D01*
X132687230Y-100769474D01*
X132542593Y-100664388D01*
X132460930Y-100628030D01*
X132384005Y-100593780D01*
X132384001Y-100593779D01*
X132379267Y-100591671D01*
X132374197Y-100590593D01*
X132374196Y-100590593D01*
X132328711Y-100580925D01*
X132204391Y-100554500D01*
X132025609Y-100554500D01*
X131901289Y-100580925D01*
X131855804Y-100590593D01*
X131855803Y-100590593D01*
X131850733Y-100591671D01*
X131845999Y-100593779D01*
X131845995Y-100593780D01*
X131692142Y-100662280D01*
X131692140Y-100662281D01*
X131687408Y-100664388D01*
X131542770Y-100769474D01*
X131539304Y-100773324D01*
X131539300Y-100773327D01*
X131431036Y-100893567D01*
X131423141Y-100902335D01*
X131333750Y-101057165D01*
X131332149Y-101062094D01*
X131332148Y-101062095D01*
X131280105Y-101222265D01*
X131280104Y-101222270D01*
X131278503Y-101227197D01*
X131277961Y-101232355D01*
X131260958Y-101394125D01*
X131256873Y-101403301D01*
X131260958Y-101415875D01*
X131278503Y-101582803D01*
X131280105Y-101587734D01*
X131280106Y-101587738D01*
X131306967Y-101670408D01*
X131306967Y-101731593D01*
X131271003Y-101781093D01*
X131212812Y-101800000D01*
X131112188Y-101800000D01*
X131053997Y-101781093D01*
X131018033Y-101731593D01*
X131018033Y-101670408D01*
X131044894Y-101587738D01*
X131044895Y-101587734D01*
X131046497Y-101582803D01*
X131064042Y-101415875D01*
X131068127Y-101406699D01*
X131064042Y-101394125D01*
X131047039Y-101232355D01*
X131046497Y-101227197D01*
X131044896Y-101222270D01*
X131044895Y-101222265D01*
X130992852Y-101062095D01*
X130992851Y-101062094D01*
X130991250Y-101057165D01*
X130901859Y-100902335D01*
X130782230Y-100769474D01*
X130637593Y-100664388D01*
X130555930Y-100628030D01*
X130479005Y-100593780D01*
X130479001Y-100593779D01*
X130474267Y-100591671D01*
X130469197Y-100590593D01*
X130469196Y-100590593D01*
X130423711Y-100580925D01*
X130299391Y-100554500D01*
X130120609Y-100554500D01*
X129996289Y-100580925D01*
X129950804Y-100590593D01*
X129950803Y-100590593D01*
X129945733Y-100591671D01*
X129940999Y-100593779D01*
X129940995Y-100593780D01*
X129787142Y-100662280D01*
X129787140Y-100662281D01*
X129782408Y-100664388D01*
X129637770Y-100769474D01*
X129634304Y-100773324D01*
X129634300Y-100773327D01*
X129526036Y-100893567D01*
X129518141Y-100902335D01*
X129428750Y-101057165D01*
X129427149Y-101062094D01*
X129427148Y-101062095D01*
X129375105Y-101222265D01*
X129375104Y-101222270D01*
X129373503Y-101227197D01*
X129372961Y-101232355D01*
X129355958Y-101394125D01*
X129351873Y-101403301D01*
X129355958Y-101415875D01*
X129373503Y-101582803D01*
X129375104Y-101587730D01*
X129375105Y-101587735D01*
X129404515Y-101678249D01*
X129428750Y-101752835D01*
X129431340Y-101757322D01*
X129431345Y-101757332D01*
X129455980Y-101800000D01*
X129200000Y-101800000D01*
X129200000Y-104459595D01*
X129181093Y-104517786D01*
X129171729Y-104528866D01*
X128728379Y-104981548D01*
X128674154Y-105009892D01*
X128659718Y-105011255D01*
X126249792Y-105061463D01*
X126191220Y-105043771D01*
X126154233Y-104995031D01*
X126152959Y-104933859D01*
X126187884Y-104883621D01*
X126196445Y-104877803D01*
X126259965Y-104839333D01*
X126269288Y-104832024D01*
X126382024Y-104719288D01*
X126389333Y-104709965D01*
X126471921Y-104573597D01*
X126476798Y-104562797D01*
X126524687Y-104409979D01*
X126526737Y-104399743D01*
X126532793Y-104333837D01*
X126533000Y-104329328D01*
X126533000Y-104269680D01*
X126528878Y-104256995D01*
X126524757Y-104254000D01*
X125470000Y-104254000D01*
X125411809Y-104235093D01*
X125375845Y-104185593D01*
X125371000Y-104155000D01*
X125371000Y-103730320D01*
X125879000Y-103730320D01*
X125883122Y-103743005D01*
X125887243Y-103746000D01*
X126517319Y-103746000D01*
X126530004Y-103741878D01*
X126532999Y-103737757D01*
X126532999Y-103670673D01*
X126532792Y-103666163D01*
X126526737Y-103600256D01*
X126524688Y-103590022D01*
X126476798Y-103437203D01*
X126471921Y-103426403D01*
X126389333Y-103290035D01*
X126382024Y-103280712D01*
X126269288Y-103167976D01*
X126259965Y-103160667D01*
X126123597Y-103078079D01*
X126112797Y-103073202D01*
X125959979Y-103025313D01*
X125949743Y-103023263D01*
X125891794Y-103017938D01*
X125881995Y-103021122D01*
X125879000Y-103025243D01*
X125879000Y-103730320D01*
X125371000Y-103730320D01*
X125371000Y-103032681D01*
X125366878Y-103019996D01*
X125363391Y-103017462D01*
X125300256Y-103023263D01*
X125290022Y-103025312D01*
X125131508Y-103074987D01*
X125130895Y-103073032D01*
X125078931Y-103078772D01*
X125025781Y-103048461D01*
X125000599Y-102992699D01*
X125000000Y-102981828D01*
X125000000Y-102139814D01*
X125018907Y-102081623D01*
X125040805Y-102059725D01*
X125067230Y-102040526D01*
X125186859Y-101907665D01*
X125189452Y-101903174D01*
X125273658Y-101757325D01*
X125273659Y-101757323D01*
X125276250Y-101752835D01*
X125300485Y-101678249D01*
X125329895Y-101587735D01*
X125329896Y-101587730D01*
X125331497Y-101582803D01*
X125349042Y-101415875D01*
X125353127Y-101406699D01*
X125352023Y-101403301D01*
X125541873Y-101403301D01*
X125545958Y-101415875D01*
X125563503Y-101582803D01*
X125565104Y-101587730D01*
X125565105Y-101587735D01*
X125594515Y-101678249D01*
X125618750Y-101752835D01*
X125621341Y-101757323D01*
X125621342Y-101757325D01*
X125705548Y-101903174D01*
X125708141Y-101907665D01*
X125827770Y-102040526D01*
X125972407Y-102145612D01*
X126054070Y-102181971D01*
X126130995Y-102216220D01*
X126130999Y-102216221D01*
X126135733Y-102218329D01*
X126140803Y-102219407D01*
X126140804Y-102219407D01*
X126174728Y-102226618D01*
X126310609Y-102255500D01*
X126489391Y-102255500D01*
X126625272Y-102226618D01*
X126659196Y-102219407D01*
X126659197Y-102219407D01*
X126664267Y-102218329D01*
X126669001Y-102216221D01*
X126669005Y-102216220D01*
X126745930Y-102181971D01*
X126827593Y-102145612D01*
X126972230Y-102040526D01*
X127091859Y-101907665D01*
X127094452Y-101903174D01*
X127178658Y-101757325D01*
X127178659Y-101757323D01*
X127181250Y-101752835D01*
X127205485Y-101678249D01*
X127234895Y-101587735D01*
X127234896Y-101587730D01*
X127236497Y-101582803D01*
X127254042Y-101415875D01*
X127258127Y-101406699D01*
X127257023Y-101403301D01*
X127446873Y-101403301D01*
X127450958Y-101415875D01*
X127468503Y-101582803D01*
X127470104Y-101587730D01*
X127470105Y-101587735D01*
X127499515Y-101678249D01*
X127523750Y-101752835D01*
X127526341Y-101757323D01*
X127526342Y-101757325D01*
X127610548Y-101903174D01*
X127613141Y-101907665D01*
X127732770Y-102040526D01*
X127877407Y-102145612D01*
X127959070Y-102181971D01*
X128035995Y-102216220D01*
X128035999Y-102216221D01*
X128040733Y-102218329D01*
X128045803Y-102219407D01*
X128045804Y-102219407D01*
X128079728Y-102226618D01*
X128215609Y-102255500D01*
X128394391Y-102255500D01*
X128530272Y-102226618D01*
X128564196Y-102219407D01*
X128564197Y-102219407D01*
X128569267Y-102218329D01*
X128574001Y-102216221D01*
X128574005Y-102216220D01*
X128650930Y-102181971D01*
X128732593Y-102145612D01*
X128877230Y-102040526D01*
X128996859Y-101907665D01*
X128999452Y-101903174D01*
X129083658Y-101757325D01*
X129083659Y-101757323D01*
X129086250Y-101752835D01*
X129110485Y-101678249D01*
X129139895Y-101587735D01*
X129139896Y-101587730D01*
X129141497Y-101582803D01*
X129159042Y-101415875D01*
X129163127Y-101406699D01*
X129159042Y-101394125D01*
X129142039Y-101232355D01*
X129141497Y-101227197D01*
X129139896Y-101222270D01*
X129139895Y-101222265D01*
X129087852Y-101062095D01*
X129087851Y-101062094D01*
X129086250Y-101057165D01*
X128996859Y-100902335D01*
X128877230Y-100769474D01*
X128798225Y-100712073D01*
X128762261Y-100662573D01*
X128762262Y-100601388D01*
X128798226Y-100551888D01*
X128808042Y-100545604D01*
X128911891Y-100487445D01*
X128920093Y-100478572D01*
X128915191Y-100469401D01*
X128316086Y-99870296D01*
X128304203Y-99864242D01*
X128299172Y-99865038D01*
X127696486Y-100467724D01*
X127690432Y-100479607D01*
X127690439Y-100479652D01*
X127695962Y-100485867D01*
X127746306Y-100519506D01*
X127754257Y-100523823D01*
X127793266Y-100540583D01*
X127839267Y-100580925D01*
X127852771Y-100640602D01*
X127828618Y-100696818D01*
X127812377Y-100711636D01*
X127732770Y-100769474D01*
X127729304Y-100773324D01*
X127729300Y-100773327D01*
X127621036Y-100893567D01*
X127613141Y-100902335D01*
X127523750Y-101057165D01*
X127522149Y-101062094D01*
X127522148Y-101062095D01*
X127470105Y-101222265D01*
X127470104Y-101222270D01*
X127468503Y-101227197D01*
X127467961Y-101232355D01*
X127450958Y-101394125D01*
X127446873Y-101403301D01*
X127257023Y-101403301D01*
X127254042Y-101394125D01*
X127237039Y-101232355D01*
X127236497Y-101227197D01*
X127234896Y-101222270D01*
X127234895Y-101222265D01*
X127182852Y-101062095D01*
X127182851Y-101062094D01*
X127181250Y-101057165D01*
X127091859Y-100902335D01*
X126972230Y-100769474D01*
X126827593Y-100664388D01*
X126745930Y-100628030D01*
X126669005Y-100593780D01*
X126669001Y-100593779D01*
X126664267Y-100591671D01*
X126659197Y-100590593D01*
X126659196Y-100590593D01*
X126613711Y-100580925D01*
X126489391Y-100554500D01*
X126310609Y-100554500D01*
X126186289Y-100580925D01*
X126140804Y-100590593D01*
X126140803Y-100590593D01*
X126135733Y-100591671D01*
X126130999Y-100593779D01*
X126130995Y-100593780D01*
X125977142Y-100662280D01*
X125977140Y-100662281D01*
X125972408Y-100664388D01*
X125827770Y-100769474D01*
X125824304Y-100773324D01*
X125824300Y-100773327D01*
X125716036Y-100893567D01*
X125708141Y-100902335D01*
X125618750Y-101057165D01*
X125617149Y-101062094D01*
X125617148Y-101062095D01*
X125565105Y-101222265D01*
X125565104Y-101222270D01*
X125563503Y-101227197D01*
X125562961Y-101232355D01*
X125545958Y-101394125D01*
X125541873Y-101403301D01*
X125352023Y-101403301D01*
X125349042Y-101394125D01*
X125332039Y-101232355D01*
X125331497Y-101227197D01*
X125329896Y-101222270D01*
X125329895Y-101222265D01*
X125277852Y-101062095D01*
X125277851Y-101062094D01*
X125276250Y-101057165D01*
X125186859Y-100902335D01*
X125067230Y-100769474D01*
X125040807Y-100750277D01*
X125004845Y-100700779D01*
X125000000Y-100670186D01*
X125000000Y-100234814D01*
X125018907Y-100176623D01*
X125040805Y-100154725D01*
X125067230Y-100135526D01*
X125186859Y-100002665D01*
X125266318Y-99865038D01*
X125273658Y-99852325D01*
X125273659Y-99852323D01*
X125276250Y-99847835D01*
X125302518Y-99766991D01*
X125329895Y-99682735D01*
X125329896Y-99682730D01*
X125331497Y-99677803D01*
X125349042Y-99510875D01*
X125353127Y-99501699D01*
X125349042Y-99489125D01*
X125332039Y-99327355D01*
X125331497Y-99322197D01*
X125329896Y-99317270D01*
X125329895Y-99317265D01*
X125320477Y-99288281D01*
X125320477Y-99227095D01*
X125323168Y-99219802D01*
X125346017Y-99164641D01*
X125367477Y-99132523D01*
X125459534Y-99040466D01*
X125514051Y-99012689D01*
X125574483Y-99022260D01*
X125617748Y-99065525D01*
X125627319Y-99125957D01*
X125620405Y-99149298D01*
X125618750Y-99152165D01*
X125617149Y-99157094D01*
X125617148Y-99157095D01*
X125565105Y-99317265D01*
X125565104Y-99317270D01*
X125563503Y-99322197D01*
X125562961Y-99327355D01*
X125545958Y-99489125D01*
X125541873Y-99498301D01*
X125545958Y-99510875D01*
X125563503Y-99677803D01*
X125565104Y-99682730D01*
X125565105Y-99682735D01*
X125592482Y-99766991D01*
X125618750Y-99847835D01*
X125621341Y-99852323D01*
X125621342Y-99852325D01*
X125628682Y-99865038D01*
X125708141Y-100002665D01*
X125827770Y-100135526D01*
X125972407Y-100240612D01*
X126054070Y-100276970D01*
X126130995Y-100311220D01*
X126130999Y-100311221D01*
X126135733Y-100313329D01*
X126140803Y-100314407D01*
X126140804Y-100314407D01*
X126174728Y-100321618D01*
X126310609Y-100350500D01*
X126489391Y-100350500D01*
X126625272Y-100321618D01*
X126659196Y-100314407D01*
X126659197Y-100314407D01*
X126664267Y-100313329D01*
X126669001Y-100311221D01*
X126669005Y-100311220D01*
X126745930Y-100276971D01*
X126827593Y-100240612D01*
X126972230Y-100135526D01*
X126997232Y-100107759D01*
X127088391Y-100006517D01*
X127088393Y-100006515D01*
X127091859Y-100002665D01*
X127094448Y-99998182D01*
X127096114Y-99995888D01*
X127145616Y-99959927D01*
X127206801Y-99959930D01*
X127256299Y-99995897D01*
X127266109Y-100012636D01*
X127295945Y-100077357D01*
X127300466Y-100085187D01*
X127316318Y-100107617D01*
X127327005Y-100115597D01*
X127327754Y-100115607D01*
X127333885Y-100111905D01*
X127934704Y-99511086D01*
X127939946Y-99500797D01*
X128669242Y-99500797D01*
X128670038Y-99505828D01*
X129273697Y-100109487D01*
X129284459Y-100114970D01*
X129291959Y-100107759D01*
X129348375Y-100007022D01*
X129393305Y-99965490D01*
X129454066Y-99958298D01*
X129507450Y-99988195D01*
X129514844Y-99997204D01*
X129515546Y-99998170D01*
X129518141Y-100002665D01*
X129637770Y-100135526D01*
X129782407Y-100240612D01*
X129864070Y-100276970D01*
X129940995Y-100311220D01*
X129940999Y-100311221D01*
X129945733Y-100313329D01*
X129950803Y-100314407D01*
X129950804Y-100314407D01*
X129984728Y-100321618D01*
X130120609Y-100350500D01*
X130299391Y-100350500D01*
X130435272Y-100321618D01*
X130469196Y-100314407D01*
X130469197Y-100314407D01*
X130474267Y-100313329D01*
X130479001Y-100311221D01*
X130479005Y-100311220D01*
X130555930Y-100276971D01*
X130637593Y-100240612D01*
X130782230Y-100135526D01*
X130901859Y-100002665D01*
X130981318Y-99865038D01*
X130988658Y-99852325D01*
X130988659Y-99852323D01*
X130991250Y-99847835D01*
X131017518Y-99766991D01*
X131044895Y-99682735D01*
X131044896Y-99682730D01*
X131046497Y-99677803D01*
X131064042Y-99510875D01*
X131068127Y-99501699D01*
X131067023Y-99498301D01*
X131256873Y-99498301D01*
X131260958Y-99510875D01*
X131278503Y-99677803D01*
X131280104Y-99682730D01*
X131280105Y-99682735D01*
X131307482Y-99766991D01*
X131333750Y-99847835D01*
X131336341Y-99852323D01*
X131336342Y-99852325D01*
X131343682Y-99865038D01*
X131423141Y-100002665D01*
X131542770Y-100135526D01*
X131687407Y-100240612D01*
X131769070Y-100276970D01*
X131845995Y-100311220D01*
X131845999Y-100311221D01*
X131850733Y-100313329D01*
X131855803Y-100314407D01*
X131855804Y-100314407D01*
X131889728Y-100321618D01*
X132025609Y-100350500D01*
X132204391Y-100350500D01*
X132340272Y-100321618D01*
X132374196Y-100314407D01*
X132374197Y-100314407D01*
X132379267Y-100313329D01*
X132384001Y-100311221D01*
X132384005Y-100311220D01*
X132460930Y-100276971D01*
X132542593Y-100240612D01*
X132687230Y-100135526D01*
X132712232Y-100107759D01*
X132803391Y-100006517D01*
X132803393Y-100006515D01*
X132806859Y-100002665D01*
X132809448Y-99998182D01*
X132811114Y-99995888D01*
X132860616Y-99959927D01*
X132921801Y-99959930D01*
X132971299Y-99995897D01*
X132981109Y-100012636D01*
X133010945Y-100077357D01*
X133015466Y-100085187D01*
X133031318Y-100107617D01*
X133042005Y-100115597D01*
X133042754Y-100115607D01*
X133048885Y-100111905D01*
X133649704Y-99511086D01*
X133654946Y-99500797D01*
X134384242Y-99500797D01*
X134385038Y-99505828D01*
X134988697Y-100109487D01*
X134999459Y-100114970D01*
X135006959Y-100107759D01*
X135080200Y-99976980D01*
X135083878Y-99968718D01*
X135149368Y-99775790D01*
X135151480Y-99766991D01*
X135180947Y-99563765D01*
X135181444Y-99557939D01*
X135182885Y-99502914D01*
X135182695Y-99497101D01*
X135163902Y-99292587D01*
X135162254Y-99283695D01*
X135106952Y-99087607D01*
X135103708Y-99079156D01*
X135013595Y-98896427D01*
X135009913Y-98890419D01*
X134999504Y-98883062D01*
X134998055Y-98883081D01*
X134992962Y-98886248D01*
X134390296Y-99488914D01*
X134384242Y-99500797D01*
X133654946Y-99500797D01*
X133655758Y-99499203D01*
X133654962Y-99494172D01*
X133049794Y-98889004D01*
X133039437Y-98883727D01*
X133031562Y-98891500D01*
X132978737Y-98991903D01*
X132934909Y-99034598D01*
X132874357Y-99043377D01*
X132820209Y-99014888D01*
X132811033Y-99004002D01*
X132809451Y-99001825D01*
X132806859Y-98997335D01*
X132803387Y-98993479D01*
X132803386Y-98993477D01*
X132690702Y-98868330D01*
X132690699Y-98868327D01*
X132687230Y-98864474D01*
X132542593Y-98759388D01*
X132460930Y-98723030D01*
X132384005Y-98688780D01*
X132384001Y-98688779D01*
X132379267Y-98686671D01*
X132374197Y-98685593D01*
X132374196Y-98685593D01*
X132340272Y-98678382D01*
X132204391Y-98649500D01*
X132025609Y-98649500D01*
X131889728Y-98678382D01*
X131855804Y-98685593D01*
X131855803Y-98685593D01*
X131850733Y-98686671D01*
X131845999Y-98688779D01*
X131845995Y-98688780D01*
X131692142Y-98757280D01*
X131692140Y-98757281D01*
X131687408Y-98759388D01*
X131542770Y-98864474D01*
X131539304Y-98868324D01*
X131539300Y-98868327D01*
X131513999Y-98896427D01*
X131423141Y-98997335D01*
X131420549Y-99001825D01*
X131420548Y-99001826D01*
X131343223Y-99135758D01*
X131333750Y-99152165D01*
X131332149Y-99157094D01*
X131332148Y-99157095D01*
X131280105Y-99317265D01*
X131280104Y-99317270D01*
X131278503Y-99322197D01*
X131277961Y-99327355D01*
X131260958Y-99489125D01*
X131256873Y-99498301D01*
X131067023Y-99498301D01*
X131064042Y-99489125D01*
X131047039Y-99327355D01*
X131046497Y-99322197D01*
X131044896Y-99317270D01*
X131044895Y-99317265D01*
X130992852Y-99157095D01*
X130992851Y-99157094D01*
X130991250Y-99152165D01*
X130981778Y-99135758D01*
X130904452Y-99001826D01*
X130904451Y-99001825D01*
X130901859Y-98997335D01*
X130782230Y-98864474D01*
X130637593Y-98759388D01*
X130555930Y-98723030D01*
X130479005Y-98688780D01*
X130479001Y-98688779D01*
X130474267Y-98686671D01*
X130469197Y-98685593D01*
X130469196Y-98685593D01*
X130435272Y-98678382D01*
X130299391Y-98649500D01*
X130120609Y-98649500D01*
X129984728Y-98678382D01*
X129950804Y-98685593D01*
X129950803Y-98685593D01*
X129945733Y-98686671D01*
X129940999Y-98688779D01*
X129940995Y-98688780D01*
X129787142Y-98757280D01*
X129787140Y-98757281D01*
X129782408Y-98759388D01*
X129637770Y-98864474D01*
X129634304Y-98868324D01*
X129634300Y-98868327D01*
X129608999Y-98896427D01*
X129518141Y-98997335D01*
X129515543Y-99001834D01*
X129513645Y-99004447D01*
X129464145Y-99040411D01*
X129402959Y-99040411D01*
X129353459Y-99004447D01*
X129344762Y-98990043D01*
X129298595Y-98896427D01*
X129294913Y-98890419D01*
X129284504Y-98883062D01*
X129283055Y-98883081D01*
X129277962Y-98886248D01*
X128675296Y-99488914D01*
X128669242Y-99500797D01*
X127939946Y-99500797D01*
X127940758Y-99499203D01*
X127939962Y-99494172D01*
X127334794Y-98889004D01*
X127324437Y-98883727D01*
X127316562Y-98891500D01*
X127263737Y-98991903D01*
X127219909Y-99034598D01*
X127159357Y-99043377D01*
X127105209Y-99014888D01*
X127096033Y-99004002D01*
X127094451Y-99001825D01*
X127091859Y-98997335D01*
X127088387Y-98993479D01*
X127088386Y-98993477D01*
X126975702Y-98868330D01*
X126975699Y-98868327D01*
X126972230Y-98864474D01*
X126827593Y-98759388D01*
X126745930Y-98723030D01*
X126669005Y-98688780D01*
X126669001Y-98688779D01*
X126664267Y-98686671D01*
X126659197Y-98685593D01*
X126659196Y-98685593D01*
X126625272Y-98678382D01*
X126489391Y-98649500D01*
X126310609Y-98649500D01*
X126174728Y-98678382D01*
X126140804Y-98685593D01*
X126140803Y-98685593D01*
X126135733Y-98686671D01*
X126130999Y-98688779D01*
X126130995Y-98688780D01*
X126042563Y-98728153D01*
X125981713Y-98734549D01*
X125928725Y-98703956D01*
X125903838Y-98648060D01*
X125916559Y-98588212D01*
X125932292Y-98567708D01*
X126061386Y-98438614D01*
X126115903Y-98410837D01*
X126151973Y-98411781D01*
X126310609Y-98445500D01*
X126489391Y-98445500D01*
X126652468Y-98410837D01*
X126659196Y-98409407D01*
X126659197Y-98409407D01*
X126664267Y-98408329D01*
X126669001Y-98406221D01*
X126669005Y-98406220D01*
X126771455Y-98360606D01*
X126827593Y-98335612D01*
X126972230Y-98230526D01*
X127091859Y-98097665D01*
X127119668Y-98049498D01*
X127165136Y-98008559D01*
X127205403Y-98000000D01*
X127499597Y-98000000D01*
X127557788Y-98018907D01*
G37*
G04 #@! TD.AperFunction*
G04 #@! TA.AperFunction,Conductor*
G36*
X123657657Y-105507382D02*
G01*
X125760390Y-105541297D01*
X125818268Y-105561140D01*
X125828315Y-105569802D01*
X126286669Y-106021912D01*
X126314820Y-106076237D01*
X126316103Y-106089440D01*
X126345528Y-107075187D01*
X126345572Y-107078141D01*
X126345572Y-107133263D01*
X126345486Y-107134520D01*
X126345404Y-107134827D01*
X126345343Y-107136622D01*
X126345322Y-107136930D01*
X126344849Y-107136898D01*
X126344457Y-107138362D01*
X126345572Y-107138362D01*
X126345572Y-107282645D01*
X126344200Y-107299070D01*
X126343414Y-107303742D01*
X126340596Y-107335157D01*
X126340445Y-107347499D01*
X126342495Y-107378981D01*
X126342765Y-107380864D01*
X126344572Y-107393484D01*
X126345572Y-107407519D01*
X126345572Y-107850000D01*
X126361133Y-107928231D01*
X126365199Y-107934316D01*
X126372139Y-107966674D01*
X126383832Y-108358367D01*
X126366669Y-108417096D01*
X126355916Y-108430272D01*
X125929165Y-108869951D01*
X125875069Y-108898539D01*
X125858125Y-108900000D01*
X122993942Y-108900000D01*
X122935751Y-108881093D01*
X122911627Y-108856002D01*
X122899971Y-108838558D01*
X122894552Y-108830448D01*
X122828231Y-108786133D01*
X122818668Y-108784231D01*
X122818666Y-108784230D01*
X122795995Y-108779721D01*
X122769748Y-108774500D01*
X121230252Y-108774500D01*
X121204005Y-108779721D01*
X121181334Y-108784230D01*
X121181332Y-108784231D01*
X121171769Y-108786133D01*
X121105448Y-108830448D01*
X121100029Y-108838558D01*
X121088373Y-108856002D01*
X121040323Y-108893881D01*
X121006058Y-108900000D01*
X120641008Y-108900000D01*
X120582817Y-108881093D01*
X120571004Y-108871004D01*
X120128996Y-108428996D01*
X120101219Y-108374479D01*
X120100000Y-108358992D01*
X120100000Y-105991476D01*
X120118907Y-105933285D01*
X120129563Y-105920910D01*
X120570372Y-105487153D01*
X120625111Y-105459816D01*
X120641406Y-105458732D01*
X123657657Y-105507382D01*
G37*
G04 #@! TD.AperFunction*
M02*
