G04 #@! TF.GenerationSoftware,KiCad,Pcbnew,(5.1.9)-1*
G04 #@! TF.CreationDate,2021-10-09T16:27:14+02:00*
G04 #@! TF.ProjectId,DgDrive_DVI,44674472-6976-4655-9f44-56492e6b6963,1.5*
G04 #@! TF.SameCoordinates,Original*
G04 #@! TF.FileFunction,Soldermask,Bot*
G04 #@! TF.FilePolarity,Negative*
%FSLAX46Y46*%
G04 Gerber Fmt 4.6, Leading zero omitted, Abs format (unit mm)*
G04 Created by KiCad (PCBNEW (5.1.9)-1) date 2021-10-09 16:27:14*
%MOMM*%
%LPD*%
G01*
G04 APERTURE LIST*
%ADD10R,1.500000X1.050000*%
%ADD11O,1.500000X1.050000*%
%ADD12C,1.800000*%
%ADD13R,1.800000X1.800000*%
%ADD14C,2.250000*%
%ADD15C,2.050000*%
%ADD16C,2.000000*%
%ADD17C,1.300000*%
%ADD18C,4.200000*%
%ADD19C,2.499360*%
%ADD20R,1.600000X1.600000*%
%ADD21C,1.600000*%
G04 APERTURE END LIST*
D10*
X122000000Y-109500000D03*
D11*
X122000000Y-112040000D03*
X122000000Y-110770000D03*
D12*
X102362000Y-100000000D03*
D13*
X99822000Y-100000000D03*
D14*
X148960000Y-109960000D03*
X148960000Y-115040000D03*
X154040000Y-115040000D03*
X154040000Y-109960000D03*
D15*
X151500000Y-112500000D03*
D14*
X148960000Y-96960000D03*
X148960000Y-102040000D03*
X154040000Y-102040000D03*
X154040000Y-96960000D03*
D15*
X151500000Y-99500000D03*
D16*
X110380000Y-107780000D03*
X105300000Y-107780000D03*
X100220000Y-107780000D03*
X92600000Y-107780000D03*
X110380000Y-115400000D03*
X105300000Y-115400000D03*
X92600000Y-115400000D03*
X100220000Y-115400000D03*
D17*
X116240000Y-102018000D03*
X116240000Y-96938000D03*
X114970000Y-100748000D03*
X117510000Y-100748000D03*
X117510000Y-98208000D03*
X114970000Y-98208000D03*
X120685000Y-97595000D03*
X120685000Y-101405000D03*
X122590000Y-101405000D03*
X124495000Y-101405000D03*
X126400000Y-101405000D03*
X128305000Y-101405000D03*
X130210000Y-101405000D03*
X132115000Y-101405000D03*
X134020000Y-101405000D03*
X120685000Y-99500000D03*
X122590000Y-99500000D03*
X124495000Y-99500000D03*
X126400000Y-99500000D03*
X128305000Y-99500000D03*
X130210000Y-99500000D03*
X132115000Y-99500000D03*
D18*
X140750000Y-99500000D03*
D17*
X124495000Y-97595000D03*
X122590000Y-97595000D03*
X134020000Y-99500000D03*
X126400000Y-97595000D03*
X128305000Y-97595000D03*
X134020000Y-97595000D03*
X132115000Y-97595000D03*
X130210000Y-97595000D03*
D18*
X108240000Y-99500000D03*
D19*
X119500000Y-115500000D03*
X149950000Y-93100000D03*
X153600000Y-93100000D03*
D20*
X95000000Y-101000000D03*
D21*
X95000000Y-103000000D03*
M02*
