G04 #@! TF.GenerationSoftware,KiCad,Pcbnew,5.1.7*
G04 #@! TF.CreationDate,2020-10-15T01:08:01+02:00*
G04 #@! TF.ProjectId,DgDrive_DVI,44674472-6976-4655-9f44-56492e6b6963,1.2*
G04 #@! TF.SameCoordinates,Original*
G04 #@! TF.FileFunction,Legend,Bot*
G04 #@! TF.FilePolarity,Positive*
%FSLAX46Y46*%
G04 Gerber Fmt 4.6, Leading zero omitted, Abs format (unit mm)*
G04 Created by KiCad (PCBNEW 5.1.7) date 2020-10-15 01:08:01*
%MOMM*%
%LPD*%
G01*
G04 APERTURE LIST*
%ADD10C,0.120000*%
%ADD11C,0.150000*%
G04 APERTURE END LIST*
D10*
X102133130Y-98920163D02*
G75*
G03*
X100051039Y-98920000I-1041130J-1079837D01*
G01*
X102133130Y-101079837D02*
G75*
G02*
X100051039Y-101080000I-1041130J1079837D01*
G01*
X102764335Y-98921392D02*
G75*
G03*
X99532000Y-98764484I-1672335J-1078608D01*
G01*
X102764335Y-101078608D02*
G75*
G02*
X99532000Y-101235516I-1672335J1078608D01*
G01*
X99532000Y-101236000D02*
X99532000Y-101080000D01*
X99532000Y-98920000D02*
X99532000Y-98764000D01*
X148145000Y-113950000D02*
X148145000Y-111050000D01*
X154855000Y-113950000D02*
X154855000Y-111050000D01*
X150050000Y-109145000D02*
X152950000Y-109145000D01*
X150050000Y-115855000D02*
X152950000Y-115855000D01*
X148145000Y-100950000D02*
X148145000Y-98050000D01*
X154855000Y-100950000D02*
X154855000Y-98050000D01*
X150050000Y-96145000D02*
X152950000Y-96145000D01*
X150050000Y-102855000D02*
X152950000Y-102855000D01*
X128822936Y-116710000D02*
X133177064Y-116710000D01*
X128822936Y-113290000D02*
X133177064Y-113290000D01*
X126322936Y-110710000D02*
X130677064Y-110710000D01*
X126322936Y-107290000D02*
X130677064Y-107290000D01*
X118022500Y-112437258D02*
X118022500Y-111962742D01*
X116977500Y-112437258D02*
X116977500Y-111962742D01*
X143110000Y-103300000D02*
G75*
G02*
X141910000Y-104500000I-1200000J0D01*
G01*
X141910000Y-94500000D02*
G75*
G02*
X143110000Y-95700000I0J-1200000D01*
G01*
X107080000Y-104500000D02*
G75*
G02*
X105880000Y-103300000I0J1200000D01*
G01*
X105880000Y-95700000D02*
G75*
G02*
X107080000Y-94500000I1200000J0D01*
G01*
X143110000Y-95700000D02*
X143110000Y-103300000D01*
X105880000Y-95700000D02*
X105880000Y-103300000D01*
X137068000Y-94500000D02*
X137068000Y-104455000D01*
X111922000Y-94500000D02*
X111922000Y-104455000D01*
X141910000Y-94500000D02*
X107080000Y-94500000D01*
X141910000Y-104500000D02*
X107080000Y-104500000D01*
D11*
X101830095Y-103412380D02*
X101830095Y-102412380D01*
X101592000Y-102412380D01*
X101449142Y-102460000D01*
X101353904Y-102555238D01*
X101306285Y-102650476D01*
X101258666Y-102840952D01*
X101258666Y-102983809D01*
X101306285Y-103174285D01*
X101353904Y-103269523D01*
X101449142Y-103364761D01*
X101592000Y-103412380D01*
X101830095Y-103412380D01*
X100401523Y-102745714D02*
X100401523Y-103412380D01*
X100639619Y-102364761D02*
X100877714Y-103079047D01*
X100258666Y-103079047D01*
X156428571Y-110476190D02*
X156476190Y-110619047D01*
X156523809Y-110666666D01*
X156619047Y-110714285D01*
X156761904Y-110714285D01*
X156857142Y-110666666D01*
X156904761Y-110619047D01*
X156952380Y-110523809D01*
X156952380Y-110142857D01*
X155952380Y-110142857D01*
X155952380Y-110476190D01*
X156000000Y-110571428D01*
X156047619Y-110619047D01*
X156142857Y-110666666D01*
X156238095Y-110666666D01*
X156333333Y-110619047D01*
X156380952Y-110571428D01*
X156428571Y-110476190D01*
X156428571Y-110142857D01*
X156952380Y-111142857D02*
X156285714Y-111142857D01*
X155952380Y-111142857D02*
X156000000Y-111095238D01*
X156047619Y-111142857D01*
X156000000Y-111190476D01*
X155952380Y-111142857D01*
X156047619Y-111142857D01*
X156952380Y-112047619D02*
X156428571Y-112047619D01*
X156333333Y-112000000D01*
X156285714Y-111904761D01*
X156285714Y-111714285D01*
X156333333Y-111619047D01*
X156904761Y-112047619D02*
X156952380Y-111952380D01*
X156952380Y-111714285D01*
X156904761Y-111619047D01*
X156809523Y-111571428D01*
X156714285Y-111571428D01*
X156619047Y-111619047D01*
X156571428Y-111714285D01*
X156571428Y-111952380D01*
X156523809Y-112047619D01*
X156904761Y-112476190D02*
X156952380Y-112571428D01*
X156952380Y-112761904D01*
X156904761Y-112857142D01*
X156809523Y-112904761D01*
X156761904Y-112904761D01*
X156666666Y-112857142D01*
X156619047Y-112761904D01*
X156619047Y-112619047D01*
X156571428Y-112523809D01*
X156476190Y-112476190D01*
X156428571Y-112476190D01*
X156333333Y-112523809D01*
X156285714Y-112619047D01*
X156285714Y-112761904D01*
X156333333Y-112857142D01*
X156571428Y-113333333D02*
X156571428Y-114095238D01*
X155952380Y-114428571D02*
X155952380Y-115000000D01*
X156952380Y-114714285D02*
X155952380Y-114714285D01*
X156952380Y-96642857D02*
X155952380Y-96642857D01*
X155952380Y-97023809D01*
X156000000Y-97119047D01*
X156047619Y-97166666D01*
X156142857Y-97214285D01*
X156285714Y-97214285D01*
X156380952Y-97166666D01*
X156428571Y-97119047D01*
X156476190Y-97023809D01*
X156476190Y-96642857D01*
X156952380Y-97642857D02*
X156285714Y-97642857D01*
X155952380Y-97642857D02*
X156000000Y-97595238D01*
X156047619Y-97642857D01*
X156000000Y-97690476D01*
X155952380Y-97642857D01*
X156047619Y-97642857D01*
X156904761Y-98500000D02*
X156952380Y-98404761D01*
X156952380Y-98214285D01*
X156904761Y-98119047D01*
X156809523Y-98071428D01*
X156428571Y-98071428D01*
X156333333Y-98119047D01*
X156285714Y-98214285D01*
X156285714Y-98404761D01*
X156333333Y-98500000D01*
X156428571Y-98547619D01*
X156523809Y-98547619D01*
X156619047Y-98071428D01*
X156285714Y-98880952D02*
X156285714Y-99404761D01*
X156952380Y-98880952D01*
X156952380Y-99404761D01*
X156952380Y-99928571D02*
X156904761Y-99833333D01*
X156857142Y-99785714D01*
X156761904Y-99738095D01*
X156476190Y-99738095D01*
X156380952Y-99785714D01*
X156333333Y-99833333D01*
X156285714Y-99928571D01*
X156285714Y-100071428D01*
X156333333Y-100166666D01*
X156380952Y-100214285D01*
X156476190Y-100261904D01*
X156761904Y-100261904D01*
X156857142Y-100214285D01*
X156904761Y-100166666D01*
X156952380Y-100071428D01*
X156952380Y-99928571D01*
X157047619Y-100452380D02*
X157047619Y-101214285D01*
X156952380Y-101452380D02*
X155952380Y-101452380D01*
X156285714Y-101928571D02*
X156952380Y-101928571D01*
X156380952Y-101928571D02*
X156333333Y-101976190D01*
X156285714Y-102071428D01*
X156285714Y-102214285D01*
X156333333Y-102309523D01*
X156428571Y-102357142D01*
X156952380Y-102357142D01*
X131166666Y-112452380D02*
X131500000Y-111976190D01*
X131738095Y-112452380D02*
X131738095Y-111452380D01*
X131357142Y-111452380D01*
X131261904Y-111500000D01*
X131214285Y-111547619D01*
X131166666Y-111642857D01*
X131166666Y-111785714D01*
X131214285Y-111880952D01*
X131261904Y-111928571D01*
X131357142Y-111976190D01*
X131738095Y-111976190D01*
X130309523Y-111452380D02*
X130500000Y-111452380D01*
X130595238Y-111500000D01*
X130642857Y-111547619D01*
X130738095Y-111690476D01*
X130785714Y-111880952D01*
X130785714Y-112261904D01*
X130738095Y-112357142D01*
X130690476Y-112404761D01*
X130595238Y-112452380D01*
X130404761Y-112452380D01*
X130309523Y-112404761D01*
X130261904Y-112357142D01*
X130214285Y-112261904D01*
X130214285Y-112023809D01*
X130261904Y-111928571D01*
X130309523Y-111880952D01*
X130404761Y-111833333D01*
X130595238Y-111833333D01*
X130690476Y-111880952D01*
X130738095Y-111928571D01*
X130785714Y-112023809D01*
X128666666Y-106452380D02*
X129000000Y-105976190D01*
X129238095Y-106452380D02*
X129238095Y-105452380D01*
X128857142Y-105452380D01*
X128761904Y-105500000D01*
X128714285Y-105547619D01*
X128666666Y-105642857D01*
X128666666Y-105785714D01*
X128714285Y-105880952D01*
X128761904Y-105928571D01*
X128857142Y-105976190D01*
X129238095Y-105976190D01*
X127714285Y-106452380D02*
X128285714Y-106452380D01*
X128000000Y-106452380D02*
X128000000Y-105452380D01*
X128095238Y-105595238D01*
X128190476Y-105690476D01*
X128285714Y-105738095D01*
X119382380Y-112033333D02*
X118906190Y-111700000D01*
X119382380Y-111461904D02*
X118382380Y-111461904D01*
X118382380Y-111842857D01*
X118430000Y-111938095D01*
X118477619Y-111985714D01*
X118572857Y-112033333D01*
X118715714Y-112033333D01*
X118810952Y-111985714D01*
X118858571Y-111938095D01*
X118906190Y-111842857D01*
X118906190Y-111461904D01*
X118382380Y-112366666D02*
X118382380Y-113033333D01*
X119382380Y-112604761D01*
X114028333Y-92952380D02*
X114028333Y-93666666D01*
X114075952Y-93809523D01*
X114171190Y-93904761D01*
X114314047Y-93952380D01*
X114409285Y-93952380D01*
X113599761Y-93047619D02*
X113552142Y-93000000D01*
X113456904Y-92952380D01*
X113218809Y-92952380D01*
X113123571Y-93000000D01*
X113075952Y-93047619D01*
X113028333Y-93142857D01*
X113028333Y-93238095D01*
X113075952Y-93380952D01*
X113647380Y-93952380D01*
X113028333Y-93952380D01*
X130066428Y-94167380D02*
X130066428Y-93167380D01*
X129828333Y-93167380D01*
X129685476Y-93215000D01*
X129590238Y-93310238D01*
X129542619Y-93405476D01*
X129495000Y-93595952D01*
X129495000Y-93738809D01*
X129542619Y-93929285D01*
X129590238Y-94024523D01*
X129685476Y-94119761D01*
X129828333Y-94167380D01*
X130066428Y-94167380D01*
X129209285Y-93167380D02*
X128875952Y-94167380D01*
X128542619Y-93167380D01*
X128209285Y-94167380D02*
X128209285Y-93167380D01*
X127733095Y-93786428D02*
X126971190Y-93786428D01*
X126495000Y-94167380D02*
X126495000Y-93167380D01*
X125256904Y-94167380D02*
X125256904Y-93167380D01*
X125018809Y-93167380D01*
X124875952Y-93215000D01*
X124780714Y-93310238D01*
X124733095Y-93405476D01*
X124685476Y-93595952D01*
X124685476Y-93738809D01*
X124733095Y-93929285D01*
X124780714Y-94024523D01*
X124875952Y-94119761D01*
X125018809Y-94167380D01*
X125256904Y-94167380D01*
X123828333Y-93500714D02*
X123828333Y-94167380D01*
X124256904Y-93500714D02*
X124256904Y-94024523D01*
X124209285Y-94119761D01*
X124114047Y-94167380D01*
X123971190Y-94167380D01*
X123875952Y-94119761D01*
X123828333Y-94072142D01*
X122923571Y-94167380D02*
X122923571Y-93643571D01*
X122971190Y-93548333D01*
X123066428Y-93500714D01*
X123256904Y-93500714D01*
X123352142Y-93548333D01*
X122923571Y-94119761D02*
X123018809Y-94167380D01*
X123256904Y-94167380D01*
X123352142Y-94119761D01*
X123399761Y-94024523D01*
X123399761Y-93929285D01*
X123352142Y-93834047D01*
X123256904Y-93786428D01*
X123018809Y-93786428D01*
X122923571Y-93738809D01*
X122304523Y-94167380D02*
X122399761Y-94119761D01*
X122447380Y-94024523D01*
X122447380Y-93167380D01*
X121018809Y-94167380D02*
X121114047Y-94119761D01*
X121161666Y-94024523D01*
X121161666Y-93167380D01*
X120637857Y-94167380D02*
X120637857Y-93500714D01*
X120637857Y-93167380D02*
X120685476Y-93215000D01*
X120637857Y-93262619D01*
X120590238Y-93215000D01*
X120637857Y-93167380D01*
X120637857Y-93262619D01*
X120161666Y-93500714D02*
X120161666Y-94167380D01*
X120161666Y-93595952D02*
X120114047Y-93548333D01*
X120018809Y-93500714D01*
X119875952Y-93500714D01*
X119780714Y-93548333D01*
X119733095Y-93643571D01*
X119733095Y-94167380D01*
X119256904Y-94167380D02*
X119256904Y-93167380D01*
X119161666Y-93786428D02*
X118875952Y-94167380D01*
X118875952Y-93500714D02*
X119256904Y-93881666D01*
M02*
