M48
; DRILL file {KiCad (6.0.1)} date Tue Jan 25 14:47:42 2022
; FORMAT={-:-/ absolute / inch / decimal}
; #@! TF.CreationDate,2022-01-25T14:47:42+01:00
; #@! TF.GenerationSoftware,Kicad,Pcbnew,(6.0.1)
; #@! TF.FileFunction,Plated,1,2,PTH
FMAT,2
INCH
; #@! TA.AperFunction,Plated,PTH,ViaDrill
T1C0.0118
; #@! TA.AperFunction,Plated,PTH,ComponentDrill
T2C0.0276
; #@! TA.AperFunction,Plated,PTH,ComponentDrill
T3C0.0295
; #@! TA.AperFunction,Plated,PTH,ComponentDrill
T4C0.0315
; #@! TA.AperFunction,Plated,PTH,ComponentDrill
T5C0.0335
; #@! TA.AperFunction,Plated,PTH,ComponentDrill
T6C0.0354
; #@! TA.AperFunction,Plated,PTH,ComponentDrill
T7C0.0394
; #@! TA.AperFunction,Plated,PTH,ComponentDrill
T8C0.0394
; #@! TA.AperFunction,Plated,PTH,ComponentDrill
T9C0.0591
; #@! TA.AperFunction,Plated,PTH,ComponentDrill
T10C0.0669
; #@! TA.AperFunction,Plated,PTH,ComponentDrill
T11C0.1181
%
G90
G05
T1
X4.4567Y-4.1083
X4.622Y-3.752
X4.7362Y-3.7913
X4.7638Y-4.1732
X4.7638Y-4.2126
X4.7638Y-4.252
X4.8228Y-4.1732
X4.8228Y-4.2126
X4.8228Y-4.252
X4.8819Y-4.1732
X4.8819Y-4.2126
X4.8819Y-4.252
X4.9547Y-3.7008
X5.0965Y-3.7539
X5.1358Y-3.7539
X5.1732Y-4.4921
X5.1752Y-3.7539
X5.2146Y-3.7539
X5.2539Y-3.7539
X5.2539Y-3.6752
X5.2539Y-3.7165
X5.2598Y-4.1654
X5.2598Y-4.2874
X5.2736Y-4.3839
X5.2933Y-3.7539
X5.2992Y-4.1654
X5.2992Y-4.2874
X5.3327Y-3.7539
X5.3386Y-4.1654
X5.3386Y-4.2874
X5.372Y-3.7539
X5.378Y-4.1654
X5.378Y-4.2874
X5.3839Y-3.8878
X5.3839Y-3.9272
X5.3839Y-3.9665
X5.3839Y-4.0059
X5.4114Y-3.7539
X5.4173Y-4.1654
X5.4173Y-4.2874
X5.4232Y-3.8878
X5.4232Y-3.9272
X5.4232Y-3.9665
X5.4232Y-4.0059
X5.4488Y-4.3839
X5.4508Y-3.7539
X5.4567Y-4.1654
X5.4567Y-4.2874
X5.4606Y-4.2244
X5.4902Y-3.7539
X5.5295Y-3.7539
X5.5413Y-4.3701
X5.5472Y-4.4882
X5.5689Y-3.7539
X5.6083Y-3.7539
X5.7224Y-4.0906
X5.7402Y-4.1614
X5.7402Y-4.2008
X5.7402Y-4.2402
X5.7402Y-4.2795
X5.7402Y-4.3189
X5.7402Y-4.3583
X5.7402Y-4.3976
T2
X4.5264Y-3.8665
X4.5264Y-3.9665
X4.5764Y-3.8165
X4.5764Y-4.0165
X4.6264Y-3.8665
X4.6264Y-3.9665
T3
X4.8031Y-4.311
X4.8031Y-4.361
X4.8031Y-4.411
T4
X3.7402Y-3.9764
X3.7402Y-4.0551
T5
X4.7514Y-3.8423
X4.7514Y-3.9173
X4.7514Y-3.9923
X4.8264Y-3.8423
X4.8264Y-3.9173
X4.8264Y-3.9923
X4.9014Y-3.8423
X4.9014Y-3.9173
X4.9014Y-3.9923
X4.9764Y-3.8423
X4.9764Y-3.9173
X4.9764Y-3.9923
X5.0514Y-3.8423
X5.0514Y-3.9173
X5.0514Y-3.9923
X5.1264Y-3.8423
X5.1264Y-3.9173
X5.1264Y-3.9923
X5.2014Y-3.8423
X5.2014Y-3.9173
X5.2014Y-3.9923
X5.2764Y-3.8423
X5.2764Y-3.9173
X5.2764Y-3.9923
T6
X3.93Y-3.937
X4.03Y-3.937
T7
X3.6457Y-4.2433
X3.6457Y-4.5433
X3.9457Y-4.2433
X3.9457Y-4.5433
X4.1457Y-4.2433
X4.1457Y-4.5433
X4.3457Y-4.2433
X4.3457Y-4.5433
T8
X4.7047Y-4.5472
T9
X5.9646Y-3.9173
X5.9646Y-4.4291
T10
X5.8646Y-3.8173
X5.8646Y-4.0173
X5.8646Y-4.3291
X5.8646Y-4.5291
X6.0646Y-3.8173
X6.0646Y-4.0173
X6.0646Y-4.3291
X6.0646Y-4.5291
T11
X4.2614Y-3.9173
X5.5413Y-3.9173
T0
M30
