G04 #@! TF.GenerationSoftware,KiCad,Pcbnew,(6.0.1)*
G04 #@! TF.CreationDate,2022-01-25T14:47:38+01:00*
G04 #@! TF.ProjectId,DgDrive_DVI,44674472-6976-4655-9f44-56492e6b6963,1.7*
G04 #@! TF.SameCoordinates,Original*
G04 #@! TF.FileFunction,Paste,Top*
G04 #@! TF.FilePolarity,Positive*
%FSLAX46Y46*%
G04 Gerber Fmt 4.6, Leading zero omitted, Abs format (unit mm)*
G04 Created by KiCad (PCBNEW (6.0.1)) date 2022-01-25 14:47:38*
%MOMM*%
%LPD*%
G01*
G04 APERTURE LIST*
G04 Aperture macros list*
%AMRoundRect*
0 Rectangle with rounded corners*
0 $1 Rounding radius*
0 $2 $3 $4 $5 $6 $7 $8 $9 X,Y pos of 4 corners*
0 Add a 4 corners polygon primitive as box body*
4,1,4,$2,$3,$4,$5,$6,$7,$8,$9,$2,$3,0*
0 Add four circle primitives for the rounded corners*
1,1,$1+$1,$2,$3*
1,1,$1+$1,$4,$5*
1,1,$1+$1,$6,$7*
1,1,$1+$1,$8,$9*
0 Add four rect primitives between the rounded corners*
20,1,$1+$1,$2,$3,$4,$5,0*
20,1,$1+$1,$4,$5,$6,$7,0*
20,1,$1+$1,$6,$7,$8,$9,0*
20,1,$1+$1,$8,$9,$2,$3,0*%
G04 Aperture macros list end*
%ADD10RoundRect,0.300000X-2.050000X0.300000X-2.050000X-0.300000X2.050000X-0.300000X2.050000X0.300000X0*%
%ADD11R,0.800000X0.900000*%
%ADD12R,0.900000X0.800000*%
%ADD13R,0.900000X1.200000*%
%ADD14RoundRect,0.249997X0.312503X1.075003X-0.312503X1.075003X-0.312503X-1.075003X0.312503X-1.075003X0*%
%ADD15RoundRect,0.200000X-0.275000X0.200000X-0.275000X-0.200000X0.275000X-0.200000X0.275000X0.200000X0*%
%ADD16RoundRect,0.200000X0.275000X-0.200000X0.275000X0.200000X-0.275000X0.200000X-0.275000X-0.200000X0*%
%ADD17R,2.000000X3.800000*%
%ADD18RoundRect,0.225000X-0.225000X-0.250000X0.225000X-0.250000X0.225000X0.250000X-0.225000X0.250000X0*%
%ADD19RoundRect,0.225000X0.225000X0.250000X-0.225000X0.250000X-0.225000X-0.250000X0.225000X-0.250000X0*%
%ADD20RoundRect,0.225000X0.250000X-0.225000X0.250000X0.225000X-0.250000X0.225000X-0.250000X-0.225000X0*%
%ADD21RoundRect,0.250000X-0.475000X0.250000X-0.475000X-0.250000X0.475000X-0.250000X0.475000X0.250000X0*%
%ADD22RoundRect,0.225000X-0.250000X0.225000X-0.250000X-0.225000X0.250000X-0.225000X0.250000X0.225000X0*%
%ADD23RoundRect,0.250000X-0.250000X-0.475000X0.250000X-0.475000X0.250000X0.475000X-0.250000X0.475000X0*%
%ADD24RoundRect,0.250000X0.250000X0.475000X-0.250000X0.475000X-0.250000X-0.475000X0.250000X-0.475000X0*%
%ADD25RoundRect,0.218750X0.256250X-0.218750X0.256250X0.218750X-0.256250X0.218750X-0.256250X-0.218750X0*%
%ADD26RoundRect,0.100000X0.100000X-0.712500X0.100000X0.712500X-0.100000X0.712500X-0.100000X-0.712500X0*%
%ADD27R,1.220000X0.650000*%
%ADD28R,0.650000X1.220000*%
%ADD29R,3.400000X1.800000*%
%ADD30RoundRect,0.200000X0.200000X0.275000X-0.200000X0.275000X-0.200000X-0.275000X0.200000X-0.275000X0*%
G04 APERTURE END LIST*
D10*
X135600000Y-107100000D03*
X135600000Y-103800000D03*
D11*
X112000000Y-104300000D03*
X111050000Y-102300000D03*
X112950000Y-102300000D03*
D12*
X118300000Y-92600000D03*
X116300000Y-93550000D03*
X116300000Y-91650000D03*
D11*
X109500000Y-93500000D03*
X108550000Y-91500000D03*
X110450000Y-91500000D03*
D13*
X98650000Y-95500000D03*
X95350000Y-95500000D03*
D14*
X142287500Y-114500000D03*
X145212500Y-114500000D03*
D15*
X115000000Y-106725000D03*
X115000000Y-105075000D03*
D16*
X118700000Y-105075000D03*
X118700000Y-106725000D03*
X113000000Y-91675000D03*
X113000000Y-93325000D03*
D17*
X125000000Y-115000000D03*
D16*
X102500000Y-104825000D03*
X102500000Y-103175000D03*
D18*
X127975000Y-95600000D03*
X126425000Y-95600000D03*
D19*
X121375000Y-95600000D03*
X119825000Y-95600000D03*
D20*
X129000000Y-114275000D03*
X129000000Y-112725000D03*
D21*
X131900000Y-91800000D03*
X131900000Y-93700000D03*
D22*
X139450000Y-91825000D03*
X139450000Y-93375000D03*
D21*
X141700000Y-93750000D03*
X141700000Y-91850000D03*
D23*
X142300000Y-103900000D03*
X144200000Y-103900000D03*
D20*
X140500000Y-107375000D03*
X140500000Y-108925000D03*
D24*
X142350000Y-111000000D03*
X144250000Y-111000000D03*
D25*
X124500000Y-95587500D03*
X124500000Y-94012500D03*
X123000000Y-94012500D03*
X123000000Y-95587500D03*
D16*
X131200000Y-106025000D03*
X131200000Y-104375000D03*
X131200000Y-109225000D03*
X131200000Y-107575000D03*
D26*
X130775000Y-115612500D03*
X131425000Y-115612500D03*
X132075000Y-115612500D03*
X132725000Y-115612500D03*
X132725000Y-111387500D03*
X132075000Y-111387500D03*
X131425000Y-111387500D03*
X130775000Y-111387500D03*
D27*
X134790000Y-91850000D03*
X134790000Y-92800000D03*
X134790000Y-93750000D03*
X137410000Y-93750000D03*
X137410000Y-91850000D03*
D28*
X144200000Y-108710000D03*
X142300000Y-108710000D03*
X142300000Y-106090000D03*
X143250000Y-106090000D03*
X144200000Y-106090000D03*
D26*
X135025000Y-115612500D03*
X135675000Y-115612500D03*
X136325000Y-115612500D03*
X136975000Y-115612500D03*
X136975000Y-111387500D03*
X136325000Y-111387500D03*
X135675000Y-111387500D03*
X135025000Y-111387500D03*
D29*
X149950000Y-93100000D03*
X155676600Y-93129100D03*
D22*
X140300000Y-115325000D03*
X140300000Y-116875000D03*
D19*
X122175000Y-104000000D03*
X120625000Y-104000000D03*
D30*
X144625000Y-116900000D03*
X142975000Y-116900000D03*
X125625000Y-104000000D03*
X123975000Y-104000000D03*
M02*
